<?xml version="1.0" encoding="UTF-8" standalone="no"?>
<!DOCTYPE svg PUBLIC "-//W3C//DTD SVG 1.1//EN"
 "http://www.w3.org/Graphics/SVG/1.1/DTD/svg11.dtd">
<!-- Generated by graphviz version 2.40.1 (20161225.0304)
 -->
<!-- Title: oneDegreeRelationshipsDiagram Pages: 1 -->
<svg width="276pt" height="514pt"
 viewBox="0.00 0.00 276.00 514.20" xmlns="http://www.w3.org/2000/svg" xmlns:xlink="http://www.w3.org/1999/xlink">
<g id="graph0" class="graph" transform="scale(1 1) rotate(0) translate(4 510.2)">
<title>oneDegreeRelationshipsDiagram</title>
<polygon fill="#ffffff" stroke="transparent" points="-4,4 -4,-510.2 272,-510.2 272,4 -4,4"/>
<text text-anchor="middle" x="72.4936" y="-7.3" font-family="Helvetica,sans-Serif" font-size="11.00" fill="#000000">Generated by SchemaSpy</text>
<!-- acc_transection -->
<g id="node1" class="node">
<title>acc_transection</title>
<g id="a_node1"><a xlink:href="../../tables/acc_transection.html" xlink:title="acc_transection" target="_top">
<polygon fill="#ffffff" stroke="transparent" points="8,-38.2 8,-502.2 260,-502.2 260,-38.2 8,-38.2"/>
<polygon fill="#f5f5f5" stroke="transparent" points="10,-477.2 10,-500.2 258,-500.2 258,-477.2 10,-477.2"/>
<polygon fill="none" stroke="#000000" points="10,-477.2 10,-500.2 258,-500.2 258,-477.2 10,-477.2"/>
<text text-anchor="start" x="15" y="-485.8" font-family="Helvetica,sans-Serif" font-weight="bold" font-size="11.00" fill="#000000">acc_transection</text>
<text text-anchor="start" x="223.0437" y="-485.3" font-family="Helvetica,sans-Serif" font-size="11.00" fill="#000000">[table]</text>
<polygon fill="none" stroke="#000000" points="10,-455.2 10,-477.2 147,-477.2 147,-455.2 10,-455.2"/>
<image xlink:href="../../images/primaryKeys.png" width="11px" height="12px" preserveAspectRatio="xMinYMin meet" x="15" y="-472.2"/>
<text text-anchor="start" x="30" y="-462.3" font-family="Helvetica,sans-Serif" font-size="11.00" fill="#000000">ID</text>
<polygon fill="none" stroke="#000000" points="147,-455.2 147,-477.2 258,-477.2 258,-455.2 147,-455.2"/>
<text text-anchor="start" x="150" y="-462.9" font-family="Helvetica,sans-Serif" font-size="11.00" fill="#000000">int[10]</text>
<polygon fill="none" stroke="#000000" points="10,-433.2 10,-455.2 147,-455.2 147,-433.2 10,-433.2"/>
<text text-anchor="start" x="30" y="-440.3" font-family="Helvetica,sans-Serif" font-size="11.00" fill="#000000">Active</text>
<polygon fill="none" stroke="#000000" points="147,-433.2 147,-455.2 258,-455.2 258,-433.2 147,-433.2"/>
<text text-anchor="start" x="150" y="-440.9" font-family="Helvetica,sans-Serif" font-size="11.00" fill="#000000">bit[1]</text>
<polygon fill="none" stroke="#000000" points="10,-411.2 10,-433.2 147,-433.2 147,-411.2 10,-411.2"/>
<text text-anchor="start" x="30" y="-418.3" font-family="Helvetica,sans-Serif" font-size="11.00" fill="#000000">User</text>
<polygon fill="none" stroke="#000000" points="147,-411.2 147,-433.2 258,-433.2 258,-411.2 147,-411.2"/>
<text text-anchor="start" x="149.6115" y="-418.9" font-family="Helvetica,sans-Serif" font-size="11.00" fill="#000000">longtext[2147483647]</text>
<polygon fill="none" stroke="#000000" points="10,-389.2 10,-411.2 147,-411.2 147,-389.2 10,-389.2"/>
<text text-anchor="start" x="30" y="-396.3" font-family="Helvetica,sans-Serif" font-size="11.00" fill="#000000">CD</text>
<polygon fill="none" stroke="#000000" points="147,-389.2 147,-411.2 258,-411.2 258,-389.2 147,-389.2"/>
<text text-anchor="start" x="150" y="-396.9" font-family="Helvetica,sans-Serif" font-size="11.00" fill="#000000">datetime[26]</text>
<polygon fill="none" stroke="#000000" points="10,-367.2 10,-389.2 147,-389.2 147,-367.2 10,-367.2"/>
<text text-anchor="start" x="30" y="-374.3" font-family="Helvetica,sans-Serif" font-size="11.00" fill="#000000">UD</text>
<polygon fill="none" stroke="#000000" points="147,-367.2 147,-389.2 258,-389.2 258,-367.2 147,-367.2"/>
<text text-anchor="start" x="150" y="-374.9" font-family="Helvetica,sans-Serif" font-size="11.00" fill="#000000">datetime[26]</text>
<polygon fill="none" stroke="#000000" points="10,-345.2 10,-367.2 147,-367.2 147,-345.2 10,-345.2"/>
<text text-anchor="start" x="30" y="-352.3" font-family="Helvetica,sans-Serif" font-size="11.00" fill="#000000">Remarks</text>
<polygon fill="none" stroke="#000000" points="147,-345.2 147,-367.2 258,-367.2 258,-345.2 147,-345.2"/>
<text text-anchor="start" x="149.6115" y="-352.9" font-family="Helvetica,sans-Serif" font-size="11.00" fill="#000000">longtext[2147483647]</text>
<polygon fill="none" stroke="#000000" points="10,-323.2 10,-345.2 147,-345.2 147,-323.2 10,-323.2"/>
<text text-anchor="start" x="30" y="-330.3" font-family="Helvetica,sans-Serif" font-size="11.00" fill="#000000">UserID</text>
<polygon fill="none" stroke="#000000" points="147,-323.2 147,-345.2 258,-345.2 258,-323.2 147,-323.2"/>
<text text-anchor="start" x="150" y="-330.9" font-family="Helvetica,sans-Serif" font-size="11.00" fill="#000000">int[10]</text>
<polygon fill="none" stroke="#000000" points="10,-301.2 10,-323.2 147,-323.2 147,-301.2 10,-301.2"/>
<text text-anchor="start" x="30" y="-308.3" font-family="Helvetica,sans-Serif" font-size="11.00" fill="#000000">Code</text>
<polygon fill="none" stroke="#000000" points="147,-301.2 147,-323.2 258,-323.2 258,-301.2 147,-301.2"/>
<text text-anchor="start" x="149.6115" y="-308.9" font-family="Helvetica,sans-Serif" font-size="11.00" fill="#000000">longtext[2147483647]</text>
<polygon fill="none" stroke="#000000" points="10,-279.2 10,-301.2 147,-301.2 147,-279.2 10,-279.2"/>
<text text-anchor="start" x="30" y="-286.3" font-family="Helvetica,sans-Serif" font-size="11.00" fill="#000000">CID</text>
<polygon fill="none" stroke="#000000" points="147,-279.2 147,-301.2 258,-301.2 258,-279.2 147,-279.2"/>
<text text-anchor="start" x="149.6115" y="-286.9" font-family="Helvetica,sans-Serif" font-size="11.00" fill="#000000">longtext[2147483647]</text>
<polygon fill="none" stroke="#000000" points="10,-257.2 10,-279.2 147,-279.2 147,-257.2 10,-257.2"/>
<text text-anchor="start" x="30" y="-264.3" font-family="Helvetica,sans-Serif" font-size="11.00" fill="#000000">TreansectionDate</text>
<polygon fill="none" stroke="#000000" points="147,-257.2 147,-279.2 258,-279.2 258,-257.2 147,-257.2"/>
<text text-anchor="start" x="150" y="-264.9" font-family="Helvetica,sans-Serif" font-size="11.00" fill="#000000">datetime[26]</text>
<polygon fill="none" stroke="#000000" points="10,-235.2 10,-257.2 147,-257.2 147,-235.2 10,-235.2"/>
<text text-anchor="start" x="30" y="-242.3" font-family="Helvetica,sans-Serif" font-size="11.00" fill="#000000">JournalType</text>
<polygon fill="none" stroke="#000000" points="147,-235.2 147,-257.2 258,-257.2 258,-235.2 147,-235.2"/>
<text text-anchor="start" x="150" y="-242.9" font-family="Helvetica,sans-Serif" font-size="11.00" fill="#000000">int[10]</text>
<polygon fill="none" stroke="#000000" points="10,-213.2 10,-235.2 147,-235.2 147,-213.2 10,-213.2"/>
<text text-anchor="start" x="30" y="-220.3" font-family="Helvetica,sans-Serif" font-size="11.00" fill="#000000">Title</text>
<polygon fill="none" stroke="#000000" points="147,-213.2 147,-235.2 258,-235.2 258,-213.2 147,-213.2"/>
<text text-anchor="start" x="149.6115" y="-220.9" font-family="Helvetica,sans-Serif" font-size="11.00" fill="#000000">longtext[2147483647]</text>
<polygon fill="none" stroke="#000000" points="10,-191.2 10,-213.2 147,-213.2 147,-191.2 10,-191.2"/>
<text text-anchor="start" x="30" y="-198.3" font-family="Helvetica,sans-Serif" font-size="11.00" fill="#000000">Description</text>
<polygon fill="none" stroke="#000000" points="147,-191.2 147,-213.2 258,-213.2 258,-191.2 147,-191.2"/>
<text text-anchor="start" x="149.6115" y="-198.9" font-family="Helvetica,sans-Serif" font-size="11.00" fill="#000000">longtext[2147483647]</text>
<polygon fill="none" stroke="#000000" points="10,-169.2 10,-191.2 147,-191.2 147,-169.2 10,-169.2"/>
<text text-anchor="start" x="30" y="-176.3" font-family="Helvetica,sans-Serif" font-size="11.00" fill="#000000">Finalized</text>
<polygon fill="none" stroke="#000000" points="147,-169.2 147,-191.2 258,-191.2 258,-169.2 147,-169.2"/>
<text text-anchor="start" x="150" y="-176.9" font-family="Helvetica,sans-Serif" font-size="11.00" fill="#000000">bit[1]</text>
<polygon fill="none" stroke="#000000" points="10,-147.2 10,-169.2 147,-169.2 147,-147.2 10,-147.2"/>
<text text-anchor="start" x="30" y="-154.3" font-family="Helvetica,sans-Serif" font-size="11.00" fill="#000000">Approved</text>
<polygon fill="none" stroke="#000000" points="147,-147.2 147,-169.2 258,-169.2 258,-147.2 147,-147.2"/>
<text text-anchor="start" x="150" y="-154.9" font-family="Helvetica,sans-Serif" font-size="11.00" fill="#000000">bit[1]</text>
<polygon fill="none" stroke="#000000" points="10,-125.2 10,-147.2 147,-147.2 147,-125.2 10,-125.2"/>
<text text-anchor="start" x="30" y="-132.3" font-family="Helvetica,sans-Serif" font-size="11.00" fill="#000000">ReferenceId</text>
<polygon fill="none" stroke="#000000" points="147,-125.2 147,-147.2 258,-147.2 258,-125.2 147,-125.2"/>
<text text-anchor="start" x="150" y="-132.9" font-family="Helvetica,sans-Serif" font-size="11.00" fill="#000000">int[10]</text>
<polygon fill="none" stroke="#000000" points="10,-103.2 10,-125.2 147,-125.2 147,-103.2 10,-103.2"/>
<text text-anchor="start" x="30" y="-110.3" font-family="Helvetica,sans-Serif" font-size="11.00" fill="#000000">Common_DealerFK</text>
<polygon fill="none" stroke="#000000" points="147,-103.2 147,-125.2 258,-125.2 258,-103.2 147,-103.2"/>
<text text-anchor="start" x="150" y="-110.9" font-family="Helvetica,sans-Serif" font-size="11.00" fill="#000000">int[10]</text>
<polygon fill="none" stroke="#000000" points="10,-81.2 10,-103.2 147,-103.2 147,-81.2 10,-81.2"/>
<text text-anchor="start" x="30" y="-88.3" font-family="Helvetica,sans-Serif" font-size="11.00" fill="#000000">Order_ProjectFK</text>
<polygon fill="none" stroke="#000000" points="147,-81.2 147,-103.2 258,-103.2 258,-81.2 147,-81.2"/>
<text text-anchor="start" x="150" y="-88.9" font-family="Helvetica,sans-Serif" font-size="11.00" fill="#000000">int[10]</text>
<polygon fill="none" stroke="#000000" points="10,-59.2 10,-81.2 147,-81.2 147,-59.2 10,-59.2"/>
<text text-anchor="start" x="30" y="-66.3" font-family="Helvetica,sans-Serif" font-size="11.00" fill="#000000">Acc_TrialBalanceFK</text>
<polygon fill="none" stroke="#000000" points="147,-59.2 147,-81.2 258,-81.2 258,-59.2 147,-59.2"/>
<text text-anchor="start" x="150" y="-66.9" font-family="Helvetica,sans-Serif" font-size="11.00" fill="#000000">int[10]</text>
<polygon fill="#ffffff" stroke="transparent" points="10,-40.2 10,-59.2 70,-59.2 70,-40.2 10,-40.2"/>
<polygon fill="none" stroke="#000000" points="10,-40.2 10,-59.2 70,-59.2 70,-40.2 10,-40.2"/>
<text text-anchor="start" x="13" y="-46.3" font-family="Helvetica,sans-Serif" font-size="11.00" fill="#000000">&lt; 0</text>
<polygon fill="#ffffff" stroke="transparent" points="70,-40.2 70,-59.2 147,-59.2 147,-40.2 70,-40.2"/>
<polygon fill="none" stroke="#000000" points="70,-40.2 70,-59.2 147,-59.2 147,-40.2 70,-40.2"/>
<text text-anchor="start" x="111.6105" y="-46.3" font-family="Helvetica,sans-Serif" font-size="11.00" fill="#000000">3 rows</text>
<polygon fill="#ffffff" stroke="transparent" points="147,-40.2 147,-59.2 258,-59.2 258,-40.2 147,-40.2"/>
<polygon fill="none" stroke="#000000" points="147,-40.2 147,-59.2 258,-59.2 258,-40.2 147,-40.2"/>
<text text-anchor="start" x="239.4053" y="-46.3" font-family="Helvetica,sans-Serif" font-size="11.00" fill="#000000">0 &gt;</text>
<polygon fill="none" stroke="#000000" stroke-width="2" points="9,-39.2 9,-501.2 259,-501.2 259,-39.2 9,-39.2"/>
</a>
</g>
</g>
</g>
</svg>
