<?xml version="1.0" encoding="UTF-8" standalone="no"?>
<!DOCTYPE svg PUBLIC "-//W3C//DTD SVG 1.1//EN"
 "http://www.w3.org/Graphics/SVG/1.1/DTD/svg11.dtd">
<!-- Generated by graphviz version 2.40.1 (20161225.0304)
 -->
<!-- Title: oneDegreeRelationshipsDiagram Pages: 1 -->
<svg width="289pt" height="448pt"
 viewBox="0.00 0.00 289.00 448.20" xmlns="http://www.w3.org/2000/svg" xmlns:xlink="http://www.w3.org/1999/xlink">
<g id="graph0" class="graph" transform="scale(1 1) rotate(0) translate(4 444.2)">
<title>oneDegreeRelationshipsDiagram</title>
<polygon fill="#ffffff" stroke="transparent" points="-4,4 -4,-444.2 285,-444.2 285,4 -4,4"/>
<text text-anchor="middle" x="72.4936" y="-7.3" font-family="Helvetica,sans-Serif" font-size="11.00" fill="#000000">Generated by SchemaSpy</text>
<!-- acc_chart2 -->
<g id="node1" class="node">
<title>acc_chart2</title>
<g id="a_node1"><a xlink:href="../../tables/acc_chart2.html" xlink:title="acc_chart2" target="_top">
<polygon fill="#ffffff" stroke="transparent" points="8,-38.2 8,-436.2 273,-436.2 273,-38.2 8,-38.2"/>
<polygon fill="#f5f5f5" stroke="transparent" points="10.5,-411.2 10.5,-434.2 271.5,-434.2 271.5,-411.2 10.5,-411.2"/>
<polygon fill="none" stroke="#000000" points="10.5,-411.2 10.5,-434.2 271.5,-434.2 271.5,-411.2 10.5,-411.2"/>
<text text-anchor="start" x="15.5" y="-419.8" font-family="Helvetica,sans-Serif" font-weight="bold" font-size="11.00" fill="#000000">acc_chart2</text>
<text text-anchor="start" x="236.5437" y="-419.3" font-family="Helvetica,sans-Serif" font-size="11.00" fill="#000000">[table]</text>
<polygon fill="none" stroke="#000000" points="10.5,-389.2 10.5,-411.2 160.5,-411.2 160.5,-389.2 10.5,-389.2"/>
<image xlink:href="../../images/primaryKeys.png" width="11px" height="12px" preserveAspectRatio="xMinYMin meet" x="15.5" y="-406.2"/>
<text text-anchor="start" x="30.5" y="-396.3" font-family="Helvetica,sans-Serif" font-size="11.00" fill="#000000">ID</text>
<polygon fill="none" stroke="#000000" points="160.5,-389.2 160.5,-411.2 271.5,-411.2 271.5,-389.2 160.5,-389.2"/>
<text text-anchor="start" x="163.5" y="-396.9" font-family="Helvetica,sans-Serif" font-size="11.00" fill="#000000">int[10]</text>
<polygon fill="none" stroke="#000000" points="10.5,-367.2 10.5,-389.2 160.5,-389.2 160.5,-367.2 10.5,-367.2"/>
<text text-anchor="start" x="30.5" y="-374.3" font-family="Helvetica,sans-Serif" font-size="11.00" fill="#000000">Active</text>
<polygon fill="none" stroke="#000000" points="160.5,-367.2 160.5,-389.2 271.5,-389.2 271.5,-367.2 160.5,-367.2"/>
<text text-anchor="start" x="163.5" y="-374.9" font-family="Helvetica,sans-Serif" font-size="11.00" fill="#000000">bit[1]</text>
<polygon fill="none" stroke="#000000" points="10.5,-345.2 10.5,-367.2 160.5,-367.2 160.5,-345.2 10.5,-345.2"/>
<text text-anchor="start" x="30.5" y="-352.3" font-family="Helvetica,sans-Serif" font-size="11.00" fill="#000000">User</text>
<polygon fill="none" stroke="#000000" points="160.5,-345.2 160.5,-367.2 271.5,-367.2 271.5,-345.2 160.5,-345.2"/>
<text text-anchor="start" x="163.1115" y="-352.9" font-family="Helvetica,sans-Serif" font-size="11.00" fill="#000000">longtext[2147483647]</text>
<polygon fill="none" stroke="#000000" points="10.5,-323.2 10.5,-345.2 160.5,-345.2 160.5,-323.2 10.5,-323.2"/>
<text text-anchor="start" x="30.5" y="-330.3" font-family="Helvetica,sans-Serif" font-size="11.00" fill="#000000">CD</text>
<polygon fill="none" stroke="#000000" points="160.5,-323.2 160.5,-345.2 271.5,-345.2 271.5,-323.2 160.5,-323.2"/>
<text text-anchor="start" x="163.5" y="-330.9" font-family="Helvetica,sans-Serif" font-size="11.00" fill="#000000">datetime[26]</text>
<polygon fill="none" stroke="#000000" points="10.5,-301.2 10.5,-323.2 160.5,-323.2 160.5,-301.2 10.5,-301.2"/>
<text text-anchor="start" x="30.5" y="-308.3" font-family="Helvetica,sans-Serif" font-size="11.00" fill="#000000">UD</text>
<polygon fill="none" stroke="#000000" points="160.5,-301.2 160.5,-323.2 271.5,-323.2 271.5,-301.2 160.5,-301.2"/>
<text text-anchor="start" x="163.5" y="-308.9" font-family="Helvetica,sans-Serif" font-size="11.00" fill="#000000">datetime[26]</text>
<polygon fill="none" stroke="#000000" points="10.5,-279.2 10.5,-301.2 160.5,-301.2 160.5,-279.2 10.5,-279.2"/>
<text text-anchor="start" x="30.5" y="-286.3" font-family="Helvetica,sans-Serif" font-size="11.00" fill="#000000">Remarks</text>
<polygon fill="none" stroke="#000000" points="160.5,-279.2 160.5,-301.2 271.5,-301.2 271.5,-279.2 160.5,-279.2"/>
<text text-anchor="start" x="163.1115" y="-286.9" font-family="Helvetica,sans-Serif" font-size="11.00" fill="#000000">longtext[2147483647]</text>
<polygon fill="none" stroke="#000000" points="10.5,-257.2 10.5,-279.2 160.5,-279.2 160.5,-257.2 10.5,-257.2"/>
<text text-anchor="start" x="30.5" y="-264.3" font-family="Helvetica,sans-Serif" font-size="11.00" fill="#000000">UserID</text>
<polygon fill="none" stroke="#000000" points="160.5,-257.2 160.5,-279.2 271.5,-279.2 271.5,-257.2 160.5,-257.2"/>
<text text-anchor="start" x="163.5" y="-264.9" font-family="Helvetica,sans-Serif" font-size="11.00" fill="#000000">int[10]</text>
<polygon fill="none" stroke="#000000" points="10.5,-235.2 10.5,-257.2 160.5,-257.2 160.5,-235.2 10.5,-235.2"/>
<text text-anchor="start" x="30.5" y="-242.3" font-family="Helvetica,sans-Serif" font-size="11.00" fill="#000000">Name</text>
<polygon fill="none" stroke="#000000" points="160.5,-235.2 160.5,-257.2 271.5,-257.2 271.5,-235.2 160.5,-235.2"/>
<text text-anchor="start" x="163.1115" y="-242.9" font-family="Helvetica,sans-Serif" font-size="11.00" fill="#000000">longtext[2147483647]</text>
<polygon fill="none" stroke="#000000" points="10.5,-213.2 10.5,-235.2 160.5,-235.2 160.5,-213.2 10.5,-213.2"/>
<text text-anchor="start" x="30.5" y="-220.3" font-family="Helvetica,sans-Serif" font-size="11.00" fill="#000000">Acc_Chart1FK</text>
<polygon fill="none" stroke="#000000" points="160.5,-213.2 160.5,-235.2 271.5,-235.2 271.5,-213.2 160.5,-213.2"/>
<text text-anchor="start" x="163.5" y="-220.9" font-family="Helvetica,sans-Serif" font-size="11.00" fill="#000000">int[10]</text>
<polygon fill="none" stroke="#000000" points="10.5,-191.2 10.5,-213.2 160.5,-213.2 160.5,-191.2 10.5,-191.2"/>
<text text-anchor="start" x="30.5" y="-198.3" font-family="Helvetica,sans-Serif" font-size="11.00" fill="#000000">DrCr</text>
<polygon fill="none" stroke="#000000" points="160.5,-191.2 160.5,-213.2 271.5,-213.2 271.5,-191.2 160.5,-191.2"/>
<text text-anchor="start" x="163.5" y="-198.9" font-family="Helvetica,sans-Serif" font-size="11.00" fill="#000000">bit[1]</text>
<polygon fill="none" stroke="#000000" points="10.5,-169.2 10.5,-191.2 160.5,-191.2 160.5,-169.2 10.5,-169.2"/>
<text text-anchor="start" x="30.5" y="-176.3" font-family="Helvetica,sans-Serif" font-size="11.00" fill="#000000">Increase</text>
<polygon fill="none" stroke="#000000" points="160.5,-169.2 160.5,-191.2 271.5,-191.2 271.5,-169.2 160.5,-169.2"/>
<text text-anchor="start" x="163.5" y="-176.9" font-family="Helvetica,sans-Serif" font-size="11.00" fill="#000000">bit[1]</text>
<polygon fill="none" stroke="#000000" points="10.5,-147.2 10.5,-169.2 160.5,-169.2 160.5,-147.2 10.5,-147.2"/>
<text text-anchor="start" x="30.5" y="-154.3" font-family="Helvetica,sans-Serif" font-size="11.00" fill="#000000">Code</text>
<polygon fill="none" stroke="#000000" points="160.5,-147.2 160.5,-169.2 271.5,-169.2 271.5,-147.2 160.5,-147.2"/>
<text text-anchor="start" x="163.1115" y="-154.9" font-family="Helvetica,sans-Serif" font-size="11.00" fill="#000000">longtext[2147483647]</text>
<polygon fill="none" stroke="#000000" points="10.5,-125.2 10.5,-147.2 160.5,-147.2 160.5,-125.2 10.5,-125.2"/>
<text text-anchor="start" x="30.5" y="-132.3" font-family="Helvetica,sans-Serif" font-size="11.00" fill="#000000">Common_CompanyFK</text>
<polygon fill="none" stroke="#000000" points="160.5,-125.2 160.5,-147.2 271.5,-147.2 271.5,-125.2 160.5,-125.2"/>
<text text-anchor="start" x="163.5" y="-132.9" font-family="Helvetica,sans-Serif" font-size="11.00" fill="#000000">int[10]</text>
<polygon fill="none" stroke="#000000" points="10.5,-103.2 10.5,-125.2 160.5,-125.2 160.5,-103.2 10.5,-103.2"/>
<text text-anchor="start" x="30.5" y="-110.3" font-family="Helvetica,sans-Serif" font-size="11.00" fill="#000000">Common_DealerFK</text>
<polygon fill="none" stroke="#000000" points="160.5,-103.2 160.5,-125.2 271.5,-125.2 271.5,-103.2 160.5,-103.2"/>
<text text-anchor="start" x="163.5" y="-110.9" font-family="Helvetica,sans-Serif" font-size="11.00" fill="#000000">int[10]</text>
<polygon fill="none" stroke="#000000" points="10.5,-81.2 10.5,-103.2 160.5,-103.2 160.5,-81.2 10.5,-81.2"/>
<text text-anchor="start" x="30.5" y="-88.3" font-family="Helvetica,sans-Serif" font-size="11.00" fill="#000000">ReferenceId</text>
<polygon fill="none" stroke="#000000" points="160.5,-81.2 160.5,-103.2 271.5,-103.2 271.5,-81.2 160.5,-81.2"/>
<text text-anchor="start" x="163.5" y="-88.9" font-family="Helvetica,sans-Serif" font-size="11.00" fill="#000000">int[10]</text>
<polygon fill="none" stroke="#000000" points="10.5,-59.2 10.5,-81.2 160.5,-81.2 160.5,-59.2 10.5,-59.2"/>
<text text-anchor="start" x="30.5" y="-66.3" font-family="Helvetica,sans-Serif" font-size="11.00" fill="#000000">EnumChartTwoId</text>
<polygon fill="none" stroke="#000000" points="160.5,-59.2 160.5,-81.2 271.5,-81.2 271.5,-59.2 160.5,-59.2"/>
<text text-anchor="start" x="163.5" y="-66.9" font-family="Helvetica,sans-Serif" font-size="11.00" fill="#000000">int[10]</text>
<polygon fill="#ffffff" stroke="transparent" points="10.5,-40.2 10.5,-59.2 70.5,-59.2 70.5,-40.2 10.5,-40.2"/>
<polygon fill="none" stroke="#000000" points="10.5,-40.2 10.5,-59.2 70.5,-59.2 70.5,-40.2 10.5,-40.2"/>
<text text-anchor="start" x="13.5" y="-46.3" font-family="Helvetica,sans-Serif" font-size="11.00" fill="#000000">&lt; 0</text>
<polygon fill="#ffffff" stroke="transparent" points="70.5,-40.2 70.5,-59.2 160.5,-59.2 160.5,-40.2 70.5,-40.2"/>
<polygon fill="none" stroke="#000000" points="70.5,-40.2 70.5,-59.2 160.5,-59.2 160.5,-40.2 70.5,-40.2"/>
<text text-anchor="start" x="112.8807" y="-46.3" font-family="Helvetica,sans-Serif" font-size="11.00" fill="#000000">555 rows</text>
<polygon fill="#ffffff" stroke="transparent" points="160.5,-40.2 160.5,-59.2 271.5,-59.2 271.5,-40.2 160.5,-40.2"/>
<polygon fill="none" stroke="#000000" points="160.5,-40.2 160.5,-59.2 271.5,-59.2 271.5,-40.2 160.5,-40.2"/>
<text text-anchor="start" x="252.9053" y="-46.3" font-family="Helvetica,sans-Serif" font-size="11.00" fill="#000000">0 &gt;</text>
<polygon fill="none" stroke="#000000" stroke-width="2" points="9,-39.2 9,-435.2 272,-435.2 272,-39.2 9,-39.2"/>
</a>
</g>
</g>
</g>
</svg>
