<?xml version="1.0" encoding="UTF-8" standalone="no"?>
<!DOCTYPE svg PUBLIC "-//W3C//DTD SVG 1.1//EN"
 "http://www.w3.org/Graphics/SVG/1.1/DTD/svg11.dtd">
<!-- Generated by graphviz version 2.40.1 (20161225.0304)
 -->
<!-- Title: oneDegreeRelationshipsDiagram Pages: 1 -->
<svg width="282pt" height="338pt"
 viewBox="0.00 0.00 282.00 338.20" xmlns="http://www.w3.org/2000/svg" xmlns:xlink="http://www.w3.org/1999/xlink">
<g id="graph0" class="graph" transform="scale(1 1) rotate(0) translate(4 334.2)">
<title>oneDegreeRelationshipsDiagram</title>
<polygon fill="#ffffff" stroke="transparent" points="-4,4 -4,-334.2 278,-334.2 278,4 -4,4"/>
<text text-anchor="middle" x="72.4936" y="-7.3" font-family="Helvetica,sans-Serif" font-size="11.00" fill="#000000">Generated by SchemaSpy</text>
<!-- acc_ventureshare -->
<g id="node1" class="node">
<title>acc_ventureshare</title>
<g id="a_node1"><a xlink:href="../../tables/acc_ventureshare.html" xlink:title="acc_ventureshare" target="_top">
<polygon fill="#ffffff" stroke="transparent" points="8,-38.2 8,-326.2 266,-326.2 266,-38.2 8,-38.2"/>
<polygon fill="#f5f5f5" stroke="transparent" points="10,-301.2 10,-324.2 264,-324.2 264,-301.2 10,-301.2"/>
<polygon fill="none" stroke="#000000" points="10,-301.2 10,-324.2 264,-324.2 264,-301.2 10,-301.2"/>
<text text-anchor="start" x="15" y="-309.8" font-family="Helvetica,sans-Serif" font-weight="bold" font-size="11.00" fill="#000000">acc_ventureshare</text>
<text text-anchor="start" x="229.0437" y="-309.3" font-family="Helvetica,sans-Serif" font-size="11.00" fill="#000000">[table]</text>
<polygon fill="none" stroke="#000000" points="10,-279.2 10,-301.2 153,-301.2 153,-279.2 10,-279.2"/>
<image xlink:href="../../images/primaryKeys.png" width="11px" height="12px" preserveAspectRatio="xMinYMin meet" x="15" y="-296.2"/>
<text text-anchor="start" x="30" y="-286.3" font-family="Helvetica,sans-Serif" font-size="11.00" fill="#000000">ID</text>
<polygon fill="none" stroke="#000000" points="153,-279.2 153,-301.2 264,-301.2 264,-279.2 153,-279.2"/>
<text text-anchor="start" x="156" y="-286.9" font-family="Helvetica,sans-Serif" font-size="11.00" fill="#000000">int[10]</text>
<polygon fill="none" stroke="#000000" points="10,-257.2 10,-279.2 153,-279.2 153,-257.2 10,-257.2"/>
<text text-anchor="start" x="30" y="-264.3" font-family="Helvetica,sans-Serif" font-size="11.00" fill="#000000">Active</text>
<polygon fill="none" stroke="#000000" points="153,-257.2 153,-279.2 264,-279.2 264,-257.2 153,-257.2"/>
<text text-anchor="start" x="156" y="-264.9" font-family="Helvetica,sans-Serif" font-size="11.00" fill="#000000">bit[1]</text>
<polygon fill="none" stroke="#000000" points="10,-235.2 10,-257.2 153,-257.2 153,-235.2 10,-235.2"/>
<text text-anchor="start" x="30" y="-242.3" font-family="Helvetica,sans-Serif" font-size="11.00" fill="#000000">User</text>
<polygon fill="none" stroke="#000000" points="153,-235.2 153,-257.2 264,-257.2 264,-235.2 153,-235.2"/>
<text text-anchor="start" x="155.6115" y="-242.9" font-family="Helvetica,sans-Serif" font-size="11.00" fill="#000000">longtext[2147483647]</text>
<polygon fill="none" stroke="#000000" points="10,-213.2 10,-235.2 153,-235.2 153,-213.2 10,-213.2"/>
<text text-anchor="start" x="30" y="-220.3" font-family="Helvetica,sans-Serif" font-size="11.00" fill="#000000">CD</text>
<polygon fill="none" stroke="#000000" points="153,-213.2 153,-235.2 264,-235.2 264,-213.2 153,-213.2"/>
<text text-anchor="start" x="156" y="-220.9" font-family="Helvetica,sans-Serif" font-size="11.00" fill="#000000">datetime[26]</text>
<polygon fill="none" stroke="#000000" points="10,-191.2 10,-213.2 153,-213.2 153,-191.2 10,-191.2"/>
<text text-anchor="start" x="30" y="-198.3" font-family="Helvetica,sans-Serif" font-size="11.00" fill="#000000">UD</text>
<polygon fill="none" stroke="#000000" points="153,-191.2 153,-213.2 264,-213.2 264,-191.2 153,-191.2"/>
<text text-anchor="start" x="156" y="-198.9" font-family="Helvetica,sans-Serif" font-size="11.00" fill="#000000">datetime[26]</text>
<polygon fill="none" stroke="#000000" points="10,-169.2 10,-191.2 153,-191.2 153,-169.2 10,-169.2"/>
<text text-anchor="start" x="30" y="-176.3" font-family="Helvetica,sans-Serif" font-size="11.00" fill="#000000">Remarks</text>
<polygon fill="none" stroke="#000000" points="153,-169.2 153,-191.2 264,-191.2 264,-169.2 153,-169.2"/>
<text text-anchor="start" x="155.6115" y="-176.9" font-family="Helvetica,sans-Serif" font-size="11.00" fill="#000000">longtext[2147483647]</text>
<polygon fill="none" stroke="#000000" points="10,-147.2 10,-169.2 153,-169.2 153,-147.2 10,-147.2"/>
<text text-anchor="start" x="30" y="-154.3" font-family="Helvetica,sans-Serif" font-size="11.00" fill="#000000">UserID</text>
<polygon fill="none" stroke="#000000" points="153,-147.2 153,-169.2 264,-169.2 264,-147.2 153,-147.2"/>
<text text-anchor="start" x="156" y="-154.9" font-family="Helvetica,sans-Serif" font-size="11.00" fill="#000000">int[10]</text>
<polygon fill="none" stroke="#000000" points="10,-125.2 10,-147.2 153,-147.2 153,-125.2 10,-125.2"/>
<text text-anchor="start" x="30" y="-132.3" font-family="Helvetica,sans-Serif" font-size="11.00" fill="#000000">Acc_AccountHeadFK</text>
<polygon fill="none" stroke="#000000" points="153,-125.2 153,-147.2 264,-147.2 264,-125.2 153,-125.2"/>
<text text-anchor="start" x="156" y="-132.9" font-family="Helvetica,sans-Serif" font-size="11.00" fill="#000000">int[10]</text>
<polygon fill="none" stroke="#000000" points="10,-103.2 10,-125.2 153,-125.2 153,-103.2 10,-103.2"/>
<text text-anchor="start" x="30" y="-110.3" font-family="Helvetica,sans-Serif" font-size="11.00" fill="#000000">Common_VentureFK</text>
<polygon fill="none" stroke="#000000" points="153,-103.2 153,-125.2 264,-125.2 264,-103.2 153,-103.2"/>
<text text-anchor="start" x="156" y="-110.9" font-family="Helvetica,sans-Serif" font-size="11.00" fill="#000000">int[10]</text>
<polygon fill="none" stroke="#000000" points="10,-81.2 10,-103.2 153,-103.2 153,-81.2 10,-81.2"/>
<text text-anchor="start" x="30" y="-88.3" font-family="Helvetica,sans-Serif" font-size="11.00" fill="#000000">ShareRate</text>
<polygon fill="none" stroke="#000000" points="153,-81.2 153,-103.2 264,-103.2 264,-81.2 153,-81.2"/>
<text text-anchor="start" x="156" y="-88.9" font-family="Helvetica,sans-Serif" font-size="11.00" fill="#000000">decimal[18,2]</text>
<polygon fill="none" stroke="#000000" points="10,-59.2 10,-81.2 153,-81.2 153,-59.2 10,-59.2"/>
<text text-anchor="start" x="30" y="-66.3" font-family="Helvetica,sans-Serif" font-size="11.00" fill="#000000">IsActive</text>
<polygon fill="none" stroke="#000000" points="153,-59.2 153,-81.2 264,-81.2 264,-59.2 153,-59.2"/>
<text text-anchor="start" x="156" y="-66.9" font-family="Helvetica,sans-Serif" font-size="11.00" fill="#000000">bit[1]</text>
<polygon fill="#ffffff" stroke="transparent" points="10,-40.2 10,-59.2 73,-59.2 73,-40.2 10,-40.2"/>
<polygon fill="none" stroke="#000000" points="10,-40.2 10,-59.2 73,-59.2 73,-40.2 10,-40.2"/>
<text text-anchor="start" x="13" y="-46.3" font-family="Helvetica,sans-Serif" font-size="11.00" fill="#000000">&lt; 0</text>
<polygon fill="#ffffff" stroke="transparent" points="73,-40.2 73,-59.2 153,-59.2 153,-40.2 73,-40.2"/>
<polygon fill="none" stroke="#000000" points="73,-40.2 73,-59.2 153,-59.2 153,-40.2 73,-40.2"/>
<text text-anchor="start" x="117.6105" y="-46.3" font-family="Helvetica,sans-Serif" font-size="11.00" fill="#000000">0 rows</text>
<polygon fill="#ffffff" stroke="transparent" points="153,-40.2 153,-59.2 264,-59.2 264,-40.2 153,-40.2"/>
<polygon fill="none" stroke="#000000" points="153,-40.2 153,-59.2 264,-59.2 264,-40.2 153,-40.2"/>
<text text-anchor="start" x="245.4053" y="-46.3" font-family="Helvetica,sans-Serif" font-size="11.00" fill="#000000">0 &gt;</text>
<polygon fill="none" stroke="#000000" stroke-width="2" points="9,-39.2 9,-325.2 265,-325.2 265,-39.2 9,-39.2"/>
</a>
</g>
</g>
</g>
</svg>
