<?xml version="1.0" encoding="UTF-8" standalone="no"?>
<!DOCTYPE svg PUBLIC "-//W3C//DTD SVG 1.1//EN"
 "http://www.w3.org/Graphics/SVG/1.1/DTD/svg11.dtd">
<!-- Generated by graphviz version 2.40.1 (20161225.0304)
 -->
<!-- Title: oneDegreeRelationshipsDiagram Pages: 1 -->
<svg width="303pt" height="316pt"
 viewBox="0.00 0.00 303.00 316.20" xmlns="http://www.w3.org/2000/svg" xmlns:xlink="http://www.w3.org/1999/xlink">
<g id="graph0" class="graph" transform="scale(1 1) rotate(0) translate(4 312.2)">
<title>oneDegreeRelationshipsDiagram</title>
<polygon fill="#ffffff" stroke="transparent" points="-4,4 -4,-312.2 299,-312.2 299,4 -4,4"/>
<text text-anchor="middle" x="72.4936" y="-7.3" font-family="Helvetica,sans-Serif" font-size="11.00" fill="#000000">Generated by SchemaSpy</text>
<!-- acc_statementitem -->
<g id="node1" class="node">
<title>acc_statementitem</title>
<g id="a_node1"><a xlink:href="../../tables/acc_statementitem.html" xlink:title="acc_statementitem" target="_top">
<polygon fill="#ffffff" stroke="transparent" points="8,-38.2 8,-304.2 287,-304.2 287,-38.2 8,-38.2"/>
<polygon fill="#f5f5f5" stroke="transparent" points="10.5,-279.2 10.5,-302.2 285.5,-302.2 285.5,-279.2 10.5,-279.2"/>
<polygon fill="none" stroke="#000000" points="10.5,-279.2 10.5,-302.2 285.5,-302.2 285.5,-279.2 10.5,-279.2"/>
<text text-anchor="start" x="15.5" y="-287.8" font-family="Helvetica,sans-Serif" font-weight="bold" font-size="11.00" fill="#000000">acc_statementitem</text>
<text text-anchor="start" x="250.5437" y="-287.3" font-family="Helvetica,sans-Serif" font-size="11.00" fill="#000000">[table]</text>
<polygon fill="none" stroke="#000000" points="10.5,-257.2 10.5,-279.2 174.5,-279.2 174.5,-257.2 10.5,-257.2"/>
<image xlink:href="../../images/primaryKeys.png" width="11px" height="12px" preserveAspectRatio="xMinYMin meet" x="15.5" y="-274.2"/>
<text text-anchor="start" x="30.5" y="-264.3" font-family="Helvetica,sans-Serif" font-size="11.00" fill="#000000">ID</text>
<polygon fill="none" stroke="#000000" points="174.5,-257.2 174.5,-279.2 285.5,-279.2 285.5,-257.2 174.5,-257.2"/>
<text text-anchor="start" x="177.5" y="-264.9" font-family="Helvetica,sans-Serif" font-size="11.00" fill="#000000">int[10]</text>
<polygon fill="none" stroke="#000000" points="10.5,-235.2 10.5,-257.2 174.5,-257.2 174.5,-235.2 10.5,-235.2"/>
<text text-anchor="start" x="30.5" y="-242.3" font-family="Helvetica,sans-Serif" font-size="11.00" fill="#000000">Active</text>
<polygon fill="none" stroke="#000000" points="174.5,-235.2 174.5,-257.2 285.5,-257.2 285.5,-235.2 174.5,-235.2"/>
<text text-anchor="start" x="177.5" y="-242.9" font-family="Helvetica,sans-Serif" font-size="11.00" fill="#000000">bit[1]</text>
<polygon fill="none" stroke="#000000" points="10.5,-213.2 10.5,-235.2 174.5,-235.2 174.5,-213.2 10.5,-213.2"/>
<text text-anchor="start" x="30.5" y="-220.3" font-family="Helvetica,sans-Serif" font-size="11.00" fill="#000000">User</text>
<polygon fill="none" stroke="#000000" points="174.5,-213.2 174.5,-235.2 285.5,-235.2 285.5,-213.2 174.5,-213.2"/>
<text text-anchor="start" x="177.1115" y="-220.9" font-family="Helvetica,sans-Serif" font-size="11.00" fill="#000000">longtext[2147483647]</text>
<polygon fill="none" stroke="#000000" points="10.5,-191.2 10.5,-213.2 174.5,-213.2 174.5,-191.2 10.5,-191.2"/>
<text text-anchor="start" x="30.5" y="-198.3" font-family="Helvetica,sans-Serif" font-size="11.00" fill="#000000">CD</text>
<polygon fill="none" stroke="#000000" points="174.5,-191.2 174.5,-213.2 285.5,-213.2 285.5,-191.2 174.5,-191.2"/>
<text text-anchor="start" x="177.5" y="-198.9" font-family="Helvetica,sans-Serif" font-size="11.00" fill="#000000">datetime[26]</text>
<polygon fill="none" stroke="#000000" points="10.5,-169.2 10.5,-191.2 174.5,-191.2 174.5,-169.2 10.5,-169.2"/>
<text text-anchor="start" x="30.5" y="-176.3" font-family="Helvetica,sans-Serif" font-size="11.00" fill="#000000">UD</text>
<polygon fill="none" stroke="#000000" points="174.5,-169.2 174.5,-191.2 285.5,-191.2 285.5,-169.2 174.5,-169.2"/>
<text text-anchor="start" x="177.5" y="-176.9" font-family="Helvetica,sans-Serif" font-size="11.00" fill="#000000">datetime[26]</text>
<polygon fill="none" stroke="#000000" points="10.5,-147.2 10.5,-169.2 174.5,-169.2 174.5,-147.2 10.5,-147.2"/>
<text text-anchor="start" x="30.5" y="-154.3" font-family="Helvetica,sans-Serif" font-size="11.00" fill="#000000">Remarks</text>
<polygon fill="none" stroke="#000000" points="174.5,-147.2 174.5,-169.2 285.5,-169.2 285.5,-147.2 174.5,-147.2"/>
<text text-anchor="start" x="177.1115" y="-154.9" font-family="Helvetica,sans-Serif" font-size="11.00" fill="#000000">longtext[2147483647]</text>
<polygon fill="none" stroke="#000000" points="10.5,-125.2 10.5,-147.2 174.5,-147.2 174.5,-125.2 10.5,-125.2"/>
<text text-anchor="start" x="30.5" y="-132.3" font-family="Helvetica,sans-Serif" font-size="11.00" fill="#000000">UserID</text>
<polygon fill="none" stroke="#000000" points="174.5,-125.2 174.5,-147.2 285.5,-147.2 285.5,-125.2 174.5,-125.2"/>
<text text-anchor="start" x="177.5" y="-132.9" font-family="Helvetica,sans-Serif" font-size="11.00" fill="#000000">int[10]</text>
<polygon fill="none" stroke="#000000" points="10.5,-103.2 10.5,-125.2 174.5,-125.2 174.5,-103.2 10.5,-103.2"/>
<text text-anchor="start" x="30.5" y="-110.3" font-family="Helvetica,sans-Serif" font-size="11.00" fill="#000000">CompanyFK</text>
<polygon fill="none" stroke="#000000" points="174.5,-103.2 174.5,-125.2 285.5,-125.2 285.5,-103.2 174.5,-103.2"/>
<text text-anchor="start" x="177.5" y="-110.9" font-family="Helvetica,sans-Serif" font-size="11.00" fill="#000000">int[10]</text>
<polygon fill="none" stroke="#000000" points="10.5,-81.2 10.5,-103.2 174.5,-103.2 174.5,-81.2 10.5,-81.2"/>
<text text-anchor="start" x="30.5" y="-88.3" font-family="Helvetica,sans-Serif" font-size="11.00" fill="#000000">Acc_StatementFormatFK</text>
<polygon fill="none" stroke="#000000" points="174.5,-81.2 174.5,-103.2 285.5,-103.2 285.5,-81.2 174.5,-81.2"/>
<text text-anchor="start" x="177.5" y="-88.9" font-family="Helvetica,sans-Serif" font-size="11.00" fill="#000000">int[10]</text>
<polygon fill="none" stroke="#000000" points="10.5,-59.2 10.5,-81.2 174.5,-81.2 174.5,-59.2 10.5,-59.2"/>
<text text-anchor="start" x="30.5" y="-66.3" font-family="Helvetica,sans-Serif" font-size="11.00" fill="#000000">Ch1Ch2HeadFK</text>
<polygon fill="none" stroke="#000000" points="174.5,-59.2 174.5,-81.2 285.5,-81.2 285.5,-59.2 174.5,-59.2"/>
<text text-anchor="start" x="177.5" y="-66.9" font-family="Helvetica,sans-Serif" font-size="11.00" fill="#000000">int[10]</text>
<polygon fill="#ffffff" stroke="transparent" points="10.5,-40.2 10.5,-59.2 83.5,-59.2 83.5,-40.2 10.5,-40.2"/>
<polygon fill="none" stroke="#000000" points="10.5,-40.2 10.5,-59.2 83.5,-59.2 83.5,-40.2 10.5,-40.2"/>
<text text-anchor="start" x="13.5" y="-46.3" font-family="Helvetica,sans-Serif" font-size="11.00" fill="#000000">&lt; 0</text>
<polygon fill="#ffffff" stroke="transparent" points="83.5,-40.2 83.5,-59.2 174.5,-59.2 174.5,-40.2 83.5,-40.2"/>
<polygon fill="none" stroke="#000000" points="83.5,-40.2 83.5,-59.2 174.5,-59.2 174.5,-40.2 83.5,-40.2"/>
<text text-anchor="start" x="139.1105" y="-46.3" font-family="Helvetica,sans-Serif" font-size="11.00" fill="#000000">0 rows</text>
<polygon fill="#ffffff" stroke="transparent" points="174.5,-40.2 174.5,-59.2 285.5,-59.2 285.5,-40.2 174.5,-40.2"/>
<polygon fill="none" stroke="#000000" points="174.5,-40.2 174.5,-59.2 285.5,-59.2 285.5,-40.2 174.5,-40.2"/>
<text text-anchor="start" x="266.9053" y="-46.3" font-family="Helvetica,sans-Serif" font-size="11.00" fill="#000000">0 &gt;</text>
<polygon fill="none" stroke="#000000" stroke-width="2" points="9,-39.2 9,-303.2 286,-303.2 286,-39.2 9,-39.2"/>
</a>
</g>
</g>
</g>
</svg>
