<?xml version="1.0" encoding="UTF-8" standalone="no"?>
<!DOCTYPE svg PUBLIC "-//W3C//DTD SVG 1.1//EN"
 "http://www.w3.org/Graphics/SVG/1.1/DTD/svg11.dtd">
<!-- Generated by graphviz version 2.40.1 (20161225.0304)
 -->
<!-- Title: oneDegreeRelationshipsDiagram Pages: 1 -->
<svg width="276pt" height="734pt"
 viewBox="0.00 0.00 276.00 734.20" xmlns="http://www.w3.org/2000/svg" xmlns:xlink="http://www.w3.org/1999/xlink">
<g id="graph0" class="graph" transform="scale(1 1) rotate(0) translate(4 730.2)">
<title>oneDegreeRelationshipsDiagram</title>
<polygon fill="#ffffff" stroke="transparent" points="-4,4 -4,-730.2 272,-730.2 272,4 -4,4"/>
<text text-anchor="middle" x="72.4936" y="-7.3" font-family="Helvetica,sans-Serif" font-size="11.00" fill="#000000">Generated by SchemaSpy</text>
<!-- attendance_paycard -->
<g id="node1" class="node">
<title>attendance_paycard</title>
<g id="a_node1"><a xlink:href="../../tables/attendance_paycard.html" xlink:title="attendance_paycard" target="_top">
<polygon fill="#ffffff" stroke="transparent" points="8,-38.2 8,-722.2 260,-722.2 260,-38.2 8,-38.2"/>
<polygon fill="#f5f5f5" stroke="transparent" points="10,-697.2 10,-720.2 258,-720.2 258,-697.2 10,-697.2"/>
<polygon fill="none" stroke="#000000" points="10,-697.2 10,-720.2 258,-720.2 258,-697.2 10,-697.2"/>
<text text-anchor="start" x="15" y="-705.8" font-family="Helvetica,sans-Serif" font-weight="bold" font-size="11.00" fill="#000000">attendance_paycard</text>
<text text-anchor="start" x="223.0437" y="-705.3" font-family="Helvetica,sans-Serif" font-size="11.00" fill="#000000">[table]</text>
<polygon fill="none" stroke="#000000" points="10,-675.2 10,-697.2 147,-697.2 147,-675.2 10,-675.2"/>
<image xlink:href="../../images/primaryKeys.png" width="11px" height="12px" preserveAspectRatio="xMinYMin meet" x="15" y="-692.2"/>
<text text-anchor="start" x="30" y="-682.3" font-family="Helvetica,sans-Serif" font-size="11.00" fill="#000000">ID</text>
<polygon fill="none" stroke="#000000" points="147,-675.2 147,-697.2 258,-697.2 258,-675.2 147,-675.2"/>
<text text-anchor="start" x="150" y="-682.9" font-family="Helvetica,sans-Serif" font-size="11.00" fill="#000000">int[10]</text>
<polygon fill="none" stroke="#000000" points="10,-653.2 10,-675.2 147,-675.2 147,-653.2 10,-653.2"/>
<text text-anchor="start" x="30" y="-660.3" font-family="Helvetica,sans-Serif" font-size="11.00" fill="#000000">Active</text>
<polygon fill="none" stroke="#000000" points="147,-653.2 147,-675.2 258,-675.2 258,-653.2 147,-653.2"/>
<text text-anchor="start" x="150" y="-660.9" font-family="Helvetica,sans-Serif" font-size="11.00" fill="#000000">bit[1]</text>
<polygon fill="none" stroke="#000000" points="10,-631.2 10,-653.2 147,-653.2 147,-631.2 10,-631.2"/>
<text text-anchor="start" x="30" y="-638.3" font-family="Helvetica,sans-Serif" font-size="11.00" fill="#000000">User</text>
<polygon fill="none" stroke="#000000" points="147,-631.2 147,-653.2 258,-653.2 258,-631.2 147,-631.2"/>
<text text-anchor="start" x="149.6115" y="-638.9" font-family="Helvetica,sans-Serif" font-size="11.00" fill="#000000">longtext[2147483647]</text>
<polygon fill="none" stroke="#000000" points="10,-609.2 10,-631.2 147,-631.2 147,-609.2 10,-609.2"/>
<text text-anchor="start" x="30" y="-616.3" font-family="Helvetica,sans-Serif" font-size="11.00" fill="#000000">CD</text>
<polygon fill="none" stroke="#000000" points="147,-609.2 147,-631.2 258,-631.2 258,-609.2 147,-609.2"/>
<text text-anchor="start" x="150" y="-616.9" font-family="Helvetica,sans-Serif" font-size="11.00" fill="#000000">datetime[26]</text>
<polygon fill="none" stroke="#000000" points="10,-587.2 10,-609.2 147,-609.2 147,-587.2 10,-587.2"/>
<text text-anchor="start" x="30" y="-594.3" font-family="Helvetica,sans-Serif" font-size="11.00" fill="#000000">UD</text>
<polygon fill="none" stroke="#000000" points="147,-587.2 147,-609.2 258,-609.2 258,-587.2 147,-587.2"/>
<text text-anchor="start" x="150" y="-594.9" font-family="Helvetica,sans-Serif" font-size="11.00" fill="#000000">datetime[26]</text>
<polygon fill="none" stroke="#000000" points="10,-565.2 10,-587.2 147,-587.2 147,-565.2 10,-565.2"/>
<text text-anchor="start" x="30" y="-572.3" font-family="Helvetica,sans-Serif" font-size="11.00" fill="#000000">Remarks</text>
<polygon fill="none" stroke="#000000" points="147,-565.2 147,-587.2 258,-587.2 258,-565.2 147,-565.2"/>
<text text-anchor="start" x="149.6115" y="-572.9" font-family="Helvetica,sans-Serif" font-size="11.00" fill="#000000">longtext[2147483647]</text>
<polygon fill="none" stroke="#000000" points="10,-543.2 10,-565.2 147,-565.2 147,-543.2 10,-543.2"/>
<text text-anchor="start" x="30" y="-550.3" font-family="Helvetica,sans-Serif" font-size="11.00" fill="#000000">UserID</text>
<polygon fill="none" stroke="#000000" points="147,-543.2 147,-565.2 258,-565.2 258,-543.2 147,-543.2"/>
<text text-anchor="start" x="150" y="-550.9" font-family="Helvetica,sans-Serif" font-size="11.00" fill="#000000">int[10]</text>
<polygon fill="none" stroke="#000000" points="10,-521.2 10,-543.2 147,-543.2 147,-521.2 10,-521.2"/>
<text text-anchor="start" x="30" y="-528.3" font-family="Helvetica,sans-Serif" font-size="11.00" fill="#000000">Common_DealerFK</text>
<polygon fill="none" stroke="#000000" points="147,-521.2 147,-543.2 258,-543.2 258,-521.2 147,-521.2"/>
<text text-anchor="start" x="150" y="-528.9" font-family="Helvetica,sans-Serif" font-size="11.00" fill="#000000">int[10]</text>
<polygon fill="none" stroke="#000000" points="10,-499.2 10,-521.2 147,-521.2 147,-499.2 10,-499.2"/>
<text text-anchor="start" x="30" y="-506.3" font-family="Helvetica,sans-Serif" font-size="11.00" fill="#000000">EmployeeFK</text>
<polygon fill="none" stroke="#000000" points="147,-499.2 147,-521.2 258,-521.2 258,-499.2 147,-499.2"/>
<text text-anchor="start" x="150" y="-506.9" font-family="Helvetica,sans-Serif" font-size="11.00" fill="#000000">int[10]</text>
<polygon fill="none" stroke="#000000" points="10,-477.2 10,-499.2 147,-499.2 147,-477.2 10,-477.2"/>
<text text-anchor="start" x="30" y="-484.3" font-family="Helvetica,sans-Serif" font-size="11.00" fill="#000000">PayCardMonth</text>
<polygon fill="none" stroke="#000000" points="147,-477.2 147,-499.2 258,-499.2 258,-477.2 147,-477.2"/>
<text text-anchor="start" x="150" y="-484.9" font-family="Helvetica,sans-Serif" font-size="11.00" fill="#000000">datetime[26]</text>
<polygon fill="none" stroke="#000000" points="10,-455.2 10,-477.2 147,-477.2 147,-455.2 10,-455.2"/>
<text text-anchor="start" x="30" y="-462.3" font-family="Helvetica,sans-Serif" font-size="11.00" fill="#000000">TotalWorkTime</text>
<polygon fill="none" stroke="#000000" points="147,-455.2 147,-477.2 258,-477.2 258,-455.2 147,-455.2"/>
<text text-anchor="start" x="150" y="-462.9" font-family="Helvetica,sans-Serif" font-size="11.00" fill="#000000">datetime[26]</text>
<polygon fill="none" stroke="#000000" points="10,-433.2 10,-455.2 147,-455.2 147,-433.2 10,-433.2"/>
<text text-anchor="start" x="30" y="-440.3" font-family="Helvetica,sans-Serif" font-size="11.00" fill="#000000">TotalEarlyOutTime</text>
<polygon fill="none" stroke="#000000" points="147,-433.2 147,-455.2 258,-455.2 258,-433.2 147,-433.2"/>
<text text-anchor="start" x="150" y="-440.9" font-family="Helvetica,sans-Serif" font-size="11.00" fill="#000000">datetime[26]</text>
<polygon fill="none" stroke="#000000" points="10,-411.2 10,-433.2 147,-433.2 147,-411.2 10,-411.2"/>
<text text-anchor="start" x="30" y="-418.3" font-family="Helvetica,sans-Serif" font-size="11.00" fill="#000000">TotalLateTime</text>
<polygon fill="none" stroke="#000000" points="147,-411.2 147,-433.2 258,-433.2 258,-411.2 147,-411.2"/>
<text text-anchor="start" x="150" y="-418.9" font-family="Helvetica,sans-Serif" font-size="11.00" fill="#000000">datetime[26]</text>
<polygon fill="none" stroke="#000000" points="10,-389.2 10,-411.2 147,-411.2 147,-389.2 10,-389.2"/>
<text text-anchor="start" x="30" y="-396.3" font-family="Helvetica,sans-Serif" font-size="11.00" fill="#000000">TotalOT</text>
<polygon fill="none" stroke="#000000" points="147,-389.2 147,-411.2 258,-411.2 258,-389.2 147,-389.2"/>
<text text-anchor="start" x="150" y="-396.9" font-family="Helvetica,sans-Serif" font-size="11.00" fill="#000000">datetime[26]</text>
<polygon fill="none" stroke="#000000" points="10,-367.2 10,-389.2 147,-389.2 147,-367.2 10,-367.2"/>
<text text-anchor="start" x="30" y="-374.3" font-family="Helvetica,sans-Serif" font-size="11.00" fill="#000000">WorkingDays</text>
<polygon fill="none" stroke="#000000" points="147,-367.2 147,-389.2 258,-389.2 258,-367.2 147,-367.2"/>
<text text-anchor="start" x="150" y="-374.9" font-family="Helvetica,sans-Serif" font-size="11.00" fill="#000000">int[10]</text>
<polygon fill="none" stroke="#000000" points="10,-345.2 10,-367.2 147,-367.2 147,-345.2 10,-345.2"/>
<text text-anchor="start" x="30" y="-352.3" font-family="Helvetica,sans-Serif" font-size="11.00" fill="#000000">TotalPresent</text>
<polygon fill="none" stroke="#000000" points="147,-345.2 147,-367.2 258,-367.2 258,-345.2 147,-345.2"/>
<text text-anchor="start" x="150" y="-352.9" font-family="Helvetica,sans-Serif" font-size="11.00" fill="#000000">int[10]</text>
<polygon fill="none" stroke="#000000" points="10,-323.2 10,-345.2 147,-345.2 147,-323.2 10,-323.2"/>
<text text-anchor="start" x="30" y="-330.3" font-family="Helvetica,sans-Serif" font-size="11.00" fill="#000000">TotalLate</text>
<polygon fill="none" stroke="#000000" points="147,-323.2 147,-345.2 258,-345.2 258,-323.2 147,-323.2"/>
<text text-anchor="start" x="150" y="-330.9" font-family="Helvetica,sans-Serif" font-size="11.00" fill="#000000">int[10]</text>
<polygon fill="none" stroke="#000000" points="10,-301.2 10,-323.2 147,-323.2 147,-301.2 10,-301.2"/>
<text text-anchor="start" x="30" y="-308.3" font-family="Helvetica,sans-Serif" font-size="11.00" fill="#000000">TotalLeaveTaken</text>
<polygon fill="none" stroke="#000000" points="147,-301.2 147,-323.2 258,-323.2 258,-301.2 147,-301.2"/>
<text text-anchor="start" x="150" y="-308.9" font-family="Helvetica,sans-Serif" font-size="11.00" fill="#000000">int[10]</text>
<polygon fill="none" stroke="#000000" points="10,-279.2 10,-301.2 147,-301.2 147,-279.2 10,-279.2"/>
<text text-anchor="start" x="30" y="-286.3" font-family="Helvetica,sans-Serif" font-size="11.00" fill="#000000">TotalHoliDay</text>
<polygon fill="none" stroke="#000000" points="147,-279.2 147,-301.2 258,-301.2 258,-279.2 147,-279.2"/>
<text text-anchor="start" x="150" y="-286.9" font-family="Helvetica,sans-Serif" font-size="11.00" fill="#000000">int[10]</text>
<polygon fill="none" stroke="#000000" points="10,-257.2 10,-279.2 147,-279.2 147,-257.2 10,-257.2"/>
<text text-anchor="start" x="30" y="-264.3" font-family="Helvetica,sans-Serif" font-size="11.00" fill="#000000">TotalFestivalDay</text>
<polygon fill="none" stroke="#000000" points="147,-257.2 147,-279.2 258,-279.2 258,-257.2 147,-257.2"/>
<text text-anchor="start" x="150" y="-264.9" font-family="Helvetica,sans-Serif" font-size="11.00" fill="#000000">int[10]</text>
<polygon fill="none" stroke="#000000" points="10,-235.2 10,-257.2 147,-257.2 147,-235.2 10,-235.2"/>
<text text-anchor="start" x="30" y="-242.3" font-family="Helvetica,sans-Serif" font-size="11.00" fill="#000000">TotalAbsent</text>
<polygon fill="none" stroke="#000000" points="147,-235.2 147,-257.2 258,-257.2 258,-235.2 147,-235.2"/>
<text text-anchor="start" x="150" y="-242.9" font-family="Helvetica,sans-Serif" font-size="11.00" fill="#000000">int[10]</text>
<polygon fill="none" stroke="#000000" points="10,-213.2 10,-235.2 147,-235.2 147,-213.2 10,-213.2"/>
<text text-anchor="start" x="30" y="-220.3" font-family="Helvetica,sans-Serif" font-size="11.00" fill="#000000">TotalWorkDay</text>
<polygon fill="none" stroke="#000000" points="147,-213.2 147,-235.2 258,-235.2 258,-213.2 147,-213.2"/>
<text text-anchor="start" x="150" y="-220.9" font-family="Helvetica,sans-Serif" font-size="11.00" fill="#000000">int[10]</text>
<polygon fill="none" stroke="#000000" points="10,-191.2 10,-213.2 147,-213.2 147,-191.2 10,-191.2"/>
<text text-anchor="start" x="30" y="-198.3" font-family="Helvetica,sans-Serif" font-size="11.00" fill="#000000">TotalEarlyOut</text>
<polygon fill="none" stroke="#000000" points="147,-191.2 147,-213.2 258,-213.2 258,-191.2 147,-191.2"/>
<text text-anchor="start" x="150" y="-198.9" font-family="Helvetica,sans-Serif" font-size="11.00" fill="#000000">int[10]</text>
<polygon fill="none" stroke="#000000" points="10,-169.2 10,-191.2 147,-191.2 147,-169.2 10,-169.2"/>
<text text-anchor="start" x="30" y="-176.3" font-family="Helvetica,sans-Serif" font-size="11.00" fill="#000000">TotalOTHour</text>
<polygon fill="none" stroke="#000000" points="147,-169.2 147,-191.2 258,-191.2 258,-169.2 147,-169.2"/>
<text text-anchor="start" x="150" y="-176.9" font-family="Helvetica,sans-Serif" font-size="11.00" fill="#000000">int[10]</text>
<polygon fill="none" stroke="#000000" points="10,-147.2 10,-169.2 147,-169.2 147,-147.2 10,-147.2"/>
<text text-anchor="start" x="30" y="-154.3" font-family="Helvetica,sans-Serif" font-size="11.00" fill="#000000">TotalHalfDay</text>
<polygon fill="none" stroke="#000000" points="147,-147.2 147,-169.2 258,-169.2 258,-147.2 147,-147.2"/>
<text text-anchor="start" x="150" y="-154.9" font-family="Helvetica,sans-Serif" font-size="11.00" fill="#000000">int[10]</text>
<polygon fill="none" stroke="#000000" points="10,-125.2 10,-147.2 147,-147.2 147,-125.2 10,-125.2"/>
<text text-anchor="start" x="30" y="-132.3" font-family="Helvetica,sans-Serif" font-size="11.00" fill="#000000">TotalFullDay</text>
<polygon fill="none" stroke="#000000" points="147,-125.2 147,-147.2 258,-147.2 258,-125.2 147,-125.2"/>
<text text-anchor="start" x="150" y="-132.9" font-family="Helvetica,sans-Serif" font-size="11.00" fill="#000000">int[10]</text>
<polygon fill="none" stroke="#000000" points="10,-103.2 10,-125.2 147,-125.2 147,-103.2 10,-103.2"/>
<text text-anchor="start" x="30" y="-110.3" font-family="Helvetica,sans-Serif" font-size="11.00" fill="#000000">TotalHolidayWork</text>
<polygon fill="none" stroke="#000000" points="147,-103.2 147,-125.2 258,-125.2 258,-103.2 147,-103.2"/>
<text text-anchor="start" x="150" y="-110.9" font-family="Helvetica,sans-Serif" font-size="11.00" fill="#000000">int[10]</text>
<polygon fill="none" stroke="#000000" points="10,-81.2 10,-103.2 147,-103.2 147,-81.2 10,-81.2"/>
<text text-anchor="start" x="30" y="-88.3" font-family="Helvetica,sans-Serif" font-size="11.00" fill="#000000">EmployeeStatusID</text>
<polygon fill="none" stroke="#000000" points="147,-81.2 147,-103.2 258,-103.2 258,-81.2 147,-81.2"/>
<text text-anchor="start" x="150" y="-88.9" font-family="Helvetica,sans-Serif" font-size="11.00" fill="#000000">int[10]</text>
<polygon fill="none" stroke="#000000" points="10,-59.2 10,-81.2 147,-81.2 147,-59.2 10,-59.2"/>
<text text-anchor="start" x="30" y="-66.3" font-family="Helvetica,sans-Serif" font-size="11.00" fill="#000000">TotalOK</text>
<polygon fill="none" stroke="#000000" points="147,-59.2 147,-81.2 258,-81.2 258,-59.2 147,-59.2"/>
<text text-anchor="start" x="150" y="-66.9" font-family="Helvetica,sans-Serif" font-size="11.00" fill="#000000">int[10]</text>
<polygon fill="#ffffff" stroke="transparent" points="10,-40.2 10,-59.2 67,-59.2 67,-40.2 10,-40.2"/>
<polygon fill="none" stroke="#000000" points="10,-40.2 10,-59.2 67,-59.2 67,-40.2 10,-40.2"/>
<text text-anchor="start" x="13" y="-46.3" font-family="Helvetica,sans-Serif" font-size="11.00" fill="#000000">&lt; 0</text>
<polygon fill="#ffffff" stroke="transparent" points="67,-40.2 67,-59.2 147,-59.2 147,-40.2 67,-40.2"/>
<polygon fill="none" stroke="#000000" points="67,-40.2 67,-59.2 147,-59.2 147,-40.2 67,-40.2"/>
<text text-anchor="start" x="105.4956" y="-46.3" font-family="Helvetica,sans-Serif" font-size="11.00" fill="#000000">51 rows</text>
<polygon fill="#ffffff" stroke="transparent" points="147,-40.2 147,-59.2 258,-59.2 258,-40.2 147,-40.2"/>
<polygon fill="none" stroke="#000000" points="147,-40.2 147,-59.2 258,-59.2 258,-40.2 147,-40.2"/>
<text text-anchor="start" x="239.4053" y="-46.3" font-family="Helvetica,sans-Serif" font-size="11.00" fill="#000000">0 &gt;</text>
<polygon fill="none" stroke="#000000" stroke-width="2" points="9,-39.2 9,-721.2 259,-721.2 259,-39.2 9,-39.2"/>
</a>
</g>
</g>
</g>
</svg>
