<?xml version="1.0" encoding="UTF-8" standalone="no"?>
<!DOCTYPE svg PUBLIC "-//W3C//DTD SVG 1.1//EN"
 "http://www.w3.org/Graphics/SVG/1.1/DTD/svg11.dtd">
<!-- Generated by graphviz version 2.40.1 (20161225.0304)
 -->
<!-- Title: oneDegreeRelationshipsDiagram Pages: 1 -->
<svg width="249pt" height="250pt"
 viewBox="0.00 0.00 249.00 250.20" xmlns="http://www.w3.org/2000/svg" xmlns:xlink="http://www.w3.org/1999/xlink">
<g id="graph0" class="graph" transform="scale(1 1) rotate(0) translate(4 246.2)">
<title>oneDegreeRelationshipsDiagram</title>
<polygon fill="#ffffff" stroke="transparent" points="-4,4 -4,-246.2 245,-246.2 245,4 -4,4"/>
<text text-anchor="middle" x="72.4936" y="-7.3" font-family="Helvetica,sans-Serif" font-size="11.00" fill="#000000">Generated by SchemaSpy</text>
<!-- attendance_checkinout -->
<g id="node1" class="node">
<title>attendance_checkinout</title>
<g id="a_node1"><a xlink:href="../../tables/attendance_checkinout.html" xlink:title="attendance_checkinout" target="_top">
<polygon fill="#ffffff" stroke="transparent" points="8,-38.2 8,-238.2 233,-238.2 233,-38.2 8,-38.2"/>
<polygon fill="#f5f5f5" stroke="transparent" points="10.5,-213.2 10.5,-236.2 231.5,-236.2 231.5,-213.2 10.5,-213.2"/>
<polygon fill="none" stroke="#000000" points="10.5,-213.2 10.5,-236.2 231.5,-236.2 231.5,-213.2 10.5,-213.2"/>
<text text-anchor="start" x="15.5" y="-221.8" font-family="Helvetica,sans-Serif" font-weight="bold" font-size="11.00" fill="#000000">attendance_checkinout</text>
<text text-anchor="start" x="196.5437" y="-221.3" font-family="Helvetica,sans-Serif" font-size="11.00" fill="#000000">[table]</text>
<polygon fill="none" stroke="#000000" points="10.5,-191.2 10.5,-213.2 164.5,-213.2 164.5,-191.2 10.5,-191.2"/>
<image xlink:href="../../images/primaryKeys.png" width="11px" height="12px" preserveAspectRatio="xMinYMin meet" x="15.5" y="-208.2"/>
<text text-anchor="start" x="30.5" y="-198.3" font-family="Helvetica,sans-Serif" font-size="11.00" fill="#000000">ID</text>
<polygon fill="none" stroke="#000000" points="164.5,-191.2 164.5,-213.2 231.5,-213.2 231.5,-191.2 164.5,-191.2"/>
<text text-anchor="start" x="167.4365" y="-198.9" font-family="Helvetica,sans-Serif" font-size="11.00" fill="#000000">varchar[100]</text>
<polygon fill="none" stroke="#000000" points="10.5,-169.2 10.5,-191.2 164.5,-191.2 164.5,-169.2 10.5,-169.2"/>
<text text-anchor="start" x="30.5" y="-176.3" font-family="Helvetica,sans-Serif" font-size="11.00" fill="#000000">Common_DealerFK</text>
<polygon fill="none" stroke="#000000" points="164.5,-169.2 164.5,-191.2 231.5,-191.2 231.5,-169.2 164.5,-169.2"/>
<text text-anchor="start" x="167.5" y="-176.9" font-family="Helvetica,sans-Serif" font-size="11.00" fill="#000000">int[10]</text>
<polygon fill="none" stroke="#000000" points="10.5,-147.2 10.5,-169.2 164.5,-169.2 164.5,-147.2 10.5,-147.2"/>
<text text-anchor="start" x="30.5" y="-154.3" font-family="Helvetica,sans-Serif" font-size="11.00" fill="#000000">CardNo</text>
<polygon fill="none" stroke="#000000" points="164.5,-147.2 164.5,-169.2 231.5,-169.2 231.5,-147.2 164.5,-147.2"/>
<text text-anchor="start" x="167.4365" y="-154.9" font-family="Helvetica,sans-Serif" font-size="11.00" fill="#000000">varchar[100]</text>
<polygon fill="none" stroke="#000000" points="10.5,-125.2 10.5,-147.2 164.5,-147.2 164.5,-125.2 10.5,-125.2"/>
<text text-anchor="start" x="30.5" y="-132.3" font-family="Helvetica,sans-Serif" font-size="11.00" fill="#000000">CheckTime</text>
<polygon fill="none" stroke="#000000" points="164.5,-125.2 164.5,-147.2 231.5,-147.2 231.5,-125.2 164.5,-125.2"/>
<text text-anchor="start" x="167.5" y="-132.9" font-family="Helvetica,sans-Serif" font-size="11.00" fill="#000000">datetime[26]</text>
<polygon fill="none" stroke="#000000" points="10.5,-103.2 10.5,-125.2 164.5,-125.2 164.5,-103.2 10.5,-103.2"/>
<text text-anchor="start" x="30.5" y="-110.3" font-family="Helvetica,sans-Serif" font-size="11.00" fill="#000000">CheckType</text>
<polygon fill="none" stroke="#000000" points="164.5,-103.2 164.5,-125.2 231.5,-125.2 231.5,-103.2 164.5,-103.2"/>
<text text-anchor="start" x="167.4365" y="-110.9" font-family="Helvetica,sans-Serif" font-size="11.00" fill="#000000">varchar[100]</text>
<polygon fill="none" stroke="#000000" points="10.5,-81.2 10.5,-103.2 164.5,-103.2 164.5,-81.2 10.5,-81.2"/>
<text text-anchor="start" x="30.5" y="-88.3" font-family="Helvetica,sans-Serif" font-size="11.00" fill="#000000">SourceId</text>
<polygon fill="none" stroke="#000000" points="164.5,-81.2 164.5,-103.2 231.5,-103.2 231.5,-81.2 164.5,-81.2"/>
<text text-anchor="start" x="167.5" y="-88.9" font-family="Helvetica,sans-Serif" font-size="11.00" fill="#000000">int[10]</text>
<polygon fill="none" stroke="#000000" points="10.5,-59.2 10.5,-81.2 164.5,-81.2 164.5,-59.2 10.5,-59.2"/>
<text text-anchor="start" x="30.5" y="-66.3" font-family="Helvetica,sans-Serif" font-size="11.00" fill="#000000">VerifyCode</text>
<polygon fill="none" stroke="#000000" points="164.5,-59.2 164.5,-81.2 231.5,-81.2 231.5,-59.2 164.5,-59.2"/>
<text text-anchor="start" x="167.4365" y="-66.9" font-family="Helvetica,sans-Serif" font-size="11.00" fill="#000000">varchar[100]</text>
<polygon fill="#ffffff" stroke="transparent" points="10.5,-40.2 10.5,-59.2 78.5,-59.2 78.5,-40.2 10.5,-40.2"/>
<polygon fill="none" stroke="#000000" points="10.5,-40.2 10.5,-59.2 78.5,-59.2 78.5,-40.2 10.5,-40.2"/>
<text text-anchor="start" x="13.5" y="-46.3" font-family="Helvetica,sans-Serif" font-size="11.00" fill="#000000">&lt; 0</text>
<polygon fill="#ffffff" stroke="transparent" points="78.5,-40.2 78.5,-59.2 164.5,-59.2 164.5,-40.2 78.5,-40.2"/>
<polygon fill="none" stroke="#000000" points="78.5,-40.2 78.5,-59.2 164.5,-59.2 164.5,-40.2 78.5,-40.2"/>
<text text-anchor="start" x="129.1105" y="-46.3" font-family="Helvetica,sans-Serif" font-size="11.00" fill="#000000">0 rows</text>
<polygon fill="#ffffff" stroke="transparent" points="164.5,-40.2 164.5,-59.2 231.5,-59.2 231.5,-40.2 164.5,-40.2"/>
<polygon fill="none" stroke="#000000" points="164.5,-40.2 164.5,-59.2 231.5,-59.2 231.5,-40.2 164.5,-40.2"/>
<text text-anchor="start" x="212.9053" y="-46.3" font-family="Helvetica,sans-Serif" font-size="11.00" fill="#000000">0 &gt;</text>
<polygon fill="none" stroke="#000000" stroke-width="2" points="9,-39.2 9,-237.2 232,-237.2 232,-39.2 9,-39.2"/>
</a>
</g>
</g>
</g>
</svg>
