<?xml version="1.0" encoding="UTF-8" standalone="no"?>
<!DOCTYPE svg PUBLIC "-//W3C//DTD SVG 1.1//EN"
 "http://www.w3.org/Graphics/SVG/1.1/DTD/svg11.dtd">
<!-- Generated by graphviz version 2.40.1 (20161225.0304)
 -->
<!-- Title: oneDegreeRelationshipsDiagram Pages: 1 -->
<svg width="287pt" height="382pt"
 viewBox="0.00 0.00 287.00 382.20" xmlns="http://www.w3.org/2000/svg" xmlns:xlink="http://www.w3.org/1999/xlink">
<g id="graph0" class="graph" transform="scale(1 1) rotate(0) translate(4 378.2)">
<title>oneDegreeRelationshipsDiagram</title>
<polygon fill="#ffffff" stroke="transparent" points="-4,4 -4,-378.2 283,-378.2 283,4 -4,4"/>
<text text-anchor="middle" x="72.4936" y="-7.3" font-family="Helvetica,sans-Serif" font-size="11.00" fill="#000000">Generated by SchemaSpy</text>
<!-- calender_festivalleave -->
<g id="node1" class="node">
<title>calender_festivalleave</title>
<g id="a_node1"><a xlink:href="../../tables/calender_festivalleave.html" xlink:title="calender_festivalleave" target="_top">
<polygon fill="#ffffff" stroke="transparent" points="8,-38.2 8,-370.2 271,-370.2 271,-38.2 8,-38.2"/>
<polygon fill="#f5f5f5" stroke="transparent" points="10.5,-345.2 10.5,-368.2 269.5,-368.2 269.5,-345.2 10.5,-345.2"/>
<polygon fill="none" stroke="#000000" points="10.5,-345.2 10.5,-368.2 269.5,-368.2 269.5,-345.2 10.5,-345.2"/>
<text text-anchor="start" x="15.5" y="-353.8" font-family="Helvetica,sans-Serif" font-weight="bold" font-size="11.00" fill="#000000">calender_festivalleave</text>
<text text-anchor="start" x="234.5437" y="-353.3" font-family="Helvetica,sans-Serif" font-size="11.00" fill="#000000">[table]</text>
<polygon fill="none" stroke="#000000" points="10.5,-323.2 10.5,-345.2 158.5,-345.2 158.5,-323.2 10.5,-323.2"/>
<image xlink:href="../../images/primaryKeys.png" width="11px" height="12px" preserveAspectRatio="xMinYMin meet" x="15.5" y="-340.2"/>
<text text-anchor="start" x="30.5" y="-330.3" font-family="Helvetica,sans-Serif" font-size="11.00" fill="#000000">ID</text>
<polygon fill="none" stroke="#000000" points="158.5,-323.2 158.5,-345.2 269.5,-345.2 269.5,-323.2 158.5,-323.2"/>
<text text-anchor="start" x="161.5" y="-330.9" font-family="Helvetica,sans-Serif" font-size="11.00" fill="#000000">int[10]</text>
<polygon fill="none" stroke="#000000" points="10.5,-301.2 10.5,-323.2 158.5,-323.2 158.5,-301.2 10.5,-301.2"/>
<text text-anchor="start" x="30.5" y="-308.3" font-family="Helvetica,sans-Serif" font-size="11.00" fill="#000000">Active</text>
<polygon fill="none" stroke="#000000" points="158.5,-301.2 158.5,-323.2 269.5,-323.2 269.5,-301.2 158.5,-301.2"/>
<text text-anchor="start" x="161.5" y="-308.9" font-family="Helvetica,sans-Serif" font-size="11.00" fill="#000000">bit[1]</text>
<polygon fill="none" stroke="#000000" points="10.5,-279.2 10.5,-301.2 158.5,-301.2 158.5,-279.2 10.5,-279.2"/>
<text text-anchor="start" x="30.5" y="-286.3" font-family="Helvetica,sans-Serif" font-size="11.00" fill="#000000">User</text>
<polygon fill="none" stroke="#000000" points="158.5,-279.2 158.5,-301.2 269.5,-301.2 269.5,-279.2 158.5,-279.2"/>
<text text-anchor="start" x="161.1115" y="-286.9" font-family="Helvetica,sans-Serif" font-size="11.00" fill="#000000">longtext[2147483647]</text>
<polygon fill="none" stroke="#000000" points="10.5,-257.2 10.5,-279.2 158.5,-279.2 158.5,-257.2 10.5,-257.2"/>
<text text-anchor="start" x="30.5" y="-264.3" font-family="Helvetica,sans-Serif" font-size="11.00" fill="#000000">CD</text>
<polygon fill="none" stroke="#000000" points="158.5,-257.2 158.5,-279.2 269.5,-279.2 269.5,-257.2 158.5,-257.2"/>
<text text-anchor="start" x="161.5" y="-264.9" font-family="Helvetica,sans-Serif" font-size="11.00" fill="#000000">datetime[26]</text>
<polygon fill="none" stroke="#000000" points="10.5,-235.2 10.5,-257.2 158.5,-257.2 158.5,-235.2 10.5,-235.2"/>
<text text-anchor="start" x="30.5" y="-242.3" font-family="Helvetica,sans-Serif" font-size="11.00" fill="#000000">UD</text>
<polygon fill="none" stroke="#000000" points="158.5,-235.2 158.5,-257.2 269.5,-257.2 269.5,-235.2 158.5,-235.2"/>
<text text-anchor="start" x="161.5" y="-242.9" font-family="Helvetica,sans-Serif" font-size="11.00" fill="#000000">datetime[26]</text>
<polygon fill="none" stroke="#000000" points="10.5,-213.2 10.5,-235.2 158.5,-235.2 158.5,-213.2 10.5,-213.2"/>
<text text-anchor="start" x="30.5" y="-220.3" font-family="Helvetica,sans-Serif" font-size="11.00" fill="#000000">Remarks</text>
<polygon fill="none" stroke="#000000" points="158.5,-213.2 158.5,-235.2 269.5,-235.2 269.5,-213.2 158.5,-213.2"/>
<text text-anchor="start" x="161.1115" y="-220.9" font-family="Helvetica,sans-Serif" font-size="11.00" fill="#000000">longtext[2147483647]</text>
<polygon fill="none" stroke="#000000" points="10.5,-191.2 10.5,-213.2 158.5,-213.2 158.5,-191.2 10.5,-191.2"/>
<text text-anchor="start" x="30.5" y="-198.3" font-family="Helvetica,sans-Serif" font-size="11.00" fill="#000000">UserID</text>
<polygon fill="none" stroke="#000000" points="158.5,-191.2 158.5,-213.2 269.5,-213.2 269.5,-191.2 158.5,-191.2"/>
<text text-anchor="start" x="161.5" y="-198.9" font-family="Helvetica,sans-Serif" font-size="11.00" fill="#000000">int[10]</text>
<polygon fill="none" stroke="#000000" points="10.5,-169.2 10.5,-191.2 158.5,-191.2 158.5,-169.2 10.5,-169.2"/>
<text text-anchor="start" x="30.5" y="-176.3" font-family="Helvetica,sans-Serif" font-size="11.00" fill="#000000">Common_DealerFK</text>
<polygon fill="none" stroke="#000000" points="158.5,-169.2 158.5,-191.2 269.5,-191.2 269.5,-169.2 158.5,-169.2"/>
<text text-anchor="start" x="161.5" y="-176.9" font-family="Helvetica,sans-Serif" font-size="11.00" fill="#000000">int[10]</text>
<polygon fill="none" stroke="#000000" points="10.5,-147.2 10.5,-169.2 158.5,-169.2 158.5,-147.2 10.5,-147.2"/>
<text text-anchor="start" x="30.5" y="-154.3" font-family="Helvetica,sans-Serif" font-size="11.00" fill="#000000">StartDate</text>
<polygon fill="none" stroke="#000000" points="158.5,-147.2 158.5,-169.2 269.5,-169.2 269.5,-147.2 158.5,-147.2"/>
<text text-anchor="start" x="161.5" y="-154.9" font-family="Helvetica,sans-Serif" font-size="11.00" fill="#000000">datetime[26]</text>
<polygon fill="none" stroke="#000000" points="10.5,-125.2 10.5,-147.2 158.5,-147.2 158.5,-125.2 10.5,-125.2"/>
<text text-anchor="start" x="30.5" y="-132.3" font-family="Helvetica,sans-Serif" font-size="11.00" fill="#000000">FinishDate</text>
<polygon fill="none" stroke="#000000" points="158.5,-125.2 158.5,-147.2 269.5,-147.2 269.5,-125.2 158.5,-125.2"/>
<text text-anchor="start" x="161.5" y="-132.9" font-family="Helvetica,sans-Serif" font-size="11.00" fill="#000000">datetime[26]</text>
<polygon fill="none" stroke="#000000" points="10.5,-103.2 10.5,-125.2 158.5,-125.2 158.5,-103.2 10.5,-103.2"/>
<text text-anchor="start" x="30.5" y="-110.3" font-family="Helvetica,sans-Serif" font-size="11.00" fill="#000000">TotalLeave</text>
<polygon fill="none" stroke="#000000" points="158.5,-103.2 158.5,-125.2 269.5,-125.2 269.5,-103.2 158.5,-103.2"/>
<text text-anchor="start" x="161.5" y="-110.9" font-family="Helvetica,sans-Serif" font-size="11.00" fill="#000000">int[10]</text>
<polygon fill="none" stroke="#000000" points="10.5,-81.2 10.5,-103.2 158.5,-103.2 158.5,-81.2 10.5,-81.2"/>
<text text-anchor="start" x="30.5" y="-88.3" font-family="Helvetica,sans-Serif" font-size="11.00" fill="#000000">FestivalTypeID</text>
<polygon fill="none" stroke="#000000" points="158.5,-81.2 158.5,-103.2 269.5,-103.2 269.5,-81.2 158.5,-81.2"/>
<text text-anchor="start" x="161.5" y="-88.9" font-family="Helvetica,sans-Serif" font-size="11.00" fill="#000000">int[10]</text>
<polygon fill="none" stroke="#000000" points="10.5,-59.2 10.5,-81.2 158.5,-81.2 158.5,-59.2 10.5,-59.2"/>
<text text-anchor="start" x="30.5" y="-66.3" font-family="Helvetica,sans-Serif" font-size="11.00" fill="#000000">ColorName</text>
<polygon fill="none" stroke="#000000" points="158.5,-59.2 158.5,-81.2 269.5,-81.2 269.5,-59.2 158.5,-59.2"/>
<text text-anchor="start" x="161.1115" y="-66.9" font-family="Helvetica,sans-Serif" font-size="11.00" fill="#000000">longtext[2147483647]</text>
<polygon fill="#ffffff" stroke="transparent" points="10.5,-40.2 10.5,-59.2 75.5,-59.2 75.5,-40.2 10.5,-40.2"/>
<polygon fill="none" stroke="#000000" points="10.5,-40.2 10.5,-59.2 75.5,-59.2 75.5,-40.2 10.5,-40.2"/>
<text text-anchor="start" x="13.5" y="-46.3" font-family="Helvetica,sans-Serif" font-size="11.00" fill="#000000">&lt; 0</text>
<polygon fill="#ffffff" stroke="transparent" points="75.5,-40.2 75.5,-59.2 158.5,-59.2 158.5,-40.2 75.5,-40.2"/>
<polygon fill="none" stroke="#000000" points="75.5,-40.2 75.5,-59.2 158.5,-59.2 158.5,-40.2 75.5,-40.2"/>
<text text-anchor="start" x="123.1105" y="-46.3" font-family="Helvetica,sans-Serif" font-size="11.00" fill="#000000">0 rows</text>
<polygon fill="#ffffff" stroke="transparent" points="158.5,-40.2 158.5,-59.2 269.5,-59.2 269.5,-40.2 158.5,-40.2"/>
<polygon fill="none" stroke="#000000" points="158.5,-40.2 158.5,-59.2 269.5,-59.2 269.5,-40.2 158.5,-40.2"/>
<text text-anchor="start" x="250.9053" y="-46.3" font-family="Helvetica,sans-Serif" font-size="11.00" fill="#000000">0 &gt;</text>
<polygon fill="none" stroke="#000000" stroke-width="2" points="9,-39.2 9,-369.2 270,-369.2 270,-39.2 9,-39.2"/>
</a>
</g>
</g>
</g>
</svg>
