<?xml version="1.0" encoding="UTF-8" standalone="no"?>
<!DOCTYPE svg PUBLIC "-//W3C//DTD SVG 1.1//EN"
 "http://www.w3.org/Graphics/SVG/1.1/DTD/svg11.dtd">
<!-- Generated by graphviz version 2.40.1 (20161225.0304)
 -->
<!-- Title: oneDegreeRelationshipsDiagram Pages: 1 -->
<svg width="313pt" height="800pt"
 viewBox="0.00 0.00 313.00 800.20" xmlns="http://www.w3.org/2000/svg" xmlns:xlink="http://www.w3.org/1999/xlink">
<g id="graph0" class="graph" transform="scale(1 1) rotate(0) translate(4 796.2)">
<title>oneDegreeRelationshipsDiagram</title>
<polygon fill="#ffffff" stroke="transparent" points="-4,4 -4,-796.2 309,-796.2 309,4 -4,4"/>
<text text-anchor="middle" x="72.4936" y="-7.3" font-family="Helvetica,sans-Serif" font-size="11.00" fill="#000000">Generated by SchemaSpy</text>
<!-- common_shop -->
<g id="node1" class="node">
<title>common_shop</title>
<g id="a_node1"><a xlink:href="../../tables/common_shop.html" xlink:title="common_shop" target="_top">
<polygon fill="#ffffff" stroke="transparent" points="8,-38.2 8,-788.2 297,-788.2 297,-38.2 8,-38.2"/>
<polygon fill="#f5f5f5" stroke="transparent" points="10.5,-763.2 10.5,-786.2 295.5,-786.2 295.5,-763.2 10.5,-763.2"/>
<polygon fill="none" stroke="#000000" points="10.5,-763.2 10.5,-786.2 295.5,-786.2 295.5,-763.2 10.5,-763.2"/>
<text text-anchor="start" x="15.5" y="-771.8" font-family="Helvetica,sans-Serif" font-weight="bold" font-size="11.00" fill="#000000">common_shop</text>
<text text-anchor="start" x="260.5437" y="-771.3" font-family="Helvetica,sans-Serif" font-size="11.00" fill="#000000">[table]</text>
<polygon fill="none" stroke="#000000" points="10.5,-741.2 10.5,-763.2 181.5,-763.2 181.5,-741.2 10.5,-741.2"/>
<image xlink:href="../../images/primaryKeys.png" width="11px" height="12px" preserveAspectRatio="xMinYMin meet" x="15.5" y="-758.2"/>
<text text-anchor="start" x="30.5" y="-748.3" font-family="Helvetica,sans-Serif" font-size="11.00" fill="#000000">ID</text>
<polygon fill="none" stroke="#000000" points="181.5,-741.2 181.5,-763.2 295.5,-763.2 295.5,-741.2 181.5,-741.2"/>
<text text-anchor="start" x="184.5" y="-748.9" font-family="Helvetica,sans-Serif" font-size="11.00" fill="#000000">int[10]</text>
<polygon fill="none" stroke="#000000" points="10.5,-719.2 10.5,-741.2 181.5,-741.2 181.5,-719.2 10.5,-719.2"/>
<text text-anchor="start" x="30.5" y="-726.3" font-family="Helvetica,sans-Serif" font-size="11.00" fill="#000000">Active</text>
<polygon fill="none" stroke="#000000" points="181.5,-719.2 181.5,-741.2 295.5,-741.2 295.5,-719.2 181.5,-719.2"/>
<text text-anchor="start" x="184.5" y="-726.9" font-family="Helvetica,sans-Serif" font-size="11.00" fill="#000000">bit[1]</text>
<polygon fill="none" stroke="#000000" points="10.5,-697.2 10.5,-719.2 181.5,-719.2 181.5,-697.2 10.5,-697.2"/>
<text text-anchor="start" x="30.5" y="-704.3" font-family="Helvetica,sans-Serif" font-size="11.00" fill="#000000">User</text>
<polygon fill="none" stroke="#000000" points="181.5,-697.2 181.5,-719.2 295.5,-719.2 295.5,-697.2 181.5,-697.2"/>
<text text-anchor="start" x="184.5" y="-704.9" font-family="Helvetica,sans-Serif" font-size="11.00" fill="#000000">longtext[2147483647]</text>
<polygon fill="none" stroke="#000000" points="10.5,-675.2 10.5,-697.2 181.5,-697.2 181.5,-675.2 10.5,-675.2"/>
<text text-anchor="start" x="30.5" y="-682.3" font-family="Helvetica,sans-Serif" font-size="11.00" fill="#000000">CD</text>
<polygon fill="none" stroke="#000000" points="181.5,-675.2 181.5,-697.2 295.5,-697.2 295.5,-675.2 181.5,-675.2"/>
<text text-anchor="start" x="184.5" y="-682.9" font-family="Helvetica,sans-Serif" font-size="11.00" fill="#000000">datetime[26]</text>
<polygon fill="none" stroke="#000000" points="10.5,-653.2 10.5,-675.2 181.5,-675.2 181.5,-653.2 10.5,-653.2"/>
<text text-anchor="start" x="30.5" y="-660.3" font-family="Helvetica,sans-Serif" font-size="11.00" fill="#000000">UD</text>
<polygon fill="none" stroke="#000000" points="181.5,-653.2 181.5,-675.2 295.5,-675.2 295.5,-653.2 181.5,-653.2"/>
<text text-anchor="start" x="184.5" y="-660.9" font-family="Helvetica,sans-Serif" font-size="11.00" fill="#000000">datetime[26]</text>
<polygon fill="none" stroke="#000000" points="10.5,-631.2 10.5,-653.2 181.5,-653.2 181.5,-631.2 10.5,-631.2"/>
<text text-anchor="start" x="30.5" y="-638.3" font-family="Helvetica,sans-Serif" font-size="11.00" fill="#000000">Remarks</text>
<polygon fill="none" stroke="#000000" points="181.5,-631.2 181.5,-653.2 295.5,-653.2 295.5,-631.2 181.5,-631.2"/>
<text text-anchor="start" x="184.5" y="-638.9" font-family="Helvetica,sans-Serif" font-size="11.00" fill="#000000">longtext[2147483647]</text>
<polygon fill="none" stroke="#000000" points="10.5,-609.2 10.5,-631.2 181.5,-631.2 181.5,-609.2 10.5,-609.2"/>
<text text-anchor="start" x="30.5" y="-616.3" font-family="Helvetica,sans-Serif" font-size="11.00" fill="#000000">UserID</text>
<polygon fill="none" stroke="#000000" points="181.5,-609.2 181.5,-631.2 295.5,-631.2 295.5,-609.2 181.5,-609.2"/>
<text text-anchor="start" x="184.5" y="-616.9" font-family="Helvetica,sans-Serif" font-size="11.00" fill="#000000">int[10]</text>
<polygon fill="none" stroke="#000000" points="10.5,-587.2 10.5,-609.2 181.5,-609.2 181.5,-587.2 10.5,-587.2"/>
<text text-anchor="start" x="30.5" y="-594.3" font-family="Helvetica,sans-Serif" font-size="11.00" fill="#000000">Common_RouteFK</text>
<polygon fill="none" stroke="#000000" points="181.5,-587.2 181.5,-609.2 295.5,-609.2 295.5,-587.2 181.5,-587.2"/>
<text text-anchor="start" x="184.5" y="-594.9" font-family="Helvetica,sans-Serif" font-size="11.00" fill="#000000">int[10]</text>
<polygon fill="none" stroke="#000000" points="10.5,-565.2 10.5,-587.2 181.5,-587.2 181.5,-565.2 10.5,-565.2"/>
<text text-anchor="start" x="30.5" y="-572.3" font-family="Helvetica,sans-Serif" font-size="11.00" fill="#000000">Common_DealerFK</text>
<polygon fill="none" stroke="#000000" points="181.5,-565.2 181.5,-587.2 295.5,-587.2 295.5,-565.2 181.5,-565.2"/>
<text text-anchor="start" x="184.5" y="-572.9" font-family="Helvetica,sans-Serif" font-size="11.00" fill="#000000">int[10]</text>
<polygon fill="none" stroke="#000000" points="10.5,-543.2 10.5,-565.2 181.5,-565.2 181.5,-543.2 10.5,-543.2"/>
<text text-anchor="start" x="30.5" y="-550.3" font-family="Helvetica,sans-Serif" font-size="11.00" fill="#000000">Common_PoliceStationFK</text>
<polygon fill="none" stroke="#000000" points="181.5,-543.2 181.5,-565.2 295.5,-565.2 295.5,-543.2 181.5,-543.2"/>
<text text-anchor="start" x="184.5" y="-550.9" font-family="Helvetica,sans-Serif" font-size="11.00" fill="#000000">int[10]</text>
<polygon fill="none" stroke="#000000" points="10.5,-521.2 10.5,-543.2 181.5,-543.2 181.5,-521.2 10.5,-521.2"/>
<text text-anchor="start" x="30.5" y="-528.3" font-family="Helvetica,sans-Serif" font-size="11.00" fill="#000000">Common_ShopTypeFK</text>
<polygon fill="none" stroke="#000000" points="181.5,-521.2 181.5,-543.2 295.5,-543.2 295.5,-521.2 181.5,-521.2"/>
<text text-anchor="start" x="184.5" y="-528.9" font-family="Helvetica,sans-Serif" font-size="11.00" fill="#000000">int[10]</text>
<polygon fill="none" stroke="#000000" points="10.5,-499.2 10.5,-521.2 181.5,-521.2 181.5,-499.2 10.5,-499.2"/>
<text text-anchor="start" x="30.5" y="-506.3" font-family="Helvetica,sans-Serif" font-size="11.00" fill="#000000">BusinessTypeID</text>
<polygon fill="none" stroke="#000000" points="181.5,-499.2 181.5,-521.2 295.5,-521.2 295.5,-499.2 181.5,-499.2"/>
<text text-anchor="start" x="184.5" y="-506.9" font-family="Helvetica,sans-Serif" font-size="11.00" fill="#000000">int[10]</text>
<polygon fill="none" stroke="#000000" points="10.5,-477.2 10.5,-499.2 181.5,-499.2 181.5,-477.2 10.5,-477.2"/>
<text text-anchor="start" x="30.5" y="-484.3" font-family="Helvetica,sans-Serif" font-size="11.00" fill="#000000">Name</text>
<polygon fill="none" stroke="#000000" points="181.5,-477.2 181.5,-499.2 295.5,-499.2 295.5,-477.2 181.5,-477.2"/>
<text text-anchor="start" x="184.5" y="-484.9" font-family="Helvetica,sans-Serif" font-size="11.00" fill="#000000">varchar[250]</text>
<polygon fill="none" stroke="#000000" points="10.5,-455.2 10.5,-477.2 181.5,-477.2 181.5,-455.2 10.5,-455.2"/>
<text text-anchor="start" x="30.5" y="-462.3" font-family="Helvetica,sans-Serif" font-size="11.00" fill="#000000">Owner</text>
<polygon fill="none" stroke="#000000" points="181.5,-455.2 181.5,-477.2 295.5,-477.2 295.5,-455.2 181.5,-455.2"/>
<text text-anchor="start" x="184.5" y="-462.9" font-family="Helvetica,sans-Serif" font-size="11.00" fill="#000000">varchar[250]</text>
<polygon fill="none" stroke="#000000" points="10.5,-433.2 10.5,-455.2 181.5,-455.2 181.5,-433.2 10.5,-433.2"/>
<text text-anchor="start" x="30.5" y="-440.3" font-family="Helvetica,sans-Serif" font-size="11.00" fill="#000000">Address</text>
<polygon fill="none" stroke="#000000" points="181.5,-433.2 181.5,-455.2 295.5,-455.2 295.5,-433.2 181.5,-433.2"/>
<text text-anchor="start" x="184.5" y="-440.9" font-family="Helvetica,sans-Serif" font-size="11.00" fill="#000000">varchar[500]</text>
<polygon fill="none" stroke="#000000" points="10.5,-411.2 10.5,-433.2 181.5,-433.2 181.5,-411.2 10.5,-411.2"/>
<text text-anchor="start" x="30.5" y="-418.3" font-family="Helvetica,sans-Serif" font-size="11.00" fill="#000000">ContactNumber</text>
<polygon fill="none" stroke="#000000" points="181.5,-411.2 181.5,-433.2 295.5,-433.2 295.5,-411.2 181.5,-411.2"/>
<text text-anchor="start" x="184.5" y="-418.9" font-family="Helvetica,sans-Serif" font-size="11.00" fill="#000000">varchar[50]</text>
<polygon fill="none" stroke="#000000" points="10.5,-389.2 10.5,-411.2 181.5,-411.2 181.5,-389.2 10.5,-389.2"/>
<text text-anchor="start" x="30.5" y="-396.3" font-family="Helvetica,sans-Serif" font-size="11.00" fill="#000000">ContactPerson</text>
<polygon fill="none" stroke="#000000" points="181.5,-389.2 181.5,-411.2 295.5,-411.2 295.5,-389.2 181.5,-389.2"/>
<text text-anchor="start" x="184.5" y="-396.9" font-family="Helvetica,sans-Serif" font-size="11.00" fill="#000000">varchar[200]</text>
<polygon fill="none" stroke="#000000" points="10.5,-367.2 10.5,-389.2 181.5,-389.2 181.5,-367.2 10.5,-367.2"/>
<text text-anchor="start" x="30.5" y="-374.3" font-family="Helvetica,sans-Serif" font-size="11.00" fill="#000000">RegistrationNo</text>
<polygon fill="none" stroke="#000000" points="181.5,-367.2 181.5,-389.2 295.5,-389.2 295.5,-367.2 181.5,-367.2"/>
<text text-anchor="start" x="184.5" y="-374.9" font-family="Helvetica,sans-Serif" font-size="11.00" fill="#000000">varchar[150]</text>
<polygon fill="none" stroke="#000000" points="10.5,-345.2 10.5,-367.2 181.5,-367.2 181.5,-345.2 10.5,-345.2"/>
<text text-anchor="start" x="30.5" y="-352.3" font-family="Helvetica,sans-Serif" font-size="11.00" fill="#000000">Latitude</text>
<polygon fill="none" stroke="#000000" points="181.5,-345.2 181.5,-367.2 295.5,-367.2 295.5,-345.2 181.5,-345.2"/>
<text text-anchor="start" x="184.5" y="-352.9" font-family="Helvetica,sans-Serif" font-size="11.00" fill="#000000">decimal[65,30]</text>
<polygon fill="none" stroke="#000000" points="10.5,-323.2 10.5,-345.2 181.5,-345.2 181.5,-323.2 10.5,-323.2"/>
<text text-anchor="start" x="30.5" y="-330.3" font-family="Helvetica,sans-Serif" font-size="11.00" fill="#000000">Longitude</text>
<polygon fill="none" stroke="#000000" points="181.5,-323.2 181.5,-345.2 295.5,-345.2 295.5,-323.2 181.5,-323.2"/>
<text text-anchor="start" x="184.5" y="-330.9" font-family="Helvetica,sans-Serif" font-size="11.00" fill="#000000">decimal[65,30]</text>
<polygon fill="none" stroke="#000000" points="10.5,-301.2 10.5,-323.2 181.5,-323.2 181.5,-301.2 10.5,-301.2"/>
<text text-anchor="start" x="30.5" y="-308.3" font-family="Helvetica,sans-Serif" font-size="11.00" fill="#000000">Master_CompanyFK</text>
<polygon fill="none" stroke="#000000" points="181.5,-301.2 181.5,-323.2 295.5,-323.2 295.5,-301.2 181.5,-301.2"/>
<text text-anchor="start" x="184.5" y="-308.9" font-family="Helvetica,sans-Serif" font-size="11.00" fill="#000000">int[10]</text>
<polygon fill="none" stroke="#000000" points="10.5,-279.2 10.5,-301.2 181.5,-301.2 181.5,-279.2 10.5,-279.2"/>
<text text-anchor="start" x="30.5" y="-286.3" font-family="Helvetica,sans-Serif" font-size="11.00" fill="#000000">Master_ShopFK</text>
<polygon fill="none" stroke="#000000" points="181.5,-279.2 181.5,-301.2 295.5,-301.2 295.5,-279.2 181.5,-279.2"/>
<text text-anchor="start" x="184.5" y="-286.9" font-family="Helvetica,sans-Serif" font-size="11.00" fill="#000000">int[10]</text>
<polygon fill="none" stroke="#000000" points="10.5,-257.2 10.5,-279.2 181.5,-279.2 181.5,-257.2 10.5,-257.2"/>
<text text-anchor="start" x="30.5" y="-264.3" font-family="Helvetica,sans-Serif" font-size="11.00" fill="#000000">BINImage</text>
<polygon fill="none" stroke="#000000" points="181.5,-257.2 181.5,-279.2 295.5,-279.2 295.5,-257.2 181.5,-257.2"/>
<text text-anchor="start" x="184.083" y="-264.9" font-family="Helvetica,sans-Serif" font-size="11.00" fill="#000000">longblob[2147483647]</text>
<polygon fill="none" stroke="#000000" points="10.5,-235.2 10.5,-257.2 181.5,-257.2 181.5,-235.2 10.5,-235.2"/>
<text text-anchor="start" x="30.5" y="-242.3" font-family="Helvetica,sans-Serif" font-size="11.00" fill="#000000">BINNo</text>
<polygon fill="none" stroke="#000000" points="181.5,-235.2 181.5,-257.2 295.5,-257.2 295.5,-235.2 181.5,-235.2"/>
<text text-anchor="start" x="184.5" y="-242.9" font-family="Helvetica,sans-Serif" font-size="11.00" fill="#000000">varchar[150]</text>
<polygon fill="none" stroke="#000000" points="10.5,-213.2 10.5,-235.2 181.5,-235.2 181.5,-213.2 10.5,-213.2"/>
<text text-anchor="start" x="30.5" y="-220.3" font-family="Helvetica,sans-Serif" font-size="11.00" fill="#000000">LicenseExpair</text>
<polygon fill="none" stroke="#000000" points="181.5,-213.2 181.5,-235.2 295.5,-235.2 295.5,-213.2 181.5,-213.2"/>
<text text-anchor="start" x="184.5" y="-220.9" font-family="Helvetica,sans-Serif" font-size="11.00" fill="#000000">datetime[26]</text>
<polygon fill="none" stroke="#000000" points="10.5,-191.2 10.5,-213.2 181.5,-213.2 181.5,-191.2 10.5,-191.2"/>
<text text-anchor="start" x="30.5" y="-198.3" font-family="Helvetica,sans-Serif" font-size="11.00" fill="#000000">LicenseImage</text>
<polygon fill="none" stroke="#000000" points="181.5,-191.2 181.5,-213.2 295.5,-213.2 295.5,-191.2 181.5,-191.2"/>
<text text-anchor="start" x="184.083" y="-198.9" font-family="Helvetica,sans-Serif" font-size="11.00" fill="#000000">longblob[2147483647]</text>
<polygon fill="none" stroke="#000000" points="10.5,-169.2 10.5,-191.2 181.5,-191.2 181.5,-169.2 10.5,-169.2"/>
<text text-anchor="start" x="30.5" y="-176.3" font-family="Helvetica,sans-Serif" font-size="11.00" fill="#000000">NIDImage</text>
<polygon fill="none" stroke="#000000" points="181.5,-169.2 181.5,-191.2 295.5,-191.2 295.5,-169.2 181.5,-169.2"/>
<text text-anchor="start" x="184.083" y="-176.9" font-family="Helvetica,sans-Serif" font-size="11.00" fill="#000000">longblob[2147483647]</text>
<polygon fill="none" stroke="#000000" points="10.5,-147.2 10.5,-169.2 181.5,-169.2 181.5,-147.2 10.5,-147.2"/>
<text text-anchor="start" x="30.5" y="-154.3" font-family="Helvetica,sans-Serif" font-size="11.00" fill="#000000">NIDNo</text>
<polygon fill="none" stroke="#000000" points="181.5,-147.2 181.5,-169.2 295.5,-169.2 295.5,-147.2 181.5,-147.2"/>
<text text-anchor="start" x="184.5" y="-154.9" font-family="Helvetica,sans-Serif" font-size="11.00" fill="#000000">varchar[150]</text>
<polygon fill="none" stroke="#000000" points="10.5,-125.2 10.5,-147.2 181.5,-147.2 181.5,-125.2 10.5,-125.2"/>
<text text-anchor="start" x="30.5" y="-132.3" font-family="Helvetica,sans-Serif" font-size="11.00" fill="#000000">TradeLicense</text>
<polygon fill="none" stroke="#000000" points="181.5,-125.2 181.5,-147.2 295.5,-147.2 295.5,-125.2 181.5,-125.2"/>
<text text-anchor="start" x="184.5" y="-132.9" font-family="Helvetica,sans-Serif" font-size="11.00" fill="#000000">varchar[150]</text>
<polygon fill="none" stroke="#000000" points="10.5,-103.2 10.5,-125.2 181.5,-125.2 181.5,-103.2 10.5,-103.2"/>
<text text-anchor="start" x="30.5" y="-110.3" font-family="Helvetica,sans-Serif" font-size="11.00" fill="#000000">LicensePath</text>
<polygon fill="none" stroke="#000000" points="181.5,-103.2 181.5,-125.2 295.5,-125.2 295.5,-103.2 181.5,-103.2"/>
<text text-anchor="start" x="184.5" y="-110.9" font-family="Helvetica,sans-Serif" font-size="11.00" fill="#000000">longtext[2147483647]</text>
<polygon fill="none" stroke="#000000" points="10.5,-81.2 10.5,-103.2 181.5,-103.2 181.5,-81.2 10.5,-81.2"/>
<text text-anchor="start" x="30.5" y="-88.3" font-family="Helvetica,sans-Serif" font-size="11.00" fill="#000000">NIDPath</text>
<polygon fill="none" stroke="#000000" points="181.5,-81.2 181.5,-103.2 295.5,-103.2 295.5,-81.2 181.5,-81.2"/>
<text text-anchor="start" x="184.5" y="-88.9" font-family="Helvetica,sans-Serif" font-size="11.00" fill="#000000">longtext[2147483647]</text>
<polygon fill="none" stroke="#000000" points="10.5,-59.2 10.5,-81.2 181.5,-81.2 181.5,-59.2 10.5,-59.2"/>
<text text-anchor="start" x="30.5" y="-66.3" font-family="Helvetica,sans-Serif" font-size="11.00" fill="#000000">TINPath</text>
<polygon fill="none" stroke="#000000" points="181.5,-59.2 181.5,-81.2 295.5,-81.2 295.5,-59.2 181.5,-59.2"/>
<text text-anchor="start" x="184.5" y="-66.9" font-family="Helvetica,sans-Serif" font-size="11.00" fill="#000000">longtext[2147483647]</text>
<polygon fill="#ffffff" stroke="transparent" points="10.5,-40.2 10.5,-59.2 84.5,-59.2 84.5,-40.2 10.5,-40.2"/>
<polygon fill="none" stroke="#000000" points="10.5,-40.2 10.5,-59.2 84.5,-59.2 84.5,-40.2 10.5,-40.2"/>
<text text-anchor="start" x="13.5" y="-46.3" font-family="Helvetica,sans-Serif" font-size="11.00" fill="#000000">&lt; 0</text>
<polygon fill="#ffffff" stroke="transparent" points="84.5,-40.2 84.5,-59.2 181.5,-59.2 181.5,-40.2 84.5,-40.2"/>
<polygon fill="none" stroke="#000000" points="84.5,-40.2 84.5,-59.2 181.5,-59.2 181.5,-40.2 84.5,-40.2"/>
<text text-anchor="start" x="139.9956" y="-46.3" font-family="Helvetica,sans-Serif" font-size="11.00" fill="#000000">48 rows</text>
<polygon fill="#ffffff" stroke="transparent" points="181.5,-40.2 181.5,-59.2 295.5,-59.2 295.5,-40.2 181.5,-40.2"/>
<polygon fill="none" stroke="#000000" points="181.5,-40.2 181.5,-59.2 295.5,-59.2 295.5,-40.2 181.5,-40.2"/>
<text text-anchor="start" x="276.9053" y="-46.3" font-family="Helvetica,sans-Serif" font-size="11.00" fill="#000000">0 &gt;</text>
<polygon fill="none" stroke="#000000" stroke-width="2" points="9,-39.2 9,-787.2 296,-787.2 296,-39.2 9,-39.2"/>
</a>
</g>
</g>
</g>
</svg>
