<?xml version="1.0" encoding="UTF-8" standalone="no"?>
<!DOCTYPE svg PUBLIC "-//W3C//DTD SVG 1.1//EN"
 "http://www.w3.org/Graphics/SVG/1.1/DTD/svg11.dtd">
<!-- Generated by graphviz version 2.40.1 (20161225.0304)
 -->
<!-- Title: oneDegreeRelationshipsDiagram Pages: 1 -->
<svg width="310pt" height="404pt"
 viewBox="0.00 0.00 310.00 404.20" xmlns="http://www.w3.org/2000/svg" xmlns:xlink="http://www.w3.org/1999/xlink">
<g id="graph0" class="graph" transform="scale(1 1) rotate(0) translate(4 400.2)">
<title>oneDegreeRelationshipsDiagram</title>
<polygon fill="#ffffff" stroke="transparent" points="-4,4 -4,-400.2 306,-400.2 306,4 -4,4"/>
<text text-anchor="middle" x="72.4936" y="-7.3" font-family="Helvetica,sans-Serif" font-size="11.00" fill="#000000">Generated by SchemaSpy</text>
<!-- common_route -->
<g id="node1" class="node">
<title>common_route</title>
<g id="a_node1"><a xlink:href="../../tables/common_route.html" xlink:title="common_route" target="_top">
<polygon fill="#ffffff" stroke="transparent" points="8,-38.2 8,-392.2 294,-392.2 294,-38.2 8,-38.2"/>
<polygon fill="#f5f5f5" stroke="transparent" points="10,-367.2 10,-390.2 292,-390.2 292,-367.2 10,-367.2"/>
<polygon fill="none" stroke="#000000" points="10,-367.2 10,-390.2 292,-390.2 292,-367.2 10,-367.2"/>
<text text-anchor="start" x="15" y="-375.8" font-family="Helvetica,sans-Serif" font-weight="bold" font-size="11.00" fill="#000000">common_route</text>
<text text-anchor="start" x="257.0437" y="-375.3" font-family="Helvetica,sans-Serif" font-size="11.00" fill="#000000">[table]</text>
<polygon fill="none" stroke="#000000" points="10,-345.2 10,-367.2 181,-367.2 181,-345.2 10,-345.2"/>
<image xlink:href="../../images/primaryKeys.png" width="11px" height="12px" preserveAspectRatio="xMinYMin meet" x="15" y="-362.2"/>
<text text-anchor="start" x="30" y="-352.3" font-family="Helvetica,sans-Serif" font-size="11.00" fill="#000000">ID</text>
<polygon fill="none" stroke="#000000" points="181,-345.2 181,-367.2 292,-367.2 292,-345.2 181,-345.2"/>
<text text-anchor="start" x="184" y="-352.9" font-family="Helvetica,sans-Serif" font-size="11.00" fill="#000000">int[10]</text>
<polygon fill="none" stroke="#000000" points="10,-323.2 10,-345.2 181,-345.2 181,-323.2 10,-323.2"/>
<text text-anchor="start" x="30" y="-330.3" font-family="Helvetica,sans-Serif" font-size="11.00" fill="#000000">Active</text>
<polygon fill="none" stroke="#000000" points="181,-323.2 181,-345.2 292,-345.2 292,-323.2 181,-323.2"/>
<text text-anchor="start" x="184" y="-330.9" font-family="Helvetica,sans-Serif" font-size="11.00" fill="#000000">bit[1]</text>
<polygon fill="none" stroke="#000000" points="10,-301.2 10,-323.2 181,-323.2 181,-301.2 10,-301.2"/>
<text text-anchor="start" x="30" y="-308.3" font-family="Helvetica,sans-Serif" font-size="11.00" fill="#000000">User</text>
<polygon fill="none" stroke="#000000" points="181,-301.2 181,-323.2 292,-323.2 292,-301.2 181,-301.2"/>
<text text-anchor="start" x="183.6115" y="-308.9" font-family="Helvetica,sans-Serif" font-size="11.00" fill="#000000">longtext[2147483647]</text>
<polygon fill="none" stroke="#000000" points="10,-279.2 10,-301.2 181,-301.2 181,-279.2 10,-279.2"/>
<text text-anchor="start" x="30" y="-286.3" font-family="Helvetica,sans-Serif" font-size="11.00" fill="#000000">CD</text>
<polygon fill="none" stroke="#000000" points="181,-279.2 181,-301.2 292,-301.2 292,-279.2 181,-279.2"/>
<text text-anchor="start" x="184" y="-286.9" font-family="Helvetica,sans-Serif" font-size="11.00" fill="#000000">datetime[26]</text>
<polygon fill="none" stroke="#000000" points="10,-257.2 10,-279.2 181,-279.2 181,-257.2 10,-257.2"/>
<text text-anchor="start" x="30" y="-264.3" font-family="Helvetica,sans-Serif" font-size="11.00" fill="#000000">UD</text>
<polygon fill="none" stroke="#000000" points="181,-257.2 181,-279.2 292,-279.2 292,-257.2 181,-257.2"/>
<text text-anchor="start" x="184" y="-264.9" font-family="Helvetica,sans-Serif" font-size="11.00" fill="#000000">datetime[26]</text>
<polygon fill="none" stroke="#000000" points="10,-235.2 10,-257.2 181,-257.2 181,-235.2 10,-235.2"/>
<text text-anchor="start" x="30" y="-242.3" font-family="Helvetica,sans-Serif" font-size="11.00" fill="#000000">Remarks</text>
<polygon fill="none" stroke="#000000" points="181,-235.2 181,-257.2 292,-257.2 292,-235.2 181,-235.2"/>
<text text-anchor="start" x="183.6115" y="-242.9" font-family="Helvetica,sans-Serif" font-size="11.00" fill="#000000">longtext[2147483647]</text>
<polygon fill="none" stroke="#000000" points="10,-213.2 10,-235.2 181,-235.2 181,-213.2 10,-213.2"/>
<text text-anchor="start" x="30" y="-220.3" font-family="Helvetica,sans-Serif" font-size="11.00" fill="#000000">UserID</text>
<polygon fill="none" stroke="#000000" points="181,-213.2 181,-235.2 292,-235.2 292,-213.2 181,-213.2"/>
<text text-anchor="start" x="184" y="-220.9" font-family="Helvetica,sans-Serif" font-size="11.00" fill="#000000">int[10]</text>
<polygon fill="none" stroke="#000000" points="10,-191.2 10,-213.2 181,-213.2 181,-191.2 10,-191.2"/>
<text text-anchor="start" x="30" y="-198.3" font-family="Helvetica,sans-Serif" font-size="11.00" fill="#000000">Name</text>
<polygon fill="none" stroke="#000000" points="181,-191.2 181,-213.2 292,-213.2 292,-191.2 181,-191.2"/>
<text text-anchor="start" x="183.6115" y="-198.9" font-family="Helvetica,sans-Serif" font-size="11.00" fill="#000000">longtext[2147483647]</text>
<polygon fill="none" stroke="#000000" points="10,-169.2 10,-191.2 181,-191.2 181,-169.2 10,-169.2"/>
<text text-anchor="start" x="30" y="-176.3" font-family="Helvetica,sans-Serif" font-size="11.00" fill="#000000">StartLatitude</text>
<polygon fill="none" stroke="#000000" points="181,-169.2 181,-191.2 292,-191.2 292,-169.2 181,-169.2"/>
<text text-anchor="start" x="184" y="-176.9" font-family="Helvetica,sans-Serif" font-size="11.00" fill="#000000">decimal[65,30]</text>
<polygon fill="none" stroke="#000000" points="10,-147.2 10,-169.2 181,-169.2 181,-147.2 10,-147.2"/>
<text text-anchor="start" x="30" y="-154.3" font-family="Helvetica,sans-Serif" font-size="11.00" fill="#000000">StartLongitude</text>
<polygon fill="none" stroke="#000000" points="181,-147.2 181,-169.2 292,-169.2 292,-147.2 181,-147.2"/>
<text text-anchor="start" x="184" y="-154.9" font-family="Helvetica,sans-Serif" font-size="11.00" fill="#000000">decimal[65,30]</text>
<polygon fill="none" stroke="#000000" points="10,-125.2 10,-147.2 181,-147.2 181,-125.2 10,-125.2"/>
<text text-anchor="start" x="30" y="-132.3" font-family="Helvetica,sans-Serif" font-size="11.00" fill="#000000">EndLatitude</text>
<polygon fill="none" stroke="#000000" points="181,-125.2 181,-147.2 292,-147.2 292,-125.2 181,-125.2"/>
<text text-anchor="start" x="184" y="-132.9" font-family="Helvetica,sans-Serif" font-size="11.00" fill="#000000">decimal[65,30]</text>
<polygon fill="none" stroke="#000000" points="10,-103.2 10,-125.2 181,-125.2 181,-103.2 10,-103.2"/>
<text text-anchor="start" x="30" y="-110.3" font-family="Helvetica,sans-Serif" font-size="11.00" fill="#000000">EndLongitude</text>
<polygon fill="none" stroke="#000000" points="181,-103.2 181,-125.2 292,-125.2 292,-103.2 181,-103.2"/>
<text text-anchor="start" x="184" y="-110.9" font-family="Helvetica,sans-Serif" font-size="11.00" fill="#000000">decimal[65,30]</text>
<polygon fill="none" stroke="#000000" points="10,-81.2 10,-103.2 181,-103.2 181,-81.2 10,-81.2"/>
<text text-anchor="start" x="30" y="-88.3" font-family="Helvetica,sans-Serif" font-size="11.00" fill="#000000">Common_PoliceStationFK</text>
<polygon fill="none" stroke="#000000" points="181,-81.2 181,-103.2 292,-103.2 292,-81.2 181,-81.2"/>
<text text-anchor="start" x="184" y="-88.9" font-family="Helvetica,sans-Serif" font-size="11.00" fill="#000000">int[10]</text>
<polygon fill="none" stroke="#000000" points="10,-59.2 10,-81.2 181,-81.2 181,-59.2 10,-59.2"/>
<text text-anchor="start" x="30" y="-66.3" font-family="Helvetica,sans-Serif" font-size="11.00" fill="#000000">Common_DealerFK</text>
<polygon fill="none" stroke="#000000" points="181,-59.2 181,-81.2 292,-81.2 292,-59.2 181,-59.2"/>
<text text-anchor="start" x="184" y="-66.9" font-family="Helvetica,sans-Serif" font-size="11.00" fill="#000000">int[10]</text>
<polygon fill="#ffffff" stroke="transparent" points="10,-40.2 10,-59.2 84,-59.2 84,-40.2 10,-40.2"/>
<polygon fill="none" stroke="#000000" points="10,-40.2 10,-59.2 84,-59.2 84,-40.2 10,-40.2"/>
<text text-anchor="start" x="13" y="-46.3" font-family="Helvetica,sans-Serif" font-size="11.00" fill="#000000">&lt; 0</text>
<polygon fill="#ffffff" stroke="transparent" points="84,-40.2 84,-59.2 181,-59.2 181,-40.2 84,-40.2"/>
<polygon fill="none" stroke="#000000" points="84,-40.2 84,-59.2 181,-59.2 181,-40.2 84,-40.2"/>
<text text-anchor="start" x="139.4956" y="-46.3" font-family="Helvetica,sans-Serif" font-size="11.00" fill="#000000">10 rows</text>
<polygon fill="#ffffff" stroke="transparent" points="181,-40.2 181,-59.2 292,-59.2 292,-40.2 181,-40.2"/>
<polygon fill="none" stroke="#000000" points="181,-40.2 181,-59.2 292,-59.2 292,-40.2 181,-40.2"/>
<text text-anchor="start" x="273.4053" y="-46.3" font-family="Helvetica,sans-Serif" font-size="11.00" fill="#000000">0 &gt;</text>
<polygon fill="none" stroke="#000000" stroke-width="2" points="9,-39.2 9,-391.2 293,-391.2 293,-39.2 9,-39.2"/>
</a>
</g>
</g>
</g>
</svg>
