<?xml version="1.0" encoding="UTF-8" standalone="no"?>
<!DOCTYPE svg PUBLIC "-//W3C//DTD SVG 1.1//EN"
 "http://www.w3.org/Graphics/SVG/1.1/DTD/svg11.dtd">
<!-- Generated by graphviz version 2.40.1 (20161225.0304)
 -->
<!-- Title: oneDegreeRelationshipsDiagram Pages: 1 -->
<svg width="513pt" height="425pt"
 viewBox="0.00 0.00 513.00 424.70" xmlns="http://www.w3.org/2000/svg" xmlns:xlink="http://www.w3.org/1999/xlink">
<g id="graph0" class="graph" transform="scale(1 1) rotate(0) translate(4 420.7)">
<title>oneDegreeRelationshipsDiagram</title>
<polygon fill="#ffffff" stroke="transparent" points="-4,4 -4,-420.7 509,-420.7 509,4 -4,4"/>
<text text-anchor="middle" x="72.4936" y="-7.3" font-family="Helvetica,sans-Serif" font-size="11.00" fill="#000000">Generated by SchemaSpy</text>
<!-- common_product -->
<g id="node1" class="node">
<title>common_product</title>
<g id="a_node1"><a xlink:href="../../tables/common_product.html" xlink:title="common_product" target="_top">
<polygon fill="#ffffff" stroke="transparent" points="326,-285.7 326,-412.7 497,-412.7 497,-285.7 326,-285.7"/>
<polygon fill="#f5f5f5" stroke="transparent" points="326.5,-389.2 326.5,-412.2 497.5,-412.2 497.5,-389.2 326.5,-389.2"/>
<polygon fill="none" stroke="#000000" points="326.5,-389.2 326.5,-412.2 497.5,-412.2 497.5,-389.2 326.5,-389.2"/>
<text text-anchor="start" x="331.5" y="-397.8" font-family="Helvetica,sans-Serif" font-weight="bold" font-size="11.00" fill="#000000">common_product</text>
<text text-anchor="start" x="462.5437" y="-397.3" font-family="Helvetica,sans-Serif" font-size="11.00" fill="#000000">[table]</text>
<polygon fill="none" stroke="#000000" points="326.5,-367.2 326.5,-389.2 497.5,-389.2 497.5,-367.2 326.5,-367.2"/>
<image xlink:href="../../images/primaryKeys.png" width="11px" height="12px" preserveAspectRatio="xMinYMin meet" x="331.5" y="-384.2"/>
<text text-anchor="start" x="346.5" y="-374.3" font-family="Helvetica,sans-Serif" font-size="11.00" fill="#000000">ID</text>
<polygon fill="#ffffff" stroke="transparent" points="326.5,-345.2 326.5,-367.2 497.5,-367.2 497.5,-345.2 326.5,-345.2"/>
<polygon fill="none" stroke="#000000" points="326.5,-345.2 326.5,-367.2 497.5,-367.2 497.5,-345.2 326.5,-345.2"/>
<image xlink:href="../../images/foreignKeys.png" width="11px" height="12px" preserveAspectRatio="xMinYMin meet" x="331.5" y="-362.2"/>
<text text-anchor="start" x="346.5" y="-352.3" font-family="Helvetica,sans-Serif" font-size="11.00" fill="#000000">Common_ManufacturerFK</text>
<polygon fill="none" stroke="#000000" points="326.5,-323.2 326.5,-345.2 497.5,-345.2 497.5,-323.2 326.5,-323.2"/>
<image xlink:href="../../images/foreignKeys.png" width="11px" height="12px" preserveAspectRatio="xMinYMin meet" x="331.5" y="-340.2"/>
<text text-anchor="start" x="346.5" y="-330.3" font-family="Helvetica,sans-Serif" font-size="11.00" fill="#000000">Common_PackTypeID</text>
<polygon fill="none" stroke="#000000" points="326.5,-304.2 326.5,-323.2 497.5,-323.2 497.5,-304.2 326.5,-304.2"/>
<text text-anchor="start" x="329.5" y="-310.3" font-family="Helvetica,sans-Serif" font-size="11.00" fill="#000000">...</text>
<polygon fill="#ffffff" stroke="transparent" points="326.5,-285.2 326.5,-304.2 389.5,-304.2 389.5,-285.2 326.5,-285.2"/>
<polygon fill="none" stroke="#000000" points="326.5,-285.2 326.5,-304.2 389.5,-304.2 389.5,-285.2 326.5,-285.2"/>
<text text-anchor="start" x="329.5" y="-291.3" font-family="Helvetica,sans-Serif" font-size="11.00" fill="#000000">&lt; 1</text>
<polygon fill="#ffffff" stroke="transparent" points="389.5,-285.2 389.5,-304.2 454.5,-304.2 454.5,-285.2 389.5,-285.2"/>
<polygon fill="none" stroke="#000000" points="389.5,-285.2 389.5,-304.2 454.5,-304.2 454.5,-285.2 389.5,-285.2"/>
<text text-anchor="start" x="412.9956" y="-291.3" font-family="Helvetica,sans-Serif" font-size="11.00" fill="#000000">54 rows</text>
<polygon fill="#ffffff" stroke="transparent" points="454.5,-285.2 454.5,-304.2 497.5,-304.2 497.5,-285.2 454.5,-285.2"/>
<polygon fill="none" stroke="#000000" points="454.5,-285.2 454.5,-304.2 497.5,-304.2 497.5,-285.2 454.5,-285.2"/>
<text text-anchor="start" x="478.9053" y="-291.3" font-family="Helvetica,sans-Serif" font-size="11.00" fill="#000000">6 &gt;</text>
</a>
</g>
</g>
<!-- common_manufacturer -->
<g id="node2" class="node">
<title>common_manufacturer</title>
<g id="a_node2"><a xlink:href="../../tables/common_manufacturer.html" xlink:title="common_manufacturer" target="_top">
<polygon fill="#ffffff" stroke="transparent" points="8,-38.2 8,-392.2 277,-392.2 277,-38.2 8,-38.2"/>
<polygon fill="#f5f5f5" stroke="transparent" points="10.5,-367.2 10.5,-390.2 275.5,-390.2 275.5,-367.2 10.5,-367.2"/>
<polygon fill="none" stroke="#000000" points="10.5,-367.2 10.5,-390.2 275.5,-390.2 275.5,-367.2 10.5,-367.2"/>
<text text-anchor="start" x="15.5" y="-375.8" font-family="Helvetica,sans-Serif" font-weight="bold" font-size="11.00" fill="#000000">common_manufacturer</text>
<text text-anchor="start" x="240.5437" y="-375.3" font-family="Helvetica,sans-Serif" font-size="11.00" fill="#000000">[table]</text>
<polygon fill="none" stroke="#000000" points="10.5,-345.2 10.5,-367.2 164.5,-367.2 164.5,-345.2 10.5,-345.2"/>
<image xlink:href="../../images/primaryKeys.png" width="11px" height="12px" preserveAspectRatio="xMinYMin meet" x="15.5" y="-362.2"/>
<text text-anchor="start" x="30.5" y="-352.3" font-family="Helvetica,sans-Serif" font-size="11.00" fill="#000000">ID</text>
<polygon fill="none" stroke="#000000" points="164.5,-345.2 164.5,-367.2 275.5,-367.2 275.5,-345.2 164.5,-345.2"/>
<text text-anchor="start" x="167.5" y="-352.9" font-family="Helvetica,sans-Serif" font-size="11.00" fill="#000000">int[10]</text>
<polygon fill="none" stroke="#000000" points="10.5,-323.2 10.5,-345.2 164.5,-345.2 164.5,-323.2 10.5,-323.2"/>
<text text-anchor="start" x="30.5" y="-330.3" font-family="Helvetica,sans-Serif" font-size="11.00" fill="#000000">Active</text>
<polygon fill="none" stroke="#000000" points="164.5,-323.2 164.5,-345.2 275.5,-345.2 275.5,-323.2 164.5,-323.2"/>
<text text-anchor="start" x="167.5" y="-330.9" font-family="Helvetica,sans-Serif" font-size="11.00" fill="#000000">bit[1]</text>
<polygon fill="none" stroke="#000000" points="10.5,-301.2 10.5,-323.2 164.5,-323.2 164.5,-301.2 10.5,-301.2"/>
<text text-anchor="start" x="30.5" y="-308.3" font-family="Helvetica,sans-Serif" font-size="11.00" fill="#000000">User</text>
<polygon fill="none" stroke="#000000" points="164.5,-301.2 164.5,-323.2 275.5,-323.2 275.5,-301.2 164.5,-301.2"/>
<text text-anchor="start" x="167.1115" y="-308.9" font-family="Helvetica,sans-Serif" font-size="11.00" fill="#000000">longtext[2147483647]</text>
<polygon fill="none" stroke="#000000" points="10.5,-279.2 10.5,-301.2 164.5,-301.2 164.5,-279.2 10.5,-279.2"/>
<text text-anchor="start" x="30.5" y="-286.3" font-family="Helvetica,sans-Serif" font-size="11.00" fill="#000000">CD</text>
<polygon fill="none" stroke="#000000" points="164.5,-279.2 164.5,-301.2 275.5,-301.2 275.5,-279.2 164.5,-279.2"/>
<text text-anchor="start" x="167.5" y="-286.9" font-family="Helvetica,sans-Serif" font-size="11.00" fill="#000000">datetime[26]</text>
<polygon fill="none" stroke="#000000" points="10.5,-257.2 10.5,-279.2 164.5,-279.2 164.5,-257.2 10.5,-257.2"/>
<text text-anchor="start" x="30.5" y="-264.3" font-family="Helvetica,sans-Serif" font-size="11.00" fill="#000000">UD</text>
<polygon fill="none" stroke="#000000" points="164.5,-257.2 164.5,-279.2 275.5,-279.2 275.5,-257.2 164.5,-257.2"/>
<text text-anchor="start" x="167.5" y="-264.9" font-family="Helvetica,sans-Serif" font-size="11.00" fill="#000000">datetime[26]</text>
<polygon fill="none" stroke="#000000" points="10.5,-235.2 10.5,-257.2 164.5,-257.2 164.5,-235.2 10.5,-235.2"/>
<text text-anchor="start" x="30.5" y="-242.3" font-family="Helvetica,sans-Serif" font-size="11.00" fill="#000000">Remarks</text>
<polygon fill="none" stroke="#000000" points="164.5,-235.2 164.5,-257.2 275.5,-257.2 275.5,-235.2 164.5,-235.2"/>
<text text-anchor="start" x="167.1115" y="-242.9" font-family="Helvetica,sans-Serif" font-size="11.00" fill="#000000">longtext[2147483647]</text>
<polygon fill="none" stroke="#000000" points="10.5,-213.2 10.5,-235.2 164.5,-235.2 164.5,-213.2 10.5,-213.2"/>
<text text-anchor="start" x="30.5" y="-220.3" font-family="Helvetica,sans-Serif" font-size="11.00" fill="#000000">UserID</text>
<polygon fill="none" stroke="#000000" points="164.5,-213.2 164.5,-235.2 275.5,-235.2 275.5,-213.2 164.5,-213.2"/>
<text text-anchor="start" x="167.5" y="-220.9" font-family="Helvetica,sans-Serif" font-size="11.00" fill="#000000">int[10]</text>
<polygon fill="none" stroke="#000000" points="10.5,-191.2 10.5,-213.2 164.5,-213.2 164.5,-191.2 10.5,-191.2"/>
<text text-anchor="start" x="30.5" y="-198.3" font-family="Helvetica,sans-Serif" font-size="11.00" fill="#000000">Name</text>
<polygon fill="none" stroke="#000000" points="164.5,-191.2 164.5,-213.2 275.5,-213.2 275.5,-191.2 164.5,-191.2"/>
<text text-anchor="start" x="167.1115" y="-198.9" font-family="Helvetica,sans-Serif" font-size="11.00" fill="#000000">longtext[2147483647]</text>
<polygon fill="none" stroke="#000000" points="10.5,-169.2 10.5,-191.2 164.5,-191.2 164.5,-169.2 10.5,-169.2"/>
<text text-anchor="start" x="30.5" y="-176.3" font-family="Helvetica,sans-Serif" font-size="11.00" fill="#000000">Common_CountriesFK</text>
<polygon fill="none" stroke="#000000" points="164.5,-169.2 164.5,-191.2 275.5,-191.2 275.5,-169.2 164.5,-169.2"/>
<text text-anchor="start" x="167.5" y="-176.9" font-family="Helvetica,sans-Serif" font-size="11.00" fill="#000000">int[10]</text>
<polygon fill="none" stroke="#000000" points="10.5,-147.2 10.5,-169.2 164.5,-169.2 164.5,-147.2 10.5,-147.2"/>
<text text-anchor="start" x="30.5" y="-154.3" font-family="Helvetica,sans-Serif" font-size="11.00" fill="#000000">Common_DealerFK</text>
<polygon fill="none" stroke="#000000" points="164.5,-147.2 164.5,-169.2 275.5,-169.2 275.5,-147.2 164.5,-147.2"/>
<text text-anchor="start" x="167.5" y="-154.9" font-family="Helvetica,sans-Serif" font-size="11.00" fill="#000000">int[10]</text>
<polygon fill="none" stroke="#000000" points="10.5,-125.2 10.5,-147.2 164.5,-147.2 164.5,-125.2 10.5,-125.2"/>
<text text-anchor="start" x="30.5" y="-132.3" font-family="Helvetica,sans-Serif" font-size="11.00" fill="#000000">Contact</text>
<polygon fill="none" stroke="#000000" points="164.5,-125.2 164.5,-147.2 275.5,-147.2 275.5,-125.2 164.5,-125.2"/>
<text text-anchor="start" x="167.1115" y="-132.9" font-family="Helvetica,sans-Serif" font-size="11.00" fill="#000000">longtext[2147483647]</text>
<polygon fill="none" stroke="#000000" points="10.5,-103.2 10.5,-125.2 164.5,-125.2 164.5,-103.2 10.5,-103.2"/>
<text text-anchor="start" x="30.5" y="-110.3" font-family="Helvetica,sans-Serif" font-size="11.00" fill="#000000">Email</text>
<polygon fill="none" stroke="#000000" points="164.5,-103.2 164.5,-125.2 275.5,-125.2 275.5,-103.2 164.5,-103.2"/>
<text text-anchor="start" x="167.1115" y="-110.9" font-family="Helvetica,sans-Serif" font-size="11.00" fill="#000000">longtext[2147483647]</text>
<polygon fill="none" stroke="#000000" points="10.5,-81.2 10.5,-103.2 164.5,-103.2 164.5,-81.2 10.5,-81.2"/>
<text text-anchor="start" x="30.5" y="-88.3" font-family="Helvetica,sans-Serif" font-size="11.00" fill="#000000">Address</text>
<polygon fill="none" stroke="#000000" points="164.5,-81.2 164.5,-103.2 275.5,-103.2 275.5,-81.2 164.5,-81.2"/>
<text text-anchor="start" x="167.1115" y="-88.9" font-family="Helvetica,sans-Serif" font-size="11.00" fill="#000000">longtext[2147483647]</text>
<polygon fill="none" stroke="#000000" points="10.5,-59.2 10.5,-81.2 164.5,-81.2 164.5,-59.2 10.5,-59.2"/>
<text text-anchor="start" x="30.5" y="-66.3" font-family="Helvetica,sans-Serif" font-size="11.00" fill="#000000">IsLock</text>
<polygon fill="none" stroke="#000000" points="164.5,-59.2 164.5,-81.2 275.5,-81.2 275.5,-59.2 164.5,-59.2"/>
<text text-anchor="start" x="167.5" y="-66.9" font-family="Helvetica,sans-Serif" font-size="11.00" fill="#000000">bit[1]</text>
<polygon fill="#ffffff" stroke="transparent" points="10.5,-40.2 10.5,-59.2 75.5,-59.2 75.5,-40.2 10.5,-40.2"/>
<polygon fill="none" stroke="#000000" points="10.5,-40.2 10.5,-59.2 75.5,-59.2 75.5,-40.2 10.5,-40.2"/>
<text text-anchor="start" x="13.5" y="-46.3" font-family="Helvetica,sans-Serif" font-size="11.00" fill="#000000">&lt; 0</text>
<polygon fill="#ffffff" stroke="transparent" points="75.5,-40.2 75.5,-59.2 164.5,-59.2 164.5,-40.2 75.5,-40.2"/>
<polygon fill="none" stroke="#000000" points="75.5,-40.2 75.5,-59.2 164.5,-59.2 164.5,-40.2 75.5,-40.2"/>
<text text-anchor="start" x="122.9956" y="-46.3" font-family="Helvetica,sans-Serif" font-size="11.00" fill="#000000">33 rows</text>
<polygon fill="#ffffff" stroke="transparent" points="164.5,-40.2 164.5,-59.2 275.5,-59.2 275.5,-40.2 164.5,-40.2"/>
<polygon fill="none" stroke="#000000" points="164.5,-40.2 164.5,-59.2 275.5,-59.2 275.5,-40.2 164.5,-40.2"/>
<text text-anchor="start" x="256.9053" y="-46.3" font-family="Helvetica,sans-Serif" font-size="11.00" fill="#000000">1 &gt;</text>
<polygon fill="none" stroke="#000000" stroke-width="2" points="9,-39.2 9,-391.2 276,-391.2 276,-39.2 9,-39.2"/>
</a>
</g>
</g>
<!-- common_product&#45;&gt;common_manufacturer -->
<g id="edge1" class="edge">
<title>common_product:w&#45;&gt;common_manufacturer:e</title>
<path fill="none" stroke="#000000" d="M311.776,-356.2C299.7815,-356.2 292.3229,-356.2 275.5,-356.2"/>
<polygon fill="#000000" stroke="#000000" points="318.5,-356.2001 326.5,-359.8 322.5,-356.2 326.5,-356.2 326.5,-356.2 326.5,-356.2 322.5,-356.2 326.5,-352.6 318.5,-356.2001 318.5,-356.2001"/>
<ellipse fill="none" stroke="#000000" cx="315.3" cy="-356.2001" rx="3.2" ry="3.2"/>
</g>
</g>
</svg>
