<?xml version="1.0" encoding="UTF-8" standalone="no"?>
<!DOCTYPE svg PUBLIC "-//W3C//DTD SVG 1.1//EN"
 "http://www.w3.org/Graphics/SVG/1.1/DTD/svg11.dtd">
<!-- Generated by graphviz version 2.40.1 (20161225.0304)
 -->
<!-- Title: oneDegreeRelationshipsDiagramImplied Pages: 1 -->
<svg width="478pt" height="422pt"
 viewBox="0.00 0.00 478.00 421.70" xmlns="http://www.w3.org/2000/svg" xmlns:xlink="http://www.w3.org/1999/xlink">
<g id="graph0" class="graph" transform="scale(1 1) rotate(0) translate(4 417.7)">
<title>oneDegreeRelationshipsDiagramImplied</title>
<polygon fill="#ffffff" stroke="transparent" points="-4,4 -4,-417.7 474,-417.7 474,4 -4,4"/>
<text text-anchor="middle" x="72.4936" y="-7.3" font-family="Helvetica,sans-Serif" font-size="11.00" fill="#000000">Generated by SchemaSpy</text>
<!-- common_dealerzone -->
<g id="node1" class="node">
<title>common_dealerzone</title>
<g id="a_node1"><a xlink:href="../../tables/common_dealerzone.html" xlink:title="common_dealerzone" target="_top">
<polygon fill="#ffffff" stroke="transparent" points="304,-282.7 304,-409.7 462,-409.7 462,-282.7 304,-282.7"/>
<polygon fill="#f5f5f5" stroke="transparent" points="304,-386.2 304,-409.2 462,-409.2 462,-386.2 304,-386.2"/>
<polygon fill="none" stroke="#000000" points="304,-386.2 304,-409.2 462,-409.2 462,-386.2 304,-386.2"/>
<text text-anchor="start" x="309" y="-394.8" font-family="Helvetica,sans-Serif" font-weight="bold" font-size="11.00" fill="#000000">common_dealerzone</text>
<text text-anchor="start" x="427.5219" y="-394.3" font-family="Helvetica,sans-Serif" font-size="11.00" fill="#000000">[table]</text>
<polygon fill="none" stroke="#000000" points="304,-364.2 304,-386.2 462,-386.2 462,-364.2 304,-364.2"/>
<image xlink:href="../../images/primaryKeys.png" width="11px" height="12px" preserveAspectRatio="xMinYMin meet" x="309" y="-381.2"/>
<text text-anchor="start" x="333" y="-371.3" font-family="Helvetica,sans-Serif" font-size="11.00" fill="#000000">ID</text>
<polygon fill="#ffffff" stroke="transparent" points="304,-342.2 304,-364.2 462,-364.2 462,-342.2 304,-342.2"/>
<polygon fill="none" stroke="#000000" points="304,-342.2 304,-364.2 462,-364.2 462,-342.2 304,-342.2"/>
<image xlink:href="../../images/foreignKeys.png" width="11px" height="12px" preserveAspectRatio="xMinYMin meet" x="309" y="-359.2"/>
<text text-anchor="start" x="333" y="-349.3" font-family="Helvetica,sans-Serif" font-size="11.00" fill="#000000">Common_DealerFK</text>
<polygon fill="#ffffff" stroke="transparent" points="304,-320.2 304,-342.2 462,-342.2 462,-320.2 304,-320.2"/>
<polygon fill="none" stroke="#000000" points="304,-320.2 304,-342.2 462,-342.2 462,-320.2 304,-320.2"/>
<image xlink:href="../../images/foreignKeys.png" width="11px" height="12px" preserveAspectRatio="xMinYMin meet" x="309" y="-337.2"/>
<text text-anchor="start" x="333" y="-327.3" font-family="Helvetica,sans-Serif" font-size="11.00" fill="#000000">Common_ZoneFK</text>
<polygon fill="none" stroke="#000000" points="304,-301.2 304,-320.2 462,-320.2 462,-301.2 304,-301.2"/>
<text text-anchor="start" x="307" y="-307.3" font-family="Helvetica,sans-Serif" font-size="11.00" fill="#000000">...</text>
<polygon fill="#ffffff" stroke="transparent" points="304,-282.2 304,-301.2 365,-301.2 365,-282.2 304,-282.2"/>
<polygon fill="none" stroke="#000000" points="304,-282.2 304,-301.2 365,-301.2 365,-282.2 304,-282.2"/>
<text text-anchor="start" x="307" y="-288.3" font-family="Helvetica,sans-Serif" font-size="11.00" fill="#000000">&lt; 2</text>
<polygon fill="#ffffff" stroke="transparent" points="365,-282.2 365,-301.2 429,-301.2 429,-282.2 365,-282.2"/>
<polygon fill="none" stroke="#000000" points="365,-282.2 365,-301.2 429,-301.2 429,-282.2 365,-282.2"/>
<text text-anchor="start" x="387.4956" y="-288.3" font-family="Helvetica,sans-Serif" font-size="11.00" fill="#000000">52 rows</text>
<polygon fill="#ffffff" stroke="transparent" points="429,-282.2 429,-301.2 462,-301.2 462,-282.2 429,-282.2"/>
<polygon fill="none" stroke="#000000" points="429,-282.2 429,-301.2 462,-301.2 462,-282.2 429,-282.2"/>
<text text-anchor="start" x="452.8862" y="-288.3" font-family="Helvetica,sans-Serif" font-size="11.00" fill="#000000"> &#160;</text>
</a>
</g>
</g>
<!-- common_zone -->
<g id="node2" class="node">
<title>common_zone</title>
<g id="a_node2"><a xlink:href="../../tables/common_zone.html" xlink:title="common_zone" target="_top">
<polygon fill="#ffffff" stroke="transparent" points="8,-38.2 8,-304.2 255,-304.2 255,-38.2 8,-38.2"/>
<polygon fill="#f5f5f5" stroke="transparent" points="10.5,-279.2 10.5,-302.2 253.5,-302.2 253.5,-279.2 10.5,-279.2"/>
<polygon fill="none" stroke="#000000" points="10.5,-279.2 10.5,-302.2 253.5,-302.2 253.5,-279.2 10.5,-279.2"/>
<text text-anchor="start" x="15.5" y="-287.8" font-family="Helvetica,sans-Serif" font-weight="bold" font-size="11.00" fill="#000000">common_zone</text>
<text text-anchor="start" x="218.5437" y="-287.3" font-family="Helvetica,sans-Serif" font-size="11.00" fill="#000000">[table]</text>
<polygon fill="none" stroke="#000000" points="10.5,-257.2 10.5,-279.2 142.5,-279.2 142.5,-257.2 10.5,-257.2"/>
<image xlink:href="../../images/primaryKeys.png" width="11px" height="12px" preserveAspectRatio="xMinYMin meet" x="15.5" y="-274.2"/>
<text text-anchor="start" x="30.5" y="-264.3" font-family="Helvetica,sans-Serif" font-size="11.00" fill="#000000">ID</text>
<polygon fill="none" stroke="#000000" points="142.5,-257.2 142.5,-279.2 253.5,-279.2 253.5,-257.2 142.5,-257.2"/>
<text text-anchor="start" x="145.5" y="-264.9" font-family="Helvetica,sans-Serif" font-size="11.00" fill="#000000">int[10]</text>
<polygon fill="none" stroke="#000000" points="10.5,-235.2 10.5,-257.2 142.5,-257.2 142.5,-235.2 10.5,-235.2"/>
<text text-anchor="start" x="30.5" y="-242.3" font-family="Helvetica,sans-Serif" font-size="11.00" fill="#000000">Active</text>
<polygon fill="none" stroke="#000000" points="142.5,-235.2 142.5,-257.2 253.5,-257.2 253.5,-235.2 142.5,-235.2"/>
<text text-anchor="start" x="145.5" y="-242.9" font-family="Helvetica,sans-Serif" font-size="11.00" fill="#000000">bit[1]</text>
<polygon fill="none" stroke="#000000" points="10.5,-213.2 10.5,-235.2 142.5,-235.2 142.5,-213.2 10.5,-213.2"/>
<text text-anchor="start" x="30.5" y="-220.3" font-family="Helvetica,sans-Serif" font-size="11.00" fill="#000000">User</text>
<polygon fill="none" stroke="#000000" points="142.5,-213.2 142.5,-235.2 253.5,-235.2 253.5,-213.2 142.5,-213.2"/>
<text text-anchor="start" x="145.1115" y="-220.9" font-family="Helvetica,sans-Serif" font-size="11.00" fill="#000000">longtext[2147483647]</text>
<polygon fill="none" stroke="#000000" points="10.5,-191.2 10.5,-213.2 142.5,-213.2 142.5,-191.2 10.5,-191.2"/>
<text text-anchor="start" x="30.5" y="-198.3" font-family="Helvetica,sans-Serif" font-size="11.00" fill="#000000">CD</text>
<polygon fill="none" stroke="#000000" points="142.5,-191.2 142.5,-213.2 253.5,-213.2 253.5,-191.2 142.5,-191.2"/>
<text text-anchor="start" x="145.5" y="-198.9" font-family="Helvetica,sans-Serif" font-size="11.00" fill="#000000">datetime[26]</text>
<polygon fill="none" stroke="#000000" points="10.5,-169.2 10.5,-191.2 142.5,-191.2 142.5,-169.2 10.5,-169.2"/>
<text text-anchor="start" x="30.5" y="-176.3" font-family="Helvetica,sans-Serif" font-size="11.00" fill="#000000">UD</text>
<polygon fill="none" stroke="#000000" points="142.5,-169.2 142.5,-191.2 253.5,-191.2 253.5,-169.2 142.5,-169.2"/>
<text text-anchor="start" x="145.5" y="-176.9" font-family="Helvetica,sans-Serif" font-size="11.00" fill="#000000">datetime[26]</text>
<polygon fill="none" stroke="#000000" points="10.5,-147.2 10.5,-169.2 142.5,-169.2 142.5,-147.2 10.5,-147.2"/>
<text text-anchor="start" x="30.5" y="-154.3" font-family="Helvetica,sans-Serif" font-size="11.00" fill="#000000">Remarks</text>
<polygon fill="none" stroke="#000000" points="142.5,-147.2 142.5,-169.2 253.5,-169.2 253.5,-147.2 142.5,-147.2"/>
<text text-anchor="start" x="145.1115" y="-154.9" font-family="Helvetica,sans-Serif" font-size="11.00" fill="#000000">longtext[2147483647]</text>
<polygon fill="none" stroke="#000000" points="10.5,-125.2 10.5,-147.2 142.5,-147.2 142.5,-125.2 10.5,-125.2"/>
<text text-anchor="start" x="30.5" y="-132.3" font-family="Helvetica,sans-Serif" font-size="11.00" fill="#000000">UserID</text>
<polygon fill="none" stroke="#000000" points="142.5,-125.2 142.5,-147.2 253.5,-147.2 253.5,-125.2 142.5,-125.2"/>
<text text-anchor="start" x="145.5" y="-132.9" font-family="Helvetica,sans-Serif" font-size="11.00" fill="#000000">int[10]</text>
<polygon fill="none" stroke="#000000" points="10.5,-103.2 10.5,-125.2 142.5,-125.2 142.5,-103.2 10.5,-103.2"/>
<text text-anchor="start" x="30.5" y="-110.3" font-family="Helvetica,sans-Serif" font-size="11.00" fill="#000000">Name</text>
<polygon fill="none" stroke="#000000" points="142.5,-103.2 142.5,-125.2 253.5,-125.2 253.5,-103.2 142.5,-103.2"/>
<text text-anchor="start" x="145.1115" y="-110.9" font-family="Helvetica,sans-Serif" font-size="11.00" fill="#000000">longtext[2147483647]</text>
<polygon fill="none" stroke="#000000" points="10.5,-81.2 10.5,-103.2 142.5,-103.2 142.5,-81.2 10.5,-81.2"/>
<text text-anchor="start" x="30.5" y="-88.3" font-family="Helvetica,sans-Serif" font-size="11.00" fill="#000000">Common_DealerFK</text>
<polygon fill="none" stroke="#000000" points="142.5,-81.2 142.5,-103.2 253.5,-103.2 253.5,-81.2 142.5,-81.2"/>
<text text-anchor="start" x="145.5" y="-88.9" font-family="Helvetica,sans-Serif" font-size="11.00" fill="#000000">int[10]</text>
<polygon fill="none" stroke="#000000" points="10.5,-59.2 10.5,-81.2 142.5,-81.2 142.5,-59.2 10.5,-59.2"/>
<text text-anchor="start" x="30.5" y="-66.3" font-family="Helvetica,sans-Serif" font-size="11.00" fill="#000000">IsSalesZone</text>
<polygon fill="none" stroke="#000000" points="142.5,-59.2 142.5,-81.2 253.5,-81.2 253.5,-59.2 142.5,-59.2"/>
<text text-anchor="start" x="145.5" y="-66.9" font-family="Helvetica,sans-Serif" font-size="11.00" fill="#000000">bit[1]</text>
<polygon fill="#ffffff" stroke="transparent" points="10.5,-40.2 10.5,-59.2 64.5,-59.2 64.5,-40.2 10.5,-40.2"/>
<polygon fill="none" stroke="#000000" points="10.5,-40.2 10.5,-59.2 64.5,-59.2 64.5,-40.2 10.5,-40.2"/>
<text text-anchor="start" x="13.5" y="-46.3" font-family="Helvetica,sans-Serif" font-size="11.00" fill="#000000">&lt; 0</text>
<polygon fill="#ffffff" stroke="transparent" points="64.5,-40.2 64.5,-59.2 142.5,-59.2 142.5,-40.2 64.5,-40.2"/>
<polygon fill="none" stroke="#000000" points="64.5,-40.2 64.5,-59.2 142.5,-59.2 142.5,-40.2 64.5,-40.2"/>
<text text-anchor="start" x="100.9956" y="-46.3" font-family="Helvetica,sans-Serif" font-size="11.00" fill="#000000">11 rows</text>
<polygon fill="#ffffff" stroke="transparent" points="142.5,-40.2 142.5,-59.2 253.5,-59.2 253.5,-40.2 142.5,-40.2"/>
<polygon fill="none" stroke="#000000" points="142.5,-40.2 142.5,-59.2 253.5,-59.2 253.5,-40.2 142.5,-40.2"/>
<text text-anchor="start" x="234.9053" y="-46.3" font-family="Helvetica,sans-Serif" font-size="11.00" fill="#000000">2 &gt;</text>
<polygon fill="none" stroke="#000000" stroke-width="2" points="9,-39.2 9,-303.2 254,-303.2 254,-39.2 9,-39.2"/>
</a>
</g>
</g>
<!-- common_dealerzone&#45;&gt;common_zone -->
<g id="edge1" class="edge">
<title>common_dealerzone:w&#45;&gt;common_zone:e</title>
<path fill="none" stroke="#000000" d="M289.9816,-326.2565C273.738,-311.4048 283.2175,-268.2 253.5,-268.2"/>
<polygon fill="#000000" stroke="#000000" points="296.4554,-328.5394 302.8027,-334.5951 300.2277,-329.8697 304,-331.2 304,-331.2 304,-331.2 300.2277,-329.8697 305.1973,-327.8049 296.4554,-328.5394 296.4554,-328.5394"/>
<ellipse fill="none" stroke="#000000" cx="293.4375" cy="-327.4752" rx="3.2" ry="3.2"/>
</g>
<!-- common_zonearea -->
<g id="node3" class="node">
<title>common_zonearea</title>
<g id="a_node3"><a xlink:href="../../tables/common_zonearea.html" xlink:title="common_zonearea" target="_top">
<polygon fill="#ffffff" stroke="transparent" points="309.5,-156.7 309.5,-261.7 456.5,-261.7 456.5,-156.7 309.5,-156.7"/>
<polygon fill="#f5f5f5" stroke="transparent" points="310,-238.2 310,-261.2 457,-261.2 457,-238.2 310,-238.2"/>
<polygon fill="none" stroke="#000000" points="310,-238.2 310,-261.2 457,-261.2 457,-238.2 310,-238.2"/>
<text text-anchor="start" x="315" y="-246.8" font-family="Helvetica,sans-Serif" font-weight="bold" font-size="11.00" fill="#000000">common_zonearea</text>
<text text-anchor="start" x="422.5219" y="-246.3" font-family="Helvetica,sans-Serif" font-size="11.00" fill="#000000">[table]</text>
<polygon fill="none" stroke="#000000" points="310,-216.2 310,-238.2 457,-238.2 457,-216.2 310,-216.2"/>
<image xlink:href="../../images/primaryKeys.png" width="11px" height="12px" preserveAspectRatio="xMinYMin meet" x="315" y="-233.2"/>
<text text-anchor="start" x="335" y="-223.3" font-family="Helvetica,sans-Serif" font-size="11.00" fill="#000000">ID</text>
<polygon fill="none" stroke="#000000" points="310,-194.2 310,-216.2 457,-216.2 457,-194.2 310,-194.2"/>
<image xlink:href="../../images/foreignKeys.png" width="11px" height="12px" preserveAspectRatio="xMinYMin meet" x="315" y="-211.2"/>
<text text-anchor="start" x="335" y="-201.3" font-family="Helvetica,sans-Serif" font-size="11.00" fill="#000000">Common_ZoneID</text>
<polygon fill="none" stroke="#000000" points="310,-175.2 310,-194.2 457,-194.2 457,-175.2 310,-175.2"/>
<text text-anchor="start" x="313" y="-181.3" font-family="Helvetica,sans-Serif" font-size="11.00" fill="#000000">...</text>
<polygon fill="#ffffff" stroke="transparent" points="310,-156.2 310,-175.2 366,-175.2 366,-156.2 310,-156.2"/>
<polygon fill="none" stroke="#000000" points="310,-156.2 310,-175.2 366,-175.2 366,-156.2 310,-156.2"/>
<text text-anchor="start" x="313" y="-162.3" font-family="Helvetica,sans-Serif" font-size="11.00" fill="#000000">&lt; 1</text>
<polygon fill="#ffffff" stroke="transparent" points="366,-156.2 366,-175.2 427,-175.2 427,-156.2 366,-156.2"/>
<polygon fill="none" stroke="#000000" points="366,-156.2 366,-175.2 427,-175.2 427,-156.2 366,-156.2"/>
<text text-anchor="start" x="385.4956" y="-162.3" font-family="Helvetica,sans-Serif" font-size="11.00" fill="#000000">40 rows</text>
<polygon fill="#ffffff" stroke="transparent" points="427,-156.2 427,-175.2 457,-175.2 457,-156.2 427,-156.2"/>
<polygon fill="none" stroke="#000000" points="427,-156.2 427,-175.2 457,-175.2 457,-156.2 427,-156.2"/>
<text text-anchor="start" x="447.8862" y="-162.3" font-family="Helvetica,sans-Serif" font-size="11.00" fill="#000000"> &#160;</text>
</a>
</g>
</g>
<!-- common_zonearea&#45;&gt;common_zone -->
<g id="edge2" class="edge">
<title>common_zonearea:w&#45;&gt;common_zone:e</title>
<path fill="none" stroke="#000000" stroke-dasharray="5,2" d="M296.0661,-209.3336C276.8644,-223.3494 285.2341,-268.2 253.5,-268.2"/>
<polygon fill="#000000" stroke="#000000" points="302.3304,-207.4753 311.0239,-208.6513 306.1652,-206.3376 310,-205.2 310,-205.2 310,-205.2 306.1652,-206.3376 308.9761,-201.7487 302.3304,-207.4753 302.3304,-207.4753"/>
<ellipse fill="none" stroke="#000000" cx="299.2625" cy="-208.3854" rx="3.2" ry="3.2"/>
</g>
</g>
</svg>
