<?xml version="1.0" encoding="UTF-8" standalone="no"?>
<!DOCTYPE svg PUBLIC "-//W3C//DTD SVG 1.1//EN"
 "http://www.w3.org/Graphics/SVG/1.1/DTD/svg11.dtd">
<!-- Generated by graphviz version 2.40.1 (20161225.0304)
 -->
<!-- Title: twoDegreesRelationshipsDiagramImplied Pages: 1 -->
<svg width="457pt" height="465pt"
 viewBox="0.00 0.00 457.00 464.70" xmlns="http://www.w3.org/2000/svg" xmlns:xlink="http://www.w3.org/1999/xlink">
<g id="graph0" class="graph" transform="scale(1 1) rotate(0) translate(4 460.7)">
<title>twoDegreesRelationshipsDiagramImplied</title>
<polygon fill="#ffffff" stroke="transparent" points="-4,4 -4,-460.7 453,-460.7 453,4 -4,4"/>
<text text-anchor="middle" x="72.4936" y="-7.3" font-family="Helvetica,sans-Serif" font-size="11.00" fill="#000000">Generated by SchemaSpy</text>
<!-- common_dealerzone -->
<g id="node1" class="node">
<title>common_dealerzone</title>
<g id="a_node1"><a xlink:href="../../tables/common_dealerzone.html" xlink:title="common_dealerzone" target="_top">
<polygon fill="#ffffff" stroke="transparent" points="236,-391.7 236,-452.7 394,-452.7 394,-391.7 236,-391.7"/>
<polygon fill="#f5f5f5" stroke="transparent" points="236,-429.2 236,-452.2 394,-452.2 394,-429.2 236,-429.2"/>
<polygon fill="none" stroke="#000000" points="236,-429.2 236,-452.2 394,-452.2 394,-429.2 236,-429.2"/>
<text text-anchor="start" x="241" y="-437.8" font-family="Helvetica,sans-Serif" font-weight="bold" font-size="11.00" fill="#000000">common_dealerzone</text>
<text text-anchor="start" x="359.5219" y="-437.3" font-family="Helvetica,sans-Serif" font-size="11.00" fill="#000000">[table]</text>
<polygon fill="none" stroke="#000000" points="236,-410.2 236,-429.2 394,-429.2 394,-410.2 236,-410.2"/>
<text text-anchor="start" x="239" y="-416.3" font-family="Helvetica,sans-Serif" font-size="11.00" fill="#000000">...</text>
<polygon fill="#ffffff" stroke="transparent" points="236,-391.2 236,-410.2 297,-410.2 297,-391.2 236,-391.2"/>
<polygon fill="none" stroke="#000000" points="236,-391.2 236,-410.2 297,-410.2 297,-391.2 236,-391.2"/>
<text text-anchor="start" x="239" y="-397.3" font-family="Helvetica,sans-Serif" font-size="11.00" fill="#000000">&lt; 2</text>
<polygon fill="#ffffff" stroke="transparent" points="297,-391.2 297,-410.2 361,-410.2 361,-391.2 297,-391.2"/>
<polygon fill="none" stroke="#000000" points="297,-391.2 297,-410.2 361,-410.2 361,-391.2 297,-391.2"/>
<text text-anchor="start" x="319.4956" y="-397.3" font-family="Helvetica,sans-Serif" font-size="11.00" fill="#000000">52 rows</text>
<polygon fill="#ffffff" stroke="transparent" points="361,-391.2 361,-410.2 394,-410.2 394,-391.2 361,-391.2"/>
<polygon fill="none" stroke="#000000" points="361,-391.2 361,-410.2 394,-410.2 394,-391.2 361,-391.2"/>
<text text-anchor="start" x="384.8862" y="-397.3" font-family="Helvetica,sans-Serif" font-size="11.00" fill="#000000"> &#160;</text>
</a>
</g>
</g>
<!-- common_zone -->
<g id="node2" class="node">
<title>common_zone</title>
<g id="a_node2"><a xlink:href="../../tables/common_zone.html" xlink:title="common_zone" target="_top">
<polygon fill="#ffffff" stroke="transparent" points="8,-206.7 8,-289.7 140,-289.7 140,-206.7 8,-206.7"/>
<polygon fill="#f5f5f5" stroke="transparent" points="8,-266.2 8,-289.2 140,-289.2 140,-266.2 8,-266.2"/>
<polygon fill="none" stroke="#000000" points="8,-266.2 8,-289.2 140,-289.2 140,-266.2 8,-266.2"/>
<text text-anchor="start" x="13" y="-274.8" font-family="Helvetica,sans-Serif" font-weight="bold" font-size="11.00" fill="#000000">common_zone</text>
<text text-anchor="start" x="105.0437" y="-274.3" font-family="Helvetica,sans-Serif" font-size="11.00" fill="#000000">[table]</text>
<polygon fill="none" stroke="#000000" points="8,-244.2 8,-266.2 140,-266.2 140,-244.2 8,-244.2"/>
<image xlink:href="../../images/primaryKeys.png" width="11px" height="12px" preserveAspectRatio="xMinYMin meet" x="13" y="-261.2"/>
<text text-anchor="start" x="28" y="-251.3" font-family="Helvetica,sans-Serif" font-size="11.00" fill="#000000">ID</text>
<polygon fill="none" stroke="#000000" points="8,-225.2 8,-244.2 140,-244.2 140,-225.2 8,-225.2"/>
<text text-anchor="start" x="11" y="-231.3" font-family="Helvetica,sans-Serif" font-size="11.00" fill="#000000">...</text>
<polygon fill="#ffffff" stroke="transparent" points="8,-206.2 8,-225.2 47,-225.2 47,-206.2 8,-206.2"/>
<polygon fill="none" stroke="#000000" points="8,-206.2 8,-225.2 47,-225.2 47,-206.2 8,-206.2"/>
<text text-anchor="start" x="11" y="-212.3" font-family="Helvetica,sans-Serif" font-size="11.00" fill="#000000"> &#160;</text>
<polygon fill="#ffffff" stroke="transparent" points="47,-206.2 47,-225.2 105,-225.2 105,-206.2 47,-206.2"/>
<polygon fill="none" stroke="#000000" points="47,-206.2 47,-225.2 105,-225.2 105,-206.2 47,-206.2"/>
<text text-anchor="start" x="63.4956" y="-212.3" font-family="Helvetica,sans-Serif" font-size="11.00" fill="#000000">11 rows</text>
<polygon fill="#ffffff" stroke="transparent" points="105,-206.2 105,-225.2 140,-225.2 140,-206.2 105,-206.2"/>
<polygon fill="none" stroke="#000000" points="105,-206.2 105,-225.2 140,-225.2 140,-206.2 105,-206.2"/>
<text text-anchor="start" x="121.4053" y="-212.3" font-family="Helvetica,sans-Serif" font-size="11.00" fill="#000000">2 &gt;</text>
</a>
</g>
</g>
<!-- common_dealerzone&#45;&gt;common_zone -->
<g id="edge1" class="edge">
<title>common_dealerzone:w&#45;&gt;common_zone:e</title>
<path fill="none" stroke="#000000" d="M221.4127,-417.7348C203.1035,-413.5449 195.4242,-400.5573 181,-381.2 145.8125,-333.9783 198.8901,-255.2 140,-255.2"/>
<polygon fill="#000000" stroke="#000000" points="228.0401,-418.4004 235.6402,-422.782 232.02,-418.8002 236,-419.2 236,-419.2 236,-419.2 232.02,-418.8002 236.3598,-415.618 228.0401,-418.4004 228.0401,-418.4004"/>
<ellipse fill="none" stroke="#000000" cx="224.8561" cy="-418.0806" rx="3.2" ry="3.2"/>
</g>
<!-- common_zonearea -->
<g id="node3" class="node">
<title>common_zonearea</title>
<g id="a_node3"><a xlink:href="../../tables/common_zonearea.html" xlink:title="common_zonearea" target="_top">
<polygon fill="#ffffff" stroke="transparent" points="189,-38.2 189,-370.2 441,-370.2 441,-38.2 189,-38.2"/>
<polygon fill="#f5f5f5" stroke="transparent" points="191,-345.2 191,-368.2 439,-368.2 439,-345.2 191,-345.2"/>
<polygon fill="none" stroke="#000000" points="191,-345.2 191,-368.2 439,-368.2 439,-345.2 191,-345.2"/>
<text text-anchor="start" x="196" y="-353.8" font-family="Helvetica,sans-Serif" font-weight="bold" font-size="11.00" fill="#000000">common_zonearea</text>
<text text-anchor="start" x="404.0437" y="-353.3" font-family="Helvetica,sans-Serif" font-size="11.00" fill="#000000">[table]</text>
<polygon fill="none" stroke="#000000" points="191,-323.2 191,-345.2 328,-345.2 328,-323.2 191,-323.2"/>
<image xlink:href="../../images/primaryKeys.png" width="11px" height="12px" preserveAspectRatio="xMinYMin meet" x="196" y="-340.2"/>
<text text-anchor="start" x="211" y="-330.3" font-family="Helvetica,sans-Serif" font-size="11.00" fill="#000000">ID</text>
<polygon fill="none" stroke="#000000" points="328,-323.2 328,-345.2 439,-345.2 439,-323.2 328,-323.2"/>
<text text-anchor="start" x="331" y="-330.9" font-family="Helvetica,sans-Serif" font-size="11.00" fill="#000000">int[10]</text>
<polygon fill="none" stroke="#000000" points="191,-301.2 191,-323.2 328,-323.2 328,-301.2 191,-301.2"/>
<text text-anchor="start" x="211" y="-308.3" font-family="Helvetica,sans-Serif" font-size="11.00" fill="#000000">Active</text>
<polygon fill="none" stroke="#000000" points="328,-301.2 328,-323.2 439,-323.2 439,-301.2 328,-301.2"/>
<text text-anchor="start" x="331" y="-308.9" font-family="Helvetica,sans-Serif" font-size="11.00" fill="#000000">bit[1]</text>
<polygon fill="none" stroke="#000000" points="191,-279.2 191,-301.2 328,-301.2 328,-279.2 191,-279.2"/>
<text text-anchor="start" x="211" y="-286.3" font-family="Helvetica,sans-Serif" font-size="11.00" fill="#000000">User</text>
<polygon fill="none" stroke="#000000" points="328,-279.2 328,-301.2 439,-301.2 439,-279.2 328,-279.2"/>
<text text-anchor="start" x="330.6115" y="-286.9" font-family="Helvetica,sans-Serif" font-size="11.00" fill="#000000">longtext[2147483647]</text>
<polygon fill="none" stroke="#000000" points="191,-257.2 191,-279.2 328,-279.2 328,-257.2 191,-257.2"/>
<text text-anchor="start" x="211" y="-264.3" font-family="Helvetica,sans-Serif" font-size="11.00" fill="#000000">CD</text>
<polygon fill="none" stroke="#000000" points="328,-257.2 328,-279.2 439,-279.2 439,-257.2 328,-257.2"/>
<text text-anchor="start" x="331" y="-264.9" font-family="Helvetica,sans-Serif" font-size="11.00" fill="#000000">datetime[26]</text>
<polygon fill="none" stroke="#000000" points="191,-235.2 191,-257.2 328,-257.2 328,-235.2 191,-235.2"/>
<text text-anchor="start" x="211" y="-242.3" font-family="Helvetica,sans-Serif" font-size="11.00" fill="#000000">UD</text>
<polygon fill="none" stroke="#000000" points="328,-235.2 328,-257.2 439,-257.2 439,-235.2 328,-235.2"/>
<text text-anchor="start" x="331" y="-242.9" font-family="Helvetica,sans-Serif" font-size="11.00" fill="#000000">datetime[26]</text>
<polygon fill="none" stroke="#000000" points="191,-213.2 191,-235.2 328,-235.2 328,-213.2 191,-213.2"/>
<text text-anchor="start" x="211" y="-220.3" font-family="Helvetica,sans-Serif" font-size="11.00" fill="#000000">Remarks</text>
<polygon fill="none" stroke="#000000" points="328,-213.2 328,-235.2 439,-235.2 439,-213.2 328,-213.2"/>
<text text-anchor="start" x="330.6115" y="-220.9" font-family="Helvetica,sans-Serif" font-size="11.00" fill="#000000">longtext[2147483647]</text>
<polygon fill="none" stroke="#000000" points="191,-191.2 191,-213.2 328,-213.2 328,-191.2 191,-191.2"/>
<text text-anchor="start" x="211" y="-198.3" font-family="Helvetica,sans-Serif" font-size="11.00" fill="#000000">UserID</text>
<polygon fill="none" stroke="#000000" points="328,-191.2 328,-213.2 439,-213.2 439,-191.2 328,-191.2"/>
<text text-anchor="start" x="331" y="-198.9" font-family="Helvetica,sans-Serif" font-size="11.00" fill="#000000">int[10]</text>
<polygon fill="none" stroke="#000000" points="191,-169.2 191,-191.2 328,-191.2 328,-169.2 191,-169.2"/>
<text text-anchor="start" x="211" y="-176.3" font-family="Helvetica,sans-Serif" font-size="11.00" fill="#000000">Common_ZoneFK</text>
<polygon fill="none" stroke="#000000" points="328,-169.2 328,-191.2 439,-191.2 439,-169.2 328,-169.2"/>
<text text-anchor="start" x="331" y="-176.9" font-family="Helvetica,sans-Serif" font-size="11.00" fill="#000000">int[10]</text>
<polygon fill="none" stroke="#000000" points="191,-147.2 191,-169.2 328,-169.2 328,-147.2 191,-147.2"/>
<text text-anchor="start" x="211" y="-154.3" font-family="Helvetica,sans-Serif" font-size="11.00" fill="#000000">Common_DistrictFK</text>
<polygon fill="none" stroke="#000000" points="328,-147.2 328,-169.2 439,-169.2 439,-147.2 328,-147.2"/>
<text text-anchor="start" x="331" y="-154.9" font-family="Helvetica,sans-Serif" font-size="11.00" fill="#000000">int[10]</text>
<polygon fill="none" stroke="#000000" points="191,-125.2 191,-147.2 328,-147.2 328,-125.2 191,-125.2"/>
<text text-anchor="start" x="211" y="-132.3" font-family="Helvetica,sans-Serif" font-size="11.00" fill="#000000">IsSalesArea</text>
<polygon fill="none" stroke="#000000" points="328,-125.2 328,-147.2 439,-147.2 439,-125.2 328,-125.2"/>
<text text-anchor="start" x="331" y="-132.9" font-family="Helvetica,sans-Serif" font-size="11.00" fill="#000000">bit[1]</text>
<polygon fill="none" stroke="#000000" points="191,-103.2 191,-125.2 328,-125.2 328,-103.2 191,-103.2"/>
<text text-anchor="start" x="211" y="-110.3" font-family="Helvetica,sans-Serif" font-size="11.00" fill="#000000">Name</text>
<polygon fill="none" stroke="#000000" points="328,-103.2 328,-125.2 439,-125.2 439,-103.2 328,-103.2"/>
<text text-anchor="start" x="330.6115" y="-110.9" font-family="Helvetica,sans-Serif" font-size="11.00" fill="#000000">longtext[2147483647]</text>
<polygon fill="none" stroke="#000000" points="191,-81.2 191,-103.2 328,-103.2 328,-81.2 191,-81.2"/>
<image xlink:href="../../images/foreignKeys.png" width="11px" height="12px" preserveAspectRatio="xMinYMin meet" x="196" y="-98.2"/>
<text text-anchor="start" x="211" y="-88.3" font-family="Helvetica,sans-Serif" font-size="11.00" fill="#000000">Common_ZoneID</text>
<polygon fill="none" stroke="#000000" points="328,-81.2 328,-103.2 439,-103.2 439,-81.2 328,-81.2"/>
<text text-anchor="start" x="331" y="-88.9" font-family="Helvetica,sans-Serif" font-size="11.00" fill="#000000">int[10]</text>
<polygon fill="none" stroke="#000000" points="191,-59.2 191,-81.2 328,-81.2 328,-59.2 191,-59.2"/>
<text text-anchor="start" x="211" y="-66.3" font-family="Helvetica,sans-Serif" font-size="11.00" fill="#000000">Common_AreaFK</text>
<polygon fill="none" stroke="#000000" points="328,-59.2 328,-81.2 439,-81.2 439,-59.2 328,-59.2"/>
<text text-anchor="start" x="331" y="-66.9" font-family="Helvetica,sans-Serif" font-size="11.00" fill="#000000">int[10]</text>
<polygon fill="#ffffff" stroke="transparent" points="191,-40.2 191,-59.2 248,-59.2 248,-40.2 191,-40.2"/>
<polygon fill="none" stroke="#000000" points="191,-40.2 191,-59.2 248,-59.2 248,-40.2 191,-40.2"/>
<text text-anchor="start" x="194" y="-46.3" font-family="Helvetica,sans-Serif" font-size="11.00" fill="#000000">&lt; 1</text>
<polygon fill="#ffffff" stroke="transparent" points="248,-40.2 248,-59.2 328,-59.2 328,-40.2 248,-40.2"/>
<polygon fill="none" stroke="#000000" points="248,-40.2 248,-59.2 328,-59.2 328,-40.2 248,-40.2"/>
<text text-anchor="start" x="286.4956" y="-46.3" font-family="Helvetica,sans-Serif" font-size="11.00" fill="#000000">40 rows</text>
<polygon fill="#ffffff" stroke="transparent" points="328,-40.2 328,-59.2 439,-59.2 439,-40.2 328,-40.2"/>
<polygon fill="none" stroke="#000000" points="328,-40.2 328,-59.2 439,-59.2 439,-40.2 328,-40.2"/>
<text text-anchor="start" x="420.4053" y="-46.3" font-family="Helvetica,sans-Serif" font-size="11.00" fill="#000000">0 &gt;</text>
<polygon fill="none" stroke="#000000" stroke-width="2" points="190,-39.2 190,-369.2 440,-369.2 440,-39.2 190,-39.2"/>
</a>
</g>
</g>
<!-- common_zonearea&#45;&gt;common_zone -->
<g id="edge2" class="edge">
<title>common_zonearea:w&#45;&gt;common_zone:e</title>
<path fill="none" stroke="#000000" stroke-dasharray="5,2" d="M176.5738,-94.8932C129.4255,-116.0863 210.1256,-255.2 140,-255.2"/>
<polygon fill="#000000" stroke="#000000" points="183.1359,-93.6682 191.6607,-95.7389 187.0679,-92.9341 191,-92.2 191,-92.2 191,-92.2 187.0679,-92.9341 190.3393,-88.6611 183.1359,-93.6682 183.1359,-93.6682"/>
<ellipse fill="none" stroke="#000000" cx="179.9902" cy="-94.2554" rx="3.2" ry="3.2"/>
</g>
</g>
</svg>
