<?xml version="1.0" encoding="UTF-8" standalone="no"?>
<!DOCTYPE svg PUBLIC "-//W3C//DTD SVG 1.1//EN"
 "http://www.w3.org/Graphics/SVG/1.1/DTD/svg11.dtd">
<!-- Generated by graphviz version 2.40.1 (20161225.0304)
 -->
<!-- Title: twoDegreesRelationshipsDiagram Pages: 1 -->
<svg width="478pt" height="399pt"
 viewBox="0.00 0.00 478.00 398.70" xmlns="http://www.w3.org/2000/svg" xmlns:xlink="http://www.w3.org/1999/xlink">
<g id="graph0" class="graph" transform="scale(1 1) rotate(0) translate(4 394.7)">
<title>twoDegreesRelationshipsDiagram</title>
<polygon fill="#ffffff" stroke="transparent" points="-4,4 -4,-394.7 474,-394.7 474,4 -4,4"/>
<text text-anchor="middle" x="72.4936" y="-7.3" font-family="Helvetica,sans-Serif" font-size="11.00" fill="#000000">Generated by SchemaSpy</text>
<!-- common_dealerzone -->
<g id="node1" class="node">
<title>common_dealerzone</title>
<g id="a_node1"><a xlink:href="../../tables/common_dealerzone.html" xlink:title="common_dealerzone" target="_top">
<polygon fill="#ffffff" stroke="transparent" points="304,-250.7 304,-377.7 462,-377.7 462,-250.7 304,-250.7"/>
<polygon fill="#f5f5f5" stroke="transparent" points="304,-354.2 304,-377.2 462,-377.2 462,-354.2 304,-354.2"/>
<polygon fill="none" stroke="#000000" points="304,-354.2 304,-377.2 462,-377.2 462,-354.2 304,-354.2"/>
<text text-anchor="start" x="309" y="-362.8" font-family="Helvetica,sans-Serif" font-weight="bold" font-size="11.00" fill="#000000">common_dealerzone</text>
<text text-anchor="start" x="427.5219" y="-362.3" font-family="Helvetica,sans-Serif" font-size="11.00" fill="#000000">[table]</text>
<polygon fill="none" stroke="#000000" points="304,-332.2 304,-354.2 462,-354.2 462,-332.2 304,-332.2"/>
<image xlink:href="../../images/primaryKeys.png" width="11px" height="12px" preserveAspectRatio="xMinYMin meet" x="309" y="-349.2"/>
<text text-anchor="start" x="333" y="-339.3" font-family="Helvetica,sans-Serif" font-size="11.00" fill="#000000">ID</text>
<polygon fill="#ffffff" stroke="transparent" points="304,-310.2 304,-332.2 462,-332.2 462,-310.2 304,-310.2"/>
<polygon fill="none" stroke="#000000" points="304,-310.2 304,-332.2 462,-332.2 462,-310.2 304,-310.2"/>
<image xlink:href="../../images/foreignKeys.png" width="11px" height="12px" preserveAspectRatio="xMinYMin meet" x="309" y="-327.2"/>
<text text-anchor="start" x="333" y="-317.3" font-family="Helvetica,sans-Serif" font-size="11.00" fill="#000000">Common_DealerFK</text>
<polygon fill="#ffffff" stroke="transparent" points="304,-288.2 304,-310.2 462,-310.2 462,-288.2 304,-288.2"/>
<polygon fill="none" stroke="#000000" points="304,-288.2 304,-310.2 462,-310.2 462,-288.2 304,-288.2"/>
<image xlink:href="../../images/foreignKeys.png" width="11px" height="12px" preserveAspectRatio="xMinYMin meet" x="309" y="-305.2"/>
<text text-anchor="start" x="333" y="-295.3" font-family="Helvetica,sans-Serif" font-size="11.00" fill="#000000">Common_ZoneFK</text>
<polygon fill="none" stroke="#000000" points="304,-269.2 304,-288.2 462,-288.2 462,-269.2 304,-269.2"/>
<text text-anchor="start" x="307" y="-275.3" font-family="Helvetica,sans-Serif" font-size="11.00" fill="#000000">...</text>
<polygon fill="#ffffff" stroke="transparent" points="304,-250.2 304,-269.2 365,-269.2 365,-250.2 304,-250.2"/>
<polygon fill="none" stroke="#000000" points="304,-250.2 304,-269.2 365,-269.2 365,-250.2 304,-250.2"/>
<text text-anchor="start" x="307" y="-256.3" font-family="Helvetica,sans-Serif" font-size="11.00" fill="#000000">&lt; 2</text>
<polygon fill="#ffffff" stroke="transparent" points="365,-250.2 365,-269.2 429,-269.2 429,-250.2 365,-250.2"/>
<polygon fill="none" stroke="#000000" points="365,-250.2 365,-269.2 429,-269.2 429,-250.2 365,-250.2"/>
<text text-anchor="start" x="387.4956" y="-256.3" font-family="Helvetica,sans-Serif" font-size="11.00" fill="#000000">52 rows</text>
<polygon fill="#ffffff" stroke="transparent" points="429,-250.2 429,-269.2 462,-269.2 462,-250.2 429,-250.2"/>
<polygon fill="none" stroke="#000000" points="429,-250.2 429,-269.2 462,-269.2 462,-250.2 429,-250.2"/>
<text text-anchor="start" x="452.8862" y="-256.3" font-family="Helvetica,sans-Serif" font-size="11.00" fill="#000000"> &#160;</text>
</a>
</g>
</g>
<!-- common_dealer -->
<g id="node2" class="node">
<title>common_dealer</title>
<g id="a_node2"><a xlink:href="../../tables/common_dealer.html" xlink:title="common_dealer" target="_top">
<polygon fill="#ffffff" stroke="transparent" points="66,-325.7 66,-386.7 197,-386.7 197,-325.7 66,-325.7"/>
<polygon fill="#f5f5f5" stroke="transparent" points="66.5,-363.2 66.5,-386.2 197.5,-386.2 197.5,-363.2 66.5,-363.2"/>
<polygon fill="none" stroke="#000000" points="66.5,-363.2 66.5,-386.2 197.5,-386.2 197.5,-363.2 66.5,-363.2"/>
<text text-anchor="start" x="71.5" y="-371.8" font-family="Helvetica,sans-Serif" font-weight="bold" font-size="11.00" fill="#000000">common_dealer</text>
<text text-anchor="start" x="163.0219" y="-371.3" font-family="Helvetica,sans-Serif" font-size="11.00" fill="#000000">[table]</text>
<polygon fill="none" stroke="#000000" points="66.5,-344.2 66.5,-363.2 197.5,-363.2 197.5,-344.2 66.5,-344.2"/>
<text text-anchor="start" x="69.5" y="-350.3" font-family="Helvetica,sans-Serif" font-size="11.00" fill="#000000">...</text>
<polygon fill="#ffffff" stroke="transparent" points="66.5,-325.2 66.5,-344.2 105.5,-344.2 105.5,-325.2 66.5,-325.2"/>
<polygon fill="none" stroke="#000000" points="66.5,-325.2 66.5,-344.2 105.5,-344.2 105.5,-325.2 66.5,-325.2"/>
<text text-anchor="start" x="69.5" y="-331.3" font-family="Helvetica,sans-Serif" font-size="11.00" fill="#000000"> &#160;</text>
<polygon fill="#ffffff" stroke="transparent" points="105.5,-325.2 105.5,-344.2 162.5,-344.2 162.5,-325.2 105.5,-325.2"/>
<polygon fill="none" stroke="#000000" points="105.5,-325.2 105.5,-344.2 162.5,-344.2 162.5,-325.2 105.5,-325.2"/>
<text text-anchor="start" x="120.9956" y="-331.3" font-family="Helvetica,sans-Serif" font-size="11.00" fill="#000000">62 rows</text>
<polygon fill="#ffffff" stroke="transparent" points="162.5,-325.2 162.5,-344.2 197.5,-344.2 197.5,-325.2 162.5,-325.2"/>
<polygon fill="none" stroke="#000000" points="162.5,-325.2 162.5,-344.2 197.5,-344.2 197.5,-325.2 162.5,-325.2"/>
<text text-anchor="start" x="178.9053" y="-331.3" font-family="Helvetica,sans-Serif" font-size="11.00" fill="#000000">4 &gt;</text>
</a>
</g>
</g>
<!-- common_dealerzone&#45;&gt;common_dealer -->
<g id="edge1" class="edge">
<title>common_dealerzone:w&#45;&gt;common_dealer:e</title>
<path fill="none" stroke="#000000" d="M289.1726,-322.2647C252.4025,-327.8172 241.5181,-353.2 197.5,-353.2"/>
<polygon fill="#000000" stroke="#000000" points="296.0205,-321.773 304.2579,-324.7908 300.0103,-321.4865 304,-321.2 304,-321.2 304,-321.2 300.0103,-321.4865 303.7421,-317.6092 296.0205,-321.773 296.0205,-321.773"/>
<ellipse fill="none" stroke="#000000" cx="292.8288" cy="-322.0022" rx="3.2" ry="3.2"/>
</g>
<!-- common_zone -->
<g id="node3" class="node">
<title>common_zone</title>
<g id="a_node3"><a xlink:href="../../tables/common_zone.html" xlink:title="common_zone" target="_top">
<polygon fill="#ffffff" stroke="transparent" points="8,-38.2 8,-304.2 255,-304.2 255,-38.2 8,-38.2"/>
<polygon fill="#f5f5f5" stroke="transparent" points="10.5,-279.2 10.5,-302.2 253.5,-302.2 253.5,-279.2 10.5,-279.2"/>
<polygon fill="none" stroke="#000000" points="10.5,-279.2 10.5,-302.2 253.5,-302.2 253.5,-279.2 10.5,-279.2"/>
<text text-anchor="start" x="15.5" y="-287.8" font-family="Helvetica,sans-Serif" font-weight="bold" font-size="11.00" fill="#000000">common_zone</text>
<text text-anchor="start" x="218.5437" y="-287.3" font-family="Helvetica,sans-Serif" font-size="11.00" fill="#000000">[table]</text>
<polygon fill="none" stroke="#000000" points="10.5,-257.2 10.5,-279.2 142.5,-279.2 142.5,-257.2 10.5,-257.2"/>
<image xlink:href="../../images/primaryKeys.png" width="11px" height="12px" preserveAspectRatio="xMinYMin meet" x="15.5" y="-274.2"/>
<text text-anchor="start" x="30.5" y="-264.3" font-family="Helvetica,sans-Serif" font-size="11.00" fill="#000000">ID</text>
<polygon fill="none" stroke="#000000" points="142.5,-257.2 142.5,-279.2 253.5,-279.2 253.5,-257.2 142.5,-257.2"/>
<text text-anchor="start" x="145.5" y="-264.9" font-family="Helvetica,sans-Serif" font-size="11.00" fill="#000000">int[10]</text>
<polygon fill="none" stroke="#000000" points="10.5,-235.2 10.5,-257.2 142.5,-257.2 142.5,-235.2 10.5,-235.2"/>
<text text-anchor="start" x="30.5" y="-242.3" font-family="Helvetica,sans-Serif" font-size="11.00" fill="#000000">Active</text>
<polygon fill="none" stroke="#000000" points="142.5,-235.2 142.5,-257.2 253.5,-257.2 253.5,-235.2 142.5,-235.2"/>
<text text-anchor="start" x="145.5" y="-242.9" font-family="Helvetica,sans-Serif" font-size="11.00" fill="#000000">bit[1]</text>
<polygon fill="none" stroke="#000000" points="10.5,-213.2 10.5,-235.2 142.5,-235.2 142.5,-213.2 10.5,-213.2"/>
<text text-anchor="start" x="30.5" y="-220.3" font-family="Helvetica,sans-Serif" font-size="11.00" fill="#000000">User</text>
<polygon fill="none" stroke="#000000" points="142.5,-213.2 142.5,-235.2 253.5,-235.2 253.5,-213.2 142.5,-213.2"/>
<text text-anchor="start" x="145.1115" y="-220.9" font-family="Helvetica,sans-Serif" font-size="11.00" fill="#000000">longtext[2147483647]</text>
<polygon fill="none" stroke="#000000" points="10.5,-191.2 10.5,-213.2 142.5,-213.2 142.5,-191.2 10.5,-191.2"/>
<text text-anchor="start" x="30.5" y="-198.3" font-family="Helvetica,sans-Serif" font-size="11.00" fill="#000000">CD</text>
<polygon fill="none" stroke="#000000" points="142.5,-191.2 142.5,-213.2 253.5,-213.2 253.5,-191.2 142.5,-191.2"/>
<text text-anchor="start" x="145.5" y="-198.9" font-family="Helvetica,sans-Serif" font-size="11.00" fill="#000000">datetime[26]</text>
<polygon fill="none" stroke="#000000" points="10.5,-169.2 10.5,-191.2 142.5,-191.2 142.5,-169.2 10.5,-169.2"/>
<text text-anchor="start" x="30.5" y="-176.3" font-family="Helvetica,sans-Serif" font-size="11.00" fill="#000000">UD</text>
<polygon fill="none" stroke="#000000" points="142.5,-169.2 142.5,-191.2 253.5,-191.2 253.5,-169.2 142.5,-169.2"/>
<text text-anchor="start" x="145.5" y="-176.9" font-family="Helvetica,sans-Serif" font-size="11.00" fill="#000000">datetime[26]</text>
<polygon fill="none" stroke="#000000" points="10.5,-147.2 10.5,-169.2 142.5,-169.2 142.5,-147.2 10.5,-147.2"/>
<text text-anchor="start" x="30.5" y="-154.3" font-family="Helvetica,sans-Serif" font-size="11.00" fill="#000000">Remarks</text>
<polygon fill="none" stroke="#000000" points="142.5,-147.2 142.5,-169.2 253.5,-169.2 253.5,-147.2 142.5,-147.2"/>
<text text-anchor="start" x="145.1115" y="-154.9" font-family="Helvetica,sans-Serif" font-size="11.00" fill="#000000">longtext[2147483647]</text>
<polygon fill="none" stroke="#000000" points="10.5,-125.2 10.5,-147.2 142.5,-147.2 142.5,-125.2 10.5,-125.2"/>
<text text-anchor="start" x="30.5" y="-132.3" font-family="Helvetica,sans-Serif" font-size="11.00" fill="#000000">UserID</text>
<polygon fill="none" stroke="#000000" points="142.5,-125.2 142.5,-147.2 253.5,-147.2 253.5,-125.2 142.5,-125.2"/>
<text text-anchor="start" x="145.5" y="-132.9" font-family="Helvetica,sans-Serif" font-size="11.00" fill="#000000">int[10]</text>
<polygon fill="none" stroke="#000000" points="10.5,-103.2 10.5,-125.2 142.5,-125.2 142.5,-103.2 10.5,-103.2"/>
<text text-anchor="start" x="30.5" y="-110.3" font-family="Helvetica,sans-Serif" font-size="11.00" fill="#000000">Name</text>
<polygon fill="none" stroke="#000000" points="142.5,-103.2 142.5,-125.2 253.5,-125.2 253.5,-103.2 142.5,-103.2"/>
<text text-anchor="start" x="145.1115" y="-110.9" font-family="Helvetica,sans-Serif" font-size="11.00" fill="#000000">longtext[2147483647]</text>
<polygon fill="none" stroke="#000000" points="10.5,-81.2 10.5,-103.2 142.5,-103.2 142.5,-81.2 10.5,-81.2"/>
<text text-anchor="start" x="30.5" y="-88.3" font-family="Helvetica,sans-Serif" font-size="11.00" fill="#000000">Common_DealerFK</text>
<polygon fill="none" stroke="#000000" points="142.5,-81.2 142.5,-103.2 253.5,-103.2 253.5,-81.2 142.5,-81.2"/>
<text text-anchor="start" x="145.5" y="-88.9" font-family="Helvetica,sans-Serif" font-size="11.00" fill="#000000">int[10]</text>
<polygon fill="none" stroke="#000000" points="10.5,-59.2 10.5,-81.2 142.5,-81.2 142.5,-59.2 10.5,-59.2"/>
<text text-anchor="start" x="30.5" y="-66.3" font-family="Helvetica,sans-Serif" font-size="11.00" fill="#000000">IsSalesZone</text>
<polygon fill="none" stroke="#000000" points="142.5,-59.2 142.5,-81.2 253.5,-81.2 253.5,-59.2 142.5,-59.2"/>
<text text-anchor="start" x="145.5" y="-66.9" font-family="Helvetica,sans-Serif" font-size="11.00" fill="#000000">bit[1]</text>
<polygon fill="#ffffff" stroke="transparent" points="10.5,-40.2 10.5,-59.2 64.5,-59.2 64.5,-40.2 10.5,-40.2"/>
<polygon fill="none" stroke="#000000" points="10.5,-40.2 10.5,-59.2 64.5,-59.2 64.5,-40.2 10.5,-40.2"/>
<text text-anchor="start" x="13.5" y="-46.3" font-family="Helvetica,sans-Serif" font-size="11.00" fill="#000000">&lt; 0</text>
<polygon fill="#ffffff" stroke="transparent" points="64.5,-40.2 64.5,-59.2 142.5,-59.2 142.5,-40.2 64.5,-40.2"/>
<polygon fill="none" stroke="#000000" points="64.5,-40.2 64.5,-59.2 142.5,-59.2 142.5,-40.2 64.5,-40.2"/>
<text text-anchor="start" x="100.9956" y="-46.3" font-family="Helvetica,sans-Serif" font-size="11.00" fill="#000000">11 rows</text>
<polygon fill="#ffffff" stroke="transparent" points="142.5,-40.2 142.5,-59.2 253.5,-59.2 253.5,-40.2 142.5,-40.2"/>
<polygon fill="none" stroke="#000000" points="142.5,-40.2 142.5,-59.2 253.5,-59.2 253.5,-40.2 142.5,-40.2"/>
<text text-anchor="start" x="234.9053" y="-46.3" font-family="Helvetica,sans-Serif" font-size="11.00" fill="#000000">1 &gt;</text>
<polygon fill="none" stroke="#000000" stroke-width="2" points="9,-39.2 9,-303.2 254,-303.2 254,-39.2 9,-39.2"/>
</a>
</g>
</g>
<!-- common_dealerzone&#45;&gt;common_zone -->
<g id="edge2" class="edge">
<title>common_dealerzone:w&#45;&gt;common_zone:e</title>
<path fill="none" stroke="#000000" d="M289.8267,-295.1473C277.1849,-286.7444 273.8692,-268.2 253.5,-268.2"/>
<polygon fill="#000000" stroke="#000000" points="296.3083,-297.0006 303.0103,-302.6613 300.1541,-298.1003 304,-299.2 304,-299.2 304,-299.2 300.1541,-298.1003 304.9897,-295.7387 296.3083,-297.0006 296.3083,-297.0006"/>
<ellipse fill="none" stroke="#000000" cx="293.2316" cy="-296.1208" rx="3.2" ry="3.2"/>
</g>
</g>
</svg>
