<?xml version="1.0" encoding="UTF-8" standalone="no"?>
<!DOCTYPE svg PUBLIC "-//W3C//DTD SVG 1.1//EN"
 "http://www.w3.org/Graphics/SVG/1.1/DTD/svg11.dtd">
<!-- Generated by graphviz version 2.40.1 (20161225.0304)
 -->
<!-- Title: twoDegreesRelationshipsDiagram Pages: 1 -->
<svg width="524pt" height="557pt"
 viewBox="0.00 0.00 524.00 557.20" xmlns="http://www.w3.org/2000/svg" xmlns:xlink="http://www.w3.org/1999/xlink">
<g id="graph0" class="graph" transform="scale(1 1) rotate(0) translate(4 553.2)">
<title>twoDegreesRelationshipsDiagram</title>
<polygon fill="#ffffff" stroke="transparent" points="-4,4 -4,-553.2 520,-553.2 520,4 -4,4"/>
<text text-anchor="middle" x="72.4936" y="-7.3" font-family="Helvetica,sans-Serif" font-size="11.00" fill="#000000">Generated by SchemaSpy</text>
<!-- common_contact -->
<g id="node1" class="node">
<title>common_contact</title>
<g id="a_node1"><a xlink:href="../../tables/common_contact.html" xlink:title="common_contact" target="_top">
<polygon fill="#ffffff" stroke="transparent" points="311.5,-484.2 311.5,-545.2 449.5,-545.2 449.5,-484.2 311.5,-484.2"/>
<polygon fill="#f5f5f5" stroke="transparent" points="311.5,-521.7 311.5,-544.7 449.5,-544.7 449.5,-521.7 311.5,-521.7"/>
<polygon fill="none" stroke="#000000" points="311.5,-521.7 311.5,-544.7 449.5,-544.7 449.5,-521.7 311.5,-521.7"/>
<text text-anchor="start" x="316.5" y="-530.3" font-family="Helvetica,sans-Serif" font-weight="bold" font-size="11.00" fill="#000000">common_contact</text>
<text text-anchor="start" x="415.0219" y="-529.8" font-family="Helvetica,sans-Serif" font-size="11.00" fill="#000000">[table]</text>
<polygon fill="none" stroke="#000000" points="311.5,-502.7 311.5,-521.7 449.5,-521.7 449.5,-502.7 311.5,-502.7"/>
<text text-anchor="start" x="314.5" y="-508.8" font-family="Helvetica,sans-Serif" font-size="11.00" fill="#000000">...</text>
<polygon fill="#ffffff" stroke="transparent" points="311.5,-483.7 311.5,-502.7 365.5,-502.7 365.5,-483.7 311.5,-483.7"/>
<polygon fill="none" stroke="#000000" points="311.5,-483.7 311.5,-502.7 365.5,-502.7 365.5,-483.7 311.5,-483.7"/>
<text text-anchor="start" x="314.5" y="-489.8" font-family="Helvetica,sans-Serif" font-size="11.00" fill="#000000">&lt; 2</text>
<polygon fill="#ffffff" stroke="transparent" points="365.5,-483.7 365.5,-502.7 420.5,-502.7 420.5,-483.7 365.5,-483.7"/>
<polygon fill="none" stroke="#000000" points="365.5,-483.7 365.5,-502.7 420.5,-502.7 420.5,-483.7 365.5,-483.7"/>
<text text-anchor="start" x="385.1105" y="-489.8" font-family="Helvetica,sans-Serif" font-size="11.00" fill="#000000">0 rows</text>
<polygon fill="#ffffff" stroke="transparent" points="420.5,-483.7 420.5,-502.7 449.5,-502.7 449.5,-483.7 420.5,-483.7"/>
<polygon fill="none" stroke="#000000" points="420.5,-483.7 420.5,-502.7 449.5,-502.7 449.5,-483.7 420.5,-483.7"/>
<text text-anchor="start" x="440.3862" y="-489.8" font-family="Helvetica,sans-Serif" font-size="11.00" fill="#000000"> &#160;</text>
</a>
</g>
</g>
<!-- common_dealer -->
<g id="node2" class="node">
<title>common_dealer</title>
<g id="a_node2"><a xlink:href="../../tables/common_dealer.html" xlink:title="common_dealer" target="_top">
<polygon fill="#ffffff" stroke="transparent" points="8,-340.2 8,-423.2 204,-423.2 204,-340.2 8,-340.2"/>
<polygon fill="#f5f5f5" stroke="transparent" points="8,-399.7 8,-422.7 204,-422.7 204,-399.7 8,-399.7"/>
<polygon fill="none" stroke="#000000" points="8,-399.7 8,-422.7 204,-422.7 204,-399.7 8,-399.7"/>
<text text-anchor="start" x="13" y="-408.3" font-family="Helvetica,sans-Serif" font-weight="bold" font-size="11.00" fill="#000000">common_dealer</text>
<text text-anchor="start" x="169.0437" y="-407.8" font-family="Helvetica,sans-Serif" font-size="11.00" fill="#000000">[table]</text>
<polygon fill="none" stroke="#000000" points="8,-377.7 8,-399.7 204,-399.7 204,-377.7 8,-377.7"/>
<image xlink:href="../../images/primaryKeys.png" width="11px" height="12px" preserveAspectRatio="xMinYMin meet" x="13" y="-394.7"/>
<text text-anchor="start" x="28" y="-384.8" font-family="Helvetica,sans-Serif" font-size="11.00" fill="#000000">ID</text>
<polygon fill="none" stroke="#000000" points="8,-358.7 8,-377.7 204,-377.7 204,-358.7 8,-358.7"/>
<text text-anchor="start" x="11" y="-364.8" font-family="Helvetica,sans-Serif" font-size="11.00" fill="#000000">...</text>
<polygon fill="#ffffff" stroke="transparent" points="8,-339.7 8,-358.7 79,-358.7 79,-339.7 8,-339.7"/>
<polygon fill="none" stroke="#000000" points="8,-339.7 8,-358.7 79,-358.7 79,-339.7 8,-339.7"/>
<text text-anchor="start" x="11" y="-345.8" font-family="Helvetica,sans-Serif" font-size="11.00" fill="#000000"> &#160;</text>
<polygon fill="#ffffff" stroke="transparent" points="79,-339.7 79,-358.7 153,-358.7 153,-339.7 79,-339.7"/>
<polygon fill="none" stroke="#000000" points="79,-339.7 79,-358.7 153,-358.7 153,-339.7 79,-339.7"/>
<text text-anchor="start" x="111.4956" y="-345.8" font-family="Helvetica,sans-Serif" font-size="11.00" fill="#000000">62 rows</text>
<polygon fill="#ffffff" stroke="transparent" points="153,-339.7 153,-358.7 204,-358.7 204,-339.7 153,-339.7"/>
<polygon fill="none" stroke="#000000" points="153,-339.7 153,-358.7 204,-358.7 204,-339.7 153,-339.7"/>
<text text-anchor="start" x="185.4053" y="-345.8" font-family="Helvetica,sans-Serif" font-size="11.00" fill="#000000">4 &gt;</text>
</a>
</g>
</g>
<!-- common_contact&#45;&gt;common_dealer -->
<g id="edge1" class="edge">
<title>common_contact:w&#45;&gt;common_dealer:e</title>
<path fill="none" stroke="#000000" d="M296.8935,-510.6969C274.1404,-507.1998 264.4986,-494.6076 245,-473.7 216.3935,-443.0263 245.9429,-388.7 204,-388.7"/>
<polygon fill="#000000" stroke="#000000" points="303.5188,-511.1519 311.2533,-515.2915 307.5094,-511.4259 311.5,-511.7 311.5,-511.7 311.5,-511.7 307.5094,-511.4259 311.7467,-508.1085 303.5188,-511.1519 303.5188,-511.1519"/>
<ellipse fill="none" stroke="#000000" cx="300.3263" cy="-510.9326" rx="3.2" ry="3.2"/>
</g>
<!-- common_dealerproduct -->
<g id="node3" class="node">
<title>common_dealerproduct</title>
<g id="a_node3"><a xlink:href="../../tables/common_dealerproduct.html" xlink:title="common_dealerproduct" target="_top">
<polygon fill="#ffffff" stroke="transparent" points="293,-402.2 293,-463.2 468,-463.2 468,-402.2 293,-402.2"/>
<polygon fill="#f5f5f5" stroke="transparent" points="293.5,-439.7 293.5,-462.7 468.5,-462.7 468.5,-439.7 293.5,-439.7"/>
<polygon fill="none" stroke="#000000" points="293.5,-439.7 293.5,-462.7 468.5,-462.7 468.5,-439.7 293.5,-439.7"/>
<text text-anchor="start" x="298.5" y="-448.3" font-family="Helvetica,sans-Serif" font-weight="bold" font-size="11.00" fill="#000000">common_dealerproduct</text>
<text text-anchor="start" x="434.0219" y="-447.8" font-family="Helvetica,sans-Serif" font-size="11.00" fill="#000000">[table]</text>
<polygon fill="none" stroke="#000000" points="293.5,-420.7 293.5,-439.7 468.5,-439.7 468.5,-420.7 293.5,-420.7"/>
<text text-anchor="start" x="296.5" y="-426.8" font-family="Helvetica,sans-Serif" font-size="11.00" fill="#000000">...</text>
<polygon fill="#ffffff" stroke="transparent" points="293.5,-401.7 293.5,-420.7 360.5,-420.7 360.5,-401.7 293.5,-401.7"/>
<polygon fill="none" stroke="#000000" points="293.5,-401.7 293.5,-420.7 360.5,-420.7 360.5,-401.7 293.5,-401.7"/>
<text text-anchor="start" x="296.5" y="-407.8" font-family="Helvetica,sans-Serif" font-size="11.00" fill="#000000">&lt; 2</text>
<polygon fill="#ffffff" stroke="transparent" points="360.5,-401.7 360.5,-420.7 433.5,-420.7 433.5,-401.7 360.5,-401.7"/>
<polygon fill="none" stroke="#000000" points="360.5,-401.7 360.5,-420.7 433.5,-420.7 433.5,-401.7 360.5,-401.7"/>
<text text-anchor="start" x="385.8807" y="-407.8" font-family="Helvetica,sans-Serif" font-size="11.00" fill="#000000">427 rows</text>
<polygon fill="#ffffff" stroke="transparent" points="433.5,-401.7 433.5,-420.7 468.5,-420.7 468.5,-401.7 433.5,-401.7"/>
<polygon fill="none" stroke="#000000" points="433.5,-401.7 433.5,-420.7 468.5,-420.7 468.5,-401.7 433.5,-401.7"/>
<text text-anchor="start" x="459.3862" y="-407.8" font-family="Helvetica,sans-Serif" font-size="11.00" fill="#000000"> &#160;</text>
</a>
</g>
</g>
<!-- common_dealerproduct&#45;&gt;common_dealer -->
<g id="edge2" class="edge">
<title>common_dealerproduct:w&#45;&gt;common_dealer:e</title>
<path fill="none" stroke="#000000" d="M278.887,-427.9383C248.596,-420.0906 242.2838,-388.7 204,-388.7"/>
<polygon fill="#000000" stroke="#000000" points="285.5575,-428.7424 293.0691,-433.2741 289.5288,-429.2212 293.5,-429.7 293.5,-429.7 293.5,-429.7 289.5288,-429.2212 293.9309,-426.1259 285.5575,-428.7424 285.5575,-428.7424"/>
<ellipse fill="none" stroke="#000000" cx="282.3805" cy="-428.3594" rx="3.2" ry="3.2"/>
</g>
<!-- common_dealerzone -->
<g id="node4" class="node">
<title>common_dealerzone</title>
<g id="a_node4"><a xlink:href="../../tables/common_dealerzone.html" xlink:title="common_dealerzone" target="_top">
<polygon fill="#ffffff" stroke="transparent" points="253,-54.7 253,-298.7 508,-298.7 508,-54.7 253,-54.7"/>
<polygon fill="#f5f5f5" stroke="transparent" points="255.5,-273.7 255.5,-296.7 506.5,-296.7 506.5,-273.7 255.5,-273.7"/>
<polygon fill="none" stroke="#000000" points="255.5,-273.7 255.5,-296.7 506.5,-296.7 506.5,-273.7 255.5,-273.7"/>
<text text-anchor="start" x="260.5" y="-282.3" font-family="Helvetica,sans-Serif" font-weight="bold" font-size="11.00" fill="#000000">common_dealerzone</text>
<text text-anchor="start" x="471.5437" y="-281.8" font-family="Helvetica,sans-Serif" font-size="11.00" fill="#000000">[table]</text>
<polygon fill="none" stroke="#000000" points="255.5,-251.7 255.5,-273.7 395.5,-273.7 395.5,-251.7 255.5,-251.7"/>
<image xlink:href="../../images/primaryKeys.png" width="11px" height="12px" preserveAspectRatio="xMinYMin meet" x="260.5" y="-268.7"/>
<text text-anchor="start" x="275.5" y="-258.8" font-family="Helvetica,sans-Serif" font-size="11.00" fill="#000000">ID</text>
<polygon fill="none" stroke="#000000" points="395.5,-251.7 395.5,-273.7 506.5,-273.7 506.5,-251.7 395.5,-251.7"/>
<text text-anchor="start" x="398.5" y="-259.4" font-family="Helvetica,sans-Serif" font-size="11.00" fill="#000000">int[10]</text>
<polygon fill="none" stroke="#000000" points="255.5,-229.7 255.5,-251.7 395.5,-251.7 395.5,-229.7 255.5,-229.7"/>
<text text-anchor="start" x="275.5" y="-236.8" font-family="Helvetica,sans-Serif" font-size="11.00" fill="#000000">Active</text>
<polygon fill="none" stroke="#000000" points="395.5,-229.7 395.5,-251.7 506.5,-251.7 506.5,-229.7 395.5,-229.7"/>
<text text-anchor="start" x="398.5" y="-237.4" font-family="Helvetica,sans-Serif" font-size="11.00" fill="#000000">bit[1]</text>
<polygon fill="none" stroke="#000000" points="255.5,-207.7 255.5,-229.7 395.5,-229.7 395.5,-207.7 255.5,-207.7"/>
<text text-anchor="start" x="275.5" y="-214.8" font-family="Helvetica,sans-Serif" font-size="11.00" fill="#000000">User</text>
<polygon fill="none" stroke="#000000" points="395.5,-207.7 395.5,-229.7 506.5,-229.7 506.5,-207.7 395.5,-207.7"/>
<text text-anchor="start" x="398.1115" y="-215.4" font-family="Helvetica,sans-Serif" font-size="11.00" fill="#000000">longtext[2147483647]</text>
<polygon fill="none" stroke="#000000" points="255.5,-185.7 255.5,-207.7 395.5,-207.7 395.5,-185.7 255.5,-185.7"/>
<text text-anchor="start" x="275.5" y="-192.8" font-family="Helvetica,sans-Serif" font-size="11.00" fill="#000000">CD</text>
<polygon fill="none" stroke="#000000" points="395.5,-185.7 395.5,-207.7 506.5,-207.7 506.5,-185.7 395.5,-185.7"/>
<text text-anchor="start" x="398.5" y="-193.4" font-family="Helvetica,sans-Serif" font-size="11.00" fill="#000000">datetime[26]</text>
<polygon fill="none" stroke="#000000" points="255.5,-163.7 255.5,-185.7 395.5,-185.7 395.5,-163.7 255.5,-163.7"/>
<text text-anchor="start" x="275.5" y="-170.8" font-family="Helvetica,sans-Serif" font-size="11.00" fill="#000000">UD</text>
<polygon fill="none" stroke="#000000" points="395.5,-163.7 395.5,-185.7 506.5,-185.7 506.5,-163.7 395.5,-163.7"/>
<text text-anchor="start" x="398.5" y="-171.4" font-family="Helvetica,sans-Serif" font-size="11.00" fill="#000000">datetime[26]</text>
<polygon fill="none" stroke="#000000" points="255.5,-141.7 255.5,-163.7 395.5,-163.7 395.5,-141.7 255.5,-141.7"/>
<text text-anchor="start" x="275.5" y="-148.8" font-family="Helvetica,sans-Serif" font-size="11.00" fill="#000000">Remarks</text>
<polygon fill="none" stroke="#000000" points="395.5,-141.7 395.5,-163.7 506.5,-163.7 506.5,-141.7 395.5,-141.7"/>
<text text-anchor="start" x="398.1115" y="-149.4" font-family="Helvetica,sans-Serif" font-size="11.00" fill="#000000">longtext[2147483647]</text>
<polygon fill="none" stroke="#000000" points="255.5,-119.7 255.5,-141.7 395.5,-141.7 395.5,-119.7 255.5,-119.7"/>
<text text-anchor="start" x="275.5" y="-126.8" font-family="Helvetica,sans-Serif" font-size="11.00" fill="#000000">UserID</text>
<polygon fill="none" stroke="#000000" points="395.5,-119.7 395.5,-141.7 506.5,-141.7 506.5,-119.7 395.5,-119.7"/>
<text text-anchor="start" x="398.5" y="-127.4" font-family="Helvetica,sans-Serif" font-size="11.00" fill="#000000">int[10]</text>
<polygon fill="#ffffff" stroke="transparent" points="255.5,-97.7 255.5,-119.7 395.5,-119.7 395.5,-97.7 255.5,-97.7"/>
<polygon fill="none" stroke="#000000" points="255.5,-97.7 255.5,-119.7 395.5,-119.7 395.5,-97.7 255.5,-97.7"/>
<image xlink:href="../../images/foreignKeys.png" width="11px" height="12px" preserveAspectRatio="xMinYMin meet" x="260.5" y="-114.7"/>
<text text-anchor="start" x="275.5" y="-104.8" font-family="Helvetica,sans-Serif" font-size="11.00" fill="#000000">Common_DealerFK</text>
<polygon fill="none" stroke="#000000" points="395.5,-97.7 395.5,-119.7 506.5,-119.7 506.5,-97.7 395.5,-97.7"/>
<text text-anchor="start" x="398.5" y="-105.4" font-family="Helvetica,sans-Serif" font-size="11.00" fill="#000000">int[10]</text>
<polygon fill="#ffffff" stroke="transparent" points="255.5,-75.7 255.5,-97.7 395.5,-97.7 395.5,-75.7 255.5,-75.7"/>
<polygon fill="none" stroke="#000000" points="255.5,-75.7 255.5,-97.7 395.5,-97.7 395.5,-75.7 255.5,-75.7"/>
<image xlink:href="../../images/foreignKeys.png" width="11px" height="12px" preserveAspectRatio="xMinYMin meet" x="260.5" y="-92.7"/>
<text text-anchor="start" x="275.5" y="-82.8" font-family="Helvetica,sans-Serif" font-size="11.00" fill="#000000">Common_ZoneFK</text>
<polygon fill="none" stroke="#000000" points="395.5,-75.7 395.5,-97.7 506.5,-97.7 506.5,-75.7 395.5,-75.7"/>
<text text-anchor="start" x="398.5" y="-83.4" font-family="Helvetica,sans-Serif" font-size="11.00" fill="#000000">int[10]</text>
<polygon fill="#ffffff" stroke="transparent" points="255.5,-56.7 255.5,-75.7 313.5,-75.7 313.5,-56.7 255.5,-56.7"/>
<polygon fill="none" stroke="#000000" points="255.5,-56.7 255.5,-75.7 313.5,-75.7 313.5,-56.7 255.5,-56.7"/>
<text text-anchor="start" x="258.5" y="-62.8" font-family="Helvetica,sans-Serif" font-size="11.00" fill="#000000">&lt; 2</text>
<polygon fill="#ffffff" stroke="transparent" points="313.5,-56.7 313.5,-75.7 395.5,-75.7 395.5,-56.7 313.5,-56.7"/>
<polygon fill="none" stroke="#000000" points="313.5,-56.7 313.5,-75.7 395.5,-75.7 395.5,-56.7 313.5,-56.7"/>
<text text-anchor="start" x="353.9956" y="-62.8" font-family="Helvetica,sans-Serif" font-size="11.00" fill="#000000">52 rows</text>
<polygon fill="#ffffff" stroke="transparent" points="395.5,-56.7 395.5,-75.7 506.5,-75.7 506.5,-56.7 395.5,-56.7"/>
<polygon fill="none" stroke="#000000" points="395.5,-56.7 395.5,-75.7 506.5,-75.7 506.5,-56.7 395.5,-56.7"/>
<text text-anchor="start" x="487.9053" y="-62.8" font-family="Helvetica,sans-Serif" font-size="11.00" fill="#000000">0 &gt;</text>
<polygon fill="none" stroke="#000000" stroke-width="2" points="254,-55.7 254,-297.7 507,-297.7 507,-55.7 254,-55.7"/>
</a>
</g>
</g>
<!-- common_dealerzone&#45;&gt;common_dealer -->
<g id="edge3" class="edge">
<title>common_dealerzone:w&#45;&gt;common_dealer:e</title>
<path fill="none" stroke="#000000" d="M242.0778,-114.5482C204.1088,-154.7571 261.829,-388.7 204,-388.7"/>
<polygon fill="#000000" stroke="#000000" points="248.1659,-111.8956 256.938,-112.0003 251.833,-110.2978 255.5,-108.7 255.5,-108.7 255.5,-108.7 251.833,-110.2978 254.062,-105.3997 248.1659,-111.8956 248.1659,-111.8956"/>
<ellipse fill="none" stroke="#000000" cx="245.2323" cy="-113.1738" rx="3.2" ry="3.2"/>
</g>
<!-- common_zone -->
<g id="node5" class="node">
<title>common_zone</title>
<g id="a_node5"><a xlink:href="../../tables/common_zone.html" xlink:title="common_zone" target="_top">
<polygon fill="#ffffff" stroke="transparent" points="40,-38.2 40,-121.2 172,-121.2 172,-38.2 40,-38.2"/>
<polygon fill="#f5f5f5" stroke="transparent" points="40,-97.7 40,-120.7 172,-120.7 172,-97.7 40,-97.7"/>
<polygon fill="none" stroke="#000000" points="40,-97.7 40,-120.7 172,-120.7 172,-97.7 40,-97.7"/>
<text text-anchor="start" x="45" y="-106.3" font-family="Helvetica,sans-Serif" font-weight="bold" font-size="11.00" fill="#000000">common_zone</text>
<text text-anchor="start" x="137.0437" y="-105.8" font-family="Helvetica,sans-Serif" font-size="11.00" fill="#000000">[table]</text>
<polygon fill="none" stroke="#000000" points="40,-75.7 40,-97.7 172,-97.7 172,-75.7 40,-75.7"/>
<image xlink:href="../../images/primaryKeys.png" width="11px" height="12px" preserveAspectRatio="xMinYMin meet" x="45" y="-92.7"/>
<text text-anchor="start" x="60" y="-82.8" font-family="Helvetica,sans-Serif" font-size="11.00" fill="#000000">ID</text>
<polygon fill="none" stroke="#000000" points="40,-56.7 40,-75.7 172,-75.7 172,-56.7 40,-56.7"/>
<text text-anchor="start" x="43" y="-62.8" font-family="Helvetica,sans-Serif" font-size="11.00" fill="#000000">...</text>
<polygon fill="#ffffff" stroke="transparent" points="40,-37.7 40,-56.7 79,-56.7 79,-37.7 40,-37.7"/>
<polygon fill="none" stroke="#000000" points="40,-37.7 40,-56.7 79,-56.7 79,-37.7 40,-37.7"/>
<text text-anchor="start" x="43" y="-43.8" font-family="Helvetica,sans-Serif" font-size="11.00" fill="#000000"> &#160;</text>
<polygon fill="#ffffff" stroke="transparent" points="79,-37.7 79,-56.7 137,-56.7 137,-37.7 79,-37.7"/>
<polygon fill="none" stroke="#000000" points="79,-37.7 79,-56.7 137,-56.7 137,-37.7 79,-37.7"/>
<text text-anchor="start" x="95.4956" y="-43.8" font-family="Helvetica,sans-Serif" font-size="11.00" fill="#000000">11 rows</text>
<polygon fill="#ffffff" stroke="transparent" points="137,-37.7 137,-56.7 172,-56.7 172,-37.7 137,-37.7"/>
<polygon fill="none" stroke="#000000" points="137,-37.7 137,-56.7 172,-56.7 172,-37.7 137,-37.7"/>
<text text-anchor="start" x="153.4053" y="-43.8" font-family="Helvetica,sans-Serif" font-size="11.00" fill="#000000">1 &gt;</text>
</a>
</g>
</g>
<!-- common_dealerzone&#45;&gt;common_zone -->
<g id="edge4" class="edge">
<title>common_dealerzone:w&#45;&gt;common_zone:e</title>
<path fill="none" stroke="#000000" d="M240.985,-86.7C215.1256,-86.7 203.7474,-86.7 172,-86.7"/>
<polygon fill="#000000" stroke="#000000" points="247.5,-86.7001 255.5,-90.3 251.5,-86.7 255.5,-86.7 255.5,-86.7 255.5,-86.7 251.5,-86.7 255.5,-83.1 247.5,-86.7001 247.5,-86.7001"/>
<ellipse fill="none" stroke="#000000" cx="244.3" cy="-86.7001" rx="3.2" ry="3.2"/>
</g>
<!-- order_sale -->
<g id="node6" class="node">
<title>order_sale</title>
<g id="a_node6"><a xlink:href="../../tables/order_sale.html" xlink:title="order_sale" target="_top">
<polygon fill="#ffffff" stroke="transparent" points="331,-320.2 331,-381.2 430,-381.2 430,-320.2 331,-320.2"/>
<polygon fill="#f5f5f5" stroke="transparent" points="331.5,-357.7 331.5,-380.7 430.5,-380.7 430.5,-357.7 331.5,-357.7"/>
<polygon fill="none" stroke="#000000" points="331.5,-357.7 331.5,-380.7 430.5,-380.7 430.5,-357.7 331.5,-357.7"/>
<text text-anchor="start" x="336.5" y="-366.3" font-family="Helvetica,sans-Serif" font-weight="bold" font-size="11.00" fill="#000000">order_sale</text>
<text text-anchor="start" x="396.0219" y="-365.8" font-family="Helvetica,sans-Serif" font-size="11.00" fill="#000000">[table]</text>
<polygon fill="none" stroke="#000000" points="331.5,-338.7 331.5,-357.7 430.5,-357.7 430.5,-338.7 331.5,-338.7"/>
<text text-anchor="start" x="334.5" y="-344.8" font-family="Helvetica,sans-Serif" font-size="11.00" fill="#000000">...</text>
<polygon fill="#ffffff" stroke="transparent" points="331.5,-319.7 331.5,-338.7 355.5,-338.7 355.5,-319.7 331.5,-319.7"/>
<polygon fill="none" stroke="#000000" points="331.5,-319.7 331.5,-338.7 355.5,-338.7 355.5,-319.7 331.5,-319.7"/>
<text text-anchor="start" x="334.5" y="-325.8" font-family="Helvetica,sans-Serif" font-size="11.00" fill="#000000">&lt; 2</text>
<polygon fill="#ffffff" stroke="transparent" points="355.5,-319.7 355.5,-338.7 407.5,-338.7 407.5,-319.7 355.5,-319.7"/>
<polygon fill="none" stroke="#000000" points="355.5,-319.7 355.5,-338.7 407.5,-338.7 407.5,-319.7 355.5,-319.7"/>
<text text-anchor="start" x="359.8807" y="-325.8" font-family="Helvetica,sans-Serif" font-size="11.00" fill="#000000">389 rows</text>
<polygon fill="#ffffff" stroke="transparent" points="407.5,-319.7 407.5,-338.7 430.5,-338.7 430.5,-319.7 407.5,-319.7"/>
<polygon fill="none" stroke="#000000" points="407.5,-319.7 407.5,-338.7 430.5,-338.7 430.5,-319.7 407.5,-319.7"/>
<text text-anchor="start" x="411.9053" y="-325.8" font-family="Helvetica,sans-Serif" font-size="11.00" fill="#000000">1 &gt;</text>
</a>
</g>
</g>
<!-- order_sale&#45;&gt;common_dealer -->
<g id="edge5" class="edge">
<title>order_sale:w&#45;&gt;common_dealer:e</title>
<path fill="none" stroke="#000000" d="M316.9193,-348.5945C270.0955,-354.5903 258.2928,-388.7 204,-388.7"/>
<polygon fill="#000000" stroke="#000000" points="323.515,-348.1899 331.7205,-351.2932 327.5075,-347.945 331.5,-347.7 331.5,-347.7 331.5,-347.7 327.5075,-347.945 331.2795,-344.1068 323.515,-348.1899 323.515,-348.1899"/>
<ellipse fill="none" stroke="#000000" cx="320.321" cy="-348.3859" rx="3.2" ry="3.2"/>
</g>
</g>
</svg>
