<?xml version="1.0" encoding="UTF-8" standalone="no"?>
<!DOCTYPE svg PUBLIC "-//W3C//DTD SVG 1.1//EN"
 "http://www.w3.org/Graphics/SVG/1.1/DTD/svg11.dtd">
<!-- Generated by graphviz version 2.40.1 (20161225.0304)
 -->
<!-- Title: twoDegreesRelationshipsDiagramImplied Pages: 1 -->
<svg width="737pt" height="535pt"
 viewBox="0.00 0.00 737.00 535.20" xmlns="http://www.w3.org/2000/svg" xmlns:xlink="http://www.w3.org/1999/xlink">
<g id="graph0" class="graph" transform="scale(1 1) rotate(0) translate(4 531.2)">
<title>twoDegreesRelationshipsDiagramImplied</title>
<polygon fill="#ffffff" stroke="transparent" points="-4,4 -4,-531.2 733,-531.2 733,4 -4,4"/>
<text text-anchor="middle" x="72.4936" y="-7.3" font-family="Helvetica,sans-Serif" font-size="11.00" fill="#000000">Generated by SchemaSpy</text>
<!-- common_dealerproduct -->
<g id="node1" class="node">
<title>common_dealerproduct</title>
<g id="a_node1"><a xlink:href="../../tables/common_dealerproduct.html" xlink:title="common_dealerproduct" target="_top">
<polygon fill="#ffffff" stroke="transparent" points="546,-462.2 546,-523.2 721,-523.2 721,-462.2 546,-462.2"/>
<polygon fill="#f5f5f5" stroke="transparent" points="546.5,-499.7 546.5,-522.7 721.5,-522.7 721.5,-499.7 546.5,-499.7"/>
<polygon fill="none" stroke="#000000" points="546.5,-499.7 546.5,-522.7 721.5,-522.7 721.5,-499.7 546.5,-499.7"/>
<text text-anchor="start" x="551.5" y="-508.3" font-family="Helvetica,sans-Serif" font-weight="bold" font-size="11.00" fill="#000000">common_dealerproduct</text>
<text text-anchor="start" x="687.0219" y="-507.8" font-family="Helvetica,sans-Serif" font-size="11.00" fill="#000000">[table]</text>
<polygon fill="none" stroke="#000000" points="546.5,-480.7 546.5,-499.7 721.5,-499.7 721.5,-480.7 546.5,-480.7"/>
<text text-anchor="start" x="549.5" y="-486.8" font-family="Helvetica,sans-Serif" font-size="11.00" fill="#000000">...</text>
<polygon fill="#ffffff" stroke="transparent" points="546.5,-461.7 546.5,-480.7 613.5,-480.7 613.5,-461.7 546.5,-461.7"/>
<polygon fill="none" stroke="#000000" points="546.5,-461.7 546.5,-480.7 613.5,-480.7 613.5,-461.7 546.5,-461.7"/>
<text text-anchor="start" x="549.5" y="-467.8" font-family="Helvetica,sans-Serif" font-size="11.00" fill="#000000">&lt; 2</text>
<polygon fill="#ffffff" stroke="transparent" points="613.5,-461.7 613.5,-480.7 686.5,-480.7 686.5,-461.7 613.5,-461.7"/>
<polygon fill="none" stroke="#000000" points="613.5,-461.7 613.5,-480.7 686.5,-480.7 686.5,-461.7 613.5,-461.7"/>
<text text-anchor="start" x="638.8807" y="-467.8" font-family="Helvetica,sans-Serif" font-size="11.00" fill="#000000">427 rows</text>
<polygon fill="#ffffff" stroke="transparent" points="686.5,-461.7 686.5,-480.7 721.5,-480.7 721.5,-461.7 686.5,-461.7"/>
<polygon fill="none" stroke="#000000" points="686.5,-461.7 686.5,-480.7 721.5,-480.7 721.5,-461.7 686.5,-461.7"/>
<text text-anchor="start" x="712.3862" y="-467.8" font-family="Helvetica,sans-Serif" font-size="11.00" fill="#000000"> &#160;</text>
</a>
</g>
</g>
<!-- common_product -->
<g id="node2" class="node">
<title>common_product</title>
<g id="a_node2"><a xlink:href="../../tables/common_product.html" xlink:title="common_product" target="_top">
<polygon fill="#ffffff" stroke="transparent" points="326,-192.2 326,-319.2 497,-319.2 497,-192.2 326,-192.2"/>
<polygon fill="#f5f5f5" stroke="transparent" points="326.5,-295.7 326.5,-318.7 497.5,-318.7 497.5,-295.7 326.5,-295.7"/>
<polygon fill="none" stroke="#000000" points="326.5,-295.7 326.5,-318.7 497.5,-318.7 497.5,-295.7 326.5,-295.7"/>
<text text-anchor="start" x="331.5" y="-304.3" font-family="Helvetica,sans-Serif" font-weight="bold" font-size="11.00" fill="#000000">common_product</text>
<text text-anchor="start" x="462.5437" y="-303.8" font-family="Helvetica,sans-Serif" font-size="11.00" fill="#000000">[table]</text>
<polygon fill="none" stroke="#000000" points="326.5,-273.7 326.5,-295.7 497.5,-295.7 497.5,-273.7 326.5,-273.7"/>
<image xlink:href="../../images/primaryKeys.png" width="11px" height="12px" preserveAspectRatio="xMinYMin meet" x="331.5" y="-290.7"/>
<text text-anchor="start" x="346.5" y="-280.8" font-family="Helvetica,sans-Serif" font-size="11.00" fill="#000000">ID</text>
<polygon fill="#ffffff" stroke="transparent" points="326.5,-251.7 326.5,-273.7 497.5,-273.7 497.5,-251.7 326.5,-251.7"/>
<polygon fill="none" stroke="#000000" points="326.5,-251.7 326.5,-273.7 497.5,-273.7 497.5,-251.7 326.5,-251.7"/>
<image xlink:href="../../images/foreignKeys.png" width="11px" height="12px" preserveAspectRatio="xMinYMin meet" x="331.5" y="-268.7"/>
<text text-anchor="start" x="346.5" y="-258.8" font-family="Helvetica,sans-Serif" font-size="11.00" fill="#000000">Common_ManufacturerFK</text>
<polygon fill="none" stroke="#000000" points="326.5,-229.7 326.5,-251.7 497.5,-251.7 497.5,-229.7 326.5,-229.7"/>
<image xlink:href="../../images/foreignKeys.png" width="11px" height="12px" preserveAspectRatio="xMinYMin meet" x="331.5" y="-246.7"/>
<text text-anchor="start" x="346.5" y="-236.8" font-family="Helvetica,sans-Serif" font-size="11.00" fill="#000000">Common_PackTypeID</text>
<polygon fill="none" stroke="#000000" points="326.5,-210.7 326.5,-229.7 497.5,-229.7 497.5,-210.7 326.5,-210.7"/>
<text text-anchor="start" x="329.5" y="-216.8" font-family="Helvetica,sans-Serif" font-size="11.00" fill="#000000">...</text>
<polygon fill="#ffffff" stroke="transparent" points="326.5,-191.7 326.5,-210.7 389.5,-210.7 389.5,-191.7 326.5,-191.7"/>
<polygon fill="none" stroke="#000000" points="326.5,-191.7 326.5,-210.7 389.5,-210.7 389.5,-191.7 326.5,-191.7"/>
<text text-anchor="start" x="329.5" y="-197.8" font-family="Helvetica,sans-Serif" font-size="11.00" fill="#000000">&lt; 2</text>
<polygon fill="#ffffff" stroke="transparent" points="389.5,-191.7 389.5,-210.7 454.5,-210.7 454.5,-191.7 389.5,-191.7"/>
<polygon fill="none" stroke="#000000" points="389.5,-191.7 389.5,-210.7 454.5,-210.7 454.5,-191.7 389.5,-191.7"/>
<text text-anchor="start" x="412.9956" y="-197.8" font-family="Helvetica,sans-Serif" font-size="11.00" fill="#000000">54 rows</text>
<polygon fill="#ffffff" stroke="transparent" points="454.5,-191.7 454.5,-210.7 497.5,-210.7 497.5,-191.7 454.5,-191.7"/>
<polygon fill="none" stroke="#000000" points="454.5,-191.7 454.5,-210.7 497.5,-210.7 497.5,-191.7 454.5,-191.7"/>
<text text-anchor="start" x="478.9053" y="-197.8" font-family="Helvetica,sans-Serif" font-size="11.00" fill="#000000">6 &gt;</text>
</a>
</g>
</g>
<!-- common_dealerproduct&#45;&gt;common_product -->
<g id="edge1" class="edge">
<title>common_dealerproduct:w&#45;&gt;common_product:e</title>
<path fill="none" stroke="#000000" d="M531.9332,-487.5365C468.7257,-465.6273 585.5058,-284.7 497.5,-284.7"/>
<polygon fill="#000000" stroke="#000000" points="538.5868,-488.5246 545.9711,-493.2609 542.5434,-489.1123 546.5,-489.7 546.5,-489.7 546.5,-489.7 542.5434,-489.1123 547.0289,-486.1391 538.5868,-488.5246 538.5868,-488.5246"/>
<ellipse fill="none" stroke="#000000" cx="535.4215" cy="-488.0545" rx="3.2" ry="3.2"/>
</g>
<!-- common_manufacturer -->
<g id="node3" class="node">
<title>common_manufacturer</title>
<g id="a_node3"><a xlink:href="../../tables/common_manufacturer.html" xlink:title="common_manufacturer" target="_top">
<polygon fill="#ffffff" stroke="transparent" points="8,-120.7 8,-474.7 277,-474.7 277,-120.7 8,-120.7"/>
<polygon fill="#f5f5f5" stroke="transparent" points="10.5,-449.7 10.5,-472.7 275.5,-472.7 275.5,-449.7 10.5,-449.7"/>
<polygon fill="none" stroke="#000000" points="10.5,-449.7 10.5,-472.7 275.5,-472.7 275.5,-449.7 10.5,-449.7"/>
<text text-anchor="start" x="15.5" y="-458.3" font-family="Helvetica,sans-Serif" font-weight="bold" font-size="11.00" fill="#000000">common_manufacturer</text>
<text text-anchor="start" x="240.5437" y="-457.8" font-family="Helvetica,sans-Serif" font-size="11.00" fill="#000000">[table]</text>
<polygon fill="none" stroke="#000000" points="10.5,-427.7 10.5,-449.7 164.5,-449.7 164.5,-427.7 10.5,-427.7"/>
<image xlink:href="../../images/primaryKeys.png" width="11px" height="12px" preserveAspectRatio="xMinYMin meet" x="15.5" y="-444.7"/>
<text text-anchor="start" x="30.5" y="-434.8" font-family="Helvetica,sans-Serif" font-size="11.00" fill="#000000">ID</text>
<polygon fill="none" stroke="#000000" points="164.5,-427.7 164.5,-449.7 275.5,-449.7 275.5,-427.7 164.5,-427.7"/>
<text text-anchor="start" x="167.5" y="-435.4" font-family="Helvetica,sans-Serif" font-size="11.00" fill="#000000">int[10]</text>
<polygon fill="none" stroke="#000000" points="10.5,-405.7 10.5,-427.7 164.5,-427.7 164.5,-405.7 10.5,-405.7"/>
<text text-anchor="start" x="30.5" y="-412.8" font-family="Helvetica,sans-Serif" font-size="11.00" fill="#000000">Active</text>
<polygon fill="none" stroke="#000000" points="164.5,-405.7 164.5,-427.7 275.5,-427.7 275.5,-405.7 164.5,-405.7"/>
<text text-anchor="start" x="167.5" y="-413.4" font-family="Helvetica,sans-Serif" font-size="11.00" fill="#000000">bit[1]</text>
<polygon fill="none" stroke="#000000" points="10.5,-383.7 10.5,-405.7 164.5,-405.7 164.5,-383.7 10.5,-383.7"/>
<text text-anchor="start" x="30.5" y="-390.8" font-family="Helvetica,sans-Serif" font-size="11.00" fill="#000000">User</text>
<polygon fill="none" stroke="#000000" points="164.5,-383.7 164.5,-405.7 275.5,-405.7 275.5,-383.7 164.5,-383.7"/>
<text text-anchor="start" x="167.1115" y="-391.4" font-family="Helvetica,sans-Serif" font-size="11.00" fill="#000000">longtext[2147483647]</text>
<polygon fill="none" stroke="#000000" points="10.5,-361.7 10.5,-383.7 164.5,-383.7 164.5,-361.7 10.5,-361.7"/>
<text text-anchor="start" x="30.5" y="-368.8" font-family="Helvetica,sans-Serif" font-size="11.00" fill="#000000">CD</text>
<polygon fill="none" stroke="#000000" points="164.5,-361.7 164.5,-383.7 275.5,-383.7 275.5,-361.7 164.5,-361.7"/>
<text text-anchor="start" x="167.5" y="-369.4" font-family="Helvetica,sans-Serif" font-size="11.00" fill="#000000">datetime[26]</text>
<polygon fill="none" stroke="#000000" points="10.5,-339.7 10.5,-361.7 164.5,-361.7 164.5,-339.7 10.5,-339.7"/>
<text text-anchor="start" x="30.5" y="-346.8" font-family="Helvetica,sans-Serif" font-size="11.00" fill="#000000">UD</text>
<polygon fill="none" stroke="#000000" points="164.5,-339.7 164.5,-361.7 275.5,-361.7 275.5,-339.7 164.5,-339.7"/>
<text text-anchor="start" x="167.5" y="-347.4" font-family="Helvetica,sans-Serif" font-size="11.00" fill="#000000">datetime[26]</text>
<polygon fill="none" stroke="#000000" points="10.5,-317.7 10.5,-339.7 164.5,-339.7 164.5,-317.7 10.5,-317.7"/>
<text text-anchor="start" x="30.5" y="-324.8" font-family="Helvetica,sans-Serif" font-size="11.00" fill="#000000">Remarks</text>
<polygon fill="none" stroke="#000000" points="164.5,-317.7 164.5,-339.7 275.5,-339.7 275.5,-317.7 164.5,-317.7"/>
<text text-anchor="start" x="167.1115" y="-325.4" font-family="Helvetica,sans-Serif" font-size="11.00" fill="#000000">longtext[2147483647]</text>
<polygon fill="none" stroke="#000000" points="10.5,-295.7 10.5,-317.7 164.5,-317.7 164.5,-295.7 10.5,-295.7"/>
<text text-anchor="start" x="30.5" y="-302.8" font-family="Helvetica,sans-Serif" font-size="11.00" fill="#000000">UserID</text>
<polygon fill="none" stroke="#000000" points="164.5,-295.7 164.5,-317.7 275.5,-317.7 275.5,-295.7 164.5,-295.7"/>
<text text-anchor="start" x="167.5" y="-303.4" font-family="Helvetica,sans-Serif" font-size="11.00" fill="#000000">int[10]</text>
<polygon fill="none" stroke="#000000" points="10.5,-273.7 10.5,-295.7 164.5,-295.7 164.5,-273.7 10.5,-273.7"/>
<text text-anchor="start" x="30.5" y="-280.8" font-family="Helvetica,sans-Serif" font-size="11.00" fill="#000000">Name</text>
<polygon fill="none" stroke="#000000" points="164.5,-273.7 164.5,-295.7 275.5,-295.7 275.5,-273.7 164.5,-273.7"/>
<text text-anchor="start" x="167.1115" y="-281.4" font-family="Helvetica,sans-Serif" font-size="11.00" fill="#000000">longtext[2147483647]</text>
<polygon fill="none" stroke="#000000" points="10.5,-251.7 10.5,-273.7 164.5,-273.7 164.5,-251.7 10.5,-251.7"/>
<text text-anchor="start" x="30.5" y="-258.8" font-family="Helvetica,sans-Serif" font-size="11.00" fill="#000000">Common_CountriesFK</text>
<polygon fill="none" stroke="#000000" points="164.5,-251.7 164.5,-273.7 275.5,-273.7 275.5,-251.7 164.5,-251.7"/>
<text text-anchor="start" x="167.5" y="-259.4" font-family="Helvetica,sans-Serif" font-size="11.00" fill="#000000">int[10]</text>
<polygon fill="none" stroke="#000000" points="10.5,-229.7 10.5,-251.7 164.5,-251.7 164.5,-229.7 10.5,-229.7"/>
<text text-anchor="start" x="30.5" y="-236.8" font-family="Helvetica,sans-Serif" font-size="11.00" fill="#000000">Common_DealerFK</text>
<polygon fill="none" stroke="#000000" points="164.5,-229.7 164.5,-251.7 275.5,-251.7 275.5,-229.7 164.5,-229.7"/>
<text text-anchor="start" x="167.5" y="-237.4" font-family="Helvetica,sans-Serif" font-size="11.00" fill="#000000">int[10]</text>
<polygon fill="none" stroke="#000000" points="10.5,-207.7 10.5,-229.7 164.5,-229.7 164.5,-207.7 10.5,-207.7"/>
<text text-anchor="start" x="30.5" y="-214.8" font-family="Helvetica,sans-Serif" font-size="11.00" fill="#000000">Contact</text>
<polygon fill="none" stroke="#000000" points="164.5,-207.7 164.5,-229.7 275.5,-229.7 275.5,-207.7 164.5,-207.7"/>
<text text-anchor="start" x="167.1115" y="-215.4" font-family="Helvetica,sans-Serif" font-size="11.00" fill="#000000">longtext[2147483647]</text>
<polygon fill="none" stroke="#000000" points="10.5,-185.7 10.5,-207.7 164.5,-207.7 164.5,-185.7 10.5,-185.7"/>
<text text-anchor="start" x="30.5" y="-192.8" font-family="Helvetica,sans-Serif" font-size="11.00" fill="#000000">Email</text>
<polygon fill="none" stroke="#000000" points="164.5,-185.7 164.5,-207.7 275.5,-207.7 275.5,-185.7 164.5,-185.7"/>
<text text-anchor="start" x="167.1115" y="-193.4" font-family="Helvetica,sans-Serif" font-size="11.00" fill="#000000">longtext[2147483647]</text>
<polygon fill="none" stroke="#000000" points="10.5,-163.7 10.5,-185.7 164.5,-185.7 164.5,-163.7 10.5,-163.7"/>
<text text-anchor="start" x="30.5" y="-170.8" font-family="Helvetica,sans-Serif" font-size="11.00" fill="#000000">Address</text>
<polygon fill="none" stroke="#000000" points="164.5,-163.7 164.5,-185.7 275.5,-185.7 275.5,-163.7 164.5,-163.7"/>
<text text-anchor="start" x="167.1115" y="-171.4" font-family="Helvetica,sans-Serif" font-size="11.00" fill="#000000">longtext[2147483647]</text>
<polygon fill="none" stroke="#000000" points="10.5,-141.7 10.5,-163.7 164.5,-163.7 164.5,-141.7 10.5,-141.7"/>
<text text-anchor="start" x="30.5" y="-148.8" font-family="Helvetica,sans-Serif" font-size="11.00" fill="#000000">IsLock</text>
<polygon fill="none" stroke="#000000" points="164.5,-141.7 164.5,-163.7 275.5,-163.7 275.5,-141.7 164.5,-141.7"/>
<text text-anchor="start" x="167.5" y="-149.4" font-family="Helvetica,sans-Serif" font-size="11.00" fill="#000000">bit[1]</text>
<polygon fill="#ffffff" stroke="transparent" points="10.5,-122.7 10.5,-141.7 75.5,-141.7 75.5,-122.7 10.5,-122.7"/>
<polygon fill="none" stroke="#000000" points="10.5,-122.7 10.5,-141.7 75.5,-141.7 75.5,-122.7 10.5,-122.7"/>
<text text-anchor="start" x="13.5" y="-128.8" font-family="Helvetica,sans-Serif" font-size="11.00" fill="#000000">&lt; 0</text>
<polygon fill="#ffffff" stroke="transparent" points="75.5,-122.7 75.5,-141.7 164.5,-141.7 164.5,-122.7 75.5,-122.7"/>
<polygon fill="none" stroke="#000000" points="75.5,-122.7 75.5,-141.7 164.5,-141.7 164.5,-122.7 75.5,-122.7"/>
<text text-anchor="start" x="122.9956" y="-128.8" font-family="Helvetica,sans-Serif" font-size="11.00" fill="#000000">33 rows</text>
<polygon fill="#ffffff" stroke="transparent" points="164.5,-122.7 164.5,-141.7 275.5,-141.7 275.5,-122.7 164.5,-122.7"/>
<polygon fill="none" stroke="#000000" points="164.5,-122.7 164.5,-141.7 275.5,-141.7 275.5,-122.7 164.5,-122.7"/>
<text text-anchor="start" x="256.9053" y="-128.8" font-family="Helvetica,sans-Serif" font-size="11.00" fill="#000000">1 &gt;</text>
<polygon fill="none" stroke="#000000" stroke-width="2" points="9,-121.7 9,-473.7 276,-473.7 276,-121.7 9,-121.7"/>
</a>
</g>
</g>
<!-- common_product&#45;&gt;common_manufacturer -->
<g id="edge2" class="edge">
<title>common_product:w&#45;&gt;common_manufacturer:e</title>
<path fill="none" stroke="#000000" d="M312.0541,-265.188C259.8373,-286.5799 351.2139,-438.7 275.5,-438.7"/>
<polygon fill="#000000" stroke="#000000" points="318.6161,-264.0579 327.111,-266.2478 322.558,-263.3789 326.5,-262.7 326.5,-262.7 326.5,-262.7 322.558,-263.3789 325.889,-259.1522 318.6161,-264.0579 318.6161,-264.0579"/>
<ellipse fill="none" stroke="#000000" cx="315.4625" cy="-264.601" rx="3.2" ry="3.2"/>
</g>
<!-- common_packtype -->
<g id="node4" class="node">
<title>common_packtype</title>
<g id="a_node4"><a xlink:href="../../tables/common_packtype.html" xlink:title="common_packtype" target="_top">
<polygon fill="#ffffff" stroke="transparent" points="69,-38.2 69,-99.2 216,-99.2 216,-38.2 69,-38.2"/>
<polygon fill="#f5f5f5" stroke="transparent" points="69.5,-75.7 69.5,-98.7 216.5,-98.7 216.5,-75.7 69.5,-75.7"/>
<polygon fill="none" stroke="#000000" points="69.5,-75.7 69.5,-98.7 216.5,-98.7 216.5,-75.7 69.5,-75.7"/>
<text text-anchor="start" x="74.5" y="-84.3" font-family="Helvetica,sans-Serif" font-weight="bold" font-size="11.00" fill="#000000">common_packtype</text>
<text text-anchor="start" x="182.0219" y="-83.8" font-family="Helvetica,sans-Serif" font-size="11.00" fill="#000000">[table]</text>
<polygon fill="none" stroke="#000000" points="69.5,-56.7 69.5,-75.7 216.5,-75.7 216.5,-56.7 69.5,-56.7"/>
<text text-anchor="start" x="72.5" y="-62.8" font-family="Helvetica,sans-Serif" font-size="11.00" fill="#000000">...</text>
<polygon fill="#ffffff" stroke="transparent" points="69.5,-37.7 69.5,-56.7 116.5,-56.7 116.5,-37.7 69.5,-37.7"/>
<polygon fill="none" stroke="#000000" points="69.5,-37.7 69.5,-56.7 116.5,-56.7 116.5,-37.7 69.5,-37.7"/>
<text text-anchor="start" x="72.5" y="-43.8" font-family="Helvetica,sans-Serif" font-size="11.00" fill="#000000"> &#160;</text>
<polygon fill="#ffffff" stroke="transparent" points="116.5,-37.7 116.5,-56.7 177.5,-56.7 177.5,-37.7 116.5,-37.7"/>
<polygon fill="none" stroke="#000000" points="116.5,-37.7 116.5,-56.7 177.5,-56.7 177.5,-37.7 116.5,-37.7"/>
<text text-anchor="start" x="135.9956" y="-43.8" font-family="Helvetica,sans-Serif" font-size="11.00" fill="#000000">26 rows</text>
<polygon fill="#ffffff" stroke="transparent" points="177.5,-37.7 177.5,-56.7 216.5,-56.7 216.5,-37.7 177.5,-37.7"/>
<polygon fill="none" stroke="#000000" points="177.5,-37.7 177.5,-56.7 216.5,-56.7 216.5,-37.7 177.5,-37.7"/>
<text text-anchor="start" x="197.9053" y="-43.8" font-family="Helvetica,sans-Serif" font-size="11.00" fill="#000000">1 &gt;</text>
</a>
</g>
</g>
<!-- common_product&#45;&gt;common_packtype -->
<g id="edge3" class="edge">
<title>common_product:w&#45;&gt;common_packtype:e</title>
<path fill="none" stroke="#000000" stroke-dasharray="5,2" d="M311.7796,-238.4481C275.6047,-224.9105 318.4967,-153.4613 285,-109.7 263.0067,-80.9671 252.684,-65.7 216.5,-65.7"/>
<polygon fill="#000000" stroke="#000000" points="318.592,-239.4902 325.9556,-244.2586 322.546,-240.0951 326.5,-240.7 326.5,-240.7 326.5,-240.7 322.546,-240.0951 327.0444,-237.1414 318.592,-239.4902 318.592,-239.4902"/>
<ellipse fill="none" stroke="#000000" cx="315.4288" cy="-239.0063" rx="3.2" ry="3.2"/>
</g>
<!-- order_bookingitem -->
<g id="node5" class="node">
<title>order_bookingitem</title>
<g id="a_node5"><a xlink:href="../../tables/order_bookingitem.html" xlink:title="order_bookingitem" target="_top">
<polygon fill="#ffffff" stroke="transparent" points="560,-380.2 560,-441.2 707,-441.2 707,-380.2 560,-380.2"/>
<polygon fill="#f5f5f5" stroke="transparent" points="560.5,-417.7 560.5,-440.7 707.5,-440.7 707.5,-417.7 560.5,-417.7"/>
<polygon fill="none" stroke="#000000" points="560.5,-417.7 560.5,-440.7 707.5,-440.7 707.5,-417.7 560.5,-417.7"/>
<text text-anchor="start" x="565.5" y="-426.3" font-family="Helvetica,sans-Serif" font-weight="bold" font-size="11.00" fill="#000000">order_bookingitem</text>
<text text-anchor="start" x="673.0219" y="-425.8" font-family="Helvetica,sans-Serif" font-size="11.00" fill="#000000">[table]</text>
<polygon fill="none" stroke="#000000" points="560.5,-398.7 560.5,-417.7 707.5,-417.7 707.5,-398.7 560.5,-398.7"/>
<text text-anchor="start" x="563.5" y="-404.8" font-family="Helvetica,sans-Serif" font-size="11.00" fill="#000000">...</text>
<polygon fill="#ffffff" stroke="transparent" points="560.5,-379.7 560.5,-398.7 616.5,-398.7 616.5,-379.7 560.5,-379.7"/>
<polygon fill="none" stroke="#000000" points="560.5,-379.7 560.5,-398.7 616.5,-398.7 616.5,-379.7 560.5,-379.7"/>
<text text-anchor="start" x="563.5" y="-385.8" font-family="Helvetica,sans-Serif" font-size="11.00" fill="#000000">&lt; 2</text>
<polygon fill="#ffffff" stroke="transparent" points="616.5,-379.7 616.5,-398.7 677.5,-398.7 677.5,-379.7 616.5,-379.7"/>
<polygon fill="none" stroke="#000000" points="616.5,-379.7 616.5,-398.7 677.5,-398.7 677.5,-379.7 616.5,-379.7"/>
<text text-anchor="start" x="635.9956" y="-385.8" font-family="Helvetica,sans-Serif" font-size="11.00" fill="#000000">62 rows</text>
<polygon fill="#ffffff" stroke="transparent" points="677.5,-379.7 677.5,-398.7 707.5,-398.7 707.5,-379.7 677.5,-379.7"/>
<polygon fill="none" stroke="#000000" points="677.5,-379.7 677.5,-398.7 707.5,-398.7 707.5,-379.7 677.5,-379.7"/>
<text text-anchor="start" x="698.3862" y="-385.8" font-family="Helvetica,sans-Serif" font-size="11.00" fill="#000000"> &#160;</text>
</a>
</g>
</g>
<!-- order_bookingitem&#45;&gt;common_product -->
<g id="edge4" class="edge">
<title>order_bookingitem:w&#45;&gt;common_product:e</title>
<path fill="none" stroke="#000000" d="M546.223,-404.6595C509.2341,-385.7186 553.1621,-284.7 497.5,-284.7"/>
<polygon fill="#000000" stroke="#000000" points="552.6755,-406.0336 559.7501,-411.221 556.5877,-406.8668 560.5,-407.7 560.5,-407.7 560.5,-407.7 556.5877,-406.8668 561.2499,-404.179 552.6755,-406.0336 552.6755,-406.0336"/>
<ellipse fill="none" stroke="#000000" cx="549.5457" cy="-405.3671" rx="3.2" ry="3.2"/>
</g>
<!-- order_inventory -->
<g id="node6" class="node">
<title>order_inventory</title>
<g id="a_node6"><a xlink:href="../../tables/order_inventory.html" xlink:title="order_inventory" target="_top">
<polygon fill="#ffffff" stroke="transparent" points="568.5,-298.2 568.5,-359.2 698.5,-359.2 698.5,-298.2 568.5,-298.2"/>
<polygon fill="#f5f5f5" stroke="transparent" points="568.5,-335.7 568.5,-358.7 698.5,-358.7 698.5,-335.7 568.5,-335.7"/>
<polygon fill="none" stroke="#000000" points="568.5,-335.7 568.5,-358.7 698.5,-358.7 698.5,-335.7 568.5,-335.7"/>
<text text-anchor="start" x="573.5" y="-344.3" font-family="Helvetica,sans-Serif" font-weight="bold" font-size="11.00" fill="#000000">order_inventory</text>
<text text-anchor="start" x="664.0219" y="-343.8" font-family="Helvetica,sans-Serif" font-size="11.00" fill="#000000">[table]</text>
<polygon fill="none" stroke="#000000" points="568.5,-316.7 568.5,-335.7 698.5,-335.7 698.5,-316.7 568.5,-316.7"/>
<text text-anchor="start" x="571.5" y="-322.8" font-family="Helvetica,sans-Serif" font-size="11.00" fill="#000000">...</text>
<polygon fill="#ffffff" stroke="transparent" points="568.5,-297.7 568.5,-316.7 612.5,-316.7 612.5,-297.7 568.5,-297.7"/>
<polygon fill="none" stroke="#000000" points="568.5,-297.7 568.5,-316.7 612.5,-316.7 612.5,-297.7 568.5,-297.7"/>
<text text-anchor="start" x="571.5" y="-303.8" font-family="Helvetica,sans-Serif" font-size="11.00" fill="#000000">&lt; 1</text>
<polygon fill="#ffffff" stroke="transparent" points="612.5,-297.7 612.5,-316.7 674.5,-316.7 674.5,-297.7 612.5,-297.7"/>
<polygon fill="none" stroke="#000000" points="612.5,-297.7 612.5,-316.7 674.5,-316.7 674.5,-297.7 612.5,-297.7"/>
<text text-anchor="start" x="626.8807" y="-303.8" font-family="Helvetica,sans-Serif" font-size="11.00" fill="#000000">136 rows</text>
<polygon fill="#ffffff" stroke="transparent" points="674.5,-297.7 674.5,-316.7 698.5,-316.7 698.5,-297.7 674.5,-297.7"/>
<polygon fill="none" stroke="#000000" points="674.5,-297.7 674.5,-316.7 698.5,-316.7 698.5,-297.7 674.5,-297.7"/>
<text text-anchor="start" x="689.3862" y="-303.8" font-family="Helvetica,sans-Serif" font-size="11.00" fill="#000000"> &#160;</text>
</a>
</g>
</g>
<!-- order_inventory&#45;&gt;common_product -->
<g id="edge5" class="edge">
<title>order_inventory:w&#45;&gt;common_product:e</title>
<path fill="none" stroke="#000000" d="M554.2431,-323.1353C531.7439,-314.1594 528.3878,-284.7 497.5,-284.7"/>
<polygon fill="#000000" stroke="#000000" points="560.6264,-324.2835 567.8626,-329.2431 564.5632,-324.9918 568.5,-325.7 568.5,-325.7 568.5,-325.7 564.5632,-324.9918 569.1374,-322.1569 560.6264,-324.2835 560.6264,-324.2835"/>
<ellipse fill="none" stroke="#000000" cx="557.4769" cy="-323.7169" rx="3.2" ry="3.2"/>
</g>
<!-- order_itemserialno -->
<g id="node7" class="node">
<title>order_itemserialno</title>
<g id="a_node7"><a xlink:href="../../tables/order_itemserialno.html" xlink:title="order_itemserialno" target="_top">
<polygon fill="#ffffff" stroke="transparent" points="560,-216.2 560,-277.2 707,-277.2 707,-216.2 560,-216.2"/>
<polygon fill="#f5f5f5" stroke="transparent" points="560.5,-253.7 560.5,-276.7 707.5,-276.7 707.5,-253.7 560.5,-253.7"/>
<polygon fill="none" stroke="#000000" points="560.5,-253.7 560.5,-276.7 707.5,-276.7 707.5,-253.7 560.5,-253.7"/>
<text text-anchor="start" x="565.5" y="-262.3" font-family="Helvetica,sans-Serif" font-weight="bold" font-size="11.00" fill="#000000">order_itemserialno</text>
<text text-anchor="start" x="673.0219" y="-261.8" font-family="Helvetica,sans-Serif" font-size="11.00" fill="#000000">[table]</text>
<polygon fill="none" stroke="#000000" points="560.5,-234.7 560.5,-253.7 707.5,-253.7 707.5,-234.7 560.5,-234.7"/>
<text text-anchor="start" x="563.5" y="-240.8" font-family="Helvetica,sans-Serif" font-size="11.00" fill="#000000">...</text>
<polygon fill="#ffffff" stroke="transparent" points="560.5,-215.7 560.5,-234.7 601.5,-234.7 601.5,-215.7 560.5,-215.7"/>
<polygon fill="none" stroke="#000000" points="560.5,-215.7 560.5,-234.7 601.5,-234.7 601.5,-215.7 560.5,-215.7"/>
<text text-anchor="start" x="563.5" y="-221.8" font-family="Helvetica,sans-Serif" font-size="11.00" fill="#000000">&lt; 2</text>
<polygon fill="#ffffff" stroke="transparent" points="601.5,-215.7 601.5,-234.7 676.5,-234.7 676.5,-215.7 601.5,-215.7"/>
<polygon fill="none" stroke="#000000" points="601.5,-215.7 601.5,-234.7 676.5,-234.7 676.5,-215.7 601.5,-215.7"/>
<text text-anchor="start" x="613.594" y="-221.8" font-family="Helvetica,sans-Serif" font-size="11.00" fill="#000000">19,002 rows</text>
<polygon fill="#ffffff" stroke="transparent" points="676.5,-215.7 676.5,-234.7 707.5,-234.7 707.5,-215.7 676.5,-215.7"/>
<polygon fill="none" stroke="#000000" points="676.5,-215.7 676.5,-234.7 707.5,-234.7 707.5,-215.7 676.5,-215.7"/>
<text text-anchor="start" x="688.9053" y="-221.8" font-family="Helvetica,sans-Serif" font-size="11.00" fill="#000000">1 &gt;</text>
</a>
</g>
</g>
<!-- order_itemserialno&#45;&gt;common_product -->
<g id="edge6" class="edge">
<title>order_itemserialno:w&#45;&gt;common_product:e</title>
<path fill="none" stroke="#000000" d="M546.1951,-246.9172C527.3044,-256.5826 525.1654,-284.7 497.5,-284.7"/>
<polygon fill="#000000" stroke="#000000" points="552.695,-245.4554 561.2899,-247.2123 556.5975,-244.5777 560.5,-243.7 560.5,-243.7 560.5,-243.7 556.5975,-244.5777 559.7101,-240.1877 552.695,-245.4554 552.695,-245.4554"/>
<ellipse fill="none" stroke="#000000" cx="549.5729" cy="-246.1576" rx="3.2" ry="3.2"/>
</g>
<!-- order_receiveitem -->
<g id="node8" class="node">
<title>order_receiveitem</title>
<g id="a_node8"><a xlink:href="../../tables/order_receiveitem.html" xlink:title="order_receiveitem" target="_top">
<polygon fill="#ffffff" stroke="transparent" points="562.5,-134.2 562.5,-195.2 704.5,-195.2 704.5,-134.2 562.5,-134.2"/>
<polygon fill="#f5f5f5" stroke="transparent" points="562.5,-171.7 562.5,-194.7 704.5,-194.7 704.5,-171.7 562.5,-171.7"/>
<polygon fill="none" stroke="#000000" points="562.5,-171.7 562.5,-194.7 704.5,-194.7 704.5,-171.7 562.5,-171.7"/>
<text text-anchor="start" x="567.5" y="-180.3" font-family="Helvetica,sans-Serif" font-weight="bold" font-size="11.00" fill="#000000">order_receiveitem</text>
<text text-anchor="start" x="670.0219" y="-179.8" font-family="Helvetica,sans-Serif" font-size="11.00" fill="#000000">[table]</text>
<polygon fill="none" stroke="#000000" points="562.5,-152.7 562.5,-171.7 704.5,-171.7 704.5,-152.7 562.5,-152.7"/>
<text text-anchor="start" x="565.5" y="-158.8" font-family="Helvetica,sans-Serif" font-size="11.00" fill="#000000">...</text>
<polygon fill="#ffffff" stroke="transparent" points="562.5,-133.7 562.5,-152.7 605.5,-152.7 605.5,-133.7 562.5,-133.7"/>
<polygon fill="none" stroke="#000000" points="562.5,-133.7 562.5,-152.7 605.5,-152.7 605.5,-133.7 562.5,-133.7"/>
<text text-anchor="start" x="565.5" y="-139.8" font-family="Helvetica,sans-Serif" font-size="11.00" fill="#000000">&lt; 2</text>
<polygon fill="#ffffff" stroke="transparent" points="605.5,-133.7 605.5,-152.7 681.5,-152.7 681.5,-133.7 605.5,-133.7"/>
<polygon fill="none" stroke="#000000" points="605.5,-133.7 605.5,-152.7 681.5,-152.7 681.5,-133.7 605.5,-133.7"/>
<text text-anchor="start" x="618.594" y="-139.8" font-family="Helvetica,sans-Serif" font-size="11.00" fill="#000000">18,922 rows</text>
<polygon fill="#ffffff" stroke="transparent" points="681.5,-133.7 681.5,-152.7 704.5,-152.7 704.5,-133.7 681.5,-133.7"/>
<polygon fill="none" stroke="#000000" points="681.5,-133.7 681.5,-152.7 704.5,-152.7 704.5,-133.7 681.5,-133.7"/>
<text text-anchor="start" x="695.3862" y="-139.8" font-family="Helvetica,sans-Serif" font-size="11.00" fill="#000000"> &#160;</text>
</a>
</g>
</g>
<!-- order_receiveitem&#45;&gt;common_product -->
<g id="edge7" class="edge">
<title>order_receiveitem:w&#45;&gt;common_product:e</title>
<path fill="none" stroke="#000000" d="M548.0886,-164.7405C510.6094,-183.6814 553.5339,-284.7 497.5,-284.7"/>
<polygon fill="#000000" stroke="#000000" points="554.6723,-163.3515 563.2432,-165.2225 558.5862,-162.5258 562.5,-161.7 562.5,-161.7 562.5,-161.7 558.5862,-162.5258 561.7568,-158.1775 554.6723,-163.3515 554.6723,-163.3515"/>
<ellipse fill="none" stroke="#000000" cx="551.5412" cy="-164.0121" rx="3.2" ry="3.2"/>
</g>
<!-- order_saleitem -->
<g id="node9" class="node">
<title>order_saleitem</title>
<g id="a_node9"><a xlink:href="../../tables/order_saleitem.html" xlink:title="order_saleitem" target="_top">
<polygon fill="#ffffff" stroke="transparent" points="571.5,-52.2 571.5,-113.2 695.5,-113.2 695.5,-52.2 571.5,-52.2"/>
<polygon fill="#f5f5f5" stroke="transparent" points="571.5,-89.7 571.5,-112.7 695.5,-112.7 695.5,-89.7 571.5,-89.7"/>
<polygon fill="none" stroke="#000000" points="571.5,-89.7 571.5,-112.7 695.5,-112.7 695.5,-89.7 571.5,-89.7"/>
<text text-anchor="start" x="576.5" y="-98.3" font-family="Helvetica,sans-Serif" font-weight="bold" font-size="11.00" fill="#000000">order_saleitem</text>
<text text-anchor="start" x="661.0219" y="-97.8" font-family="Helvetica,sans-Serif" font-size="11.00" fill="#000000">[table]</text>
<polygon fill="none" stroke="#000000" points="571.5,-70.7 571.5,-89.7 695.5,-89.7 695.5,-70.7 571.5,-70.7"/>
<text text-anchor="start" x="574.5" y="-76.8" font-family="Helvetica,sans-Serif" font-size="11.00" fill="#000000">...</text>
<polygon fill="#ffffff" stroke="transparent" points="571.5,-51.7 571.5,-70.7 612.5,-70.7 612.5,-51.7 571.5,-51.7"/>
<polygon fill="none" stroke="#000000" points="571.5,-51.7 571.5,-70.7 612.5,-70.7 612.5,-51.7 571.5,-51.7"/>
<text text-anchor="start" x="574.5" y="-57.8" font-family="Helvetica,sans-Serif" font-size="11.00" fill="#000000">&lt; 2</text>
<polygon fill="#ffffff" stroke="transparent" points="612.5,-51.7 612.5,-70.7 672.5,-70.7 672.5,-51.7 612.5,-51.7"/>
<polygon fill="none" stroke="#000000" points="612.5,-51.7 612.5,-70.7 672.5,-70.7 672.5,-51.7 612.5,-51.7"/>
<text text-anchor="start" x="624.8807" y="-57.8" font-family="Helvetica,sans-Serif" font-size="11.00" fill="#000000">659 rows</text>
<polygon fill="#ffffff" stroke="transparent" points="672.5,-51.7 672.5,-70.7 695.5,-70.7 695.5,-51.7 672.5,-51.7"/>
<polygon fill="none" stroke="#000000" points="672.5,-51.7 672.5,-70.7 695.5,-70.7 695.5,-51.7 672.5,-51.7"/>
<text text-anchor="start" x="686.3862" y="-57.8" font-family="Helvetica,sans-Serif" font-size="11.00" fill="#000000"> &#160;</text>
</a>
</g>
</g>
<!-- order_saleitem&#45;&gt;common_product -->
<g id="edge8" class="edge">
<title>order_saleitem:w&#45;&gt;common_product:e</title>
<path fill="none" stroke="#000000" d="M557.3956,-83.4606C547.0157,-90.645 545.9946,-107.09 538,-123.7 506.0001,-190.1846 571.2848,-284.7 497.5,-284.7"/>
<polygon fill="#000000" stroke="#000000" points="563.77,-81.7611 572.4275,-83.1785 567.635,-80.7305 571.5,-79.7 571.5,-79.7 571.5,-79.7 567.635,-80.7305 570.5725,-76.2215 563.77,-81.7611 563.77,-81.7611"/>
<ellipse fill="none" stroke="#000000" cx="560.6781" cy="-82.5855" rx="3.2" ry="3.2"/>
</g>
</g>
</svg>
