<?xml version="1.0" encoding="UTF-8" standalone="no"?>
<!DOCTYPE svg PUBLIC "-//W3C//DTD SVG 1.1//EN"
 "http://www.w3.org/Graphics/SVG/1.1/DTD/svg11.dtd">
<!-- Generated by graphviz version 2.40.1 (20161225.0304)
 -->
<!-- Title: oneDegreeRelationshipsDiagram Pages: 1 -->
<svg width="516pt" height="510pt"
 viewBox="0.00 0.00 516.00 509.70" xmlns="http://www.w3.org/2000/svg" xmlns:xlink="http://www.w3.org/1999/xlink">
<g id="graph0" class="graph" transform="scale(1 1) rotate(0) translate(4 505.7)">
<title>oneDegreeRelationshipsDiagram</title>
<polygon fill="#ffffff" stroke="transparent" points="-4,4 -4,-505.7 512,-505.7 512,4 -4,4"/>
<text text-anchor="middle" x="72.4936" y="-7.3" font-family="Helvetica,sans-Serif" font-size="11.00" fill="#000000">Generated by SchemaSpy</text>
<!-- common_contact -->
<g id="node1" class="node">
<title>common_contact</title>
<g id="a_node1"><a xlink:href="../../tables/common_contact.html" xlink:title="common_contact" target="_top">
<polygon fill="#ffffff" stroke="transparent" points="326.5,-370.7 326.5,-497.7 477.5,-497.7 477.5,-370.7 326.5,-370.7"/>
<polygon fill="#f5f5f5" stroke="transparent" points="327,-474.2 327,-497.2 478,-497.2 478,-474.2 327,-474.2"/>
<polygon fill="none" stroke="#000000" points="327,-474.2 327,-497.2 478,-497.2 478,-474.2 327,-474.2"/>
<text text-anchor="start" x="332" y="-482.8" font-family="Helvetica,sans-Serif" font-weight="bold" font-size="11.00" fill="#000000">common_contact</text>
<text text-anchor="start" x="443.0437" y="-482.3" font-family="Helvetica,sans-Serif" font-size="11.00" fill="#000000">[table]</text>
<polygon fill="none" stroke="#000000" points="327,-452.2 327,-474.2 478,-474.2 478,-452.2 327,-452.2"/>
<image xlink:href="../../images/primaryKeys.png" width="11px" height="12px" preserveAspectRatio="xMinYMin meet" x="332" y="-469.2"/>
<text text-anchor="start" x="347" y="-459.3" font-family="Helvetica,sans-Serif" font-size="11.00" fill="#000000">ID</text>
<polygon fill="#ffffff" stroke="transparent" points="327,-430.2 327,-452.2 478,-452.2 478,-430.2 327,-430.2"/>
<polygon fill="none" stroke="#000000" points="327,-430.2 327,-452.2 478,-452.2 478,-430.2 327,-430.2"/>
<image xlink:href="../../images/foreignKeys.png" width="11px" height="12px" preserveAspectRatio="xMinYMin meet" x="332" y="-447.2"/>
<text text-anchor="start" x="347" y="-437.3" font-family="Helvetica,sans-Serif" font-size="11.00" fill="#000000">Common_DealerFK</text>
<polygon fill="#ffffff" stroke="transparent" points="327,-408.2 327,-430.2 478,-430.2 478,-408.2 327,-408.2"/>
<polygon fill="none" stroke="#000000" points="327,-408.2 327,-430.2 478,-430.2 478,-408.2 327,-408.2"/>
<image xlink:href="../../images/foreignKeys.png" width="11px" height="12px" preserveAspectRatio="xMinYMin meet" x="332" y="-425.2"/>
<text text-anchor="start" x="347" y="-415.3" font-family="Helvetica,sans-Serif" font-size="11.00" fill="#000000">Common_CustomerFK</text>
<polygon fill="none" stroke="#000000" points="327,-389.2 327,-408.2 478,-408.2 478,-389.2 327,-389.2"/>
<text text-anchor="start" x="330" y="-395.3" font-family="Helvetica,sans-Serif" font-size="11.00" fill="#000000">...</text>
<polygon fill="#ffffff" stroke="transparent" points="327,-370.2 327,-389.2 388,-389.2 388,-370.2 327,-370.2"/>
<polygon fill="none" stroke="#000000" points="327,-370.2 327,-389.2 388,-389.2 388,-370.2 327,-370.2"/>
<text text-anchor="start" x="330" y="-376.3" font-family="Helvetica,sans-Serif" font-size="11.00" fill="#000000">&lt; 2</text>
<polygon fill="#ffffff" stroke="transparent" points="388,-370.2 388,-389.2 446,-389.2 446,-370.2 388,-370.2"/>
<polygon fill="none" stroke="#000000" points="388,-370.2 388,-389.2 446,-389.2 446,-370.2 388,-370.2"/>
<text text-anchor="start" x="410.6105" y="-376.3" font-family="Helvetica,sans-Serif" font-size="11.00" fill="#000000">0 rows</text>
<polygon fill="#ffffff" stroke="transparent" points="446,-370.2 446,-389.2 478,-389.2 478,-370.2 446,-370.2"/>
<polygon fill="none" stroke="#000000" points="446,-370.2 446,-389.2 478,-389.2 478,-370.2 446,-370.2"/>
<text text-anchor="start" x="468.8862" y="-376.3" font-family="Helvetica,sans-Serif" font-size="11.00" fill="#000000"> &#160;</text>
</a>
</g>
</g>
<!-- common_customer -->
<g id="node2" class="node">
<title>common_customer</title>
<g id="a_node2"><a xlink:href="../../tables/common_customer.html" xlink:title="common_customer" target="_top">
<polygon fill="#ffffff" stroke="transparent" points="8,-38.2 8,-392.2 255,-392.2 255,-38.2 8,-38.2"/>
<polygon fill="#f5f5f5" stroke="transparent" points="10.5,-367.2 10.5,-390.2 253.5,-390.2 253.5,-367.2 10.5,-367.2"/>
<polygon fill="none" stroke="#000000" points="10.5,-367.2 10.5,-390.2 253.5,-390.2 253.5,-367.2 10.5,-367.2"/>
<text text-anchor="start" x="15.5" y="-375.8" font-family="Helvetica,sans-Serif" font-weight="bold" font-size="11.00" fill="#000000">common_customer</text>
<text text-anchor="start" x="218.5437" y="-375.3" font-family="Helvetica,sans-Serif" font-size="11.00" fill="#000000">[table]</text>
<polygon fill="none" stroke="#000000" points="10.5,-345.2 10.5,-367.2 142.5,-367.2 142.5,-345.2 10.5,-345.2"/>
<image xlink:href="../../images/primaryKeys.png" width="11px" height="12px" preserveAspectRatio="xMinYMin meet" x="15.5" y="-362.2"/>
<text text-anchor="start" x="30.5" y="-352.3" font-family="Helvetica,sans-Serif" font-size="11.00" fill="#000000">ID</text>
<polygon fill="none" stroke="#000000" points="142.5,-345.2 142.5,-367.2 253.5,-367.2 253.5,-345.2 142.5,-345.2"/>
<text text-anchor="start" x="145.5" y="-352.9" font-family="Helvetica,sans-Serif" font-size="11.00" fill="#000000">int[10]</text>
<polygon fill="none" stroke="#000000" points="10.5,-323.2 10.5,-345.2 142.5,-345.2 142.5,-323.2 10.5,-323.2"/>
<text text-anchor="start" x="30.5" y="-330.3" font-family="Helvetica,sans-Serif" font-size="11.00" fill="#000000">Active</text>
<polygon fill="none" stroke="#000000" points="142.5,-323.2 142.5,-345.2 253.5,-345.2 253.5,-323.2 142.5,-323.2"/>
<text text-anchor="start" x="145.5" y="-330.9" font-family="Helvetica,sans-Serif" font-size="11.00" fill="#000000">bit[1]</text>
<polygon fill="none" stroke="#000000" points="10.5,-301.2 10.5,-323.2 142.5,-323.2 142.5,-301.2 10.5,-301.2"/>
<text text-anchor="start" x="30.5" y="-308.3" font-family="Helvetica,sans-Serif" font-size="11.00" fill="#000000">User</text>
<polygon fill="none" stroke="#000000" points="142.5,-301.2 142.5,-323.2 253.5,-323.2 253.5,-301.2 142.5,-301.2"/>
<text text-anchor="start" x="145.1115" y="-308.9" font-family="Helvetica,sans-Serif" font-size="11.00" fill="#000000">longtext[2147483647]</text>
<polygon fill="none" stroke="#000000" points="10.5,-279.2 10.5,-301.2 142.5,-301.2 142.5,-279.2 10.5,-279.2"/>
<text text-anchor="start" x="30.5" y="-286.3" font-family="Helvetica,sans-Serif" font-size="11.00" fill="#000000">CD</text>
<polygon fill="none" stroke="#000000" points="142.5,-279.2 142.5,-301.2 253.5,-301.2 253.5,-279.2 142.5,-279.2"/>
<text text-anchor="start" x="145.5" y="-286.9" font-family="Helvetica,sans-Serif" font-size="11.00" fill="#000000">datetime[26]</text>
<polygon fill="none" stroke="#000000" points="10.5,-257.2 10.5,-279.2 142.5,-279.2 142.5,-257.2 10.5,-257.2"/>
<text text-anchor="start" x="30.5" y="-264.3" font-family="Helvetica,sans-Serif" font-size="11.00" fill="#000000">UD</text>
<polygon fill="none" stroke="#000000" points="142.5,-257.2 142.5,-279.2 253.5,-279.2 253.5,-257.2 142.5,-257.2"/>
<text text-anchor="start" x="145.5" y="-264.9" font-family="Helvetica,sans-Serif" font-size="11.00" fill="#000000">datetime[26]</text>
<polygon fill="none" stroke="#000000" points="10.5,-235.2 10.5,-257.2 142.5,-257.2 142.5,-235.2 10.5,-235.2"/>
<text text-anchor="start" x="30.5" y="-242.3" font-family="Helvetica,sans-Serif" font-size="11.00" fill="#000000">Remarks</text>
<polygon fill="none" stroke="#000000" points="142.5,-235.2 142.5,-257.2 253.5,-257.2 253.5,-235.2 142.5,-235.2"/>
<text text-anchor="start" x="145.1115" y="-242.9" font-family="Helvetica,sans-Serif" font-size="11.00" fill="#000000">longtext[2147483647]</text>
<polygon fill="none" stroke="#000000" points="10.5,-213.2 10.5,-235.2 142.5,-235.2 142.5,-213.2 10.5,-213.2"/>
<text text-anchor="start" x="30.5" y="-220.3" font-family="Helvetica,sans-Serif" font-size="11.00" fill="#000000">UserID</text>
<polygon fill="none" stroke="#000000" points="142.5,-213.2 142.5,-235.2 253.5,-235.2 253.5,-213.2 142.5,-213.2"/>
<text text-anchor="start" x="145.5" y="-220.9" font-family="Helvetica,sans-Serif" font-size="11.00" fill="#000000">int[10]</text>
<polygon fill="none" stroke="#000000" points="10.5,-191.2 10.5,-213.2 142.5,-213.2 142.5,-191.2 10.5,-191.2"/>
<text text-anchor="start" x="30.5" y="-198.3" font-family="Helvetica,sans-Serif" font-size="11.00" fill="#000000">Code</text>
<polygon fill="none" stroke="#000000" points="142.5,-191.2 142.5,-213.2 253.5,-213.2 253.5,-191.2 142.5,-191.2"/>
<text text-anchor="start" x="145.1115" y="-198.9" font-family="Helvetica,sans-Serif" font-size="11.00" fill="#000000">longtext[2147483647]</text>
<polygon fill="none" stroke="#000000" points="10.5,-169.2 10.5,-191.2 142.5,-191.2 142.5,-169.2 10.5,-169.2"/>
<text text-anchor="start" x="30.5" y="-176.3" font-family="Helvetica,sans-Serif" font-size="11.00" fill="#000000">Name</text>
<polygon fill="none" stroke="#000000" points="142.5,-169.2 142.5,-191.2 253.5,-191.2 253.5,-169.2 142.5,-169.2"/>
<text text-anchor="start" x="145.1115" y="-176.9" font-family="Helvetica,sans-Serif" font-size="11.00" fill="#000000">longtext[2147483647]</text>
<polygon fill="none" stroke="#000000" points="10.5,-147.2 10.5,-169.2 142.5,-169.2 142.5,-147.2 10.5,-147.2"/>
<text text-anchor="start" x="30.5" y="-154.3" font-family="Helvetica,sans-Serif" font-size="11.00" fill="#000000">Contact</text>
<polygon fill="none" stroke="#000000" points="142.5,-147.2 142.5,-169.2 253.5,-169.2 253.5,-147.2 142.5,-147.2"/>
<text text-anchor="start" x="145.1115" y="-154.9" font-family="Helvetica,sans-Serif" font-size="11.00" fill="#000000">longtext[2147483647]</text>
<polygon fill="none" stroke="#000000" points="10.5,-125.2 10.5,-147.2 142.5,-147.2 142.5,-125.2 10.5,-125.2"/>
<text text-anchor="start" x="30.5" y="-132.3" font-family="Helvetica,sans-Serif" font-size="11.00" fill="#000000">Email</text>
<polygon fill="none" stroke="#000000" points="142.5,-125.2 142.5,-147.2 253.5,-147.2 253.5,-125.2 142.5,-125.2"/>
<text text-anchor="start" x="145.1115" y="-132.9" font-family="Helvetica,sans-Serif" font-size="11.00" fill="#000000">longtext[2147483647]</text>
<polygon fill="none" stroke="#000000" points="10.5,-103.2 10.5,-125.2 142.5,-125.2 142.5,-103.2 10.5,-103.2"/>
<text text-anchor="start" x="30.5" y="-110.3" font-family="Helvetica,sans-Serif" font-size="11.00" fill="#000000">Address</text>
<polygon fill="none" stroke="#000000" points="142.5,-103.2 142.5,-125.2 253.5,-125.2 253.5,-103.2 142.5,-103.2"/>
<text text-anchor="start" x="145.1115" y="-110.9" font-family="Helvetica,sans-Serif" font-size="11.00" fill="#000000">longtext[2147483647]</text>
<polygon fill="none" stroke="#000000" points="10.5,-81.2 10.5,-103.2 142.5,-103.2 142.5,-81.2 10.5,-81.2"/>
<text text-anchor="start" x="30.5" y="-88.3" font-family="Helvetica,sans-Serif" font-size="11.00" fill="#000000">CustomerTypeID</text>
<polygon fill="none" stroke="#000000" points="142.5,-81.2 142.5,-103.2 253.5,-103.2 253.5,-81.2 142.5,-81.2"/>
<text text-anchor="start" x="145.5" y="-88.9" font-family="Helvetica,sans-Serif" font-size="11.00" fill="#000000">int[10]</text>
<polygon fill="none" stroke="#000000" points="10.5,-59.2 10.5,-81.2 142.5,-81.2 142.5,-59.2 10.5,-59.2"/>
<text text-anchor="start" x="30.5" y="-66.3" font-family="Helvetica,sans-Serif" font-size="11.00" fill="#000000">Common_DealerFK</text>
<polygon fill="none" stroke="#000000" points="142.5,-59.2 142.5,-81.2 253.5,-81.2 253.5,-59.2 142.5,-59.2"/>
<text text-anchor="start" x="145.5" y="-66.9" font-family="Helvetica,sans-Serif" font-size="11.00" fill="#000000">int[10]</text>
<polygon fill="#ffffff" stroke="transparent" points="10.5,-40.2 10.5,-59.2 61.5,-59.2 61.5,-40.2 10.5,-40.2"/>
<polygon fill="none" stroke="#000000" points="10.5,-40.2 10.5,-59.2 61.5,-59.2 61.5,-40.2 10.5,-40.2"/>
<text text-anchor="start" x="13.5" y="-46.3" font-family="Helvetica,sans-Serif" font-size="11.00" fill="#000000">&lt; 0</text>
<polygon fill="#ffffff" stroke="transparent" points="61.5,-40.2 61.5,-59.2 142.5,-59.2 142.5,-40.2 61.5,-40.2"/>
<polygon fill="none" stroke="#000000" points="61.5,-40.2 61.5,-59.2 142.5,-59.2 142.5,-40.2 61.5,-40.2"/>
<text text-anchor="start" x="94.8807" y="-46.3" font-family="Helvetica,sans-Serif" font-size="11.00" fill="#000000">147 rows</text>
<polygon fill="#ffffff" stroke="transparent" points="142.5,-40.2 142.5,-59.2 253.5,-59.2 253.5,-40.2 142.5,-40.2"/>
<polygon fill="none" stroke="#000000" points="142.5,-40.2 142.5,-59.2 253.5,-59.2 253.5,-40.2 142.5,-40.2"/>
<text text-anchor="start" x="234.9053" y="-46.3" font-family="Helvetica,sans-Serif" font-size="11.00" fill="#000000">2 &gt;</text>
<polygon fill="none" stroke="#000000" stroke-width="2" points="9,-39.2 9,-391.2 254,-391.2 254,-39.2 9,-39.2"/>
</a>
</g>
</g>
<!-- common_contact&#45;&gt;common_customer -->
<g id="edge1" class="edge">
<title>common_contact:w&#45;&gt;common_customer:e</title>
<path fill="none" stroke="#000000" d="M312.5378,-416.1614C286.3285,-403.5769 290.8103,-356.2 253.5,-356.2"/>
<polygon fill="#000000" stroke="#000000" points="319.1709,-417.555 326.2598,-422.7231 323.0855,-418.3775 327,-419.2 327,-419.2 327,-419.2 323.0855,-418.3775 327.7402,-415.6769 319.1709,-417.555 319.1709,-417.555"/>
<ellipse fill="none" stroke="#000000" cx="316.0393" cy="-416.897" rx="3.2" ry="3.2"/>
</g>
<!-- order_sale -->
<g id="node3" class="node">
<title>order_sale</title>
<g id="a_node3"><a xlink:href="../../tables/order_sale.html" xlink:title="order_sale" target="_top">
<polygon fill="#ffffff" stroke="transparent" points="304,-222.7 304,-349.7 500,-349.7 500,-222.7 304,-222.7"/>
<polygon fill="#f5f5f5" stroke="transparent" points="304,-326.2 304,-349.2 500,-349.2 500,-326.2 304,-326.2"/>
<polygon fill="none" stroke="#000000" points="304,-326.2 304,-349.2 500,-349.2 500,-326.2 304,-326.2"/>
<text text-anchor="start" x="309" y="-334.8" font-family="Helvetica,sans-Serif" font-weight="bold" font-size="11.00" fill="#000000">order_sale</text>
<text text-anchor="start" x="465.0437" y="-334.3" font-family="Helvetica,sans-Serif" font-size="11.00" fill="#000000">[table]</text>
<polygon fill="none" stroke="#000000" points="304,-304.2 304,-326.2 500,-326.2 500,-304.2 304,-304.2"/>
<image xlink:href="../../images/primaryKeys.png" width="11px" height="12px" preserveAspectRatio="xMinYMin meet" x="309" y="-321.2"/>
<text text-anchor="start" x="324" y="-311.3" font-family="Helvetica,sans-Serif" font-size="11.00" fill="#000000">ID</text>
<polygon fill="#ffffff" stroke="transparent" points="304,-282.2 304,-304.2 500,-304.2 500,-282.2 304,-282.2"/>
<polygon fill="none" stroke="#000000" points="304,-282.2 304,-304.2 500,-304.2 500,-282.2 304,-282.2"/>
<image xlink:href="../../images/foreignKeys.png" width="11px" height="12px" preserveAspectRatio="xMinYMin meet" x="309" y="-299.2"/>
<text text-anchor="start" x="324" y="-289.3" font-family="Helvetica,sans-Serif" font-size="11.00" fill="#000000">Common_CustomerFK</text>
<polygon fill="#ffffff" stroke="transparent" points="304,-260.2 304,-282.2 500,-282.2 500,-260.2 304,-260.2"/>
<polygon fill="none" stroke="#000000" points="304,-260.2 304,-282.2 500,-282.2 500,-260.2 304,-260.2"/>
<image xlink:href="../../images/foreignKeys.png" width="11px" height="12px" preserveAspectRatio="xMinYMin meet" x="309" y="-277.2"/>
<text text-anchor="start" x="324" y="-267.3" font-family="Helvetica,sans-Serif" font-size="11.00" fill="#000000">Common_Dealer2FK</text>
<polygon fill="none" stroke="#000000" points="304,-241.2 304,-260.2 500,-260.2 500,-241.2 304,-241.2"/>
<text text-anchor="start" x="307" y="-247.3" font-family="Helvetica,sans-Serif" font-size="11.00" fill="#000000">...</text>
<polygon fill="#ffffff" stroke="transparent" points="304,-222.2 304,-241.2 377,-241.2 377,-222.2 304,-222.2"/>
<polygon fill="none" stroke="#000000" points="304,-222.2 304,-241.2 377,-241.2 377,-222.2 304,-222.2"/>
<text text-anchor="start" x="307" y="-228.3" font-family="Helvetica,sans-Serif" font-size="11.00" fill="#000000">&lt; 2</text>
<polygon fill="#ffffff" stroke="transparent" points="377,-222.2 377,-241.2 453,-241.2 453,-222.2 377,-222.2"/>
<polygon fill="none" stroke="#000000" points="377,-222.2 377,-241.2 453,-241.2 453,-222.2 377,-222.2"/>
<text text-anchor="start" x="405.3807" y="-228.3" font-family="Helvetica,sans-Serif" font-size="11.00" fill="#000000">389 rows</text>
<polygon fill="#ffffff" stroke="transparent" points="453,-222.2 453,-241.2 500,-241.2 500,-222.2 453,-222.2"/>
<polygon fill="none" stroke="#000000" points="453,-222.2 453,-241.2 500,-241.2 500,-222.2 453,-222.2"/>
<text text-anchor="start" x="481.4053" y="-228.3" font-family="Helvetica,sans-Serif" font-size="11.00" fill="#000000">1 &gt;</text>
</a>
</g>
</g>
<!-- order_sale&#45;&gt;common_customer -->
<g id="edge2" class="edge">
<title>order_sale:w&#45;&gt;common_customer:e</title>
<path fill="none" stroke="#000000" d="M289.9816,-298.1435C273.738,-312.9952 283.2175,-356.2 253.5,-356.2"/>
<polygon fill="#000000" stroke="#000000" points="296.4554,-295.8606 305.1973,-296.5951 300.2277,-294.5303 304,-293.2 304,-293.2 304,-293.2 300.2277,-294.5303 302.8027,-289.8049 296.4554,-295.8606 296.4554,-295.8606"/>
<ellipse fill="none" stroke="#000000" cx="293.4375" cy="-296.9248" rx="3.2" ry="3.2"/>
</g>
</g>
</svg>
