<?xml version="1.0" encoding="UTF-8" standalone="no"?>
<!DOCTYPE svg PUBLIC "-//W3C//DTD SVG 1.1//EN"
 "http://www.w3.org/Graphics/SVG/1.1/DTD/svg11.dtd">
<!-- Generated by graphviz version 2.40.1 (20161225.0304)
 -->
<!-- Title: oneDegreeRelationshipsDiagramImplied Pages: 1 -->
<svg width="457pt" height="382pt"
 viewBox="0.00 0.00 457.00 382.20" xmlns="http://www.w3.org/2000/svg" xmlns:xlink="http://www.w3.org/1999/xlink">
<g id="graph0" class="graph" transform="scale(1 1) rotate(0) translate(4 378.2)">
<title>oneDegreeRelationshipsDiagramImplied</title>
<polygon fill="#ffffff" stroke="transparent" points="-4,4 -4,-378.2 453,-378.2 453,4 -4,4"/>
<text text-anchor="middle" x="72.4936" y="-7.3" font-family="Helvetica,sans-Serif" font-size="11.00" fill="#000000">Generated by SchemaSpy</text>
<!-- common_zonearea -->
<g id="node1" class="node">
<title>common_zonearea</title>
<g id="a_node1"><a xlink:href="../../tables/common_zonearea.html" xlink:title="common_zonearea" target="_top">
<polygon fill="#ffffff" stroke="transparent" points="189,-38.2 189,-370.2 441,-370.2 441,-38.2 189,-38.2"/>
<polygon fill="#f5f5f5" stroke="transparent" points="191,-345.2 191,-368.2 439,-368.2 439,-345.2 191,-345.2"/>
<polygon fill="none" stroke="#000000" points="191,-345.2 191,-368.2 439,-368.2 439,-345.2 191,-345.2"/>
<text text-anchor="start" x="196" y="-353.8" font-family="Helvetica,sans-Serif" font-weight="bold" font-size="11.00" fill="#000000">common_zonearea</text>
<text text-anchor="start" x="404.0437" y="-353.3" font-family="Helvetica,sans-Serif" font-size="11.00" fill="#000000">[table]</text>
<polygon fill="none" stroke="#000000" points="191,-323.2 191,-345.2 328,-345.2 328,-323.2 191,-323.2"/>
<image xlink:href="../../images/primaryKeys.png" width="11px" height="12px" preserveAspectRatio="xMinYMin meet" x="196" y="-340.2"/>
<text text-anchor="start" x="211" y="-330.3" font-family="Helvetica,sans-Serif" font-size="11.00" fill="#000000">ID</text>
<polygon fill="none" stroke="#000000" points="328,-323.2 328,-345.2 439,-345.2 439,-323.2 328,-323.2"/>
<text text-anchor="start" x="331" y="-330.9" font-family="Helvetica,sans-Serif" font-size="11.00" fill="#000000">int[10]</text>
<polygon fill="none" stroke="#000000" points="191,-301.2 191,-323.2 328,-323.2 328,-301.2 191,-301.2"/>
<text text-anchor="start" x="211" y="-308.3" font-family="Helvetica,sans-Serif" font-size="11.00" fill="#000000">Active</text>
<polygon fill="none" stroke="#000000" points="328,-301.2 328,-323.2 439,-323.2 439,-301.2 328,-301.2"/>
<text text-anchor="start" x="331" y="-308.9" font-family="Helvetica,sans-Serif" font-size="11.00" fill="#000000">bit[1]</text>
<polygon fill="none" stroke="#000000" points="191,-279.2 191,-301.2 328,-301.2 328,-279.2 191,-279.2"/>
<text text-anchor="start" x="211" y="-286.3" font-family="Helvetica,sans-Serif" font-size="11.00" fill="#000000">User</text>
<polygon fill="none" stroke="#000000" points="328,-279.2 328,-301.2 439,-301.2 439,-279.2 328,-279.2"/>
<text text-anchor="start" x="330.6115" y="-286.9" font-family="Helvetica,sans-Serif" font-size="11.00" fill="#000000">longtext[2147483647]</text>
<polygon fill="none" stroke="#000000" points="191,-257.2 191,-279.2 328,-279.2 328,-257.2 191,-257.2"/>
<text text-anchor="start" x="211" y="-264.3" font-family="Helvetica,sans-Serif" font-size="11.00" fill="#000000">CD</text>
<polygon fill="none" stroke="#000000" points="328,-257.2 328,-279.2 439,-279.2 439,-257.2 328,-257.2"/>
<text text-anchor="start" x="331" y="-264.9" font-family="Helvetica,sans-Serif" font-size="11.00" fill="#000000">datetime[26]</text>
<polygon fill="none" stroke="#000000" points="191,-235.2 191,-257.2 328,-257.2 328,-235.2 191,-235.2"/>
<text text-anchor="start" x="211" y="-242.3" font-family="Helvetica,sans-Serif" font-size="11.00" fill="#000000">UD</text>
<polygon fill="none" stroke="#000000" points="328,-235.2 328,-257.2 439,-257.2 439,-235.2 328,-235.2"/>
<text text-anchor="start" x="331" y="-242.9" font-family="Helvetica,sans-Serif" font-size="11.00" fill="#000000">datetime[26]</text>
<polygon fill="none" stroke="#000000" points="191,-213.2 191,-235.2 328,-235.2 328,-213.2 191,-213.2"/>
<text text-anchor="start" x="211" y="-220.3" font-family="Helvetica,sans-Serif" font-size="11.00" fill="#000000">Remarks</text>
<polygon fill="none" stroke="#000000" points="328,-213.2 328,-235.2 439,-235.2 439,-213.2 328,-213.2"/>
<text text-anchor="start" x="330.6115" y="-220.9" font-family="Helvetica,sans-Serif" font-size="11.00" fill="#000000">longtext[2147483647]</text>
<polygon fill="none" stroke="#000000" points="191,-191.2 191,-213.2 328,-213.2 328,-191.2 191,-191.2"/>
<text text-anchor="start" x="211" y="-198.3" font-family="Helvetica,sans-Serif" font-size="11.00" fill="#000000">UserID</text>
<polygon fill="none" stroke="#000000" points="328,-191.2 328,-213.2 439,-213.2 439,-191.2 328,-191.2"/>
<text text-anchor="start" x="331" y="-198.9" font-family="Helvetica,sans-Serif" font-size="11.00" fill="#000000">int[10]</text>
<polygon fill="none" stroke="#000000" points="191,-169.2 191,-191.2 328,-191.2 328,-169.2 191,-169.2"/>
<text text-anchor="start" x="211" y="-176.3" font-family="Helvetica,sans-Serif" font-size="11.00" fill="#000000">Common_ZoneFK</text>
<polygon fill="none" stroke="#000000" points="328,-169.2 328,-191.2 439,-191.2 439,-169.2 328,-169.2"/>
<text text-anchor="start" x="331" y="-176.9" font-family="Helvetica,sans-Serif" font-size="11.00" fill="#000000">int[10]</text>
<polygon fill="none" stroke="#000000" points="191,-147.2 191,-169.2 328,-169.2 328,-147.2 191,-147.2"/>
<text text-anchor="start" x="211" y="-154.3" font-family="Helvetica,sans-Serif" font-size="11.00" fill="#000000">Common_DistrictFK</text>
<polygon fill="none" stroke="#000000" points="328,-147.2 328,-169.2 439,-169.2 439,-147.2 328,-147.2"/>
<text text-anchor="start" x="331" y="-154.9" font-family="Helvetica,sans-Serif" font-size="11.00" fill="#000000">int[10]</text>
<polygon fill="none" stroke="#000000" points="191,-125.2 191,-147.2 328,-147.2 328,-125.2 191,-125.2"/>
<text text-anchor="start" x="211" y="-132.3" font-family="Helvetica,sans-Serif" font-size="11.00" fill="#000000">IsSalesArea</text>
<polygon fill="none" stroke="#000000" points="328,-125.2 328,-147.2 439,-147.2 439,-125.2 328,-125.2"/>
<text text-anchor="start" x="331" y="-132.9" font-family="Helvetica,sans-Serif" font-size="11.00" fill="#000000">bit[1]</text>
<polygon fill="none" stroke="#000000" points="191,-103.2 191,-125.2 328,-125.2 328,-103.2 191,-103.2"/>
<text text-anchor="start" x="211" y="-110.3" font-family="Helvetica,sans-Serif" font-size="11.00" fill="#000000">Name</text>
<polygon fill="none" stroke="#000000" points="328,-103.2 328,-125.2 439,-125.2 439,-103.2 328,-103.2"/>
<text text-anchor="start" x="330.6115" y="-110.9" font-family="Helvetica,sans-Serif" font-size="11.00" fill="#000000">longtext[2147483647]</text>
<polygon fill="none" stroke="#000000" points="191,-81.2 191,-103.2 328,-103.2 328,-81.2 191,-81.2"/>
<image xlink:href="../../images/foreignKeys.png" width="11px" height="12px" preserveAspectRatio="xMinYMin meet" x="196" y="-98.2"/>
<text text-anchor="start" x="211" y="-88.3" font-family="Helvetica,sans-Serif" font-size="11.00" fill="#000000">Common_ZoneID</text>
<polygon fill="none" stroke="#000000" points="328,-81.2 328,-103.2 439,-103.2 439,-81.2 328,-81.2"/>
<text text-anchor="start" x="331" y="-88.9" font-family="Helvetica,sans-Serif" font-size="11.00" fill="#000000">int[10]</text>
<polygon fill="none" stroke="#000000" points="191,-59.2 191,-81.2 328,-81.2 328,-59.2 191,-59.2"/>
<text text-anchor="start" x="211" y="-66.3" font-family="Helvetica,sans-Serif" font-size="11.00" fill="#000000">Common_AreaFK</text>
<polygon fill="none" stroke="#000000" points="328,-59.2 328,-81.2 439,-81.2 439,-59.2 328,-59.2"/>
<text text-anchor="start" x="331" y="-66.9" font-family="Helvetica,sans-Serif" font-size="11.00" fill="#000000">int[10]</text>
<polygon fill="#ffffff" stroke="transparent" points="191,-40.2 191,-59.2 248,-59.2 248,-40.2 191,-40.2"/>
<polygon fill="none" stroke="#000000" points="191,-40.2 191,-59.2 248,-59.2 248,-40.2 191,-40.2"/>
<text text-anchor="start" x="194" y="-46.3" font-family="Helvetica,sans-Serif" font-size="11.00" fill="#000000">&lt; 1</text>
<polygon fill="#ffffff" stroke="transparent" points="248,-40.2 248,-59.2 328,-59.2 328,-40.2 248,-40.2"/>
<polygon fill="none" stroke="#000000" points="248,-40.2 248,-59.2 328,-59.2 328,-40.2 248,-40.2"/>
<text text-anchor="start" x="286.4956" y="-46.3" font-family="Helvetica,sans-Serif" font-size="11.00" fill="#000000">40 rows</text>
<polygon fill="#ffffff" stroke="transparent" points="328,-40.2 328,-59.2 439,-59.2 439,-40.2 328,-40.2"/>
<polygon fill="none" stroke="#000000" points="328,-40.2 328,-59.2 439,-59.2 439,-40.2 328,-40.2"/>
<text text-anchor="start" x="420.4053" y="-46.3" font-family="Helvetica,sans-Serif" font-size="11.00" fill="#000000">0 &gt;</text>
<polygon fill="none" stroke="#000000" stroke-width="2" points="190,-39.2 190,-369.2 440,-369.2 440,-39.2 190,-39.2"/>
</a>
</g>
</g>
<!-- common_zone -->
<g id="node2" class="node">
<title>common_zone</title>
<g id="a_node2"><a xlink:href="../../tables/common_zone.html" xlink:title="common_zone" target="_top">
<polygon fill="#ffffff" stroke="transparent" points="8,-43.7 8,-126.7 140,-126.7 140,-43.7 8,-43.7"/>
<polygon fill="#f5f5f5" stroke="transparent" points="8,-103.2 8,-126.2 140,-126.2 140,-103.2 8,-103.2"/>
<polygon fill="none" stroke="#000000" points="8,-103.2 8,-126.2 140,-126.2 140,-103.2 8,-103.2"/>
<text text-anchor="start" x="13" y="-111.8" font-family="Helvetica,sans-Serif" font-weight="bold" font-size="11.00" fill="#000000">common_zone</text>
<text text-anchor="start" x="105.0437" y="-111.3" font-family="Helvetica,sans-Serif" font-size="11.00" fill="#000000">[table]</text>
<polygon fill="none" stroke="#000000" points="8,-81.2 8,-103.2 140,-103.2 140,-81.2 8,-81.2"/>
<image xlink:href="../../images/primaryKeys.png" width="11px" height="12px" preserveAspectRatio="xMinYMin meet" x="13" y="-98.2"/>
<text text-anchor="start" x="28" y="-88.3" font-family="Helvetica,sans-Serif" font-size="11.00" fill="#000000">ID</text>
<polygon fill="none" stroke="#000000" points="8,-62.2 8,-81.2 140,-81.2 140,-62.2 8,-62.2"/>
<text text-anchor="start" x="11" y="-68.3" font-family="Helvetica,sans-Serif" font-size="11.00" fill="#000000">...</text>
<polygon fill="#ffffff" stroke="transparent" points="8,-43.2 8,-62.2 47,-62.2 47,-43.2 8,-43.2"/>
<polygon fill="none" stroke="#000000" points="8,-43.2 8,-62.2 47,-62.2 47,-43.2 8,-43.2"/>
<text text-anchor="start" x="11" y="-49.3" font-family="Helvetica,sans-Serif" font-size="11.00" fill="#000000"> &#160;</text>
<polygon fill="#ffffff" stroke="transparent" points="47,-43.2 47,-62.2 105,-62.2 105,-43.2 47,-43.2"/>
<polygon fill="none" stroke="#000000" points="47,-43.2 47,-62.2 105,-62.2 105,-43.2 47,-43.2"/>
<text text-anchor="start" x="63.4956" y="-49.3" font-family="Helvetica,sans-Serif" font-size="11.00" fill="#000000">11 rows</text>
<polygon fill="#ffffff" stroke="transparent" points="105,-43.2 105,-62.2 140,-62.2 140,-43.2 105,-43.2"/>
<polygon fill="none" stroke="#000000" points="105,-43.2 105,-62.2 140,-62.2 140,-43.2 105,-43.2"/>
<text text-anchor="start" x="121.4053" y="-49.3" font-family="Helvetica,sans-Serif" font-size="11.00" fill="#000000">2 &gt;</text>
</a>
</g>
</g>
<!-- common_zonearea&#45;&gt;common_zone -->
<g id="edge1" class="edge">
<title>common_zonearea:w&#45;&gt;common_zone:e</title>
<path fill="none" stroke="#000000" stroke-dasharray="5,2" d="M176.276,-92.2C164.2815,-92.2 156.8229,-92.2 140,-92.2"/>
<polygon fill="#000000" stroke="#000000" points="183,-92.2001 191,-95.8 187,-92.2 191,-92.2 191,-92.2 191,-92.2 187,-92.2 191,-88.6 183,-92.2001 183,-92.2001"/>
<ellipse fill="none" stroke="#000000" cx="179.8" cy="-92.2001" rx="3.2" ry="3.2"/>
</g>
</g>
</svg>
