<?xml version="1.0" encoding="UTF-8" standalone="no"?>
<!DOCTYPE svg PUBLIC "-//W3C//DTD SVG 1.1//EN"
 "http://www.w3.org/Graphics/SVG/1.1/DTD/svg11.dtd">
<!-- Generated by graphviz version 2.40.1 (20161225.0304)
 -->
<!-- Title: twoDegreesRelationshipsDiagram Pages: 1 -->
<svg width="804pt" height="897pt"
 viewBox="0.00 0.00 804.00 897.20" xmlns="http://www.w3.org/2000/svg" xmlns:xlink="http://www.w3.org/1999/xlink">
<g id="graph0" class="graph" transform="scale(1 1) rotate(0) translate(4 893.2)">
<title>twoDegreesRelationshipsDiagram</title>
<polygon fill="#ffffff" stroke="transparent" points="-4,4 -4,-893.2 800,-893.2 800,4 -4,4"/>
<text text-anchor="middle" x="72.4936" y="-7.3" font-family="Helvetica,sans-Serif" font-size="11.00" fill="#000000">Generated by SchemaSpy</text>
<!-- common_contact -->
<g id="node1" class="node">
<title>common_contact</title>
<g id="a_node1"><a xlink:href="../../tables/common_contact.html" xlink:title="common_contact" target="_top">
<polygon fill="#ffffff" stroke="transparent" points="390.5,-610.2 390.5,-737.2 541.5,-737.2 541.5,-610.2 390.5,-610.2"/>
<polygon fill="#f5f5f5" stroke="transparent" points="391,-713.7 391,-736.7 542,-736.7 542,-713.7 391,-713.7"/>
<polygon fill="none" stroke="#000000" points="391,-713.7 391,-736.7 542,-736.7 542,-713.7 391,-713.7"/>
<text text-anchor="start" x="396" y="-722.3" font-family="Helvetica,sans-Serif" font-weight="bold" font-size="11.00" fill="#000000">common_contact</text>
<text text-anchor="start" x="507.0437" y="-721.8" font-family="Helvetica,sans-Serif" font-size="11.00" fill="#000000">[table]</text>
<polygon fill="none" stroke="#000000" points="391,-691.7 391,-713.7 542,-713.7 542,-691.7 391,-691.7"/>
<image xlink:href="../../images/primaryKeys.png" width="11px" height="12px" preserveAspectRatio="xMinYMin meet" x="396" y="-708.7"/>
<text text-anchor="start" x="411" y="-698.8" font-family="Helvetica,sans-Serif" font-size="11.00" fill="#000000">ID</text>
<polygon fill="#ffffff" stroke="transparent" points="391,-669.7 391,-691.7 542,-691.7 542,-669.7 391,-669.7"/>
<polygon fill="none" stroke="#000000" points="391,-669.7 391,-691.7 542,-691.7 542,-669.7 391,-669.7"/>
<image xlink:href="../../images/foreignKeys.png" width="11px" height="12px" preserveAspectRatio="xMinYMin meet" x="396" y="-686.7"/>
<text text-anchor="start" x="411" y="-676.8" font-family="Helvetica,sans-Serif" font-size="11.00" fill="#000000">Common_DealerFK</text>
<polygon fill="#ffffff" stroke="transparent" points="391,-647.7 391,-669.7 542,-669.7 542,-647.7 391,-647.7"/>
<polygon fill="none" stroke="#000000" points="391,-647.7 391,-669.7 542,-669.7 542,-647.7 391,-647.7"/>
<image xlink:href="../../images/foreignKeys.png" width="11px" height="12px" preserveAspectRatio="xMinYMin meet" x="396" y="-664.7"/>
<text text-anchor="start" x="411" y="-654.8" font-family="Helvetica,sans-Serif" font-size="11.00" fill="#000000">Common_CustomerFK</text>
<polygon fill="none" stroke="#000000" points="391,-628.7 391,-647.7 542,-647.7 542,-628.7 391,-628.7"/>
<text text-anchor="start" x="394" y="-634.8" font-family="Helvetica,sans-Serif" font-size="11.00" fill="#000000">...</text>
<polygon fill="#ffffff" stroke="transparent" points="391,-609.7 391,-628.7 452,-628.7 452,-609.7 391,-609.7"/>
<polygon fill="none" stroke="#000000" points="391,-609.7 391,-628.7 452,-628.7 452,-609.7 391,-609.7"/>
<text text-anchor="start" x="394" y="-615.8" font-family="Helvetica,sans-Serif" font-size="11.00" fill="#000000">&lt; 2</text>
<polygon fill="#ffffff" stroke="transparent" points="452,-609.7 452,-628.7 510,-628.7 510,-609.7 452,-609.7"/>
<polygon fill="none" stroke="#000000" points="452,-609.7 452,-628.7 510,-628.7 510,-609.7 452,-609.7"/>
<text text-anchor="start" x="474.6105" y="-615.8" font-family="Helvetica,sans-Serif" font-size="11.00" fill="#000000">0 rows</text>
<polygon fill="#ffffff" stroke="transparent" points="510,-609.7 510,-628.7 542,-628.7 542,-609.7 510,-609.7"/>
<polygon fill="none" stroke="#000000" points="510,-609.7 510,-628.7 542,-628.7 542,-609.7 510,-609.7"/>
<text text-anchor="start" x="532.8862" y="-615.8" font-family="Helvetica,sans-Serif" font-size="11.00" fill="#000000"> &#160;</text>
</a>
</g>
</g>
<!-- common_customer -->
<g id="node2" class="node">
<title>common_customer</title>
<g id="a_node2"><a xlink:href="../../tables/common_customer.html" xlink:title="common_customer" target="_top">
<polygon fill="#ffffff" stroke="transparent" points="89,-770.2 89,-831.2 238,-831.2 238,-770.2 89,-770.2"/>
<polygon fill="#f5f5f5" stroke="transparent" points="89.5,-807.7 89.5,-830.7 238.5,-830.7 238.5,-807.7 89.5,-807.7"/>
<polygon fill="none" stroke="#000000" points="89.5,-807.7 89.5,-830.7 238.5,-830.7 238.5,-807.7 89.5,-807.7"/>
<text text-anchor="start" x="94.5" y="-816.3" font-family="Helvetica,sans-Serif" font-weight="bold" font-size="11.00" fill="#000000">common_customer</text>
<text text-anchor="start" x="204.0219" y="-815.8" font-family="Helvetica,sans-Serif" font-size="11.00" fill="#000000">[table]</text>
<polygon fill="none" stroke="#000000" points="89.5,-788.7 89.5,-807.7 238.5,-807.7 238.5,-788.7 89.5,-788.7"/>
<text text-anchor="start" x="92.5" y="-794.8" font-family="Helvetica,sans-Serif" font-size="11.00" fill="#000000">...</text>
<polygon fill="#ffffff" stroke="transparent" points="89.5,-769.7 89.5,-788.7 134.5,-788.7 134.5,-769.7 89.5,-769.7"/>
<polygon fill="none" stroke="#000000" points="89.5,-769.7 89.5,-788.7 134.5,-788.7 134.5,-769.7 89.5,-769.7"/>
<text text-anchor="start" x="92.5" y="-775.8" font-family="Helvetica,sans-Serif" font-size="11.00" fill="#000000"> &#160;</text>
<polygon fill="#ffffff" stroke="transparent" points="134.5,-769.7 134.5,-788.7 200.5,-788.7 200.5,-769.7 134.5,-769.7"/>
<polygon fill="none" stroke="#000000" points="134.5,-769.7 134.5,-788.7 200.5,-788.7 200.5,-769.7 134.5,-769.7"/>
<text text-anchor="start" x="152.8807" y="-775.8" font-family="Helvetica,sans-Serif" font-size="11.00" fill="#000000">147 rows</text>
<polygon fill="#ffffff" stroke="transparent" points="200.5,-769.7 200.5,-788.7 238.5,-788.7 238.5,-769.7 200.5,-769.7"/>
<polygon fill="none" stroke="#000000" points="200.5,-769.7 200.5,-788.7 238.5,-788.7 238.5,-769.7 200.5,-769.7"/>
<text text-anchor="start" x="219.9053" y="-775.8" font-family="Helvetica,sans-Serif" font-size="11.00" fill="#000000">2 &gt;</text>
</a>
</g>
</g>
<!-- common_contact&#45;&gt;common_customer -->
<g id="edge1" class="edge">
<title>common_contact:w&#45;&gt;common_customer:e</title>
<path fill="none" stroke="#000000" d="M376.4398,-660.8422C350.7748,-669.5756 353.5165,-703.1903 327,-727.7 290.1725,-761.7404 288.6499,-797.7 238.5,-797.7"/>
<polygon fill="#000000" stroke="#000000" points="383.0852,-659.8645 391.524,-662.2617 387.0426,-659.2823 391,-658.7 391,-658.7 391,-658.7 387.0426,-659.2823 390.476,-655.1383 383.0852,-659.8645 383.0852,-659.8645"/>
<ellipse fill="none" stroke="#000000" cx="379.9193" cy="-660.3303" rx="3.2" ry="3.2"/>
</g>
<!-- common_dealer -->
<g id="node3" class="node">
<title>common_dealer</title>
<g id="a_node3"><a xlink:href="../../tables/common_dealer.html" xlink:title="common_dealer" target="_top">
<polygon fill="#ffffff" stroke="transparent" points="8,-120.7 8,-716.7 319,-716.7 319,-120.7 8,-120.7"/>
<polygon fill="#f5f5f5" stroke="transparent" points="10.5,-691.7 10.5,-714.7 317.5,-714.7 317.5,-691.7 10.5,-691.7"/>
<polygon fill="none" stroke="#000000" points="10.5,-691.7 10.5,-714.7 317.5,-714.7 317.5,-691.7 10.5,-691.7"/>
<text text-anchor="start" x="15.5" y="-700.3" font-family="Helvetica,sans-Serif" font-weight="bold" font-size="11.00" fill="#000000">common_dealer</text>
<text text-anchor="start" x="282.5437" y="-699.8" font-family="Helvetica,sans-Serif" font-size="11.00" fill="#000000">[table]</text>
<polygon fill="none" stroke="#000000" points="10.5,-669.7 10.5,-691.7 206.5,-691.7 206.5,-669.7 10.5,-669.7"/>
<image xlink:href="../../images/primaryKeys.png" width="11px" height="12px" preserveAspectRatio="xMinYMin meet" x="15.5" y="-686.7"/>
<text text-anchor="start" x="30.5" y="-676.8" font-family="Helvetica,sans-Serif" font-size="11.00" fill="#000000">ID</text>
<polygon fill="none" stroke="#000000" points="206.5,-669.7 206.5,-691.7 317.5,-691.7 317.5,-669.7 206.5,-669.7"/>
<text text-anchor="start" x="209.5" y="-677.4" font-family="Helvetica,sans-Serif" font-size="11.00" fill="#000000">int[10]</text>
<polygon fill="none" stroke="#000000" points="10.5,-647.7 10.5,-669.7 206.5,-669.7 206.5,-647.7 10.5,-647.7"/>
<text text-anchor="start" x="30.5" y="-654.8" font-family="Helvetica,sans-Serif" font-size="11.00" fill="#000000">Active</text>
<polygon fill="none" stroke="#000000" points="206.5,-647.7 206.5,-669.7 317.5,-669.7 317.5,-647.7 206.5,-647.7"/>
<text text-anchor="start" x="209.5" y="-655.4" font-family="Helvetica,sans-Serif" font-size="11.00" fill="#000000">bit[1]</text>
<polygon fill="none" stroke="#000000" points="10.5,-625.7 10.5,-647.7 206.5,-647.7 206.5,-625.7 10.5,-625.7"/>
<text text-anchor="start" x="30.5" y="-632.8" font-family="Helvetica,sans-Serif" font-size="11.00" fill="#000000">User</text>
<polygon fill="none" stroke="#000000" points="206.5,-625.7 206.5,-647.7 317.5,-647.7 317.5,-625.7 206.5,-625.7"/>
<text text-anchor="start" x="209.1115" y="-633.4" font-family="Helvetica,sans-Serif" font-size="11.00" fill="#000000">longtext[2147483647]</text>
<polygon fill="none" stroke="#000000" points="10.5,-603.7 10.5,-625.7 206.5,-625.7 206.5,-603.7 10.5,-603.7"/>
<text text-anchor="start" x="30.5" y="-610.8" font-family="Helvetica,sans-Serif" font-size="11.00" fill="#000000">CD</text>
<polygon fill="none" stroke="#000000" points="206.5,-603.7 206.5,-625.7 317.5,-625.7 317.5,-603.7 206.5,-603.7"/>
<text text-anchor="start" x="209.5" y="-611.4" font-family="Helvetica,sans-Serif" font-size="11.00" fill="#000000">datetime[26]</text>
<polygon fill="none" stroke="#000000" points="10.5,-581.7 10.5,-603.7 206.5,-603.7 206.5,-581.7 10.5,-581.7"/>
<text text-anchor="start" x="30.5" y="-588.8" font-family="Helvetica,sans-Serif" font-size="11.00" fill="#000000">UD</text>
<polygon fill="none" stroke="#000000" points="206.5,-581.7 206.5,-603.7 317.5,-603.7 317.5,-581.7 206.5,-581.7"/>
<text text-anchor="start" x="209.5" y="-589.4" font-family="Helvetica,sans-Serif" font-size="11.00" fill="#000000">datetime[26]</text>
<polygon fill="none" stroke="#000000" points="10.5,-559.7 10.5,-581.7 206.5,-581.7 206.5,-559.7 10.5,-559.7"/>
<text text-anchor="start" x="30.5" y="-566.8" font-family="Helvetica,sans-Serif" font-size="11.00" fill="#000000">Remarks</text>
<polygon fill="none" stroke="#000000" points="206.5,-559.7 206.5,-581.7 317.5,-581.7 317.5,-559.7 206.5,-559.7"/>
<text text-anchor="start" x="209.1115" y="-567.4" font-family="Helvetica,sans-Serif" font-size="11.00" fill="#000000">longtext[2147483647]</text>
<polygon fill="none" stroke="#000000" points="10.5,-537.7 10.5,-559.7 206.5,-559.7 206.5,-537.7 10.5,-537.7"/>
<text text-anchor="start" x="30.5" y="-544.8" font-family="Helvetica,sans-Serif" font-size="11.00" fill="#000000">UserID</text>
<polygon fill="none" stroke="#000000" points="206.5,-537.7 206.5,-559.7 317.5,-559.7 317.5,-537.7 206.5,-537.7"/>
<text text-anchor="start" x="209.5" y="-545.4" font-family="Helvetica,sans-Serif" font-size="11.00" fill="#000000">int[10]</text>
<polygon fill="none" stroke="#000000" points="10.5,-515.7 10.5,-537.7 206.5,-537.7 206.5,-515.7 10.5,-515.7"/>
<text text-anchor="start" x="30.5" y="-522.8" font-family="Helvetica,sans-Serif" font-size="11.00" fill="#000000">Code</text>
<polygon fill="none" stroke="#000000" points="206.5,-515.7 206.5,-537.7 317.5,-537.7 317.5,-515.7 206.5,-515.7"/>
<text text-anchor="start" x="209.1115" y="-523.4" font-family="Helvetica,sans-Serif" font-size="11.00" fill="#000000">longtext[2147483647]</text>
<polygon fill="none" stroke="#000000" points="10.5,-493.7 10.5,-515.7 206.5,-515.7 206.5,-493.7 10.5,-493.7"/>
<text text-anchor="start" x="30.5" y="-500.8" font-family="Helvetica,sans-Serif" font-size="11.00" fill="#000000">Name</text>
<polygon fill="none" stroke="#000000" points="206.5,-493.7 206.5,-515.7 317.5,-515.7 317.5,-493.7 206.5,-493.7"/>
<text text-anchor="start" x="209.1115" y="-501.4" font-family="Helvetica,sans-Serif" font-size="11.00" fill="#000000">longtext[2147483647]</text>
<polygon fill="none" stroke="#000000" points="10.5,-471.7 10.5,-493.7 206.5,-493.7 206.5,-471.7 10.5,-471.7"/>
<text text-anchor="start" x="30.5" y="-478.8" font-family="Helvetica,sans-Serif" font-size="11.00" fill="#000000">Common_DealerShipTypeFK</text>
<polygon fill="none" stroke="#000000" points="206.5,-471.7 206.5,-493.7 317.5,-493.7 317.5,-471.7 206.5,-471.7"/>
<text text-anchor="start" x="209.5" y="-479.4" font-family="Helvetica,sans-Serif" font-size="11.00" fill="#000000">int[10]</text>
<polygon fill="none" stroke="#000000" points="10.5,-449.7 10.5,-471.7 206.5,-471.7 206.5,-449.7 10.5,-449.7"/>
<text text-anchor="start" x="30.5" y="-456.8" font-family="Helvetica,sans-Serif" font-size="11.00" fill="#000000">Common_DistrictFK</text>
<polygon fill="none" stroke="#000000" points="206.5,-449.7 206.5,-471.7 317.5,-471.7 317.5,-449.7 206.5,-449.7"/>
<text text-anchor="start" x="209.5" y="-457.4" font-family="Helvetica,sans-Serif" font-size="11.00" fill="#000000">int[10]</text>
<polygon fill="none" stroke="#000000" points="10.5,-427.7 10.5,-449.7 206.5,-449.7 206.5,-427.7 10.5,-427.7"/>
<text text-anchor="start" x="30.5" y="-434.8" font-family="Helvetica,sans-Serif" font-size="11.00" fill="#000000">Address</text>
<polygon fill="none" stroke="#000000" points="206.5,-427.7 206.5,-449.7 317.5,-449.7 317.5,-427.7 206.5,-427.7"/>
<text text-anchor="start" x="209.1115" y="-435.4" font-family="Helvetica,sans-Serif" font-size="11.00" fill="#000000">longtext[2147483647]</text>
<polygon fill="none" stroke="#000000" points="10.5,-405.7 10.5,-427.7 206.5,-427.7 206.5,-405.7 10.5,-405.7"/>
<text text-anchor="start" x="30.5" y="-412.8" font-family="Helvetica,sans-Serif" font-size="11.00" fill="#000000">ContactNo</text>
<polygon fill="none" stroke="#000000" points="206.5,-405.7 206.5,-427.7 317.5,-427.7 317.5,-405.7 206.5,-405.7"/>
<text text-anchor="start" x="209.1115" y="-413.4" font-family="Helvetica,sans-Serif" font-size="11.00" fill="#000000">longtext[2147483647]</text>
<polygon fill="none" stroke="#000000" points="10.5,-383.7 10.5,-405.7 206.5,-405.7 206.5,-383.7 10.5,-383.7"/>
<text text-anchor="start" x="30.5" y="-390.8" font-family="Helvetica,sans-Serif" font-size="11.00" fill="#000000">Email</text>
<polygon fill="none" stroke="#000000" points="206.5,-383.7 206.5,-405.7 317.5,-405.7 317.5,-383.7 206.5,-383.7"/>
<text text-anchor="start" x="209.1115" y="-391.4" font-family="Helvetica,sans-Serif" font-size="11.00" fill="#000000">longtext[2147483647]</text>
<polygon fill="none" stroke="#000000" points="10.5,-361.7 10.5,-383.7 206.5,-383.7 206.5,-361.7 10.5,-361.7"/>
<text text-anchor="start" x="30.5" y="-368.8" font-family="Helvetica,sans-Serif" font-size="11.00" fill="#000000">IsLock</text>
<polygon fill="none" stroke="#000000" points="206.5,-361.7 206.5,-383.7 317.5,-383.7 317.5,-361.7 206.5,-361.7"/>
<text text-anchor="start" x="209.5" y="-369.4" font-family="Helvetica,sans-Serif" font-size="11.00" fill="#000000">bit[1]</text>
<polygon fill="none" stroke="#000000" points="10.5,-339.7 10.5,-361.7 206.5,-361.7 206.5,-339.7 10.5,-339.7"/>
<text text-anchor="start" x="30.5" y="-346.8" font-family="Helvetica,sans-Serif" font-size="11.00" fill="#000000">Common_CompanyInfoFK</text>
<polygon fill="none" stroke="#000000" points="206.5,-339.7 206.5,-361.7 317.5,-361.7 317.5,-339.7 206.5,-339.7"/>
<text text-anchor="start" x="209.5" y="-347.4" font-family="Helvetica,sans-Serif" font-size="11.00" fill="#000000">int[10]</text>
<polygon fill="none" stroke="#000000" points="10.5,-317.7 10.5,-339.7 206.5,-339.7 206.5,-317.7 10.5,-317.7"/>
<text text-anchor="start" x="30.5" y="-324.8" font-family="Helvetica,sans-Serif" font-size="11.00" fill="#000000">MasterFK</text>
<polygon fill="none" stroke="#000000" points="206.5,-317.7 206.5,-339.7 317.5,-339.7 317.5,-317.7 206.5,-317.7"/>
<text text-anchor="start" x="209.5" y="-325.4" font-family="Helvetica,sans-Serif" font-size="11.00" fill="#000000">int[10]</text>
<polygon fill="none" stroke="#000000" points="10.5,-295.7 10.5,-317.7 206.5,-317.7 206.5,-295.7 10.5,-295.7"/>
<text text-anchor="start" x="30.5" y="-302.8" font-family="Helvetica,sans-Serif" font-size="11.00" fill="#000000">Common_TermsNConditionFK</text>
<polygon fill="none" stroke="#000000" points="206.5,-295.7 206.5,-317.7 317.5,-317.7 317.5,-295.7 206.5,-295.7"/>
<text text-anchor="start" x="209.5" y="-303.4" font-family="Helvetica,sans-Serif" font-size="11.00" fill="#000000">int[10]</text>
<polygon fill="none" stroke="#000000" points="10.5,-273.7 10.5,-295.7 206.5,-295.7 206.5,-273.7 10.5,-273.7"/>
<text text-anchor="start" x="30.5" y="-280.8" font-family="Helvetica,sans-Serif" font-size="11.00" fill="#000000">HasReference</text>
<polygon fill="none" stroke="#000000" points="206.5,-273.7 206.5,-295.7 317.5,-295.7 317.5,-273.7 206.5,-273.7"/>
<text text-anchor="start" x="209.5" y="-281.4" font-family="Helvetica,sans-Serif" font-size="11.00" fill="#000000">bit[1]</text>
<polygon fill="none" stroke="#000000" points="10.5,-251.7 10.5,-273.7 206.5,-273.7 206.5,-251.7 10.5,-251.7"/>
<text text-anchor="start" x="30.5" y="-258.8" font-family="Helvetica,sans-Serif" font-size="11.00" fill="#000000">Rate</text>
<polygon fill="none" stroke="#000000" points="206.5,-251.7 206.5,-273.7 317.5,-273.7 317.5,-251.7 206.5,-251.7"/>
<text text-anchor="start" x="209.5" y="-259.4" font-family="Helvetica,sans-Serif" font-size="11.00" fill="#000000">decimal[18,2]</text>
<polygon fill="none" stroke="#000000" points="10.5,-229.7 10.5,-251.7 206.5,-251.7 206.5,-229.7 10.5,-229.7"/>
<text text-anchor="start" x="30.5" y="-236.8" font-family="Helvetica,sans-Serif" font-size="11.00" fill="#000000">CompanyType</text>
<polygon fill="none" stroke="#000000" points="206.5,-229.7 206.5,-251.7 317.5,-251.7 317.5,-229.7 206.5,-229.7"/>
<text text-anchor="start" x="209.5" y="-237.4" font-family="Helvetica,sans-Serif" font-size="11.00" fill="#000000">int[10]</text>
<polygon fill="none" stroke="#000000" points="10.5,-207.7 10.5,-229.7 206.5,-229.7 206.5,-207.7 10.5,-207.7"/>
<text text-anchor="start" x="30.5" y="-214.8" font-family="Helvetica,sans-Serif" font-size="11.00" fill="#000000">TINNumber</text>
<polygon fill="none" stroke="#000000" points="206.5,-207.7 206.5,-229.7 317.5,-229.7 317.5,-207.7 206.5,-207.7"/>
<text text-anchor="start" x="209.1115" y="-215.4" font-family="Helvetica,sans-Serif" font-size="11.00" fill="#000000">longtext[2147483647]</text>
<polygon fill="none" stroke="#000000" points="10.5,-185.7 10.5,-207.7 206.5,-207.7 206.5,-185.7 10.5,-185.7"/>
<text text-anchor="start" x="30.5" y="-192.8" font-family="Helvetica,sans-Serif" font-size="11.00" fill="#000000">TRDLicense</text>
<polygon fill="none" stroke="#000000" points="206.5,-185.7 206.5,-207.7 317.5,-207.7 317.5,-185.7 206.5,-185.7"/>
<text text-anchor="start" x="209.1115" y="-193.4" font-family="Helvetica,sans-Serif" font-size="11.00" fill="#000000">longtext[2147483647]</text>
<polygon fill="none" stroke="#000000" points="10.5,-163.7 10.5,-185.7 206.5,-185.7 206.5,-163.7 10.5,-163.7"/>
<text text-anchor="start" x="30.5" y="-170.8" font-family="Helvetica,sans-Serif" font-size="11.00" fill="#000000">VATNumber</text>
<polygon fill="none" stroke="#000000" points="206.5,-163.7 206.5,-185.7 317.5,-185.7 317.5,-163.7 206.5,-163.7"/>
<text text-anchor="start" x="209.1115" y="-171.4" font-family="Helvetica,sans-Serif" font-size="11.00" fill="#000000">longtext[2147483647]</text>
<polygon fill="none" stroke="#000000" points="10.5,-141.7 10.5,-163.7 206.5,-163.7 206.5,-141.7 10.5,-141.7"/>
<text text-anchor="start" x="30.5" y="-148.8" font-family="Helvetica,sans-Serif" font-size="11.00" fill="#000000">MaxTaxDiscountRate</text>
<polygon fill="none" stroke="#000000" points="206.5,-141.7 206.5,-163.7 317.5,-163.7 317.5,-141.7 206.5,-141.7"/>
<text text-anchor="start" x="209.5" y="-149.4" font-family="Helvetica,sans-Serif" font-size="11.00" fill="#000000">decimal[18,2]</text>
<polygon fill="#ffffff" stroke="transparent" points="10.5,-122.7 10.5,-141.7 96.5,-141.7 96.5,-122.7 10.5,-122.7"/>
<polygon fill="none" stroke="#000000" points="10.5,-122.7 10.5,-141.7 96.5,-141.7 96.5,-122.7 10.5,-122.7"/>
<text text-anchor="start" x="13.5" y="-128.8" font-family="Helvetica,sans-Serif" font-size="11.00" fill="#000000">&lt; 0</text>
<polygon fill="#ffffff" stroke="transparent" points="96.5,-122.7 96.5,-141.7 206.5,-141.7 206.5,-122.7 96.5,-122.7"/>
<polygon fill="none" stroke="#000000" points="96.5,-122.7 96.5,-141.7 206.5,-141.7 206.5,-122.7 96.5,-122.7"/>
<text text-anchor="start" x="164.9956" y="-128.8" font-family="Helvetica,sans-Serif" font-size="11.00" fill="#000000">62 rows</text>
<polygon fill="#ffffff" stroke="transparent" points="206.5,-122.7 206.5,-141.7 317.5,-141.7 317.5,-122.7 206.5,-122.7"/>
<polygon fill="none" stroke="#000000" points="206.5,-122.7 206.5,-141.7 317.5,-141.7 317.5,-122.7 206.5,-122.7"/>
<text text-anchor="start" x="298.9053" y="-128.8" font-family="Helvetica,sans-Serif" font-size="11.00" fill="#000000">4 &gt;</text>
<polygon fill="none" stroke="#000000" stroke-width="2" points="9,-121.7 9,-715.7 318,-715.7 318,-121.7 9,-121.7"/>
</a>
</g>
</g>
<!-- common_contact&#45;&gt;common_dealer -->
<g id="edge2" class="edge">
<title>common_contact:w&#45;&gt;common_dealer:e</title>
<path fill="none" stroke="#000000" d="M376.3805,-680.7C354.8986,-680.7 344.6797,-680.7 317.5,-680.7"/>
<polygon fill="#000000" stroke="#000000" points="383,-680.7001 391,-684.3 387,-680.7 391,-680.7 391,-680.7 391,-680.7 387,-680.7 391,-677.1 383,-680.7001 383,-680.7001"/>
<ellipse fill="none" stroke="#000000" cx="379.8" cy="-680.7001" rx="3.2" ry="3.2"/>
</g>
<!-- common_dealerproduct -->
<g id="node4" class="node">
<title>common_dealerproduct</title>
<g id="a_node4"><a xlink:href="../../tables/common_dealerproduct.html" xlink:title="common_dealerproduct" target="_top">
<polygon fill="#ffffff" stroke="transparent" points="613,-470.2 613,-597.2 788,-597.2 788,-470.2 613,-470.2"/>
<polygon fill="#f5f5f5" stroke="transparent" points="613.5,-573.7 613.5,-596.7 788.5,-596.7 788.5,-573.7 613.5,-573.7"/>
<polygon fill="none" stroke="#000000" points="613.5,-573.7 613.5,-596.7 788.5,-596.7 788.5,-573.7 613.5,-573.7"/>
<text text-anchor="start" x="618.5" y="-582.3" font-family="Helvetica,sans-Serif" font-weight="bold" font-size="11.00" fill="#000000">common_dealerproduct</text>
<text text-anchor="start" x="754.0219" y="-581.8" font-family="Helvetica,sans-Serif" font-size="11.00" fill="#000000">[table]</text>
<polygon fill="none" stroke="#000000" points="613.5,-551.7 613.5,-573.7 788.5,-573.7 788.5,-551.7 613.5,-551.7"/>
<image xlink:href="../../images/primaryKeys.png" width="11px" height="12px" preserveAspectRatio="xMinYMin meet" x="618.5" y="-568.7"/>
<text text-anchor="start" x="642.5" y="-558.8" font-family="Helvetica,sans-Serif" font-size="11.00" fill="#000000">ID</text>
<polygon fill="#ffffff" stroke="transparent" points="613.5,-529.7 613.5,-551.7 788.5,-551.7 788.5,-529.7 613.5,-529.7"/>
<polygon fill="none" stroke="#000000" points="613.5,-529.7 613.5,-551.7 788.5,-551.7 788.5,-529.7 613.5,-529.7"/>
<image xlink:href="../../images/foreignKeys.png" width="11px" height="12px" preserveAspectRatio="xMinYMin meet" x="618.5" y="-546.7"/>
<text text-anchor="start" x="642.5" y="-536.8" font-family="Helvetica,sans-Serif" font-size="11.00" fill="#000000">Common_DealerFK</text>
<polygon fill="#ffffff" stroke="transparent" points="613.5,-507.7 613.5,-529.7 788.5,-529.7 788.5,-507.7 613.5,-507.7"/>
<polygon fill="none" stroke="#000000" points="613.5,-507.7 613.5,-529.7 788.5,-529.7 788.5,-507.7 613.5,-507.7"/>
<image xlink:href="../../images/foreignKeys.png" width="11px" height="12px" preserveAspectRatio="xMinYMin meet" x="618.5" y="-524.7"/>
<text text-anchor="start" x="642.5" y="-514.8" font-family="Helvetica,sans-Serif" font-size="11.00" fill="#000000">Common_ProductFK</text>
<polygon fill="none" stroke="#000000" points="613.5,-488.7 613.5,-507.7 788.5,-507.7 788.5,-488.7 613.5,-488.7"/>
<text text-anchor="start" x="616.5" y="-494.8" font-family="Helvetica,sans-Serif" font-size="11.00" fill="#000000">...</text>
<polygon fill="#ffffff" stroke="transparent" points="613.5,-469.7 613.5,-488.7 680.5,-488.7 680.5,-469.7 613.5,-469.7"/>
<polygon fill="none" stroke="#000000" points="613.5,-469.7 613.5,-488.7 680.5,-488.7 680.5,-469.7 613.5,-469.7"/>
<text text-anchor="start" x="616.5" y="-475.8" font-family="Helvetica,sans-Serif" font-size="11.00" fill="#000000">&lt; 2</text>
<polygon fill="#ffffff" stroke="transparent" points="680.5,-469.7 680.5,-488.7 753.5,-488.7 753.5,-469.7 680.5,-469.7"/>
<polygon fill="none" stroke="#000000" points="680.5,-469.7 680.5,-488.7 753.5,-488.7 753.5,-469.7 680.5,-469.7"/>
<text text-anchor="start" x="705.8807" y="-475.8" font-family="Helvetica,sans-Serif" font-size="11.00" fill="#000000">427 rows</text>
<polygon fill="#ffffff" stroke="transparent" points="753.5,-469.7 753.5,-488.7 788.5,-488.7 788.5,-469.7 753.5,-469.7"/>
<polygon fill="none" stroke="#000000" points="753.5,-469.7 753.5,-488.7 788.5,-488.7 788.5,-469.7 753.5,-469.7"/>
<text text-anchor="start" x="779.3862" y="-475.8" font-family="Helvetica,sans-Serif" font-size="11.00" fill="#000000"> &#160;</text>
</a>
</g>
</g>
<!-- common_dealerproduct&#45;&gt;common_dealer -->
<g id="edge3" class="edge">
<title>common_dealerproduct:w&#45;&gt;common_dealer:e</title>
<path fill="none" stroke="#000000" d="M599.4974,-536.9864C590.7083,-531.4948 586.5146,-521.4532 572,-517.7 480.7781,-494.1119 434.5577,-460.0895 360,-517.7 300.7584,-563.4758 392.3665,-680.7 317.5,-680.7"/>
<polygon fill="#000000" stroke="#000000" points="605.7673,-538.6492 612.5771,-544.1797 609.6337,-539.6746 613.5,-540.7 613.5,-540.7 613.5,-540.7 609.6337,-539.6746 614.4229,-537.2203 605.7673,-538.6492 605.7673,-538.6492"/>
<ellipse fill="none" stroke="#000000" cx="602.6742" cy="-537.8289" rx="3.2" ry="3.2"/>
</g>
<!-- common_product -->
<g id="node5" class="node">
<title>common_product</title>
<g id="a_node5"><a xlink:href="../../tables/common_product.html" xlink:title="common_product" target="_top">
<polygon fill="#ffffff" stroke="transparent" points="396,-528.2 396,-589.2 536,-589.2 536,-528.2 396,-528.2"/>
<polygon fill="#f5f5f5" stroke="transparent" points="396,-565.7 396,-588.7 536,-588.7 536,-565.7 396,-565.7"/>
<polygon fill="none" stroke="#000000" points="396,-565.7 396,-588.7 536,-588.7 536,-565.7 396,-565.7"/>
<text text-anchor="start" x="401" y="-574.3" font-family="Helvetica,sans-Serif" font-weight="bold" font-size="11.00" fill="#000000">common_product</text>
<text text-anchor="start" x="501.5219" y="-573.8" font-family="Helvetica,sans-Serif" font-size="11.00" fill="#000000">[table]</text>
<polygon fill="none" stroke="#000000" points="396,-546.7 396,-565.7 536,-565.7 536,-546.7 396,-546.7"/>
<text text-anchor="start" x="399" y="-552.8" font-family="Helvetica,sans-Serif" font-size="11.00" fill="#000000">...</text>
<polygon fill="#ffffff" stroke="transparent" points="396,-527.7 396,-546.7 444,-546.7 444,-527.7 396,-527.7"/>
<polygon fill="none" stroke="#000000" points="396,-527.7 396,-546.7 444,-546.7 444,-527.7 396,-527.7"/>
<text text-anchor="start" x="399" y="-533.8" font-family="Helvetica,sans-Serif" font-size="11.00" fill="#000000">&lt; 1</text>
<polygon fill="#ffffff" stroke="transparent" points="444,-527.7 444,-546.7 501,-546.7 501,-527.7 444,-527.7"/>
<polygon fill="none" stroke="#000000" points="444,-527.7 444,-546.7 501,-546.7 501,-527.7 444,-527.7"/>
<text text-anchor="start" x="459.4956" y="-533.8" font-family="Helvetica,sans-Serif" font-size="11.00" fill="#000000">54 rows</text>
<polygon fill="#ffffff" stroke="transparent" points="501,-527.7 501,-546.7 536,-546.7 536,-527.7 501,-527.7"/>
<polygon fill="none" stroke="#000000" points="501,-527.7 501,-546.7 536,-546.7 536,-527.7 501,-527.7"/>
<text text-anchor="start" x="517.4053" y="-533.8" font-family="Helvetica,sans-Serif" font-size="11.00" fill="#000000">6 &gt;</text>
</a>
</g>
</g>
<!-- common_dealerproduct&#45;&gt;common_product -->
<g id="edge4" class="edge">
<title>common_dealerproduct:w&#45;&gt;common_product:e</title>
<path fill="none" stroke="#000000" d="M599.046,-520.7953C574.2223,-528.6224 568.652,-555.7 536,-555.7"/>
<polygon fill="#000000" stroke="#000000" points="605.5828,-519.8478 614.0165,-522.2628 609.5414,-519.2739 613.5,-518.7 613.5,-518.7 613.5,-518.7 609.5414,-519.2739 612.9835,-515.1372 605.5828,-519.8478 605.5828,-519.8478"/>
<ellipse fill="none" stroke="#000000" cx="602.4159" cy="-520.3069" rx="3.2" ry="3.2"/>
</g>
<!-- common_dealerzone -->
<g id="node6" class="node">
<title>common_dealerzone</title>
<g id="a_node6"><a xlink:href="../../tables/common_dealerzone.html" xlink:title="common_dealerzone" target="_top">
<polygon fill="#ffffff" stroke="transparent" points="387,-185.2 387,-312.2 545,-312.2 545,-185.2 387,-185.2"/>
<polygon fill="#f5f5f5" stroke="transparent" points="387,-288.7 387,-311.7 545,-311.7 545,-288.7 387,-288.7"/>
<polygon fill="none" stroke="#000000" points="387,-288.7 387,-311.7 545,-311.7 545,-288.7 387,-288.7"/>
<text text-anchor="start" x="392" y="-297.3" font-family="Helvetica,sans-Serif" font-weight="bold" font-size="11.00" fill="#000000">common_dealerzone</text>
<text text-anchor="start" x="510.5219" y="-296.8" font-family="Helvetica,sans-Serif" font-size="11.00" fill="#000000">[table]</text>
<polygon fill="none" stroke="#000000" points="387,-266.7 387,-288.7 545,-288.7 545,-266.7 387,-266.7"/>
<image xlink:href="../../images/primaryKeys.png" width="11px" height="12px" preserveAspectRatio="xMinYMin meet" x="392" y="-283.7"/>
<text text-anchor="start" x="416" y="-273.8" font-family="Helvetica,sans-Serif" font-size="11.00" fill="#000000">ID</text>
<polygon fill="#ffffff" stroke="transparent" points="387,-244.7 387,-266.7 545,-266.7 545,-244.7 387,-244.7"/>
<polygon fill="none" stroke="#000000" points="387,-244.7 387,-266.7 545,-266.7 545,-244.7 387,-244.7"/>
<image xlink:href="../../images/foreignKeys.png" width="11px" height="12px" preserveAspectRatio="xMinYMin meet" x="392" y="-261.7"/>
<text text-anchor="start" x="416" y="-251.8" font-family="Helvetica,sans-Serif" font-size="11.00" fill="#000000">Common_DealerFK</text>
<polygon fill="#ffffff" stroke="transparent" points="387,-222.7 387,-244.7 545,-244.7 545,-222.7 387,-222.7"/>
<polygon fill="none" stroke="#000000" points="387,-222.7 387,-244.7 545,-244.7 545,-222.7 387,-222.7"/>
<image xlink:href="../../images/foreignKeys.png" width="11px" height="12px" preserveAspectRatio="xMinYMin meet" x="392" y="-239.7"/>
<text text-anchor="start" x="416" y="-229.8" font-family="Helvetica,sans-Serif" font-size="11.00" fill="#000000">Common_ZoneFK</text>
<polygon fill="none" stroke="#000000" points="387,-203.7 387,-222.7 545,-222.7 545,-203.7 387,-203.7"/>
<text text-anchor="start" x="390" y="-209.8" font-family="Helvetica,sans-Serif" font-size="11.00" fill="#000000">...</text>
<polygon fill="#ffffff" stroke="transparent" points="387,-184.7 387,-203.7 448,-203.7 448,-184.7 387,-184.7"/>
<polygon fill="none" stroke="#000000" points="387,-184.7 387,-203.7 448,-203.7 448,-184.7 387,-184.7"/>
<text text-anchor="start" x="390" y="-190.8" font-family="Helvetica,sans-Serif" font-size="11.00" fill="#000000">&lt; 2</text>
<polygon fill="#ffffff" stroke="transparent" points="448,-184.7 448,-203.7 512,-203.7 512,-184.7 448,-184.7"/>
<polygon fill="none" stroke="#000000" points="448,-184.7 448,-203.7 512,-203.7 512,-184.7 448,-184.7"/>
<text text-anchor="start" x="470.4956" y="-190.8" font-family="Helvetica,sans-Serif" font-size="11.00" fill="#000000">52 rows</text>
<polygon fill="#ffffff" stroke="transparent" points="512,-184.7 512,-203.7 545,-203.7 545,-184.7 512,-184.7"/>
<polygon fill="none" stroke="#000000" points="512,-184.7 512,-203.7 545,-203.7 545,-184.7 512,-184.7"/>
<text text-anchor="start" x="535.8862" y="-190.8" font-family="Helvetica,sans-Serif" font-size="11.00" fill="#000000"> &#160;</text>
</a>
</g>
</g>
<!-- common_dealerzone&#45;&gt;common_dealer -->
<g id="edge5" class="edge">
<title>common_dealerzone:w&#45;&gt;common_dealer:e</title>
<path fill="none" stroke="#000000" d="M372.7538,-259.6359C304.4117,-302.4811 407.7785,-680.7 317.5,-680.7"/>
<polygon fill="#000000" stroke="#000000" points="379.2889,-257.8305 387.9587,-259.17 383.1444,-256.7652 387,-255.7 387,-255.7 387,-255.7 383.1444,-256.7652 386.0413,-252.23 379.2889,-257.8305 379.2889,-257.8305"/>
<ellipse fill="none" stroke="#000000" cx="376.2044" cy="-258.6827" rx="3.2" ry="3.2"/>
</g>
<!-- common_zone -->
<g id="node7" class="node">
<title>common_zone</title>
<g id="a_node7"><a xlink:href="../../tables/common_zone.html" xlink:title="common_zone" target="_top">
<polygon fill="#ffffff" stroke="transparent" points="102,-38.2 102,-99.2 225,-99.2 225,-38.2 102,-38.2"/>
<polygon fill="#f5f5f5" stroke="transparent" points="102.5,-75.7 102.5,-98.7 225.5,-98.7 225.5,-75.7 102.5,-75.7"/>
<polygon fill="none" stroke="#000000" points="102.5,-75.7 102.5,-98.7 225.5,-98.7 225.5,-75.7 102.5,-75.7"/>
<text text-anchor="start" x="107.5" y="-84.3" font-family="Helvetica,sans-Serif" font-weight="bold" font-size="11.00" fill="#000000">common_zone</text>
<text text-anchor="start" x="191.0219" y="-83.8" font-family="Helvetica,sans-Serif" font-size="11.00" fill="#000000">[table]</text>
<polygon fill="none" stroke="#000000" points="102.5,-56.7 102.5,-75.7 225.5,-75.7 225.5,-56.7 102.5,-56.7"/>
<text text-anchor="start" x="105.5" y="-62.8" font-family="Helvetica,sans-Serif" font-size="11.00" fill="#000000">...</text>
<polygon fill="#ffffff" stroke="transparent" points="102.5,-37.7 102.5,-56.7 137.5,-56.7 137.5,-37.7 102.5,-37.7"/>
<polygon fill="none" stroke="#000000" points="102.5,-37.7 102.5,-56.7 137.5,-56.7 137.5,-37.7 102.5,-37.7"/>
<text text-anchor="start" x="105.5" y="-43.8" font-family="Helvetica,sans-Serif" font-size="11.00" fill="#000000"> &#160;</text>
<polygon fill="#ffffff" stroke="transparent" points="137.5,-37.7 137.5,-56.7 192.5,-56.7 192.5,-37.7 137.5,-37.7"/>
<polygon fill="none" stroke="#000000" points="137.5,-37.7 137.5,-56.7 192.5,-56.7 192.5,-37.7 137.5,-37.7"/>
<text text-anchor="start" x="150.9956" y="-43.8" font-family="Helvetica,sans-Serif" font-size="11.00" fill="#000000">11 rows</text>
<polygon fill="#ffffff" stroke="transparent" points="192.5,-37.7 192.5,-56.7 225.5,-56.7 225.5,-37.7 192.5,-37.7"/>
<polygon fill="none" stroke="#000000" points="192.5,-37.7 192.5,-56.7 225.5,-56.7 225.5,-37.7 192.5,-37.7"/>
<text text-anchor="start" x="206.9053" y="-43.8" font-family="Helvetica,sans-Serif" font-size="11.00" fill="#000000">1 &gt;</text>
</a>
</g>
</g>
<!-- common_dealerzone&#45;&gt;common_zone -->
<g id="edge6" class="edge">
<title>common_dealerzone:w&#45;&gt;common_zone:e</title>
<path fill="none" stroke="#000000" d="M372.5136,-231.6683C333.7637,-218.892 366.6824,-148.9585 327,-110.7 291.4757,-76.4504 274.8458,-65.7 225.5,-65.7"/>
<polygon fill="#000000" stroke="#000000" points="379.0775,-232.5888 386.5,-237.2651 383.0388,-233.1444 387,-233.7 387,-233.7 387,-233.7 383.0388,-233.1444 387.5,-230.1349 379.0775,-232.5888 379.0775,-232.5888"/>
<ellipse fill="none" stroke="#000000" cx="375.9086" cy="-232.1444" rx="3.2" ry="3.2"/>
</g>
<!-- order_sale -->
<g id="node8" class="node">
<title>order_sale</title>
<g id="a_node8"><a xlink:href="../../tables/order_sale.html" xlink:title="order_sale" target="_top">
<polygon fill="#ffffff" stroke="transparent" points="368,-758.2 368,-885.2 564,-885.2 564,-758.2 368,-758.2"/>
<polygon fill="#f5f5f5" stroke="transparent" points="368,-861.7 368,-884.7 564,-884.7 564,-861.7 368,-861.7"/>
<polygon fill="none" stroke="#000000" points="368,-861.7 368,-884.7 564,-884.7 564,-861.7 368,-861.7"/>
<text text-anchor="start" x="373" y="-870.3" font-family="Helvetica,sans-Serif" font-weight="bold" font-size="11.00" fill="#000000">order_sale</text>
<text text-anchor="start" x="529.0437" y="-869.8" font-family="Helvetica,sans-Serif" font-size="11.00" fill="#000000">[table]</text>
<polygon fill="none" stroke="#000000" points="368,-839.7 368,-861.7 564,-861.7 564,-839.7 368,-839.7"/>
<image xlink:href="../../images/primaryKeys.png" width="11px" height="12px" preserveAspectRatio="xMinYMin meet" x="373" y="-856.7"/>
<text text-anchor="start" x="388" y="-846.8" font-family="Helvetica,sans-Serif" font-size="11.00" fill="#000000">ID</text>
<polygon fill="#ffffff" stroke="transparent" points="368,-817.7 368,-839.7 564,-839.7 564,-817.7 368,-817.7"/>
<polygon fill="none" stroke="#000000" points="368,-817.7 368,-839.7 564,-839.7 564,-817.7 368,-817.7"/>
<image xlink:href="../../images/foreignKeys.png" width="11px" height="12px" preserveAspectRatio="xMinYMin meet" x="373" y="-834.7"/>
<text text-anchor="start" x="388" y="-824.8" font-family="Helvetica,sans-Serif" font-size="11.00" fill="#000000">Common_CustomerFK</text>
<polygon fill="#ffffff" stroke="transparent" points="368,-795.7 368,-817.7 564,-817.7 564,-795.7 368,-795.7"/>
<polygon fill="none" stroke="#000000" points="368,-795.7 368,-817.7 564,-817.7 564,-795.7 368,-795.7"/>
<image xlink:href="../../images/foreignKeys.png" width="11px" height="12px" preserveAspectRatio="xMinYMin meet" x="373" y="-812.7"/>
<text text-anchor="start" x="388" y="-802.8" font-family="Helvetica,sans-Serif" font-size="11.00" fill="#000000">Common_Dealer2FK</text>
<polygon fill="none" stroke="#000000" points="368,-776.7 368,-795.7 564,-795.7 564,-776.7 368,-776.7"/>
<text text-anchor="start" x="371" y="-782.8" font-family="Helvetica,sans-Serif" font-size="11.00" fill="#000000">...</text>
<polygon fill="#ffffff" stroke="transparent" points="368,-757.7 368,-776.7 441,-776.7 441,-757.7 368,-757.7"/>
<polygon fill="none" stroke="#000000" points="368,-757.7 368,-776.7 441,-776.7 441,-757.7 368,-757.7"/>
<text text-anchor="start" x="371" y="-763.8" font-family="Helvetica,sans-Serif" font-size="11.00" fill="#000000">&lt; 2</text>
<polygon fill="#ffffff" stroke="transparent" points="441,-757.7 441,-776.7 517,-776.7 517,-757.7 441,-757.7"/>
<polygon fill="none" stroke="#000000" points="441,-757.7 441,-776.7 517,-776.7 517,-757.7 441,-757.7"/>
<text text-anchor="start" x="469.3807" y="-763.8" font-family="Helvetica,sans-Serif" font-size="11.00" fill="#000000">389 rows</text>
<polygon fill="#ffffff" stroke="transparent" points="517,-757.7 517,-776.7 564,-776.7 564,-757.7 517,-757.7"/>
<polygon fill="none" stroke="#000000" points="517,-757.7 517,-776.7 564,-776.7 564,-757.7 517,-757.7"/>
<text text-anchor="start" x="545.4053" y="-763.8" font-family="Helvetica,sans-Serif" font-size="11.00" fill="#000000">1 &gt;</text>
</a>
</g>
</g>
<!-- order_sale&#45;&gt;common_customer -->
<g id="edge7" class="edge">
<title>order_sale:w&#45;&gt;common_customer:e</title>
<path fill="none" stroke="#000000" d="M353.4436,-828.0237C306.4896,-823.4902 292.4801,-797.7 238.5,-797.7"/>
<polygon fill="#000000" stroke="#000000" points="360.0086,-828.3287 367.8329,-832.2961 364.0043,-828.5143 368,-828.7 368,-828.7 368,-828.7 364.0043,-828.5143 368.1671,-825.1039 360.0086,-828.3287 360.0086,-828.3287"/>
<ellipse fill="none" stroke="#000000" cx="356.8121" cy="-828.1801" rx="3.2" ry="3.2"/>
</g>
<!-- order_sale&#45;&gt;common_dealer -->
<g id="edge8" class="edge">
<title>order_sale:w&#45;&gt;common_dealer:e</title>
<path fill="none" stroke="#000000" d="M353.8154,-803.3298C320.1284,-783.2923 371.9387,-680.7 317.5,-680.7"/>
<polygon fill="#000000" stroke="#000000" points="360.2167,-804.8507 367.1678,-810.2025 364.1083,-805.7753 368,-806.7 368,-806.7 368,-806.7 364.1083,-805.7753 368.8322,-803.1975 360.2167,-804.8507 360.2167,-804.8507"/>
<ellipse fill="none" stroke="#000000" cx="357.1033" cy="-804.1109" rx="3.2" ry="3.2"/>
</g>
<!-- order_saleitem -->
<g id="node9" class="node">
<title>order_saleitem</title>
<g id="a_node9"><a xlink:href="../../tables/order_saleitem.html" xlink:title="order_saleitem" target="_top">
<polygon fill="#ffffff" stroke="transparent" points="638.5,-739.2 638.5,-800.2 762.5,-800.2 762.5,-739.2 638.5,-739.2"/>
<polygon fill="#f5f5f5" stroke="transparent" points="638.5,-776.7 638.5,-799.7 762.5,-799.7 762.5,-776.7 638.5,-776.7"/>
<polygon fill="none" stroke="#000000" points="638.5,-776.7 638.5,-799.7 762.5,-799.7 762.5,-776.7 638.5,-776.7"/>
<text text-anchor="start" x="643.5" y="-785.3" font-family="Helvetica,sans-Serif" font-weight="bold" font-size="11.00" fill="#000000">order_saleitem</text>
<text text-anchor="start" x="728.0219" y="-784.8" font-family="Helvetica,sans-Serif" font-size="11.00" fill="#000000">[table]</text>
<polygon fill="none" stroke="#000000" points="638.5,-757.7 638.5,-776.7 762.5,-776.7 762.5,-757.7 638.5,-757.7"/>
<text text-anchor="start" x="641.5" y="-763.8" font-family="Helvetica,sans-Serif" font-size="11.00" fill="#000000">...</text>
<polygon fill="#ffffff" stroke="transparent" points="638.5,-738.7 638.5,-757.7 679.5,-757.7 679.5,-738.7 638.5,-738.7"/>
<polygon fill="none" stroke="#000000" points="638.5,-738.7 638.5,-757.7 679.5,-757.7 679.5,-738.7 638.5,-738.7"/>
<text text-anchor="start" x="641.5" y="-744.8" font-family="Helvetica,sans-Serif" font-size="11.00" fill="#000000">&lt; 2</text>
<polygon fill="#ffffff" stroke="transparent" points="679.5,-738.7 679.5,-757.7 739.5,-757.7 739.5,-738.7 679.5,-738.7"/>
<polygon fill="none" stroke="#000000" points="679.5,-738.7 679.5,-757.7 739.5,-757.7 739.5,-738.7 679.5,-738.7"/>
<text text-anchor="start" x="691.8807" y="-744.8" font-family="Helvetica,sans-Serif" font-size="11.00" fill="#000000">659 rows</text>
<polygon fill="#ffffff" stroke="transparent" points="739.5,-738.7 739.5,-757.7 762.5,-757.7 762.5,-738.7 739.5,-738.7"/>
<polygon fill="none" stroke="#000000" points="739.5,-738.7 739.5,-757.7 762.5,-757.7 762.5,-738.7 739.5,-738.7"/>
<text text-anchor="start" x="753.3862" y="-744.8" font-family="Helvetica,sans-Serif" font-size="11.00" fill="#000000"> &#160;</text>
</a>
</g>
</g>
<!-- order_saleitem&#45;&gt;common_product -->
<g id="edge9" class="edge">
<title>order_saleitem:w&#45;&gt;common_product:e</title>
<path fill="none" stroke="#000000" d="M623.6987,-765.0016C544.8392,-745.0329 634.7593,-555.7 536,-555.7"/>
<polygon fill="#000000" stroke="#000000" points="630.5522,-765.7879 638.0896,-770.2765 634.5261,-766.244 638.5,-766.7 638.5,-766.7 638.5,-766.7 634.5261,-766.244 638.9104,-763.1235 630.5522,-765.7879 630.5522,-765.7879"/>
<ellipse fill="none" stroke="#000000" cx="627.373" cy="-765.4231" rx="3.2" ry="3.2"/>
</g>
<!-- order_saleitem&#45;&gt;order_sale -->
<g id="edge10" class="edge">
<title>order_saleitem:w&#45;&gt;order_sale:e</title>
<path fill="none" stroke="#000000" d="M624.2179,-769.6896C593.3664,-784.6533 608.2483,-850.7 564,-850.7"/>
<polygon fill="#000000" stroke="#000000" points="630.6697,-768.3391 639.2376,-770.2236 634.5849,-767.5196 638.5,-766.7 638.5,-766.7 638.5,-766.7 634.5849,-767.5196 637.7624,-763.1764 630.6697,-768.3391 630.6697,-768.3391"/>
<ellipse fill="none" stroke="#000000" cx="627.5376" cy="-768.9948" rx="3.2" ry="3.2"/>
</g>
</g>
</svg>
