<?xml version="1.0" encoding="UTF-8" standalone="no"?>
<!DOCTYPE svg PUBLIC "-//W3C//DTD SVG 1.1//EN"
 "http://www.w3.org/Graphics/SVG/1.1/DTD/svg11.dtd">
<!-- Generated by graphviz version 2.40.1 (20161225.0304)
 -->
<!-- Title: twoDegreesRelationshipsDiagramImplied Pages: 1 -->
<svg width="524pt" height="623pt"
 viewBox="0.00 0.00 524.00 623.20" xmlns="http://www.w3.org/2000/svg" xmlns:xlink="http://www.w3.org/1999/xlink">
<g id="graph0" class="graph" transform="scale(1 1) rotate(0) translate(4 619.2)">
<title>twoDegreesRelationshipsDiagramImplied</title>
<polygon fill="#ffffff" stroke="transparent" points="-4,4 -4,-619.2 520,-619.2 520,4 -4,4"/>
<text text-anchor="middle" x="72.4936" y="-7.3" font-family="Helvetica,sans-Serif" font-size="11.00" fill="#000000">Generated by SchemaSpy</text>
<!-- common_contact -->
<g id="node1" class="node">
<title>common_contact</title>
<g id="a_node1"><a xlink:href="../../tables/common_contact.html" xlink:title="common_contact" target="_top">
<polygon fill="#ffffff" stroke="transparent" points="311.5,-550.2 311.5,-611.2 449.5,-611.2 449.5,-550.2 311.5,-550.2"/>
<polygon fill="#f5f5f5" stroke="transparent" points="311.5,-587.7 311.5,-610.7 449.5,-610.7 449.5,-587.7 311.5,-587.7"/>
<polygon fill="none" stroke="#000000" points="311.5,-587.7 311.5,-610.7 449.5,-610.7 449.5,-587.7 311.5,-587.7"/>
<text text-anchor="start" x="316.5" y="-596.3" font-family="Helvetica,sans-Serif" font-weight="bold" font-size="11.00" fill="#000000">common_contact</text>
<text text-anchor="start" x="415.0219" y="-595.8" font-family="Helvetica,sans-Serif" font-size="11.00" fill="#000000">[table]</text>
<polygon fill="none" stroke="#000000" points="311.5,-568.7 311.5,-587.7 449.5,-587.7 449.5,-568.7 311.5,-568.7"/>
<text text-anchor="start" x="314.5" y="-574.8" font-family="Helvetica,sans-Serif" font-size="11.00" fill="#000000">...</text>
<polygon fill="#ffffff" stroke="transparent" points="311.5,-549.7 311.5,-568.7 365.5,-568.7 365.5,-549.7 311.5,-549.7"/>
<polygon fill="none" stroke="#000000" points="311.5,-549.7 311.5,-568.7 365.5,-568.7 365.5,-549.7 311.5,-549.7"/>
<text text-anchor="start" x="314.5" y="-555.8" font-family="Helvetica,sans-Serif" font-size="11.00" fill="#000000">&lt; 2</text>
<polygon fill="#ffffff" stroke="transparent" points="365.5,-549.7 365.5,-568.7 420.5,-568.7 420.5,-549.7 365.5,-549.7"/>
<polygon fill="none" stroke="#000000" points="365.5,-549.7 365.5,-568.7 420.5,-568.7 420.5,-549.7 365.5,-549.7"/>
<text text-anchor="start" x="385.1105" y="-555.8" font-family="Helvetica,sans-Serif" font-size="11.00" fill="#000000">0 rows</text>
<polygon fill="#ffffff" stroke="transparent" points="420.5,-549.7 420.5,-568.7 449.5,-568.7 449.5,-549.7 420.5,-549.7"/>
<polygon fill="none" stroke="#000000" points="420.5,-549.7 420.5,-568.7 449.5,-568.7 449.5,-549.7 420.5,-549.7"/>
<text text-anchor="start" x="440.3862" y="-555.8" font-family="Helvetica,sans-Serif" font-size="11.00" fill="#000000"> &#160;</text>
</a>
</g>
</g>
<!-- common_dealer -->
<g id="node2" class="node">
<title>common_dealer</title>
<g id="a_node2"><a xlink:href="../../tables/common_dealer.html" xlink:title="common_dealer" target="_top">
<polygon fill="#ffffff" stroke="transparent" points="8,-406.2 8,-489.2 204,-489.2 204,-406.2 8,-406.2"/>
<polygon fill="#f5f5f5" stroke="transparent" points="8,-465.7 8,-488.7 204,-488.7 204,-465.7 8,-465.7"/>
<polygon fill="none" stroke="#000000" points="8,-465.7 8,-488.7 204,-488.7 204,-465.7 8,-465.7"/>
<text text-anchor="start" x="13" y="-474.3" font-family="Helvetica,sans-Serif" font-weight="bold" font-size="11.00" fill="#000000">common_dealer</text>
<text text-anchor="start" x="169.0437" y="-473.8" font-family="Helvetica,sans-Serif" font-size="11.00" fill="#000000">[table]</text>
<polygon fill="none" stroke="#000000" points="8,-443.7 8,-465.7 204,-465.7 204,-443.7 8,-443.7"/>
<image xlink:href="../../images/primaryKeys.png" width="11px" height="12px" preserveAspectRatio="xMinYMin meet" x="13" y="-460.7"/>
<text text-anchor="start" x="28" y="-450.8" font-family="Helvetica,sans-Serif" font-size="11.00" fill="#000000">ID</text>
<polygon fill="none" stroke="#000000" points="8,-424.7 8,-443.7 204,-443.7 204,-424.7 8,-424.7"/>
<text text-anchor="start" x="11" y="-430.8" font-family="Helvetica,sans-Serif" font-size="11.00" fill="#000000">...</text>
<polygon fill="#ffffff" stroke="transparent" points="8,-405.7 8,-424.7 79,-424.7 79,-405.7 8,-405.7"/>
<polygon fill="none" stroke="#000000" points="8,-405.7 8,-424.7 79,-424.7 79,-405.7 8,-405.7"/>
<text text-anchor="start" x="11" y="-411.8" font-family="Helvetica,sans-Serif" font-size="11.00" fill="#000000"> &#160;</text>
<polygon fill="#ffffff" stroke="transparent" points="79,-405.7 79,-424.7 153,-424.7 153,-405.7 79,-405.7"/>
<polygon fill="none" stroke="#000000" points="79,-405.7 79,-424.7 153,-424.7 153,-405.7 79,-405.7"/>
<text text-anchor="start" x="111.4956" y="-411.8" font-family="Helvetica,sans-Serif" font-size="11.00" fill="#000000">62 rows</text>
<polygon fill="#ffffff" stroke="transparent" points="153,-405.7 153,-424.7 204,-424.7 204,-405.7 153,-405.7"/>
<polygon fill="none" stroke="#000000" points="153,-405.7 153,-424.7 204,-424.7 204,-405.7 153,-405.7"/>
<text text-anchor="start" x="185.4053" y="-411.8" font-family="Helvetica,sans-Serif" font-size="11.00" fill="#000000">4 &gt;</text>
</a>
</g>
</g>
<!-- common_contact&#45;&gt;common_dealer -->
<g id="edge1" class="edge">
<title>common_contact:w&#45;&gt;common_dealer:e</title>
<path fill="none" stroke="#000000" d="M296.8935,-576.6969C274.1404,-573.1998 264.4986,-560.6076 245,-539.7 216.3935,-509.0263 245.9429,-454.7 204,-454.7"/>
<polygon fill="#000000" stroke="#000000" points="303.5188,-577.1519 311.2533,-581.2915 307.5094,-577.4259 311.5,-577.7 311.5,-577.7 311.5,-577.7 307.5094,-577.4259 311.7467,-574.1085 303.5188,-577.1519 303.5188,-577.1519"/>
<ellipse fill="none" stroke="#000000" cx="300.3263" cy="-576.9326" rx="3.2" ry="3.2"/>
</g>
<!-- common_dealerproduct -->
<g id="node3" class="node">
<title>common_dealerproduct</title>
<g id="a_node3"><a xlink:href="../../tables/common_dealerproduct.html" xlink:title="common_dealerproduct" target="_top">
<polygon fill="#ffffff" stroke="transparent" points="293,-468.2 293,-529.2 468,-529.2 468,-468.2 293,-468.2"/>
<polygon fill="#f5f5f5" stroke="transparent" points="293.5,-505.7 293.5,-528.7 468.5,-528.7 468.5,-505.7 293.5,-505.7"/>
<polygon fill="none" stroke="#000000" points="293.5,-505.7 293.5,-528.7 468.5,-528.7 468.5,-505.7 293.5,-505.7"/>
<text text-anchor="start" x="298.5" y="-514.3" font-family="Helvetica,sans-Serif" font-weight="bold" font-size="11.00" fill="#000000">common_dealerproduct</text>
<text text-anchor="start" x="434.0219" y="-513.8" font-family="Helvetica,sans-Serif" font-size="11.00" fill="#000000">[table]</text>
<polygon fill="none" stroke="#000000" points="293.5,-486.7 293.5,-505.7 468.5,-505.7 468.5,-486.7 293.5,-486.7"/>
<text text-anchor="start" x="296.5" y="-492.8" font-family="Helvetica,sans-Serif" font-size="11.00" fill="#000000">...</text>
<polygon fill="#ffffff" stroke="transparent" points="293.5,-467.7 293.5,-486.7 360.5,-486.7 360.5,-467.7 293.5,-467.7"/>
<polygon fill="none" stroke="#000000" points="293.5,-467.7 293.5,-486.7 360.5,-486.7 360.5,-467.7 293.5,-467.7"/>
<text text-anchor="start" x="296.5" y="-473.8" font-family="Helvetica,sans-Serif" font-size="11.00" fill="#000000">&lt; 2</text>
<polygon fill="#ffffff" stroke="transparent" points="360.5,-467.7 360.5,-486.7 433.5,-486.7 433.5,-467.7 360.5,-467.7"/>
<polygon fill="none" stroke="#000000" points="360.5,-467.7 360.5,-486.7 433.5,-486.7 433.5,-467.7 360.5,-467.7"/>
<text text-anchor="start" x="385.8807" y="-473.8" font-family="Helvetica,sans-Serif" font-size="11.00" fill="#000000">427 rows</text>
<polygon fill="#ffffff" stroke="transparent" points="433.5,-467.7 433.5,-486.7 468.5,-486.7 468.5,-467.7 433.5,-467.7"/>
<polygon fill="none" stroke="#000000" points="433.5,-467.7 433.5,-486.7 468.5,-486.7 468.5,-467.7 433.5,-467.7"/>
<text text-anchor="start" x="459.3862" y="-473.8" font-family="Helvetica,sans-Serif" font-size="11.00" fill="#000000"> &#160;</text>
</a>
</g>
</g>
<!-- common_dealerproduct&#45;&gt;common_dealer -->
<g id="edge2" class="edge">
<title>common_dealerproduct:w&#45;&gt;common_dealer:e</title>
<path fill="none" stroke="#000000" d="M278.887,-493.9383C248.596,-486.0906 242.2838,-454.7 204,-454.7"/>
<polygon fill="#000000" stroke="#000000" points="285.5575,-494.7424 293.0691,-499.2741 289.5288,-495.2212 293.5,-495.7 293.5,-495.7 293.5,-495.7 289.5288,-495.2212 293.9309,-492.1259 285.5575,-494.7424 285.5575,-494.7424"/>
<ellipse fill="none" stroke="#000000" cx="282.3805" cy="-494.3594" rx="3.2" ry="3.2"/>
</g>
<!-- common_dealerzone -->
<g id="node4" class="node">
<title>common_dealerzone</title>
<g id="a_node4"><a xlink:href="../../tables/common_dealerzone.html" xlink:title="common_dealerzone" target="_top">
<polygon fill="#ffffff" stroke="transparent" points="253,-120.7 253,-364.7 508,-364.7 508,-120.7 253,-120.7"/>
<polygon fill="#f5f5f5" stroke="transparent" points="255.5,-339.7 255.5,-362.7 506.5,-362.7 506.5,-339.7 255.5,-339.7"/>
<polygon fill="none" stroke="#000000" points="255.5,-339.7 255.5,-362.7 506.5,-362.7 506.5,-339.7 255.5,-339.7"/>
<text text-anchor="start" x="260.5" y="-348.3" font-family="Helvetica,sans-Serif" font-weight="bold" font-size="11.00" fill="#000000">common_dealerzone</text>
<text text-anchor="start" x="471.5437" y="-347.8" font-family="Helvetica,sans-Serif" font-size="11.00" fill="#000000">[table]</text>
<polygon fill="none" stroke="#000000" points="255.5,-317.7 255.5,-339.7 395.5,-339.7 395.5,-317.7 255.5,-317.7"/>
<image xlink:href="../../images/primaryKeys.png" width="11px" height="12px" preserveAspectRatio="xMinYMin meet" x="260.5" y="-334.7"/>
<text text-anchor="start" x="275.5" y="-324.8" font-family="Helvetica,sans-Serif" font-size="11.00" fill="#000000">ID</text>
<polygon fill="none" stroke="#000000" points="395.5,-317.7 395.5,-339.7 506.5,-339.7 506.5,-317.7 395.5,-317.7"/>
<text text-anchor="start" x="398.5" y="-325.4" font-family="Helvetica,sans-Serif" font-size="11.00" fill="#000000">int[10]</text>
<polygon fill="none" stroke="#000000" points="255.5,-295.7 255.5,-317.7 395.5,-317.7 395.5,-295.7 255.5,-295.7"/>
<text text-anchor="start" x="275.5" y="-302.8" font-family="Helvetica,sans-Serif" font-size="11.00" fill="#000000">Active</text>
<polygon fill="none" stroke="#000000" points="395.5,-295.7 395.5,-317.7 506.5,-317.7 506.5,-295.7 395.5,-295.7"/>
<text text-anchor="start" x="398.5" y="-303.4" font-family="Helvetica,sans-Serif" font-size="11.00" fill="#000000">bit[1]</text>
<polygon fill="none" stroke="#000000" points="255.5,-273.7 255.5,-295.7 395.5,-295.7 395.5,-273.7 255.5,-273.7"/>
<text text-anchor="start" x="275.5" y="-280.8" font-family="Helvetica,sans-Serif" font-size="11.00" fill="#000000">User</text>
<polygon fill="none" stroke="#000000" points="395.5,-273.7 395.5,-295.7 506.5,-295.7 506.5,-273.7 395.5,-273.7"/>
<text text-anchor="start" x="398.1115" y="-281.4" font-family="Helvetica,sans-Serif" font-size="11.00" fill="#000000">longtext[2147483647]</text>
<polygon fill="none" stroke="#000000" points="255.5,-251.7 255.5,-273.7 395.5,-273.7 395.5,-251.7 255.5,-251.7"/>
<text text-anchor="start" x="275.5" y="-258.8" font-family="Helvetica,sans-Serif" font-size="11.00" fill="#000000">CD</text>
<polygon fill="none" stroke="#000000" points="395.5,-251.7 395.5,-273.7 506.5,-273.7 506.5,-251.7 395.5,-251.7"/>
<text text-anchor="start" x="398.5" y="-259.4" font-family="Helvetica,sans-Serif" font-size="11.00" fill="#000000">datetime[26]</text>
<polygon fill="none" stroke="#000000" points="255.5,-229.7 255.5,-251.7 395.5,-251.7 395.5,-229.7 255.5,-229.7"/>
<text text-anchor="start" x="275.5" y="-236.8" font-family="Helvetica,sans-Serif" font-size="11.00" fill="#000000">UD</text>
<polygon fill="none" stroke="#000000" points="395.5,-229.7 395.5,-251.7 506.5,-251.7 506.5,-229.7 395.5,-229.7"/>
<text text-anchor="start" x="398.5" y="-237.4" font-family="Helvetica,sans-Serif" font-size="11.00" fill="#000000">datetime[26]</text>
<polygon fill="none" stroke="#000000" points="255.5,-207.7 255.5,-229.7 395.5,-229.7 395.5,-207.7 255.5,-207.7"/>
<text text-anchor="start" x="275.5" y="-214.8" font-family="Helvetica,sans-Serif" font-size="11.00" fill="#000000">Remarks</text>
<polygon fill="none" stroke="#000000" points="395.5,-207.7 395.5,-229.7 506.5,-229.7 506.5,-207.7 395.5,-207.7"/>
<text text-anchor="start" x="398.1115" y="-215.4" font-family="Helvetica,sans-Serif" font-size="11.00" fill="#000000">longtext[2147483647]</text>
<polygon fill="none" stroke="#000000" points="255.5,-185.7 255.5,-207.7 395.5,-207.7 395.5,-185.7 255.5,-185.7"/>
<text text-anchor="start" x="275.5" y="-192.8" font-family="Helvetica,sans-Serif" font-size="11.00" fill="#000000">UserID</text>
<polygon fill="none" stroke="#000000" points="395.5,-185.7 395.5,-207.7 506.5,-207.7 506.5,-185.7 395.5,-185.7"/>
<text text-anchor="start" x="398.5" y="-193.4" font-family="Helvetica,sans-Serif" font-size="11.00" fill="#000000">int[10]</text>
<polygon fill="#ffffff" stroke="transparent" points="255.5,-163.7 255.5,-185.7 395.5,-185.7 395.5,-163.7 255.5,-163.7"/>
<polygon fill="none" stroke="#000000" points="255.5,-163.7 255.5,-185.7 395.5,-185.7 395.5,-163.7 255.5,-163.7"/>
<image xlink:href="../../images/foreignKeys.png" width="11px" height="12px" preserveAspectRatio="xMinYMin meet" x="260.5" y="-180.7"/>
<text text-anchor="start" x="275.5" y="-170.8" font-family="Helvetica,sans-Serif" font-size="11.00" fill="#000000">Common_DealerFK</text>
<polygon fill="none" stroke="#000000" points="395.5,-163.7 395.5,-185.7 506.5,-185.7 506.5,-163.7 395.5,-163.7"/>
<text text-anchor="start" x="398.5" y="-171.4" font-family="Helvetica,sans-Serif" font-size="11.00" fill="#000000">int[10]</text>
<polygon fill="#ffffff" stroke="transparent" points="255.5,-141.7 255.5,-163.7 395.5,-163.7 395.5,-141.7 255.5,-141.7"/>
<polygon fill="none" stroke="#000000" points="255.5,-141.7 255.5,-163.7 395.5,-163.7 395.5,-141.7 255.5,-141.7"/>
<image xlink:href="../../images/foreignKeys.png" width="11px" height="12px" preserveAspectRatio="xMinYMin meet" x="260.5" y="-158.7"/>
<text text-anchor="start" x="275.5" y="-148.8" font-family="Helvetica,sans-Serif" font-size="11.00" fill="#000000">Common_ZoneFK</text>
<polygon fill="none" stroke="#000000" points="395.5,-141.7 395.5,-163.7 506.5,-163.7 506.5,-141.7 395.5,-141.7"/>
<text text-anchor="start" x="398.5" y="-149.4" font-family="Helvetica,sans-Serif" font-size="11.00" fill="#000000">int[10]</text>
<polygon fill="#ffffff" stroke="transparent" points="255.5,-122.7 255.5,-141.7 313.5,-141.7 313.5,-122.7 255.5,-122.7"/>
<polygon fill="none" stroke="#000000" points="255.5,-122.7 255.5,-141.7 313.5,-141.7 313.5,-122.7 255.5,-122.7"/>
<text text-anchor="start" x="258.5" y="-128.8" font-family="Helvetica,sans-Serif" font-size="11.00" fill="#000000">&lt; 2</text>
<polygon fill="#ffffff" stroke="transparent" points="313.5,-122.7 313.5,-141.7 395.5,-141.7 395.5,-122.7 313.5,-122.7"/>
<polygon fill="none" stroke="#000000" points="313.5,-122.7 313.5,-141.7 395.5,-141.7 395.5,-122.7 313.5,-122.7"/>
<text text-anchor="start" x="353.9956" y="-128.8" font-family="Helvetica,sans-Serif" font-size="11.00" fill="#000000">52 rows</text>
<polygon fill="#ffffff" stroke="transparent" points="395.5,-122.7 395.5,-141.7 506.5,-141.7 506.5,-122.7 395.5,-122.7"/>
<polygon fill="none" stroke="#000000" points="395.5,-122.7 395.5,-141.7 506.5,-141.7 506.5,-122.7 395.5,-122.7"/>
<text text-anchor="start" x="487.9053" y="-128.8" font-family="Helvetica,sans-Serif" font-size="11.00" fill="#000000">0 &gt;</text>
<polygon fill="none" stroke="#000000" stroke-width="2" points="254,-121.7 254,-363.7 507,-363.7 507,-121.7 254,-121.7"/>
</a>
</g>
</g>
<!-- common_dealerzone&#45;&gt;common_dealer -->
<g id="edge3" class="edge">
<title>common_dealerzone:w&#45;&gt;common_dealer:e</title>
<path fill="none" stroke="#000000" d="M242.0778,-180.5482C204.1088,-220.7571 261.829,-454.7 204,-454.7"/>
<polygon fill="#000000" stroke="#000000" points="248.1659,-177.8956 256.938,-178.0003 251.833,-176.2978 255.5,-174.7 255.5,-174.7 255.5,-174.7 251.833,-176.2978 254.062,-171.3997 248.1659,-177.8956 248.1659,-177.8956"/>
<ellipse fill="none" stroke="#000000" cx="245.2323" cy="-179.1738" rx="3.2" ry="3.2"/>
</g>
<!-- common_zone -->
<g id="node5" class="node">
<title>common_zone</title>
<g id="a_node5"><a xlink:href="../../tables/common_zone.html" xlink:title="common_zone" target="_top">
<polygon fill="#ffffff" stroke="transparent" points="40,-61.2 40,-144.2 172,-144.2 172,-61.2 40,-61.2"/>
<polygon fill="#f5f5f5" stroke="transparent" points="40,-120.7 40,-143.7 172,-143.7 172,-120.7 40,-120.7"/>
<polygon fill="none" stroke="#000000" points="40,-120.7 40,-143.7 172,-143.7 172,-120.7 40,-120.7"/>
<text text-anchor="start" x="45" y="-129.3" font-family="Helvetica,sans-Serif" font-weight="bold" font-size="11.00" fill="#000000">common_zone</text>
<text text-anchor="start" x="137.0437" y="-128.8" font-family="Helvetica,sans-Serif" font-size="11.00" fill="#000000">[table]</text>
<polygon fill="none" stroke="#000000" points="40,-98.7 40,-120.7 172,-120.7 172,-98.7 40,-98.7"/>
<image xlink:href="../../images/primaryKeys.png" width="11px" height="12px" preserveAspectRatio="xMinYMin meet" x="45" y="-115.7"/>
<text text-anchor="start" x="60" y="-105.8" font-family="Helvetica,sans-Serif" font-size="11.00" fill="#000000">ID</text>
<polygon fill="none" stroke="#000000" points="40,-79.7 40,-98.7 172,-98.7 172,-79.7 40,-79.7"/>
<text text-anchor="start" x="43" y="-85.8" font-family="Helvetica,sans-Serif" font-size="11.00" fill="#000000">...</text>
<polygon fill="#ffffff" stroke="transparent" points="40,-60.7 40,-79.7 79,-79.7 79,-60.7 40,-60.7"/>
<polygon fill="none" stroke="#000000" points="40,-60.7 40,-79.7 79,-79.7 79,-60.7 40,-60.7"/>
<text text-anchor="start" x="43" y="-66.8" font-family="Helvetica,sans-Serif" font-size="11.00" fill="#000000"> &#160;</text>
<polygon fill="#ffffff" stroke="transparent" points="79,-60.7 79,-79.7 137,-79.7 137,-60.7 79,-60.7"/>
<polygon fill="none" stroke="#000000" points="79,-60.7 79,-79.7 137,-79.7 137,-60.7 79,-60.7"/>
<text text-anchor="start" x="95.4956" y="-66.8" font-family="Helvetica,sans-Serif" font-size="11.00" fill="#000000">11 rows</text>
<polygon fill="#ffffff" stroke="transparent" points="137,-60.7 137,-79.7 172,-79.7 172,-60.7 137,-60.7"/>
<polygon fill="none" stroke="#000000" points="137,-60.7 137,-79.7 172,-79.7 172,-60.7 137,-60.7"/>
<text text-anchor="start" x="153.4053" y="-66.8" font-family="Helvetica,sans-Serif" font-size="11.00" fill="#000000">2 &gt;</text>
</a>
</g>
</g>
<!-- common_dealerzone&#45;&gt;common_zone -->
<g id="edge4" class="edge">
<title>common_dealerzone:w&#45;&gt;common_zone:e</title>
<path fill="none" stroke="#000000" d="M240.8807,-150.626C213.0173,-142.0366 208.1989,-109.7 172,-109.7"/>
<polygon fill="#000000" stroke="#000000" points="247.5793,-151.5763 254.9943,-156.2643 251.5397,-152.1381 255.5,-152.7 255.5,-152.7 255.5,-152.7 251.5397,-152.1381 256.0057,-149.1357 247.5793,-151.5763 247.5793,-151.5763"/>
<ellipse fill="none" stroke="#000000" cx="244.411" cy="-151.1268" rx="3.2" ry="3.2"/>
</g>
<!-- common_zonearea -->
<g id="node6" class="node">
<title>common_zonearea</title>
<g id="a_node6"><a xlink:href="../../tables/common_zonearea.html" xlink:title="common_zonearea" target="_top">
<polygon fill="#ffffff" stroke="transparent" points="307,-38.2 307,-99.2 454,-99.2 454,-38.2 307,-38.2"/>
<polygon fill="#f5f5f5" stroke="transparent" points="307.5,-75.7 307.5,-98.7 454.5,-98.7 454.5,-75.7 307.5,-75.7"/>
<polygon fill="none" stroke="#000000" points="307.5,-75.7 307.5,-98.7 454.5,-98.7 454.5,-75.7 307.5,-75.7"/>
<text text-anchor="start" x="312.5" y="-84.3" font-family="Helvetica,sans-Serif" font-weight="bold" font-size="11.00" fill="#000000">common_zonearea</text>
<text text-anchor="start" x="420.0219" y="-83.8" font-family="Helvetica,sans-Serif" font-size="11.00" fill="#000000">[table]</text>
<polygon fill="none" stroke="#000000" points="307.5,-56.7 307.5,-75.7 454.5,-75.7 454.5,-56.7 307.5,-56.7"/>
<text text-anchor="start" x="310.5" y="-62.8" font-family="Helvetica,sans-Serif" font-size="11.00" fill="#000000">...</text>
<polygon fill="#ffffff" stroke="transparent" points="307.5,-37.7 307.5,-56.7 363.5,-56.7 363.5,-37.7 307.5,-37.7"/>
<polygon fill="none" stroke="#000000" points="307.5,-37.7 307.5,-56.7 363.5,-56.7 363.5,-37.7 307.5,-37.7"/>
<text text-anchor="start" x="310.5" y="-43.8" font-family="Helvetica,sans-Serif" font-size="11.00" fill="#000000">&lt; 1</text>
<polygon fill="#ffffff" stroke="transparent" points="363.5,-37.7 363.5,-56.7 424.5,-56.7 424.5,-37.7 363.5,-37.7"/>
<polygon fill="none" stroke="#000000" points="363.5,-37.7 363.5,-56.7 424.5,-56.7 424.5,-37.7 363.5,-37.7"/>
<text text-anchor="start" x="382.9956" y="-43.8" font-family="Helvetica,sans-Serif" font-size="11.00" fill="#000000">40 rows</text>
<polygon fill="#ffffff" stroke="transparent" points="424.5,-37.7 424.5,-56.7 454.5,-56.7 454.5,-37.7 424.5,-37.7"/>
<polygon fill="none" stroke="#000000" points="424.5,-37.7 424.5,-56.7 454.5,-56.7 454.5,-37.7 424.5,-37.7"/>
<text text-anchor="start" x="445.3862" y="-43.8" font-family="Helvetica,sans-Serif" font-size="11.00" fill="#000000"> &#160;</text>
</a>
</g>
</g>
<!-- common_zonearea&#45;&gt;common_zone -->
<g id="edge5" class="edge">
<title>common_zonearea:w&#45;&gt;common_zone:e</title>
<path fill="none" stroke="#000000" stroke-dasharray="5,2" d="M292.9571,-66.5397C242.3615,-72.6227 230.1237,-109.7 172,-109.7"/>
<polygon fill="#000000" stroke="#000000" points="299.5133,-66.1612 307.7075,-69.294 303.5067,-65.9306 307.5,-65.7 307.5,-65.7 307.5,-65.7 303.5067,-65.9306 307.2925,-62.106 299.5133,-66.1612 299.5133,-66.1612"/>
<ellipse fill="none" stroke="#000000" cx="296.3186" cy="-66.3457" rx="3.2" ry="3.2"/>
</g>
<!-- order_sale -->
<g id="node7" class="node">
<title>order_sale</title>
<g id="a_node7"><a xlink:href="../../tables/order_sale.html" xlink:title="order_sale" target="_top">
<polygon fill="#ffffff" stroke="transparent" points="331,-386.2 331,-447.2 430,-447.2 430,-386.2 331,-386.2"/>
<polygon fill="#f5f5f5" stroke="transparent" points="331.5,-423.7 331.5,-446.7 430.5,-446.7 430.5,-423.7 331.5,-423.7"/>
<polygon fill="none" stroke="#000000" points="331.5,-423.7 331.5,-446.7 430.5,-446.7 430.5,-423.7 331.5,-423.7"/>
<text text-anchor="start" x="336.5" y="-432.3" font-family="Helvetica,sans-Serif" font-weight="bold" font-size="11.00" fill="#000000">order_sale</text>
<text text-anchor="start" x="396.0219" y="-431.8" font-family="Helvetica,sans-Serif" font-size="11.00" fill="#000000">[table]</text>
<polygon fill="none" stroke="#000000" points="331.5,-404.7 331.5,-423.7 430.5,-423.7 430.5,-404.7 331.5,-404.7"/>
<text text-anchor="start" x="334.5" y="-410.8" font-family="Helvetica,sans-Serif" font-size="11.00" fill="#000000">...</text>
<polygon fill="#ffffff" stroke="transparent" points="331.5,-385.7 331.5,-404.7 355.5,-404.7 355.5,-385.7 331.5,-385.7"/>
<polygon fill="none" stroke="#000000" points="331.5,-385.7 331.5,-404.7 355.5,-404.7 355.5,-385.7 331.5,-385.7"/>
<text text-anchor="start" x="334.5" y="-391.8" font-family="Helvetica,sans-Serif" font-size="11.00" fill="#000000">&lt; 2</text>
<polygon fill="#ffffff" stroke="transparent" points="355.5,-385.7 355.5,-404.7 407.5,-404.7 407.5,-385.7 355.5,-385.7"/>
<polygon fill="none" stroke="#000000" points="355.5,-385.7 355.5,-404.7 407.5,-404.7 407.5,-385.7 355.5,-385.7"/>
<text text-anchor="start" x="359.8807" y="-391.8" font-family="Helvetica,sans-Serif" font-size="11.00" fill="#000000">389 rows</text>
<polygon fill="#ffffff" stroke="transparent" points="407.5,-385.7 407.5,-404.7 430.5,-404.7 430.5,-385.7 407.5,-385.7"/>
<polygon fill="none" stroke="#000000" points="407.5,-385.7 407.5,-404.7 430.5,-404.7 430.5,-385.7 407.5,-385.7"/>
<text text-anchor="start" x="411.9053" y="-391.8" font-family="Helvetica,sans-Serif" font-size="11.00" fill="#000000">1 &gt;</text>
</a>
</g>
</g>
<!-- order_sale&#45;&gt;common_dealer -->
<g id="edge6" class="edge">
<title>order_sale:w&#45;&gt;common_dealer:e</title>
<path fill="none" stroke="#000000" d="M316.9193,-414.5945C270.0955,-420.5903 258.2928,-454.7 204,-454.7"/>
<polygon fill="#000000" stroke="#000000" points="323.515,-414.1899 331.7205,-417.2932 327.5075,-413.945 331.5,-413.7 331.5,-413.7 331.5,-413.7 327.5075,-413.945 331.2795,-410.1068 323.515,-414.1899 323.515,-414.1899"/>
<ellipse fill="none" stroke="#000000" cx="320.321" cy="-414.3859" rx="3.2" ry="3.2"/>
</g>
</g>
</svg>
