<?xml version="1.0" encoding="UTF-8" standalone="no"?>
<!DOCTYPE svg PUBLIC "-//W3C//DTD SVG 1.1//EN"
 "http://www.w3.org/Graphics/SVG/1.1/DTD/svg11.dtd">
<!-- Generated by graphviz version 2.40.1 (20161225.0304)
 -->
<!-- Title: oneDegreeRelationshipsDiagram Pages: 1 -->
<svg width="288pt" height="382pt"
 viewBox="0.00 0.00 288.00 382.20" xmlns="http://www.w3.org/2000/svg" xmlns:xlink="http://www.w3.org/1999/xlink">
<g id="graph0" class="graph" transform="scale(1 1) rotate(0) translate(4 378.2)">
<title>oneDegreeRelationshipsDiagram</title>
<polygon fill="#ffffff" stroke="transparent" points="-4,4 -4,-378.2 284,-378.2 284,4 -4,4"/>
<text text-anchor="middle" x="72.4936" y="-7.3" font-family="Helvetica,sans-Serif" font-size="11.00" fill="#000000">Generated by SchemaSpy</text>
<!-- common_subcategory -->
<g id="node1" class="node">
<title>common_subcategory</title>
<g id="a_node1"><a xlink:href="../../tables/common_subcategory.html" xlink:title="common_subcategory" target="_top">
<polygon fill="#ffffff" stroke="transparent" points="8,-38.2 8,-370.2 272,-370.2 272,-38.2 8,-38.2"/>
<polygon fill="#f5f5f5" stroke="transparent" points="10,-345.2 10,-368.2 270,-368.2 270,-345.2 10,-345.2"/>
<polygon fill="none" stroke="#000000" points="10,-345.2 10,-368.2 270,-368.2 270,-345.2 10,-345.2"/>
<text text-anchor="start" x="15" y="-353.8" font-family="Helvetica,sans-Serif" font-weight="bold" font-size="11.00" fill="#000000">common_subcategory</text>
<text text-anchor="start" x="235.0437" y="-353.3" font-family="Helvetica,sans-Serif" font-size="11.00" fill="#000000">[table]</text>
<polygon fill="none" stroke="#000000" points="10,-323.2 10,-345.2 159,-345.2 159,-323.2 10,-323.2"/>
<image xlink:href="../../images/primaryKeys.png" width="11px" height="12px" preserveAspectRatio="xMinYMin meet" x="15" y="-340.2"/>
<text text-anchor="start" x="30" y="-330.3" font-family="Helvetica,sans-Serif" font-size="11.00" fill="#000000">ID</text>
<polygon fill="none" stroke="#000000" points="159,-323.2 159,-345.2 270,-345.2 270,-323.2 159,-323.2"/>
<text text-anchor="start" x="162" y="-330.9" font-family="Helvetica,sans-Serif" font-size="11.00" fill="#000000">int[10]</text>
<polygon fill="none" stroke="#000000" points="10,-301.2 10,-323.2 159,-323.2 159,-301.2 10,-301.2"/>
<text text-anchor="start" x="30" y="-308.3" font-family="Helvetica,sans-Serif" font-size="11.00" fill="#000000">Active</text>
<polygon fill="none" stroke="#000000" points="159,-301.2 159,-323.2 270,-323.2 270,-301.2 159,-301.2"/>
<text text-anchor="start" x="162" y="-308.9" font-family="Helvetica,sans-Serif" font-size="11.00" fill="#000000">bit[1]</text>
<polygon fill="none" stroke="#000000" points="10,-279.2 10,-301.2 159,-301.2 159,-279.2 10,-279.2"/>
<text text-anchor="start" x="30" y="-286.3" font-family="Helvetica,sans-Serif" font-size="11.00" fill="#000000">User</text>
<polygon fill="none" stroke="#000000" points="159,-279.2 159,-301.2 270,-301.2 270,-279.2 159,-279.2"/>
<text text-anchor="start" x="161.6115" y="-286.9" font-family="Helvetica,sans-Serif" font-size="11.00" fill="#000000">longtext[2147483647]</text>
<polygon fill="none" stroke="#000000" points="10,-257.2 10,-279.2 159,-279.2 159,-257.2 10,-257.2"/>
<text text-anchor="start" x="30" y="-264.3" font-family="Helvetica,sans-Serif" font-size="11.00" fill="#000000">CD</text>
<polygon fill="none" stroke="#000000" points="159,-257.2 159,-279.2 270,-279.2 270,-257.2 159,-257.2"/>
<text text-anchor="start" x="162" y="-264.9" font-family="Helvetica,sans-Serif" font-size="11.00" fill="#000000">datetime[26]</text>
<polygon fill="none" stroke="#000000" points="10,-235.2 10,-257.2 159,-257.2 159,-235.2 10,-235.2"/>
<text text-anchor="start" x="30" y="-242.3" font-family="Helvetica,sans-Serif" font-size="11.00" fill="#000000">UD</text>
<polygon fill="none" stroke="#000000" points="159,-235.2 159,-257.2 270,-257.2 270,-235.2 159,-235.2"/>
<text text-anchor="start" x="162" y="-242.9" font-family="Helvetica,sans-Serif" font-size="11.00" fill="#000000">datetime[26]</text>
<polygon fill="none" stroke="#000000" points="10,-213.2 10,-235.2 159,-235.2 159,-213.2 10,-213.2"/>
<text text-anchor="start" x="30" y="-220.3" font-family="Helvetica,sans-Serif" font-size="11.00" fill="#000000">Remarks</text>
<polygon fill="none" stroke="#000000" points="159,-213.2 159,-235.2 270,-235.2 270,-213.2 159,-213.2"/>
<text text-anchor="start" x="161.6115" y="-220.9" font-family="Helvetica,sans-Serif" font-size="11.00" fill="#000000">longtext[2147483647]</text>
<polygon fill="none" stroke="#000000" points="10,-191.2 10,-213.2 159,-213.2 159,-191.2 10,-191.2"/>
<text text-anchor="start" x="30" y="-198.3" font-family="Helvetica,sans-Serif" font-size="11.00" fill="#000000">UserID</text>
<polygon fill="none" stroke="#000000" points="159,-191.2 159,-213.2 270,-213.2 270,-191.2 159,-191.2"/>
<text text-anchor="start" x="162" y="-198.9" font-family="Helvetica,sans-Serif" font-size="11.00" fill="#000000">int[10]</text>
<polygon fill="none" stroke="#000000" points="10,-169.2 10,-191.2 159,-191.2 159,-169.2 10,-169.2"/>
<text text-anchor="start" x="30" y="-176.3" font-family="Helvetica,sans-Serif" font-size="11.00" fill="#000000">Code</text>
<polygon fill="none" stroke="#000000" points="159,-169.2 159,-191.2 270,-191.2 270,-169.2 159,-169.2"/>
<text text-anchor="start" x="161.6115" y="-176.9" font-family="Helvetica,sans-Serif" font-size="11.00" fill="#000000">longtext[2147483647]</text>
<polygon fill="none" stroke="#000000" points="10,-147.2 10,-169.2 159,-169.2 159,-147.2 10,-147.2"/>
<text text-anchor="start" x="30" y="-154.3" font-family="Helvetica,sans-Serif" font-size="11.00" fill="#000000">Name</text>
<polygon fill="none" stroke="#000000" points="159,-147.2 159,-169.2 270,-169.2 270,-147.2 159,-147.2"/>
<text text-anchor="start" x="161.6115" y="-154.9" font-family="Helvetica,sans-Serif" font-size="11.00" fill="#000000">longtext[2147483647]</text>
<polygon fill="none" stroke="#000000" points="10,-125.2 10,-147.2 159,-147.2 159,-125.2 10,-125.2"/>
<text text-anchor="start" x="30" y="-132.3" font-family="Helvetica,sans-Serif" font-size="11.00" fill="#000000">Description</text>
<polygon fill="none" stroke="#000000" points="159,-125.2 159,-147.2 270,-147.2 270,-125.2 159,-125.2"/>
<text text-anchor="start" x="161.6115" y="-132.9" font-family="Helvetica,sans-Serif" font-size="11.00" fill="#000000">longtext[2147483647]</text>
<polygon fill="none" stroke="#000000" points="10,-103.2 10,-125.2 159,-125.2 159,-103.2 10,-103.2"/>
<text text-anchor="start" x="30" y="-110.3" font-family="Helvetica,sans-Serif" font-size="11.00" fill="#000000">Common_CategoryFK</text>
<polygon fill="none" stroke="#000000" points="159,-103.2 159,-125.2 270,-125.2 270,-103.2 159,-103.2"/>
<text text-anchor="start" x="162" y="-110.9" font-family="Helvetica,sans-Serif" font-size="11.00" fill="#000000">int[10]</text>
<polygon fill="none" stroke="#000000" points="10,-81.2 10,-103.2 159,-103.2 159,-81.2 10,-81.2"/>
<text text-anchor="start" x="30" y="-88.3" font-family="Helvetica,sans-Serif" font-size="11.00" fill="#000000">IsLock</text>
<polygon fill="none" stroke="#000000" points="159,-81.2 159,-103.2 270,-103.2 270,-81.2 159,-81.2"/>
<text text-anchor="start" x="162" y="-88.9" font-family="Helvetica,sans-Serif" font-size="11.00" fill="#000000">bit[1]</text>
<polygon fill="none" stroke="#000000" points="10,-59.2 10,-81.2 159,-81.2 159,-59.2 10,-59.2"/>
<text text-anchor="start" x="30" y="-66.3" font-family="Helvetica,sans-Serif" font-size="11.00" fill="#000000">Common_DealerFK</text>
<polygon fill="none" stroke="#000000" points="159,-59.2 159,-81.2 270,-81.2 270,-59.2 159,-59.2"/>
<text text-anchor="start" x="162" y="-66.9" font-family="Helvetica,sans-Serif" font-size="11.00" fill="#000000">int[10]</text>
<polygon fill="#ffffff" stroke="transparent" points="10,-40.2 10,-59.2 73,-59.2 73,-40.2 10,-40.2"/>
<polygon fill="none" stroke="#000000" points="10,-40.2 10,-59.2 73,-59.2 73,-40.2 10,-40.2"/>
<text text-anchor="start" x="13" y="-46.3" font-family="Helvetica,sans-Serif" font-size="11.00" fill="#000000">&lt; 0</text>
<polygon fill="#ffffff" stroke="transparent" points="73,-40.2 73,-59.2 159,-59.2 159,-40.2 73,-40.2"/>
<polygon fill="none" stroke="#000000" points="73,-40.2 73,-59.2 159,-59.2 159,-40.2 73,-40.2"/>
<text text-anchor="start" x="117.4956" y="-46.3" font-family="Helvetica,sans-Serif" font-size="11.00" fill="#000000">61 rows</text>
<polygon fill="#ffffff" stroke="transparent" points="159,-40.2 159,-59.2 270,-59.2 270,-40.2 159,-40.2"/>
<polygon fill="none" stroke="#000000" points="159,-40.2 159,-59.2 270,-59.2 270,-40.2 159,-40.2"/>
<text text-anchor="start" x="251.4053" y="-46.3" font-family="Helvetica,sans-Serif" font-size="11.00" fill="#000000">0 &gt;</text>
<polygon fill="none" stroke="#000000" stroke-width="2" points="9,-39.2 9,-369.2 271,-369.2 271,-39.2 9,-39.2"/>
</a>
</g>
</g>
</g>
</svg>
