<?xml version="1.0" encoding="UTF-8" standalone="no"?>
<!DOCTYPE svg PUBLIC "-//W3C//DTD SVG 1.1//EN"
 "http://www.w3.org/Graphics/SVG/1.1/DTD/svg11.dtd">
<!-- Generated by graphviz version 2.40.1 (20161225.0304)
 -->
<!-- Title: twoDegreesRelationshipsDiagram Pages: 1 -->
<svg width="737pt" height="629pt"
 viewBox="0.00 0.00 737.00 628.70" xmlns="http://www.w3.org/2000/svg" xmlns:xlink="http://www.w3.org/1999/xlink">
<g id="graph0" class="graph" transform="scale(1 1) rotate(0) translate(4 624.7)">
<title>twoDegreesRelationshipsDiagram</title>
<polygon fill="#ffffff" stroke="transparent" points="-4,4 -4,-624.7 733,-624.7 733,4 -4,4"/>
<text text-anchor="middle" x="72.4936" y="-7.3" font-family="Helvetica,sans-Serif" font-size="11.00" fill="#000000">Generated by SchemaSpy</text>
<!-- common_dealerproduct -->
<g id="node1" class="node">
<title>common_dealerproduct</title>
<g id="a_node1"><a xlink:href="../../tables/common_dealerproduct.html" xlink:title="common_dealerproduct" target="_top">
<polygon fill="#ffffff" stroke="transparent" points="546,-555.7 546,-616.7 721,-616.7 721,-555.7 546,-555.7"/>
<polygon fill="#f5f5f5" stroke="transparent" points="546.5,-593.2 546.5,-616.2 721.5,-616.2 721.5,-593.2 546.5,-593.2"/>
<polygon fill="none" stroke="#000000" points="546.5,-593.2 546.5,-616.2 721.5,-616.2 721.5,-593.2 546.5,-593.2"/>
<text text-anchor="start" x="551.5" y="-601.8" font-family="Helvetica,sans-Serif" font-weight="bold" font-size="11.00" fill="#000000">common_dealerproduct</text>
<text text-anchor="start" x="687.0219" y="-601.3" font-family="Helvetica,sans-Serif" font-size="11.00" fill="#000000">[table]</text>
<polygon fill="none" stroke="#000000" points="546.5,-574.2 546.5,-593.2 721.5,-593.2 721.5,-574.2 546.5,-574.2"/>
<text text-anchor="start" x="549.5" y="-580.3" font-family="Helvetica,sans-Serif" font-size="11.00" fill="#000000">...</text>
<polygon fill="#ffffff" stroke="transparent" points="546.5,-555.2 546.5,-574.2 613.5,-574.2 613.5,-555.2 546.5,-555.2"/>
<polygon fill="none" stroke="#000000" points="546.5,-555.2 546.5,-574.2 613.5,-574.2 613.5,-555.2 546.5,-555.2"/>
<text text-anchor="start" x="549.5" y="-561.3" font-family="Helvetica,sans-Serif" font-size="11.00" fill="#000000">&lt; 2</text>
<polygon fill="#ffffff" stroke="transparent" points="613.5,-555.2 613.5,-574.2 686.5,-574.2 686.5,-555.2 613.5,-555.2"/>
<polygon fill="none" stroke="#000000" points="613.5,-555.2 613.5,-574.2 686.5,-574.2 686.5,-555.2 613.5,-555.2"/>
<text text-anchor="start" x="638.8807" y="-561.3" font-family="Helvetica,sans-Serif" font-size="11.00" fill="#000000">427 rows</text>
<polygon fill="#ffffff" stroke="transparent" points="686.5,-555.2 686.5,-574.2 721.5,-574.2 721.5,-555.2 686.5,-555.2"/>
<polygon fill="none" stroke="#000000" points="686.5,-555.2 686.5,-574.2 721.5,-574.2 721.5,-555.2 686.5,-555.2"/>
<text text-anchor="start" x="712.3862" y="-561.3" font-family="Helvetica,sans-Serif" font-size="11.00" fill="#000000"> &#160;</text>
</a>
</g>
</g>
<!-- common_product -->
<g id="node2" class="node">
<title>common_product</title>
<g id="a_node2"><a xlink:href="../../tables/common_product.html" xlink:title="common_product" target="_top">
<polygon fill="#ffffff" stroke="transparent" points="326,-285.7 326,-412.7 497,-412.7 497,-285.7 326,-285.7"/>
<polygon fill="#f5f5f5" stroke="transparent" points="326.5,-389.2 326.5,-412.2 497.5,-412.2 497.5,-389.2 326.5,-389.2"/>
<polygon fill="none" stroke="#000000" points="326.5,-389.2 326.5,-412.2 497.5,-412.2 497.5,-389.2 326.5,-389.2"/>
<text text-anchor="start" x="331.5" y="-397.8" font-family="Helvetica,sans-Serif" font-weight="bold" font-size="11.00" fill="#000000">common_product</text>
<text text-anchor="start" x="462.5437" y="-397.3" font-family="Helvetica,sans-Serif" font-size="11.00" fill="#000000">[table]</text>
<polygon fill="none" stroke="#000000" points="326.5,-367.2 326.5,-389.2 497.5,-389.2 497.5,-367.2 326.5,-367.2"/>
<image xlink:href="../../images/primaryKeys.png" width="11px" height="12px" preserveAspectRatio="xMinYMin meet" x="331.5" y="-384.2"/>
<text text-anchor="start" x="346.5" y="-374.3" font-family="Helvetica,sans-Serif" font-size="11.00" fill="#000000">ID</text>
<polygon fill="#ffffff" stroke="transparent" points="326.5,-345.2 326.5,-367.2 497.5,-367.2 497.5,-345.2 326.5,-345.2"/>
<polygon fill="none" stroke="#000000" points="326.5,-345.2 326.5,-367.2 497.5,-367.2 497.5,-345.2 326.5,-345.2"/>
<image xlink:href="../../images/foreignKeys.png" width="11px" height="12px" preserveAspectRatio="xMinYMin meet" x="331.5" y="-362.2"/>
<text text-anchor="start" x="346.5" y="-352.3" font-family="Helvetica,sans-Serif" font-size="11.00" fill="#000000">Common_ManufacturerFK</text>
<polygon fill="none" stroke="#000000" points="326.5,-323.2 326.5,-345.2 497.5,-345.2 497.5,-323.2 326.5,-323.2"/>
<image xlink:href="../../images/foreignKeys.png" width="11px" height="12px" preserveAspectRatio="xMinYMin meet" x="331.5" y="-340.2"/>
<text text-anchor="start" x="346.5" y="-330.3" font-family="Helvetica,sans-Serif" font-size="11.00" fill="#000000">Common_PackTypeID</text>
<polygon fill="none" stroke="#000000" points="326.5,-304.2 326.5,-323.2 497.5,-323.2 497.5,-304.2 326.5,-304.2"/>
<text text-anchor="start" x="329.5" y="-310.3" font-family="Helvetica,sans-Serif" font-size="11.00" fill="#000000">...</text>
<polygon fill="#ffffff" stroke="transparent" points="326.5,-285.2 326.5,-304.2 389.5,-304.2 389.5,-285.2 326.5,-285.2"/>
<polygon fill="none" stroke="#000000" points="326.5,-285.2 326.5,-304.2 389.5,-304.2 389.5,-285.2 326.5,-285.2"/>
<text text-anchor="start" x="329.5" y="-291.3" font-family="Helvetica,sans-Serif" font-size="11.00" fill="#000000">&lt; 1</text>
<polygon fill="#ffffff" stroke="transparent" points="389.5,-285.2 389.5,-304.2 454.5,-304.2 454.5,-285.2 389.5,-285.2"/>
<polygon fill="none" stroke="#000000" points="389.5,-285.2 389.5,-304.2 454.5,-304.2 454.5,-285.2 389.5,-285.2"/>
<text text-anchor="start" x="412.9956" y="-291.3" font-family="Helvetica,sans-Serif" font-size="11.00" fill="#000000">54 rows</text>
<polygon fill="#ffffff" stroke="transparent" points="454.5,-285.2 454.5,-304.2 497.5,-304.2 497.5,-285.2 454.5,-285.2"/>
<polygon fill="none" stroke="#000000" points="454.5,-285.2 454.5,-304.2 497.5,-304.2 497.5,-285.2 454.5,-285.2"/>
<text text-anchor="start" x="478.9053" y="-291.3" font-family="Helvetica,sans-Serif" font-size="11.00" fill="#000000">6 &gt;</text>
</a>
</g>
</g>
<!-- common_dealerproduct&#45;&gt;common_product -->
<g id="edge1" class="edge">
<title>common_dealerproduct:w&#45;&gt;common_product:e</title>
<path fill="none" stroke="#000000" d="M531.9332,-581.0365C468.7257,-559.1273 585.5058,-378.2 497.5,-378.2"/>
<polygon fill="#000000" stroke="#000000" points="538.5868,-582.0246 545.9711,-586.7609 542.5434,-582.6123 546.5,-583.2 546.5,-583.2 546.5,-583.2 542.5434,-582.6123 547.0289,-579.6391 538.5868,-582.0246 538.5868,-582.0246"/>
<ellipse fill="none" stroke="#000000" cx="535.4215" cy="-581.5545" rx="3.2" ry="3.2"/>
</g>
<!-- common_manufacturer -->
<g id="node3" class="node">
<title>common_manufacturer</title>
<g id="a_node3"><a xlink:href="../../tables/common_manufacturer.html" xlink:title="common_manufacturer" target="_top">
<polygon fill="#ffffff" stroke="transparent" points="8,-38.2 8,-392.2 277,-392.2 277,-38.2 8,-38.2"/>
<polygon fill="#f5f5f5" stroke="transparent" points="10.5,-367.2 10.5,-390.2 275.5,-390.2 275.5,-367.2 10.5,-367.2"/>
<polygon fill="none" stroke="#000000" points="10.5,-367.2 10.5,-390.2 275.5,-390.2 275.5,-367.2 10.5,-367.2"/>
<text text-anchor="start" x="15.5" y="-375.8" font-family="Helvetica,sans-Serif" font-weight="bold" font-size="11.00" fill="#000000">common_manufacturer</text>
<text text-anchor="start" x="240.5437" y="-375.3" font-family="Helvetica,sans-Serif" font-size="11.00" fill="#000000">[table]</text>
<polygon fill="none" stroke="#000000" points="10.5,-345.2 10.5,-367.2 164.5,-367.2 164.5,-345.2 10.5,-345.2"/>
<image xlink:href="../../images/primaryKeys.png" width="11px" height="12px" preserveAspectRatio="xMinYMin meet" x="15.5" y="-362.2"/>
<text text-anchor="start" x="30.5" y="-352.3" font-family="Helvetica,sans-Serif" font-size="11.00" fill="#000000">ID</text>
<polygon fill="none" stroke="#000000" points="164.5,-345.2 164.5,-367.2 275.5,-367.2 275.5,-345.2 164.5,-345.2"/>
<text text-anchor="start" x="167.5" y="-352.9" font-family="Helvetica,sans-Serif" font-size="11.00" fill="#000000">int[10]</text>
<polygon fill="none" stroke="#000000" points="10.5,-323.2 10.5,-345.2 164.5,-345.2 164.5,-323.2 10.5,-323.2"/>
<text text-anchor="start" x="30.5" y="-330.3" font-family="Helvetica,sans-Serif" font-size="11.00" fill="#000000">Active</text>
<polygon fill="none" stroke="#000000" points="164.5,-323.2 164.5,-345.2 275.5,-345.2 275.5,-323.2 164.5,-323.2"/>
<text text-anchor="start" x="167.5" y="-330.9" font-family="Helvetica,sans-Serif" font-size="11.00" fill="#000000">bit[1]</text>
<polygon fill="none" stroke="#000000" points="10.5,-301.2 10.5,-323.2 164.5,-323.2 164.5,-301.2 10.5,-301.2"/>
<text text-anchor="start" x="30.5" y="-308.3" font-family="Helvetica,sans-Serif" font-size="11.00" fill="#000000">User</text>
<polygon fill="none" stroke="#000000" points="164.5,-301.2 164.5,-323.2 275.5,-323.2 275.5,-301.2 164.5,-301.2"/>
<text text-anchor="start" x="167.1115" y="-308.9" font-family="Helvetica,sans-Serif" font-size="11.00" fill="#000000">longtext[2147483647]</text>
<polygon fill="none" stroke="#000000" points="10.5,-279.2 10.5,-301.2 164.5,-301.2 164.5,-279.2 10.5,-279.2"/>
<text text-anchor="start" x="30.5" y="-286.3" font-family="Helvetica,sans-Serif" font-size="11.00" fill="#000000">CD</text>
<polygon fill="none" stroke="#000000" points="164.5,-279.2 164.5,-301.2 275.5,-301.2 275.5,-279.2 164.5,-279.2"/>
<text text-anchor="start" x="167.5" y="-286.9" font-family="Helvetica,sans-Serif" font-size="11.00" fill="#000000">datetime[26]</text>
<polygon fill="none" stroke="#000000" points="10.5,-257.2 10.5,-279.2 164.5,-279.2 164.5,-257.2 10.5,-257.2"/>
<text text-anchor="start" x="30.5" y="-264.3" font-family="Helvetica,sans-Serif" font-size="11.00" fill="#000000">UD</text>
<polygon fill="none" stroke="#000000" points="164.5,-257.2 164.5,-279.2 275.5,-279.2 275.5,-257.2 164.5,-257.2"/>
<text text-anchor="start" x="167.5" y="-264.9" font-family="Helvetica,sans-Serif" font-size="11.00" fill="#000000">datetime[26]</text>
<polygon fill="none" stroke="#000000" points="10.5,-235.2 10.5,-257.2 164.5,-257.2 164.5,-235.2 10.5,-235.2"/>
<text text-anchor="start" x="30.5" y="-242.3" font-family="Helvetica,sans-Serif" font-size="11.00" fill="#000000">Remarks</text>
<polygon fill="none" stroke="#000000" points="164.5,-235.2 164.5,-257.2 275.5,-257.2 275.5,-235.2 164.5,-235.2"/>
<text text-anchor="start" x="167.1115" y="-242.9" font-family="Helvetica,sans-Serif" font-size="11.00" fill="#000000">longtext[2147483647]</text>
<polygon fill="none" stroke="#000000" points="10.5,-213.2 10.5,-235.2 164.5,-235.2 164.5,-213.2 10.5,-213.2"/>
<text text-anchor="start" x="30.5" y="-220.3" font-family="Helvetica,sans-Serif" font-size="11.00" fill="#000000">UserID</text>
<polygon fill="none" stroke="#000000" points="164.5,-213.2 164.5,-235.2 275.5,-235.2 275.5,-213.2 164.5,-213.2"/>
<text text-anchor="start" x="167.5" y="-220.9" font-family="Helvetica,sans-Serif" font-size="11.00" fill="#000000">int[10]</text>
<polygon fill="none" stroke="#000000" points="10.5,-191.2 10.5,-213.2 164.5,-213.2 164.5,-191.2 10.5,-191.2"/>
<text text-anchor="start" x="30.5" y="-198.3" font-family="Helvetica,sans-Serif" font-size="11.00" fill="#000000">Name</text>
<polygon fill="none" stroke="#000000" points="164.5,-191.2 164.5,-213.2 275.5,-213.2 275.5,-191.2 164.5,-191.2"/>
<text text-anchor="start" x="167.1115" y="-198.9" font-family="Helvetica,sans-Serif" font-size="11.00" fill="#000000">longtext[2147483647]</text>
<polygon fill="none" stroke="#000000" points="10.5,-169.2 10.5,-191.2 164.5,-191.2 164.5,-169.2 10.5,-169.2"/>
<text text-anchor="start" x="30.5" y="-176.3" font-family="Helvetica,sans-Serif" font-size="11.00" fill="#000000">Common_CountriesFK</text>
<polygon fill="none" stroke="#000000" points="164.5,-169.2 164.5,-191.2 275.5,-191.2 275.5,-169.2 164.5,-169.2"/>
<text text-anchor="start" x="167.5" y="-176.9" font-family="Helvetica,sans-Serif" font-size="11.00" fill="#000000">int[10]</text>
<polygon fill="none" stroke="#000000" points="10.5,-147.2 10.5,-169.2 164.5,-169.2 164.5,-147.2 10.5,-147.2"/>
<text text-anchor="start" x="30.5" y="-154.3" font-family="Helvetica,sans-Serif" font-size="11.00" fill="#000000">Common_DealerFK</text>
<polygon fill="none" stroke="#000000" points="164.5,-147.2 164.5,-169.2 275.5,-169.2 275.5,-147.2 164.5,-147.2"/>
<text text-anchor="start" x="167.5" y="-154.9" font-family="Helvetica,sans-Serif" font-size="11.00" fill="#000000">int[10]</text>
<polygon fill="none" stroke="#000000" points="10.5,-125.2 10.5,-147.2 164.5,-147.2 164.5,-125.2 10.5,-125.2"/>
<text text-anchor="start" x="30.5" y="-132.3" font-family="Helvetica,sans-Serif" font-size="11.00" fill="#000000">Contact</text>
<polygon fill="none" stroke="#000000" points="164.5,-125.2 164.5,-147.2 275.5,-147.2 275.5,-125.2 164.5,-125.2"/>
<text text-anchor="start" x="167.1115" y="-132.9" font-family="Helvetica,sans-Serif" font-size="11.00" fill="#000000">longtext[2147483647]</text>
<polygon fill="none" stroke="#000000" points="10.5,-103.2 10.5,-125.2 164.5,-125.2 164.5,-103.2 10.5,-103.2"/>
<text text-anchor="start" x="30.5" y="-110.3" font-family="Helvetica,sans-Serif" font-size="11.00" fill="#000000">Email</text>
<polygon fill="none" stroke="#000000" points="164.5,-103.2 164.5,-125.2 275.5,-125.2 275.5,-103.2 164.5,-103.2"/>
<text text-anchor="start" x="167.1115" y="-110.9" font-family="Helvetica,sans-Serif" font-size="11.00" fill="#000000">longtext[2147483647]</text>
<polygon fill="none" stroke="#000000" points="10.5,-81.2 10.5,-103.2 164.5,-103.2 164.5,-81.2 10.5,-81.2"/>
<text text-anchor="start" x="30.5" y="-88.3" font-family="Helvetica,sans-Serif" font-size="11.00" fill="#000000">Address</text>
<polygon fill="none" stroke="#000000" points="164.5,-81.2 164.5,-103.2 275.5,-103.2 275.5,-81.2 164.5,-81.2"/>
<text text-anchor="start" x="167.1115" y="-88.9" font-family="Helvetica,sans-Serif" font-size="11.00" fill="#000000">longtext[2147483647]</text>
<polygon fill="none" stroke="#000000" points="10.5,-59.2 10.5,-81.2 164.5,-81.2 164.5,-59.2 10.5,-59.2"/>
<text text-anchor="start" x="30.5" y="-66.3" font-family="Helvetica,sans-Serif" font-size="11.00" fill="#000000">IsLock</text>
<polygon fill="none" stroke="#000000" points="164.5,-59.2 164.5,-81.2 275.5,-81.2 275.5,-59.2 164.5,-59.2"/>
<text text-anchor="start" x="167.5" y="-66.9" font-family="Helvetica,sans-Serif" font-size="11.00" fill="#000000">bit[1]</text>
<polygon fill="#ffffff" stroke="transparent" points="10.5,-40.2 10.5,-59.2 75.5,-59.2 75.5,-40.2 10.5,-40.2"/>
<polygon fill="none" stroke="#000000" points="10.5,-40.2 10.5,-59.2 75.5,-59.2 75.5,-40.2 10.5,-40.2"/>
<text text-anchor="start" x="13.5" y="-46.3" font-family="Helvetica,sans-Serif" font-size="11.00" fill="#000000">&lt; 0</text>
<polygon fill="#ffffff" stroke="transparent" points="75.5,-40.2 75.5,-59.2 164.5,-59.2 164.5,-40.2 75.5,-40.2"/>
<polygon fill="none" stroke="#000000" points="75.5,-40.2 75.5,-59.2 164.5,-59.2 164.5,-40.2 75.5,-40.2"/>
<text text-anchor="start" x="122.9956" y="-46.3" font-family="Helvetica,sans-Serif" font-size="11.00" fill="#000000">33 rows</text>
<polygon fill="#ffffff" stroke="transparent" points="164.5,-40.2 164.5,-59.2 275.5,-59.2 275.5,-40.2 164.5,-40.2"/>
<polygon fill="none" stroke="#000000" points="164.5,-40.2 164.5,-59.2 275.5,-59.2 275.5,-40.2 164.5,-40.2"/>
<text text-anchor="start" x="256.9053" y="-46.3" font-family="Helvetica,sans-Serif" font-size="11.00" fill="#000000">1 &gt;</text>
<polygon fill="none" stroke="#000000" stroke-width="2" points="9,-39.2 9,-391.2 276,-391.2 276,-39.2 9,-39.2"/>
</a>
</g>
</g>
<!-- common_product&#45;&gt;common_manufacturer -->
<g id="edge2" class="edge">
<title>common_product:w&#45;&gt;common_manufacturer:e</title>
<path fill="none" stroke="#000000" d="M311.776,-356.2C299.7815,-356.2 292.3229,-356.2 275.5,-356.2"/>
<polygon fill="#000000" stroke="#000000" points="318.5,-356.2001 326.5,-359.8 322.5,-356.2 326.5,-356.2 326.5,-356.2 326.5,-356.2 322.5,-356.2 326.5,-352.6 318.5,-356.2001 318.5,-356.2001"/>
<ellipse fill="none" stroke="#000000" cx="315.3" cy="-356.2001" rx="3.2" ry="3.2"/>
</g>
<!-- order_bookingitem -->
<g id="node4" class="node">
<title>order_bookingitem</title>
<g id="a_node4"><a xlink:href="../../tables/order_bookingitem.html" xlink:title="order_bookingitem" target="_top">
<polygon fill="#ffffff" stroke="transparent" points="560,-473.7 560,-534.7 707,-534.7 707,-473.7 560,-473.7"/>
<polygon fill="#f5f5f5" stroke="transparent" points="560.5,-511.2 560.5,-534.2 707.5,-534.2 707.5,-511.2 560.5,-511.2"/>
<polygon fill="none" stroke="#000000" points="560.5,-511.2 560.5,-534.2 707.5,-534.2 707.5,-511.2 560.5,-511.2"/>
<text text-anchor="start" x="565.5" y="-519.8" font-family="Helvetica,sans-Serif" font-weight="bold" font-size="11.00" fill="#000000">order_bookingitem</text>
<text text-anchor="start" x="673.0219" y="-519.3" font-family="Helvetica,sans-Serif" font-size="11.00" fill="#000000">[table]</text>
<polygon fill="none" stroke="#000000" points="560.5,-492.2 560.5,-511.2 707.5,-511.2 707.5,-492.2 560.5,-492.2"/>
<text text-anchor="start" x="563.5" y="-498.3" font-family="Helvetica,sans-Serif" font-size="11.00" fill="#000000">...</text>
<polygon fill="#ffffff" stroke="transparent" points="560.5,-473.2 560.5,-492.2 616.5,-492.2 616.5,-473.2 560.5,-473.2"/>
<polygon fill="none" stroke="#000000" points="560.5,-473.2 560.5,-492.2 616.5,-492.2 616.5,-473.2 560.5,-473.2"/>
<text text-anchor="start" x="563.5" y="-479.3" font-family="Helvetica,sans-Serif" font-size="11.00" fill="#000000">&lt; 2</text>
<polygon fill="#ffffff" stroke="transparent" points="616.5,-473.2 616.5,-492.2 677.5,-492.2 677.5,-473.2 616.5,-473.2"/>
<polygon fill="none" stroke="#000000" points="616.5,-473.2 616.5,-492.2 677.5,-492.2 677.5,-473.2 616.5,-473.2"/>
<text text-anchor="start" x="635.9956" y="-479.3" font-family="Helvetica,sans-Serif" font-size="11.00" fill="#000000">62 rows</text>
<polygon fill="#ffffff" stroke="transparent" points="677.5,-473.2 677.5,-492.2 707.5,-492.2 707.5,-473.2 677.5,-473.2"/>
<polygon fill="none" stroke="#000000" points="677.5,-473.2 677.5,-492.2 707.5,-492.2 707.5,-473.2 677.5,-473.2"/>
<text text-anchor="start" x="698.3862" y="-479.3" font-family="Helvetica,sans-Serif" font-size="11.00" fill="#000000"> &#160;</text>
</a>
</g>
</g>
<!-- order_bookingitem&#45;&gt;common_product -->
<g id="edge3" class="edge">
<title>order_bookingitem:w&#45;&gt;common_product:e</title>
<path fill="none" stroke="#000000" d="M546.223,-498.1595C509.2341,-479.2186 553.1621,-378.2 497.5,-378.2"/>
<polygon fill="#000000" stroke="#000000" points="552.6755,-499.5336 559.7501,-504.721 556.5877,-500.3668 560.5,-501.2 560.5,-501.2 560.5,-501.2 556.5877,-500.3668 561.2499,-497.679 552.6755,-499.5336 552.6755,-499.5336"/>
<ellipse fill="none" stroke="#000000" cx="549.5457" cy="-498.8671" rx="3.2" ry="3.2"/>
</g>
<!-- order_inventory -->
<g id="node5" class="node">
<title>order_inventory</title>
<g id="a_node5"><a xlink:href="../../tables/order_inventory.html" xlink:title="order_inventory" target="_top">
<polygon fill="#ffffff" stroke="transparent" points="568.5,-391.7 568.5,-452.7 698.5,-452.7 698.5,-391.7 568.5,-391.7"/>
<polygon fill="#f5f5f5" stroke="transparent" points="568.5,-429.2 568.5,-452.2 698.5,-452.2 698.5,-429.2 568.5,-429.2"/>
<polygon fill="none" stroke="#000000" points="568.5,-429.2 568.5,-452.2 698.5,-452.2 698.5,-429.2 568.5,-429.2"/>
<text text-anchor="start" x="573.5" y="-437.8" font-family="Helvetica,sans-Serif" font-weight="bold" font-size="11.00" fill="#000000">order_inventory</text>
<text text-anchor="start" x="664.0219" y="-437.3" font-family="Helvetica,sans-Serif" font-size="11.00" fill="#000000">[table]</text>
<polygon fill="none" stroke="#000000" points="568.5,-410.2 568.5,-429.2 698.5,-429.2 698.5,-410.2 568.5,-410.2"/>
<text text-anchor="start" x="571.5" y="-416.3" font-family="Helvetica,sans-Serif" font-size="11.00" fill="#000000">...</text>
<polygon fill="#ffffff" stroke="transparent" points="568.5,-391.2 568.5,-410.2 612.5,-410.2 612.5,-391.2 568.5,-391.2"/>
<polygon fill="none" stroke="#000000" points="568.5,-391.2 568.5,-410.2 612.5,-410.2 612.5,-391.2 568.5,-391.2"/>
<text text-anchor="start" x="571.5" y="-397.3" font-family="Helvetica,sans-Serif" font-size="11.00" fill="#000000">&lt; 1</text>
<polygon fill="#ffffff" stroke="transparent" points="612.5,-391.2 612.5,-410.2 674.5,-410.2 674.5,-391.2 612.5,-391.2"/>
<polygon fill="none" stroke="#000000" points="612.5,-391.2 612.5,-410.2 674.5,-410.2 674.5,-391.2 612.5,-391.2"/>
<text text-anchor="start" x="626.8807" y="-397.3" font-family="Helvetica,sans-Serif" font-size="11.00" fill="#000000">136 rows</text>
<polygon fill="#ffffff" stroke="transparent" points="674.5,-391.2 674.5,-410.2 698.5,-410.2 698.5,-391.2 674.5,-391.2"/>
<polygon fill="none" stroke="#000000" points="674.5,-391.2 674.5,-410.2 698.5,-410.2 698.5,-391.2 674.5,-391.2"/>
<text text-anchor="start" x="689.3862" y="-397.3" font-family="Helvetica,sans-Serif" font-size="11.00" fill="#000000"> &#160;</text>
</a>
</g>
</g>
<!-- order_inventory&#45;&gt;common_product -->
<g id="edge4" class="edge">
<title>order_inventory:w&#45;&gt;common_product:e</title>
<path fill="none" stroke="#000000" d="M554.2431,-416.6353C531.7439,-407.6594 528.3878,-378.2 497.5,-378.2"/>
<polygon fill="#000000" stroke="#000000" points="560.6264,-417.7835 567.8626,-422.7431 564.5632,-418.4918 568.5,-419.2 568.5,-419.2 568.5,-419.2 564.5632,-418.4918 569.1374,-415.6569 560.6264,-417.7835 560.6264,-417.7835"/>
<ellipse fill="none" stroke="#000000" cx="557.4769" cy="-417.2169" rx="3.2" ry="3.2"/>
</g>
<!-- order_itemserialno -->
<g id="node6" class="node">
<title>order_itemserialno</title>
<g id="a_node6"><a xlink:href="../../tables/order_itemserialno.html" xlink:title="order_itemserialno" target="_top">
<polygon fill="#ffffff" stroke="transparent" points="560,-309.7 560,-370.7 707,-370.7 707,-309.7 560,-309.7"/>
<polygon fill="#f5f5f5" stroke="transparent" points="560.5,-347.2 560.5,-370.2 707.5,-370.2 707.5,-347.2 560.5,-347.2"/>
<polygon fill="none" stroke="#000000" points="560.5,-347.2 560.5,-370.2 707.5,-370.2 707.5,-347.2 560.5,-347.2"/>
<text text-anchor="start" x="565.5" y="-355.8" font-family="Helvetica,sans-Serif" font-weight="bold" font-size="11.00" fill="#000000">order_itemserialno</text>
<text text-anchor="start" x="673.0219" y="-355.3" font-family="Helvetica,sans-Serif" font-size="11.00" fill="#000000">[table]</text>
<polygon fill="none" stroke="#000000" points="560.5,-328.2 560.5,-347.2 707.5,-347.2 707.5,-328.2 560.5,-328.2"/>
<text text-anchor="start" x="563.5" y="-334.3" font-family="Helvetica,sans-Serif" font-size="11.00" fill="#000000">...</text>
<polygon fill="#ffffff" stroke="transparent" points="560.5,-309.2 560.5,-328.2 601.5,-328.2 601.5,-309.2 560.5,-309.2"/>
<polygon fill="none" stroke="#000000" points="560.5,-309.2 560.5,-328.2 601.5,-328.2 601.5,-309.2 560.5,-309.2"/>
<text text-anchor="start" x="563.5" y="-315.3" font-family="Helvetica,sans-Serif" font-size="11.00" fill="#000000">&lt; 2</text>
<polygon fill="#ffffff" stroke="transparent" points="601.5,-309.2 601.5,-328.2 676.5,-328.2 676.5,-309.2 601.5,-309.2"/>
<polygon fill="none" stroke="#000000" points="601.5,-309.2 601.5,-328.2 676.5,-328.2 676.5,-309.2 601.5,-309.2"/>
<text text-anchor="start" x="613.594" y="-315.3" font-family="Helvetica,sans-Serif" font-size="11.00" fill="#000000">19,002 rows</text>
<polygon fill="#ffffff" stroke="transparent" points="676.5,-309.2 676.5,-328.2 707.5,-328.2 707.5,-309.2 676.5,-309.2"/>
<polygon fill="none" stroke="#000000" points="676.5,-309.2 676.5,-328.2 707.5,-328.2 707.5,-309.2 676.5,-309.2"/>
<text text-anchor="start" x="688.9053" y="-315.3" font-family="Helvetica,sans-Serif" font-size="11.00" fill="#000000">1 &gt;</text>
</a>
</g>
</g>
<!-- order_itemserialno&#45;&gt;common_product -->
<g id="edge5" class="edge">
<title>order_itemserialno:w&#45;&gt;common_product:e</title>
<path fill="none" stroke="#000000" d="M546.1951,-340.4172C527.3044,-350.0826 525.1654,-378.2 497.5,-378.2"/>
<polygon fill="#000000" stroke="#000000" points="552.695,-338.9554 561.2899,-340.7123 556.5975,-338.0777 560.5,-337.2 560.5,-337.2 560.5,-337.2 556.5975,-338.0777 559.7101,-333.6877 552.695,-338.9554 552.695,-338.9554"/>
<ellipse fill="none" stroke="#000000" cx="549.5729" cy="-339.6576" rx="3.2" ry="3.2"/>
</g>
<!-- order_receiveitem -->
<g id="node7" class="node">
<title>order_receiveitem</title>
<g id="a_node7"><a xlink:href="../../tables/order_receiveitem.html" xlink:title="order_receiveitem" target="_top">
<polygon fill="#ffffff" stroke="transparent" points="562.5,-227.7 562.5,-288.7 704.5,-288.7 704.5,-227.7 562.5,-227.7"/>
<polygon fill="#f5f5f5" stroke="transparent" points="562.5,-265.2 562.5,-288.2 704.5,-288.2 704.5,-265.2 562.5,-265.2"/>
<polygon fill="none" stroke="#000000" points="562.5,-265.2 562.5,-288.2 704.5,-288.2 704.5,-265.2 562.5,-265.2"/>
<text text-anchor="start" x="567.5" y="-273.8" font-family="Helvetica,sans-Serif" font-weight="bold" font-size="11.00" fill="#000000">order_receiveitem</text>
<text text-anchor="start" x="670.0219" y="-273.3" font-family="Helvetica,sans-Serif" font-size="11.00" fill="#000000">[table]</text>
<polygon fill="none" stroke="#000000" points="562.5,-246.2 562.5,-265.2 704.5,-265.2 704.5,-246.2 562.5,-246.2"/>
<text text-anchor="start" x="565.5" y="-252.3" font-family="Helvetica,sans-Serif" font-size="11.00" fill="#000000">...</text>
<polygon fill="#ffffff" stroke="transparent" points="562.5,-227.2 562.5,-246.2 605.5,-246.2 605.5,-227.2 562.5,-227.2"/>
<polygon fill="none" stroke="#000000" points="562.5,-227.2 562.5,-246.2 605.5,-246.2 605.5,-227.2 562.5,-227.2"/>
<text text-anchor="start" x="565.5" y="-233.3" font-family="Helvetica,sans-Serif" font-size="11.00" fill="#000000">&lt; 2</text>
<polygon fill="#ffffff" stroke="transparent" points="605.5,-227.2 605.5,-246.2 681.5,-246.2 681.5,-227.2 605.5,-227.2"/>
<polygon fill="none" stroke="#000000" points="605.5,-227.2 605.5,-246.2 681.5,-246.2 681.5,-227.2 605.5,-227.2"/>
<text text-anchor="start" x="618.594" y="-233.3" font-family="Helvetica,sans-Serif" font-size="11.00" fill="#000000">18,922 rows</text>
<polygon fill="#ffffff" stroke="transparent" points="681.5,-227.2 681.5,-246.2 704.5,-246.2 704.5,-227.2 681.5,-227.2"/>
<polygon fill="none" stroke="#000000" points="681.5,-227.2 681.5,-246.2 704.5,-246.2 704.5,-227.2 681.5,-227.2"/>
<text text-anchor="start" x="695.3862" y="-233.3" font-family="Helvetica,sans-Serif" font-size="11.00" fill="#000000"> &#160;</text>
</a>
</g>
</g>
<!-- order_receiveitem&#45;&gt;common_product -->
<g id="edge6" class="edge">
<title>order_receiveitem:w&#45;&gt;common_product:e</title>
<path fill="none" stroke="#000000" d="M548.0886,-258.2405C510.6094,-277.1814 553.5339,-378.2 497.5,-378.2"/>
<polygon fill="#000000" stroke="#000000" points="554.6723,-256.8515 563.2432,-258.7225 558.5862,-256.0258 562.5,-255.2 562.5,-255.2 562.5,-255.2 558.5862,-256.0258 561.7568,-251.6775 554.6723,-256.8515 554.6723,-256.8515"/>
<ellipse fill="none" stroke="#000000" cx="551.5412" cy="-257.5121" rx="3.2" ry="3.2"/>
</g>
<!-- order_saleitem -->
<g id="node8" class="node">
<title>order_saleitem</title>
<g id="a_node8"><a xlink:href="../../tables/order_saleitem.html" xlink:title="order_saleitem" target="_top">
<polygon fill="#ffffff" stroke="transparent" points="571.5,-145.7 571.5,-206.7 695.5,-206.7 695.5,-145.7 571.5,-145.7"/>
<polygon fill="#f5f5f5" stroke="transparent" points="571.5,-183.2 571.5,-206.2 695.5,-206.2 695.5,-183.2 571.5,-183.2"/>
<polygon fill="none" stroke="#000000" points="571.5,-183.2 571.5,-206.2 695.5,-206.2 695.5,-183.2 571.5,-183.2"/>
<text text-anchor="start" x="576.5" y="-191.8" font-family="Helvetica,sans-Serif" font-weight="bold" font-size="11.00" fill="#000000">order_saleitem</text>
<text text-anchor="start" x="661.0219" y="-191.3" font-family="Helvetica,sans-Serif" font-size="11.00" fill="#000000">[table]</text>
<polygon fill="none" stroke="#000000" points="571.5,-164.2 571.5,-183.2 695.5,-183.2 695.5,-164.2 571.5,-164.2"/>
<text text-anchor="start" x="574.5" y="-170.3" font-family="Helvetica,sans-Serif" font-size="11.00" fill="#000000">...</text>
<polygon fill="#ffffff" stroke="transparent" points="571.5,-145.2 571.5,-164.2 612.5,-164.2 612.5,-145.2 571.5,-145.2"/>
<polygon fill="none" stroke="#000000" points="571.5,-145.2 571.5,-164.2 612.5,-164.2 612.5,-145.2 571.5,-145.2"/>
<text text-anchor="start" x="574.5" y="-151.3" font-family="Helvetica,sans-Serif" font-size="11.00" fill="#000000">&lt; 2</text>
<polygon fill="#ffffff" stroke="transparent" points="612.5,-145.2 612.5,-164.2 672.5,-164.2 672.5,-145.2 612.5,-145.2"/>
<polygon fill="none" stroke="#000000" points="612.5,-145.2 612.5,-164.2 672.5,-164.2 672.5,-145.2 612.5,-145.2"/>
<text text-anchor="start" x="624.8807" y="-151.3" font-family="Helvetica,sans-Serif" font-size="11.00" fill="#000000">659 rows</text>
<polygon fill="#ffffff" stroke="transparent" points="672.5,-145.2 672.5,-164.2 695.5,-164.2 695.5,-145.2 672.5,-145.2"/>
<polygon fill="none" stroke="#000000" points="672.5,-145.2 672.5,-164.2 695.5,-164.2 695.5,-145.2 672.5,-145.2"/>
<text text-anchor="start" x="686.3862" y="-151.3" font-family="Helvetica,sans-Serif" font-size="11.00" fill="#000000"> &#160;</text>
</a>
</g>
</g>
<!-- order_saleitem&#45;&gt;common_product -->
<g id="edge7" class="edge">
<title>order_saleitem:w&#45;&gt;common_product:e</title>
<path fill="none" stroke="#000000" d="M557.3956,-176.9606C547.0157,-184.145 545.9946,-200.59 538,-217.2 506.0001,-283.6846 571.2848,-378.2 497.5,-378.2"/>
<polygon fill="#000000" stroke="#000000" points="563.77,-175.2611 572.4275,-176.6785 567.635,-174.2305 571.5,-173.2 571.5,-173.2 571.5,-173.2 567.635,-174.2305 570.5725,-169.7215 563.77,-175.2611 563.77,-175.2611"/>
<ellipse fill="none" stroke="#000000" cx="560.6781" cy="-176.0855" rx="3.2" ry="3.2"/>
</g>
</g>
</svg>
