<?xml version="1.0" encoding="UTF-8" standalone="no"?>
<!DOCTYPE svg PUBLIC "-//W3C//DTD SVG 1.1//EN"
 "http://www.w3.org/Graphics/SVG/1.1/DTD/svg11.dtd">
<!-- Generated by graphviz version 2.40.1 (20161225.0304)
 -->
<!-- Title: oneDegreeRelationshipsDiagram Pages: 1 -->
<svg width="524pt" height="352pt"
 viewBox="0.00 0.00 524.00 351.70" xmlns="http://www.w3.org/2000/svg" xmlns:xlink="http://www.w3.org/1999/xlink">
<g id="graph0" class="graph" transform="scale(1 1) rotate(0) translate(4 347.7)">
<title>oneDegreeRelationshipsDiagram</title>
<polygon fill="#ffffff" stroke="transparent" points="-4,4 -4,-347.7 520,-347.7 520,4 -4,4"/>
<text text-anchor="middle" x="72.4936" y="-7.3" font-family="Helvetica,sans-Serif" font-size="11.00" fill="#000000">Generated by SchemaSpy</text>
<!-- common_dealerzone -->
<g id="node1" class="node">
<title>common_dealerzone</title>
<g id="a_node1"><a xlink:href="../../tables/common_dealerzone.html" xlink:title="common_dealerzone" target="_top">
<polygon fill="#ffffff" stroke="transparent" points="253,-95.7 253,-339.7 508,-339.7 508,-95.7 253,-95.7"/>
<polygon fill="#f5f5f5" stroke="transparent" points="255.5,-314.7 255.5,-337.7 506.5,-337.7 506.5,-314.7 255.5,-314.7"/>
<polygon fill="none" stroke="#000000" points="255.5,-314.7 255.5,-337.7 506.5,-337.7 506.5,-314.7 255.5,-314.7"/>
<text text-anchor="start" x="260.5" y="-323.3" font-family="Helvetica,sans-Serif" font-weight="bold" font-size="11.00" fill="#000000">common_dealerzone</text>
<text text-anchor="start" x="471.5437" y="-322.8" font-family="Helvetica,sans-Serif" font-size="11.00" fill="#000000">[table]</text>
<polygon fill="none" stroke="#000000" points="255.5,-292.7 255.5,-314.7 395.5,-314.7 395.5,-292.7 255.5,-292.7"/>
<image xlink:href="../../images/primaryKeys.png" width="11px" height="12px" preserveAspectRatio="xMinYMin meet" x="260.5" y="-309.7"/>
<text text-anchor="start" x="275.5" y="-299.8" font-family="Helvetica,sans-Serif" font-size="11.00" fill="#000000">ID</text>
<polygon fill="none" stroke="#000000" points="395.5,-292.7 395.5,-314.7 506.5,-314.7 506.5,-292.7 395.5,-292.7"/>
<text text-anchor="start" x="398.5" y="-300.4" font-family="Helvetica,sans-Serif" font-size="11.00" fill="#000000">int[10]</text>
<polygon fill="none" stroke="#000000" points="255.5,-270.7 255.5,-292.7 395.5,-292.7 395.5,-270.7 255.5,-270.7"/>
<text text-anchor="start" x="275.5" y="-277.8" font-family="Helvetica,sans-Serif" font-size="11.00" fill="#000000">Active</text>
<polygon fill="none" stroke="#000000" points="395.5,-270.7 395.5,-292.7 506.5,-292.7 506.5,-270.7 395.5,-270.7"/>
<text text-anchor="start" x="398.5" y="-278.4" font-family="Helvetica,sans-Serif" font-size="11.00" fill="#000000">bit[1]</text>
<polygon fill="none" stroke="#000000" points="255.5,-248.7 255.5,-270.7 395.5,-270.7 395.5,-248.7 255.5,-248.7"/>
<text text-anchor="start" x="275.5" y="-255.8" font-family="Helvetica,sans-Serif" font-size="11.00" fill="#000000">User</text>
<polygon fill="none" stroke="#000000" points="395.5,-248.7 395.5,-270.7 506.5,-270.7 506.5,-248.7 395.5,-248.7"/>
<text text-anchor="start" x="398.1115" y="-256.4" font-family="Helvetica,sans-Serif" font-size="11.00" fill="#000000">longtext[2147483647]</text>
<polygon fill="none" stroke="#000000" points="255.5,-226.7 255.5,-248.7 395.5,-248.7 395.5,-226.7 255.5,-226.7"/>
<text text-anchor="start" x="275.5" y="-233.8" font-family="Helvetica,sans-Serif" font-size="11.00" fill="#000000">CD</text>
<polygon fill="none" stroke="#000000" points="395.5,-226.7 395.5,-248.7 506.5,-248.7 506.5,-226.7 395.5,-226.7"/>
<text text-anchor="start" x="398.5" y="-234.4" font-family="Helvetica,sans-Serif" font-size="11.00" fill="#000000">datetime[26]</text>
<polygon fill="none" stroke="#000000" points="255.5,-204.7 255.5,-226.7 395.5,-226.7 395.5,-204.7 255.5,-204.7"/>
<text text-anchor="start" x="275.5" y="-211.8" font-family="Helvetica,sans-Serif" font-size="11.00" fill="#000000">UD</text>
<polygon fill="none" stroke="#000000" points="395.5,-204.7 395.5,-226.7 506.5,-226.7 506.5,-204.7 395.5,-204.7"/>
<text text-anchor="start" x="398.5" y="-212.4" font-family="Helvetica,sans-Serif" font-size="11.00" fill="#000000">datetime[26]</text>
<polygon fill="none" stroke="#000000" points="255.5,-182.7 255.5,-204.7 395.5,-204.7 395.5,-182.7 255.5,-182.7"/>
<text text-anchor="start" x="275.5" y="-189.8" font-family="Helvetica,sans-Serif" font-size="11.00" fill="#000000">Remarks</text>
<polygon fill="none" stroke="#000000" points="395.5,-182.7 395.5,-204.7 506.5,-204.7 506.5,-182.7 395.5,-182.7"/>
<text text-anchor="start" x="398.1115" y="-190.4" font-family="Helvetica,sans-Serif" font-size="11.00" fill="#000000">longtext[2147483647]</text>
<polygon fill="none" stroke="#000000" points="255.5,-160.7 255.5,-182.7 395.5,-182.7 395.5,-160.7 255.5,-160.7"/>
<text text-anchor="start" x="275.5" y="-167.8" font-family="Helvetica,sans-Serif" font-size="11.00" fill="#000000">UserID</text>
<polygon fill="none" stroke="#000000" points="395.5,-160.7 395.5,-182.7 506.5,-182.7 506.5,-160.7 395.5,-160.7"/>
<text text-anchor="start" x="398.5" y="-168.4" font-family="Helvetica,sans-Serif" font-size="11.00" fill="#000000">int[10]</text>
<polygon fill="#ffffff" stroke="transparent" points="255.5,-138.7 255.5,-160.7 395.5,-160.7 395.5,-138.7 255.5,-138.7"/>
<polygon fill="none" stroke="#000000" points="255.5,-138.7 255.5,-160.7 395.5,-160.7 395.5,-138.7 255.5,-138.7"/>
<image xlink:href="../../images/foreignKeys.png" width="11px" height="12px" preserveAspectRatio="xMinYMin meet" x="260.5" y="-155.7"/>
<text text-anchor="start" x="275.5" y="-145.8" font-family="Helvetica,sans-Serif" font-size="11.00" fill="#000000">Common_DealerFK</text>
<polygon fill="none" stroke="#000000" points="395.5,-138.7 395.5,-160.7 506.5,-160.7 506.5,-138.7 395.5,-138.7"/>
<text text-anchor="start" x="398.5" y="-146.4" font-family="Helvetica,sans-Serif" font-size="11.00" fill="#000000">int[10]</text>
<polygon fill="#ffffff" stroke="transparent" points="255.5,-116.7 255.5,-138.7 395.5,-138.7 395.5,-116.7 255.5,-116.7"/>
<polygon fill="none" stroke="#000000" points="255.5,-116.7 255.5,-138.7 395.5,-138.7 395.5,-116.7 255.5,-116.7"/>
<image xlink:href="../../images/foreignKeys.png" width="11px" height="12px" preserveAspectRatio="xMinYMin meet" x="260.5" y="-133.7"/>
<text text-anchor="start" x="275.5" y="-123.8" font-family="Helvetica,sans-Serif" font-size="11.00" fill="#000000">Common_ZoneFK</text>
<polygon fill="none" stroke="#000000" points="395.5,-116.7 395.5,-138.7 506.5,-138.7 506.5,-116.7 395.5,-116.7"/>
<text text-anchor="start" x="398.5" y="-124.4" font-family="Helvetica,sans-Serif" font-size="11.00" fill="#000000">int[10]</text>
<polygon fill="#ffffff" stroke="transparent" points="255.5,-97.7 255.5,-116.7 313.5,-116.7 313.5,-97.7 255.5,-97.7"/>
<polygon fill="none" stroke="#000000" points="255.5,-97.7 255.5,-116.7 313.5,-116.7 313.5,-97.7 255.5,-97.7"/>
<text text-anchor="start" x="258.5" y="-103.8" font-family="Helvetica,sans-Serif" font-size="11.00" fill="#000000">&lt; 2</text>
<polygon fill="#ffffff" stroke="transparent" points="313.5,-97.7 313.5,-116.7 395.5,-116.7 395.5,-97.7 313.5,-97.7"/>
<polygon fill="none" stroke="#000000" points="313.5,-97.7 313.5,-116.7 395.5,-116.7 395.5,-97.7 313.5,-97.7"/>
<text text-anchor="start" x="353.9956" y="-103.8" font-family="Helvetica,sans-Serif" font-size="11.00" fill="#000000">52 rows</text>
<polygon fill="#ffffff" stroke="transparent" points="395.5,-97.7 395.5,-116.7 506.5,-116.7 506.5,-97.7 395.5,-97.7"/>
<polygon fill="none" stroke="#000000" points="395.5,-97.7 395.5,-116.7 506.5,-116.7 506.5,-97.7 395.5,-97.7"/>
<text text-anchor="start" x="487.9053" y="-103.8" font-family="Helvetica,sans-Serif" font-size="11.00" fill="#000000">0 &gt;</text>
<polygon fill="none" stroke="#000000" stroke-width="2" points="254,-96.7 254,-338.7 507,-338.7 507,-96.7 254,-96.7"/>
</a>
</g>
</g>
<!-- common_dealer -->
<g id="node2" class="node">
<title>common_dealer</title>
<g id="a_node2"><a xlink:href="../../tables/common_dealer.html" xlink:title="common_dealer" target="_top">
<polygon fill="#ffffff" stroke="transparent" points="8,-142.2 8,-225.2 204,-225.2 204,-142.2 8,-142.2"/>
<polygon fill="#f5f5f5" stroke="transparent" points="8,-201.7 8,-224.7 204,-224.7 204,-201.7 8,-201.7"/>
<polygon fill="none" stroke="#000000" points="8,-201.7 8,-224.7 204,-224.7 204,-201.7 8,-201.7"/>
<text text-anchor="start" x="13" y="-210.3" font-family="Helvetica,sans-Serif" font-weight="bold" font-size="11.00" fill="#000000">common_dealer</text>
<text text-anchor="start" x="169.0437" y="-209.8" font-family="Helvetica,sans-Serif" font-size="11.00" fill="#000000">[table]</text>
<polygon fill="none" stroke="#000000" points="8,-179.7 8,-201.7 204,-201.7 204,-179.7 8,-179.7"/>
<image xlink:href="../../images/primaryKeys.png" width="11px" height="12px" preserveAspectRatio="xMinYMin meet" x="13" y="-196.7"/>
<text text-anchor="start" x="28" y="-186.8" font-family="Helvetica,sans-Serif" font-size="11.00" fill="#000000">ID</text>
<polygon fill="none" stroke="#000000" points="8,-160.7 8,-179.7 204,-179.7 204,-160.7 8,-160.7"/>
<text text-anchor="start" x="11" y="-166.8" font-family="Helvetica,sans-Serif" font-size="11.00" fill="#000000">...</text>
<polygon fill="#ffffff" stroke="transparent" points="8,-141.7 8,-160.7 79,-160.7 79,-141.7 8,-141.7"/>
<polygon fill="none" stroke="#000000" points="8,-141.7 8,-160.7 79,-160.7 79,-141.7 8,-141.7"/>
<text text-anchor="start" x="11" y="-147.8" font-family="Helvetica,sans-Serif" font-size="11.00" fill="#000000"> &#160;</text>
<polygon fill="#ffffff" stroke="transparent" points="79,-141.7 79,-160.7 153,-160.7 153,-141.7 79,-141.7"/>
<polygon fill="none" stroke="#000000" points="79,-141.7 79,-160.7 153,-160.7 153,-141.7 79,-141.7"/>
<text text-anchor="start" x="111.4956" y="-147.8" font-family="Helvetica,sans-Serif" font-size="11.00" fill="#000000">62 rows</text>
<polygon fill="#ffffff" stroke="transparent" points="153,-141.7 153,-160.7 204,-160.7 204,-141.7 153,-141.7"/>
<polygon fill="none" stroke="#000000" points="153,-141.7 153,-160.7 204,-160.7 204,-141.7 153,-141.7"/>
<text text-anchor="start" x="185.4053" y="-147.8" font-family="Helvetica,sans-Serif" font-size="11.00" fill="#000000">4 &gt;</text>
</a>
</g>
</g>
<!-- common_dealerzone&#45;&gt;common_dealer -->
<g id="edge1" class="edge">
<title>common_dealerzone:w&#45;&gt;common_dealer:e</title>
<path fill="none" stroke="#000000" d="M241.5533,-154.0877C227.596,-164.6646 227.3139,-190.7 204,-190.7"/>
<polygon fill="#000000" stroke="#000000" points="247.8687,-152.1009 256.5804,-153.1341 251.6844,-150.9004 255.5,-149.7 255.5,-149.7 255.5,-149.7 251.6844,-150.9004 254.4196,-146.2659 247.8687,-152.1009 247.8687,-152.1009"/>
<ellipse fill="none" stroke="#000000" cx="244.8162" cy="-153.0612" rx="3.2" ry="3.2"/>
</g>
<!-- common_zone -->
<g id="node3" class="node">
<title>common_zone</title>
<g id="a_node3"><a xlink:href="../../tables/common_zone.html" xlink:title="common_zone" target="_top">
<polygon fill="#ffffff" stroke="transparent" points="40,-38.2 40,-121.2 172,-121.2 172,-38.2 40,-38.2"/>
<polygon fill="#f5f5f5" stroke="transparent" points="40,-97.7 40,-120.7 172,-120.7 172,-97.7 40,-97.7"/>
<polygon fill="none" stroke="#000000" points="40,-97.7 40,-120.7 172,-120.7 172,-97.7 40,-97.7"/>
<text text-anchor="start" x="45" y="-106.3" font-family="Helvetica,sans-Serif" font-weight="bold" font-size="11.00" fill="#000000">common_zone</text>
<text text-anchor="start" x="137.0437" y="-105.8" font-family="Helvetica,sans-Serif" font-size="11.00" fill="#000000">[table]</text>
<polygon fill="none" stroke="#000000" points="40,-75.7 40,-97.7 172,-97.7 172,-75.7 40,-75.7"/>
<image xlink:href="../../images/primaryKeys.png" width="11px" height="12px" preserveAspectRatio="xMinYMin meet" x="45" y="-92.7"/>
<text text-anchor="start" x="60" y="-82.8" font-family="Helvetica,sans-Serif" font-size="11.00" fill="#000000">ID</text>
<polygon fill="none" stroke="#000000" points="40,-56.7 40,-75.7 172,-75.7 172,-56.7 40,-56.7"/>
<text text-anchor="start" x="43" y="-62.8" font-family="Helvetica,sans-Serif" font-size="11.00" fill="#000000">...</text>
<polygon fill="#ffffff" stroke="transparent" points="40,-37.7 40,-56.7 79,-56.7 79,-37.7 40,-37.7"/>
<polygon fill="none" stroke="#000000" points="40,-37.7 40,-56.7 79,-56.7 79,-37.7 40,-37.7"/>
<text text-anchor="start" x="43" y="-43.8" font-family="Helvetica,sans-Serif" font-size="11.00" fill="#000000"> &#160;</text>
<polygon fill="#ffffff" stroke="transparent" points="79,-37.7 79,-56.7 137,-56.7 137,-37.7 79,-37.7"/>
<polygon fill="none" stroke="#000000" points="79,-37.7 79,-56.7 137,-56.7 137,-37.7 79,-37.7"/>
<text text-anchor="start" x="95.4956" y="-43.8" font-family="Helvetica,sans-Serif" font-size="11.00" fill="#000000">11 rows</text>
<polygon fill="#ffffff" stroke="transparent" points="137,-37.7 137,-56.7 172,-56.7 172,-37.7 137,-37.7"/>
<polygon fill="none" stroke="#000000" points="137,-37.7 137,-56.7 172,-56.7 172,-37.7 137,-37.7"/>
<text text-anchor="start" x="153.4053" y="-43.8" font-family="Helvetica,sans-Serif" font-size="11.00" fill="#000000">1 &gt;</text>
</a>
</g>
</g>
<!-- common_dealerzone&#45;&gt;common_zone -->
<g id="edge2" class="edge">
<title>common_dealerzone:w&#45;&gt;common_zone:e</title>
<path fill="none" stroke="#000000" d="M240.9821,-125.7225C213.2256,-117.5326 207.8526,-86.7 172,-86.7"/>
<polygon fill="#000000" stroke="#000000" points="247.5732,-126.6202 255.0141,-131.2671 251.5366,-127.1601 255.5,-127.7 255.5,-127.7 255.5,-127.7 251.5366,-127.1601 255.9859,-124.1329 247.5732,-126.6202 247.5732,-126.6202"/>
<ellipse fill="none" stroke="#000000" cx="244.4025" cy="-126.1883" rx="3.2" ry="3.2"/>
</g>
</g>
</svg>
