<?xml version="1.0" encoding="UTF-8" standalone="no"?>
<!DOCTYPE svg PUBLIC "-//W3C//DTD SVG 1.1//EN"
 "http://www.w3.org/Graphics/SVG/1.1/DTD/svg11.dtd">
<!-- Generated by graphviz version 2.40.1 (20161225.0304)
 -->
<!-- Title: twoDegreesRelationshipsDiagramImplied Pages: 1 -->
<svg width="478pt" height="453pt"
 viewBox="0.00 0.00 478.00 452.70" xmlns="http://www.w3.org/2000/svg" xmlns:xlink="http://www.w3.org/1999/xlink">
<g id="graph0" class="graph" transform="scale(1 1) rotate(0) translate(4 448.7)">
<title>twoDegreesRelationshipsDiagramImplied</title>
<polygon fill="#ffffff" stroke="transparent" points="-4,4 -4,-448.7 474,-448.7 474,4 -4,4"/>
<text text-anchor="middle" x="72.4936" y="-7.3" font-family="Helvetica,sans-Serif" font-size="11.00" fill="#000000">Generated by SchemaSpy</text>
<!-- common_dealerzone -->
<g id="node1" class="node">
<title>common_dealerzone</title>
<g id="a_node1"><a xlink:href="../../tables/common_dealerzone.html" xlink:title="common_dealerzone" target="_top">
<polygon fill="#ffffff" stroke="transparent" points="304,-313.7 304,-440.7 462,-440.7 462,-313.7 304,-313.7"/>
<polygon fill="#f5f5f5" stroke="transparent" points="304,-417.2 304,-440.2 462,-440.2 462,-417.2 304,-417.2"/>
<polygon fill="none" stroke="#000000" points="304,-417.2 304,-440.2 462,-440.2 462,-417.2 304,-417.2"/>
<text text-anchor="start" x="309" y="-425.8" font-family="Helvetica,sans-Serif" font-weight="bold" font-size="11.00" fill="#000000">common_dealerzone</text>
<text text-anchor="start" x="427.5219" y="-425.3" font-family="Helvetica,sans-Serif" font-size="11.00" fill="#000000">[table]</text>
<polygon fill="none" stroke="#000000" points="304,-395.2 304,-417.2 462,-417.2 462,-395.2 304,-395.2"/>
<image xlink:href="../../images/primaryKeys.png" width="11px" height="12px" preserveAspectRatio="xMinYMin meet" x="309" y="-412.2"/>
<text text-anchor="start" x="333" y="-402.3" font-family="Helvetica,sans-Serif" font-size="11.00" fill="#000000">ID</text>
<polygon fill="#ffffff" stroke="transparent" points="304,-373.2 304,-395.2 462,-395.2 462,-373.2 304,-373.2"/>
<polygon fill="none" stroke="#000000" points="304,-373.2 304,-395.2 462,-395.2 462,-373.2 304,-373.2"/>
<image xlink:href="../../images/foreignKeys.png" width="11px" height="12px" preserveAspectRatio="xMinYMin meet" x="309" y="-390.2"/>
<text text-anchor="start" x="333" y="-380.3" font-family="Helvetica,sans-Serif" font-size="11.00" fill="#000000">Common_DealerFK</text>
<polygon fill="#ffffff" stroke="transparent" points="304,-351.2 304,-373.2 462,-373.2 462,-351.2 304,-351.2"/>
<polygon fill="none" stroke="#000000" points="304,-351.2 304,-373.2 462,-373.2 462,-351.2 304,-351.2"/>
<image xlink:href="../../images/foreignKeys.png" width="11px" height="12px" preserveAspectRatio="xMinYMin meet" x="309" y="-368.2"/>
<text text-anchor="start" x="333" y="-358.3" font-family="Helvetica,sans-Serif" font-size="11.00" fill="#000000">Common_ZoneFK</text>
<polygon fill="none" stroke="#000000" points="304,-332.2 304,-351.2 462,-351.2 462,-332.2 304,-332.2"/>
<text text-anchor="start" x="307" y="-338.3" font-family="Helvetica,sans-Serif" font-size="11.00" fill="#000000">...</text>
<polygon fill="#ffffff" stroke="transparent" points="304,-313.2 304,-332.2 365,-332.2 365,-313.2 304,-313.2"/>
<polygon fill="none" stroke="#000000" points="304,-313.2 304,-332.2 365,-332.2 365,-313.2 304,-313.2"/>
<text text-anchor="start" x="307" y="-319.3" font-family="Helvetica,sans-Serif" font-size="11.00" fill="#000000">&lt; 2</text>
<polygon fill="#ffffff" stroke="transparent" points="365,-313.2 365,-332.2 429,-332.2 429,-313.2 365,-313.2"/>
<polygon fill="none" stroke="#000000" points="365,-313.2 365,-332.2 429,-332.2 429,-313.2 365,-313.2"/>
<text text-anchor="start" x="387.4956" y="-319.3" font-family="Helvetica,sans-Serif" font-size="11.00" fill="#000000">52 rows</text>
<polygon fill="#ffffff" stroke="transparent" points="429,-313.2 429,-332.2 462,-332.2 462,-313.2 429,-313.2"/>
<polygon fill="none" stroke="#000000" points="429,-313.2 429,-332.2 462,-332.2 462,-313.2 429,-313.2"/>
<text text-anchor="start" x="452.8862" y="-319.3" font-family="Helvetica,sans-Serif" font-size="11.00" fill="#000000"> &#160;</text>
</a>
</g>
</g>
<!-- common_dealer -->
<g id="node2" class="node">
<title>common_dealer</title>
<g id="a_node2"><a xlink:href="../../tables/common_dealer.html" xlink:title="common_dealer" target="_top">
<polygon fill="#ffffff" stroke="transparent" points="66,-356.7 66,-417.7 197,-417.7 197,-356.7 66,-356.7"/>
<polygon fill="#f5f5f5" stroke="transparent" points="66.5,-394.2 66.5,-417.2 197.5,-417.2 197.5,-394.2 66.5,-394.2"/>
<polygon fill="none" stroke="#000000" points="66.5,-394.2 66.5,-417.2 197.5,-417.2 197.5,-394.2 66.5,-394.2"/>
<text text-anchor="start" x="71.5" y="-402.8" font-family="Helvetica,sans-Serif" font-weight="bold" font-size="11.00" fill="#000000">common_dealer</text>
<text text-anchor="start" x="163.0219" y="-402.3" font-family="Helvetica,sans-Serif" font-size="11.00" fill="#000000">[table]</text>
<polygon fill="none" stroke="#000000" points="66.5,-375.2 66.5,-394.2 197.5,-394.2 197.5,-375.2 66.5,-375.2"/>
<text text-anchor="start" x="69.5" y="-381.3" font-family="Helvetica,sans-Serif" font-size="11.00" fill="#000000">...</text>
<polygon fill="#ffffff" stroke="transparent" points="66.5,-356.2 66.5,-375.2 105.5,-375.2 105.5,-356.2 66.5,-356.2"/>
<polygon fill="none" stroke="#000000" points="66.5,-356.2 66.5,-375.2 105.5,-375.2 105.5,-356.2 66.5,-356.2"/>
<text text-anchor="start" x="69.5" y="-362.3" font-family="Helvetica,sans-Serif" font-size="11.00" fill="#000000"> &#160;</text>
<polygon fill="#ffffff" stroke="transparent" points="105.5,-356.2 105.5,-375.2 162.5,-375.2 162.5,-356.2 105.5,-356.2"/>
<polygon fill="none" stroke="#000000" points="105.5,-356.2 105.5,-375.2 162.5,-375.2 162.5,-356.2 105.5,-356.2"/>
<text text-anchor="start" x="120.9956" y="-362.3" font-family="Helvetica,sans-Serif" font-size="11.00" fill="#000000">62 rows</text>
<polygon fill="#ffffff" stroke="transparent" points="162.5,-356.2 162.5,-375.2 197.5,-375.2 197.5,-356.2 162.5,-356.2"/>
<polygon fill="none" stroke="#000000" points="162.5,-356.2 162.5,-375.2 197.5,-375.2 197.5,-356.2 162.5,-356.2"/>
<text text-anchor="start" x="178.9053" y="-362.3" font-family="Helvetica,sans-Serif" font-size="11.00" fill="#000000">4 &gt;</text>
</a>
</g>
</g>
<!-- common_dealerzone&#45;&gt;common_dealer -->
<g id="edge1" class="edge">
<title>common_dealerzone:w&#45;&gt;common_dealer:e</title>
<path fill="none" stroke="#000000" d="M289.1775,-384.2C253.5301,-384.2 239.4714,-384.2 197.5,-384.2"/>
<polygon fill="#000000" stroke="#000000" points="296,-384.2001 304,-387.8 300,-384.2 304,-384.2 304,-384.2 304,-384.2 300,-384.2 304,-380.6 296,-384.2001 296,-384.2001"/>
<ellipse fill="none" stroke="#000000" cx="292.8" cy="-384.2001" rx="3.2" ry="3.2"/>
</g>
<!-- common_zone -->
<g id="node3" class="node">
<title>common_zone</title>
<g id="a_node3"><a xlink:href="../../tables/common_zone.html" xlink:title="common_zone" target="_top">
<polygon fill="#ffffff" stroke="transparent" points="8,-38.2 8,-304.2 255,-304.2 255,-38.2 8,-38.2"/>
<polygon fill="#f5f5f5" stroke="transparent" points="10.5,-279.2 10.5,-302.2 253.5,-302.2 253.5,-279.2 10.5,-279.2"/>
<polygon fill="none" stroke="#000000" points="10.5,-279.2 10.5,-302.2 253.5,-302.2 253.5,-279.2 10.5,-279.2"/>
<text text-anchor="start" x="15.5" y="-287.8" font-family="Helvetica,sans-Serif" font-weight="bold" font-size="11.00" fill="#000000">common_zone</text>
<text text-anchor="start" x="218.5437" y="-287.3" font-family="Helvetica,sans-Serif" font-size="11.00" fill="#000000">[table]</text>
<polygon fill="none" stroke="#000000" points="10.5,-257.2 10.5,-279.2 142.5,-279.2 142.5,-257.2 10.5,-257.2"/>
<image xlink:href="../../images/primaryKeys.png" width="11px" height="12px" preserveAspectRatio="xMinYMin meet" x="15.5" y="-274.2"/>
<text text-anchor="start" x="30.5" y="-264.3" font-family="Helvetica,sans-Serif" font-size="11.00" fill="#000000">ID</text>
<polygon fill="none" stroke="#000000" points="142.5,-257.2 142.5,-279.2 253.5,-279.2 253.5,-257.2 142.5,-257.2"/>
<text text-anchor="start" x="145.5" y="-264.9" font-family="Helvetica,sans-Serif" font-size="11.00" fill="#000000">int[10]</text>
<polygon fill="none" stroke="#000000" points="10.5,-235.2 10.5,-257.2 142.5,-257.2 142.5,-235.2 10.5,-235.2"/>
<text text-anchor="start" x="30.5" y="-242.3" font-family="Helvetica,sans-Serif" font-size="11.00" fill="#000000">Active</text>
<polygon fill="none" stroke="#000000" points="142.5,-235.2 142.5,-257.2 253.5,-257.2 253.5,-235.2 142.5,-235.2"/>
<text text-anchor="start" x="145.5" y="-242.9" font-family="Helvetica,sans-Serif" font-size="11.00" fill="#000000">bit[1]</text>
<polygon fill="none" stroke="#000000" points="10.5,-213.2 10.5,-235.2 142.5,-235.2 142.5,-213.2 10.5,-213.2"/>
<text text-anchor="start" x="30.5" y="-220.3" font-family="Helvetica,sans-Serif" font-size="11.00" fill="#000000">User</text>
<polygon fill="none" stroke="#000000" points="142.5,-213.2 142.5,-235.2 253.5,-235.2 253.5,-213.2 142.5,-213.2"/>
<text text-anchor="start" x="145.1115" y="-220.9" font-family="Helvetica,sans-Serif" font-size="11.00" fill="#000000">longtext[2147483647]</text>
<polygon fill="none" stroke="#000000" points="10.5,-191.2 10.5,-213.2 142.5,-213.2 142.5,-191.2 10.5,-191.2"/>
<text text-anchor="start" x="30.5" y="-198.3" font-family="Helvetica,sans-Serif" font-size="11.00" fill="#000000">CD</text>
<polygon fill="none" stroke="#000000" points="142.5,-191.2 142.5,-213.2 253.5,-213.2 253.5,-191.2 142.5,-191.2"/>
<text text-anchor="start" x="145.5" y="-198.9" font-family="Helvetica,sans-Serif" font-size="11.00" fill="#000000">datetime[26]</text>
<polygon fill="none" stroke="#000000" points="10.5,-169.2 10.5,-191.2 142.5,-191.2 142.5,-169.2 10.5,-169.2"/>
<text text-anchor="start" x="30.5" y="-176.3" font-family="Helvetica,sans-Serif" font-size="11.00" fill="#000000">UD</text>
<polygon fill="none" stroke="#000000" points="142.5,-169.2 142.5,-191.2 253.5,-191.2 253.5,-169.2 142.5,-169.2"/>
<text text-anchor="start" x="145.5" y="-176.9" font-family="Helvetica,sans-Serif" font-size="11.00" fill="#000000">datetime[26]</text>
<polygon fill="none" stroke="#000000" points="10.5,-147.2 10.5,-169.2 142.5,-169.2 142.5,-147.2 10.5,-147.2"/>
<text text-anchor="start" x="30.5" y="-154.3" font-family="Helvetica,sans-Serif" font-size="11.00" fill="#000000">Remarks</text>
<polygon fill="none" stroke="#000000" points="142.5,-147.2 142.5,-169.2 253.5,-169.2 253.5,-147.2 142.5,-147.2"/>
<text text-anchor="start" x="145.1115" y="-154.9" font-family="Helvetica,sans-Serif" font-size="11.00" fill="#000000">longtext[2147483647]</text>
<polygon fill="none" stroke="#000000" points="10.5,-125.2 10.5,-147.2 142.5,-147.2 142.5,-125.2 10.5,-125.2"/>
<text text-anchor="start" x="30.5" y="-132.3" font-family="Helvetica,sans-Serif" font-size="11.00" fill="#000000">UserID</text>
<polygon fill="none" stroke="#000000" points="142.5,-125.2 142.5,-147.2 253.5,-147.2 253.5,-125.2 142.5,-125.2"/>
<text text-anchor="start" x="145.5" y="-132.9" font-family="Helvetica,sans-Serif" font-size="11.00" fill="#000000">int[10]</text>
<polygon fill="none" stroke="#000000" points="10.5,-103.2 10.5,-125.2 142.5,-125.2 142.5,-103.2 10.5,-103.2"/>
<text text-anchor="start" x="30.5" y="-110.3" font-family="Helvetica,sans-Serif" font-size="11.00" fill="#000000">Name</text>
<polygon fill="none" stroke="#000000" points="142.5,-103.2 142.5,-125.2 253.5,-125.2 253.5,-103.2 142.5,-103.2"/>
<text text-anchor="start" x="145.1115" y="-110.9" font-family="Helvetica,sans-Serif" font-size="11.00" fill="#000000">longtext[2147483647]</text>
<polygon fill="none" stroke="#000000" points="10.5,-81.2 10.5,-103.2 142.5,-103.2 142.5,-81.2 10.5,-81.2"/>
<text text-anchor="start" x="30.5" y="-88.3" font-family="Helvetica,sans-Serif" font-size="11.00" fill="#000000">Common_DealerFK</text>
<polygon fill="none" stroke="#000000" points="142.5,-81.2 142.5,-103.2 253.5,-103.2 253.5,-81.2 142.5,-81.2"/>
<text text-anchor="start" x="145.5" y="-88.9" font-family="Helvetica,sans-Serif" font-size="11.00" fill="#000000">int[10]</text>
<polygon fill="none" stroke="#000000" points="10.5,-59.2 10.5,-81.2 142.5,-81.2 142.5,-59.2 10.5,-59.2"/>
<text text-anchor="start" x="30.5" y="-66.3" font-family="Helvetica,sans-Serif" font-size="11.00" fill="#000000">IsSalesZone</text>
<polygon fill="none" stroke="#000000" points="142.5,-59.2 142.5,-81.2 253.5,-81.2 253.5,-59.2 142.5,-59.2"/>
<text text-anchor="start" x="145.5" y="-66.9" font-family="Helvetica,sans-Serif" font-size="11.00" fill="#000000">bit[1]</text>
<polygon fill="#ffffff" stroke="transparent" points="10.5,-40.2 10.5,-59.2 64.5,-59.2 64.5,-40.2 10.5,-40.2"/>
<polygon fill="none" stroke="#000000" points="10.5,-40.2 10.5,-59.2 64.5,-59.2 64.5,-40.2 10.5,-40.2"/>
<text text-anchor="start" x="13.5" y="-46.3" font-family="Helvetica,sans-Serif" font-size="11.00" fill="#000000">&lt; 0</text>
<polygon fill="#ffffff" stroke="transparent" points="64.5,-40.2 64.5,-59.2 142.5,-59.2 142.5,-40.2 64.5,-40.2"/>
<polygon fill="none" stroke="#000000" points="64.5,-40.2 64.5,-59.2 142.5,-59.2 142.5,-40.2 64.5,-40.2"/>
<text text-anchor="start" x="100.9956" y="-46.3" font-family="Helvetica,sans-Serif" font-size="11.00" fill="#000000">11 rows</text>
<polygon fill="#ffffff" stroke="transparent" points="142.5,-40.2 142.5,-59.2 253.5,-59.2 253.5,-40.2 142.5,-40.2"/>
<polygon fill="none" stroke="#000000" points="142.5,-40.2 142.5,-59.2 253.5,-59.2 253.5,-40.2 142.5,-40.2"/>
<text text-anchor="start" x="234.9053" y="-46.3" font-family="Helvetica,sans-Serif" font-size="11.00" fill="#000000">2 &gt;</text>
<polygon fill="none" stroke="#000000" stroke-width="2" points="9,-39.2 9,-303.2 254,-303.2 254,-39.2 9,-39.2"/>
</a>
</g>
</g>
<!-- common_dealerzone&#45;&gt;common_zone -->
<g id="edge2" class="edge">
<title>common_dealerzone:w&#45;&gt;common_zone:e</title>
<path fill="none" stroke="#000000" d="M290.1591,-358.1609C266.2285,-340.1688 294.9969,-268.2 253.5,-268.2"/>
<polygon fill="#000000" stroke="#000000" points="296.3203,-359.9589 302.9915,-365.6559 300.1602,-361.0794 304,-362.2 304,-362.2 304,-362.2 300.1602,-361.0794 305.0085,-358.7441 296.3203,-359.9589 296.3203,-359.9589"/>
<ellipse fill="none" stroke="#000000" cx="293.2484" cy="-359.0624" rx="3.2" ry="3.2"/>
</g>
<!-- common_zonearea -->
<g id="node4" class="node">
<title>common_zonearea</title>
<g id="a_node4"><a xlink:href="../../tables/common_zonearea.html" xlink:title="common_zonearea" target="_top">
<polygon fill="#ffffff" stroke="transparent" points="309.5,-187.7 309.5,-292.7 456.5,-292.7 456.5,-187.7 309.5,-187.7"/>
<polygon fill="#f5f5f5" stroke="transparent" points="310,-269.2 310,-292.2 457,-292.2 457,-269.2 310,-269.2"/>
<polygon fill="none" stroke="#000000" points="310,-269.2 310,-292.2 457,-292.2 457,-269.2 310,-269.2"/>
<text text-anchor="start" x="315" y="-277.8" font-family="Helvetica,sans-Serif" font-weight="bold" font-size="11.00" fill="#000000">common_zonearea</text>
<text text-anchor="start" x="422.5219" y="-277.3" font-family="Helvetica,sans-Serif" font-size="11.00" fill="#000000">[table]</text>
<polygon fill="none" stroke="#000000" points="310,-247.2 310,-269.2 457,-269.2 457,-247.2 310,-247.2"/>
<image xlink:href="../../images/primaryKeys.png" width="11px" height="12px" preserveAspectRatio="xMinYMin meet" x="315" y="-264.2"/>
<text text-anchor="start" x="335" y="-254.3" font-family="Helvetica,sans-Serif" font-size="11.00" fill="#000000">ID</text>
<polygon fill="none" stroke="#000000" points="310,-225.2 310,-247.2 457,-247.2 457,-225.2 310,-225.2"/>
<image xlink:href="../../images/foreignKeys.png" width="11px" height="12px" preserveAspectRatio="xMinYMin meet" x="315" y="-242.2"/>
<text text-anchor="start" x="335" y="-232.3" font-family="Helvetica,sans-Serif" font-size="11.00" fill="#000000">Common_ZoneID</text>
<polygon fill="none" stroke="#000000" points="310,-206.2 310,-225.2 457,-225.2 457,-206.2 310,-206.2"/>
<text text-anchor="start" x="313" y="-212.3" font-family="Helvetica,sans-Serif" font-size="11.00" fill="#000000">...</text>
<polygon fill="#ffffff" stroke="transparent" points="310,-187.2 310,-206.2 366,-206.2 366,-187.2 310,-187.2"/>
<polygon fill="none" stroke="#000000" points="310,-187.2 310,-206.2 366,-206.2 366,-187.2 310,-187.2"/>
<text text-anchor="start" x="313" y="-193.3" font-family="Helvetica,sans-Serif" font-size="11.00" fill="#000000">&lt; 1</text>
<polygon fill="#ffffff" stroke="transparent" points="366,-187.2 366,-206.2 427,-206.2 427,-187.2 366,-187.2"/>
<polygon fill="none" stroke="#000000" points="366,-187.2 366,-206.2 427,-206.2 427,-187.2 366,-187.2"/>
<text text-anchor="start" x="385.4956" y="-193.3" font-family="Helvetica,sans-Serif" font-size="11.00" fill="#000000">40 rows</text>
<polygon fill="#ffffff" stroke="transparent" points="427,-187.2 427,-206.2 457,-206.2 457,-187.2 427,-187.2"/>
<polygon fill="none" stroke="#000000" points="427,-187.2 427,-206.2 457,-206.2 457,-187.2 427,-187.2"/>
<text text-anchor="start" x="447.8862" y="-193.3" font-family="Helvetica,sans-Serif" font-size="11.00" fill="#000000"> &#160;</text>
</a>
</g>
</g>
<!-- common_zonearea&#45;&gt;common_zone -->
<g id="edge3" class="edge">
<title>common_zonearea:w&#45;&gt;common_zone:e</title>
<path fill="none" stroke="#000000" stroke-dasharray="5,2" d="M295.6328,-239.6246C280.3949,-247.8797 276.497,-268.2 253.5,-268.2"/>
<polygon fill="#000000" stroke="#000000" points="302.218,-238.055 310.8347,-239.7019 306.109,-237.1275 310,-236.2 310,-236.2 310,-236.2 306.109,-237.1275 309.1653,-232.6981 302.218,-238.055 302.218,-238.055"/>
<ellipse fill="none" stroke="#000000" cx="299.1052" cy="-238.7969" rx="3.2" ry="3.2"/>
</g>
</g>
</svg>
