<?xml version="1.0" encoding="UTF-8" standalone="no"?>
<!DOCTYPE svg PUBLIC "-//W3C//DTD SVG 1.1//EN"
 "http://www.w3.org/Graphics/SVG/1.1/DTD/svg11.dtd">
<!-- Generated by graphviz version 2.40.1 (20161225.0304)
 -->
<!-- Title: oneDegreeRelationshipsDiagram Pages: 1 -->
<svg width="535pt" height="440pt"
 viewBox="0.00 0.00 535.00 439.70" xmlns="http://www.w3.org/2000/svg" xmlns:xlink="http://www.w3.org/1999/xlink">
<g id="graph0" class="graph" transform="scale(1 1) rotate(0) translate(4 435.7)">
<title>oneDegreeRelationshipsDiagram</title>
<polygon fill="#ffffff" stroke="transparent" points="-4,4 -4,-435.7 531,-435.7 531,4 -4,4"/>
<text text-anchor="middle" x="72.4936" y="-7.3" font-family="Helvetica,sans-Serif" font-size="11.00" fill="#000000">Generated by SchemaSpy</text>
<!-- common_contact -->
<g id="node1" class="node">
<title>common_contact</title>
<g id="a_node1"><a xlink:href="../../tables/common_contact.html" xlink:title="common_contact" target="_top">
<polygon fill="#ffffff" stroke="transparent" points="253,-95.7 253,-427.7 519,-427.7 519,-95.7 253,-95.7"/>
<polygon fill="#f5f5f5" stroke="transparent" points="255,-402.7 255,-425.7 517,-425.7 517,-402.7 255,-402.7"/>
<polygon fill="none" stroke="#000000" points="255,-402.7 255,-425.7 517,-425.7 517,-402.7 255,-402.7"/>
<text text-anchor="start" x="260" y="-411.3" font-family="Helvetica,sans-Serif" font-weight="bold" font-size="11.00" fill="#000000">common_contact</text>
<text text-anchor="start" x="482.0437" y="-410.8" font-family="Helvetica,sans-Serif" font-size="11.00" fill="#000000">[table]</text>
<polygon fill="none" stroke="#000000" points="255,-380.7 255,-402.7 406,-402.7 406,-380.7 255,-380.7"/>
<image xlink:href="../../images/primaryKeys.png" width="11px" height="12px" preserveAspectRatio="xMinYMin meet" x="260" y="-397.7"/>
<text text-anchor="start" x="275" y="-387.8" font-family="Helvetica,sans-Serif" font-size="11.00" fill="#000000">ID</text>
<polygon fill="none" stroke="#000000" points="406,-380.7 406,-402.7 517,-402.7 517,-380.7 406,-380.7"/>
<text text-anchor="start" x="409" y="-388.4" font-family="Helvetica,sans-Serif" font-size="11.00" fill="#000000">int[10]</text>
<polygon fill="none" stroke="#000000" points="255,-358.7 255,-380.7 406,-380.7 406,-358.7 255,-358.7"/>
<text text-anchor="start" x="275" y="-365.8" font-family="Helvetica,sans-Serif" font-size="11.00" fill="#000000">Active</text>
<polygon fill="none" stroke="#000000" points="406,-358.7 406,-380.7 517,-380.7 517,-358.7 406,-358.7"/>
<text text-anchor="start" x="409" y="-366.4" font-family="Helvetica,sans-Serif" font-size="11.00" fill="#000000">bit[1]</text>
<polygon fill="none" stroke="#000000" points="255,-336.7 255,-358.7 406,-358.7 406,-336.7 255,-336.7"/>
<text text-anchor="start" x="275" y="-343.8" font-family="Helvetica,sans-Serif" font-size="11.00" fill="#000000">User</text>
<polygon fill="none" stroke="#000000" points="406,-336.7 406,-358.7 517,-358.7 517,-336.7 406,-336.7"/>
<text text-anchor="start" x="408.6115" y="-344.4" font-family="Helvetica,sans-Serif" font-size="11.00" fill="#000000">longtext[2147483647]</text>
<polygon fill="none" stroke="#000000" points="255,-314.7 255,-336.7 406,-336.7 406,-314.7 255,-314.7"/>
<text text-anchor="start" x="275" y="-321.8" font-family="Helvetica,sans-Serif" font-size="11.00" fill="#000000">CD</text>
<polygon fill="none" stroke="#000000" points="406,-314.7 406,-336.7 517,-336.7 517,-314.7 406,-314.7"/>
<text text-anchor="start" x="409" y="-322.4" font-family="Helvetica,sans-Serif" font-size="11.00" fill="#000000">datetime[26]</text>
<polygon fill="none" stroke="#000000" points="255,-292.7 255,-314.7 406,-314.7 406,-292.7 255,-292.7"/>
<text text-anchor="start" x="275" y="-299.8" font-family="Helvetica,sans-Serif" font-size="11.00" fill="#000000">UD</text>
<polygon fill="none" stroke="#000000" points="406,-292.7 406,-314.7 517,-314.7 517,-292.7 406,-292.7"/>
<text text-anchor="start" x="409" y="-300.4" font-family="Helvetica,sans-Serif" font-size="11.00" fill="#000000">datetime[26]</text>
<polygon fill="none" stroke="#000000" points="255,-270.7 255,-292.7 406,-292.7 406,-270.7 255,-270.7"/>
<text text-anchor="start" x="275" y="-277.8" font-family="Helvetica,sans-Serif" font-size="11.00" fill="#000000">Remarks</text>
<polygon fill="none" stroke="#000000" points="406,-270.7 406,-292.7 517,-292.7 517,-270.7 406,-270.7"/>
<text text-anchor="start" x="408.6115" y="-278.4" font-family="Helvetica,sans-Serif" font-size="11.00" fill="#000000">longtext[2147483647]</text>
<polygon fill="none" stroke="#000000" points="255,-248.7 255,-270.7 406,-270.7 406,-248.7 255,-248.7"/>
<text text-anchor="start" x="275" y="-255.8" font-family="Helvetica,sans-Serif" font-size="11.00" fill="#000000">UserID</text>
<polygon fill="none" stroke="#000000" points="406,-248.7 406,-270.7 517,-270.7 517,-248.7 406,-248.7"/>
<text text-anchor="start" x="409" y="-256.4" font-family="Helvetica,sans-Serif" font-size="11.00" fill="#000000">int[10]</text>
<polygon fill="none" stroke="#000000" points="255,-226.7 255,-248.7 406,-248.7 406,-226.7 255,-226.7"/>
<text text-anchor="start" x="275" y="-233.8" font-family="Helvetica,sans-Serif" font-size="11.00" fill="#000000">Name</text>
<polygon fill="none" stroke="#000000" points="406,-226.7 406,-248.7 517,-248.7 517,-226.7 406,-226.7"/>
<text text-anchor="start" x="408.6115" y="-234.4" font-family="Helvetica,sans-Serif" font-size="11.00" fill="#000000">longtext[2147483647]</text>
<polygon fill="none" stroke="#000000" points="255,-204.7 255,-226.7 406,-226.7 406,-204.7 255,-204.7"/>
<text text-anchor="start" x="275" y="-211.8" font-family="Helvetica,sans-Serif" font-size="11.00" fill="#000000">Mobile</text>
<polygon fill="none" stroke="#000000" points="406,-204.7 406,-226.7 517,-226.7 517,-204.7 406,-204.7"/>
<text text-anchor="start" x="408.6115" y="-212.4" font-family="Helvetica,sans-Serif" font-size="11.00" fill="#000000">longtext[2147483647]</text>
<polygon fill="none" stroke="#000000" points="255,-182.7 255,-204.7 406,-204.7 406,-182.7 255,-182.7"/>
<text text-anchor="start" x="275" y="-189.8" font-family="Helvetica,sans-Serif" font-size="11.00" fill="#000000">Email</text>
<polygon fill="none" stroke="#000000" points="406,-182.7 406,-204.7 517,-204.7 517,-182.7 406,-182.7"/>
<text text-anchor="start" x="408.6115" y="-190.4" font-family="Helvetica,sans-Serif" font-size="11.00" fill="#000000">longtext[2147483647]</text>
<polygon fill="none" stroke="#000000" points="255,-160.7 255,-182.7 406,-182.7 406,-160.7 255,-160.7"/>
<text text-anchor="start" x="275" y="-167.8" font-family="Helvetica,sans-Serif" font-size="11.00" fill="#000000">Address</text>
<polygon fill="none" stroke="#000000" points="406,-160.7 406,-182.7 517,-182.7 517,-160.7 406,-160.7"/>
<text text-anchor="start" x="408.6115" y="-168.4" font-family="Helvetica,sans-Serif" font-size="11.00" fill="#000000">longtext[2147483647]</text>
<polygon fill="#ffffff" stroke="transparent" points="255,-138.7 255,-160.7 406,-160.7 406,-138.7 255,-138.7"/>
<polygon fill="none" stroke="#000000" points="255,-138.7 255,-160.7 406,-160.7 406,-138.7 255,-138.7"/>
<image xlink:href="../../images/foreignKeys.png" width="11px" height="12px" preserveAspectRatio="xMinYMin meet" x="260" y="-155.7"/>
<text text-anchor="start" x="275" y="-145.8" font-family="Helvetica,sans-Serif" font-size="11.00" fill="#000000">Common_DealerFK</text>
<polygon fill="none" stroke="#000000" points="406,-138.7 406,-160.7 517,-160.7 517,-138.7 406,-138.7"/>
<text text-anchor="start" x="409" y="-146.4" font-family="Helvetica,sans-Serif" font-size="11.00" fill="#000000">int[10]</text>
<polygon fill="#ffffff" stroke="transparent" points="255,-116.7 255,-138.7 406,-138.7 406,-116.7 255,-116.7"/>
<polygon fill="none" stroke="#000000" points="255,-116.7 255,-138.7 406,-138.7 406,-116.7 255,-116.7"/>
<image xlink:href="../../images/foreignKeys.png" width="11px" height="12px" preserveAspectRatio="xMinYMin meet" x="260" y="-133.7"/>
<text text-anchor="start" x="275" y="-123.8" font-family="Helvetica,sans-Serif" font-size="11.00" fill="#000000">Common_CustomerFK</text>
<polygon fill="none" stroke="#000000" points="406,-116.7 406,-138.7 517,-138.7 517,-116.7 406,-116.7"/>
<text text-anchor="start" x="409" y="-124.4" font-family="Helvetica,sans-Serif" font-size="11.00" fill="#000000">int[10]</text>
<polygon fill="#ffffff" stroke="transparent" points="255,-97.7 255,-116.7 322,-116.7 322,-97.7 255,-97.7"/>
<polygon fill="none" stroke="#000000" points="255,-97.7 255,-116.7 322,-116.7 322,-97.7 255,-97.7"/>
<text text-anchor="start" x="258" y="-103.8" font-family="Helvetica,sans-Serif" font-size="11.00" fill="#000000">&lt; 2</text>
<polygon fill="#ffffff" stroke="transparent" points="322,-97.7 322,-116.7 406,-116.7 406,-97.7 322,-97.7"/>
<polygon fill="none" stroke="#000000" points="322,-97.7 322,-116.7 406,-116.7 406,-97.7 322,-97.7"/>
<text text-anchor="start" x="370.6105" y="-103.8" font-family="Helvetica,sans-Serif" font-size="11.00" fill="#000000">0 rows</text>
<polygon fill="#ffffff" stroke="transparent" points="406,-97.7 406,-116.7 517,-116.7 517,-97.7 406,-97.7"/>
<polygon fill="none" stroke="#000000" points="406,-97.7 406,-116.7 517,-116.7 517,-97.7 406,-97.7"/>
<text text-anchor="start" x="498.4053" y="-103.8" font-family="Helvetica,sans-Serif" font-size="11.00" fill="#000000">0 &gt;</text>
<polygon fill="none" stroke="#000000" stroke-width="2" points="254,-96.7 254,-426.7 518,-426.7 518,-96.7 254,-96.7"/>
</a>
</g>
</g>
<!-- common_customer -->
<g id="node2" class="node">
<title>common_customer</title>
<g id="a_node2"><a xlink:href="../../tables/common_customer.html" xlink:title="common_customer" target="_top">
<polygon fill="#ffffff" stroke="transparent" points="31.5,-38.2 31.5,-121.2 180.5,-121.2 180.5,-38.2 31.5,-38.2"/>
<polygon fill="#f5f5f5" stroke="transparent" points="32,-97.7 32,-120.7 181,-120.7 181,-97.7 32,-97.7"/>
<polygon fill="none" stroke="#000000" points="32,-97.7 32,-120.7 181,-120.7 181,-97.7 32,-97.7"/>
<text text-anchor="start" x="37" y="-106.3" font-family="Helvetica,sans-Serif" font-weight="bold" font-size="11.00" fill="#000000">common_customer</text>
<text text-anchor="start" x="146.5219" y="-105.8" font-family="Helvetica,sans-Serif" font-size="11.00" fill="#000000">[table]</text>
<polygon fill="none" stroke="#000000" points="32,-75.7 32,-97.7 181,-97.7 181,-75.7 32,-75.7"/>
<image xlink:href="../../images/primaryKeys.png" width="11px" height="12px" preserveAspectRatio="xMinYMin meet" x="37" y="-92.7"/>
<text text-anchor="start" x="61" y="-82.8" font-family="Helvetica,sans-Serif" font-size="11.00" fill="#000000">ID</text>
<polygon fill="none" stroke="#000000" points="32,-56.7 32,-75.7 181,-75.7 181,-56.7 32,-56.7"/>
<text text-anchor="start" x="35" y="-62.8" font-family="Helvetica,sans-Serif" font-size="11.00" fill="#000000">...</text>
<polygon fill="#ffffff" stroke="transparent" points="32,-37.7 32,-56.7 77,-56.7 77,-37.7 32,-37.7"/>
<polygon fill="none" stroke="#000000" points="32,-37.7 32,-56.7 77,-56.7 77,-37.7 32,-37.7"/>
<text text-anchor="start" x="35" y="-43.8" font-family="Helvetica,sans-Serif" font-size="11.00" fill="#000000"> &#160;</text>
<polygon fill="#ffffff" stroke="transparent" points="77,-37.7 77,-56.7 143,-56.7 143,-37.7 77,-37.7"/>
<polygon fill="none" stroke="#000000" points="77,-37.7 77,-56.7 143,-56.7 143,-37.7 77,-37.7"/>
<text text-anchor="start" x="95.3807" y="-43.8" font-family="Helvetica,sans-Serif" font-size="11.00" fill="#000000">147 rows</text>
<polygon fill="#ffffff" stroke="transparent" points="143,-37.7 143,-56.7 181,-56.7 181,-37.7 143,-37.7"/>
<polygon fill="none" stroke="#000000" points="143,-37.7 143,-56.7 181,-56.7 181,-37.7 143,-37.7"/>
<text text-anchor="start" x="162.4053" y="-43.8" font-family="Helvetica,sans-Serif" font-size="11.00" fill="#000000">2 &gt;</text>
</a>
</g>
</g>
<!-- common_contact&#45;&gt;common_customer -->
<g id="edge1" class="edge">
<title>common_contact:w&#45;&gt;common_customer:e</title>
<path fill="none" stroke="#000000" d="M240.5673,-125.258C216.9015,-116.4315 213.0184,-86.7 181,-86.7"/>
<polygon fill="#000000" stroke="#000000" points="247.1121,-126.3654 254.3994,-131.2496 251.0561,-127.0327 255,-127.7 255,-127.7 255,-127.7 251.0561,-127.0327 255.6006,-124.1504 247.1121,-126.3654 247.1121,-126.3654"/>
<ellipse fill="none" stroke="#000000" cx="243.9569" cy="-125.8315" rx="3.2" ry="3.2"/>
</g>
<!-- common_dealer -->
<g id="node3" class="node">
<title>common_dealer</title>
<g id="a_node3"><a xlink:href="../../tables/common_dealer.html" xlink:title="common_dealer" target="_top">
<polygon fill="#ffffff" stroke="transparent" points="8,-142.2 8,-225.2 204,-225.2 204,-142.2 8,-142.2"/>
<polygon fill="#f5f5f5" stroke="transparent" points="8,-201.7 8,-224.7 204,-224.7 204,-201.7 8,-201.7"/>
<polygon fill="none" stroke="#000000" points="8,-201.7 8,-224.7 204,-224.7 204,-201.7 8,-201.7"/>
<text text-anchor="start" x="13" y="-210.3" font-family="Helvetica,sans-Serif" font-weight="bold" font-size="11.00" fill="#000000">common_dealer</text>
<text text-anchor="start" x="169.0437" y="-209.8" font-family="Helvetica,sans-Serif" font-size="11.00" fill="#000000">[table]</text>
<polygon fill="none" stroke="#000000" points="8,-179.7 8,-201.7 204,-201.7 204,-179.7 8,-179.7"/>
<image xlink:href="../../images/primaryKeys.png" width="11px" height="12px" preserveAspectRatio="xMinYMin meet" x="13" y="-196.7"/>
<text text-anchor="start" x="28" y="-186.8" font-family="Helvetica,sans-Serif" font-size="11.00" fill="#000000">ID</text>
<polygon fill="none" stroke="#000000" points="8,-160.7 8,-179.7 204,-179.7 204,-160.7 8,-160.7"/>
<text text-anchor="start" x="11" y="-166.8" font-family="Helvetica,sans-Serif" font-size="11.00" fill="#000000">...</text>
<polygon fill="#ffffff" stroke="transparent" points="8,-141.7 8,-160.7 79,-160.7 79,-141.7 8,-141.7"/>
<polygon fill="none" stroke="#000000" points="8,-141.7 8,-160.7 79,-160.7 79,-141.7 8,-141.7"/>
<text text-anchor="start" x="11" y="-147.8" font-family="Helvetica,sans-Serif" font-size="11.00" fill="#000000"> &#160;</text>
<polygon fill="#ffffff" stroke="transparent" points="79,-141.7 79,-160.7 153,-160.7 153,-141.7 79,-141.7"/>
<polygon fill="none" stroke="#000000" points="79,-141.7 79,-160.7 153,-160.7 153,-141.7 79,-141.7"/>
<text text-anchor="start" x="111.4956" y="-147.8" font-family="Helvetica,sans-Serif" font-size="11.00" fill="#000000">62 rows</text>
<polygon fill="#ffffff" stroke="transparent" points="153,-141.7 153,-160.7 204,-160.7 204,-141.7 153,-141.7"/>
<polygon fill="none" stroke="#000000" points="153,-141.7 153,-160.7 204,-160.7 204,-141.7 153,-141.7"/>
<text text-anchor="start" x="185.4053" y="-147.8" font-family="Helvetica,sans-Serif" font-size="11.00" fill="#000000">4 &gt;</text>
</a>
</g>
</g>
<!-- common_contact&#45;&gt;common_dealer -->
<g id="edge2" class="edge">
<title>common_contact:w&#45;&gt;common_dealer:e</title>
<path fill="none" stroke="#000000" d="M241.1568,-154.0877C227.3325,-164.6646 227.1756,-190.7 204,-190.7"/>
<polygon fill="#000000" stroke="#000000" points="247.3739,-152.1172 256.0877,-153.1317 251.1869,-150.9086 255,-149.7 255,-149.7 255,-149.7 251.1869,-150.9086 253.9123,-146.2683 247.3739,-152.1172 247.3739,-152.1172"/>
<ellipse fill="none" stroke="#000000" cx="244.3235" cy="-153.0841" rx="3.2" ry="3.2"/>
</g>
</g>
</svg>
