<?xml version="1.0" encoding="UTF-8" standalone="no"?>
<!DOCTYPE svg PUBLIC "-//W3C//DTD SVG 1.1//EN"
 "http://www.w3.org/Graphics/SVG/1.1/DTD/svg11.dtd">
<!-- Generated by graphviz version 2.40.1 (20161225.0304)
 -->
<!-- Title: twoDegreesRelationshipsDiagram Pages: 1 -->
<svg width="535pt" height="629pt"
 viewBox="0.00 0.00 535.00 628.70" xmlns="http://www.w3.org/2000/svg" xmlns:xlink="http://www.w3.org/1999/xlink">
<g id="graph0" class="graph" transform="scale(1 1) rotate(0) translate(4 624.7)">
<title>twoDegreesRelationshipsDiagram</title>
<polygon fill="#ffffff" stroke="transparent" points="-4,4 -4,-624.7 531,-624.7 531,4 -4,4"/>
<text text-anchor="middle" x="72.4936" y="-7.3" font-family="Helvetica,sans-Serif" font-size="11.00" fill="#000000">Generated by SchemaSpy</text>
<!-- common_contact -->
<g id="node1" class="node">
<title>common_contact</title>
<g id="a_node1"><a xlink:href="../../tables/common_contact.html" xlink:title="common_contact" target="_top">
<polygon fill="#ffffff" stroke="transparent" points="253,-284.7 253,-616.7 519,-616.7 519,-284.7 253,-284.7"/>
<polygon fill="#f5f5f5" stroke="transparent" points="255,-591.7 255,-614.7 517,-614.7 517,-591.7 255,-591.7"/>
<polygon fill="none" stroke="#000000" points="255,-591.7 255,-614.7 517,-614.7 517,-591.7 255,-591.7"/>
<text text-anchor="start" x="260" y="-600.3" font-family="Helvetica,sans-Serif" font-weight="bold" font-size="11.00" fill="#000000">common_contact</text>
<text text-anchor="start" x="482.0437" y="-599.8" font-family="Helvetica,sans-Serif" font-size="11.00" fill="#000000">[table]</text>
<polygon fill="none" stroke="#000000" points="255,-569.7 255,-591.7 406,-591.7 406,-569.7 255,-569.7"/>
<image xlink:href="../../images/primaryKeys.png" width="11px" height="12px" preserveAspectRatio="xMinYMin meet" x="260" y="-586.7"/>
<text text-anchor="start" x="275" y="-576.8" font-family="Helvetica,sans-Serif" font-size="11.00" fill="#000000">ID</text>
<polygon fill="none" stroke="#000000" points="406,-569.7 406,-591.7 517,-591.7 517,-569.7 406,-569.7"/>
<text text-anchor="start" x="409" y="-577.4" font-family="Helvetica,sans-Serif" font-size="11.00" fill="#000000">int[10]</text>
<polygon fill="none" stroke="#000000" points="255,-547.7 255,-569.7 406,-569.7 406,-547.7 255,-547.7"/>
<text text-anchor="start" x="275" y="-554.8" font-family="Helvetica,sans-Serif" font-size="11.00" fill="#000000">Active</text>
<polygon fill="none" stroke="#000000" points="406,-547.7 406,-569.7 517,-569.7 517,-547.7 406,-547.7"/>
<text text-anchor="start" x="409" y="-555.4" font-family="Helvetica,sans-Serif" font-size="11.00" fill="#000000">bit[1]</text>
<polygon fill="none" stroke="#000000" points="255,-525.7 255,-547.7 406,-547.7 406,-525.7 255,-525.7"/>
<text text-anchor="start" x="275" y="-532.8" font-family="Helvetica,sans-Serif" font-size="11.00" fill="#000000">User</text>
<polygon fill="none" stroke="#000000" points="406,-525.7 406,-547.7 517,-547.7 517,-525.7 406,-525.7"/>
<text text-anchor="start" x="408.6115" y="-533.4" font-family="Helvetica,sans-Serif" font-size="11.00" fill="#000000">longtext[2147483647]</text>
<polygon fill="none" stroke="#000000" points="255,-503.7 255,-525.7 406,-525.7 406,-503.7 255,-503.7"/>
<text text-anchor="start" x="275" y="-510.8" font-family="Helvetica,sans-Serif" font-size="11.00" fill="#000000">CD</text>
<polygon fill="none" stroke="#000000" points="406,-503.7 406,-525.7 517,-525.7 517,-503.7 406,-503.7"/>
<text text-anchor="start" x="409" y="-511.4" font-family="Helvetica,sans-Serif" font-size="11.00" fill="#000000">datetime[26]</text>
<polygon fill="none" stroke="#000000" points="255,-481.7 255,-503.7 406,-503.7 406,-481.7 255,-481.7"/>
<text text-anchor="start" x="275" y="-488.8" font-family="Helvetica,sans-Serif" font-size="11.00" fill="#000000">UD</text>
<polygon fill="none" stroke="#000000" points="406,-481.7 406,-503.7 517,-503.7 517,-481.7 406,-481.7"/>
<text text-anchor="start" x="409" y="-489.4" font-family="Helvetica,sans-Serif" font-size="11.00" fill="#000000">datetime[26]</text>
<polygon fill="none" stroke="#000000" points="255,-459.7 255,-481.7 406,-481.7 406,-459.7 255,-459.7"/>
<text text-anchor="start" x="275" y="-466.8" font-family="Helvetica,sans-Serif" font-size="11.00" fill="#000000">Remarks</text>
<polygon fill="none" stroke="#000000" points="406,-459.7 406,-481.7 517,-481.7 517,-459.7 406,-459.7"/>
<text text-anchor="start" x="408.6115" y="-467.4" font-family="Helvetica,sans-Serif" font-size="11.00" fill="#000000">longtext[2147483647]</text>
<polygon fill="none" stroke="#000000" points="255,-437.7 255,-459.7 406,-459.7 406,-437.7 255,-437.7"/>
<text text-anchor="start" x="275" y="-444.8" font-family="Helvetica,sans-Serif" font-size="11.00" fill="#000000">UserID</text>
<polygon fill="none" stroke="#000000" points="406,-437.7 406,-459.7 517,-459.7 517,-437.7 406,-437.7"/>
<text text-anchor="start" x="409" y="-445.4" font-family="Helvetica,sans-Serif" font-size="11.00" fill="#000000">int[10]</text>
<polygon fill="none" stroke="#000000" points="255,-415.7 255,-437.7 406,-437.7 406,-415.7 255,-415.7"/>
<text text-anchor="start" x="275" y="-422.8" font-family="Helvetica,sans-Serif" font-size="11.00" fill="#000000">Name</text>
<polygon fill="none" stroke="#000000" points="406,-415.7 406,-437.7 517,-437.7 517,-415.7 406,-415.7"/>
<text text-anchor="start" x="408.6115" y="-423.4" font-family="Helvetica,sans-Serif" font-size="11.00" fill="#000000">longtext[2147483647]</text>
<polygon fill="none" stroke="#000000" points="255,-393.7 255,-415.7 406,-415.7 406,-393.7 255,-393.7"/>
<text text-anchor="start" x="275" y="-400.8" font-family="Helvetica,sans-Serif" font-size="11.00" fill="#000000">Mobile</text>
<polygon fill="none" stroke="#000000" points="406,-393.7 406,-415.7 517,-415.7 517,-393.7 406,-393.7"/>
<text text-anchor="start" x="408.6115" y="-401.4" font-family="Helvetica,sans-Serif" font-size="11.00" fill="#000000">longtext[2147483647]</text>
<polygon fill="none" stroke="#000000" points="255,-371.7 255,-393.7 406,-393.7 406,-371.7 255,-371.7"/>
<text text-anchor="start" x="275" y="-378.8" font-family="Helvetica,sans-Serif" font-size="11.00" fill="#000000">Email</text>
<polygon fill="none" stroke="#000000" points="406,-371.7 406,-393.7 517,-393.7 517,-371.7 406,-371.7"/>
<text text-anchor="start" x="408.6115" y="-379.4" font-family="Helvetica,sans-Serif" font-size="11.00" fill="#000000">longtext[2147483647]</text>
<polygon fill="none" stroke="#000000" points="255,-349.7 255,-371.7 406,-371.7 406,-349.7 255,-349.7"/>
<text text-anchor="start" x="275" y="-356.8" font-family="Helvetica,sans-Serif" font-size="11.00" fill="#000000">Address</text>
<polygon fill="none" stroke="#000000" points="406,-349.7 406,-371.7 517,-371.7 517,-349.7 406,-349.7"/>
<text text-anchor="start" x="408.6115" y="-357.4" font-family="Helvetica,sans-Serif" font-size="11.00" fill="#000000">longtext[2147483647]</text>
<polygon fill="#ffffff" stroke="transparent" points="255,-327.7 255,-349.7 406,-349.7 406,-327.7 255,-327.7"/>
<polygon fill="none" stroke="#000000" points="255,-327.7 255,-349.7 406,-349.7 406,-327.7 255,-327.7"/>
<image xlink:href="../../images/foreignKeys.png" width="11px" height="12px" preserveAspectRatio="xMinYMin meet" x="260" y="-344.7"/>
<text text-anchor="start" x="275" y="-334.8" font-family="Helvetica,sans-Serif" font-size="11.00" fill="#000000">Common_DealerFK</text>
<polygon fill="none" stroke="#000000" points="406,-327.7 406,-349.7 517,-349.7 517,-327.7 406,-327.7"/>
<text text-anchor="start" x="409" y="-335.4" font-family="Helvetica,sans-Serif" font-size="11.00" fill="#000000">int[10]</text>
<polygon fill="#ffffff" stroke="transparent" points="255,-305.7 255,-327.7 406,-327.7 406,-305.7 255,-305.7"/>
<polygon fill="none" stroke="#000000" points="255,-305.7 255,-327.7 406,-327.7 406,-305.7 255,-305.7"/>
<image xlink:href="../../images/foreignKeys.png" width="11px" height="12px" preserveAspectRatio="xMinYMin meet" x="260" y="-322.7"/>
<text text-anchor="start" x="275" y="-312.8" font-family="Helvetica,sans-Serif" font-size="11.00" fill="#000000">Common_CustomerFK</text>
<polygon fill="none" stroke="#000000" points="406,-305.7 406,-327.7 517,-327.7 517,-305.7 406,-305.7"/>
<text text-anchor="start" x="409" y="-313.4" font-family="Helvetica,sans-Serif" font-size="11.00" fill="#000000">int[10]</text>
<polygon fill="#ffffff" stroke="transparent" points="255,-286.7 255,-305.7 322,-305.7 322,-286.7 255,-286.7"/>
<polygon fill="none" stroke="#000000" points="255,-286.7 255,-305.7 322,-305.7 322,-286.7 255,-286.7"/>
<text text-anchor="start" x="258" y="-292.8" font-family="Helvetica,sans-Serif" font-size="11.00" fill="#000000">&lt; 2</text>
<polygon fill="#ffffff" stroke="transparent" points="322,-286.7 322,-305.7 406,-305.7 406,-286.7 322,-286.7"/>
<polygon fill="none" stroke="#000000" points="322,-286.7 322,-305.7 406,-305.7 406,-286.7 322,-286.7"/>
<text text-anchor="start" x="370.6105" y="-292.8" font-family="Helvetica,sans-Serif" font-size="11.00" fill="#000000">0 rows</text>
<polygon fill="#ffffff" stroke="transparent" points="406,-286.7 406,-305.7 517,-305.7 517,-286.7 406,-286.7"/>
<polygon fill="none" stroke="#000000" points="406,-286.7 406,-305.7 517,-305.7 517,-286.7 406,-286.7"/>
<text text-anchor="start" x="498.4053" y="-292.8" font-family="Helvetica,sans-Serif" font-size="11.00" fill="#000000">0 &gt;</text>
<polygon fill="none" stroke="#000000" stroke-width="2" points="254,-285.7 254,-615.7 518,-615.7 518,-285.7 254,-285.7"/>
</a>
</g>
</g>
<!-- common_customer -->
<g id="node2" class="node">
<title>common_customer</title>
<g id="a_node2"><a xlink:href="../../tables/common_customer.html" xlink:title="common_customer" target="_top">
<polygon fill="#ffffff" stroke="transparent" points="31.5,-251.2 31.5,-334.2 180.5,-334.2 180.5,-251.2 31.5,-251.2"/>
<polygon fill="#f5f5f5" stroke="transparent" points="32,-310.7 32,-333.7 181,-333.7 181,-310.7 32,-310.7"/>
<polygon fill="none" stroke="#000000" points="32,-310.7 32,-333.7 181,-333.7 181,-310.7 32,-310.7"/>
<text text-anchor="start" x="37" y="-319.3" font-family="Helvetica,sans-Serif" font-weight="bold" font-size="11.00" fill="#000000">common_customer</text>
<text text-anchor="start" x="146.5219" y="-318.8" font-family="Helvetica,sans-Serif" font-size="11.00" fill="#000000">[table]</text>
<polygon fill="none" stroke="#000000" points="32,-288.7 32,-310.7 181,-310.7 181,-288.7 32,-288.7"/>
<image xlink:href="../../images/primaryKeys.png" width="11px" height="12px" preserveAspectRatio="xMinYMin meet" x="37" y="-305.7"/>
<text text-anchor="start" x="61" y="-295.8" font-family="Helvetica,sans-Serif" font-size="11.00" fill="#000000">ID</text>
<polygon fill="none" stroke="#000000" points="32,-269.7 32,-288.7 181,-288.7 181,-269.7 32,-269.7"/>
<text text-anchor="start" x="35" y="-275.8" font-family="Helvetica,sans-Serif" font-size="11.00" fill="#000000">...</text>
<polygon fill="#ffffff" stroke="transparent" points="32,-250.7 32,-269.7 77,-269.7 77,-250.7 32,-250.7"/>
<polygon fill="none" stroke="#000000" points="32,-250.7 32,-269.7 77,-269.7 77,-250.7 32,-250.7"/>
<text text-anchor="start" x="35" y="-256.8" font-family="Helvetica,sans-Serif" font-size="11.00" fill="#000000"> &#160;</text>
<polygon fill="#ffffff" stroke="transparent" points="77,-250.7 77,-269.7 143,-269.7 143,-250.7 77,-250.7"/>
<polygon fill="none" stroke="#000000" points="77,-250.7 77,-269.7 143,-269.7 143,-250.7 77,-250.7"/>
<text text-anchor="start" x="95.3807" y="-256.8" font-family="Helvetica,sans-Serif" font-size="11.00" fill="#000000">147 rows</text>
<polygon fill="#ffffff" stroke="transparent" points="143,-250.7 143,-269.7 181,-269.7 181,-250.7 143,-250.7"/>
<polygon fill="none" stroke="#000000" points="143,-250.7 143,-269.7 181,-269.7 181,-250.7 143,-250.7"/>
<text text-anchor="start" x="162.4053" y="-256.8" font-family="Helvetica,sans-Serif" font-size="11.00" fill="#000000">2 &gt;</text>
</a>
</g>
</g>
<!-- common_contact&#45;&gt;common_customer -->
<g id="edge1" class="edge">
<title>common_contact:w&#45;&gt;common_customer:e</title>
<path fill="none" stroke="#000000" d="M240.3496,-315.4774C218.3856,-311.5795 209.2092,-299.7 181,-299.7"/>
<polygon fill="#000000" stroke="#000000" points="247.0277,-316.0346 254.7006,-320.2875 251.0139,-316.3673 255,-316.7 255,-316.7 255,-316.7 251.0139,-316.3673 255.2994,-313.1125 247.0277,-316.0346 247.0277,-316.0346"/>
<ellipse fill="none" stroke="#000000" cx="243.8388" cy="-315.7685" rx="3.2" ry="3.2"/>
</g>
<!-- common_dealer -->
<g id="node3" class="node">
<title>common_dealer</title>
<g id="a_node3"><a xlink:href="../../tables/common_dealer.html" xlink:title="common_dealer" target="_top">
<polygon fill="#ffffff" stroke="transparent" points="8,-131.2 8,-214.2 204,-214.2 204,-131.2 8,-131.2"/>
<polygon fill="#f5f5f5" stroke="transparent" points="8,-190.7 8,-213.7 204,-213.7 204,-190.7 8,-190.7"/>
<polygon fill="none" stroke="#000000" points="8,-190.7 8,-213.7 204,-213.7 204,-190.7 8,-190.7"/>
<text text-anchor="start" x="13" y="-199.3" font-family="Helvetica,sans-Serif" font-weight="bold" font-size="11.00" fill="#000000">common_dealer</text>
<text text-anchor="start" x="169.0437" y="-198.8" font-family="Helvetica,sans-Serif" font-size="11.00" fill="#000000">[table]</text>
<polygon fill="none" stroke="#000000" points="8,-168.7 8,-190.7 204,-190.7 204,-168.7 8,-168.7"/>
<image xlink:href="../../images/primaryKeys.png" width="11px" height="12px" preserveAspectRatio="xMinYMin meet" x="13" y="-185.7"/>
<text text-anchor="start" x="28" y="-175.8" font-family="Helvetica,sans-Serif" font-size="11.00" fill="#000000">ID</text>
<polygon fill="none" stroke="#000000" points="8,-149.7 8,-168.7 204,-168.7 204,-149.7 8,-149.7"/>
<text text-anchor="start" x="11" y="-155.8" font-family="Helvetica,sans-Serif" font-size="11.00" fill="#000000">...</text>
<polygon fill="#ffffff" stroke="transparent" points="8,-130.7 8,-149.7 79,-149.7 79,-130.7 8,-130.7"/>
<polygon fill="none" stroke="#000000" points="8,-130.7 8,-149.7 79,-149.7 79,-130.7 8,-130.7"/>
<text text-anchor="start" x="11" y="-136.8" font-family="Helvetica,sans-Serif" font-size="11.00" fill="#000000"> &#160;</text>
<polygon fill="#ffffff" stroke="transparent" points="79,-130.7 79,-149.7 153,-149.7 153,-130.7 79,-130.7"/>
<polygon fill="none" stroke="#000000" points="79,-130.7 79,-149.7 153,-149.7 153,-130.7 79,-130.7"/>
<text text-anchor="start" x="111.4956" y="-136.8" font-family="Helvetica,sans-Serif" font-size="11.00" fill="#000000">62 rows</text>
<polygon fill="#ffffff" stroke="transparent" points="153,-130.7 153,-149.7 204,-149.7 204,-130.7 153,-130.7"/>
<polygon fill="none" stroke="#000000" points="153,-130.7 153,-149.7 204,-149.7 204,-130.7 153,-130.7"/>
<text text-anchor="start" x="185.4053" y="-136.8" font-family="Helvetica,sans-Serif" font-size="11.00" fill="#000000">4 &gt;</text>
</a>
</g>
</g>
<!-- common_contact&#45;&gt;common_dealer -->
<g id="edge2" class="edge">
<title>common_contact:w&#45;&gt;common_dealer:e</title>
<path fill="none" stroke="#000000" d="M240.5855,-335.9403C194.9623,-314.8267 272.415,-179.7 204,-179.7"/>
<polygon fill="#000000" stroke="#000000" points="247.1427,-337.1956 254.323,-342.2358 251.0714,-337.9478 255,-338.7 255,-338.7 255,-338.7 251.0714,-337.9478 255.677,-335.1642 247.1427,-337.1956 247.1427,-337.1956"/>
<ellipse fill="none" stroke="#000000" cx="243.9998" cy="-336.5939" rx="3.2" ry="3.2"/>
</g>
<!-- common_dealerproduct -->
<g id="node4" class="node">
<title>common_dealerproduct</title>
<g id="a_node4"><a xlink:href="../../tables/common_dealerproduct.html" xlink:title="common_dealerproduct" target="_top">
<polygon fill="#ffffff" stroke="transparent" points="298.5,-120.2 298.5,-181.2 473.5,-181.2 473.5,-120.2 298.5,-120.2"/>
<polygon fill="#f5f5f5" stroke="transparent" points="299,-157.7 299,-180.7 474,-180.7 474,-157.7 299,-157.7"/>
<polygon fill="none" stroke="#000000" points="299,-157.7 299,-180.7 474,-180.7 474,-157.7 299,-157.7"/>
<text text-anchor="start" x="304" y="-166.3" font-family="Helvetica,sans-Serif" font-weight="bold" font-size="11.00" fill="#000000">common_dealerproduct</text>
<text text-anchor="start" x="439.5219" y="-165.8" font-family="Helvetica,sans-Serif" font-size="11.00" fill="#000000">[table]</text>
<polygon fill="none" stroke="#000000" points="299,-138.7 299,-157.7 474,-157.7 474,-138.7 299,-138.7"/>
<text text-anchor="start" x="302" y="-144.8" font-family="Helvetica,sans-Serif" font-size="11.00" fill="#000000">...</text>
<polygon fill="#ffffff" stroke="transparent" points="299,-119.7 299,-138.7 366,-138.7 366,-119.7 299,-119.7"/>
<polygon fill="none" stroke="#000000" points="299,-119.7 299,-138.7 366,-138.7 366,-119.7 299,-119.7"/>
<text text-anchor="start" x="302" y="-125.8" font-family="Helvetica,sans-Serif" font-size="11.00" fill="#000000">&lt; 2</text>
<polygon fill="#ffffff" stroke="transparent" points="366,-119.7 366,-138.7 439,-138.7 439,-119.7 366,-119.7"/>
<polygon fill="none" stroke="#000000" points="366,-119.7 366,-138.7 439,-138.7 439,-119.7 366,-119.7"/>
<text text-anchor="start" x="391.3807" y="-125.8" font-family="Helvetica,sans-Serif" font-size="11.00" fill="#000000">427 rows</text>
<polygon fill="#ffffff" stroke="transparent" points="439,-119.7 439,-138.7 474,-138.7 474,-119.7 439,-119.7"/>
<polygon fill="none" stroke="#000000" points="439,-119.7 439,-138.7 474,-138.7 474,-119.7 439,-119.7"/>
<text text-anchor="start" x="464.8862" y="-125.8" font-family="Helvetica,sans-Serif" font-size="11.00" fill="#000000"> &#160;</text>
</a>
</g>
</g>
<!-- common_dealerproduct&#45;&gt;common_dealer -->
<g id="edge3" class="edge">
<title>common_dealerproduct:w&#45;&gt;common_dealer:e</title>
<path fill="none" stroke="#000000" d="M284.378,-148.9941C252.4526,-154.9808 243.1581,-179.7 204,-179.7"/>
<polygon fill="#000000" stroke="#000000" points="291.0311,-148.4053 299.3174,-151.286 295.0156,-148.0527 299,-147.7 299,-147.7 299,-147.7 295.0156,-148.0527 298.6826,-144.114 291.0311,-148.4053 291.0311,-148.4053"/>
<ellipse fill="none" stroke="#000000" cx="287.8436" cy="-148.6874" rx="3.2" ry="3.2"/>
</g>
<!-- common_dealerzone -->
<g id="node5" class="node">
<title>common_dealerzone</title>
<g id="a_node5"><a xlink:href="../../tables/common_dealerzone.html" xlink:title="common_dealerzone" target="_top">
<polygon fill="#ffffff" stroke="transparent" points="307,-38.2 307,-99.2 465,-99.2 465,-38.2 307,-38.2"/>
<polygon fill="#f5f5f5" stroke="transparent" points="307,-75.7 307,-98.7 465,-98.7 465,-75.7 307,-75.7"/>
<polygon fill="none" stroke="#000000" points="307,-75.7 307,-98.7 465,-98.7 465,-75.7 307,-75.7"/>
<text text-anchor="start" x="312" y="-84.3" font-family="Helvetica,sans-Serif" font-weight="bold" font-size="11.00" fill="#000000">common_dealerzone</text>
<text text-anchor="start" x="430.5219" y="-83.8" font-family="Helvetica,sans-Serif" font-size="11.00" fill="#000000">[table]</text>
<polygon fill="none" stroke="#000000" points="307,-56.7 307,-75.7 465,-75.7 465,-56.7 307,-56.7"/>
<text text-anchor="start" x="310" y="-62.8" font-family="Helvetica,sans-Serif" font-size="11.00" fill="#000000">...</text>
<polygon fill="#ffffff" stroke="transparent" points="307,-37.7 307,-56.7 368,-56.7 368,-37.7 307,-37.7"/>
<polygon fill="none" stroke="#000000" points="307,-37.7 307,-56.7 368,-56.7 368,-37.7 307,-37.7"/>
<text text-anchor="start" x="310" y="-43.8" font-family="Helvetica,sans-Serif" font-size="11.00" fill="#000000">&lt; 2</text>
<polygon fill="#ffffff" stroke="transparent" points="368,-37.7 368,-56.7 432,-56.7 432,-37.7 368,-37.7"/>
<polygon fill="none" stroke="#000000" points="368,-37.7 368,-56.7 432,-56.7 432,-37.7 368,-37.7"/>
<text text-anchor="start" x="390.4956" y="-43.8" font-family="Helvetica,sans-Serif" font-size="11.00" fill="#000000">52 rows</text>
<polygon fill="#ffffff" stroke="transparent" points="432,-37.7 432,-56.7 465,-56.7 465,-37.7 432,-37.7"/>
<polygon fill="none" stroke="#000000" points="432,-37.7 432,-56.7 465,-56.7 465,-37.7 432,-37.7"/>
<text text-anchor="start" x="455.8862" y="-43.8" font-family="Helvetica,sans-Serif" font-size="11.00" fill="#000000"> &#160;</text>
</a>
</g>
</g>
<!-- common_dealerzone&#45;&gt;common_dealer -->
<g id="edge4" class="edge">
<title>common_dealerzone:w&#45;&gt;common_dealer:e</title>
<path fill="none" stroke="#000000" d="M292.4605,-67.1827C270.9745,-72.1197 264.0819,-88.8742 245,-109.7 220.6427,-136.2833 240.0548,-179.7 204,-179.7"/>
<polygon fill="#000000" stroke="#000000" points="299.0413,-66.5117 307.3652,-69.2814 303.0206,-66.1058 307,-65.7 307,-65.7 307,-65.7 303.0206,-66.1058 306.6348,-62.1186 299.0413,-66.5117 299.0413,-66.5117"/>
<ellipse fill="none" stroke="#000000" cx="295.8578" cy="-66.8363" rx="3.2" ry="3.2"/>
</g>
<!-- order_sale -->
<g id="node6" class="node">
<title>order_sale</title>
<g id="a_node6"><a xlink:href="../../tables/order_sale.html" xlink:title="order_sale" target="_top">
<polygon fill="#ffffff" stroke="transparent" points="336.5,-202.2 336.5,-263.2 435.5,-263.2 435.5,-202.2 336.5,-202.2"/>
<polygon fill="#f5f5f5" stroke="transparent" points="337,-239.7 337,-262.7 436,-262.7 436,-239.7 337,-239.7"/>
<polygon fill="none" stroke="#000000" points="337,-239.7 337,-262.7 436,-262.7 436,-239.7 337,-239.7"/>
<text text-anchor="start" x="342" y="-248.3" font-family="Helvetica,sans-Serif" font-weight="bold" font-size="11.00" fill="#000000">order_sale</text>
<text text-anchor="start" x="401.5219" y="-247.8" font-family="Helvetica,sans-Serif" font-size="11.00" fill="#000000">[table]</text>
<polygon fill="none" stroke="#000000" points="337,-220.7 337,-239.7 436,-239.7 436,-220.7 337,-220.7"/>
<text text-anchor="start" x="340" y="-226.8" font-family="Helvetica,sans-Serif" font-size="11.00" fill="#000000">...</text>
<polygon fill="#ffffff" stroke="transparent" points="337,-201.7 337,-220.7 361,-220.7 361,-201.7 337,-201.7"/>
<polygon fill="none" stroke="#000000" points="337,-201.7 337,-220.7 361,-220.7 361,-201.7 337,-201.7"/>
<text text-anchor="start" x="340" y="-207.8" font-family="Helvetica,sans-Serif" font-size="11.00" fill="#000000">&lt; 2</text>
<polygon fill="#ffffff" stroke="transparent" points="361,-201.7 361,-220.7 413,-220.7 413,-201.7 361,-201.7"/>
<polygon fill="none" stroke="#000000" points="361,-201.7 361,-220.7 413,-220.7 413,-201.7 361,-201.7"/>
<text text-anchor="start" x="365.3807" y="-207.8" font-family="Helvetica,sans-Serif" font-size="11.00" fill="#000000">389 rows</text>
<polygon fill="#ffffff" stroke="transparent" points="413,-201.7 413,-220.7 436,-220.7 436,-201.7 413,-201.7"/>
<polygon fill="none" stroke="#000000" points="413,-201.7 413,-220.7 436,-220.7 436,-201.7 413,-201.7"/>
<text text-anchor="start" x="417.4053" y="-207.8" font-family="Helvetica,sans-Serif" font-size="11.00" fill="#000000">1 &gt;</text>
</a>
</g>
</g>
<!-- order_sale&#45;&gt;common_customer -->
<g id="edge5" class="edge">
<title>order_sale:w&#45;&gt;common_customer:e</title>
<path fill="none" stroke="#000000" d="M322.5919,-232.1913C281.4159,-244.6611 214.6924,-299.7 181,-299.7"/>
<polygon fill="#000000" stroke="#000000" points="329.117,-231.0631 337.6134,-233.2474 333.0585,-230.3816 337,-229.7 337,-229.7 337,-229.7 333.0585,-230.3816 336.3866,-226.1526 329.117,-231.0631 329.117,-231.0631"/>
<ellipse fill="none" stroke="#000000" cx="325.9638" cy="-231.6084" rx="3.2" ry="3.2"/>
</g>
<!-- order_sale&#45;&gt;common_dealer -->
<g id="edge6" class="edge">
<title>order_sale:w&#45;&gt;common_dealer:e</title>
<path fill="none" stroke="#000000" d="M322.5732,-227.2884C287.5462,-217.3007 231.3815,-179.7 204,-179.7"/>
<polygon fill="#000000" stroke="#000000" points="329.1095,-228.381 336.4064,-233.2507 333.0547,-229.0405 337,-229.7 337,-229.7 337,-229.7 333.0547,-229.0405 337.5936,-226.1493 329.1095,-228.381 329.1095,-228.381"/>
<ellipse fill="none" stroke="#000000" cx="325.9533" cy="-227.8533" rx="3.2" ry="3.2"/>
</g>
</g>
</svg>
