<?xml version="1.0" encoding="UTF-8" standalone="no"?>
<!DOCTYPE svg PUBLIC "-//W3C//DTD SVG 1.1//EN"
 "http://www.w3.org/Graphics/SVG/1.1/DTD/svg11.dtd">
<!-- Generated by graphviz version 2.40.1 (20161225.0304)
 -->
<!-- Title: oneDegreeRelationshipsDiagram Pages: 1 -->
<svg width="580pt" height="889pt"
 viewBox="0.00 0.00 580.00 888.70" xmlns="http://www.w3.org/2000/svg" xmlns:xlink="http://www.w3.org/1999/xlink">
<g id="graph0" class="graph" transform="scale(1 1) rotate(0) translate(4 884.7)">
<title>oneDegreeRelationshipsDiagram</title>
<polygon fill="#ffffff" stroke="transparent" points="-4,4 -4,-884.7 576,-884.7 576,4 -4,4"/>
<text text-anchor="middle" x="72.4936" y="-7.3" font-family="Helvetica,sans-Serif" font-size="11.00" fill="#000000">Generated by SchemaSpy</text>
<!-- common_contact -->
<g id="node1" class="node">
<title>common_contact</title>
<g id="a_node1"><a xlink:href="../../tables/common_contact.html" xlink:title="common_contact" target="_top">
<polygon fill="#ffffff" stroke="transparent" points="390.5,-749.7 390.5,-876.7 541.5,-876.7 541.5,-749.7 390.5,-749.7"/>
<polygon fill="#f5f5f5" stroke="transparent" points="391,-853.2 391,-876.2 542,-876.2 542,-853.2 391,-853.2"/>
<polygon fill="none" stroke="#000000" points="391,-853.2 391,-876.2 542,-876.2 542,-853.2 391,-853.2"/>
<text text-anchor="start" x="396" y="-861.8" font-family="Helvetica,sans-Serif" font-weight="bold" font-size="11.00" fill="#000000">common_contact</text>
<text text-anchor="start" x="507.0437" y="-861.3" font-family="Helvetica,sans-Serif" font-size="11.00" fill="#000000">[table]</text>
<polygon fill="none" stroke="#000000" points="391,-831.2 391,-853.2 542,-853.2 542,-831.2 391,-831.2"/>
<image xlink:href="../../images/primaryKeys.png" width="11px" height="12px" preserveAspectRatio="xMinYMin meet" x="396" y="-848.2"/>
<text text-anchor="start" x="411" y="-838.3" font-family="Helvetica,sans-Serif" font-size="11.00" fill="#000000">ID</text>
<polygon fill="#ffffff" stroke="transparent" points="391,-809.2 391,-831.2 542,-831.2 542,-809.2 391,-809.2"/>
<polygon fill="none" stroke="#000000" points="391,-809.2 391,-831.2 542,-831.2 542,-809.2 391,-809.2"/>
<image xlink:href="../../images/foreignKeys.png" width="11px" height="12px" preserveAspectRatio="xMinYMin meet" x="396" y="-826.2"/>
<text text-anchor="start" x="411" y="-816.3" font-family="Helvetica,sans-Serif" font-size="11.00" fill="#000000">Common_DealerFK</text>
<polygon fill="#ffffff" stroke="transparent" points="391,-787.2 391,-809.2 542,-809.2 542,-787.2 391,-787.2"/>
<polygon fill="none" stroke="#000000" points="391,-787.2 391,-809.2 542,-809.2 542,-787.2 391,-787.2"/>
<image xlink:href="../../images/foreignKeys.png" width="11px" height="12px" preserveAspectRatio="xMinYMin meet" x="396" y="-804.2"/>
<text text-anchor="start" x="411" y="-794.3" font-family="Helvetica,sans-Serif" font-size="11.00" fill="#000000">Common_CustomerFK</text>
<polygon fill="none" stroke="#000000" points="391,-768.2 391,-787.2 542,-787.2 542,-768.2 391,-768.2"/>
<text text-anchor="start" x="394" y="-774.3" font-family="Helvetica,sans-Serif" font-size="11.00" fill="#000000">...</text>
<polygon fill="#ffffff" stroke="transparent" points="391,-749.2 391,-768.2 452,-768.2 452,-749.2 391,-749.2"/>
<polygon fill="none" stroke="#000000" points="391,-749.2 391,-768.2 452,-768.2 452,-749.2 391,-749.2"/>
<text text-anchor="start" x="394" y="-755.3" font-family="Helvetica,sans-Serif" font-size="11.00" fill="#000000">&lt; 2</text>
<polygon fill="#ffffff" stroke="transparent" points="452,-749.2 452,-768.2 510,-768.2 510,-749.2 452,-749.2"/>
<polygon fill="none" stroke="#000000" points="452,-749.2 452,-768.2 510,-768.2 510,-749.2 452,-749.2"/>
<text text-anchor="start" x="474.6105" y="-755.3" font-family="Helvetica,sans-Serif" font-size="11.00" fill="#000000">0 rows</text>
<polygon fill="#ffffff" stroke="transparent" points="510,-749.2 510,-768.2 542,-768.2 542,-749.2 510,-749.2"/>
<polygon fill="none" stroke="#000000" points="510,-749.2 510,-768.2 542,-768.2 542,-749.2 510,-749.2"/>
<text text-anchor="start" x="532.8862" y="-755.3" font-family="Helvetica,sans-Serif" font-size="11.00" fill="#000000"> &#160;</text>
</a>
</g>
</g>
<!-- common_dealer -->
<g id="node2" class="node">
<title>common_dealer</title>
<g id="a_node2"><a xlink:href="../../tables/common_dealer.html" xlink:title="common_dealer" target="_top">
<polygon fill="#ffffff" stroke="transparent" points="8,-38.2 8,-634.2 319,-634.2 319,-38.2 8,-38.2"/>
<polygon fill="#f5f5f5" stroke="transparent" points="10.5,-609.2 10.5,-632.2 317.5,-632.2 317.5,-609.2 10.5,-609.2"/>
<polygon fill="none" stroke="#000000" points="10.5,-609.2 10.5,-632.2 317.5,-632.2 317.5,-609.2 10.5,-609.2"/>
<text text-anchor="start" x="15.5" y="-617.8" font-family="Helvetica,sans-Serif" font-weight="bold" font-size="11.00" fill="#000000">common_dealer</text>
<text text-anchor="start" x="282.5437" y="-617.3" font-family="Helvetica,sans-Serif" font-size="11.00" fill="#000000">[table]</text>
<polygon fill="none" stroke="#000000" points="10.5,-587.2 10.5,-609.2 206.5,-609.2 206.5,-587.2 10.5,-587.2"/>
<image xlink:href="../../images/primaryKeys.png" width="11px" height="12px" preserveAspectRatio="xMinYMin meet" x="15.5" y="-604.2"/>
<text text-anchor="start" x="30.5" y="-594.3" font-family="Helvetica,sans-Serif" font-size="11.00" fill="#000000">ID</text>
<polygon fill="none" stroke="#000000" points="206.5,-587.2 206.5,-609.2 317.5,-609.2 317.5,-587.2 206.5,-587.2"/>
<text text-anchor="start" x="209.5" y="-594.9" font-family="Helvetica,sans-Serif" font-size="11.00" fill="#000000">int[10]</text>
<polygon fill="none" stroke="#000000" points="10.5,-565.2 10.5,-587.2 206.5,-587.2 206.5,-565.2 10.5,-565.2"/>
<text text-anchor="start" x="30.5" y="-572.3" font-family="Helvetica,sans-Serif" font-size="11.00" fill="#000000">Active</text>
<polygon fill="none" stroke="#000000" points="206.5,-565.2 206.5,-587.2 317.5,-587.2 317.5,-565.2 206.5,-565.2"/>
<text text-anchor="start" x="209.5" y="-572.9" font-family="Helvetica,sans-Serif" font-size="11.00" fill="#000000">bit[1]</text>
<polygon fill="none" stroke="#000000" points="10.5,-543.2 10.5,-565.2 206.5,-565.2 206.5,-543.2 10.5,-543.2"/>
<text text-anchor="start" x="30.5" y="-550.3" font-family="Helvetica,sans-Serif" font-size="11.00" fill="#000000">User</text>
<polygon fill="none" stroke="#000000" points="206.5,-543.2 206.5,-565.2 317.5,-565.2 317.5,-543.2 206.5,-543.2"/>
<text text-anchor="start" x="209.1115" y="-550.9" font-family="Helvetica,sans-Serif" font-size="11.00" fill="#000000">longtext[2147483647]</text>
<polygon fill="none" stroke="#000000" points="10.5,-521.2 10.5,-543.2 206.5,-543.2 206.5,-521.2 10.5,-521.2"/>
<text text-anchor="start" x="30.5" y="-528.3" font-family="Helvetica,sans-Serif" font-size="11.00" fill="#000000">CD</text>
<polygon fill="none" stroke="#000000" points="206.5,-521.2 206.5,-543.2 317.5,-543.2 317.5,-521.2 206.5,-521.2"/>
<text text-anchor="start" x="209.5" y="-528.9" font-family="Helvetica,sans-Serif" font-size="11.00" fill="#000000">datetime[26]</text>
<polygon fill="none" stroke="#000000" points="10.5,-499.2 10.5,-521.2 206.5,-521.2 206.5,-499.2 10.5,-499.2"/>
<text text-anchor="start" x="30.5" y="-506.3" font-family="Helvetica,sans-Serif" font-size="11.00" fill="#000000">UD</text>
<polygon fill="none" stroke="#000000" points="206.5,-499.2 206.5,-521.2 317.5,-521.2 317.5,-499.2 206.5,-499.2"/>
<text text-anchor="start" x="209.5" y="-506.9" font-family="Helvetica,sans-Serif" font-size="11.00" fill="#000000">datetime[26]</text>
<polygon fill="none" stroke="#000000" points="10.5,-477.2 10.5,-499.2 206.5,-499.2 206.5,-477.2 10.5,-477.2"/>
<text text-anchor="start" x="30.5" y="-484.3" font-family="Helvetica,sans-Serif" font-size="11.00" fill="#000000">Remarks</text>
<polygon fill="none" stroke="#000000" points="206.5,-477.2 206.5,-499.2 317.5,-499.2 317.5,-477.2 206.5,-477.2"/>
<text text-anchor="start" x="209.1115" y="-484.9" font-family="Helvetica,sans-Serif" font-size="11.00" fill="#000000">longtext[2147483647]</text>
<polygon fill="none" stroke="#000000" points="10.5,-455.2 10.5,-477.2 206.5,-477.2 206.5,-455.2 10.5,-455.2"/>
<text text-anchor="start" x="30.5" y="-462.3" font-family="Helvetica,sans-Serif" font-size="11.00" fill="#000000">UserID</text>
<polygon fill="none" stroke="#000000" points="206.5,-455.2 206.5,-477.2 317.5,-477.2 317.5,-455.2 206.5,-455.2"/>
<text text-anchor="start" x="209.5" y="-462.9" font-family="Helvetica,sans-Serif" font-size="11.00" fill="#000000">int[10]</text>
<polygon fill="none" stroke="#000000" points="10.5,-433.2 10.5,-455.2 206.5,-455.2 206.5,-433.2 10.5,-433.2"/>
<text text-anchor="start" x="30.5" y="-440.3" font-family="Helvetica,sans-Serif" font-size="11.00" fill="#000000">Code</text>
<polygon fill="none" stroke="#000000" points="206.5,-433.2 206.5,-455.2 317.5,-455.2 317.5,-433.2 206.5,-433.2"/>
<text text-anchor="start" x="209.1115" y="-440.9" font-family="Helvetica,sans-Serif" font-size="11.00" fill="#000000">longtext[2147483647]</text>
<polygon fill="none" stroke="#000000" points="10.5,-411.2 10.5,-433.2 206.5,-433.2 206.5,-411.2 10.5,-411.2"/>
<text text-anchor="start" x="30.5" y="-418.3" font-family="Helvetica,sans-Serif" font-size="11.00" fill="#000000">Name</text>
<polygon fill="none" stroke="#000000" points="206.5,-411.2 206.5,-433.2 317.5,-433.2 317.5,-411.2 206.5,-411.2"/>
<text text-anchor="start" x="209.1115" y="-418.9" font-family="Helvetica,sans-Serif" font-size="11.00" fill="#000000">longtext[2147483647]</text>
<polygon fill="none" stroke="#000000" points="10.5,-389.2 10.5,-411.2 206.5,-411.2 206.5,-389.2 10.5,-389.2"/>
<text text-anchor="start" x="30.5" y="-396.3" font-family="Helvetica,sans-Serif" font-size="11.00" fill="#000000">Common_DealerShipTypeFK</text>
<polygon fill="none" stroke="#000000" points="206.5,-389.2 206.5,-411.2 317.5,-411.2 317.5,-389.2 206.5,-389.2"/>
<text text-anchor="start" x="209.5" y="-396.9" font-family="Helvetica,sans-Serif" font-size="11.00" fill="#000000">int[10]</text>
<polygon fill="none" stroke="#000000" points="10.5,-367.2 10.5,-389.2 206.5,-389.2 206.5,-367.2 10.5,-367.2"/>
<text text-anchor="start" x="30.5" y="-374.3" font-family="Helvetica,sans-Serif" font-size="11.00" fill="#000000">Common_DistrictFK</text>
<polygon fill="none" stroke="#000000" points="206.5,-367.2 206.5,-389.2 317.5,-389.2 317.5,-367.2 206.5,-367.2"/>
<text text-anchor="start" x="209.5" y="-374.9" font-family="Helvetica,sans-Serif" font-size="11.00" fill="#000000">int[10]</text>
<polygon fill="none" stroke="#000000" points="10.5,-345.2 10.5,-367.2 206.5,-367.2 206.5,-345.2 10.5,-345.2"/>
<text text-anchor="start" x="30.5" y="-352.3" font-family="Helvetica,sans-Serif" font-size="11.00" fill="#000000">Address</text>
<polygon fill="none" stroke="#000000" points="206.5,-345.2 206.5,-367.2 317.5,-367.2 317.5,-345.2 206.5,-345.2"/>
<text text-anchor="start" x="209.1115" y="-352.9" font-family="Helvetica,sans-Serif" font-size="11.00" fill="#000000">longtext[2147483647]</text>
<polygon fill="none" stroke="#000000" points="10.5,-323.2 10.5,-345.2 206.5,-345.2 206.5,-323.2 10.5,-323.2"/>
<text text-anchor="start" x="30.5" y="-330.3" font-family="Helvetica,sans-Serif" font-size="11.00" fill="#000000">ContactNo</text>
<polygon fill="none" stroke="#000000" points="206.5,-323.2 206.5,-345.2 317.5,-345.2 317.5,-323.2 206.5,-323.2"/>
<text text-anchor="start" x="209.1115" y="-330.9" font-family="Helvetica,sans-Serif" font-size="11.00" fill="#000000">longtext[2147483647]</text>
<polygon fill="none" stroke="#000000" points="10.5,-301.2 10.5,-323.2 206.5,-323.2 206.5,-301.2 10.5,-301.2"/>
<text text-anchor="start" x="30.5" y="-308.3" font-family="Helvetica,sans-Serif" font-size="11.00" fill="#000000">Email</text>
<polygon fill="none" stroke="#000000" points="206.5,-301.2 206.5,-323.2 317.5,-323.2 317.5,-301.2 206.5,-301.2"/>
<text text-anchor="start" x="209.1115" y="-308.9" font-family="Helvetica,sans-Serif" font-size="11.00" fill="#000000">longtext[2147483647]</text>
<polygon fill="none" stroke="#000000" points="10.5,-279.2 10.5,-301.2 206.5,-301.2 206.5,-279.2 10.5,-279.2"/>
<text text-anchor="start" x="30.5" y="-286.3" font-family="Helvetica,sans-Serif" font-size="11.00" fill="#000000">IsLock</text>
<polygon fill="none" stroke="#000000" points="206.5,-279.2 206.5,-301.2 317.5,-301.2 317.5,-279.2 206.5,-279.2"/>
<text text-anchor="start" x="209.5" y="-286.9" font-family="Helvetica,sans-Serif" font-size="11.00" fill="#000000">bit[1]</text>
<polygon fill="none" stroke="#000000" points="10.5,-257.2 10.5,-279.2 206.5,-279.2 206.5,-257.2 10.5,-257.2"/>
<text text-anchor="start" x="30.5" y="-264.3" font-family="Helvetica,sans-Serif" font-size="11.00" fill="#000000">Common_CompanyInfoFK</text>
<polygon fill="none" stroke="#000000" points="206.5,-257.2 206.5,-279.2 317.5,-279.2 317.5,-257.2 206.5,-257.2"/>
<text text-anchor="start" x="209.5" y="-264.9" font-family="Helvetica,sans-Serif" font-size="11.00" fill="#000000">int[10]</text>
<polygon fill="none" stroke="#000000" points="10.5,-235.2 10.5,-257.2 206.5,-257.2 206.5,-235.2 10.5,-235.2"/>
<text text-anchor="start" x="30.5" y="-242.3" font-family="Helvetica,sans-Serif" font-size="11.00" fill="#000000">MasterFK</text>
<polygon fill="none" stroke="#000000" points="206.5,-235.2 206.5,-257.2 317.5,-257.2 317.5,-235.2 206.5,-235.2"/>
<text text-anchor="start" x="209.5" y="-242.9" font-family="Helvetica,sans-Serif" font-size="11.00" fill="#000000">int[10]</text>
<polygon fill="none" stroke="#000000" points="10.5,-213.2 10.5,-235.2 206.5,-235.2 206.5,-213.2 10.5,-213.2"/>
<text text-anchor="start" x="30.5" y="-220.3" font-family="Helvetica,sans-Serif" font-size="11.00" fill="#000000">Common_TermsNConditionFK</text>
<polygon fill="none" stroke="#000000" points="206.5,-213.2 206.5,-235.2 317.5,-235.2 317.5,-213.2 206.5,-213.2"/>
<text text-anchor="start" x="209.5" y="-220.9" font-family="Helvetica,sans-Serif" font-size="11.00" fill="#000000">int[10]</text>
<polygon fill="none" stroke="#000000" points="10.5,-191.2 10.5,-213.2 206.5,-213.2 206.5,-191.2 10.5,-191.2"/>
<text text-anchor="start" x="30.5" y="-198.3" font-family="Helvetica,sans-Serif" font-size="11.00" fill="#000000">HasReference</text>
<polygon fill="none" stroke="#000000" points="206.5,-191.2 206.5,-213.2 317.5,-213.2 317.5,-191.2 206.5,-191.2"/>
<text text-anchor="start" x="209.5" y="-198.9" font-family="Helvetica,sans-Serif" font-size="11.00" fill="#000000">bit[1]</text>
<polygon fill="none" stroke="#000000" points="10.5,-169.2 10.5,-191.2 206.5,-191.2 206.5,-169.2 10.5,-169.2"/>
<text text-anchor="start" x="30.5" y="-176.3" font-family="Helvetica,sans-Serif" font-size="11.00" fill="#000000">Rate</text>
<polygon fill="none" stroke="#000000" points="206.5,-169.2 206.5,-191.2 317.5,-191.2 317.5,-169.2 206.5,-169.2"/>
<text text-anchor="start" x="209.5" y="-176.9" font-family="Helvetica,sans-Serif" font-size="11.00" fill="#000000">decimal[18,2]</text>
<polygon fill="none" stroke="#000000" points="10.5,-147.2 10.5,-169.2 206.5,-169.2 206.5,-147.2 10.5,-147.2"/>
<text text-anchor="start" x="30.5" y="-154.3" font-family="Helvetica,sans-Serif" font-size="11.00" fill="#000000">CompanyType</text>
<polygon fill="none" stroke="#000000" points="206.5,-147.2 206.5,-169.2 317.5,-169.2 317.5,-147.2 206.5,-147.2"/>
<text text-anchor="start" x="209.5" y="-154.9" font-family="Helvetica,sans-Serif" font-size="11.00" fill="#000000">int[10]</text>
<polygon fill="none" stroke="#000000" points="10.5,-125.2 10.5,-147.2 206.5,-147.2 206.5,-125.2 10.5,-125.2"/>
<text text-anchor="start" x="30.5" y="-132.3" font-family="Helvetica,sans-Serif" font-size="11.00" fill="#000000">TINNumber</text>
<polygon fill="none" stroke="#000000" points="206.5,-125.2 206.5,-147.2 317.5,-147.2 317.5,-125.2 206.5,-125.2"/>
<text text-anchor="start" x="209.1115" y="-132.9" font-family="Helvetica,sans-Serif" font-size="11.00" fill="#000000">longtext[2147483647]</text>
<polygon fill="none" stroke="#000000" points="10.5,-103.2 10.5,-125.2 206.5,-125.2 206.5,-103.2 10.5,-103.2"/>
<text text-anchor="start" x="30.5" y="-110.3" font-family="Helvetica,sans-Serif" font-size="11.00" fill="#000000">TRDLicense</text>
<polygon fill="none" stroke="#000000" points="206.5,-103.2 206.5,-125.2 317.5,-125.2 317.5,-103.2 206.5,-103.2"/>
<text text-anchor="start" x="209.1115" y="-110.9" font-family="Helvetica,sans-Serif" font-size="11.00" fill="#000000">longtext[2147483647]</text>
<polygon fill="none" stroke="#000000" points="10.5,-81.2 10.5,-103.2 206.5,-103.2 206.5,-81.2 10.5,-81.2"/>
<text text-anchor="start" x="30.5" y="-88.3" font-family="Helvetica,sans-Serif" font-size="11.00" fill="#000000">VATNumber</text>
<polygon fill="none" stroke="#000000" points="206.5,-81.2 206.5,-103.2 317.5,-103.2 317.5,-81.2 206.5,-81.2"/>
<text text-anchor="start" x="209.1115" y="-88.9" font-family="Helvetica,sans-Serif" font-size="11.00" fill="#000000">longtext[2147483647]</text>
<polygon fill="none" stroke="#000000" points="10.5,-59.2 10.5,-81.2 206.5,-81.2 206.5,-59.2 10.5,-59.2"/>
<text text-anchor="start" x="30.5" y="-66.3" font-family="Helvetica,sans-Serif" font-size="11.00" fill="#000000">MaxTaxDiscountRate</text>
<polygon fill="none" stroke="#000000" points="206.5,-59.2 206.5,-81.2 317.5,-81.2 317.5,-59.2 206.5,-59.2"/>
<text text-anchor="start" x="209.5" y="-66.9" font-family="Helvetica,sans-Serif" font-size="11.00" fill="#000000">decimal[18,2]</text>
<polygon fill="#ffffff" stroke="transparent" points="10.5,-40.2 10.5,-59.2 96.5,-59.2 96.5,-40.2 10.5,-40.2"/>
<polygon fill="none" stroke="#000000" points="10.5,-40.2 10.5,-59.2 96.5,-59.2 96.5,-40.2 10.5,-40.2"/>
<text text-anchor="start" x="13.5" y="-46.3" font-family="Helvetica,sans-Serif" font-size="11.00" fill="#000000">&lt; 0</text>
<polygon fill="#ffffff" stroke="transparent" points="96.5,-40.2 96.5,-59.2 206.5,-59.2 206.5,-40.2 96.5,-40.2"/>
<polygon fill="none" stroke="#000000" points="96.5,-40.2 96.5,-59.2 206.5,-59.2 206.5,-40.2 96.5,-40.2"/>
<text text-anchor="start" x="164.9956" y="-46.3" font-family="Helvetica,sans-Serif" font-size="11.00" fill="#000000">62 rows</text>
<polygon fill="#ffffff" stroke="transparent" points="206.5,-40.2 206.5,-59.2 317.5,-59.2 317.5,-40.2 206.5,-40.2"/>
<polygon fill="none" stroke="#000000" points="206.5,-40.2 206.5,-59.2 317.5,-59.2 317.5,-40.2 206.5,-40.2"/>
<text text-anchor="start" x="298.9053" y="-46.3" font-family="Helvetica,sans-Serif" font-size="11.00" fill="#000000">4 &gt;</text>
<polygon fill="none" stroke="#000000" stroke-width="2" points="9,-39.2 9,-633.2 318,-633.2 318,-39.2 9,-39.2"/>
</a>
</g>
</g>
<!-- common_contact&#45;&gt;common_dealer -->
<g id="edge1" class="edge">
<title>common_contact:w&#45;&gt;common_dealer:e</title>
<path fill="none" stroke="#000000" d="M376.4755,-818.413C300.5751,-797.4033 415.9529,-598.2 317.5,-598.2"/>
<polygon fill="#000000" stroke="#000000" points="383.0599,-819.2231 390.5604,-823.7731 387.0299,-819.7115 391,-820.2 391,-820.2 391,-820.2 387.0299,-819.7115 391.4396,-816.6269 383.0599,-819.2231 383.0599,-819.2231"/>
<ellipse fill="none" stroke="#000000" cx="379.8838" cy="-818.8323" rx="3.2" ry="3.2"/>
</g>
<!-- common_dealerproduct -->
<g id="node3" class="node">
<title>common_dealerproduct</title>
<g id="a_node3"><a xlink:href="../../tables/common_dealerproduct.html" xlink:title="common_dealerproduct" target="_top">
<polygon fill="#ffffff" stroke="transparent" points="378.5,-601.7 378.5,-728.7 553.5,-728.7 553.5,-601.7 378.5,-601.7"/>
<polygon fill="#f5f5f5" stroke="transparent" points="379,-705.2 379,-728.2 554,-728.2 554,-705.2 379,-705.2"/>
<polygon fill="none" stroke="#000000" points="379,-705.2 379,-728.2 554,-728.2 554,-705.2 379,-705.2"/>
<text text-anchor="start" x="384" y="-713.8" font-family="Helvetica,sans-Serif" font-weight="bold" font-size="11.00" fill="#000000">common_dealerproduct</text>
<text text-anchor="start" x="519.5219" y="-713.3" font-family="Helvetica,sans-Serif" font-size="11.00" fill="#000000">[table]</text>
<polygon fill="none" stroke="#000000" points="379,-683.2 379,-705.2 554,-705.2 554,-683.2 379,-683.2"/>
<image xlink:href="../../images/primaryKeys.png" width="11px" height="12px" preserveAspectRatio="xMinYMin meet" x="384" y="-700.2"/>
<text text-anchor="start" x="408" y="-690.3" font-family="Helvetica,sans-Serif" font-size="11.00" fill="#000000">ID</text>
<polygon fill="#ffffff" stroke="transparent" points="379,-661.2 379,-683.2 554,-683.2 554,-661.2 379,-661.2"/>
<polygon fill="none" stroke="#000000" points="379,-661.2 379,-683.2 554,-683.2 554,-661.2 379,-661.2"/>
<image xlink:href="../../images/foreignKeys.png" width="11px" height="12px" preserveAspectRatio="xMinYMin meet" x="384" y="-678.2"/>
<text text-anchor="start" x="408" y="-668.3" font-family="Helvetica,sans-Serif" font-size="11.00" fill="#000000">Common_DealerFK</text>
<polygon fill="#ffffff" stroke="transparent" points="379,-639.2 379,-661.2 554,-661.2 554,-639.2 379,-639.2"/>
<polygon fill="none" stroke="#000000" points="379,-639.2 379,-661.2 554,-661.2 554,-639.2 379,-639.2"/>
<image xlink:href="../../images/foreignKeys.png" width="11px" height="12px" preserveAspectRatio="xMinYMin meet" x="384" y="-656.2"/>
<text text-anchor="start" x="408" y="-646.3" font-family="Helvetica,sans-Serif" font-size="11.00" fill="#000000">Common_ProductFK</text>
<polygon fill="none" stroke="#000000" points="379,-620.2 379,-639.2 554,-639.2 554,-620.2 379,-620.2"/>
<text text-anchor="start" x="382" y="-626.3" font-family="Helvetica,sans-Serif" font-size="11.00" fill="#000000">...</text>
<polygon fill="#ffffff" stroke="transparent" points="379,-601.2 379,-620.2 446,-620.2 446,-601.2 379,-601.2"/>
<polygon fill="none" stroke="#000000" points="379,-601.2 379,-620.2 446,-620.2 446,-601.2 379,-601.2"/>
<text text-anchor="start" x="382" y="-607.3" font-family="Helvetica,sans-Serif" font-size="11.00" fill="#000000">&lt; 2</text>
<polygon fill="#ffffff" stroke="transparent" points="446,-601.2 446,-620.2 519,-620.2 519,-601.2 446,-601.2"/>
<polygon fill="none" stroke="#000000" points="446,-601.2 446,-620.2 519,-620.2 519,-601.2 446,-601.2"/>
<text text-anchor="start" x="471.3807" y="-607.3" font-family="Helvetica,sans-Serif" font-size="11.00" fill="#000000">427 rows</text>
<polygon fill="#ffffff" stroke="transparent" points="519,-601.2 519,-620.2 554,-620.2 554,-601.2 519,-601.2"/>
<polygon fill="none" stroke="#000000" points="519,-601.2 519,-620.2 554,-620.2 554,-601.2 519,-601.2"/>
<text text-anchor="start" x="544.8862" y="-607.3" font-family="Helvetica,sans-Serif" font-size="11.00" fill="#000000"> &#160;</text>
</a>
</g>
</g>
<!-- common_dealerproduct&#45;&gt;common_dealer -->
<g id="edge2" class="edge">
<title>common_dealerproduct:w&#45;&gt;common_dealer:e</title>
<path fill="none" stroke="#000000" d="M364.864,-668.4286C341.5575,-653.3488 354.4177,-598.2 317.5,-598.2"/>
<polygon fill="#000000" stroke="#000000" points="371.2704,-670.1377 378.072,-675.6783 375.1352,-671.1689 379,-672.2 379,-672.2 379,-672.2 375.1352,-671.1689 379.928,-668.7217 371.2704,-670.1377 371.2704,-670.1377"/>
<ellipse fill="none" stroke="#000000" cx="368.1785" cy="-669.3128" rx="3.2" ry="3.2"/>
</g>
<!-- common_dealerzone -->
<g id="node4" class="node">
<title>common_dealerzone</title>
<g id="a_node4"><a xlink:href="../../tables/common_dealerzone.html" xlink:title="common_dealerzone" target="_top">
<polygon fill="#ffffff" stroke="transparent" points="387,-453.7 387,-580.7 545,-580.7 545,-453.7 387,-453.7"/>
<polygon fill="#f5f5f5" stroke="transparent" points="387,-557.2 387,-580.2 545,-580.2 545,-557.2 387,-557.2"/>
<polygon fill="none" stroke="#000000" points="387,-557.2 387,-580.2 545,-580.2 545,-557.2 387,-557.2"/>
<text text-anchor="start" x="392" y="-565.8" font-family="Helvetica,sans-Serif" font-weight="bold" font-size="11.00" fill="#000000">common_dealerzone</text>
<text text-anchor="start" x="510.5219" y="-565.3" font-family="Helvetica,sans-Serif" font-size="11.00" fill="#000000">[table]</text>
<polygon fill="none" stroke="#000000" points="387,-535.2 387,-557.2 545,-557.2 545,-535.2 387,-535.2"/>
<image xlink:href="../../images/primaryKeys.png" width="11px" height="12px" preserveAspectRatio="xMinYMin meet" x="392" y="-552.2"/>
<text text-anchor="start" x="416" y="-542.3" font-family="Helvetica,sans-Serif" font-size="11.00" fill="#000000">ID</text>
<polygon fill="#ffffff" stroke="transparent" points="387,-513.2 387,-535.2 545,-535.2 545,-513.2 387,-513.2"/>
<polygon fill="none" stroke="#000000" points="387,-513.2 387,-535.2 545,-535.2 545,-513.2 387,-513.2"/>
<image xlink:href="../../images/foreignKeys.png" width="11px" height="12px" preserveAspectRatio="xMinYMin meet" x="392" y="-530.2"/>
<text text-anchor="start" x="416" y="-520.3" font-family="Helvetica,sans-Serif" font-size="11.00" fill="#000000">Common_DealerFK</text>
<polygon fill="#ffffff" stroke="transparent" points="387,-491.2 387,-513.2 545,-513.2 545,-491.2 387,-491.2"/>
<polygon fill="none" stroke="#000000" points="387,-491.2 387,-513.2 545,-513.2 545,-491.2 387,-491.2"/>
<image xlink:href="../../images/foreignKeys.png" width="11px" height="12px" preserveAspectRatio="xMinYMin meet" x="392" y="-508.2"/>
<text text-anchor="start" x="416" y="-498.3" font-family="Helvetica,sans-Serif" font-size="11.00" fill="#000000">Common_ZoneFK</text>
<polygon fill="none" stroke="#000000" points="387,-472.2 387,-491.2 545,-491.2 545,-472.2 387,-472.2"/>
<text text-anchor="start" x="390" y="-478.3" font-family="Helvetica,sans-Serif" font-size="11.00" fill="#000000">...</text>
<polygon fill="#ffffff" stroke="transparent" points="387,-453.2 387,-472.2 448,-472.2 448,-453.2 387,-453.2"/>
<polygon fill="none" stroke="#000000" points="387,-453.2 387,-472.2 448,-472.2 448,-453.2 387,-453.2"/>
<text text-anchor="start" x="390" y="-459.3" font-family="Helvetica,sans-Serif" font-size="11.00" fill="#000000">&lt; 2</text>
<polygon fill="#ffffff" stroke="transparent" points="448,-453.2 448,-472.2 512,-472.2 512,-453.2 448,-453.2"/>
<polygon fill="none" stroke="#000000" points="448,-453.2 448,-472.2 512,-472.2 512,-453.2 448,-453.2"/>
<text text-anchor="start" x="470.4956" y="-459.3" font-family="Helvetica,sans-Serif" font-size="11.00" fill="#000000">52 rows</text>
<polygon fill="#ffffff" stroke="transparent" points="512,-453.2 512,-472.2 545,-472.2 545,-453.2 512,-453.2"/>
<polygon fill="none" stroke="#000000" points="512,-453.2 512,-472.2 545,-472.2 545,-453.2 512,-453.2"/>
<text text-anchor="start" x="535.8862" y="-459.3" font-family="Helvetica,sans-Serif" font-size="11.00" fill="#000000"> &#160;</text>
</a>
</g>
</g>
<!-- common_dealerzone&#45;&gt;common_dealer -->
<g id="edge3" class="edge">
<title>common_dealerzone:w&#45;&gt;common_dealer:e</title>
<path fill="none" stroke="#000000" d="M372.91,-527.3797C346.036,-541.5438 356.9799,-598.2 317.5,-598.2"/>
<polygon fill="#000000" stroke="#000000" points="379.1962,-525.9611 387.7925,-527.7117 383.0981,-525.0806 387,-524.2 387,-524.2 387,-524.2 383.0981,-525.0806 386.2075,-520.6883 379.1962,-525.9611 379.1962,-525.9611"/>
<ellipse fill="none" stroke="#000000" cx="376.0747" cy="-526.6656" rx="3.2" ry="3.2"/>
</g>
<!-- order_sale -->
<g id="node5" class="node">
<title>order_sale</title>
<g id="a_node5"><a xlink:href="../../tables/order_sale.html" xlink:title="order_sale" target="_top">
<polygon fill="#ffffff" stroke="transparent" points="368,-305.7 368,-432.7 564,-432.7 564,-305.7 368,-305.7"/>
<polygon fill="#f5f5f5" stroke="transparent" points="368,-409.2 368,-432.2 564,-432.2 564,-409.2 368,-409.2"/>
<polygon fill="none" stroke="#000000" points="368,-409.2 368,-432.2 564,-432.2 564,-409.2 368,-409.2"/>
<text text-anchor="start" x="373" y="-417.8" font-family="Helvetica,sans-Serif" font-weight="bold" font-size="11.00" fill="#000000">order_sale</text>
<text text-anchor="start" x="529.0437" y="-417.3" font-family="Helvetica,sans-Serif" font-size="11.00" fill="#000000">[table]</text>
<polygon fill="none" stroke="#000000" points="368,-387.2 368,-409.2 564,-409.2 564,-387.2 368,-387.2"/>
<image xlink:href="../../images/primaryKeys.png" width="11px" height="12px" preserveAspectRatio="xMinYMin meet" x="373" y="-404.2"/>
<text text-anchor="start" x="388" y="-394.3" font-family="Helvetica,sans-Serif" font-size="11.00" fill="#000000">ID</text>
<polygon fill="#ffffff" stroke="transparent" points="368,-365.2 368,-387.2 564,-387.2 564,-365.2 368,-365.2"/>
<polygon fill="none" stroke="#000000" points="368,-365.2 368,-387.2 564,-387.2 564,-365.2 368,-365.2"/>
<image xlink:href="../../images/foreignKeys.png" width="11px" height="12px" preserveAspectRatio="xMinYMin meet" x="373" y="-382.2"/>
<text text-anchor="start" x="388" y="-372.3" font-family="Helvetica,sans-Serif" font-size="11.00" fill="#000000">Common_CustomerFK</text>
<polygon fill="#ffffff" stroke="transparent" points="368,-343.2 368,-365.2 564,-365.2 564,-343.2 368,-343.2"/>
<polygon fill="none" stroke="#000000" points="368,-343.2 368,-365.2 564,-365.2 564,-343.2 368,-343.2"/>
<image xlink:href="../../images/foreignKeys.png" width="11px" height="12px" preserveAspectRatio="xMinYMin meet" x="373" y="-360.2"/>
<text text-anchor="start" x="388" y="-350.3" font-family="Helvetica,sans-Serif" font-size="11.00" fill="#000000">Common_Dealer2FK</text>
<polygon fill="none" stroke="#000000" points="368,-324.2 368,-343.2 564,-343.2 564,-324.2 368,-324.2"/>
<text text-anchor="start" x="371" y="-330.3" font-family="Helvetica,sans-Serif" font-size="11.00" fill="#000000">...</text>
<polygon fill="#ffffff" stroke="transparent" points="368,-305.2 368,-324.2 441,-324.2 441,-305.2 368,-305.2"/>
<polygon fill="none" stroke="#000000" points="368,-305.2 368,-324.2 441,-324.2 441,-305.2 368,-305.2"/>
<text text-anchor="start" x="371" y="-311.3" font-family="Helvetica,sans-Serif" font-size="11.00" fill="#000000">&lt; 2</text>
<polygon fill="#ffffff" stroke="transparent" points="441,-305.2 441,-324.2 517,-324.2 517,-305.2 441,-305.2"/>
<polygon fill="none" stroke="#000000" points="441,-305.2 441,-324.2 517,-324.2 517,-305.2 441,-305.2"/>
<text text-anchor="start" x="469.3807" y="-311.3" font-family="Helvetica,sans-Serif" font-size="11.00" fill="#000000">389 rows</text>
<polygon fill="#ffffff" stroke="transparent" points="517,-305.2 517,-324.2 564,-324.2 564,-305.2 517,-305.2"/>
<polygon fill="none" stroke="#000000" points="517,-305.2 517,-324.2 564,-324.2 564,-305.2 517,-305.2"/>
<text text-anchor="start" x="545.4053" y="-311.3" font-family="Helvetica,sans-Serif" font-size="11.00" fill="#000000">1 &gt;</text>
</a>
</g>
</g>
<!-- order_sale&#45;&gt;common_dealer -->
<g id="edge4" class="edge">
<title>order_sale:w&#45;&gt;common_dealer:e</title>
<path fill="none" stroke="#000000" d="M353.2348,-356.0237C273.8965,-378.352 422.6191,-598.2 317.5,-598.2"/>
<polygon fill="#000000" stroke="#000000" points="360.0603,-355.1807 368.4413,-357.7728 364.0302,-354.6904 368,-354.2 368,-354.2 368,-354.2 364.0302,-354.6904 367.5587,-350.6272 360.0603,-355.1807 360.0603,-355.1807"/>
<ellipse fill="none" stroke="#000000" cx="356.8845" cy="-355.573" rx="3.2" ry="3.2"/>
</g>
</g>
</svg>
