<?xml version="1.0" encoding="UTF-8" standalone="no"?>
<!DOCTYPE svg PUBLIC "-//W3C//DTD SVG 1.1//EN"
 "http://www.w3.org/Graphics/SVG/1.1/DTD/svg11.dtd">
<!-- Generated by graphviz version 2.40.1 (20161225.0304)
 -->
<!-- Title: oneDegreeRelationshipsDiagram Pages: 1 -->
<svg width="541pt" height="396pt"
 viewBox="0.00 0.00 541.00 395.70" xmlns="http://www.w3.org/2000/svg" xmlns:xlink="http://www.w3.org/1999/xlink">
<g id="graph0" class="graph" transform="scale(1 1) rotate(0) translate(4 391.7)">
<title>oneDegreeRelationshipsDiagram</title>
<polygon fill="#ffffff" stroke="transparent" points="-4,4 -4,-391.7 537,-391.7 537,4 -4,4"/>
<text text-anchor="middle" x="72.4936" y="-7.3" font-family="Helvetica,sans-Serif" font-size="11.00" fill="#000000">Generated by SchemaSpy</text>
<!-- common_dealerproduct -->
<g id="node1" class="node">
<title>common_dealerproduct</title>
<g id="a_node1"><a xlink:href="../../tables/common_dealerproduct.html" xlink:title="common_dealerproduct" target="_top">
<polygon fill="#ffffff" stroke="transparent" points="253,-139.7 253,-383.7 525,-383.7 525,-139.7 253,-139.7"/>
<polygon fill="#f5f5f5" stroke="transparent" points="255,-358.7 255,-381.7 523,-381.7 523,-358.7 255,-358.7"/>
<polygon fill="none" stroke="#000000" points="255,-358.7 255,-381.7 523,-381.7 523,-358.7 255,-358.7"/>
<text text-anchor="start" x="260" y="-367.3" font-family="Helvetica,sans-Serif" font-weight="bold" font-size="11.00" fill="#000000">common_dealerproduct</text>
<text text-anchor="start" x="488.0437" y="-366.8" font-family="Helvetica,sans-Serif" font-size="11.00" fill="#000000">[table]</text>
<polygon fill="none" stroke="#000000" points="255,-336.7 255,-358.7 412,-358.7 412,-336.7 255,-336.7"/>
<image xlink:href="../../images/primaryKeys.png" width="11px" height="12px" preserveAspectRatio="xMinYMin meet" x="260" y="-353.7"/>
<text text-anchor="start" x="275" y="-343.8" font-family="Helvetica,sans-Serif" font-size="11.00" fill="#000000">ID</text>
<polygon fill="none" stroke="#000000" points="412,-336.7 412,-358.7 523,-358.7 523,-336.7 412,-336.7"/>
<text text-anchor="start" x="415" y="-344.4" font-family="Helvetica,sans-Serif" font-size="11.00" fill="#000000">int[10]</text>
<polygon fill="none" stroke="#000000" points="255,-314.7 255,-336.7 412,-336.7 412,-314.7 255,-314.7"/>
<text text-anchor="start" x="275" y="-321.8" font-family="Helvetica,sans-Serif" font-size="11.00" fill="#000000">Active</text>
<polygon fill="none" stroke="#000000" points="412,-314.7 412,-336.7 523,-336.7 523,-314.7 412,-314.7"/>
<text text-anchor="start" x="415" y="-322.4" font-family="Helvetica,sans-Serif" font-size="11.00" fill="#000000">bit[1]</text>
<polygon fill="none" stroke="#000000" points="255,-292.7 255,-314.7 412,-314.7 412,-292.7 255,-292.7"/>
<text text-anchor="start" x="275" y="-299.8" font-family="Helvetica,sans-Serif" font-size="11.00" fill="#000000">User</text>
<polygon fill="none" stroke="#000000" points="412,-292.7 412,-314.7 523,-314.7 523,-292.7 412,-292.7"/>
<text text-anchor="start" x="414.6115" y="-300.4" font-family="Helvetica,sans-Serif" font-size="11.00" fill="#000000">longtext[2147483647]</text>
<polygon fill="none" stroke="#000000" points="255,-270.7 255,-292.7 412,-292.7 412,-270.7 255,-270.7"/>
<text text-anchor="start" x="275" y="-277.8" font-family="Helvetica,sans-Serif" font-size="11.00" fill="#000000">CD</text>
<polygon fill="none" stroke="#000000" points="412,-270.7 412,-292.7 523,-292.7 523,-270.7 412,-270.7"/>
<text text-anchor="start" x="415" y="-278.4" font-family="Helvetica,sans-Serif" font-size="11.00" fill="#000000">datetime[26]</text>
<polygon fill="none" stroke="#000000" points="255,-248.7 255,-270.7 412,-270.7 412,-248.7 255,-248.7"/>
<text text-anchor="start" x="275" y="-255.8" font-family="Helvetica,sans-Serif" font-size="11.00" fill="#000000">UD</text>
<polygon fill="none" stroke="#000000" points="412,-248.7 412,-270.7 523,-270.7 523,-248.7 412,-248.7"/>
<text text-anchor="start" x="415" y="-256.4" font-family="Helvetica,sans-Serif" font-size="11.00" fill="#000000">datetime[26]</text>
<polygon fill="none" stroke="#000000" points="255,-226.7 255,-248.7 412,-248.7 412,-226.7 255,-226.7"/>
<text text-anchor="start" x="275" y="-233.8" font-family="Helvetica,sans-Serif" font-size="11.00" fill="#000000">Remarks</text>
<polygon fill="none" stroke="#000000" points="412,-226.7 412,-248.7 523,-248.7 523,-226.7 412,-226.7"/>
<text text-anchor="start" x="414.6115" y="-234.4" font-family="Helvetica,sans-Serif" font-size="11.00" fill="#000000">longtext[2147483647]</text>
<polygon fill="none" stroke="#000000" points="255,-204.7 255,-226.7 412,-226.7 412,-204.7 255,-204.7"/>
<text text-anchor="start" x="275" y="-211.8" font-family="Helvetica,sans-Serif" font-size="11.00" fill="#000000">UserID</text>
<polygon fill="none" stroke="#000000" points="412,-204.7 412,-226.7 523,-226.7 523,-204.7 412,-204.7"/>
<text text-anchor="start" x="415" y="-212.4" font-family="Helvetica,sans-Serif" font-size="11.00" fill="#000000">int[10]</text>
<polygon fill="#ffffff" stroke="transparent" points="255,-182.7 255,-204.7 412,-204.7 412,-182.7 255,-182.7"/>
<polygon fill="none" stroke="#000000" points="255,-182.7 255,-204.7 412,-204.7 412,-182.7 255,-182.7"/>
<image xlink:href="../../images/foreignKeys.png" width="11px" height="12px" preserveAspectRatio="xMinYMin meet" x="260" y="-199.7"/>
<text text-anchor="start" x="275" y="-189.8" font-family="Helvetica,sans-Serif" font-size="11.00" fill="#000000">Common_DealerFK</text>
<polygon fill="none" stroke="#000000" points="412,-182.7 412,-204.7 523,-204.7 523,-182.7 412,-182.7"/>
<text text-anchor="start" x="415" y="-190.4" font-family="Helvetica,sans-Serif" font-size="11.00" fill="#000000">int[10]</text>
<polygon fill="#ffffff" stroke="transparent" points="255,-160.7 255,-182.7 412,-182.7 412,-160.7 255,-160.7"/>
<polygon fill="none" stroke="#000000" points="255,-160.7 255,-182.7 412,-182.7 412,-160.7 255,-160.7"/>
<image xlink:href="../../images/foreignKeys.png" width="11px" height="12px" preserveAspectRatio="xMinYMin meet" x="260" y="-177.7"/>
<text text-anchor="start" x="275" y="-167.8" font-family="Helvetica,sans-Serif" font-size="11.00" fill="#000000">Common_ProductFK</text>
<polygon fill="none" stroke="#000000" points="412,-160.7 412,-182.7 523,-182.7 523,-160.7 412,-160.7"/>
<text text-anchor="start" x="415" y="-168.4" font-family="Helvetica,sans-Serif" font-size="11.00" fill="#000000">int[10]</text>
<polygon fill="#ffffff" stroke="transparent" points="255,-141.7 255,-160.7 319,-160.7 319,-141.7 255,-141.7"/>
<polygon fill="none" stroke="#000000" points="255,-141.7 255,-160.7 319,-160.7 319,-141.7 255,-141.7"/>
<text text-anchor="start" x="258" y="-147.8" font-family="Helvetica,sans-Serif" font-size="11.00" fill="#000000">&lt; 2</text>
<polygon fill="#ffffff" stroke="transparent" points="319,-141.7 319,-160.7 412,-160.7 412,-141.7 319,-141.7"/>
<polygon fill="none" stroke="#000000" points="319,-141.7 319,-160.7 412,-160.7 412,-141.7 319,-141.7"/>
<text text-anchor="start" x="364.3807" y="-147.8" font-family="Helvetica,sans-Serif" font-size="11.00" fill="#000000">427 rows</text>
<polygon fill="#ffffff" stroke="transparent" points="412,-141.7 412,-160.7 523,-160.7 523,-141.7 412,-141.7"/>
<polygon fill="none" stroke="#000000" points="412,-141.7 412,-160.7 523,-160.7 523,-141.7 412,-141.7"/>
<text text-anchor="start" x="504.4053" y="-147.8" font-family="Helvetica,sans-Serif" font-size="11.00" fill="#000000">0 &gt;</text>
<polygon fill="none" stroke="#000000" stroke-width="2" points="254,-140.7 254,-382.7 524,-382.7 524,-140.7 254,-140.7"/>
</a>
</g>
</g>
<!-- common_dealer -->
<g id="node2" class="node">
<title>common_dealer</title>
<g id="a_node2"><a xlink:href="../../tables/common_dealer.html" xlink:title="common_dealer" target="_top">
<polygon fill="#ffffff" stroke="transparent" points="8,-186.2 8,-269.2 204,-269.2 204,-186.2 8,-186.2"/>
<polygon fill="#f5f5f5" stroke="transparent" points="8,-245.7 8,-268.7 204,-268.7 204,-245.7 8,-245.7"/>
<polygon fill="none" stroke="#000000" points="8,-245.7 8,-268.7 204,-268.7 204,-245.7 8,-245.7"/>
<text text-anchor="start" x="13" y="-254.3" font-family="Helvetica,sans-Serif" font-weight="bold" font-size="11.00" fill="#000000">common_dealer</text>
<text text-anchor="start" x="169.0437" y="-253.8" font-family="Helvetica,sans-Serif" font-size="11.00" fill="#000000">[table]</text>
<polygon fill="none" stroke="#000000" points="8,-223.7 8,-245.7 204,-245.7 204,-223.7 8,-223.7"/>
<image xlink:href="../../images/primaryKeys.png" width="11px" height="12px" preserveAspectRatio="xMinYMin meet" x="13" y="-240.7"/>
<text text-anchor="start" x="28" y="-230.8" font-family="Helvetica,sans-Serif" font-size="11.00" fill="#000000">ID</text>
<polygon fill="none" stroke="#000000" points="8,-204.7 8,-223.7 204,-223.7 204,-204.7 8,-204.7"/>
<text text-anchor="start" x="11" y="-210.8" font-family="Helvetica,sans-Serif" font-size="11.00" fill="#000000">...</text>
<polygon fill="#ffffff" stroke="transparent" points="8,-185.7 8,-204.7 79,-204.7 79,-185.7 8,-185.7"/>
<polygon fill="none" stroke="#000000" points="8,-185.7 8,-204.7 79,-204.7 79,-185.7 8,-185.7"/>
<text text-anchor="start" x="11" y="-191.8" font-family="Helvetica,sans-Serif" font-size="11.00" fill="#000000"> &#160;</text>
<polygon fill="#ffffff" stroke="transparent" points="79,-185.7 79,-204.7 153,-204.7 153,-185.7 79,-185.7"/>
<polygon fill="none" stroke="#000000" points="79,-185.7 79,-204.7 153,-204.7 153,-185.7 79,-185.7"/>
<text text-anchor="start" x="111.4956" y="-191.8" font-family="Helvetica,sans-Serif" font-size="11.00" fill="#000000">62 rows</text>
<polygon fill="#ffffff" stroke="transparent" points="153,-185.7 153,-204.7 204,-204.7 204,-185.7 153,-185.7"/>
<polygon fill="none" stroke="#000000" points="153,-185.7 153,-204.7 204,-204.7 204,-185.7 153,-185.7"/>
<text text-anchor="start" x="185.4053" y="-191.8" font-family="Helvetica,sans-Serif" font-size="11.00" fill="#000000">4 &gt;</text>
</a>
</g>
</g>
<!-- common_dealerproduct&#45;&gt;common_dealer -->
<g id="edge1" class="edge">
<title>common_dealerproduct:w&#45;&gt;common_dealer:e</title>
<path fill="none" stroke="#000000" d="M241.1568,-198.0877C227.3325,-208.6646 227.1756,-234.7 204,-234.7"/>
<polygon fill="#000000" stroke="#000000" points="247.3739,-196.1172 256.0877,-197.1317 251.1869,-194.9086 255,-193.7 255,-193.7 255,-193.7 251.1869,-194.9086 253.9123,-190.2683 247.3739,-196.1172 247.3739,-196.1172"/>
<ellipse fill="none" stroke="#000000" cx="244.3235" cy="-197.0841" rx="3.2" ry="3.2"/>
</g>
<!-- common_product -->
<g id="node3" class="node">
<title>common_product</title>
<g id="a_node3"><a xlink:href="../../tables/common_product.html" xlink:title="common_product" target="_top">
<polygon fill="#ffffff" stroke="transparent" points="20.5,-38.2 20.5,-165.2 191.5,-165.2 191.5,-38.2 20.5,-38.2"/>
<polygon fill="#f5f5f5" stroke="transparent" points="21,-141.7 21,-164.7 192,-164.7 192,-141.7 21,-141.7"/>
<polygon fill="none" stroke="#000000" points="21,-141.7 21,-164.7 192,-164.7 192,-141.7 21,-141.7"/>
<text text-anchor="start" x="26" y="-150.3" font-family="Helvetica,sans-Serif" font-weight="bold" font-size="11.00" fill="#000000">common_product</text>
<text text-anchor="start" x="157.0437" y="-149.8" font-family="Helvetica,sans-Serif" font-size="11.00" fill="#000000">[table]</text>
<polygon fill="none" stroke="#000000" points="21,-119.7 21,-141.7 192,-141.7 192,-119.7 21,-119.7"/>
<image xlink:href="../../images/primaryKeys.png" width="11px" height="12px" preserveAspectRatio="xMinYMin meet" x="26" y="-136.7"/>
<text text-anchor="start" x="41" y="-126.8" font-family="Helvetica,sans-Serif" font-size="11.00" fill="#000000">ID</text>
<polygon fill="#ffffff" stroke="transparent" points="21,-97.7 21,-119.7 192,-119.7 192,-97.7 21,-97.7"/>
<polygon fill="none" stroke="#000000" points="21,-97.7 21,-119.7 192,-119.7 192,-97.7 21,-97.7"/>
<image xlink:href="../../images/foreignKeys.png" width="11px" height="12px" preserveAspectRatio="xMinYMin meet" x="26" y="-114.7"/>
<text text-anchor="start" x="41" y="-104.8" font-family="Helvetica,sans-Serif" font-size="11.00" fill="#000000">Common_ManufacturerFK</text>
<polygon fill="none" stroke="#000000" points="21,-75.7 21,-97.7 192,-97.7 192,-75.7 21,-75.7"/>
<image xlink:href="../../images/foreignKeys.png" width="11px" height="12px" preserveAspectRatio="xMinYMin meet" x="26" y="-92.7"/>
<text text-anchor="start" x="41" y="-82.8" font-family="Helvetica,sans-Serif" font-size="11.00" fill="#000000">Common_PackTypeID</text>
<polygon fill="none" stroke="#000000" points="21,-56.7 21,-75.7 192,-75.7 192,-56.7 21,-56.7"/>
<text text-anchor="start" x="24" y="-62.8" font-family="Helvetica,sans-Serif" font-size="11.00" fill="#000000">...</text>
<polygon fill="#ffffff" stroke="transparent" points="21,-37.7 21,-56.7 84,-56.7 84,-37.7 21,-37.7"/>
<polygon fill="none" stroke="#000000" points="21,-37.7 21,-56.7 84,-56.7 84,-37.7 21,-37.7"/>
<text text-anchor="start" x="24" y="-43.8" font-family="Helvetica,sans-Serif" font-size="11.00" fill="#000000">&lt; 1</text>
<polygon fill="#ffffff" stroke="transparent" points="84,-37.7 84,-56.7 149,-56.7 149,-37.7 84,-37.7"/>
<polygon fill="none" stroke="#000000" points="84,-37.7 84,-56.7 149,-56.7 149,-37.7 84,-37.7"/>
<text text-anchor="start" x="107.4956" y="-43.8" font-family="Helvetica,sans-Serif" font-size="11.00" fill="#000000">54 rows</text>
<polygon fill="#ffffff" stroke="transparent" points="149,-37.7 149,-56.7 192,-56.7 192,-37.7 149,-37.7"/>
<polygon fill="none" stroke="#000000" points="149,-37.7 149,-56.7 192,-56.7 192,-37.7 149,-37.7"/>
<text text-anchor="start" x="173.4053" y="-43.8" font-family="Helvetica,sans-Serif" font-size="11.00" fill="#000000">6 &gt;</text>
</a>
</g>
</g>
<!-- common_dealerproduct&#45;&gt;common_product -->
<g id="edge2" class="edge">
<title>common_dealerproduct:w&#45;&gt;common_product:e</title>
<path fill="none" stroke="#000000" d="M240.6951,-168.4828C221.8044,-158.8174 219.6654,-130.7 192,-130.7"/>
<polygon fill="#000000" stroke="#000000" points="247.195,-169.9446 254.2101,-175.2123 251.0975,-170.8223 255,-171.7 255,-171.7 255,-171.7 251.0975,-170.8223 255.7899,-168.1877 247.195,-169.9446 247.195,-169.9446"/>
<ellipse fill="none" stroke="#000000" cx="244.0729" cy="-169.2424" rx="3.2" ry="3.2"/>
</g>
</g>
</svg>
