<?xml version="1.0" encoding="UTF-8" standalone="no"?>
<!DOCTYPE svg PUBLIC "-//W3C//DTD SVG 1.1//EN"
 "http://www.w3.org/Graphics/SVG/1.1/DTD/svg11.dtd">
<!-- Generated by graphviz version 2.40.1 (20161225.0304)
 -->
<!-- Title: twoDegreesRelationshipsDiagram Pages: 1 -->
<svg width="689pt" height="542pt"
 viewBox="0.00 0.00 689.00 541.70" xmlns="http://www.w3.org/2000/svg" xmlns:xlink="http://www.w3.org/1999/xlink">
<g id="graph0" class="graph" transform="scale(1 1) rotate(0) translate(4 537.7)">
<title>twoDegreesRelationshipsDiagram</title>
<polygon fill="#ffffff" stroke="transparent" points="-4,4 -4,-537.7 685,-537.7 685,4 -4,4"/>
<text text-anchor="middle" x="72.4936" y="-7.3" font-family="Helvetica,sans-Serif" font-size="11.00" fill="#000000">Generated by SchemaSpy</text>
<!-- common_contact -->
<g id="node1" class="node">
<title>common_contact</title>
<g id="a_node1"><a xlink:href="../../tables/common_contact.html" xlink:title="common_contact" target="_top">
<polygon fill="#ffffff" stroke="transparent" points="326.5,-402.7 326.5,-529.7 477.5,-529.7 477.5,-402.7 326.5,-402.7"/>
<polygon fill="#f5f5f5" stroke="transparent" points="327,-506.2 327,-529.2 478,-529.2 478,-506.2 327,-506.2"/>
<polygon fill="none" stroke="#000000" points="327,-506.2 327,-529.2 478,-529.2 478,-506.2 327,-506.2"/>
<text text-anchor="start" x="332" y="-514.8" font-family="Helvetica,sans-Serif" font-weight="bold" font-size="11.00" fill="#000000">common_contact</text>
<text text-anchor="start" x="443.0437" y="-514.3" font-family="Helvetica,sans-Serif" font-size="11.00" fill="#000000">[table]</text>
<polygon fill="none" stroke="#000000" points="327,-484.2 327,-506.2 478,-506.2 478,-484.2 327,-484.2"/>
<image xlink:href="../../images/primaryKeys.png" width="11px" height="12px" preserveAspectRatio="xMinYMin meet" x="332" y="-501.2"/>
<text text-anchor="start" x="347" y="-491.3" font-family="Helvetica,sans-Serif" font-size="11.00" fill="#000000">ID</text>
<polygon fill="#ffffff" stroke="transparent" points="327,-462.2 327,-484.2 478,-484.2 478,-462.2 327,-462.2"/>
<polygon fill="none" stroke="#000000" points="327,-462.2 327,-484.2 478,-484.2 478,-462.2 327,-462.2"/>
<image xlink:href="../../images/foreignKeys.png" width="11px" height="12px" preserveAspectRatio="xMinYMin meet" x="332" y="-479.2"/>
<text text-anchor="start" x="347" y="-469.3" font-family="Helvetica,sans-Serif" font-size="11.00" fill="#000000">Common_DealerFK</text>
<polygon fill="#ffffff" stroke="transparent" points="327,-440.2 327,-462.2 478,-462.2 478,-440.2 327,-440.2"/>
<polygon fill="none" stroke="#000000" points="327,-440.2 327,-462.2 478,-462.2 478,-440.2 327,-440.2"/>
<image xlink:href="../../images/foreignKeys.png" width="11px" height="12px" preserveAspectRatio="xMinYMin meet" x="332" y="-457.2"/>
<text text-anchor="start" x="347" y="-447.3" font-family="Helvetica,sans-Serif" font-size="11.00" fill="#000000">Common_CustomerFK</text>
<polygon fill="none" stroke="#000000" points="327,-421.2 327,-440.2 478,-440.2 478,-421.2 327,-421.2"/>
<text text-anchor="start" x="330" y="-427.3" font-family="Helvetica,sans-Serif" font-size="11.00" fill="#000000">...</text>
<polygon fill="#ffffff" stroke="transparent" points="327,-402.2 327,-421.2 388,-421.2 388,-402.2 327,-402.2"/>
<polygon fill="none" stroke="#000000" points="327,-402.2 327,-421.2 388,-421.2 388,-402.2 327,-402.2"/>
<text text-anchor="start" x="330" y="-408.3" font-family="Helvetica,sans-Serif" font-size="11.00" fill="#000000">&lt; 2</text>
<polygon fill="#ffffff" stroke="transparent" points="388,-402.2 388,-421.2 446,-421.2 446,-402.2 388,-402.2"/>
<polygon fill="none" stroke="#000000" points="388,-402.2 388,-421.2 446,-421.2 446,-402.2 388,-402.2"/>
<text text-anchor="start" x="410.6105" y="-408.3" font-family="Helvetica,sans-Serif" font-size="11.00" fill="#000000">0 rows</text>
<polygon fill="#ffffff" stroke="transparent" points="446,-402.2 446,-421.2 478,-421.2 478,-402.2 446,-402.2"/>
<polygon fill="none" stroke="#000000" points="446,-402.2 446,-421.2 478,-421.2 478,-402.2 446,-402.2"/>
<text text-anchor="start" x="468.8862" y="-408.3" font-family="Helvetica,sans-Serif" font-size="11.00" fill="#000000"> &#160;</text>
</a>
</g>
</g>
<!-- common_customer -->
<g id="node2" class="node">
<title>common_customer</title>
<g id="a_node2"><a xlink:href="../../tables/common_customer.html" xlink:title="common_customer" target="_top">
<polygon fill="#ffffff" stroke="transparent" points="8,-38.2 8,-392.2 255,-392.2 255,-38.2 8,-38.2"/>
<polygon fill="#f5f5f5" stroke="transparent" points="10.5,-367.2 10.5,-390.2 253.5,-390.2 253.5,-367.2 10.5,-367.2"/>
<polygon fill="none" stroke="#000000" points="10.5,-367.2 10.5,-390.2 253.5,-390.2 253.5,-367.2 10.5,-367.2"/>
<text text-anchor="start" x="15.5" y="-375.8" font-family="Helvetica,sans-Serif" font-weight="bold" font-size="11.00" fill="#000000">common_customer</text>
<text text-anchor="start" x="218.5437" y="-375.3" font-family="Helvetica,sans-Serif" font-size="11.00" fill="#000000">[table]</text>
<polygon fill="none" stroke="#000000" points="10.5,-345.2 10.5,-367.2 142.5,-367.2 142.5,-345.2 10.5,-345.2"/>
<image xlink:href="../../images/primaryKeys.png" width="11px" height="12px" preserveAspectRatio="xMinYMin meet" x="15.5" y="-362.2"/>
<text text-anchor="start" x="30.5" y="-352.3" font-family="Helvetica,sans-Serif" font-size="11.00" fill="#000000">ID</text>
<polygon fill="none" stroke="#000000" points="142.5,-345.2 142.5,-367.2 253.5,-367.2 253.5,-345.2 142.5,-345.2"/>
<text text-anchor="start" x="145.5" y="-352.9" font-family="Helvetica,sans-Serif" font-size="11.00" fill="#000000">int[10]</text>
<polygon fill="none" stroke="#000000" points="10.5,-323.2 10.5,-345.2 142.5,-345.2 142.5,-323.2 10.5,-323.2"/>
<text text-anchor="start" x="30.5" y="-330.3" font-family="Helvetica,sans-Serif" font-size="11.00" fill="#000000">Active</text>
<polygon fill="none" stroke="#000000" points="142.5,-323.2 142.5,-345.2 253.5,-345.2 253.5,-323.2 142.5,-323.2"/>
<text text-anchor="start" x="145.5" y="-330.9" font-family="Helvetica,sans-Serif" font-size="11.00" fill="#000000">bit[1]</text>
<polygon fill="none" stroke="#000000" points="10.5,-301.2 10.5,-323.2 142.5,-323.2 142.5,-301.2 10.5,-301.2"/>
<text text-anchor="start" x="30.5" y="-308.3" font-family="Helvetica,sans-Serif" font-size="11.00" fill="#000000">User</text>
<polygon fill="none" stroke="#000000" points="142.5,-301.2 142.5,-323.2 253.5,-323.2 253.5,-301.2 142.5,-301.2"/>
<text text-anchor="start" x="145.1115" y="-308.9" font-family="Helvetica,sans-Serif" font-size="11.00" fill="#000000">longtext[2147483647]</text>
<polygon fill="none" stroke="#000000" points="10.5,-279.2 10.5,-301.2 142.5,-301.2 142.5,-279.2 10.5,-279.2"/>
<text text-anchor="start" x="30.5" y="-286.3" font-family="Helvetica,sans-Serif" font-size="11.00" fill="#000000">CD</text>
<polygon fill="none" stroke="#000000" points="142.5,-279.2 142.5,-301.2 253.5,-301.2 253.5,-279.2 142.5,-279.2"/>
<text text-anchor="start" x="145.5" y="-286.9" font-family="Helvetica,sans-Serif" font-size="11.00" fill="#000000">datetime[26]</text>
<polygon fill="none" stroke="#000000" points="10.5,-257.2 10.5,-279.2 142.5,-279.2 142.5,-257.2 10.5,-257.2"/>
<text text-anchor="start" x="30.5" y="-264.3" font-family="Helvetica,sans-Serif" font-size="11.00" fill="#000000">UD</text>
<polygon fill="none" stroke="#000000" points="142.5,-257.2 142.5,-279.2 253.5,-279.2 253.5,-257.2 142.5,-257.2"/>
<text text-anchor="start" x="145.5" y="-264.9" font-family="Helvetica,sans-Serif" font-size="11.00" fill="#000000">datetime[26]</text>
<polygon fill="none" stroke="#000000" points="10.5,-235.2 10.5,-257.2 142.5,-257.2 142.5,-235.2 10.5,-235.2"/>
<text text-anchor="start" x="30.5" y="-242.3" font-family="Helvetica,sans-Serif" font-size="11.00" fill="#000000">Remarks</text>
<polygon fill="none" stroke="#000000" points="142.5,-235.2 142.5,-257.2 253.5,-257.2 253.5,-235.2 142.5,-235.2"/>
<text text-anchor="start" x="145.1115" y="-242.9" font-family="Helvetica,sans-Serif" font-size="11.00" fill="#000000">longtext[2147483647]</text>
<polygon fill="none" stroke="#000000" points="10.5,-213.2 10.5,-235.2 142.5,-235.2 142.5,-213.2 10.5,-213.2"/>
<text text-anchor="start" x="30.5" y="-220.3" font-family="Helvetica,sans-Serif" font-size="11.00" fill="#000000">UserID</text>
<polygon fill="none" stroke="#000000" points="142.5,-213.2 142.5,-235.2 253.5,-235.2 253.5,-213.2 142.5,-213.2"/>
<text text-anchor="start" x="145.5" y="-220.9" font-family="Helvetica,sans-Serif" font-size="11.00" fill="#000000">int[10]</text>
<polygon fill="none" stroke="#000000" points="10.5,-191.2 10.5,-213.2 142.5,-213.2 142.5,-191.2 10.5,-191.2"/>
<text text-anchor="start" x="30.5" y="-198.3" font-family="Helvetica,sans-Serif" font-size="11.00" fill="#000000">Code</text>
<polygon fill="none" stroke="#000000" points="142.5,-191.2 142.5,-213.2 253.5,-213.2 253.5,-191.2 142.5,-191.2"/>
<text text-anchor="start" x="145.1115" y="-198.9" font-family="Helvetica,sans-Serif" font-size="11.00" fill="#000000">longtext[2147483647]</text>
<polygon fill="none" stroke="#000000" points="10.5,-169.2 10.5,-191.2 142.5,-191.2 142.5,-169.2 10.5,-169.2"/>
<text text-anchor="start" x="30.5" y="-176.3" font-family="Helvetica,sans-Serif" font-size="11.00" fill="#000000">Name</text>
<polygon fill="none" stroke="#000000" points="142.5,-169.2 142.5,-191.2 253.5,-191.2 253.5,-169.2 142.5,-169.2"/>
<text text-anchor="start" x="145.1115" y="-176.9" font-family="Helvetica,sans-Serif" font-size="11.00" fill="#000000">longtext[2147483647]</text>
<polygon fill="none" stroke="#000000" points="10.5,-147.2 10.5,-169.2 142.5,-169.2 142.5,-147.2 10.5,-147.2"/>
<text text-anchor="start" x="30.5" y="-154.3" font-family="Helvetica,sans-Serif" font-size="11.00" fill="#000000">Contact</text>
<polygon fill="none" stroke="#000000" points="142.5,-147.2 142.5,-169.2 253.5,-169.2 253.5,-147.2 142.5,-147.2"/>
<text text-anchor="start" x="145.1115" y="-154.9" font-family="Helvetica,sans-Serif" font-size="11.00" fill="#000000">longtext[2147483647]</text>
<polygon fill="none" stroke="#000000" points="10.5,-125.2 10.5,-147.2 142.5,-147.2 142.5,-125.2 10.5,-125.2"/>
<text text-anchor="start" x="30.5" y="-132.3" font-family="Helvetica,sans-Serif" font-size="11.00" fill="#000000">Email</text>
<polygon fill="none" stroke="#000000" points="142.5,-125.2 142.5,-147.2 253.5,-147.2 253.5,-125.2 142.5,-125.2"/>
<text text-anchor="start" x="145.1115" y="-132.9" font-family="Helvetica,sans-Serif" font-size="11.00" fill="#000000">longtext[2147483647]</text>
<polygon fill="none" stroke="#000000" points="10.5,-103.2 10.5,-125.2 142.5,-125.2 142.5,-103.2 10.5,-103.2"/>
<text text-anchor="start" x="30.5" y="-110.3" font-family="Helvetica,sans-Serif" font-size="11.00" fill="#000000">Address</text>
<polygon fill="none" stroke="#000000" points="142.5,-103.2 142.5,-125.2 253.5,-125.2 253.5,-103.2 142.5,-103.2"/>
<text text-anchor="start" x="145.1115" y="-110.9" font-family="Helvetica,sans-Serif" font-size="11.00" fill="#000000">longtext[2147483647]</text>
<polygon fill="none" stroke="#000000" points="10.5,-81.2 10.5,-103.2 142.5,-103.2 142.5,-81.2 10.5,-81.2"/>
<text text-anchor="start" x="30.5" y="-88.3" font-family="Helvetica,sans-Serif" font-size="11.00" fill="#000000">CustomerTypeID</text>
<polygon fill="none" stroke="#000000" points="142.5,-81.2 142.5,-103.2 253.5,-103.2 253.5,-81.2 142.5,-81.2"/>
<text text-anchor="start" x="145.5" y="-88.9" font-family="Helvetica,sans-Serif" font-size="11.00" fill="#000000">int[10]</text>
<polygon fill="none" stroke="#000000" points="10.5,-59.2 10.5,-81.2 142.5,-81.2 142.5,-59.2 10.5,-59.2"/>
<text text-anchor="start" x="30.5" y="-66.3" font-family="Helvetica,sans-Serif" font-size="11.00" fill="#000000">Common_DealerFK</text>
<polygon fill="none" stroke="#000000" points="142.5,-59.2 142.5,-81.2 253.5,-81.2 253.5,-59.2 142.5,-59.2"/>
<text text-anchor="start" x="145.5" y="-66.9" font-family="Helvetica,sans-Serif" font-size="11.00" fill="#000000">int[10]</text>
<polygon fill="#ffffff" stroke="transparent" points="10.5,-40.2 10.5,-59.2 61.5,-59.2 61.5,-40.2 10.5,-40.2"/>
<polygon fill="none" stroke="#000000" points="10.5,-40.2 10.5,-59.2 61.5,-59.2 61.5,-40.2 10.5,-40.2"/>
<text text-anchor="start" x="13.5" y="-46.3" font-family="Helvetica,sans-Serif" font-size="11.00" fill="#000000">&lt; 0</text>
<polygon fill="#ffffff" stroke="transparent" points="61.5,-40.2 61.5,-59.2 142.5,-59.2 142.5,-40.2 61.5,-40.2"/>
<polygon fill="none" stroke="#000000" points="61.5,-40.2 61.5,-59.2 142.5,-59.2 142.5,-40.2 61.5,-40.2"/>
<text text-anchor="start" x="94.8807" y="-46.3" font-family="Helvetica,sans-Serif" font-size="11.00" fill="#000000">147 rows</text>
<polygon fill="#ffffff" stroke="transparent" points="142.5,-40.2 142.5,-59.2 253.5,-59.2 253.5,-40.2 142.5,-40.2"/>
<polygon fill="none" stroke="#000000" points="142.5,-40.2 142.5,-59.2 253.5,-59.2 253.5,-40.2 142.5,-40.2"/>
<text text-anchor="start" x="234.9053" y="-46.3" font-family="Helvetica,sans-Serif" font-size="11.00" fill="#000000">2 &gt;</text>
<polygon fill="none" stroke="#000000" stroke-width="2" points="9,-39.2 9,-391.2 254,-391.2 254,-39.2 9,-39.2"/>
</a>
</g>
</g>
<!-- common_contact&#45;&gt;common_customer -->
<g id="edge1" class="edge">
<title>common_contact:w&#45;&gt;common_customer:e</title>
<path fill="none" stroke="#000000" d="M312.7974,-448.2527C279.6697,-432.2177 301.2535,-356.2 253.5,-356.2"/>
<polygon fill="#000000" stroke="#000000" points="319.1669,-449.5744 326.2685,-454.7249 323.0834,-450.3872 327,-451.2 327,-451.2 327,-451.2 323.0834,-450.3872 327.7315,-447.6751 319.1669,-449.5744 319.1669,-449.5744"/>
<ellipse fill="none" stroke="#000000" cx="316.0336" cy="-448.9242" rx="3.2" ry="3.2"/>
</g>
<!-- common_dealer -->
<g id="node3" class="node">
<title>common_dealer</title>
<g id="a_node3"><a xlink:href="../../tables/common_dealer.html" xlink:title="common_dealer" target="_top">
<polygon fill="#ffffff" stroke="transparent" points="66,-429.7 66,-490.7 197,-490.7 197,-429.7 66,-429.7"/>
<polygon fill="#f5f5f5" stroke="transparent" points="66.5,-467.2 66.5,-490.2 197.5,-490.2 197.5,-467.2 66.5,-467.2"/>
<polygon fill="none" stroke="#000000" points="66.5,-467.2 66.5,-490.2 197.5,-490.2 197.5,-467.2 66.5,-467.2"/>
<text text-anchor="start" x="71.5" y="-475.8" font-family="Helvetica,sans-Serif" font-weight="bold" font-size="11.00" fill="#000000">common_dealer</text>
<text text-anchor="start" x="163.0219" y="-475.3" font-family="Helvetica,sans-Serif" font-size="11.00" fill="#000000">[table]</text>
<polygon fill="none" stroke="#000000" points="66.5,-448.2 66.5,-467.2 197.5,-467.2 197.5,-448.2 66.5,-448.2"/>
<text text-anchor="start" x="69.5" y="-454.3" font-family="Helvetica,sans-Serif" font-size="11.00" fill="#000000">...</text>
<polygon fill="#ffffff" stroke="transparent" points="66.5,-429.2 66.5,-448.2 105.5,-448.2 105.5,-429.2 66.5,-429.2"/>
<polygon fill="none" stroke="#000000" points="66.5,-429.2 66.5,-448.2 105.5,-448.2 105.5,-429.2 66.5,-429.2"/>
<text text-anchor="start" x="69.5" y="-435.3" font-family="Helvetica,sans-Serif" font-size="11.00" fill="#000000"> &#160;</text>
<polygon fill="#ffffff" stroke="transparent" points="105.5,-429.2 105.5,-448.2 162.5,-448.2 162.5,-429.2 105.5,-429.2"/>
<polygon fill="none" stroke="#000000" points="105.5,-429.2 105.5,-448.2 162.5,-448.2 162.5,-429.2 105.5,-429.2"/>
<text text-anchor="start" x="120.9956" y="-435.3" font-family="Helvetica,sans-Serif" font-size="11.00" fill="#000000">62 rows</text>
<polygon fill="#ffffff" stroke="transparent" points="162.5,-429.2 162.5,-448.2 197.5,-448.2 197.5,-429.2 162.5,-429.2"/>
<polygon fill="none" stroke="#000000" points="162.5,-429.2 162.5,-448.2 197.5,-448.2 197.5,-429.2 162.5,-429.2"/>
<text text-anchor="start" x="178.9053" y="-435.3" font-family="Helvetica,sans-Serif" font-size="11.00" fill="#000000">4 &gt;</text>
</a>
</g>
</g>
<!-- common_contact&#45;&gt;common_dealer -->
<g id="edge2" class="edge">
<title>common_contact:w&#45;&gt;common_dealer:e</title>
<path fill="none" stroke="#000000" d="M312.3816,-472.8358C266.2195,-470.4542 250.2829,-457.2 197.5,-457.2"/>
<polygon fill="#000000" stroke="#000000" points="319.0025,-473.0007 326.9103,-476.7989 323.0012,-473.1003 327,-473.2 327,-473.2 327,-473.2 323.0012,-473.1003 327.0897,-469.6011 319.0025,-473.0007 319.0025,-473.0007"/>
<ellipse fill="none" stroke="#000000" cx="315.8035" cy="-472.9209" rx="3.2" ry="3.2"/>
</g>
<!-- order_sale -->
<g id="node4" class="node">
<title>order_sale</title>
<g id="a_node4"><a xlink:href="../../tables/order_sale.html" xlink:title="order_sale" target="_top">
<polygon fill="#ffffff" stroke="transparent" points="304,-254.7 304,-381.7 500,-381.7 500,-254.7 304,-254.7"/>
<polygon fill="#f5f5f5" stroke="transparent" points="304,-358.2 304,-381.2 500,-381.2 500,-358.2 304,-358.2"/>
<polygon fill="none" stroke="#000000" points="304,-358.2 304,-381.2 500,-381.2 500,-358.2 304,-358.2"/>
<text text-anchor="start" x="309" y="-366.8" font-family="Helvetica,sans-Serif" font-weight="bold" font-size="11.00" fill="#000000">order_sale</text>
<text text-anchor="start" x="465.0437" y="-366.3" font-family="Helvetica,sans-Serif" font-size="11.00" fill="#000000">[table]</text>
<polygon fill="none" stroke="#000000" points="304,-336.2 304,-358.2 500,-358.2 500,-336.2 304,-336.2"/>
<image xlink:href="../../images/primaryKeys.png" width="11px" height="12px" preserveAspectRatio="xMinYMin meet" x="309" y="-353.2"/>
<text text-anchor="start" x="324" y="-343.3" font-family="Helvetica,sans-Serif" font-size="11.00" fill="#000000">ID</text>
<polygon fill="#ffffff" stroke="transparent" points="304,-314.2 304,-336.2 500,-336.2 500,-314.2 304,-314.2"/>
<polygon fill="none" stroke="#000000" points="304,-314.2 304,-336.2 500,-336.2 500,-314.2 304,-314.2"/>
<image xlink:href="../../images/foreignKeys.png" width="11px" height="12px" preserveAspectRatio="xMinYMin meet" x="309" y="-331.2"/>
<text text-anchor="start" x="324" y="-321.3" font-family="Helvetica,sans-Serif" font-size="11.00" fill="#000000">Common_CustomerFK</text>
<polygon fill="#ffffff" stroke="transparent" points="304,-292.2 304,-314.2 500,-314.2 500,-292.2 304,-292.2"/>
<polygon fill="none" stroke="#000000" points="304,-292.2 304,-314.2 500,-314.2 500,-292.2 304,-292.2"/>
<image xlink:href="../../images/foreignKeys.png" width="11px" height="12px" preserveAspectRatio="xMinYMin meet" x="309" y="-309.2"/>
<text text-anchor="start" x="324" y="-299.3" font-family="Helvetica,sans-Serif" font-size="11.00" fill="#000000">Common_Dealer2FK</text>
<polygon fill="none" stroke="#000000" points="304,-273.2 304,-292.2 500,-292.2 500,-273.2 304,-273.2"/>
<text text-anchor="start" x="307" y="-279.3" font-family="Helvetica,sans-Serif" font-size="11.00" fill="#000000">...</text>
<polygon fill="#ffffff" stroke="transparent" points="304,-254.2 304,-273.2 377,-273.2 377,-254.2 304,-254.2"/>
<polygon fill="none" stroke="#000000" points="304,-254.2 304,-273.2 377,-273.2 377,-254.2 304,-254.2"/>
<text text-anchor="start" x="307" y="-260.3" font-family="Helvetica,sans-Serif" font-size="11.00" fill="#000000">&lt; 2</text>
<polygon fill="#ffffff" stroke="transparent" points="377,-254.2 377,-273.2 453,-273.2 453,-254.2 377,-254.2"/>
<polygon fill="none" stroke="#000000" points="377,-254.2 377,-273.2 453,-273.2 453,-254.2 377,-254.2"/>
<text text-anchor="start" x="405.3807" y="-260.3" font-family="Helvetica,sans-Serif" font-size="11.00" fill="#000000">389 rows</text>
<polygon fill="#ffffff" stroke="transparent" points="453,-254.2 453,-273.2 500,-273.2 500,-254.2 453,-254.2"/>
<polygon fill="none" stroke="#000000" points="453,-254.2 453,-273.2 500,-273.2 500,-254.2 453,-254.2"/>
<text text-anchor="start" x="481.4053" y="-260.3" font-family="Helvetica,sans-Serif" font-size="11.00" fill="#000000">1 &gt;</text>
</a>
</g>
</g>
<!-- order_sale&#45;&gt;common_customer -->
<g id="edge3" class="edge">
<title>order_sale:w&#45;&gt;common_customer:e</title>
<path fill="none" stroke="#000000" d="M289.8267,-329.2527C277.1849,-337.6556 273.8692,-356.2 253.5,-356.2"/>
<polygon fill="#000000" stroke="#000000" points="296.3083,-327.3994 304.9897,-328.6613 300.1541,-326.2997 304,-325.2 304,-325.2 304,-325.2 300.1541,-326.2997 303.0103,-321.7387 296.3083,-327.3994 296.3083,-327.3994"/>
<ellipse fill="none" stroke="#000000" cx="293.2316" cy="-328.2792" rx="3.2" ry="3.2"/>
</g>
<!-- order_sale&#45;&gt;common_dealer -->
<g id="edge4" class="edge">
<title>order_sale:w&#45;&gt;common_dealer:e</title>
<path fill="none" stroke="#000000" d="M289.616,-305.911C263.8486,-318.1794 287.939,-369.3678 263,-403.2 240.6136,-433.5695 235.2287,-457.2 197.5,-457.2"/>
<polygon fill="#000000" stroke="#000000" points="296.1384,-304.6817 304.6668,-306.7377 300.0692,-303.9409 304,-303.2 304,-303.2 304,-303.2 300.0692,-303.9409 303.3332,-299.6623 296.1384,-304.6817 296.1384,-304.6817"/>
<ellipse fill="none" stroke="#000000" cx="292.9938" cy="-305.2744" rx="3.2" ry="3.2"/>
</g>
<!-- order_saleitem -->
<g id="node5" class="node">
<title>order_saleitem</title>
<g id="a_node5"><a xlink:href="../../tables/order_saleitem.html" xlink:title="order_saleitem" target="_top">
<polygon fill="#ffffff" stroke="transparent" points="549,-319.7 549,-380.7 673,-380.7 673,-319.7 549,-319.7"/>
<polygon fill="#f5f5f5" stroke="transparent" points="549,-357.2 549,-380.2 673,-380.2 673,-357.2 549,-357.2"/>
<polygon fill="none" stroke="#000000" points="549,-357.2 549,-380.2 673,-380.2 673,-357.2 549,-357.2"/>
<text text-anchor="start" x="554" y="-365.8" font-family="Helvetica,sans-Serif" font-weight="bold" font-size="11.00" fill="#000000">order_saleitem</text>
<text text-anchor="start" x="638.5219" y="-365.3" font-family="Helvetica,sans-Serif" font-size="11.00" fill="#000000">[table]</text>
<polygon fill="none" stroke="#000000" points="549,-338.2 549,-357.2 673,-357.2 673,-338.2 549,-338.2"/>
<text text-anchor="start" x="552" y="-344.3" font-family="Helvetica,sans-Serif" font-size="11.00" fill="#000000">...</text>
<polygon fill="#ffffff" stroke="transparent" points="549,-319.2 549,-338.2 590,-338.2 590,-319.2 549,-319.2"/>
<polygon fill="none" stroke="#000000" points="549,-319.2 549,-338.2 590,-338.2 590,-319.2 549,-319.2"/>
<text text-anchor="start" x="552" y="-325.3" font-family="Helvetica,sans-Serif" font-size="11.00" fill="#000000">&lt; 2</text>
<polygon fill="#ffffff" stroke="transparent" points="590,-319.2 590,-338.2 650,-338.2 650,-319.2 590,-319.2"/>
<polygon fill="none" stroke="#000000" points="590,-319.2 590,-338.2 650,-338.2 650,-319.2 590,-319.2"/>
<text text-anchor="start" x="602.3807" y="-325.3" font-family="Helvetica,sans-Serif" font-size="11.00" fill="#000000">659 rows</text>
<polygon fill="#ffffff" stroke="transparent" points="650,-319.2 650,-338.2 673,-338.2 673,-319.2 650,-319.2"/>
<polygon fill="none" stroke="#000000" points="650,-319.2 650,-338.2 673,-338.2 673,-319.2 650,-319.2"/>
<text text-anchor="start" x="663.8862" y="-325.3" font-family="Helvetica,sans-Serif" font-size="11.00" fill="#000000"> &#160;</text>
</a>
</g>
</g>
<!-- order_saleitem&#45;&gt;order_sale -->
<g id="edge5" class="edge">
<title>order_saleitem:w&#45;&gt;order_sale:e</title>
<path fill="none" stroke="#000000" d="M534.4909,-347.2C523.1774,-347.2 515.9931,-347.2 500,-347.2"/>
<polygon fill="#000000" stroke="#000000" points="541,-347.2001 549,-350.8 545,-347.2 549,-347.2 549,-347.2 549,-347.2 545,-347.2 549,-343.6 541,-347.2001 541,-347.2001"/>
<ellipse fill="none" stroke="#000000" cx="537.8" cy="-347.2001" rx="3.2" ry="3.2"/>
</g>
</g>
</svg>
