<?xml version="1.0" encoding="UTF-8" standalone="no"?>
<!DOCTYPE svg PUBLIC "-//W3C//DTD SVG 1.1//EN"
 "http://www.w3.org/Graphics/SVG/1.1/DTD/svg11.dtd">
<!-- Generated by graphviz version 2.40.1 (20161225.0304)
 -->
<!-- Title: twoDegreesRelationshipsDiagramImplied Pages: 1 -->
<svg width="715pt" height="572pt"
 viewBox="0.00 0.00 715.00 571.70" xmlns="http://www.w3.org/2000/svg" xmlns:xlink="http://www.w3.org/1999/xlink">
<g id="graph0" class="graph" transform="scale(1 1) rotate(0) translate(4 567.7)">
<title>twoDegreesRelationshipsDiagramImplied</title>
<polygon fill="#ffffff" stroke="transparent" points="-4,4 -4,-567.7 711,-567.7 711,4 -4,4"/>
<text text-anchor="middle" x="72.4936" y="-7.3" font-family="Helvetica,sans-Serif" font-size="11.00" fill="#000000">Generated by SchemaSpy</text>
<!-- common_dealerproduct -->
<g id="node1" class="node">
<title>common_dealerproduct</title>
<g id="a_node1"><a xlink:href="../../tables/common_dealerproduct.html" xlink:title="common_dealerproduct" target="_top">
<polygon fill="#ffffff" stroke="transparent" points="524,-498.7 524,-559.7 699,-559.7 699,-498.7 524,-498.7"/>
<polygon fill="#f5f5f5" stroke="transparent" points="524.5,-536.2 524.5,-559.2 699.5,-559.2 699.5,-536.2 524.5,-536.2"/>
<polygon fill="none" stroke="#000000" points="524.5,-536.2 524.5,-559.2 699.5,-559.2 699.5,-536.2 524.5,-536.2"/>
<text text-anchor="start" x="529.5" y="-544.8" font-family="Helvetica,sans-Serif" font-weight="bold" font-size="11.00" fill="#000000">common_dealerproduct</text>
<text text-anchor="start" x="665.0219" y="-544.3" font-family="Helvetica,sans-Serif" font-size="11.00" fill="#000000">[table]</text>
<polygon fill="none" stroke="#000000" points="524.5,-517.2 524.5,-536.2 699.5,-536.2 699.5,-517.2 524.5,-517.2"/>
<text text-anchor="start" x="527.5" y="-523.3" font-family="Helvetica,sans-Serif" font-size="11.00" fill="#000000">...</text>
<polygon fill="#ffffff" stroke="transparent" points="524.5,-498.2 524.5,-517.2 591.5,-517.2 591.5,-498.2 524.5,-498.2"/>
<polygon fill="none" stroke="#000000" points="524.5,-498.2 524.5,-517.2 591.5,-517.2 591.5,-498.2 524.5,-498.2"/>
<text text-anchor="start" x="527.5" y="-504.3" font-family="Helvetica,sans-Serif" font-size="11.00" fill="#000000">&lt; 2</text>
<polygon fill="#ffffff" stroke="transparent" points="591.5,-498.2 591.5,-517.2 664.5,-517.2 664.5,-498.2 591.5,-498.2"/>
<polygon fill="none" stroke="#000000" points="591.5,-498.2 591.5,-517.2 664.5,-517.2 664.5,-498.2 591.5,-498.2"/>
<text text-anchor="start" x="616.8807" y="-504.3" font-family="Helvetica,sans-Serif" font-size="11.00" fill="#000000">427 rows</text>
<polygon fill="#ffffff" stroke="transparent" points="664.5,-498.2 664.5,-517.2 699.5,-517.2 699.5,-498.2 664.5,-498.2"/>
<polygon fill="none" stroke="#000000" points="664.5,-498.2 664.5,-517.2 699.5,-517.2 699.5,-498.2 664.5,-498.2"/>
<text text-anchor="start" x="690.3862" y="-504.3" font-family="Helvetica,sans-Serif" font-size="11.00" fill="#000000"> &#160;</text>
</a>
</g>
</g>
<!-- common_product -->
<g id="node2" class="node">
<title>common_product</title>
<g id="a_node2"><a xlink:href="../../tables/common_product.html" xlink:title="common_product" target="_top">
<polygon fill="#ffffff" stroke="transparent" points="304,-228.7 304,-355.7 475,-355.7 475,-228.7 304,-228.7"/>
<polygon fill="#f5f5f5" stroke="transparent" points="304.5,-332.2 304.5,-355.2 475.5,-355.2 475.5,-332.2 304.5,-332.2"/>
<polygon fill="none" stroke="#000000" points="304.5,-332.2 304.5,-355.2 475.5,-355.2 475.5,-332.2 304.5,-332.2"/>
<text text-anchor="start" x="309.5" y="-340.8" font-family="Helvetica,sans-Serif" font-weight="bold" font-size="11.00" fill="#000000">common_product</text>
<text text-anchor="start" x="440.5437" y="-340.3" font-family="Helvetica,sans-Serif" font-size="11.00" fill="#000000">[table]</text>
<polygon fill="none" stroke="#000000" points="304.5,-310.2 304.5,-332.2 475.5,-332.2 475.5,-310.2 304.5,-310.2"/>
<image xlink:href="../../images/primaryKeys.png" width="11px" height="12px" preserveAspectRatio="xMinYMin meet" x="309.5" y="-327.2"/>
<text text-anchor="start" x="324.5" y="-317.3" font-family="Helvetica,sans-Serif" font-size="11.00" fill="#000000">ID</text>
<polygon fill="#ffffff" stroke="transparent" points="304.5,-288.2 304.5,-310.2 475.5,-310.2 475.5,-288.2 304.5,-288.2"/>
<polygon fill="none" stroke="#000000" points="304.5,-288.2 304.5,-310.2 475.5,-310.2 475.5,-288.2 304.5,-288.2"/>
<image xlink:href="../../images/foreignKeys.png" width="11px" height="12px" preserveAspectRatio="xMinYMin meet" x="309.5" y="-305.2"/>
<text text-anchor="start" x="324.5" y="-295.3" font-family="Helvetica,sans-Serif" font-size="11.00" fill="#000000">Common_ManufacturerFK</text>
<polygon fill="none" stroke="#000000" points="304.5,-266.2 304.5,-288.2 475.5,-288.2 475.5,-266.2 304.5,-266.2"/>
<image xlink:href="../../images/foreignKeys.png" width="11px" height="12px" preserveAspectRatio="xMinYMin meet" x="309.5" y="-283.2"/>
<text text-anchor="start" x="324.5" y="-273.3" font-family="Helvetica,sans-Serif" font-size="11.00" fill="#000000">Common_PackTypeID</text>
<polygon fill="none" stroke="#000000" points="304.5,-247.2 304.5,-266.2 475.5,-266.2 475.5,-247.2 304.5,-247.2"/>
<text text-anchor="start" x="307.5" y="-253.3" font-family="Helvetica,sans-Serif" font-size="11.00" fill="#000000">...</text>
<polygon fill="#ffffff" stroke="transparent" points="304.5,-228.2 304.5,-247.2 367.5,-247.2 367.5,-228.2 304.5,-228.2"/>
<polygon fill="none" stroke="#000000" points="304.5,-228.2 304.5,-247.2 367.5,-247.2 367.5,-228.2 304.5,-228.2"/>
<text text-anchor="start" x="307.5" y="-234.3" font-family="Helvetica,sans-Serif" font-size="11.00" fill="#000000">&lt; 2</text>
<polygon fill="#ffffff" stroke="transparent" points="367.5,-228.2 367.5,-247.2 432.5,-247.2 432.5,-228.2 367.5,-228.2"/>
<polygon fill="none" stroke="#000000" points="367.5,-228.2 367.5,-247.2 432.5,-247.2 432.5,-228.2 367.5,-228.2"/>
<text text-anchor="start" x="390.9956" y="-234.3" font-family="Helvetica,sans-Serif" font-size="11.00" fill="#000000">54 rows</text>
<polygon fill="#ffffff" stroke="transparent" points="432.5,-228.2 432.5,-247.2 475.5,-247.2 475.5,-228.2 432.5,-228.2"/>
<polygon fill="none" stroke="#000000" points="432.5,-228.2 432.5,-247.2 475.5,-247.2 475.5,-228.2 432.5,-228.2"/>
<text text-anchor="start" x="456.9053" y="-234.3" font-family="Helvetica,sans-Serif" font-size="11.00" fill="#000000">6 &gt;</text>
</a>
</g>
</g>
<!-- common_dealerproduct&#45;&gt;common_product -->
<g id="edge1" class="edge">
<title>common_dealerproduct:w&#45;&gt;common_product:e</title>
<path fill="none" stroke="#000000" d="M509.9332,-524.0365C446.7257,-502.1273 563.5058,-321.2 475.5,-321.2"/>
<polygon fill="#000000" stroke="#000000" points="516.5868,-525.0246 523.9711,-529.7609 520.5434,-525.6123 524.5,-526.2 524.5,-526.2 524.5,-526.2 520.5434,-525.6123 525.0289,-522.6391 516.5868,-525.0246 516.5868,-525.0246"/>
<ellipse fill="none" stroke="#000000" cx="513.4215" cy="-524.5545" rx="3.2" ry="3.2"/>
</g>
<!-- common_manufacturer -->
<g id="node3" class="node">
<title>common_manufacturer</title>
<g id="a_node3"><a xlink:href="../../tables/common_manufacturer.html" xlink:title="common_manufacturer" target="_top">
<polygon fill="#ffffff" stroke="transparent" points="45.5,-303.7 45.5,-364.7 217.5,-364.7 217.5,-303.7 45.5,-303.7"/>
<polygon fill="#f5f5f5" stroke="transparent" points="45.5,-341.2 45.5,-364.2 217.5,-364.2 217.5,-341.2 45.5,-341.2"/>
<polygon fill="none" stroke="#000000" points="45.5,-341.2 45.5,-364.2 217.5,-364.2 217.5,-341.2 45.5,-341.2"/>
<text text-anchor="start" x="50.5" y="-349.8" font-family="Helvetica,sans-Serif" font-weight="bold" font-size="11.00" fill="#000000">common_manufacturer</text>
<text text-anchor="start" x="183.0219" y="-349.3" font-family="Helvetica,sans-Serif" font-size="11.00" fill="#000000">[table]</text>
<polygon fill="none" stroke="#000000" points="45.5,-322.2 45.5,-341.2 217.5,-341.2 217.5,-322.2 45.5,-322.2"/>
<text text-anchor="start" x="48.5" y="-328.3" font-family="Helvetica,sans-Serif" font-size="11.00" fill="#000000">...</text>
<polygon fill="#ffffff" stroke="transparent" points="45.5,-303.2 45.5,-322.2 104.5,-322.2 104.5,-303.2 45.5,-303.2"/>
<polygon fill="none" stroke="#000000" points="45.5,-303.2 45.5,-322.2 104.5,-322.2 104.5,-303.2 45.5,-303.2"/>
<text text-anchor="start" x="48.5" y="-309.3" font-family="Helvetica,sans-Serif" font-size="11.00" fill="#000000"> &#160;</text>
<polygon fill="#ffffff" stroke="transparent" points="104.5,-303.2 104.5,-322.2 172.5,-322.2 172.5,-303.2 104.5,-303.2"/>
<polygon fill="none" stroke="#000000" points="104.5,-303.2 104.5,-322.2 172.5,-322.2 172.5,-303.2 104.5,-303.2"/>
<text text-anchor="start" x="130.9956" y="-309.3" font-family="Helvetica,sans-Serif" font-size="11.00" fill="#000000">33 rows</text>
<polygon fill="#ffffff" stroke="transparent" points="172.5,-303.2 172.5,-322.2 217.5,-322.2 217.5,-303.2 172.5,-303.2"/>
<polygon fill="none" stroke="#000000" points="172.5,-303.2 172.5,-322.2 217.5,-322.2 217.5,-303.2 172.5,-303.2"/>
<text text-anchor="start" x="198.9053" y="-309.3" font-family="Helvetica,sans-Serif" font-size="11.00" fill="#000000">1 &gt;</text>
</a>
</g>
</g>
<!-- common_product&#45;&gt;common_manufacturer -->
<g id="edge2" class="edge">
<title>common_product:w&#45;&gt;common_manufacturer:e</title>
<path fill="none" stroke="#000000" d="M289.8498,-300.7434C261.4329,-307.1355 253.2275,-331.2 217.5,-331.2"/>
<polygon fill="#000000" stroke="#000000" points="296.544,-300.0382 304.8772,-302.7802 300.522,-299.6191 304.5,-299.2 304.5,-299.2 304.5,-299.2 300.522,-299.6191 304.1228,-295.6198 296.544,-300.0382 296.544,-300.0382"/>
<ellipse fill="none" stroke="#000000" cx="293.3616" cy="-300.3735" rx="3.2" ry="3.2"/>
</g>
<!-- common_packtype -->
<g id="node4" class="node">
<title>common_packtype</title>
<g id="a_node4"><a xlink:href="../../tables/common_packtype.html" xlink:title="common_packtype" target="_top">
<polygon fill="#ffffff" stroke="transparent" points="8,-38.2 8,-282.2 255,-282.2 255,-38.2 8,-38.2"/>
<polygon fill="#f5f5f5" stroke="transparent" points="10.5,-257.2 10.5,-280.2 253.5,-280.2 253.5,-257.2 10.5,-257.2"/>
<polygon fill="none" stroke="#000000" points="10.5,-257.2 10.5,-280.2 253.5,-280.2 253.5,-257.2 10.5,-257.2"/>
<text text-anchor="start" x="15.5" y="-265.8" font-family="Helvetica,sans-Serif" font-weight="bold" font-size="11.00" fill="#000000">common_packtype</text>
<text text-anchor="start" x="218.5437" y="-265.3" font-family="Helvetica,sans-Serif" font-size="11.00" fill="#000000">[table]</text>
<polygon fill="none" stroke="#000000" points="10.5,-235.2 10.5,-257.2 142.5,-257.2 142.5,-235.2 10.5,-235.2"/>
<image xlink:href="../../images/primaryKeys.png" width="11px" height="12px" preserveAspectRatio="xMinYMin meet" x="15.5" y="-252.2"/>
<text text-anchor="start" x="30.5" y="-242.3" font-family="Helvetica,sans-Serif" font-size="11.00" fill="#000000">ID</text>
<polygon fill="none" stroke="#000000" points="142.5,-235.2 142.5,-257.2 253.5,-257.2 253.5,-235.2 142.5,-235.2"/>
<text text-anchor="start" x="145.5" y="-242.9" font-family="Helvetica,sans-Serif" font-size="11.00" fill="#000000">int[10]</text>
<polygon fill="none" stroke="#000000" points="10.5,-213.2 10.5,-235.2 142.5,-235.2 142.5,-213.2 10.5,-213.2"/>
<text text-anchor="start" x="30.5" y="-220.3" font-family="Helvetica,sans-Serif" font-size="11.00" fill="#000000">Active</text>
<polygon fill="none" stroke="#000000" points="142.5,-213.2 142.5,-235.2 253.5,-235.2 253.5,-213.2 142.5,-213.2"/>
<text text-anchor="start" x="145.5" y="-220.9" font-family="Helvetica,sans-Serif" font-size="11.00" fill="#000000">bit[1]</text>
<polygon fill="none" stroke="#000000" points="10.5,-191.2 10.5,-213.2 142.5,-213.2 142.5,-191.2 10.5,-191.2"/>
<text text-anchor="start" x="30.5" y="-198.3" font-family="Helvetica,sans-Serif" font-size="11.00" fill="#000000">User</text>
<polygon fill="none" stroke="#000000" points="142.5,-191.2 142.5,-213.2 253.5,-213.2 253.5,-191.2 142.5,-191.2"/>
<text text-anchor="start" x="145.1115" y="-198.9" font-family="Helvetica,sans-Serif" font-size="11.00" fill="#000000">longtext[2147483647]</text>
<polygon fill="none" stroke="#000000" points="10.5,-169.2 10.5,-191.2 142.5,-191.2 142.5,-169.2 10.5,-169.2"/>
<text text-anchor="start" x="30.5" y="-176.3" font-family="Helvetica,sans-Serif" font-size="11.00" fill="#000000">CD</text>
<polygon fill="none" stroke="#000000" points="142.5,-169.2 142.5,-191.2 253.5,-191.2 253.5,-169.2 142.5,-169.2"/>
<text text-anchor="start" x="145.5" y="-176.9" font-family="Helvetica,sans-Serif" font-size="11.00" fill="#000000">datetime[26]</text>
<polygon fill="none" stroke="#000000" points="10.5,-147.2 10.5,-169.2 142.5,-169.2 142.5,-147.2 10.5,-147.2"/>
<text text-anchor="start" x="30.5" y="-154.3" font-family="Helvetica,sans-Serif" font-size="11.00" fill="#000000">UD</text>
<polygon fill="none" stroke="#000000" points="142.5,-147.2 142.5,-169.2 253.5,-169.2 253.5,-147.2 142.5,-147.2"/>
<text text-anchor="start" x="145.5" y="-154.9" font-family="Helvetica,sans-Serif" font-size="11.00" fill="#000000">datetime[26]</text>
<polygon fill="none" stroke="#000000" points="10.5,-125.2 10.5,-147.2 142.5,-147.2 142.5,-125.2 10.5,-125.2"/>
<text text-anchor="start" x="30.5" y="-132.3" font-family="Helvetica,sans-Serif" font-size="11.00" fill="#000000">Remarks</text>
<polygon fill="none" stroke="#000000" points="142.5,-125.2 142.5,-147.2 253.5,-147.2 253.5,-125.2 142.5,-125.2"/>
<text text-anchor="start" x="145.1115" y="-132.9" font-family="Helvetica,sans-Serif" font-size="11.00" fill="#000000">longtext[2147483647]</text>
<polygon fill="none" stroke="#000000" points="10.5,-103.2 10.5,-125.2 142.5,-125.2 142.5,-103.2 10.5,-103.2"/>
<text text-anchor="start" x="30.5" y="-110.3" font-family="Helvetica,sans-Serif" font-size="11.00" fill="#000000">UserID</text>
<polygon fill="none" stroke="#000000" points="142.5,-103.2 142.5,-125.2 253.5,-125.2 253.5,-103.2 142.5,-103.2"/>
<text text-anchor="start" x="145.5" y="-110.9" font-family="Helvetica,sans-Serif" font-size="11.00" fill="#000000">int[10]</text>
<polygon fill="none" stroke="#000000" points="10.5,-81.2 10.5,-103.2 142.5,-103.2 142.5,-81.2 10.5,-81.2"/>
<text text-anchor="start" x="30.5" y="-88.3" font-family="Helvetica,sans-Serif" font-size="11.00" fill="#000000">Common_DealerFK</text>
<polygon fill="none" stroke="#000000" points="142.5,-81.2 142.5,-103.2 253.5,-103.2 253.5,-81.2 142.5,-81.2"/>
<text text-anchor="start" x="145.5" y="-88.9" font-family="Helvetica,sans-Serif" font-size="11.00" fill="#000000">int[10]</text>
<polygon fill="none" stroke="#000000" points="10.5,-59.2 10.5,-81.2 142.5,-81.2 142.5,-59.2 10.5,-59.2"/>
<text text-anchor="start" x="30.5" y="-66.3" font-family="Helvetica,sans-Serif" font-size="11.00" fill="#000000">Name</text>
<polygon fill="none" stroke="#000000" points="142.5,-59.2 142.5,-81.2 253.5,-81.2 253.5,-59.2 142.5,-59.2"/>
<text text-anchor="start" x="145.1115" y="-66.9" font-family="Helvetica,sans-Serif" font-size="11.00" fill="#000000">longtext[2147483647]</text>
<polygon fill="#ffffff" stroke="transparent" points="10.5,-40.2 10.5,-59.2 64.5,-59.2 64.5,-40.2 10.5,-40.2"/>
<polygon fill="none" stroke="#000000" points="10.5,-40.2 10.5,-59.2 64.5,-59.2 64.5,-40.2 10.5,-40.2"/>
<text text-anchor="start" x="13.5" y="-46.3" font-family="Helvetica,sans-Serif" font-size="11.00" fill="#000000">&lt; 0</text>
<polygon fill="#ffffff" stroke="transparent" points="64.5,-40.2 64.5,-59.2 142.5,-59.2 142.5,-40.2 64.5,-40.2"/>
<polygon fill="none" stroke="#000000" points="64.5,-40.2 64.5,-59.2 142.5,-59.2 142.5,-40.2 64.5,-40.2"/>
<text text-anchor="start" x="100.9956" y="-46.3" font-family="Helvetica,sans-Serif" font-size="11.00" fill="#000000">26 rows</text>
<polygon fill="#ffffff" stroke="transparent" points="142.5,-40.2 142.5,-59.2 253.5,-59.2 253.5,-40.2 142.5,-40.2"/>
<polygon fill="none" stroke="#000000" points="142.5,-40.2 142.5,-59.2 253.5,-59.2 253.5,-40.2 142.5,-40.2"/>
<text text-anchor="start" x="234.9053" y="-46.3" font-family="Helvetica,sans-Serif" font-size="11.00" fill="#000000">1 &gt;</text>
<polygon fill="none" stroke="#000000" stroke-width="2" points="9,-39.2 9,-281.2 254,-281.2 254,-39.2 9,-39.2"/>
</a>
</g>
</g>
<!-- common_product&#45;&gt;common_packtype -->
<g id="edge3" class="edge">
<title>common_product:w&#45;&gt;common_packtype:e</title>
<path fill="none" stroke="#000000" stroke-dasharray="5,2" d="M290.5967,-273.3988C277.5044,-265.1209 274.2231,-246.2 253.5,-246.2"/>
<polygon fill="#000000" stroke="#000000" points="296.7832,-275.0902 303.5506,-280.6726 300.6416,-276.1451 304.5,-277.2 304.5,-277.2 304.5,-277.2 300.6416,-276.1451 305.4494,-273.7274 296.7832,-275.0902 296.7832,-275.0902"/>
<ellipse fill="none" stroke="#000000" cx="293.6965" cy="-274.2462" rx="3.2" ry="3.2"/>
</g>
<!-- order_bookingitem -->
<g id="node5" class="node">
<title>order_bookingitem</title>
<g id="a_node5"><a xlink:href="../../tables/order_bookingitem.html" xlink:title="order_bookingitem" target="_top">
<polygon fill="#ffffff" stroke="transparent" points="538,-416.7 538,-477.7 685,-477.7 685,-416.7 538,-416.7"/>
<polygon fill="#f5f5f5" stroke="transparent" points="538.5,-454.2 538.5,-477.2 685.5,-477.2 685.5,-454.2 538.5,-454.2"/>
<polygon fill="none" stroke="#000000" points="538.5,-454.2 538.5,-477.2 685.5,-477.2 685.5,-454.2 538.5,-454.2"/>
<text text-anchor="start" x="543.5" y="-462.8" font-family="Helvetica,sans-Serif" font-weight="bold" font-size="11.00" fill="#000000">order_bookingitem</text>
<text text-anchor="start" x="651.0219" y="-462.3" font-family="Helvetica,sans-Serif" font-size="11.00" fill="#000000">[table]</text>
<polygon fill="none" stroke="#000000" points="538.5,-435.2 538.5,-454.2 685.5,-454.2 685.5,-435.2 538.5,-435.2"/>
<text text-anchor="start" x="541.5" y="-441.3" font-family="Helvetica,sans-Serif" font-size="11.00" fill="#000000">...</text>
<polygon fill="#ffffff" stroke="transparent" points="538.5,-416.2 538.5,-435.2 594.5,-435.2 594.5,-416.2 538.5,-416.2"/>
<polygon fill="none" stroke="#000000" points="538.5,-416.2 538.5,-435.2 594.5,-435.2 594.5,-416.2 538.5,-416.2"/>
<text text-anchor="start" x="541.5" y="-422.3" font-family="Helvetica,sans-Serif" font-size="11.00" fill="#000000">&lt; 2</text>
<polygon fill="#ffffff" stroke="transparent" points="594.5,-416.2 594.5,-435.2 655.5,-435.2 655.5,-416.2 594.5,-416.2"/>
<polygon fill="none" stroke="#000000" points="594.5,-416.2 594.5,-435.2 655.5,-435.2 655.5,-416.2 594.5,-416.2"/>
<text text-anchor="start" x="613.9956" y="-422.3" font-family="Helvetica,sans-Serif" font-size="11.00" fill="#000000">62 rows</text>
<polygon fill="#ffffff" stroke="transparent" points="655.5,-416.2 655.5,-435.2 685.5,-435.2 685.5,-416.2 655.5,-416.2"/>
<polygon fill="none" stroke="#000000" points="655.5,-416.2 655.5,-435.2 685.5,-435.2 685.5,-416.2 655.5,-416.2"/>
<text text-anchor="start" x="676.3862" y="-422.3" font-family="Helvetica,sans-Serif" font-size="11.00" fill="#000000"> &#160;</text>
</a>
</g>
</g>
<!-- order_bookingitem&#45;&gt;common_product -->
<g id="edge4" class="edge">
<title>order_bookingitem:w&#45;&gt;common_product:e</title>
<path fill="none" stroke="#000000" d="M524.223,-441.1595C487.2341,-422.2186 531.1621,-321.2 475.5,-321.2"/>
<polygon fill="#000000" stroke="#000000" points="530.6755,-442.5336 537.7501,-447.721 534.5877,-443.3668 538.5,-444.2 538.5,-444.2 538.5,-444.2 534.5877,-443.3668 539.2499,-440.679 530.6755,-442.5336 530.6755,-442.5336"/>
<ellipse fill="none" stroke="#000000" cx="527.5457" cy="-441.8671" rx="3.2" ry="3.2"/>
</g>
<!-- order_inventory -->
<g id="node6" class="node">
<title>order_inventory</title>
<g id="a_node6"><a xlink:href="../../tables/order_inventory.html" xlink:title="order_inventory" target="_top">
<polygon fill="#ffffff" stroke="transparent" points="546.5,-334.7 546.5,-395.7 676.5,-395.7 676.5,-334.7 546.5,-334.7"/>
<polygon fill="#f5f5f5" stroke="transparent" points="546.5,-372.2 546.5,-395.2 676.5,-395.2 676.5,-372.2 546.5,-372.2"/>
<polygon fill="none" stroke="#000000" points="546.5,-372.2 546.5,-395.2 676.5,-395.2 676.5,-372.2 546.5,-372.2"/>
<text text-anchor="start" x="551.5" y="-380.8" font-family="Helvetica,sans-Serif" font-weight="bold" font-size="11.00" fill="#000000">order_inventory</text>
<text text-anchor="start" x="642.0219" y="-380.3" font-family="Helvetica,sans-Serif" font-size="11.00" fill="#000000">[table]</text>
<polygon fill="none" stroke="#000000" points="546.5,-353.2 546.5,-372.2 676.5,-372.2 676.5,-353.2 546.5,-353.2"/>
<text text-anchor="start" x="549.5" y="-359.3" font-family="Helvetica,sans-Serif" font-size="11.00" fill="#000000">...</text>
<polygon fill="#ffffff" stroke="transparent" points="546.5,-334.2 546.5,-353.2 590.5,-353.2 590.5,-334.2 546.5,-334.2"/>
<polygon fill="none" stroke="#000000" points="546.5,-334.2 546.5,-353.2 590.5,-353.2 590.5,-334.2 546.5,-334.2"/>
<text text-anchor="start" x="549.5" y="-340.3" font-family="Helvetica,sans-Serif" font-size="11.00" fill="#000000">&lt; 1</text>
<polygon fill="#ffffff" stroke="transparent" points="590.5,-334.2 590.5,-353.2 652.5,-353.2 652.5,-334.2 590.5,-334.2"/>
<polygon fill="none" stroke="#000000" points="590.5,-334.2 590.5,-353.2 652.5,-353.2 652.5,-334.2 590.5,-334.2"/>
<text text-anchor="start" x="604.8807" y="-340.3" font-family="Helvetica,sans-Serif" font-size="11.00" fill="#000000">136 rows</text>
<polygon fill="#ffffff" stroke="transparent" points="652.5,-334.2 652.5,-353.2 676.5,-353.2 676.5,-334.2 652.5,-334.2"/>
<polygon fill="none" stroke="#000000" points="652.5,-334.2 652.5,-353.2 676.5,-353.2 676.5,-334.2 652.5,-334.2"/>
<text text-anchor="start" x="667.3862" y="-340.3" font-family="Helvetica,sans-Serif" font-size="11.00" fill="#000000"> &#160;</text>
</a>
</g>
</g>
<!-- order_inventory&#45;&gt;common_product -->
<g id="edge5" class="edge">
<title>order_inventory:w&#45;&gt;common_product:e</title>
<path fill="none" stroke="#000000" d="M532.2431,-359.6353C509.7439,-350.6594 506.3878,-321.2 475.5,-321.2"/>
<polygon fill="#000000" stroke="#000000" points="538.6264,-360.7835 545.8626,-365.7431 542.5632,-361.4918 546.5,-362.2 546.5,-362.2 546.5,-362.2 542.5632,-361.4918 547.1374,-358.6569 538.6264,-360.7835 538.6264,-360.7835"/>
<ellipse fill="none" stroke="#000000" cx="535.4769" cy="-360.2169" rx="3.2" ry="3.2"/>
</g>
<!-- order_itemserialno -->
<g id="node7" class="node">
<title>order_itemserialno</title>
<g id="a_node7"><a xlink:href="../../tables/order_itemserialno.html" xlink:title="order_itemserialno" target="_top">
<polygon fill="#ffffff" stroke="transparent" points="538,-252.7 538,-313.7 685,-313.7 685,-252.7 538,-252.7"/>
<polygon fill="#f5f5f5" stroke="transparent" points="538.5,-290.2 538.5,-313.2 685.5,-313.2 685.5,-290.2 538.5,-290.2"/>
<polygon fill="none" stroke="#000000" points="538.5,-290.2 538.5,-313.2 685.5,-313.2 685.5,-290.2 538.5,-290.2"/>
<text text-anchor="start" x="543.5" y="-298.8" font-family="Helvetica,sans-Serif" font-weight="bold" font-size="11.00" fill="#000000">order_itemserialno</text>
<text text-anchor="start" x="651.0219" y="-298.3" font-family="Helvetica,sans-Serif" font-size="11.00" fill="#000000">[table]</text>
<polygon fill="none" stroke="#000000" points="538.5,-271.2 538.5,-290.2 685.5,-290.2 685.5,-271.2 538.5,-271.2"/>
<text text-anchor="start" x="541.5" y="-277.3" font-family="Helvetica,sans-Serif" font-size="11.00" fill="#000000">...</text>
<polygon fill="#ffffff" stroke="transparent" points="538.5,-252.2 538.5,-271.2 579.5,-271.2 579.5,-252.2 538.5,-252.2"/>
<polygon fill="none" stroke="#000000" points="538.5,-252.2 538.5,-271.2 579.5,-271.2 579.5,-252.2 538.5,-252.2"/>
<text text-anchor="start" x="541.5" y="-258.3" font-family="Helvetica,sans-Serif" font-size="11.00" fill="#000000">&lt; 2</text>
<polygon fill="#ffffff" stroke="transparent" points="579.5,-252.2 579.5,-271.2 654.5,-271.2 654.5,-252.2 579.5,-252.2"/>
<polygon fill="none" stroke="#000000" points="579.5,-252.2 579.5,-271.2 654.5,-271.2 654.5,-252.2 579.5,-252.2"/>
<text text-anchor="start" x="591.594" y="-258.3" font-family="Helvetica,sans-Serif" font-size="11.00" fill="#000000">19,002 rows</text>
<polygon fill="#ffffff" stroke="transparent" points="654.5,-252.2 654.5,-271.2 685.5,-271.2 685.5,-252.2 654.5,-252.2"/>
<polygon fill="none" stroke="#000000" points="654.5,-252.2 654.5,-271.2 685.5,-271.2 685.5,-252.2 654.5,-252.2"/>
<text text-anchor="start" x="666.9053" y="-258.3" font-family="Helvetica,sans-Serif" font-size="11.00" fill="#000000">1 &gt;</text>
</a>
</g>
</g>
<!-- order_itemserialno&#45;&gt;common_product -->
<g id="edge6" class="edge">
<title>order_itemserialno:w&#45;&gt;common_product:e</title>
<path fill="none" stroke="#000000" d="M524.1951,-283.4172C505.3044,-293.0826 503.1654,-321.2 475.5,-321.2"/>
<polygon fill="#000000" stroke="#000000" points="530.695,-281.9554 539.2899,-283.7123 534.5975,-281.0777 538.5,-280.2 538.5,-280.2 538.5,-280.2 534.5975,-281.0777 537.7101,-276.6877 530.695,-281.9554 530.695,-281.9554"/>
<ellipse fill="none" stroke="#000000" cx="527.5729" cy="-282.6576" rx="3.2" ry="3.2"/>
</g>
<!-- order_receiveitem -->
<g id="node8" class="node">
<title>order_receiveitem</title>
<g id="a_node8"><a xlink:href="../../tables/order_receiveitem.html" xlink:title="order_receiveitem" target="_top">
<polygon fill="#ffffff" stroke="transparent" points="540.5,-170.7 540.5,-231.7 682.5,-231.7 682.5,-170.7 540.5,-170.7"/>
<polygon fill="#f5f5f5" stroke="transparent" points="540.5,-208.2 540.5,-231.2 682.5,-231.2 682.5,-208.2 540.5,-208.2"/>
<polygon fill="none" stroke="#000000" points="540.5,-208.2 540.5,-231.2 682.5,-231.2 682.5,-208.2 540.5,-208.2"/>
<text text-anchor="start" x="545.5" y="-216.8" font-family="Helvetica,sans-Serif" font-weight="bold" font-size="11.00" fill="#000000">order_receiveitem</text>
<text text-anchor="start" x="648.0219" y="-216.3" font-family="Helvetica,sans-Serif" font-size="11.00" fill="#000000">[table]</text>
<polygon fill="none" stroke="#000000" points="540.5,-189.2 540.5,-208.2 682.5,-208.2 682.5,-189.2 540.5,-189.2"/>
<text text-anchor="start" x="543.5" y="-195.3" font-family="Helvetica,sans-Serif" font-size="11.00" fill="#000000">...</text>
<polygon fill="#ffffff" stroke="transparent" points="540.5,-170.2 540.5,-189.2 583.5,-189.2 583.5,-170.2 540.5,-170.2"/>
<polygon fill="none" stroke="#000000" points="540.5,-170.2 540.5,-189.2 583.5,-189.2 583.5,-170.2 540.5,-170.2"/>
<text text-anchor="start" x="543.5" y="-176.3" font-family="Helvetica,sans-Serif" font-size="11.00" fill="#000000">&lt; 2</text>
<polygon fill="#ffffff" stroke="transparent" points="583.5,-170.2 583.5,-189.2 659.5,-189.2 659.5,-170.2 583.5,-170.2"/>
<polygon fill="none" stroke="#000000" points="583.5,-170.2 583.5,-189.2 659.5,-189.2 659.5,-170.2 583.5,-170.2"/>
<text text-anchor="start" x="596.594" y="-176.3" font-family="Helvetica,sans-Serif" font-size="11.00" fill="#000000">18,922 rows</text>
<polygon fill="#ffffff" stroke="transparent" points="659.5,-170.2 659.5,-189.2 682.5,-189.2 682.5,-170.2 659.5,-170.2"/>
<polygon fill="none" stroke="#000000" points="659.5,-170.2 659.5,-189.2 682.5,-189.2 682.5,-170.2 659.5,-170.2"/>
<text text-anchor="start" x="673.3862" y="-176.3" font-family="Helvetica,sans-Serif" font-size="11.00" fill="#000000"> &#160;</text>
</a>
</g>
</g>
<!-- order_receiveitem&#45;&gt;common_product -->
<g id="edge7" class="edge">
<title>order_receiveitem:w&#45;&gt;common_product:e</title>
<path fill="none" stroke="#000000" d="M526.0886,-201.2405C488.6094,-220.1814 531.5339,-321.2 475.5,-321.2"/>
<polygon fill="#000000" stroke="#000000" points="532.6723,-199.8515 541.2432,-201.7225 536.5862,-199.0258 540.5,-198.2 540.5,-198.2 540.5,-198.2 536.5862,-199.0258 539.7568,-194.6775 532.6723,-199.8515 532.6723,-199.8515"/>
<ellipse fill="none" stroke="#000000" cx="529.5412" cy="-200.5121" rx="3.2" ry="3.2"/>
</g>
<!-- order_saleitem -->
<g id="node9" class="node">
<title>order_saleitem</title>
<g id="a_node9"><a xlink:href="../../tables/order_saleitem.html" xlink:title="order_saleitem" target="_top">
<polygon fill="#ffffff" stroke="transparent" points="549.5,-88.7 549.5,-149.7 673.5,-149.7 673.5,-88.7 549.5,-88.7"/>
<polygon fill="#f5f5f5" stroke="transparent" points="549.5,-126.2 549.5,-149.2 673.5,-149.2 673.5,-126.2 549.5,-126.2"/>
<polygon fill="none" stroke="#000000" points="549.5,-126.2 549.5,-149.2 673.5,-149.2 673.5,-126.2 549.5,-126.2"/>
<text text-anchor="start" x="554.5" y="-134.8" font-family="Helvetica,sans-Serif" font-weight="bold" font-size="11.00" fill="#000000">order_saleitem</text>
<text text-anchor="start" x="639.0219" y="-134.3" font-family="Helvetica,sans-Serif" font-size="11.00" fill="#000000">[table]</text>
<polygon fill="none" stroke="#000000" points="549.5,-107.2 549.5,-126.2 673.5,-126.2 673.5,-107.2 549.5,-107.2"/>
<text text-anchor="start" x="552.5" y="-113.3" font-family="Helvetica,sans-Serif" font-size="11.00" fill="#000000">...</text>
<polygon fill="#ffffff" stroke="transparent" points="549.5,-88.2 549.5,-107.2 590.5,-107.2 590.5,-88.2 549.5,-88.2"/>
<polygon fill="none" stroke="#000000" points="549.5,-88.2 549.5,-107.2 590.5,-107.2 590.5,-88.2 549.5,-88.2"/>
<text text-anchor="start" x="552.5" y="-94.3" font-family="Helvetica,sans-Serif" font-size="11.00" fill="#000000">&lt; 2</text>
<polygon fill="#ffffff" stroke="transparent" points="590.5,-88.2 590.5,-107.2 650.5,-107.2 650.5,-88.2 590.5,-88.2"/>
<polygon fill="none" stroke="#000000" points="590.5,-88.2 590.5,-107.2 650.5,-107.2 650.5,-88.2 590.5,-88.2"/>
<text text-anchor="start" x="602.8807" y="-94.3" font-family="Helvetica,sans-Serif" font-size="11.00" fill="#000000">659 rows</text>
<polygon fill="#ffffff" stroke="transparent" points="650.5,-88.2 650.5,-107.2 673.5,-107.2 673.5,-88.2 650.5,-88.2"/>
<polygon fill="none" stroke="#000000" points="650.5,-88.2 650.5,-107.2 673.5,-107.2 673.5,-88.2 650.5,-88.2"/>
<text text-anchor="start" x="664.3862" y="-94.3" font-family="Helvetica,sans-Serif" font-size="11.00" fill="#000000"> &#160;</text>
</a>
</g>
</g>
<!-- order_saleitem&#45;&gt;common_product -->
<g id="edge8" class="edge">
<title>order_saleitem:w&#45;&gt;common_product:e</title>
<path fill="none" stroke="#000000" d="M535.3956,-119.9606C525.0157,-127.145 523.9946,-143.59 516,-160.2 484.0001,-226.6846 549.2848,-321.2 475.5,-321.2"/>
<polygon fill="#000000" stroke="#000000" points="541.77,-118.2611 550.4275,-119.6785 545.635,-117.2305 549.5,-116.2 549.5,-116.2 549.5,-116.2 545.635,-117.2305 548.5725,-112.7215 541.77,-118.2611 541.77,-118.2611"/>
<ellipse fill="none" stroke="#000000" cx="538.6781" cy="-119.0855" rx="3.2" ry="3.2"/>
</g>
</g>
</svg>
