<?xml version="1.0" encoding="UTF-8" standalone="no"?>
<!DOCTYPE svg PUBLIC "-//W3C//DTD SVG 1.1//EN"
 "http://www.w3.org/Graphics/SVG/1.1/DTD/svg11.dtd">
<!-- Generated by graphviz version 2.40.1 (20161225.0304)
 -->
<!-- Title: twoDegreesRelationshipsDiagram Pages: 1 -->
<svg width="761pt" height="721pt"
 viewBox="0.00 0.00 761.00 720.70" xmlns="http://www.w3.org/2000/svg" xmlns:xlink="http://www.w3.org/1999/xlink">
<g id="graph0" class="graph" transform="scale(1 1) rotate(0) translate(4 716.7)">
<title>twoDegreesRelationshipsDiagram</title>
<polygon fill="#ffffff" stroke="transparent" points="-4,4 -4,-716.7 757,-716.7 757,4 -4,4"/>
<text text-anchor="middle" x="72.4936" y="-7.3" font-family="Helvetica,sans-Serif" font-size="11.00" fill="#000000">Generated by SchemaSpy</text>
<!-- common_contact -->
<g id="node1" class="node">
<title>common_contact</title>
<g id="a_node1"><a xlink:href="../../tables/common_contact.html" xlink:title="common_contact" target="_top">
<polygon fill="#ffffff" stroke="transparent" points="269.5,-284.2 269.5,-345.2 407.5,-345.2 407.5,-284.2 269.5,-284.2"/>
<polygon fill="#f5f5f5" stroke="transparent" points="269.5,-321.7 269.5,-344.7 407.5,-344.7 407.5,-321.7 269.5,-321.7"/>
<polygon fill="none" stroke="#000000" points="269.5,-321.7 269.5,-344.7 407.5,-344.7 407.5,-321.7 269.5,-321.7"/>
<text text-anchor="start" x="274.5" y="-330.3" font-family="Helvetica,sans-Serif" font-weight="bold" font-size="11.00" fill="#000000">common_contact</text>
<text text-anchor="start" x="373.0219" y="-329.8" font-family="Helvetica,sans-Serif" font-size="11.00" fill="#000000">[table]</text>
<polygon fill="none" stroke="#000000" points="269.5,-302.7 269.5,-321.7 407.5,-321.7 407.5,-302.7 269.5,-302.7"/>
<text text-anchor="start" x="272.5" y="-308.8" font-family="Helvetica,sans-Serif" font-size="11.00" fill="#000000">...</text>
<polygon fill="#ffffff" stroke="transparent" points="269.5,-283.7 269.5,-302.7 323.5,-302.7 323.5,-283.7 269.5,-283.7"/>
<polygon fill="none" stroke="#000000" points="269.5,-283.7 269.5,-302.7 323.5,-302.7 323.5,-283.7 269.5,-283.7"/>
<text text-anchor="start" x="272.5" y="-289.8" font-family="Helvetica,sans-Serif" font-size="11.00" fill="#000000">&lt; 2</text>
<polygon fill="#ffffff" stroke="transparent" points="323.5,-283.7 323.5,-302.7 378.5,-302.7 378.5,-283.7 323.5,-283.7"/>
<polygon fill="none" stroke="#000000" points="323.5,-283.7 323.5,-302.7 378.5,-302.7 378.5,-283.7 323.5,-283.7"/>
<text text-anchor="start" x="343.1105" y="-289.8" font-family="Helvetica,sans-Serif" font-size="11.00" fill="#000000">0 rows</text>
<polygon fill="#ffffff" stroke="transparent" points="378.5,-283.7 378.5,-302.7 407.5,-302.7 407.5,-283.7 378.5,-283.7"/>
<polygon fill="none" stroke="#000000" points="378.5,-283.7 378.5,-302.7 407.5,-302.7 407.5,-283.7 378.5,-283.7"/>
<text text-anchor="start" x="398.3862" y="-289.8" font-family="Helvetica,sans-Serif" font-size="11.00" fill="#000000"> &#160;</text>
</a>
</g>
</g>
<!-- common_dealer -->
<g id="node2" class="node">
<title>common_dealer</title>
<g id="a_node2"><a xlink:href="../../tables/common_dealer.html" xlink:title="common_dealer" target="_top">
<polygon fill="#ffffff" stroke="transparent" points="8,-386.2 8,-469.2 204,-469.2 204,-386.2 8,-386.2"/>
<polygon fill="#f5f5f5" stroke="transparent" points="8,-445.7 8,-468.7 204,-468.7 204,-445.7 8,-445.7"/>
<polygon fill="none" stroke="#000000" points="8,-445.7 8,-468.7 204,-468.7 204,-445.7 8,-445.7"/>
<text text-anchor="start" x="13" y="-454.3" font-family="Helvetica,sans-Serif" font-weight="bold" font-size="11.00" fill="#000000">common_dealer</text>
<text text-anchor="start" x="169.0437" y="-453.8" font-family="Helvetica,sans-Serif" font-size="11.00" fill="#000000">[table]</text>
<polygon fill="none" stroke="#000000" points="8,-423.7 8,-445.7 204,-445.7 204,-423.7 8,-423.7"/>
<image xlink:href="../../images/primaryKeys.png" width="11px" height="12px" preserveAspectRatio="xMinYMin meet" x="13" y="-440.7"/>
<text text-anchor="start" x="28" y="-430.8" font-family="Helvetica,sans-Serif" font-size="11.00" fill="#000000">ID</text>
<polygon fill="none" stroke="#000000" points="8,-404.7 8,-423.7 204,-423.7 204,-404.7 8,-404.7"/>
<text text-anchor="start" x="11" y="-410.8" font-family="Helvetica,sans-Serif" font-size="11.00" fill="#000000">...</text>
<polygon fill="#ffffff" stroke="transparent" points="8,-385.7 8,-404.7 79,-404.7 79,-385.7 8,-385.7"/>
<polygon fill="none" stroke="#000000" points="8,-385.7 8,-404.7 79,-404.7 79,-385.7 8,-385.7"/>
<text text-anchor="start" x="11" y="-391.8" font-family="Helvetica,sans-Serif" font-size="11.00" fill="#000000"> &#160;</text>
<polygon fill="#ffffff" stroke="transparent" points="79,-385.7 79,-404.7 153,-404.7 153,-385.7 79,-385.7"/>
<polygon fill="none" stroke="#000000" points="79,-385.7 79,-404.7 153,-404.7 153,-385.7 79,-385.7"/>
<text text-anchor="start" x="111.4956" y="-391.8" font-family="Helvetica,sans-Serif" font-size="11.00" fill="#000000">62 rows</text>
<polygon fill="#ffffff" stroke="transparent" points="153,-385.7 153,-404.7 204,-404.7 204,-385.7 153,-385.7"/>
<polygon fill="none" stroke="#000000" points="153,-385.7 153,-404.7 204,-404.7 204,-385.7 153,-385.7"/>
<text text-anchor="start" x="185.4053" y="-391.8" font-family="Helvetica,sans-Serif" font-size="11.00" fill="#000000">4 &gt;</text>
</a>
</g>
</g>
<!-- common_contact&#45;&gt;common_dealer -->
<g id="edge1" class="edge">
<title>common_contact:w&#45;&gt;common_dealer:e</title>
<path fill="none" stroke="#000000" d="M255.0547,-314.7405C217.4522,-333.6814 260.1283,-434.7 204,-434.7"/>
<polygon fill="#000000" stroke="#000000" points="261.6715,-313.3478 270.2415,-315.2228 265.5858,-312.5239 269.5,-311.7 269.5,-311.7 269.5,-311.7 265.5858,-312.5239 268.7585,-308.1772 261.6715,-313.3478 261.6715,-313.3478"/>
<ellipse fill="none" stroke="#000000" cx="258.5401" cy="-314.0069" rx="3.2" ry="3.2"/>
</g>
<!-- common_dealerproduct -->
<g id="node3" class="node">
<title>common_dealerproduct</title>
<g id="a_node3"><a xlink:href="../../tables/common_dealerproduct.html" xlink:title="common_dealerproduct" target="_top">
<polygon fill="#ffffff" stroke="transparent" points="473,-464.7 473,-708.7 745,-708.7 745,-464.7 473,-464.7"/>
<polygon fill="#f5f5f5" stroke="transparent" points="475,-683.7 475,-706.7 743,-706.7 743,-683.7 475,-683.7"/>
<polygon fill="none" stroke="#000000" points="475,-683.7 475,-706.7 743,-706.7 743,-683.7 475,-683.7"/>
<text text-anchor="start" x="480" y="-692.3" font-family="Helvetica,sans-Serif" font-weight="bold" font-size="11.00" fill="#000000">common_dealerproduct</text>
<text text-anchor="start" x="708.0437" y="-691.8" font-family="Helvetica,sans-Serif" font-size="11.00" fill="#000000">[table]</text>
<polygon fill="none" stroke="#000000" points="475,-661.7 475,-683.7 632,-683.7 632,-661.7 475,-661.7"/>
<image xlink:href="../../images/primaryKeys.png" width="11px" height="12px" preserveAspectRatio="xMinYMin meet" x="480" y="-678.7"/>
<text text-anchor="start" x="495" y="-668.8" font-family="Helvetica,sans-Serif" font-size="11.00" fill="#000000">ID</text>
<polygon fill="none" stroke="#000000" points="632,-661.7 632,-683.7 743,-683.7 743,-661.7 632,-661.7"/>
<text text-anchor="start" x="635" y="-669.4" font-family="Helvetica,sans-Serif" font-size="11.00" fill="#000000">int[10]</text>
<polygon fill="none" stroke="#000000" points="475,-639.7 475,-661.7 632,-661.7 632,-639.7 475,-639.7"/>
<text text-anchor="start" x="495" y="-646.8" font-family="Helvetica,sans-Serif" font-size="11.00" fill="#000000">Active</text>
<polygon fill="none" stroke="#000000" points="632,-639.7 632,-661.7 743,-661.7 743,-639.7 632,-639.7"/>
<text text-anchor="start" x="635" y="-647.4" font-family="Helvetica,sans-Serif" font-size="11.00" fill="#000000">bit[1]</text>
<polygon fill="none" stroke="#000000" points="475,-617.7 475,-639.7 632,-639.7 632,-617.7 475,-617.7"/>
<text text-anchor="start" x="495" y="-624.8" font-family="Helvetica,sans-Serif" font-size="11.00" fill="#000000">User</text>
<polygon fill="none" stroke="#000000" points="632,-617.7 632,-639.7 743,-639.7 743,-617.7 632,-617.7"/>
<text text-anchor="start" x="634.6115" y="-625.4" font-family="Helvetica,sans-Serif" font-size="11.00" fill="#000000">longtext[2147483647]</text>
<polygon fill="none" stroke="#000000" points="475,-595.7 475,-617.7 632,-617.7 632,-595.7 475,-595.7"/>
<text text-anchor="start" x="495" y="-602.8" font-family="Helvetica,sans-Serif" font-size="11.00" fill="#000000">CD</text>
<polygon fill="none" stroke="#000000" points="632,-595.7 632,-617.7 743,-617.7 743,-595.7 632,-595.7"/>
<text text-anchor="start" x="635" y="-603.4" font-family="Helvetica,sans-Serif" font-size="11.00" fill="#000000">datetime[26]</text>
<polygon fill="none" stroke="#000000" points="475,-573.7 475,-595.7 632,-595.7 632,-573.7 475,-573.7"/>
<text text-anchor="start" x="495" y="-580.8" font-family="Helvetica,sans-Serif" font-size="11.00" fill="#000000">UD</text>
<polygon fill="none" stroke="#000000" points="632,-573.7 632,-595.7 743,-595.7 743,-573.7 632,-573.7"/>
<text text-anchor="start" x="635" y="-581.4" font-family="Helvetica,sans-Serif" font-size="11.00" fill="#000000">datetime[26]</text>
<polygon fill="none" stroke="#000000" points="475,-551.7 475,-573.7 632,-573.7 632,-551.7 475,-551.7"/>
<text text-anchor="start" x="495" y="-558.8" font-family="Helvetica,sans-Serif" font-size="11.00" fill="#000000">Remarks</text>
<polygon fill="none" stroke="#000000" points="632,-551.7 632,-573.7 743,-573.7 743,-551.7 632,-551.7"/>
<text text-anchor="start" x="634.6115" y="-559.4" font-family="Helvetica,sans-Serif" font-size="11.00" fill="#000000">longtext[2147483647]</text>
<polygon fill="none" stroke="#000000" points="475,-529.7 475,-551.7 632,-551.7 632,-529.7 475,-529.7"/>
<text text-anchor="start" x="495" y="-536.8" font-family="Helvetica,sans-Serif" font-size="11.00" fill="#000000">UserID</text>
<polygon fill="none" stroke="#000000" points="632,-529.7 632,-551.7 743,-551.7 743,-529.7 632,-529.7"/>
<text text-anchor="start" x="635" y="-537.4" font-family="Helvetica,sans-Serif" font-size="11.00" fill="#000000">int[10]</text>
<polygon fill="#ffffff" stroke="transparent" points="475,-507.7 475,-529.7 632,-529.7 632,-507.7 475,-507.7"/>
<polygon fill="none" stroke="#000000" points="475,-507.7 475,-529.7 632,-529.7 632,-507.7 475,-507.7"/>
<image xlink:href="../../images/foreignKeys.png" width="11px" height="12px" preserveAspectRatio="xMinYMin meet" x="480" y="-524.7"/>
<text text-anchor="start" x="495" y="-514.8" font-family="Helvetica,sans-Serif" font-size="11.00" fill="#000000">Common_DealerFK</text>
<polygon fill="none" stroke="#000000" points="632,-507.7 632,-529.7 743,-529.7 743,-507.7 632,-507.7"/>
<text text-anchor="start" x="635" y="-515.4" font-family="Helvetica,sans-Serif" font-size="11.00" fill="#000000">int[10]</text>
<polygon fill="#ffffff" stroke="transparent" points="475,-485.7 475,-507.7 632,-507.7 632,-485.7 475,-485.7"/>
<polygon fill="none" stroke="#000000" points="475,-485.7 475,-507.7 632,-507.7 632,-485.7 475,-485.7"/>
<image xlink:href="../../images/foreignKeys.png" width="11px" height="12px" preserveAspectRatio="xMinYMin meet" x="480" y="-502.7"/>
<text text-anchor="start" x="495" y="-492.8" font-family="Helvetica,sans-Serif" font-size="11.00" fill="#000000">Common_ProductFK</text>
<polygon fill="none" stroke="#000000" points="632,-485.7 632,-507.7 743,-507.7 743,-485.7 632,-485.7"/>
<text text-anchor="start" x="635" y="-493.4" font-family="Helvetica,sans-Serif" font-size="11.00" fill="#000000">int[10]</text>
<polygon fill="#ffffff" stroke="transparent" points="475,-466.7 475,-485.7 539,-485.7 539,-466.7 475,-466.7"/>
<polygon fill="none" stroke="#000000" points="475,-466.7 475,-485.7 539,-485.7 539,-466.7 475,-466.7"/>
<text text-anchor="start" x="478" y="-472.8" font-family="Helvetica,sans-Serif" font-size="11.00" fill="#000000">&lt; 2</text>
<polygon fill="#ffffff" stroke="transparent" points="539,-466.7 539,-485.7 632,-485.7 632,-466.7 539,-466.7"/>
<polygon fill="none" stroke="#000000" points="539,-466.7 539,-485.7 632,-485.7 632,-466.7 539,-466.7"/>
<text text-anchor="start" x="584.3807" y="-472.8" font-family="Helvetica,sans-Serif" font-size="11.00" fill="#000000">427 rows</text>
<polygon fill="#ffffff" stroke="transparent" points="632,-466.7 632,-485.7 743,-485.7 743,-466.7 632,-466.7"/>
<polygon fill="none" stroke="#000000" points="632,-466.7 632,-485.7 743,-485.7 743,-466.7 632,-466.7"/>
<text text-anchor="start" x="724.4053" y="-472.8" font-family="Helvetica,sans-Serif" font-size="11.00" fill="#000000">0 &gt;</text>
<polygon fill="none" stroke="#000000" stroke-width="2" points="474,-465.7 474,-707.7 744,-707.7 744,-465.7 474,-465.7"/>
</a>
</g>
</g>
<!-- common_dealerproduct&#45;&gt;common_dealer -->
<g id="edge2" class="edge">
<title>common_dealerproduct:w&#45;&gt;common_dealer:e</title>
<path fill="none" stroke="#000000" d="M460.45,-519.0767C368.6447,-523.8445 327.3449,-571.4044 245,-519.7 209.4789,-497.3962 245.9429,-434.7 204,-434.7"/>
<polygon fill="#000000" stroke="#000000" points="467.0027,-518.9071 475.0932,-522.2988 471.0013,-518.8036 475,-518.7 475,-518.7 475,-518.7 471.0013,-518.8036 474.9068,-515.1012 467.0027,-518.9071 467.0027,-518.9071"/>
<ellipse fill="none" stroke="#000000" cx="463.8038" cy="-518.99" rx="3.2" ry="3.2"/>
</g>
<!-- common_product -->
<g id="node4" class="node">
<title>common_product</title>
<g id="a_node4"><a xlink:href="../../tables/common_product.html" xlink:title="common_product" target="_top">
<polygon fill="#ffffff" stroke="transparent" points="253,-136.2 253,-263.2 424,-263.2 424,-136.2 253,-136.2"/>
<polygon fill="#f5f5f5" stroke="transparent" points="253.5,-239.7 253.5,-262.7 424.5,-262.7 424.5,-239.7 253.5,-239.7"/>
<polygon fill="none" stroke="#000000" points="253.5,-239.7 253.5,-262.7 424.5,-262.7 424.5,-239.7 253.5,-239.7"/>
<text text-anchor="start" x="258.5" y="-248.3" font-family="Helvetica,sans-Serif" font-weight="bold" font-size="11.00" fill="#000000">common_product</text>
<text text-anchor="start" x="389.5437" y="-247.8" font-family="Helvetica,sans-Serif" font-size="11.00" fill="#000000">[table]</text>
<polygon fill="none" stroke="#000000" points="253.5,-217.7 253.5,-239.7 424.5,-239.7 424.5,-217.7 253.5,-217.7"/>
<image xlink:href="../../images/primaryKeys.png" width="11px" height="12px" preserveAspectRatio="xMinYMin meet" x="258.5" y="-234.7"/>
<text text-anchor="start" x="273.5" y="-224.8" font-family="Helvetica,sans-Serif" font-size="11.00" fill="#000000">ID</text>
<polygon fill="#ffffff" stroke="transparent" points="253.5,-195.7 253.5,-217.7 424.5,-217.7 424.5,-195.7 253.5,-195.7"/>
<polygon fill="none" stroke="#000000" points="253.5,-195.7 253.5,-217.7 424.5,-217.7 424.5,-195.7 253.5,-195.7"/>
<image xlink:href="../../images/foreignKeys.png" width="11px" height="12px" preserveAspectRatio="xMinYMin meet" x="258.5" y="-212.7"/>
<text text-anchor="start" x="273.5" y="-202.8" font-family="Helvetica,sans-Serif" font-size="11.00" fill="#000000">Common_ManufacturerFK</text>
<polygon fill="none" stroke="#000000" points="253.5,-173.7 253.5,-195.7 424.5,-195.7 424.5,-173.7 253.5,-173.7"/>
<image xlink:href="../../images/foreignKeys.png" width="11px" height="12px" preserveAspectRatio="xMinYMin meet" x="258.5" y="-190.7"/>
<text text-anchor="start" x="273.5" y="-180.8" font-family="Helvetica,sans-Serif" font-size="11.00" fill="#000000">Common_PackTypeID</text>
<polygon fill="none" stroke="#000000" points="253.5,-154.7 253.5,-173.7 424.5,-173.7 424.5,-154.7 253.5,-154.7"/>
<text text-anchor="start" x="256.5" y="-160.8" font-family="Helvetica,sans-Serif" font-size="11.00" fill="#000000">...</text>
<polygon fill="#ffffff" stroke="transparent" points="253.5,-135.7 253.5,-154.7 316.5,-154.7 316.5,-135.7 253.5,-135.7"/>
<polygon fill="none" stroke="#000000" points="253.5,-135.7 253.5,-154.7 316.5,-154.7 316.5,-135.7 253.5,-135.7"/>
<text text-anchor="start" x="256.5" y="-141.8" font-family="Helvetica,sans-Serif" font-size="11.00" fill="#000000">&lt; 1</text>
<polygon fill="#ffffff" stroke="transparent" points="316.5,-135.7 316.5,-154.7 381.5,-154.7 381.5,-135.7 316.5,-135.7"/>
<polygon fill="none" stroke="#000000" points="316.5,-135.7 316.5,-154.7 381.5,-154.7 381.5,-135.7 316.5,-135.7"/>
<text text-anchor="start" x="339.9956" y="-141.8" font-family="Helvetica,sans-Serif" font-size="11.00" fill="#000000">54 rows</text>
<polygon fill="#ffffff" stroke="transparent" points="381.5,-135.7 381.5,-154.7 424.5,-154.7 424.5,-135.7 381.5,-135.7"/>
<polygon fill="none" stroke="#000000" points="381.5,-135.7 381.5,-154.7 424.5,-154.7 424.5,-135.7 381.5,-135.7"/>
<text text-anchor="start" x="405.9053" y="-141.8" font-family="Helvetica,sans-Serif" font-size="11.00" fill="#000000">6 &gt;</text>
</a>
</g>
</g>
<!-- common_dealerproduct&#45;&gt;common_product -->
<g id="edge3" class="edge">
<title>common_dealerproduct:w&#45;&gt;common_product:e</title>
<path fill="none" stroke="#000000" d="M461.6548,-490.5989C426.0416,-450.707 479.6588,-228.7 424.5,-228.7"/>
<polygon fill="#000000" stroke="#000000" points="467.7243,-493.3737 473.5032,-499.9741 471.3621,-495.0369 475,-496.7 475,-496.7 475,-496.7 471.3621,-495.0369 476.4968,-493.4259 467.7243,-493.3737 467.7243,-493.3737"/>
<ellipse fill="none" stroke="#000000" cx="464.814" cy="-492.0432" rx="3.2" ry="3.2"/>
</g>
<!-- common_manufacturer -->
<g id="node6" class="node">
<title>common_manufacturer</title>
<g id="a_node6"><a xlink:href="../../tables/common_manufacturer.html" xlink:title="common_manufacturer" target="_top">
<polygon fill="#ffffff" stroke="transparent" points="20,-179.2 20,-240.2 192,-240.2 192,-179.2 20,-179.2"/>
<polygon fill="#f5f5f5" stroke="transparent" points="20,-216.7 20,-239.7 192,-239.7 192,-216.7 20,-216.7"/>
<polygon fill="none" stroke="#000000" points="20,-216.7 20,-239.7 192,-239.7 192,-216.7 20,-216.7"/>
<text text-anchor="start" x="25" y="-225.3" font-family="Helvetica,sans-Serif" font-weight="bold" font-size="11.00" fill="#000000">common_manufacturer</text>
<text text-anchor="start" x="157.5219" y="-224.8" font-family="Helvetica,sans-Serif" font-size="11.00" fill="#000000">[table]</text>
<polygon fill="none" stroke="#000000" points="20,-197.7 20,-216.7 192,-216.7 192,-197.7 20,-197.7"/>
<text text-anchor="start" x="23" y="-203.8" font-family="Helvetica,sans-Serif" font-size="11.00" fill="#000000">...</text>
<polygon fill="#ffffff" stroke="transparent" points="20,-178.7 20,-197.7 79,-197.7 79,-178.7 20,-178.7"/>
<polygon fill="none" stroke="#000000" points="20,-178.7 20,-197.7 79,-197.7 79,-178.7 20,-178.7"/>
<text text-anchor="start" x="23" y="-184.8" font-family="Helvetica,sans-Serif" font-size="11.00" fill="#000000"> &#160;</text>
<polygon fill="#ffffff" stroke="transparent" points="79,-178.7 79,-197.7 147,-197.7 147,-178.7 79,-178.7"/>
<polygon fill="none" stroke="#000000" points="79,-178.7 79,-197.7 147,-197.7 147,-178.7 79,-178.7"/>
<text text-anchor="start" x="105.4956" y="-184.8" font-family="Helvetica,sans-Serif" font-size="11.00" fill="#000000">33 rows</text>
<polygon fill="#ffffff" stroke="transparent" points="147,-178.7 147,-197.7 192,-197.7 192,-178.7 147,-178.7"/>
<polygon fill="none" stroke="#000000" points="147,-178.7 147,-197.7 192,-197.7 192,-178.7 147,-178.7"/>
<text text-anchor="start" x="173.4053" y="-184.8" font-family="Helvetica,sans-Serif" font-size="11.00" fill="#000000">1 &gt;</text>
</a>
</g>
</g>
<!-- common_product&#45;&gt;common_manufacturer -->
<g id="edge5" class="edge">
<title>common_product:w&#45;&gt;common_manufacturer:e</title>
<path fill="none" stroke="#000000" d="M239.0376,-206.7C222.5448,-206.7 213.7813,-206.7 192,-206.7"/>
<polygon fill="#000000" stroke="#000000" points="245.5,-206.7001 253.5,-210.3 249.5,-206.7 253.5,-206.7 253.5,-206.7 253.5,-206.7 249.5,-206.7 253.5,-203.1 245.5,-206.7001 245.5,-206.7001"/>
<ellipse fill="none" stroke="#000000" cx="242.3" cy="-206.7001" rx="3.2" ry="3.2"/>
</g>
<!-- common_dealerzone -->
<g id="node5" class="node">
<title>common_dealerzone</title>
<g id="a_node5"><a xlink:href="../../tables/common_dealerzone.html" xlink:title="common_dealerzone" target="_top">
<polygon fill="#ffffff" stroke="transparent" points="259.5,-448.2 259.5,-509.2 417.5,-509.2 417.5,-448.2 259.5,-448.2"/>
<polygon fill="#f5f5f5" stroke="transparent" points="259.5,-485.7 259.5,-508.7 417.5,-508.7 417.5,-485.7 259.5,-485.7"/>
<polygon fill="none" stroke="#000000" points="259.5,-485.7 259.5,-508.7 417.5,-508.7 417.5,-485.7 259.5,-485.7"/>
<text text-anchor="start" x="264.5" y="-494.3" font-family="Helvetica,sans-Serif" font-weight="bold" font-size="11.00" fill="#000000">common_dealerzone</text>
<text text-anchor="start" x="383.0219" y="-493.8" font-family="Helvetica,sans-Serif" font-size="11.00" fill="#000000">[table]</text>
<polygon fill="none" stroke="#000000" points="259.5,-466.7 259.5,-485.7 417.5,-485.7 417.5,-466.7 259.5,-466.7"/>
<text text-anchor="start" x="262.5" y="-472.8" font-family="Helvetica,sans-Serif" font-size="11.00" fill="#000000">...</text>
<polygon fill="#ffffff" stroke="transparent" points="259.5,-447.7 259.5,-466.7 320.5,-466.7 320.5,-447.7 259.5,-447.7"/>
<polygon fill="none" stroke="#000000" points="259.5,-447.7 259.5,-466.7 320.5,-466.7 320.5,-447.7 259.5,-447.7"/>
<text text-anchor="start" x="262.5" y="-453.8" font-family="Helvetica,sans-Serif" font-size="11.00" fill="#000000">&lt; 2</text>
<polygon fill="#ffffff" stroke="transparent" points="320.5,-447.7 320.5,-466.7 384.5,-466.7 384.5,-447.7 320.5,-447.7"/>
<polygon fill="none" stroke="#000000" points="320.5,-447.7 320.5,-466.7 384.5,-466.7 384.5,-447.7 320.5,-447.7"/>
<text text-anchor="start" x="342.9956" y="-453.8" font-family="Helvetica,sans-Serif" font-size="11.00" fill="#000000">52 rows</text>
<polygon fill="#ffffff" stroke="transparent" points="384.5,-447.7 384.5,-466.7 417.5,-466.7 417.5,-447.7 384.5,-447.7"/>
<polygon fill="none" stroke="#000000" points="384.5,-447.7 384.5,-466.7 417.5,-466.7 417.5,-447.7 384.5,-447.7"/>
<text text-anchor="start" x="408.3862" y="-453.8" font-family="Helvetica,sans-Serif" font-size="11.00" fill="#000000"> &#160;</text>
</a>
</g>
</g>
<!-- common_dealerzone&#45;&gt;common_dealer -->
<g id="edge4" class="edge">
<title>common_dealerzone:w&#45;&gt;common_dealer:e</title>
<path fill="none" stroke="#000000" d="M245.1642,-471.6189C229.7193,-461.2484 228.6777,-434.7 204,-434.7"/>
<polygon fill="#000000" stroke="#000000" points="251.8057,-473.5095 258.5143,-479.1624 255.6529,-474.6048 259.5,-475.7 259.5,-475.7 259.5,-475.7 255.6529,-474.6048 260.4857,-472.2376 251.8057,-473.5095 251.8057,-473.5095"/>
<ellipse fill="none" stroke="#000000" cx="248.728" cy="-472.6334" rx="3.2" ry="3.2"/>
</g>
<!-- order_bookingitem -->
<g id="node7" class="node">
<title>order_bookingitem</title>
<g id="a_node7"><a xlink:href="../../tables/order_bookingitem.html" xlink:title="order_bookingitem" target="_top">
<polygon fill="#ffffff" stroke="transparent" points="535.5,-120.2 535.5,-181.2 682.5,-181.2 682.5,-120.2 535.5,-120.2"/>
<polygon fill="#f5f5f5" stroke="transparent" points="536,-157.7 536,-180.7 683,-180.7 683,-157.7 536,-157.7"/>
<polygon fill="none" stroke="#000000" points="536,-157.7 536,-180.7 683,-180.7 683,-157.7 536,-157.7"/>
<text text-anchor="start" x="541" y="-166.3" font-family="Helvetica,sans-Serif" font-weight="bold" font-size="11.00" fill="#000000">order_bookingitem</text>
<text text-anchor="start" x="648.5219" y="-165.8" font-family="Helvetica,sans-Serif" font-size="11.00" fill="#000000">[table]</text>
<polygon fill="none" stroke="#000000" points="536,-138.7 536,-157.7 683,-157.7 683,-138.7 536,-138.7"/>
<text text-anchor="start" x="539" y="-144.8" font-family="Helvetica,sans-Serif" font-size="11.00" fill="#000000">...</text>
<polygon fill="#ffffff" stroke="transparent" points="536,-119.7 536,-138.7 592,-138.7 592,-119.7 536,-119.7"/>
<polygon fill="none" stroke="#000000" points="536,-119.7 536,-138.7 592,-138.7 592,-119.7 536,-119.7"/>
<text text-anchor="start" x="539" y="-125.8" font-family="Helvetica,sans-Serif" font-size="11.00" fill="#000000">&lt; 2</text>
<polygon fill="#ffffff" stroke="transparent" points="592,-119.7 592,-138.7 653,-138.7 653,-119.7 592,-119.7"/>
<polygon fill="none" stroke="#000000" points="592,-119.7 592,-138.7 653,-138.7 653,-119.7 592,-119.7"/>
<text text-anchor="start" x="611.4956" y="-125.8" font-family="Helvetica,sans-Serif" font-size="11.00" fill="#000000">62 rows</text>
<polygon fill="#ffffff" stroke="transparent" points="653,-119.7 653,-138.7 683,-138.7 683,-119.7 653,-119.7"/>
<polygon fill="none" stroke="#000000" points="653,-119.7 653,-138.7 683,-138.7 683,-119.7 653,-119.7"/>
<text text-anchor="start" x="673.8862" y="-125.8" font-family="Helvetica,sans-Serif" font-size="11.00" fill="#000000"> &#160;</text>
</a>
</g>
</g>
<!-- order_bookingitem&#45;&gt;common_product -->
<g id="edge6" class="edge">
<title>order_bookingitem:w&#45;&gt;common_product:e</title>
<path fill="none" stroke="#000000" d="M521.4498,-149.0601C497.051,-154.1317 490.2139,-172.6303 465,-191.7 445.5545,-206.4069 448.8807,-228.7 424.5,-228.7"/>
<polygon fill="#000000" stroke="#000000" points="528.0347,-148.4446 536.3351,-151.2844 532.0174,-148.0723 536,-147.7 536,-147.7 536,-147.7 532.0174,-148.0723 535.6649,-144.1156 528.0347,-148.4446 528.0347,-148.4446"/>
<ellipse fill="none" stroke="#000000" cx="524.8486" cy="-148.7425" rx="3.2" ry="3.2"/>
</g>
<!-- order_inventory -->
<g id="node8" class="node">
<title>order_inventory</title>
<g id="a_node8"><a xlink:href="../../tables/order_inventory.html" xlink:title="order_inventory" target="_top">
<polygon fill="#ffffff" stroke="transparent" points="544,-38.2 544,-99.2 674,-99.2 674,-38.2 544,-38.2"/>
<polygon fill="#f5f5f5" stroke="transparent" points="544,-75.7 544,-98.7 674,-98.7 674,-75.7 544,-75.7"/>
<polygon fill="none" stroke="#000000" points="544,-75.7 544,-98.7 674,-98.7 674,-75.7 544,-75.7"/>
<text text-anchor="start" x="549" y="-84.3" font-family="Helvetica,sans-Serif" font-weight="bold" font-size="11.00" fill="#000000">order_inventory</text>
<text text-anchor="start" x="639.5219" y="-83.8" font-family="Helvetica,sans-Serif" font-size="11.00" fill="#000000">[table]</text>
<polygon fill="none" stroke="#000000" points="544,-56.7 544,-75.7 674,-75.7 674,-56.7 544,-56.7"/>
<text text-anchor="start" x="547" y="-62.8" font-family="Helvetica,sans-Serif" font-size="11.00" fill="#000000">...</text>
<polygon fill="#ffffff" stroke="transparent" points="544,-37.7 544,-56.7 588,-56.7 588,-37.7 544,-37.7"/>
<polygon fill="none" stroke="#000000" points="544,-37.7 544,-56.7 588,-56.7 588,-37.7 544,-37.7"/>
<text text-anchor="start" x="547" y="-43.8" font-family="Helvetica,sans-Serif" font-size="11.00" fill="#000000">&lt; 1</text>
<polygon fill="#ffffff" stroke="transparent" points="588,-37.7 588,-56.7 650,-56.7 650,-37.7 588,-37.7"/>
<polygon fill="none" stroke="#000000" points="588,-37.7 588,-56.7 650,-56.7 650,-37.7 588,-37.7"/>
<text text-anchor="start" x="602.3807" y="-43.8" font-family="Helvetica,sans-Serif" font-size="11.00" fill="#000000">136 rows</text>
<polygon fill="#ffffff" stroke="transparent" points="650,-37.7 650,-56.7 674,-56.7 674,-37.7 650,-37.7"/>
<polygon fill="none" stroke="#000000" points="650,-37.7 650,-56.7 674,-56.7 674,-37.7 650,-37.7"/>
<text text-anchor="start" x="664.8862" y="-43.8" font-family="Helvetica,sans-Serif" font-size="11.00" fill="#000000"> &#160;</text>
</a>
</g>
</g>
<!-- order_inventory&#45;&gt;common_product -->
<g id="edge7" class="edge">
<title>order_inventory:w&#45;&gt;common_product:e</title>
<path fill="none" stroke="#000000" d="M529.3291,-66.4061C500.1167,-69.503 487.3276,-82.9392 465,-109.7 429.2087,-152.5978 480.368,-228.7 424.5,-228.7"/>
<polygon fill="#000000" stroke="#000000" points="536.0092,-66.0846 544.1731,-69.2958 540.0046,-65.8923 544,-65.7 544,-65.7 544,-65.7 540.0046,-65.8923 543.8269,-62.1042 536.0092,-66.0846 536.0092,-66.0846"/>
<ellipse fill="none" stroke="#000000" cx="532.8129" cy="-66.2385" rx="3.2" ry="3.2"/>
</g>
<!-- order_itemserialno -->
<g id="node9" class="node">
<title>order_itemserialno</title>
<g id="a_node9"><a xlink:href="../../tables/order_itemserialno.html" xlink:title="order_itemserialno" target="_top">
<polygon fill="#ffffff" stroke="transparent" points="535.5,-284.2 535.5,-345.2 682.5,-345.2 682.5,-284.2 535.5,-284.2"/>
<polygon fill="#f5f5f5" stroke="transparent" points="536,-321.7 536,-344.7 683,-344.7 683,-321.7 536,-321.7"/>
<polygon fill="none" stroke="#000000" points="536,-321.7 536,-344.7 683,-344.7 683,-321.7 536,-321.7"/>
<text text-anchor="start" x="541" y="-330.3" font-family="Helvetica,sans-Serif" font-weight="bold" font-size="11.00" fill="#000000">order_itemserialno</text>
<text text-anchor="start" x="648.5219" y="-329.8" font-family="Helvetica,sans-Serif" font-size="11.00" fill="#000000">[table]</text>
<polygon fill="none" stroke="#000000" points="536,-302.7 536,-321.7 683,-321.7 683,-302.7 536,-302.7"/>
<text text-anchor="start" x="539" y="-308.8" font-family="Helvetica,sans-Serif" font-size="11.00" fill="#000000">...</text>
<polygon fill="#ffffff" stroke="transparent" points="536,-283.7 536,-302.7 577,-302.7 577,-283.7 536,-283.7"/>
<polygon fill="none" stroke="#000000" points="536,-283.7 536,-302.7 577,-302.7 577,-283.7 536,-283.7"/>
<text text-anchor="start" x="539" y="-289.8" font-family="Helvetica,sans-Serif" font-size="11.00" fill="#000000">&lt; 2</text>
<polygon fill="#ffffff" stroke="transparent" points="577,-283.7 577,-302.7 652,-302.7 652,-283.7 577,-283.7"/>
<polygon fill="none" stroke="#000000" points="577,-283.7 577,-302.7 652,-302.7 652,-283.7 577,-283.7"/>
<text text-anchor="start" x="589.094" y="-289.8" font-family="Helvetica,sans-Serif" font-size="11.00" fill="#000000">19,002 rows</text>
<polygon fill="#ffffff" stroke="transparent" points="652,-283.7 652,-302.7 683,-302.7 683,-283.7 652,-283.7"/>
<polygon fill="none" stroke="#000000" points="652,-283.7 652,-302.7 683,-302.7 683,-283.7 652,-283.7"/>
<text text-anchor="start" x="664.4053" y="-289.8" font-family="Helvetica,sans-Serif" font-size="11.00" fill="#000000">1 &gt;</text>
</a>
</g>
</g>
<!-- order_itemserialno&#45;&gt;common_product -->
<g id="edge8" class="edge">
<title>order_itemserialno:w&#45;&gt;common_product:e</title>
<path fill="none" stroke="#000000" d="M521.468,-310.6259C497.5742,-306.7055 488.8794,-292.4134 465,-273.7 443.8213,-257.103 451.4072,-228.7 424.5,-228.7"/>
<polygon fill="#000000" stroke="#000000" points="528.0218,-311.1102 535.7346,-315.2902 532.0109,-311.4051 536,-311.7 536,-311.7 536,-311.7 532.0109,-311.4051 536.2654,-308.1098 528.0218,-311.1102 528.0218,-311.1102"/>
<ellipse fill="none" stroke="#000000" cx="524.8305" cy="-310.8743" rx="3.2" ry="3.2"/>
</g>
<!-- order_receiveitem -->
<g id="node10" class="node">
<title>order_receiveitem</title>
<g id="a_node10"><a xlink:href="../../tables/order_receiveitem.html" xlink:title="order_receiveitem" target="_top">
<polygon fill="#ffffff" stroke="transparent" points="538,-202.2 538,-263.2 680,-263.2 680,-202.2 538,-202.2"/>
<polygon fill="#f5f5f5" stroke="transparent" points="538,-239.7 538,-262.7 680,-262.7 680,-239.7 538,-239.7"/>
<polygon fill="none" stroke="#000000" points="538,-239.7 538,-262.7 680,-262.7 680,-239.7 538,-239.7"/>
<text text-anchor="start" x="543" y="-248.3" font-family="Helvetica,sans-Serif" font-weight="bold" font-size="11.00" fill="#000000">order_receiveitem</text>
<text text-anchor="start" x="645.5219" y="-247.8" font-family="Helvetica,sans-Serif" font-size="11.00" fill="#000000">[table]</text>
<polygon fill="none" stroke="#000000" points="538,-220.7 538,-239.7 680,-239.7 680,-220.7 538,-220.7"/>
<text text-anchor="start" x="541" y="-226.8" font-family="Helvetica,sans-Serif" font-size="11.00" fill="#000000">...</text>
<polygon fill="#ffffff" stroke="transparent" points="538,-201.7 538,-220.7 581,-220.7 581,-201.7 538,-201.7"/>
<polygon fill="none" stroke="#000000" points="538,-201.7 538,-220.7 581,-220.7 581,-201.7 538,-201.7"/>
<text text-anchor="start" x="541" y="-207.8" font-family="Helvetica,sans-Serif" font-size="11.00" fill="#000000">&lt; 2</text>
<polygon fill="#ffffff" stroke="transparent" points="581,-201.7 581,-220.7 657,-220.7 657,-201.7 581,-201.7"/>
<polygon fill="none" stroke="#000000" points="581,-201.7 581,-220.7 657,-220.7 657,-201.7 581,-201.7"/>
<text text-anchor="start" x="594.094" y="-207.8" font-family="Helvetica,sans-Serif" font-size="11.00" fill="#000000">18,922 rows</text>
<polygon fill="#ffffff" stroke="transparent" points="657,-201.7 657,-220.7 680,-220.7 680,-201.7 657,-201.7"/>
<polygon fill="none" stroke="#000000" points="657,-201.7 657,-220.7 680,-220.7 680,-201.7 657,-201.7"/>
<text text-anchor="start" x="670.8862" y="-207.8" font-family="Helvetica,sans-Serif" font-size="11.00" fill="#000000"> &#160;</text>
</a>
</g>
</g>
<!-- order_receiveitem&#45;&gt;common_product -->
<g id="edge9" class="edge">
<title>order_receiveitem:w&#45;&gt;common_product:e</title>
<path fill="none" stroke="#000000" d="M523.4665,-229.6701C484.538,-229.5037 469.7244,-228.7 424.5,-228.7"/>
<polygon fill="#000000" stroke="#000000" points="530,-229.6835 537.9926,-233.3 534,-229.6917 538,-229.7 538,-229.7 538,-229.7 534,-229.6917 538.0074,-226.1 530,-229.6835 530,-229.6835"/>
<ellipse fill="none" stroke="#000000" cx="526.8" cy="-229.6769" rx="3.2" ry="3.2"/>
</g>
<!-- order_sale -->
<g id="node11" class="node">
<title>order_sale</title>
<g id="a_node11"><a xlink:href="../../tables/order_sale.html" xlink:title="order_sale" target="_top">
<polygon fill="#ffffff" stroke="transparent" points="289,-366.2 289,-427.2 388,-427.2 388,-366.2 289,-366.2"/>
<polygon fill="#f5f5f5" stroke="transparent" points="289.5,-403.7 289.5,-426.7 388.5,-426.7 388.5,-403.7 289.5,-403.7"/>
<polygon fill="none" stroke="#000000" points="289.5,-403.7 289.5,-426.7 388.5,-426.7 388.5,-403.7 289.5,-403.7"/>
<text text-anchor="start" x="294.5" y="-412.3" font-family="Helvetica,sans-Serif" font-weight="bold" font-size="11.00" fill="#000000">order_sale</text>
<text text-anchor="start" x="354.0219" y="-411.8" font-family="Helvetica,sans-Serif" font-size="11.00" fill="#000000">[table]</text>
<polygon fill="none" stroke="#000000" points="289.5,-384.7 289.5,-403.7 388.5,-403.7 388.5,-384.7 289.5,-384.7"/>
<text text-anchor="start" x="292.5" y="-390.8" font-family="Helvetica,sans-Serif" font-size="11.00" fill="#000000">...</text>
<polygon fill="#ffffff" stroke="transparent" points="289.5,-365.7 289.5,-384.7 313.5,-384.7 313.5,-365.7 289.5,-365.7"/>
<polygon fill="none" stroke="#000000" points="289.5,-365.7 289.5,-384.7 313.5,-384.7 313.5,-365.7 289.5,-365.7"/>
<text text-anchor="start" x="292.5" y="-371.8" font-family="Helvetica,sans-Serif" font-size="11.00" fill="#000000">&lt; 2</text>
<polygon fill="#ffffff" stroke="transparent" points="313.5,-365.7 313.5,-384.7 365.5,-384.7 365.5,-365.7 313.5,-365.7"/>
<polygon fill="none" stroke="#000000" points="313.5,-365.7 313.5,-384.7 365.5,-384.7 365.5,-365.7 313.5,-365.7"/>
<text text-anchor="start" x="317.8807" y="-371.8" font-family="Helvetica,sans-Serif" font-size="11.00" fill="#000000">389 rows</text>
<polygon fill="#ffffff" stroke="transparent" points="365.5,-365.7 365.5,-384.7 388.5,-384.7 388.5,-365.7 365.5,-365.7"/>
<polygon fill="none" stroke="#000000" points="365.5,-365.7 365.5,-384.7 388.5,-384.7 388.5,-365.7 365.5,-365.7"/>
<text text-anchor="start" x="369.9053" y="-371.8" font-family="Helvetica,sans-Serif" font-size="11.00" fill="#000000">1 &gt;</text>
</a>
</g>
</g>
<!-- order_sale&#45;&gt;common_dealer -->
<g id="edge10" class="edge">
<title>order_sale:w&#45;&gt;common_dealer:e</title>
<path fill="none" stroke="#000000" d="M275.0675,-395.5682C246.3638,-403.589 240.7107,-434.7 204,-434.7"/>
<polygon fill="#000000" stroke="#000000" points="281.5662,-394.727 289.9622,-397.2702 285.5331,-394.2135 289.5,-393.7 289.5,-393.7 289.5,-393.7 285.5331,-394.2135 289.0378,-390.1298 281.5662,-394.727 281.5662,-394.727"/>
<ellipse fill="none" stroke="#000000" cx="278.3927" cy="-395.1379" rx="3.2" ry="3.2"/>
</g>
<!-- order_saleitem -->
<g id="node12" class="node">
<title>order_saleitem</title>
<g id="a_node12"><a xlink:href="../../tables/order_saleitem.html" xlink:title="order_saleitem" target="_top">
<polygon fill="#ffffff" stroke="transparent" points="547,-366.2 547,-427.2 671,-427.2 671,-366.2 547,-366.2"/>
<polygon fill="#f5f5f5" stroke="transparent" points="547,-403.7 547,-426.7 671,-426.7 671,-403.7 547,-403.7"/>
<polygon fill="none" stroke="#000000" points="547,-403.7 547,-426.7 671,-426.7 671,-403.7 547,-403.7"/>
<text text-anchor="start" x="552" y="-412.3" font-family="Helvetica,sans-Serif" font-weight="bold" font-size="11.00" fill="#000000">order_saleitem</text>
<text text-anchor="start" x="636.5219" y="-411.8" font-family="Helvetica,sans-Serif" font-size="11.00" fill="#000000">[table]</text>
<polygon fill="none" stroke="#000000" points="547,-384.7 547,-403.7 671,-403.7 671,-384.7 547,-384.7"/>
<text text-anchor="start" x="550" y="-390.8" font-family="Helvetica,sans-Serif" font-size="11.00" fill="#000000">...</text>
<polygon fill="#ffffff" stroke="transparent" points="547,-365.7 547,-384.7 588,-384.7 588,-365.7 547,-365.7"/>
<polygon fill="none" stroke="#000000" points="547,-365.7 547,-384.7 588,-384.7 588,-365.7 547,-365.7"/>
<text text-anchor="start" x="550" y="-371.8" font-family="Helvetica,sans-Serif" font-size="11.00" fill="#000000">&lt; 2</text>
<polygon fill="#ffffff" stroke="transparent" points="588,-365.7 588,-384.7 648,-384.7 648,-365.7 588,-365.7"/>
<polygon fill="none" stroke="#000000" points="588,-365.7 588,-384.7 648,-384.7 648,-365.7 588,-365.7"/>
<text text-anchor="start" x="600.3807" y="-371.8" font-family="Helvetica,sans-Serif" font-size="11.00" fill="#000000">659 rows</text>
<polygon fill="#ffffff" stroke="transparent" points="648,-365.7 648,-384.7 671,-384.7 671,-365.7 648,-365.7"/>
<polygon fill="none" stroke="#000000" points="648,-365.7 648,-384.7 671,-384.7 671,-365.7 648,-365.7"/>
<text text-anchor="start" x="661.8862" y="-371.8" font-family="Helvetica,sans-Serif" font-size="11.00" fill="#000000"> &#160;</text>
</a>
</g>
</g>
<!-- order_saleitem&#45;&gt;common_product -->
<g id="edge11" class="edge">
<title>order_saleitem:w&#45;&gt;common_product:e</title>
<path fill="none" stroke="#000000" d="M532.2288,-393.2496C502.5788,-391.2156 488.0407,-381.8237 465,-355.7 425.8114,-311.2677 483.745,-228.7 424.5,-228.7"/>
<polygon fill="#000000" stroke="#000000" points="539.0037,-393.4561 546.8903,-397.2983 543.0019,-393.5781 547,-393.7 547,-393.7 547,-393.7 543.0019,-393.5781 547.1097,-390.1017 539.0037,-393.4561 539.0037,-393.4561"/>
<ellipse fill="none" stroke="#000000" cx="535.8052" cy="-393.3586" rx="3.2" ry="3.2"/>
</g>
<!-- order_saleitem&#45;&gt;order_sale -->
<g id="edge12" class="edge">
<title>order_saleitem:w&#45;&gt;order_sale:e</title>
<path fill="none" stroke="#000000" d="M532.5157,-393.7C473.7343,-393.7 453.8537,-393.7 388.5,-393.7"/>
<polygon fill="#000000" stroke="#000000" points="539,-393.7001 547,-397.3 543,-393.7 547,-393.7 547,-393.7 547,-393.7 543,-393.7 547,-390.1 539,-393.7001 539,-393.7001"/>
<ellipse fill="none" stroke="#000000" cx="535.8" cy="-393.7001" rx="3.2" ry="3.2"/>
</g>
</g>
</svg>
