<?xml version="1.0" encoding="UTF-8" standalone="no"?>
<!DOCTYPE svg PUBLIC "-//W3C//DTD SVG 1.1//EN"
 "http://www.w3.org/Graphics/SVG/1.1/DTD/svg11.dtd">
<!-- Generated by graphviz version 2.40.1 (20161225.0304)
 -->
<!-- Title: oneDegreeRelationshipsDiagram Pages: 1 -->
<svg width="759pt" height="1235pt"
 viewBox="0.00 0.00 759.00 1234.70" xmlns="http://www.w3.org/2000/svg" xmlns:xlink="http://www.w3.org/1999/xlink">
<g id="graph0" class="graph" transform="scale(1 1) rotate(0) translate(4 1230.7)">
<title>oneDegreeRelationshipsDiagram</title>
<polygon fill="#ffffff" stroke="transparent" points="-4,4 -4,-1230.7 755,-1230.7 755,4 -4,4"/>
<text text-anchor="middle" x="72.4936" y="-7.3" font-family="Helvetica,sans-Serif" font-size="11.00" fill="#000000">Generated by SchemaSpy</text>
<!-- common_dealerproduct -->
<g id="node1" class="node">
<title>common_dealerproduct</title>
<g id="a_node1"><a xlink:href="../../tables/common_dealerproduct.html" xlink:title="common_dealerproduct" target="_top">
<polygon fill="#ffffff" stroke="transparent" points="567.5,-1095.7 567.5,-1222.7 742.5,-1222.7 742.5,-1095.7 567.5,-1095.7"/>
<polygon fill="#f5f5f5" stroke="transparent" points="568,-1199.2 568,-1222.2 743,-1222.2 743,-1199.2 568,-1199.2"/>
<polygon fill="none" stroke="#000000" points="568,-1199.2 568,-1222.2 743,-1222.2 743,-1199.2 568,-1199.2"/>
<text text-anchor="start" x="573" y="-1207.8" font-family="Helvetica,sans-Serif" font-weight="bold" font-size="11.00" fill="#000000">common_dealerproduct</text>
<text text-anchor="start" x="708.5219" y="-1207.3" font-family="Helvetica,sans-Serif" font-size="11.00" fill="#000000">[table]</text>
<polygon fill="none" stroke="#000000" points="568,-1177.2 568,-1199.2 743,-1199.2 743,-1177.2 568,-1177.2"/>
<image xlink:href="../../images/primaryKeys.png" width="11px" height="12px" preserveAspectRatio="xMinYMin meet" x="573" y="-1194.2"/>
<text text-anchor="start" x="597" y="-1184.3" font-family="Helvetica,sans-Serif" font-size="11.00" fill="#000000">ID</text>
<polygon fill="#ffffff" stroke="transparent" points="568,-1155.2 568,-1177.2 743,-1177.2 743,-1155.2 568,-1155.2"/>
<polygon fill="none" stroke="#000000" points="568,-1155.2 568,-1177.2 743,-1177.2 743,-1155.2 568,-1155.2"/>
<image xlink:href="../../images/foreignKeys.png" width="11px" height="12px" preserveAspectRatio="xMinYMin meet" x="573" y="-1172.2"/>
<text text-anchor="start" x="597" y="-1162.3" font-family="Helvetica,sans-Serif" font-size="11.00" fill="#000000">Common_DealerFK</text>
<polygon fill="#ffffff" stroke="transparent" points="568,-1133.2 568,-1155.2 743,-1155.2 743,-1133.2 568,-1133.2"/>
<polygon fill="none" stroke="#000000" points="568,-1133.2 568,-1155.2 743,-1155.2 743,-1133.2 568,-1133.2"/>
<image xlink:href="../../images/foreignKeys.png" width="11px" height="12px" preserveAspectRatio="xMinYMin meet" x="573" y="-1150.2"/>
<text text-anchor="start" x="597" y="-1140.3" font-family="Helvetica,sans-Serif" font-size="11.00" fill="#000000">Common_ProductFK</text>
<polygon fill="none" stroke="#000000" points="568,-1114.2 568,-1133.2 743,-1133.2 743,-1114.2 568,-1114.2"/>
<text text-anchor="start" x="571" y="-1120.3" font-family="Helvetica,sans-Serif" font-size="11.00" fill="#000000">...</text>
<polygon fill="#ffffff" stroke="transparent" points="568,-1095.2 568,-1114.2 635,-1114.2 635,-1095.2 568,-1095.2"/>
<polygon fill="none" stroke="#000000" points="568,-1095.2 568,-1114.2 635,-1114.2 635,-1095.2 568,-1095.2"/>
<text text-anchor="start" x="571" y="-1101.3" font-family="Helvetica,sans-Serif" font-size="11.00" fill="#000000">&lt; 2</text>
<polygon fill="#ffffff" stroke="transparent" points="635,-1095.2 635,-1114.2 708,-1114.2 708,-1095.2 635,-1095.2"/>
<polygon fill="none" stroke="#000000" points="635,-1095.2 635,-1114.2 708,-1114.2 708,-1095.2 635,-1095.2"/>
<text text-anchor="start" x="660.3807" y="-1101.3" font-family="Helvetica,sans-Serif" font-size="11.00" fill="#000000">427 rows</text>
<polygon fill="#ffffff" stroke="transparent" points="708,-1095.2 708,-1114.2 743,-1114.2 743,-1095.2 708,-1095.2"/>
<polygon fill="none" stroke="#000000" points="708,-1095.2 708,-1114.2 743,-1114.2 743,-1095.2 708,-1095.2"/>
<text text-anchor="start" x="733.8862" y="-1101.3" font-family="Helvetica,sans-Serif" font-size="11.00" fill="#000000"> &#160;</text>
</a>
</g>
</g>
<!-- common_product -->
<g id="node2" class="node">
<title>common_product</title>
<g id="a_node2"><a xlink:href="../../tables/common_product.html" xlink:title="common_product" target="_top">
<polygon fill="#ffffff" stroke="transparent" points="229,-38.2 229,-832.2 518,-832.2 518,-38.2 229,-38.2"/>
<polygon fill="#f5f5f5" stroke="transparent" points="231.5,-807.2 231.5,-830.2 516.5,-830.2 516.5,-807.2 231.5,-807.2"/>
<polygon fill="none" stroke="#000000" points="231.5,-807.2 231.5,-830.2 516.5,-830.2 516.5,-807.2 231.5,-807.2"/>
<text text-anchor="start" x="236.5" y="-815.8" font-family="Helvetica,sans-Serif" font-weight="bold" font-size="11.00" fill="#000000">common_product</text>
<text text-anchor="start" x="481.5437" y="-815.3" font-family="Helvetica,sans-Serif" font-size="11.00" fill="#000000">[table]</text>
<polygon fill="none" stroke="#000000" points="231.5,-785.2 231.5,-807.2 402.5,-807.2 402.5,-785.2 231.5,-785.2"/>
<image xlink:href="../../images/primaryKeys.png" width="11px" height="12px" preserveAspectRatio="xMinYMin meet" x="236.5" y="-802.2"/>
<text text-anchor="start" x="251.5" y="-792.3" font-family="Helvetica,sans-Serif" font-size="11.00" fill="#000000">ID</text>
<polygon fill="none" stroke="#000000" points="402.5,-785.2 402.5,-807.2 516.5,-807.2 516.5,-785.2 402.5,-785.2"/>
<text text-anchor="start" x="405.5" y="-792.9" font-family="Helvetica,sans-Serif" font-size="11.00" fill="#000000">int[10]</text>
<polygon fill="none" stroke="#000000" points="231.5,-763.2 231.5,-785.2 402.5,-785.2 402.5,-763.2 231.5,-763.2"/>
<text text-anchor="start" x="251.5" y="-770.3" font-family="Helvetica,sans-Serif" font-size="11.00" fill="#000000">Active</text>
<polygon fill="none" stroke="#000000" points="402.5,-763.2 402.5,-785.2 516.5,-785.2 516.5,-763.2 402.5,-763.2"/>
<text text-anchor="start" x="405.5" y="-770.9" font-family="Helvetica,sans-Serif" font-size="11.00" fill="#000000">bit[1]</text>
<polygon fill="none" stroke="#000000" points="231.5,-741.2 231.5,-763.2 402.5,-763.2 402.5,-741.2 231.5,-741.2"/>
<text text-anchor="start" x="251.5" y="-748.3" font-family="Helvetica,sans-Serif" font-size="11.00" fill="#000000">User</text>
<polygon fill="none" stroke="#000000" points="402.5,-741.2 402.5,-763.2 516.5,-763.2 516.5,-741.2 402.5,-741.2"/>
<text text-anchor="start" x="405.5" y="-748.9" font-family="Helvetica,sans-Serif" font-size="11.00" fill="#000000">longtext[2147483647]</text>
<polygon fill="none" stroke="#000000" points="231.5,-719.2 231.5,-741.2 402.5,-741.2 402.5,-719.2 231.5,-719.2"/>
<text text-anchor="start" x="251.5" y="-726.3" font-family="Helvetica,sans-Serif" font-size="11.00" fill="#000000">CD</text>
<polygon fill="none" stroke="#000000" points="402.5,-719.2 402.5,-741.2 516.5,-741.2 516.5,-719.2 402.5,-719.2"/>
<text text-anchor="start" x="405.5" y="-726.9" font-family="Helvetica,sans-Serif" font-size="11.00" fill="#000000">datetime[26]</text>
<polygon fill="none" stroke="#000000" points="231.5,-697.2 231.5,-719.2 402.5,-719.2 402.5,-697.2 231.5,-697.2"/>
<text text-anchor="start" x="251.5" y="-704.3" font-family="Helvetica,sans-Serif" font-size="11.00" fill="#000000">UD</text>
<polygon fill="none" stroke="#000000" points="402.5,-697.2 402.5,-719.2 516.5,-719.2 516.5,-697.2 402.5,-697.2"/>
<text text-anchor="start" x="405.5" y="-704.9" font-family="Helvetica,sans-Serif" font-size="11.00" fill="#000000">datetime[26]</text>
<polygon fill="none" stroke="#000000" points="231.5,-675.2 231.5,-697.2 402.5,-697.2 402.5,-675.2 231.5,-675.2"/>
<text text-anchor="start" x="251.5" y="-682.3" font-family="Helvetica,sans-Serif" font-size="11.00" fill="#000000">Remarks</text>
<polygon fill="none" stroke="#000000" points="402.5,-675.2 402.5,-697.2 516.5,-697.2 516.5,-675.2 402.5,-675.2"/>
<text text-anchor="start" x="405.5" y="-682.9" font-family="Helvetica,sans-Serif" font-size="11.00" fill="#000000">longtext[2147483647]</text>
<polygon fill="none" stroke="#000000" points="231.5,-653.2 231.5,-675.2 402.5,-675.2 402.5,-653.2 231.5,-653.2"/>
<text text-anchor="start" x="251.5" y="-660.3" font-family="Helvetica,sans-Serif" font-size="11.00" fill="#000000">UserID</text>
<polygon fill="none" stroke="#000000" points="402.5,-653.2 402.5,-675.2 516.5,-675.2 516.5,-653.2 402.5,-653.2"/>
<text text-anchor="start" x="405.5" y="-660.9" font-family="Helvetica,sans-Serif" font-size="11.00" fill="#000000">int[10]</text>
<polygon fill="none" stroke="#000000" points="231.5,-631.2 231.5,-653.2 402.5,-653.2 402.5,-631.2 231.5,-631.2"/>
<text text-anchor="start" x="251.5" y="-638.3" font-family="Helvetica,sans-Serif" font-size="11.00" fill="#000000">Code</text>
<polygon fill="none" stroke="#000000" points="402.5,-631.2 402.5,-653.2 516.5,-653.2 516.5,-631.2 402.5,-631.2"/>
<text text-anchor="start" x="405.5" y="-638.9" font-family="Helvetica,sans-Serif" font-size="11.00" fill="#000000">longtext[2147483647]</text>
<polygon fill="none" stroke="#000000" points="231.5,-609.2 231.5,-631.2 402.5,-631.2 402.5,-609.2 231.5,-609.2"/>
<text text-anchor="start" x="251.5" y="-616.3" font-family="Helvetica,sans-Serif" font-size="11.00" fill="#000000">Name</text>
<polygon fill="none" stroke="#000000" points="402.5,-609.2 402.5,-631.2 516.5,-631.2 516.5,-609.2 402.5,-609.2"/>
<text text-anchor="start" x="405.5" y="-616.9" font-family="Helvetica,sans-Serif" font-size="11.00" fill="#000000">longtext[2147483647]</text>
<polygon fill="none" stroke="#000000" points="231.5,-587.2 231.5,-609.2 402.5,-609.2 402.5,-587.2 231.5,-587.2"/>
<text text-anchor="start" x="251.5" y="-594.3" font-family="Helvetica,sans-Serif" font-size="11.00" fill="#000000">ModelNo</text>
<polygon fill="none" stroke="#000000" points="402.5,-587.2 402.5,-609.2 516.5,-609.2 516.5,-587.2 402.5,-587.2"/>
<text text-anchor="start" x="405.5" y="-594.9" font-family="Helvetica,sans-Serif" font-size="11.00" fill="#000000">longtext[2147483647]</text>
<polygon fill="none" stroke="#000000" points="231.5,-565.2 231.5,-587.2 402.5,-587.2 402.5,-565.2 231.5,-565.2"/>
<text text-anchor="start" x="251.5" y="-572.3" font-family="Helvetica,sans-Serif" font-size="11.00" fill="#000000">Common_CategoryFK</text>
<polygon fill="none" stroke="#000000" points="402.5,-565.2 402.5,-587.2 516.5,-587.2 516.5,-565.2 402.5,-565.2"/>
<text text-anchor="start" x="405.5" y="-572.9" font-family="Helvetica,sans-Serif" font-size="11.00" fill="#000000">int[10]</text>
<polygon fill="none" stroke="#000000" points="231.5,-543.2 231.5,-565.2 402.5,-565.2 402.5,-543.2 231.5,-543.2"/>
<text text-anchor="start" x="251.5" y="-550.3" font-family="Helvetica,sans-Serif" font-size="11.00" fill="#000000">Common_SubCategoryFK</text>
<polygon fill="none" stroke="#000000" points="402.5,-543.2 402.5,-565.2 516.5,-565.2 516.5,-543.2 402.5,-543.2"/>
<text text-anchor="start" x="405.5" y="-550.9" font-family="Helvetica,sans-Serif" font-size="11.00" fill="#000000">int[10]</text>
<polygon fill="#ffffff" stroke="transparent" points="231.5,-521.2 231.5,-543.2 402.5,-543.2 402.5,-521.2 231.5,-521.2"/>
<polygon fill="none" stroke="#000000" points="231.5,-521.2 231.5,-543.2 402.5,-543.2 402.5,-521.2 231.5,-521.2"/>
<image xlink:href="../../images/foreignKeys.png" width="11px" height="12px" preserveAspectRatio="xMinYMin meet" x="236.5" y="-538.2"/>
<text text-anchor="start" x="251.5" y="-528.3" font-family="Helvetica,sans-Serif" font-size="11.00" fill="#000000">Common_ManufacturerFK</text>
<polygon fill="none" stroke="#000000" points="402.5,-521.2 402.5,-543.2 516.5,-543.2 516.5,-521.2 402.5,-521.2"/>
<text text-anchor="start" x="405.5" y="-528.9" font-family="Helvetica,sans-Serif" font-size="11.00" fill="#000000">int[10]</text>
<polygon fill="none" stroke="#000000" points="231.5,-499.2 231.5,-521.2 402.5,-521.2 402.5,-499.2 231.5,-499.2"/>
<text text-anchor="start" x="251.5" y="-506.3" font-family="Helvetica,sans-Serif" font-size="11.00" fill="#000000">Description</text>
<polygon fill="none" stroke="#000000" points="402.5,-499.2 402.5,-521.2 516.5,-521.2 516.5,-499.2 402.5,-499.2"/>
<text text-anchor="start" x="405.5" y="-506.9" font-family="Helvetica,sans-Serif" font-size="11.00" fill="#000000">longtext[2147483647]</text>
<polygon fill="none" stroke="#000000" points="231.5,-477.2 231.5,-499.2 402.5,-499.2 402.5,-477.2 231.5,-477.2"/>
<text text-anchor="start" x="251.5" y="-484.3" font-family="Helvetica,sans-Serif" font-size="11.00" fill="#000000">ProductImage</text>
<polygon fill="none" stroke="#000000" points="402.5,-477.2 402.5,-499.2 516.5,-499.2 516.5,-477.2 402.5,-477.2"/>
<text text-anchor="start" x="405.083" y="-484.9" font-family="Helvetica,sans-Serif" font-size="11.00" fill="#000000">longblob[2147483647]</text>
<polygon fill="none" stroke="#000000" points="231.5,-455.2 231.5,-477.2 402.5,-477.2 402.5,-455.2 231.5,-455.2"/>
<text text-anchor="start" x="251.5" y="-462.3" font-family="Helvetica,sans-Serif" font-size="11.00" fill="#000000">WarrentyDuration</text>
<polygon fill="none" stroke="#000000" points="402.5,-455.2 402.5,-477.2 516.5,-477.2 516.5,-455.2 402.5,-455.2"/>
<text text-anchor="start" x="405.5" y="-462.9" font-family="Helvetica,sans-Serif" font-size="11.00" fill="#000000">int[10]</text>
<polygon fill="none" stroke="#000000" points="231.5,-433.2 231.5,-455.2 402.5,-455.2 402.5,-433.2 231.5,-433.2"/>
<text text-anchor="start" x="251.5" y="-440.3" font-family="Helvetica,sans-Serif" font-size="11.00" fill="#000000">VatRate</text>
<polygon fill="none" stroke="#000000" points="402.5,-433.2 402.5,-455.2 516.5,-455.2 516.5,-433.2 402.5,-433.2"/>
<text text-anchor="start" x="405.5" y="-440.9" font-family="Helvetica,sans-Serif" font-size="11.00" fill="#000000">decimal[18,2]</text>
<polygon fill="none" stroke="#000000" points="231.5,-411.2 231.5,-433.2 402.5,-433.2 402.5,-411.2 231.5,-411.2"/>
<text text-anchor="start" x="251.5" y="-418.3" font-family="Helvetica,sans-Serif" font-size="11.00" fill="#000000">AITRate</text>
<polygon fill="none" stroke="#000000" points="402.5,-411.2 402.5,-433.2 516.5,-433.2 516.5,-411.2 402.5,-411.2"/>
<text text-anchor="start" x="405.5" y="-418.9" font-family="Helvetica,sans-Serif" font-size="11.00" fill="#000000">decimal[18,2]</text>
<polygon fill="none" stroke="#000000" points="231.5,-389.2 231.5,-411.2 402.5,-411.2 402.5,-389.2 231.5,-389.2"/>
<text text-anchor="start" x="251.5" y="-396.3" font-family="Helvetica,sans-Serif" font-size="11.00" fill="#000000">WithSerialNo</text>
<polygon fill="none" stroke="#000000" points="402.5,-389.2 402.5,-411.2 516.5,-411.2 516.5,-389.2 402.5,-389.2"/>
<text text-anchor="start" x="405.5" y="-396.9" font-family="Helvetica,sans-Serif" font-size="11.00" fill="#000000">bit[1]</text>
<polygon fill="none" stroke="#000000" points="231.5,-367.2 231.5,-389.2 402.5,-389.2 402.5,-367.2 231.5,-367.2"/>
<text text-anchor="start" x="251.5" y="-374.3" font-family="Helvetica,sans-Serif" font-size="11.00" fill="#000000">IsLock</text>
<polygon fill="none" stroke="#000000" points="402.5,-367.2 402.5,-389.2 516.5,-389.2 516.5,-367.2 402.5,-367.2"/>
<text text-anchor="start" x="405.5" y="-374.9" font-family="Helvetica,sans-Serif" font-size="11.00" fill="#000000">bit[1]</text>
<polygon fill="none" stroke="#000000" points="231.5,-345.2 231.5,-367.2 402.5,-367.2 402.5,-345.2 231.5,-345.2"/>
<text text-anchor="start" x="251.5" y="-352.3" font-family="Helvetica,sans-Serif" font-size="11.00" fill="#000000">Common_UnitFK</text>
<polygon fill="none" stroke="#000000" points="402.5,-345.2 402.5,-367.2 516.5,-367.2 516.5,-345.2 402.5,-345.2"/>
<text text-anchor="start" x="405.5" y="-352.9" font-family="Helvetica,sans-Serif" font-size="11.00" fill="#000000">int[10]</text>
<polygon fill="none" stroke="#000000" points="231.5,-323.2 231.5,-345.2 402.5,-345.2 402.5,-323.2 231.5,-323.2"/>
<text text-anchor="start" x="251.5" y="-330.3" font-family="Helvetica,sans-Serif" font-size="11.00" fill="#000000">Common_DealerFK</text>
<polygon fill="none" stroke="#000000" points="402.5,-323.2 402.5,-345.2 516.5,-345.2 516.5,-323.2 402.5,-323.2"/>
<text text-anchor="start" x="405.5" y="-330.9" font-family="Helvetica,sans-Serif" font-size="11.00" fill="#000000">int[10]</text>
<polygon fill="none" stroke="#000000" points="231.5,-301.2 231.5,-323.2 402.5,-323.2 402.5,-301.2 231.5,-301.2"/>
<text text-anchor="start" x="251.5" y="-308.3" font-family="Helvetica,sans-Serif" font-size="11.00" fill="#000000">IsBulk</text>
<polygon fill="none" stroke="#000000" points="402.5,-301.2 402.5,-323.2 516.5,-323.2 516.5,-301.2 402.5,-301.2"/>
<text text-anchor="start" x="405.5" y="-308.9" font-family="Helvetica,sans-Serif" font-size="11.00" fill="#000000">bit[1]</text>
<polygon fill="none" stroke="#000000" points="231.5,-279.2 231.5,-301.2 402.5,-301.2 402.5,-279.2 231.5,-279.2"/>
<text text-anchor="start" x="251.5" y="-286.3" font-family="Helvetica,sans-Serif" font-size="11.00" fill="#000000">IsPercent</text>
<polygon fill="none" stroke="#000000" points="402.5,-279.2 402.5,-301.2 516.5,-301.2 516.5,-279.2 402.5,-279.2"/>
<text text-anchor="start" x="405.5" y="-286.9" font-family="Helvetica,sans-Serif" font-size="11.00" fill="#000000">bit[1]</text>
<polygon fill="none" stroke="#000000" points="231.5,-257.2 231.5,-279.2 402.5,-279.2 402.5,-257.2 231.5,-257.2"/>
<text text-anchor="start" x="251.5" y="-264.3" font-family="Helvetica,sans-Serif" font-size="11.00" fill="#000000">PackLabel</text>
<polygon fill="none" stroke="#000000" points="402.5,-257.2 402.5,-279.2 516.5,-279.2 516.5,-257.2 402.5,-257.2"/>
<text text-anchor="start" x="405.5" y="-264.9" font-family="Helvetica,sans-Serif" font-size="11.00" fill="#000000">longtext[2147483647]</text>
<polygon fill="none" stroke="#000000" points="231.5,-235.2 231.5,-257.2 402.5,-257.2 402.5,-235.2 231.5,-235.2"/>
<text text-anchor="start" x="251.5" y="-242.3" font-family="Helvetica,sans-Serif" font-size="11.00" fill="#000000">PackPcs</text>
<polygon fill="none" stroke="#000000" points="402.5,-235.2 402.5,-257.2 516.5,-257.2 516.5,-235.2 402.5,-235.2"/>
<text text-anchor="start" x="405.5" y="-242.9" font-family="Helvetica,sans-Serif" font-size="11.00" fill="#000000">int[10]</text>
<polygon fill="none" stroke="#000000" points="231.5,-213.2 231.5,-235.2 402.5,-235.2 402.5,-213.2 231.5,-213.2"/>
<text text-anchor="start" x="251.5" y="-220.3" font-family="Helvetica,sans-Serif" font-size="11.00" fill="#000000">PurchasePrice</text>
<polygon fill="none" stroke="#000000" points="402.5,-213.2 402.5,-235.2 516.5,-235.2 516.5,-213.2 402.5,-213.2"/>
<text text-anchor="start" x="405.5" y="-220.9" font-family="Helvetica,sans-Serif" font-size="11.00" fill="#000000">decimal[18,5]</text>
<polygon fill="none" stroke="#000000" points="231.5,-191.2 231.5,-213.2 402.5,-213.2 402.5,-191.2 231.5,-191.2"/>
<text text-anchor="start" x="251.5" y="-198.3" font-family="Helvetica,sans-Serif" font-size="11.00" fill="#000000">RateSalePrice</text>
<polygon fill="none" stroke="#000000" points="402.5,-191.2 402.5,-213.2 516.5,-213.2 516.5,-191.2 402.5,-191.2"/>
<text text-anchor="start" x="405.5" y="-198.9" font-family="Helvetica,sans-Serif" font-size="11.00" fill="#000000">decimal[18,5]</text>
<polygon fill="none" stroke="#000000" points="231.5,-169.2 231.5,-191.2 402.5,-191.2 402.5,-169.2 231.5,-169.2"/>
<text text-anchor="start" x="251.5" y="-176.3" font-family="Helvetica,sans-Serif" font-size="11.00" fill="#000000">StockLimit</text>
<polygon fill="none" stroke="#000000" points="402.5,-169.2 402.5,-191.2 516.5,-191.2 516.5,-169.2 402.5,-169.2"/>
<text text-anchor="start" x="405.5" y="-176.9" font-family="Helvetica,sans-Serif" font-size="11.00" fill="#000000">int[10]</text>
<polygon fill="none" stroke="#000000" points="231.5,-147.2 231.5,-169.2 402.5,-169.2 402.5,-147.2 231.5,-147.2"/>
<image xlink:href="../../images/foreignKeys.png" width="11px" height="12px" preserveAspectRatio="xMinYMin meet" x="236.5" y="-164.2"/>
<text text-anchor="start" x="251.5" y="-154.3" font-family="Helvetica,sans-Serif" font-size="11.00" fill="#000000">Common_PackTypeID</text>
<polygon fill="none" stroke="#000000" points="402.5,-147.2 402.5,-169.2 516.5,-169.2 516.5,-147.2 402.5,-147.2"/>
<text text-anchor="start" x="405.5" y="-154.9" font-family="Helvetica,sans-Serif" font-size="11.00" fill="#000000">int[10]</text>
<polygon fill="none" stroke="#000000" points="231.5,-125.2 231.5,-147.2 402.5,-147.2 402.5,-125.2 231.5,-125.2"/>
<text text-anchor="start" x="251.5" y="-132.3" font-family="Helvetica,sans-Serif" font-size="11.00" fill="#000000">Contain_UnitFK</text>
<polygon fill="none" stroke="#000000" points="402.5,-125.2 402.5,-147.2 516.5,-147.2 516.5,-125.2 402.5,-125.2"/>
<text text-anchor="start" x="405.5" y="-132.9" font-family="Helvetica,sans-Serif" font-size="11.00" fill="#000000">int[10]</text>
<polygon fill="none" stroke="#000000" points="231.5,-103.2 231.5,-125.2 402.5,-125.2 402.5,-103.2 231.5,-103.2"/>
<text text-anchor="start" x="251.5" y="-110.3" font-family="Helvetica,sans-Serif" font-size="11.00" fill="#000000">IsRefillable</text>
<polygon fill="none" stroke="#000000" points="402.5,-103.2 402.5,-125.2 516.5,-125.2 516.5,-103.2 402.5,-103.2"/>
<text text-anchor="start" x="405.5" y="-110.9" font-family="Helvetica,sans-Serif" font-size="11.00" fill="#000000">bit[1]</text>
<polygon fill="none" stroke="#000000" points="231.5,-81.2 231.5,-103.2 402.5,-103.2 402.5,-81.2 231.5,-81.2"/>
<text text-anchor="start" x="251.5" y="-88.3" font-family="Helvetica,sans-Serif" font-size="11.00" fill="#000000">PcsInPack</text>
<polygon fill="none" stroke="#000000" points="402.5,-81.2 402.5,-103.2 516.5,-103.2 516.5,-81.2 402.5,-81.2"/>
<text text-anchor="start" x="405.5" y="-88.9" font-family="Helvetica,sans-Serif" font-size="11.00" fill="#000000">decimal[18,2]</text>
<polygon fill="none" stroke="#000000" points="231.5,-59.2 231.5,-81.2 402.5,-81.2 402.5,-59.2 231.5,-59.2"/>
<text text-anchor="start" x="251.5" y="-66.3" font-family="Helvetica,sans-Serif" font-size="11.00" fill="#000000">ImagePath</text>
<polygon fill="none" stroke="#000000" points="402.5,-59.2 402.5,-81.2 516.5,-81.2 516.5,-59.2 402.5,-59.2"/>
<text text-anchor="start" x="405.5" y="-66.9" font-family="Helvetica,sans-Serif" font-size="11.00" fill="#000000">longtext[2147483647]</text>
<polygon fill="#ffffff" stroke="transparent" points="231.5,-40.2 231.5,-59.2 305.5,-59.2 305.5,-40.2 231.5,-40.2"/>
<polygon fill="none" stroke="#000000" points="231.5,-40.2 231.5,-59.2 305.5,-59.2 305.5,-40.2 231.5,-40.2"/>
<text text-anchor="start" x="234.5" y="-46.3" font-family="Helvetica,sans-Serif" font-size="11.00" fill="#000000">&lt; 1</text>
<polygon fill="#ffffff" stroke="transparent" points="305.5,-40.2 305.5,-59.2 402.5,-59.2 402.5,-40.2 305.5,-40.2"/>
<polygon fill="none" stroke="#000000" points="305.5,-40.2 305.5,-59.2 402.5,-59.2 402.5,-40.2 305.5,-40.2"/>
<text text-anchor="start" x="360.9956" y="-46.3" font-family="Helvetica,sans-Serif" font-size="11.00" fill="#000000">54 rows</text>
<polygon fill="#ffffff" stroke="transparent" points="402.5,-40.2 402.5,-59.2 516.5,-59.2 516.5,-40.2 402.5,-40.2"/>
<polygon fill="none" stroke="#000000" points="402.5,-40.2 402.5,-59.2 516.5,-59.2 516.5,-40.2 402.5,-40.2"/>
<text text-anchor="start" x="497.9053" y="-46.3" font-family="Helvetica,sans-Serif" font-size="11.00" fill="#000000">6 &gt;</text>
<polygon fill="none" stroke="#000000" stroke-width="2" points="230,-39.2 230,-831.2 517,-831.2 517,-39.2 230,-39.2"/>
</a>
</g>
</g>
<!-- common_dealerproduct&#45;&gt;common_product -->
<g id="edge1" class="edge">
<title>common_dealerproduct:w&#45;&gt;common_product:e</title>
<path fill="none" stroke="#000000" d="M554.0972,-1139.2806C503.6643,-1096.983 589.1789,-796.2 516.5,-796.2"/>
<polygon fill="#000000" stroke="#000000" points="560.4582,-1141.5313 566.7991,-1147.5938 564.2291,-1142.8657 568,-1144.2 568,-1144.2 568,-1144.2 564.2291,-1142.8657 569.2009,-1140.8062 560.4582,-1141.5313 560.4582,-1141.5313"/>
<ellipse fill="none" stroke="#000000" cx="557.4415" cy="-1140.4639" rx="3.2" ry="3.2"/>
</g>
<!-- common_manufacturer -->
<g id="node3" class="node">
<title>common_manufacturer</title>
<g id="a_node3"><a xlink:href="../../tables/common_manufacturer.html" xlink:title="common_manufacturer" target="_top">
<polygon fill="#ffffff" stroke="transparent" points="8,-483.7 8,-566.7 180,-566.7 180,-483.7 8,-483.7"/>
<polygon fill="#f5f5f5" stroke="transparent" points="8,-543.2 8,-566.2 180,-566.2 180,-543.2 8,-543.2"/>
<polygon fill="none" stroke="#000000" points="8,-543.2 8,-566.2 180,-566.2 180,-543.2 8,-543.2"/>
<text text-anchor="start" x="13" y="-551.8" font-family="Helvetica,sans-Serif" font-weight="bold" font-size="11.00" fill="#000000">common_manufacturer</text>
<text text-anchor="start" x="145.5219" y="-551.3" font-family="Helvetica,sans-Serif" font-size="11.00" fill="#000000">[table]</text>
<polygon fill="none" stroke="#000000" points="8,-521.2 8,-543.2 180,-543.2 180,-521.2 8,-521.2"/>
<image xlink:href="../../images/primaryKeys.png" width="11px" height="12px" preserveAspectRatio="xMinYMin meet" x="13" y="-538.2"/>
<text text-anchor="start" x="37" y="-528.3" font-family="Helvetica,sans-Serif" font-size="11.00" fill="#000000">ID</text>
<polygon fill="none" stroke="#000000" points="8,-502.2 8,-521.2 180,-521.2 180,-502.2 8,-502.2"/>
<text text-anchor="start" x="11" y="-508.3" font-family="Helvetica,sans-Serif" font-size="11.00" fill="#000000">...</text>
<polygon fill="#ffffff" stroke="transparent" points="8,-483.2 8,-502.2 67,-502.2 67,-483.2 8,-483.2"/>
<polygon fill="none" stroke="#000000" points="8,-483.2 8,-502.2 67,-502.2 67,-483.2 8,-483.2"/>
<text text-anchor="start" x="11" y="-489.3" font-family="Helvetica,sans-Serif" font-size="11.00" fill="#000000"> &#160;</text>
<polygon fill="#ffffff" stroke="transparent" points="67,-483.2 67,-502.2 135,-502.2 135,-483.2 67,-483.2"/>
<polygon fill="none" stroke="#000000" points="67,-483.2 67,-502.2 135,-502.2 135,-483.2 67,-483.2"/>
<text text-anchor="start" x="93.4956" y="-489.3" font-family="Helvetica,sans-Serif" font-size="11.00" fill="#000000">33 rows</text>
<polygon fill="#ffffff" stroke="transparent" points="135,-483.2 135,-502.2 180,-502.2 180,-483.2 135,-483.2"/>
<polygon fill="none" stroke="#000000" points="135,-483.2 135,-502.2 180,-502.2 180,-483.2 135,-483.2"/>
<text text-anchor="start" x="161.4053" y="-489.3" font-family="Helvetica,sans-Serif" font-size="11.00" fill="#000000">1 &gt;</text>
</a>
</g>
</g>
<!-- common_product&#45;&gt;common_manufacturer -->
<g id="edge2" class="edge">
<title>common_product:w&#45;&gt;common_manufacturer:e</title>
<path fill="none" stroke="#000000" d="M217.0156,-532.2C204.6771,-532.2 197.1667,-532.2 180,-532.2"/>
<polygon fill="#000000" stroke="#000000" points="223.5,-532.2001 231.5,-535.8 227.5,-532.2 231.5,-532.2 231.5,-532.2 231.5,-532.2 227.5,-532.2 231.5,-528.6 223.5,-532.2001 223.5,-532.2001"/>
<ellipse fill="none" stroke="#000000" cx="220.3" cy="-532.2001" rx="3.2" ry="3.2"/>
</g>
<!-- order_bookingitem -->
<g id="node4" class="node">
<title>order_bookingitem</title>
<g id="a_node4"><a xlink:href="../../tables/order_bookingitem.html" xlink:title="order_bookingitem" target="_top">
<polygon fill="#ffffff" stroke="transparent" points="581.5,-947.7 581.5,-1074.7 728.5,-1074.7 728.5,-947.7 581.5,-947.7"/>
<polygon fill="#f5f5f5" stroke="transparent" points="582,-1051.2 582,-1074.2 729,-1074.2 729,-1051.2 582,-1051.2"/>
<polygon fill="none" stroke="#000000" points="582,-1051.2 582,-1074.2 729,-1074.2 729,-1051.2 582,-1051.2"/>
<text text-anchor="start" x="587" y="-1059.8" font-family="Helvetica,sans-Serif" font-weight="bold" font-size="11.00" fill="#000000">order_bookingitem</text>
<text text-anchor="start" x="694.5219" y="-1059.3" font-family="Helvetica,sans-Serif" font-size="11.00" fill="#000000">[table]</text>
<polygon fill="none" stroke="#000000" points="582,-1029.2 582,-1051.2 729,-1051.2 729,-1029.2 582,-1029.2"/>
<image xlink:href="../../images/primaryKeys.png" width="11px" height="12px" preserveAspectRatio="xMinYMin meet" x="587" y="-1046.2"/>
<text text-anchor="start" x="605" y="-1036.3" font-family="Helvetica,sans-Serif" font-size="11.00" fill="#000000">ID</text>
<polygon fill="#ffffff" stroke="transparent" points="582,-1007.2 582,-1029.2 729,-1029.2 729,-1007.2 582,-1007.2"/>
<polygon fill="none" stroke="#000000" points="582,-1007.2 582,-1029.2 729,-1029.2 729,-1007.2 582,-1007.2"/>
<image xlink:href="../../images/foreignKeys.png" width="11px" height="12px" preserveAspectRatio="xMinYMin meet" x="587" y="-1024.2"/>
<text text-anchor="start" x="605" y="-1014.3" font-family="Helvetica,sans-Serif" font-size="11.00" fill="#000000">Order_BookingFK</text>
<polygon fill="#ffffff" stroke="transparent" points="582,-985.2 582,-1007.2 729,-1007.2 729,-985.2 582,-985.2"/>
<polygon fill="none" stroke="#000000" points="582,-985.2 582,-1007.2 729,-1007.2 729,-985.2 582,-985.2"/>
<image xlink:href="../../images/foreignKeys.png" width="11px" height="12px" preserveAspectRatio="xMinYMin meet" x="587" y="-1002.2"/>
<text text-anchor="start" x="605" y="-992.3" font-family="Helvetica,sans-Serif" font-size="11.00" fill="#000000">Common_ProductFK</text>
<polygon fill="none" stroke="#000000" points="582,-966.2 582,-985.2 729,-985.2 729,-966.2 582,-966.2"/>
<text text-anchor="start" x="585" y="-972.3" font-family="Helvetica,sans-Serif" font-size="11.00" fill="#000000">...</text>
<polygon fill="#ffffff" stroke="transparent" points="582,-947.2 582,-966.2 638,-966.2 638,-947.2 582,-947.2"/>
<polygon fill="none" stroke="#000000" points="582,-947.2 582,-966.2 638,-966.2 638,-947.2 582,-947.2"/>
<text text-anchor="start" x="585" y="-953.3" font-family="Helvetica,sans-Serif" font-size="11.00" fill="#000000">&lt; 2</text>
<polygon fill="#ffffff" stroke="transparent" points="638,-947.2 638,-966.2 699,-966.2 699,-947.2 638,-947.2"/>
<polygon fill="none" stroke="#000000" points="638,-947.2 638,-966.2 699,-966.2 699,-947.2 638,-947.2"/>
<text text-anchor="start" x="657.4956" y="-953.3" font-family="Helvetica,sans-Serif" font-size="11.00" fill="#000000">62 rows</text>
<polygon fill="#ffffff" stroke="transparent" points="699,-947.2 699,-966.2 729,-966.2 729,-947.2 699,-947.2"/>
<polygon fill="none" stroke="#000000" points="699,-947.2 699,-966.2 729,-966.2 729,-947.2 699,-947.2"/>
<text text-anchor="start" x="719.8862" y="-953.3" font-family="Helvetica,sans-Serif" font-size="11.00" fill="#000000"> &#160;</text>
</a>
</g>
</g>
<!-- order_bookingitem&#45;&gt;common_product -->
<g id="edge3" class="edge">
<title>order_bookingitem:w&#45;&gt;common_product:e</title>
<path fill="none" stroke="#000000" d="M567.6874,-994.2205C501.9734,-973.4491 604.5539,-796.2 516.5,-796.2"/>
<polygon fill="#000000" stroke="#000000" points="574.0754,-995.104 581.5068,-999.7661 578.0377,-995.652 582,-996.2 582,-996.2 582,-996.2 578.0377,-995.652 582.4932,-992.6339 574.0754,-995.104 574.0754,-995.104"/>
<ellipse fill="none" stroke="#000000" cx="570.9056" cy="-994.6656" rx="3.2" ry="3.2"/>
</g>
<!-- order_inventory -->
<g id="node5" class="node">
<title>order_inventory</title>
<g id="a_node5"><a xlink:href="../../tables/order_inventory.html" xlink:title="order_inventory" target="_top">
<polygon fill="#ffffff" stroke="transparent" points="584.5,-821.7 584.5,-926.7 725.5,-926.7 725.5,-821.7 584.5,-821.7"/>
<polygon fill="#f5f5f5" stroke="transparent" points="585,-903.2 585,-926.2 726,-926.2 726,-903.2 585,-903.2"/>
<polygon fill="none" stroke="#000000" points="585,-903.2 585,-926.2 726,-926.2 726,-903.2 585,-903.2"/>
<text text-anchor="start" x="590" y="-911.8" font-family="Helvetica,sans-Serif" font-weight="bold" font-size="11.00" fill="#000000">order_inventory</text>
<text text-anchor="start" x="691.0437" y="-911.3" font-family="Helvetica,sans-Serif" font-size="11.00" fill="#000000">[table]</text>
<polygon fill="none" stroke="#000000" points="585,-881.2 585,-903.2 726,-903.2 726,-881.2 585,-881.2"/>
<image xlink:href="../../images/primaryKeys.png" width="11px" height="12px" preserveAspectRatio="xMinYMin meet" x="590" y="-898.2"/>
<text text-anchor="start" x="605" y="-888.3" font-family="Helvetica,sans-Serif" font-size="11.00" fill="#000000">ID</text>
<polygon fill="#ffffff" stroke="transparent" points="585,-859.2 585,-881.2 726,-881.2 726,-859.2 585,-859.2"/>
<polygon fill="none" stroke="#000000" points="585,-859.2 585,-881.2 726,-881.2 726,-859.2 585,-859.2"/>
<image xlink:href="../../images/foreignKeys.png" width="11px" height="12px" preserveAspectRatio="xMinYMin meet" x="590" y="-876.2"/>
<text text-anchor="start" x="605" y="-866.3" font-family="Helvetica,sans-Serif" font-size="11.00" fill="#000000">Common_ProductFK</text>
<polygon fill="none" stroke="#000000" points="585,-840.2 585,-859.2 726,-859.2 726,-840.2 585,-840.2"/>
<text text-anchor="start" x="588" y="-846.3" font-family="Helvetica,sans-Serif" font-size="11.00" fill="#000000">...</text>
<polygon fill="#ffffff" stroke="transparent" points="585,-821.2 585,-840.2 635,-840.2 635,-821.2 585,-821.2"/>
<polygon fill="none" stroke="#000000" points="585,-821.2 585,-840.2 635,-840.2 635,-821.2 585,-821.2"/>
<text text-anchor="start" x="588" y="-827.3" font-family="Helvetica,sans-Serif" font-size="11.00" fill="#000000">&lt; 1</text>
<polygon fill="#ffffff" stroke="transparent" points="635,-821.2 635,-840.2 699,-840.2 699,-821.2 635,-821.2"/>
<polygon fill="none" stroke="#000000" points="635,-821.2 635,-840.2 699,-840.2 699,-821.2 635,-821.2"/>
<text text-anchor="start" x="651.3807" y="-827.3" font-family="Helvetica,sans-Serif" font-size="11.00" fill="#000000">136 rows</text>
<polygon fill="#ffffff" stroke="transparent" points="699,-821.2 699,-840.2 726,-840.2 726,-821.2 699,-821.2"/>
<polygon fill="none" stroke="#000000" points="699,-821.2 699,-840.2 726,-840.2 726,-821.2 699,-821.2"/>
<text text-anchor="start" x="716.8862" y="-827.3" font-family="Helvetica,sans-Serif" font-size="11.00" fill="#000000"> &#160;</text>
</a>
</g>
</g>
<!-- order_inventory&#45;&gt;common_product -->
<g id="edge4" class="edge">
<title>order_inventory:w&#45;&gt;common_product:e</title>
<path fill="none" stroke="#000000" d="M570.6736,-866.8281C544.5358,-852.3515 555.5396,-796.2 516.5,-796.2"/>
<polygon fill="#000000" stroke="#000000" points="577.2128,-868.3671 584.1752,-873.7042 581.1064,-869.2836 585,-870.2 585,-870.2 585,-870.2 581.1064,-869.2836 585.8248,-866.6958 577.2128,-868.3671 577.2128,-868.3671"/>
<ellipse fill="none" stroke="#000000" cx="574.0979" cy="-867.634" rx="3.2" ry="3.2"/>
</g>
<!-- order_itemserialno -->
<g id="node6" class="node">
<title>order_itemserialno</title>
<g id="a_node6"><a xlink:href="../../tables/order_itemserialno.html" xlink:title="order_itemserialno" target="_top">
<polygon fill="#ffffff" stroke="transparent" points="579.5,-673.7 579.5,-800.7 730.5,-800.7 730.5,-673.7 579.5,-673.7"/>
<polygon fill="#f5f5f5" stroke="transparent" points="580,-777.2 580,-800.2 731,-800.2 731,-777.2 580,-777.2"/>
<polygon fill="none" stroke="#000000" points="580,-777.2 580,-800.2 731,-800.2 731,-777.2 580,-777.2"/>
<text text-anchor="start" x="585" y="-785.8" font-family="Helvetica,sans-Serif" font-weight="bold" font-size="11.00" fill="#000000">order_itemserialno</text>
<text text-anchor="start" x="696.0437" y="-785.3" font-family="Helvetica,sans-Serif" font-size="11.00" fill="#000000">[table]</text>
<polygon fill="none" stroke="#000000" points="580,-755.2 580,-777.2 731,-777.2 731,-755.2 580,-755.2"/>
<image xlink:href="../../images/primaryKeys.png" width="11px" height="12px" preserveAspectRatio="xMinYMin meet" x="585" y="-772.2"/>
<text text-anchor="start" x="600" y="-762.3" font-family="Helvetica,sans-Serif" font-size="11.00" fill="#000000">ID</text>
<polygon fill="#ffffff" stroke="transparent" points="580,-733.2 580,-755.2 731,-755.2 731,-733.2 580,-733.2"/>
<polygon fill="none" stroke="#000000" points="580,-733.2 580,-755.2 731,-755.2 731,-733.2 580,-733.2"/>
<image xlink:href="../../images/foreignKeys.png" width="11px" height="12px" preserveAspectRatio="xMinYMin meet" x="585" y="-750.2"/>
<text text-anchor="start" x="600" y="-740.3" font-family="Helvetica,sans-Serif" font-size="11.00" fill="#000000">ItemSerialFK</text>
<polygon fill="#ffffff" stroke="transparent" points="580,-711.2 580,-733.2 731,-733.2 731,-711.2 580,-711.2"/>
<polygon fill="none" stroke="#000000" points="580,-711.2 580,-733.2 731,-733.2 731,-711.2 580,-711.2"/>
<image xlink:href="../../images/foreignKeys.png" width="11px" height="12px" preserveAspectRatio="xMinYMin meet" x="585" y="-728.2"/>
<text text-anchor="start" x="600" y="-718.3" font-family="Helvetica,sans-Serif" font-size="11.00" fill="#000000">Common_ProductFK</text>
<polygon fill="none" stroke="#000000" points="580,-692.2 580,-711.2 731,-711.2 731,-692.2 580,-692.2"/>
<text text-anchor="start" x="583" y="-698.3" font-family="Helvetica,sans-Serif" font-size="11.00" fill="#000000">...</text>
<polygon fill="#ffffff" stroke="transparent" points="580,-673.2 580,-692.2 623,-692.2 623,-673.2 580,-673.2"/>
<polygon fill="none" stroke="#000000" points="580,-673.2 580,-692.2 623,-692.2 623,-673.2 580,-673.2"/>
<text text-anchor="start" x="583" y="-679.3" font-family="Helvetica,sans-Serif" font-size="11.00" fill="#000000">&lt; 2</text>
<polygon fill="#ffffff" stroke="transparent" points="623,-673.2 623,-692.2 699,-692.2 699,-673.2 623,-673.2"/>
<polygon fill="none" stroke="#000000" points="623,-673.2 623,-692.2 699,-692.2 699,-673.2 623,-673.2"/>
<text text-anchor="start" x="636.094" y="-679.3" font-family="Helvetica,sans-Serif" font-size="11.00" fill="#000000">19,002 rows</text>
<polygon fill="#ffffff" stroke="transparent" points="699,-673.2 699,-692.2 731,-692.2 731,-673.2 699,-673.2"/>
<polygon fill="none" stroke="#000000" points="699,-673.2 699,-692.2 731,-692.2 731,-673.2 699,-673.2"/>
<text text-anchor="start" x="712.4053" y="-679.3" font-family="Helvetica,sans-Serif" font-size="11.00" fill="#000000">1 &gt;</text>
</a>
</g>
</g>
<!-- order_itemserialno&#45;&gt;common_product -->
<g id="edge5" class="edge">
<title>order_itemserialno:w&#45;&gt;common_product:e</title>
<path fill="none" stroke="#000000" d="M565.9407,-725.7692C541.6449,-740.551 554.0821,-796.2 516.5,-796.2"/>
<polygon fill="#000000" stroke="#000000" points="572.246,-724.1685 580.8858,-725.6893 576.123,-723.1843 580,-722.2 580,-722.2 580,-722.2 576.123,-723.1843 579.1142,-718.7107 572.246,-724.1685 572.246,-724.1685"/>
<ellipse fill="none" stroke="#000000" cx="569.1443" cy="-724.9559" rx="3.2" ry="3.2"/>
</g>
<!-- order_receiveitem -->
<g id="node7" class="node">
<title>order_receiveitem</title>
<g id="a_node7"><a xlink:href="../../tables/order_receiveitem.html" xlink:title="order_receiveitem" target="_top">
<polygon fill="#ffffff" stroke="transparent" points="573.5,-525.7 573.5,-652.7 736.5,-652.7 736.5,-525.7 573.5,-525.7"/>
<polygon fill="#f5f5f5" stroke="transparent" points="574,-629.2 574,-652.2 737,-652.2 737,-629.2 574,-629.2"/>
<polygon fill="none" stroke="#000000" points="574,-629.2 574,-652.2 737,-652.2 737,-629.2 574,-629.2"/>
<text text-anchor="start" x="579" y="-637.8" font-family="Helvetica,sans-Serif" font-weight="bold" font-size="11.00" fill="#000000">order_receiveitem</text>
<text text-anchor="start" x="702.0437" y="-637.3" font-family="Helvetica,sans-Serif" font-size="11.00" fill="#000000">[table]</text>
<polygon fill="none" stroke="#000000" points="574,-607.2 574,-629.2 737,-629.2 737,-607.2 574,-607.2"/>
<image xlink:href="../../images/primaryKeys.png" width="11px" height="12px" preserveAspectRatio="xMinYMin meet" x="579" y="-624.2"/>
<text text-anchor="start" x="594" y="-614.3" font-family="Helvetica,sans-Serif" font-size="11.00" fill="#000000">ID</text>
<polygon fill="#ffffff" stroke="transparent" points="574,-585.2 574,-607.2 737,-607.2 737,-585.2 574,-585.2"/>
<polygon fill="none" stroke="#000000" points="574,-585.2 574,-607.2 737,-607.2 737,-585.2 574,-585.2"/>
<image xlink:href="../../images/foreignKeys.png" width="11px" height="12px" preserveAspectRatio="xMinYMin meet" x="579" y="-602.2"/>
<text text-anchor="start" x="594" y="-592.3" font-family="Helvetica,sans-Serif" font-size="11.00" fill="#000000">Order_ReceiveFK</text>
<polygon fill="#ffffff" stroke="transparent" points="574,-563.2 574,-585.2 737,-585.2 737,-563.2 574,-563.2"/>
<polygon fill="none" stroke="#000000" points="574,-563.2 574,-585.2 737,-585.2 737,-563.2 574,-563.2"/>
<image xlink:href="../../images/foreignKeys.png" width="11px" height="12px" preserveAspectRatio="xMinYMin meet" x="579" y="-580.2"/>
<text text-anchor="start" x="594" y="-570.3" font-family="Helvetica,sans-Serif" font-size="11.00" fill="#000000">Common_ProductFK</text>
<polygon fill="none" stroke="#000000" points="574,-544.2 574,-563.2 737,-563.2 737,-544.2 574,-544.2"/>
<text text-anchor="start" x="577" y="-550.3" font-family="Helvetica,sans-Serif" font-size="11.00" fill="#000000">...</text>
<polygon fill="#ffffff" stroke="transparent" points="574,-525.2 574,-544.2 627,-544.2 627,-525.2 574,-525.2"/>
<polygon fill="none" stroke="#000000" points="574,-525.2 574,-544.2 627,-544.2 627,-525.2 574,-525.2"/>
<text text-anchor="start" x="577" y="-531.3" font-family="Helvetica,sans-Serif" font-size="11.00" fill="#000000">&lt; 2</text>
<polygon fill="#ffffff" stroke="transparent" points="627,-525.2 627,-544.2 708,-544.2 708,-525.2 627,-525.2"/>
<polygon fill="none" stroke="#000000" points="627,-525.2 627,-544.2 708,-544.2 708,-525.2 627,-525.2"/>
<text text-anchor="start" x="645.094" y="-531.3" font-family="Helvetica,sans-Serif" font-size="11.00" fill="#000000">18,922 rows</text>
<polygon fill="#ffffff" stroke="transparent" points="708,-525.2 708,-544.2 737,-544.2 737,-525.2 708,-525.2"/>
<polygon fill="none" stroke="#000000" points="708,-525.2 708,-544.2 737,-544.2 737,-525.2 708,-525.2"/>
<text text-anchor="start" x="727.8862" y="-531.3" font-family="Helvetica,sans-Serif" font-size="11.00" fill="#000000"> &#160;</text>
</a>
</g>
</g>
<!-- order_receiveitem&#45;&gt;common_product -->
<g id="edge6" class="edge">
<title>order_receiveitem:w&#45;&gt;common_product:e</title>
<path fill="none" stroke="#000000" d="M559.4246,-576.1192C487.3415,-597.8173 612.8486,-796.2 516.5,-796.2"/>
<polygon fill="#000000" stroke="#000000" points="566.0685,-575.2444 574.47,-577.7692 570.0342,-574.7222 574,-574.2 574,-574.2 574,-574.2 570.0342,-574.7222 573.53,-570.6308 566.0685,-575.2444 566.0685,-575.2444"/>
<ellipse fill="none" stroke="#000000" cx="562.8958" cy="-575.6622" rx="3.2" ry="3.2"/>
</g>
<!-- order_saleitem -->
<g id="node8" class="node">
<title>order_saleitem</title>
<g id="a_node8"><a xlink:href="../../tables/order_saleitem.html" xlink:title="order_saleitem" target="_top">
<polygon fill="#ffffff" stroke="transparent" points="567,-377.7 567,-504.7 743,-504.7 743,-377.7 567,-377.7"/>
<polygon fill="#f5f5f5" stroke="transparent" points="567,-481.2 567,-504.2 743,-504.2 743,-481.2 567,-481.2"/>
<polygon fill="none" stroke="#000000" points="567,-481.2 567,-504.2 743,-504.2 743,-481.2 567,-481.2"/>
<text text-anchor="start" x="572" y="-489.8" font-family="Helvetica,sans-Serif" font-weight="bold" font-size="11.00" fill="#000000">order_saleitem</text>
<text text-anchor="start" x="708.0437" y="-489.3" font-family="Helvetica,sans-Serif" font-size="11.00" fill="#000000">[table]</text>
<polygon fill="none" stroke="#000000" points="567,-459.2 567,-481.2 743,-481.2 743,-459.2 567,-459.2"/>
<image xlink:href="../../images/primaryKeys.png" width="11px" height="12px" preserveAspectRatio="xMinYMin meet" x="572" y="-476.2"/>
<text text-anchor="start" x="587" y="-466.3" font-family="Helvetica,sans-Serif" font-size="11.00" fill="#000000">ID</text>
<polygon fill="#ffffff" stroke="transparent" points="567,-437.2 567,-459.2 743,-459.2 743,-437.2 567,-437.2"/>
<polygon fill="none" stroke="#000000" points="567,-437.2 567,-459.2 743,-459.2 743,-437.2 567,-437.2"/>
<image xlink:href="../../images/foreignKeys.png" width="11px" height="12px" preserveAspectRatio="xMinYMin meet" x="572" y="-454.2"/>
<text text-anchor="start" x="587" y="-444.3" font-family="Helvetica,sans-Serif" font-size="11.00" fill="#000000">Order_SaleFK</text>
<polygon fill="#ffffff" stroke="transparent" points="567,-415.2 567,-437.2 743,-437.2 743,-415.2 567,-415.2"/>
<polygon fill="none" stroke="#000000" points="567,-415.2 567,-437.2 743,-437.2 743,-415.2 567,-415.2"/>
<image xlink:href="../../images/foreignKeys.png" width="11px" height="12px" preserveAspectRatio="xMinYMin meet" x="572" y="-432.2"/>
<text text-anchor="start" x="587" y="-422.3" font-family="Helvetica,sans-Serif" font-size="11.00" fill="#000000">Common_ProductFK</text>
<polygon fill="none" stroke="#000000" points="567,-396.2 567,-415.2 743,-415.2 743,-396.2 567,-396.2"/>
<text text-anchor="start" x="570" y="-402.3" font-family="Helvetica,sans-Serif" font-size="11.00" fill="#000000">...</text>
<polygon fill="#ffffff" stroke="transparent" points="567,-377.2 567,-396.2 634,-396.2 634,-377.2 567,-377.2"/>
<polygon fill="none" stroke="#000000" points="567,-377.2 567,-396.2 634,-396.2 634,-377.2 567,-377.2"/>
<text text-anchor="start" x="570" y="-383.3" font-family="Helvetica,sans-Serif" font-size="11.00" fill="#000000">&lt; 2</text>
<polygon fill="#ffffff" stroke="transparent" points="634,-377.2 634,-396.2 707,-396.2 707,-377.2 634,-377.2"/>
<polygon fill="none" stroke="#000000" points="634,-377.2 634,-396.2 707,-396.2 707,-377.2 634,-377.2"/>
<text text-anchor="start" x="659.3807" y="-383.3" font-family="Helvetica,sans-Serif" font-size="11.00" fill="#000000">659 rows</text>
<polygon fill="#ffffff" stroke="transparent" points="707,-377.2 707,-396.2 743,-396.2 743,-377.2 707,-377.2"/>
<polygon fill="none" stroke="#000000" points="707,-377.2 707,-396.2 743,-396.2 743,-377.2 707,-377.2"/>
<text text-anchor="start" x="733.8862" y="-383.3" font-family="Helvetica,sans-Serif" font-size="11.00" fill="#000000"> &#160;</text>
</a>
</g>
</g>
<!-- order_saleitem&#45;&gt;common_product -->
<g id="edge7" class="edge">
<title>order_saleitem:w&#45;&gt;common_product:e</title>
<path fill="none" stroke="#000000" d="M552.9771,-430.8782C498.4761,-473.709 593.9738,-796.2 516.5,-796.2"/>
<polygon fill="#000000" stroke="#000000" points="559.4112,-428.7317 568.1393,-429.615 563.2056,-427.4659 567,-426.2 567,-426.2 567,-426.2 563.2056,-427.4659 565.8607,-422.785 559.4112,-428.7317 559.4112,-428.7317"/>
<ellipse fill="none" stroke="#000000" cx="556.3756" cy="-429.7444" rx="3.2" ry="3.2"/>
</g>
</g>
</svg>
