<?xml version="1.0" encoding="UTF-8" standalone="no"?>
<!DOCTYPE svg PUBLIC "-//W3C//DTD SVG 1.1//EN"
 "http://www.w3.org/Graphics/SVG/1.1/DTD/svg11.dtd">
<!-- Generated by graphviz version 2.40.1 (20161225.0304)
 -->
<!-- Title: oneDegreeRelationshipsDiagram Pages: 1 -->
<svg width="309pt" height="360pt"
 viewBox="0.00 0.00 309.00 360.20" xmlns="http://www.w3.org/2000/svg" xmlns:xlink="http://www.w3.org/1999/xlink">
<g id="graph0" class="graph" transform="scale(1 1) rotate(0) translate(4 356.2)">
<title>oneDegreeRelationshipsDiagram</title>
<polygon fill="#ffffff" stroke="transparent" points="-4,4 -4,-356.2 305,-356.2 305,4 -4,4"/>
<text text-anchor="middle" x="72.4936" y="-7.3" font-family="Helvetica,sans-Serif" font-size="11.00" fill="#000000">Generated by SchemaSpy</text>
<!-- competitor_product -->
<g id="node1" class="node">
<title>competitor_product</title>
<g id="a_node1"><a xlink:href="../../tables/competitor_product.html" xlink:title="competitor_product" target="_top">
<polygon fill="#ffffff" stroke="transparent" points="8,-38.2 8,-348.2 293,-348.2 293,-38.2 8,-38.2"/>
<polygon fill="#f5f5f5" stroke="transparent" points="10.5,-323.2 10.5,-346.2 291.5,-346.2 291.5,-323.2 10.5,-323.2"/>
<polygon fill="none" stroke="#000000" points="10.5,-323.2 10.5,-346.2 291.5,-346.2 291.5,-323.2 10.5,-323.2"/>
<text text-anchor="start" x="15.5" y="-331.8" font-family="Helvetica,sans-Serif" font-weight="bold" font-size="11.00" fill="#000000">competitor_product</text>
<text text-anchor="start" x="256.5437" y="-331.3" font-family="Helvetica,sans-Serif" font-size="11.00" fill="#000000">[table]</text>
<polygon fill="none" stroke="#000000" points="10.5,-301.2 10.5,-323.2 180.5,-323.2 180.5,-301.2 10.5,-301.2"/>
<image xlink:href="../../images/primaryKeys.png" width="11px" height="12px" preserveAspectRatio="xMinYMin meet" x="15.5" y="-318.2"/>
<text text-anchor="start" x="30.5" y="-308.3" font-family="Helvetica,sans-Serif" font-size="11.00" fill="#000000">ID</text>
<polygon fill="none" stroke="#000000" points="180.5,-301.2 180.5,-323.2 291.5,-323.2 291.5,-301.2 180.5,-301.2"/>
<text text-anchor="start" x="183.5" y="-308.9" font-family="Helvetica,sans-Serif" font-size="11.00" fill="#000000">int[10]</text>
<polygon fill="none" stroke="#000000" points="10.5,-279.2 10.5,-301.2 180.5,-301.2 180.5,-279.2 10.5,-279.2"/>
<text text-anchor="start" x="30.5" y="-286.3" font-family="Helvetica,sans-Serif" font-size="11.00" fill="#000000">Active</text>
<polygon fill="none" stroke="#000000" points="180.5,-279.2 180.5,-301.2 291.5,-301.2 291.5,-279.2 180.5,-279.2"/>
<text text-anchor="start" x="183.5" y="-286.9" font-family="Helvetica,sans-Serif" font-size="11.00" fill="#000000">bit[1]</text>
<polygon fill="none" stroke="#000000" points="10.5,-257.2 10.5,-279.2 180.5,-279.2 180.5,-257.2 10.5,-257.2"/>
<text text-anchor="start" x="30.5" y="-264.3" font-family="Helvetica,sans-Serif" font-size="11.00" fill="#000000">User</text>
<polygon fill="none" stroke="#000000" points="180.5,-257.2 180.5,-279.2 291.5,-279.2 291.5,-257.2 180.5,-257.2"/>
<text text-anchor="start" x="183.1115" y="-264.9" font-family="Helvetica,sans-Serif" font-size="11.00" fill="#000000">longtext[2147483647]</text>
<polygon fill="none" stroke="#000000" points="10.5,-235.2 10.5,-257.2 180.5,-257.2 180.5,-235.2 10.5,-235.2"/>
<text text-anchor="start" x="30.5" y="-242.3" font-family="Helvetica,sans-Serif" font-size="11.00" fill="#000000">CD</text>
<polygon fill="none" stroke="#000000" points="180.5,-235.2 180.5,-257.2 291.5,-257.2 291.5,-235.2 180.5,-235.2"/>
<text text-anchor="start" x="183.5" y="-242.9" font-family="Helvetica,sans-Serif" font-size="11.00" fill="#000000">datetime[26]</text>
<polygon fill="none" stroke="#000000" points="10.5,-213.2 10.5,-235.2 180.5,-235.2 180.5,-213.2 10.5,-213.2"/>
<text text-anchor="start" x="30.5" y="-220.3" font-family="Helvetica,sans-Serif" font-size="11.00" fill="#000000">UD</text>
<polygon fill="none" stroke="#000000" points="180.5,-213.2 180.5,-235.2 291.5,-235.2 291.5,-213.2 180.5,-213.2"/>
<text text-anchor="start" x="183.5" y="-220.9" font-family="Helvetica,sans-Serif" font-size="11.00" fill="#000000">datetime[26]</text>
<polygon fill="none" stroke="#000000" points="10.5,-191.2 10.5,-213.2 180.5,-213.2 180.5,-191.2 10.5,-191.2"/>
<text text-anchor="start" x="30.5" y="-198.3" font-family="Helvetica,sans-Serif" font-size="11.00" fill="#000000">Remarks</text>
<polygon fill="none" stroke="#000000" points="180.5,-191.2 180.5,-213.2 291.5,-213.2 291.5,-191.2 180.5,-191.2"/>
<text text-anchor="start" x="183.1115" y="-198.9" font-family="Helvetica,sans-Serif" font-size="11.00" fill="#000000">longtext[2147483647]</text>
<polygon fill="none" stroke="#000000" points="10.5,-169.2 10.5,-191.2 180.5,-191.2 180.5,-169.2 10.5,-169.2"/>
<text text-anchor="start" x="30.5" y="-176.3" font-family="Helvetica,sans-Serif" font-size="11.00" fill="#000000">UserID</text>
<polygon fill="none" stroke="#000000" points="180.5,-169.2 180.5,-191.2 291.5,-191.2 291.5,-169.2 180.5,-169.2"/>
<text text-anchor="start" x="183.5" y="-176.9" font-family="Helvetica,sans-Serif" font-size="11.00" fill="#000000">int[10]</text>
<polygon fill="none" stroke="#000000" points="10.5,-147.2 10.5,-169.2 180.5,-169.2 180.5,-147.2 10.5,-147.2"/>
<text text-anchor="start" x="30.5" y="-154.3" font-family="Helvetica,sans-Serif" font-size="11.00" fill="#000000">Common_DealerFk</text>
<polygon fill="none" stroke="#000000" points="180.5,-147.2 180.5,-169.2 291.5,-169.2 291.5,-147.2 180.5,-147.2"/>
<text text-anchor="start" x="183.5" y="-154.9" font-family="Helvetica,sans-Serif" font-size="11.00" fill="#000000">int[10]</text>
<polygon fill="none" stroke="#000000" points="10.5,-125.2 10.5,-147.2 180.5,-147.2 180.5,-125.2 10.5,-125.2"/>
<text text-anchor="start" x="30.5" y="-132.3" font-family="Helvetica,sans-Serif" font-size="11.00" fill="#000000">Name</text>
<polygon fill="none" stroke="#000000" points="180.5,-125.2 180.5,-147.2 291.5,-147.2 291.5,-125.2 180.5,-125.2"/>
<text text-anchor="start" x="183.1115" y="-132.9" font-family="Helvetica,sans-Serif" font-size="11.00" fill="#000000">longtext[2147483647]</text>
<polygon fill="none" stroke="#000000" points="10.5,-103.2 10.5,-125.2 180.5,-125.2 180.5,-103.2 10.5,-103.2"/>
<text text-anchor="start" x="30.5" y="-110.3" font-family="Helvetica,sans-Serif" font-size="11.00" fill="#000000">Common_CategoryFK</text>
<polygon fill="none" stroke="#000000" points="180.5,-103.2 180.5,-125.2 291.5,-125.2 291.5,-103.2 180.5,-103.2"/>
<text text-anchor="start" x="183.5" y="-110.9" font-family="Helvetica,sans-Serif" font-size="11.00" fill="#000000">int[10]</text>
<polygon fill="none" stroke="#000000" points="10.5,-81.2 10.5,-103.2 180.5,-103.2 180.5,-81.2 10.5,-81.2"/>
<text text-anchor="start" x="30.5" y="-88.3" font-family="Helvetica,sans-Serif" font-size="11.00" fill="#000000">Common_SubCategoryFK</text>
<polygon fill="none" stroke="#000000" points="180.5,-81.2 180.5,-103.2 291.5,-103.2 291.5,-81.2 180.5,-81.2"/>
<text text-anchor="start" x="183.5" y="-88.9" font-family="Helvetica,sans-Serif" font-size="11.00" fill="#000000">int[10]</text>
<polygon fill="none" stroke="#000000" points="10.5,-59.2 10.5,-81.2 180.5,-81.2 180.5,-59.2 10.5,-59.2"/>
<text text-anchor="start" x="30.5" y="-66.3" font-family="Helvetica,sans-Serif" font-size="11.00" fill="#000000">Common_ProductFK</text>
<polygon fill="none" stroke="#000000" points="180.5,-59.2 180.5,-81.2 291.5,-81.2 291.5,-59.2 180.5,-59.2"/>
<text text-anchor="start" x="183.5" y="-66.9" font-family="Helvetica,sans-Serif" font-size="11.00" fill="#000000">int[10]</text>
<polygon fill="#ffffff" stroke="transparent" points="10.5,-40.2 10.5,-59.2 86.5,-59.2 86.5,-40.2 10.5,-40.2"/>
<polygon fill="none" stroke="#000000" points="10.5,-40.2 10.5,-59.2 86.5,-59.2 86.5,-40.2 10.5,-40.2"/>
<text text-anchor="start" x="13.5" y="-46.3" font-family="Helvetica,sans-Serif" font-size="11.00" fill="#000000">&lt; 0</text>
<polygon fill="#ffffff" stroke="transparent" points="86.5,-40.2 86.5,-59.2 180.5,-59.2 180.5,-40.2 86.5,-40.2"/>
<polygon fill="none" stroke="#000000" points="86.5,-40.2 86.5,-59.2 180.5,-59.2 180.5,-40.2 86.5,-40.2"/>
<text text-anchor="start" x="145.1105" y="-46.3" font-family="Helvetica,sans-Serif" font-size="11.00" fill="#000000">2 rows</text>
<polygon fill="#ffffff" stroke="transparent" points="180.5,-40.2 180.5,-59.2 291.5,-59.2 291.5,-40.2 180.5,-40.2"/>
<polygon fill="none" stroke="#000000" points="180.5,-40.2 180.5,-59.2 291.5,-59.2 291.5,-40.2 180.5,-40.2"/>
<text text-anchor="start" x="272.9053" y="-46.3" font-family="Helvetica,sans-Serif" font-size="11.00" fill="#000000">0 &gt;</text>
<polygon fill="none" stroke="#000000" stroke-width="2" points="9,-39.2 9,-347.2 292,-347.2 292,-39.2 9,-39.2"/>
</a>
</g>
</g>
</g>
</svg>
