<?xml version="1.0" encoding="UTF-8" standalone="no"?>
<!DOCTYPE svg PUBLIC "-//W3C//DTD SVG 1.1//EN"
 "http://www.w3.org/Graphics/SVG/1.1/DTD/svg11.dtd">
<!-- Generated by graphviz version 2.40.1 (20161225.0304)
 -->
<!-- Title: oneDegreeRelationshipsDiagram Pages: 1 -->
<svg width="275pt" height="602pt"
 viewBox="0.00 0.00 275.00 602.20" xmlns="http://www.w3.org/2000/svg" xmlns:xlink="http://www.w3.org/1999/xlink">
<g id="graph0" class="graph" transform="scale(1 1) rotate(0) translate(4 598.2)">
<title>oneDegreeRelationshipsDiagram</title>
<polygon fill="#ffffff" stroke="transparent" points="-4,4 -4,-598.2 271,-598.2 271,4 -4,4"/>
<text text-anchor="middle" x="72.4936" y="-7.3" font-family="Helvetica,sans-Serif" font-size="11.00" fill="#000000">Generated by SchemaSpy</text>
<!-- emp_education -->
<g id="node1" class="node">
<title>emp_education</title>
<g id="a_node1"><a xlink:href="../../tables/emp_education.html" xlink:title="emp_education" target="_top">
<polygon fill="#ffffff" stroke="transparent" points="8,-38.2 8,-590.2 259,-590.2 259,-38.2 8,-38.2"/>
<polygon fill="#f5f5f5" stroke="transparent" points="10.5,-565.2 10.5,-588.2 257.5,-588.2 257.5,-565.2 10.5,-565.2"/>
<polygon fill="none" stroke="#000000" points="10.5,-565.2 10.5,-588.2 257.5,-588.2 257.5,-565.2 10.5,-565.2"/>
<text text-anchor="start" x="15.5" y="-573.8" font-family="Helvetica,sans-Serif" font-weight="bold" font-size="11.00" fill="#000000">emp_education</text>
<text text-anchor="start" x="222.5437" y="-573.3" font-family="Helvetica,sans-Serif" font-size="11.00" fill="#000000">[table]</text>
<polygon fill="none" stroke="#000000" points="10.5,-543.2 10.5,-565.2 146.5,-565.2 146.5,-543.2 10.5,-543.2"/>
<image xlink:href="../../images/primaryKeys.png" width="11px" height="12px" preserveAspectRatio="xMinYMin meet" x="15.5" y="-560.2"/>
<text text-anchor="start" x="30.5" y="-550.3" font-family="Helvetica,sans-Serif" font-size="11.00" fill="#000000">ID</text>
<polygon fill="none" stroke="#000000" points="146.5,-543.2 146.5,-565.2 257.5,-565.2 257.5,-543.2 146.5,-543.2"/>
<text text-anchor="start" x="149.5" y="-550.9" font-family="Helvetica,sans-Serif" font-size="11.00" fill="#000000">int[10]</text>
<polygon fill="none" stroke="#000000" points="10.5,-521.2 10.5,-543.2 146.5,-543.2 146.5,-521.2 10.5,-521.2"/>
<text text-anchor="start" x="30.5" y="-528.3" font-family="Helvetica,sans-Serif" font-size="11.00" fill="#000000">Active</text>
<polygon fill="none" stroke="#000000" points="146.5,-521.2 146.5,-543.2 257.5,-543.2 257.5,-521.2 146.5,-521.2"/>
<text text-anchor="start" x="149.5" y="-528.9" font-family="Helvetica,sans-Serif" font-size="11.00" fill="#000000">bit[1]</text>
<polygon fill="none" stroke="#000000" points="10.5,-499.2 10.5,-521.2 146.5,-521.2 146.5,-499.2 10.5,-499.2"/>
<text text-anchor="start" x="30.5" y="-506.3" font-family="Helvetica,sans-Serif" font-size="11.00" fill="#000000">User</text>
<polygon fill="none" stroke="#000000" points="146.5,-499.2 146.5,-521.2 257.5,-521.2 257.5,-499.2 146.5,-499.2"/>
<text text-anchor="start" x="149.1115" y="-506.9" font-family="Helvetica,sans-Serif" font-size="11.00" fill="#000000">longtext[2147483647]</text>
<polygon fill="none" stroke="#000000" points="10.5,-477.2 10.5,-499.2 146.5,-499.2 146.5,-477.2 10.5,-477.2"/>
<text text-anchor="start" x="30.5" y="-484.3" font-family="Helvetica,sans-Serif" font-size="11.00" fill="#000000">CD</text>
<polygon fill="none" stroke="#000000" points="146.5,-477.2 146.5,-499.2 257.5,-499.2 257.5,-477.2 146.5,-477.2"/>
<text text-anchor="start" x="149.5" y="-484.9" font-family="Helvetica,sans-Serif" font-size="11.00" fill="#000000">datetime[26]</text>
<polygon fill="none" stroke="#000000" points="10.5,-455.2 10.5,-477.2 146.5,-477.2 146.5,-455.2 10.5,-455.2"/>
<text text-anchor="start" x="30.5" y="-462.3" font-family="Helvetica,sans-Serif" font-size="11.00" fill="#000000">UD</text>
<polygon fill="none" stroke="#000000" points="146.5,-455.2 146.5,-477.2 257.5,-477.2 257.5,-455.2 146.5,-455.2"/>
<text text-anchor="start" x="149.5" y="-462.9" font-family="Helvetica,sans-Serif" font-size="11.00" fill="#000000">datetime[26]</text>
<polygon fill="none" stroke="#000000" points="10.5,-433.2 10.5,-455.2 146.5,-455.2 146.5,-433.2 10.5,-433.2"/>
<text text-anchor="start" x="30.5" y="-440.3" font-family="Helvetica,sans-Serif" font-size="11.00" fill="#000000">Remarks</text>
<polygon fill="none" stroke="#000000" points="146.5,-433.2 146.5,-455.2 257.5,-455.2 257.5,-433.2 146.5,-433.2"/>
<text text-anchor="start" x="149.1115" y="-440.9" font-family="Helvetica,sans-Serif" font-size="11.00" fill="#000000">longtext[2147483647]</text>
<polygon fill="none" stroke="#000000" points="10.5,-411.2 10.5,-433.2 146.5,-433.2 146.5,-411.2 10.5,-411.2"/>
<text text-anchor="start" x="30.5" y="-418.3" font-family="Helvetica,sans-Serif" font-size="11.00" fill="#000000">UserID</text>
<polygon fill="none" stroke="#000000" points="146.5,-411.2 146.5,-433.2 257.5,-433.2 257.5,-411.2 146.5,-411.2"/>
<text text-anchor="start" x="149.5" y="-418.9" font-family="Helvetica,sans-Serif" font-size="11.00" fill="#000000">int[10]</text>
<polygon fill="none" stroke="#000000" points="10.5,-389.2 10.5,-411.2 146.5,-411.2 146.5,-389.2 10.5,-389.2"/>
<text text-anchor="start" x="30.5" y="-396.3" font-family="Helvetica,sans-Serif" font-size="11.00" fill="#000000">EmployeeFK</text>
<polygon fill="none" stroke="#000000" points="146.5,-389.2 146.5,-411.2 257.5,-411.2 257.5,-389.2 146.5,-389.2"/>
<text text-anchor="start" x="149.5" y="-396.9" font-family="Helvetica,sans-Serif" font-size="11.00" fill="#000000">int[10]</text>
<polygon fill="none" stroke="#000000" points="10.5,-367.2 10.5,-389.2 146.5,-389.2 146.5,-367.2 10.5,-367.2"/>
<text text-anchor="start" x="30.5" y="-374.3" font-family="Helvetica,sans-Serif" font-size="11.00" fill="#000000">Common_DealerFK</text>
<polygon fill="none" stroke="#000000" points="146.5,-367.2 146.5,-389.2 257.5,-389.2 257.5,-367.2 146.5,-367.2"/>
<text text-anchor="start" x="149.5" y="-374.9" font-family="Helvetica,sans-Serif" font-size="11.00" fill="#000000">int[10]</text>
<polygon fill="none" stroke="#000000" points="10.5,-345.2 10.5,-367.2 146.5,-367.2 146.5,-345.2 10.5,-345.2"/>
<text text-anchor="start" x="30.5" y="-352.3" font-family="Helvetica,sans-Serif" font-size="11.00" fill="#000000">Common_DegreeFK</text>
<polygon fill="none" stroke="#000000" points="146.5,-345.2 146.5,-367.2 257.5,-367.2 257.5,-345.2 146.5,-345.2"/>
<text text-anchor="start" x="149.5" y="-352.9" font-family="Helvetica,sans-Serif" font-size="11.00" fill="#000000">int[10]</text>
<polygon fill="none" stroke="#000000" points="10.5,-323.2 10.5,-345.2 146.5,-345.2 146.5,-323.2 10.5,-323.2"/>
<text text-anchor="start" x="30.5" y="-330.3" font-family="Helvetica,sans-Serif" font-size="11.00" fill="#000000">DegreeTypeFK</text>
<polygon fill="none" stroke="#000000" points="146.5,-323.2 146.5,-345.2 257.5,-345.2 257.5,-323.2 146.5,-323.2"/>
<text text-anchor="start" x="149.5" y="-330.9" font-family="Helvetica,sans-Serif" font-size="11.00" fill="#000000">int[10]</text>
<polygon fill="none" stroke="#000000" points="10.5,-301.2 10.5,-323.2 146.5,-323.2 146.5,-301.2 10.5,-301.2"/>
<text text-anchor="start" x="30.5" y="-308.3" font-family="Helvetica,sans-Serif" font-size="11.00" fill="#000000">TrainingName</text>
<polygon fill="none" stroke="#000000" points="146.5,-301.2 146.5,-323.2 257.5,-323.2 257.5,-301.2 146.5,-301.2"/>
<text text-anchor="start" x="149.1115" y="-308.9" font-family="Helvetica,sans-Serif" font-size="11.00" fill="#000000">longtext[2147483647]</text>
<polygon fill="none" stroke="#000000" points="10.5,-279.2 10.5,-301.2 146.5,-301.2 146.5,-279.2 10.5,-279.2"/>
<text text-anchor="start" x="30.5" y="-286.3" font-family="Helvetica,sans-Serif" font-size="11.00" fill="#000000">InstituteName</text>
<polygon fill="none" stroke="#000000" points="146.5,-279.2 146.5,-301.2 257.5,-301.2 257.5,-279.2 146.5,-279.2"/>
<text text-anchor="start" x="149.1115" y="-286.9" font-family="Helvetica,sans-Serif" font-size="11.00" fill="#000000">longtext[2147483647]</text>
<polygon fill="none" stroke="#000000" points="10.5,-257.2 10.5,-279.2 146.5,-279.2 146.5,-257.2 10.5,-257.2"/>
<text text-anchor="start" x="30.5" y="-264.3" font-family="Helvetica,sans-Serif" font-size="11.00" fill="#000000">GroupOrSubject</text>
<polygon fill="none" stroke="#000000" points="146.5,-257.2 146.5,-279.2 257.5,-279.2 257.5,-257.2 146.5,-257.2"/>
<text text-anchor="start" x="149.1115" y="-264.9" font-family="Helvetica,sans-Serif" font-size="11.00" fill="#000000">longtext[2147483647]</text>
<polygon fill="none" stroke="#000000" points="10.5,-235.2 10.5,-257.2 146.5,-257.2 146.5,-235.2 10.5,-235.2"/>
<text text-anchor="start" x="30.5" y="-242.3" font-family="Helvetica,sans-Serif" font-size="11.00" fill="#000000">StartDate</text>
<polygon fill="none" stroke="#000000" points="146.5,-235.2 146.5,-257.2 257.5,-257.2 257.5,-235.2 146.5,-235.2"/>
<text text-anchor="start" x="149.5" y="-242.9" font-family="Helvetica,sans-Serif" font-size="11.00" fill="#000000">datetime[26]</text>
<polygon fill="none" stroke="#000000" points="10.5,-213.2 10.5,-235.2 146.5,-235.2 146.5,-213.2 10.5,-213.2"/>
<text text-anchor="start" x="30.5" y="-220.3" font-family="Helvetica,sans-Serif" font-size="11.00" fill="#000000">FinishDate</text>
<polygon fill="none" stroke="#000000" points="146.5,-213.2 146.5,-235.2 257.5,-235.2 257.5,-213.2 146.5,-213.2"/>
<text text-anchor="start" x="149.5" y="-220.9" font-family="Helvetica,sans-Serif" font-size="11.00" fill="#000000">datetime[26]</text>
<polygon fill="none" stroke="#000000" points="10.5,-191.2 10.5,-213.2 146.5,-213.2 146.5,-191.2 10.5,-191.2"/>
<text text-anchor="start" x="30.5" y="-198.3" font-family="Helvetica,sans-Serif" font-size="11.00" fill="#000000">Duration</text>
<polygon fill="none" stroke="#000000" points="146.5,-191.2 146.5,-213.2 257.5,-213.2 257.5,-191.2 146.5,-191.2"/>
<text text-anchor="start" x="149.5" y="-198.9" font-family="Helvetica,sans-Serif" font-size="11.00" fill="#000000">decimal[65,30]</text>
<polygon fill="none" stroke="#000000" points="10.5,-169.2 10.5,-191.2 146.5,-191.2 146.5,-169.2 10.5,-169.2"/>
<text text-anchor="start" x="30.5" y="-176.3" font-family="Helvetica,sans-Serif" font-size="11.00" fill="#000000">DurationTypeID</text>
<polygon fill="none" stroke="#000000" points="146.5,-169.2 146.5,-191.2 257.5,-191.2 257.5,-169.2 146.5,-169.2"/>
<text text-anchor="start" x="149.5" y="-176.9" font-family="Helvetica,sans-Serif" font-size="11.00" fill="#000000">int[10]</text>
<polygon fill="none" stroke="#000000" points="10.5,-147.2 10.5,-169.2 146.5,-169.2 146.5,-147.2 10.5,-147.2"/>
<text text-anchor="start" x="30.5" y="-154.3" font-family="Helvetica,sans-Serif" font-size="11.00" fill="#000000">PassingYear</text>
<polygon fill="none" stroke="#000000" points="146.5,-147.2 146.5,-169.2 257.5,-169.2 257.5,-147.2 146.5,-147.2"/>
<text text-anchor="start" x="149.1115" y="-154.9" font-family="Helvetica,sans-Serif" font-size="11.00" fill="#000000">longtext[2147483647]</text>
<polygon fill="none" stroke="#000000" points="10.5,-125.2 10.5,-147.2 146.5,-147.2 146.5,-125.2 10.5,-125.2"/>
<text text-anchor="start" x="30.5" y="-132.3" font-family="Helvetica,sans-Serif" font-size="11.00" fill="#000000">GradingType</text>
<polygon fill="none" stroke="#000000" points="146.5,-125.2 146.5,-147.2 257.5,-147.2 257.5,-125.2 146.5,-125.2"/>
<text text-anchor="start" x="149.1115" y="-132.9" font-family="Helvetica,sans-Serif" font-size="11.00" fill="#000000">longtext[2147483647]</text>
<polygon fill="none" stroke="#000000" points="10.5,-103.2 10.5,-125.2 146.5,-125.2 146.5,-103.2 10.5,-103.2"/>
<text text-anchor="start" x="30.5" y="-110.3" font-family="Helvetica,sans-Serif" font-size="11.00" fill="#000000">Result</text>
<polygon fill="none" stroke="#000000" points="146.5,-103.2 146.5,-125.2 257.5,-125.2 257.5,-103.2 146.5,-103.2"/>
<text text-anchor="start" x="149.1115" y="-110.9" font-family="Helvetica,sans-Serif" font-size="11.00" fill="#000000">longtext[2147483647]</text>
<polygon fill="none" stroke="#000000" points="10.5,-81.2 10.5,-103.2 146.5,-103.2 146.5,-81.2 10.5,-81.2"/>
<text text-anchor="start" x="30.5" y="-88.3" font-family="Helvetica,sans-Serif" font-size="11.00" fill="#000000">IsTraining</text>
<polygon fill="none" stroke="#000000" points="146.5,-81.2 146.5,-103.2 257.5,-103.2 257.5,-81.2 146.5,-81.2"/>
<text text-anchor="start" x="149.5" y="-88.9" font-family="Helvetica,sans-Serif" font-size="11.00" fill="#000000">bit[1]</text>
<polygon fill="none" stroke="#000000" points="10.5,-59.2 10.5,-81.2 146.5,-81.2 146.5,-59.2 10.5,-59.2"/>
<text text-anchor="start" x="30.5" y="-66.3" font-family="Helvetica,sans-Serif" font-size="11.00" fill="#000000">DivisionID</text>
<polygon fill="none" stroke="#000000" points="146.5,-59.2 146.5,-81.2 257.5,-81.2 257.5,-59.2 146.5,-59.2"/>
<text text-anchor="start" x="149.5" y="-66.9" font-family="Helvetica,sans-Serif" font-size="11.00" fill="#000000">int[10]</text>
<polygon fill="#ffffff" stroke="transparent" points="10.5,-40.2 10.5,-59.2 69.5,-59.2 69.5,-40.2 10.5,-40.2"/>
<polygon fill="none" stroke="#000000" points="10.5,-40.2 10.5,-59.2 69.5,-59.2 69.5,-40.2 10.5,-40.2"/>
<text text-anchor="start" x="13.5" y="-46.3" font-family="Helvetica,sans-Serif" font-size="11.00" fill="#000000">&lt; 0</text>
<polygon fill="#ffffff" stroke="transparent" points="69.5,-40.2 69.5,-59.2 146.5,-59.2 146.5,-40.2 69.5,-40.2"/>
<polygon fill="none" stroke="#000000" points="69.5,-40.2 69.5,-59.2 146.5,-59.2 146.5,-40.2 69.5,-40.2"/>
<text text-anchor="start" x="111.1105" y="-46.3" font-family="Helvetica,sans-Serif" font-size="11.00" fill="#000000">3 rows</text>
<polygon fill="#ffffff" stroke="transparent" points="146.5,-40.2 146.5,-59.2 257.5,-59.2 257.5,-40.2 146.5,-40.2"/>
<polygon fill="none" stroke="#000000" points="146.5,-40.2 146.5,-59.2 257.5,-59.2 257.5,-40.2 146.5,-40.2"/>
<text text-anchor="start" x="238.9053" y="-46.3" font-family="Helvetica,sans-Serif" font-size="11.00" fill="#000000">0 &gt;</text>
<polygon fill="none" stroke="#000000" stroke-width="2" points="9,-39.2 9,-589.2 258,-589.2 258,-39.2 9,-39.2"/>
</a>
</g>
</g>
</g>
</svg>
