<?xml version="1.0" encoding="UTF-8" standalone="no"?>
<!DOCTYPE svg PUBLIC "-//W3C//DTD SVG 1.1//EN"
 "http://www.w3.org/Graphics/SVG/1.1/DTD/svg11.dtd">
<!-- Generated by graphviz version 2.40.1 (20161225.0304)
 -->
<!-- Title: oneDegreeRelationshipsDiagram Pages: 1 -->
<svg width="306pt" height="1042pt"
 viewBox="0.00 0.00 306.00 1042.20" xmlns="http://www.w3.org/2000/svg" xmlns:xlink="http://www.w3.org/1999/xlink">
<g id="graph0" class="graph" transform="scale(1 1) rotate(0) translate(4 1038.2)">
<title>oneDegreeRelationshipsDiagram</title>
<polygon fill="#ffffff" stroke="transparent" points="-4,4 -4,-1038.2 302,-1038.2 302,4 -4,4"/>
<text text-anchor="middle" x="72.4936" y="-7.3" font-family="Helvetica,sans-Serif" font-size="11.00" fill="#000000">Generated by SchemaSpy</text>
<!-- emp_basicinformation -->
<g id="node1" class="node">
<title>emp_basicinformation</title>
<g id="a_node1"><a xlink:href="../../tables/emp_basicinformation.html" xlink:title="emp_basicinformation" target="_top">
<polygon fill="#ffffff" stroke="transparent" points="8,-38.2 8,-1030.2 290,-1030.2 290,-38.2 8,-38.2"/>
<polygon fill="#f5f5f5" stroke="transparent" points="10,-1005.2 10,-1028.2 288,-1028.2 288,-1005.2 10,-1005.2"/>
<polygon fill="none" stroke="#000000" points="10,-1005.2 10,-1028.2 288,-1028.2 288,-1005.2 10,-1005.2"/>
<text text-anchor="start" x="15" y="-1013.8" font-family="Helvetica,sans-Serif" font-weight="bold" font-size="11.00" fill="#000000">emp_basicinformation</text>
<text text-anchor="start" x="253.0437" y="-1013.3" font-family="Helvetica,sans-Serif" font-size="11.00" fill="#000000">[table]</text>
<polygon fill="none" stroke="#000000" points="10,-983.2 10,-1005.2 174,-1005.2 174,-983.2 10,-983.2"/>
<image xlink:href="../../images/primaryKeys.png" width="11px" height="12px" preserveAspectRatio="xMinYMin meet" x="15" y="-1000.2"/>
<text text-anchor="start" x="30" y="-990.3" font-family="Helvetica,sans-Serif" font-size="11.00" fill="#000000">ID</text>
<polygon fill="none" stroke="#000000" points="174,-983.2 174,-1005.2 288,-1005.2 288,-983.2 174,-983.2"/>
<text text-anchor="start" x="177" y="-990.9" font-family="Helvetica,sans-Serif" font-size="11.00" fill="#000000">int[10]</text>
<polygon fill="none" stroke="#000000" points="10,-961.2 10,-983.2 174,-983.2 174,-961.2 10,-961.2"/>
<text text-anchor="start" x="30" y="-968.3" font-family="Helvetica,sans-Serif" font-size="11.00" fill="#000000">Active</text>
<polygon fill="none" stroke="#000000" points="174,-961.2 174,-983.2 288,-983.2 288,-961.2 174,-961.2"/>
<text text-anchor="start" x="177" y="-968.9" font-family="Helvetica,sans-Serif" font-size="11.00" fill="#000000">bit[1]</text>
<polygon fill="none" stroke="#000000" points="10,-939.2 10,-961.2 174,-961.2 174,-939.2 10,-939.2"/>
<text text-anchor="start" x="30" y="-946.3" font-family="Helvetica,sans-Serif" font-size="11.00" fill="#000000">User</text>
<polygon fill="none" stroke="#000000" points="174,-939.2 174,-961.2 288,-961.2 288,-939.2 174,-939.2"/>
<text text-anchor="start" x="177" y="-946.9" font-family="Helvetica,sans-Serif" font-size="11.00" fill="#000000">longtext[2147483647]</text>
<polygon fill="none" stroke="#000000" points="10,-917.2 10,-939.2 174,-939.2 174,-917.2 10,-917.2"/>
<text text-anchor="start" x="30" y="-924.3" font-family="Helvetica,sans-Serif" font-size="11.00" fill="#000000">CD</text>
<polygon fill="none" stroke="#000000" points="174,-917.2 174,-939.2 288,-939.2 288,-917.2 174,-917.2"/>
<text text-anchor="start" x="177" y="-924.9" font-family="Helvetica,sans-Serif" font-size="11.00" fill="#000000">datetime[26]</text>
<polygon fill="none" stroke="#000000" points="10,-895.2 10,-917.2 174,-917.2 174,-895.2 10,-895.2"/>
<text text-anchor="start" x="30" y="-902.3" font-family="Helvetica,sans-Serif" font-size="11.00" fill="#000000">UD</text>
<polygon fill="none" stroke="#000000" points="174,-895.2 174,-917.2 288,-917.2 288,-895.2 174,-895.2"/>
<text text-anchor="start" x="177" y="-902.9" font-family="Helvetica,sans-Serif" font-size="11.00" fill="#000000">datetime[26]</text>
<polygon fill="none" stroke="#000000" points="10,-873.2 10,-895.2 174,-895.2 174,-873.2 10,-873.2"/>
<text text-anchor="start" x="30" y="-880.3" font-family="Helvetica,sans-Serif" font-size="11.00" fill="#000000">Remarks</text>
<polygon fill="none" stroke="#000000" points="174,-873.2 174,-895.2 288,-895.2 288,-873.2 174,-873.2"/>
<text text-anchor="start" x="177" y="-880.9" font-family="Helvetica,sans-Serif" font-size="11.00" fill="#000000">longtext[2147483647]</text>
<polygon fill="none" stroke="#000000" points="10,-851.2 10,-873.2 174,-873.2 174,-851.2 10,-851.2"/>
<text text-anchor="start" x="30" y="-858.3" font-family="Helvetica,sans-Serif" font-size="11.00" fill="#000000">UserID</text>
<polygon fill="none" stroke="#000000" points="174,-851.2 174,-873.2 288,-873.2 288,-851.2 174,-851.2"/>
<text text-anchor="start" x="177" y="-858.9" font-family="Helvetica,sans-Serif" font-size="11.00" fill="#000000">int[10]</text>
<polygon fill="none" stroke="#000000" points="10,-829.2 10,-851.2 174,-851.2 174,-829.2 10,-829.2"/>
<text text-anchor="start" x="30" y="-836.3" font-family="Helvetica,sans-Serif" font-size="11.00" fill="#000000">Common_DealerFK</text>
<polygon fill="none" stroke="#000000" points="174,-829.2 174,-851.2 288,-851.2 288,-829.2 174,-829.2"/>
<text text-anchor="start" x="177" y="-836.9" font-family="Helvetica,sans-Serif" font-size="11.00" fill="#000000">int[10]</text>
<polygon fill="none" stroke="#000000" points="10,-807.2 10,-829.2 174,-829.2 174,-807.2 10,-807.2"/>
<text text-anchor="start" x="30" y="-814.3" font-family="Helvetica,sans-Serif" font-size="11.00" fill="#000000">IdentityNo</text>
<polygon fill="none" stroke="#000000" points="174,-807.2 174,-829.2 288,-829.2 288,-807.2 174,-807.2"/>
<text text-anchor="start" x="177" y="-814.9" font-family="Helvetica,sans-Serif" font-size="11.00" fill="#000000">longtext[2147483647]</text>
<polygon fill="none" stroke="#000000" points="10,-785.2 10,-807.2 174,-807.2 174,-785.2 10,-785.2"/>
<text text-anchor="start" x="30" y="-792.3" font-family="Helvetica,sans-Serif" font-size="11.00" fill="#000000">CardNo</text>
<polygon fill="none" stroke="#000000" points="174,-785.2 174,-807.2 288,-807.2 288,-785.2 174,-785.2"/>
<text text-anchor="start" x="177" y="-792.9" font-family="Helvetica,sans-Serif" font-size="11.00" fill="#000000">longtext[2147483647]</text>
<polygon fill="none" stroke="#000000" points="10,-763.2 10,-785.2 174,-785.2 174,-763.2 10,-763.2"/>
<text text-anchor="start" x="30" y="-770.3" font-family="Helvetica,sans-Serif" font-size="11.00" fill="#000000">Name</text>
<polygon fill="none" stroke="#000000" points="174,-763.2 174,-785.2 288,-785.2 288,-763.2 174,-763.2"/>
<text text-anchor="start" x="177" y="-770.9" font-family="Helvetica,sans-Serif" font-size="11.00" fill="#000000">longtext[2147483647]</text>
<polygon fill="none" stroke="#000000" points="10,-741.2 10,-763.2 174,-763.2 174,-741.2 10,-741.2"/>
<text text-anchor="start" x="30" y="-748.3" font-family="Helvetica,sans-Serif" font-size="11.00" fill="#000000">NameBN</text>
<polygon fill="none" stroke="#000000" points="174,-741.2 174,-763.2 288,-763.2 288,-741.2 174,-741.2"/>
<text text-anchor="start" x="177" y="-748.9" font-family="Helvetica,sans-Serif" font-size="11.00" fill="#000000">longtext[2147483647]</text>
<polygon fill="none" stroke="#000000" points="10,-719.2 10,-741.2 174,-741.2 174,-719.2 10,-719.2"/>
<text text-anchor="start" x="30" y="-726.3" font-family="Helvetica,sans-Serif" font-size="11.00" fill="#000000">FatherName</text>
<polygon fill="none" stroke="#000000" points="174,-719.2 174,-741.2 288,-741.2 288,-719.2 174,-719.2"/>
<text text-anchor="start" x="177" y="-726.9" font-family="Helvetica,sans-Serif" font-size="11.00" fill="#000000">longtext[2147483647]</text>
<polygon fill="none" stroke="#000000" points="10,-697.2 10,-719.2 174,-719.2 174,-697.2 10,-697.2"/>
<text text-anchor="start" x="30" y="-704.3" font-family="Helvetica,sans-Serif" font-size="11.00" fill="#000000">MotherName</text>
<polygon fill="none" stroke="#000000" points="174,-697.2 174,-719.2 288,-719.2 288,-697.2 174,-697.2"/>
<text text-anchor="start" x="177" y="-704.9" font-family="Helvetica,sans-Serif" font-size="11.00" fill="#000000">longtext[2147483647]</text>
<polygon fill="none" stroke="#000000" points="10,-675.2 10,-697.2 174,-697.2 174,-675.2 10,-675.2"/>
<text text-anchor="start" x="30" y="-682.3" font-family="Helvetica,sans-Serif" font-size="11.00" fill="#000000">DOB</text>
<polygon fill="none" stroke="#000000" points="174,-675.2 174,-697.2 288,-697.2 288,-675.2 174,-675.2"/>
<text text-anchor="start" x="177" y="-682.9" font-family="Helvetica,sans-Serif" font-size="11.00" fill="#000000">datetime[26]</text>
<polygon fill="none" stroke="#000000" points="10,-653.2 10,-675.2 174,-675.2 174,-653.2 10,-653.2"/>
<text text-anchor="start" x="30" y="-660.3" font-family="Helvetica,sans-Serif" font-size="11.00" fill="#000000">Common_DesignationFK</text>
<polygon fill="none" stroke="#000000" points="174,-653.2 174,-675.2 288,-675.2 288,-653.2 174,-653.2"/>
<text text-anchor="start" x="177" y="-660.9" font-family="Helvetica,sans-Serif" font-size="11.00" fill="#000000">int[10]</text>
<polygon fill="none" stroke="#000000" points="10,-631.2 10,-653.2 174,-653.2 174,-631.2 10,-631.2"/>
<text text-anchor="start" x="30" y="-638.3" font-family="Helvetica,sans-Serif" font-size="11.00" fill="#000000">Common_DepartmentFK</text>
<polygon fill="none" stroke="#000000" points="174,-631.2 174,-653.2 288,-653.2 288,-631.2 174,-631.2"/>
<text text-anchor="start" x="177" y="-638.9" font-family="Helvetica,sans-Serif" font-size="11.00" fill="#000000">int[10]</text>
<polygon fill="none" stroke="#000000" points="10,-609.2 10,-631.2 174,-631.2 174,-609.2 10,-609.2"/>
<text text-anchor="start" x="30" y="-616.3" font-family="Helvetica,sans-Serif" font-size="11.00" fill="#000000">GenderID</text>
<polygon fill="none" stroke="#000000" points="174,-609.2 174,-631.2 288,-631.2 288,-609.2 174,-609.2"/>
<text text-anchor="start" x="177" y="-616.9" font-family="Helvetica,sans-Serif" font-size="11.00" fill="#000000">int[10]</text>
<polygon fill="none" stroke="#000000" points="10,-587.2 10,-609.2 174,-609.2 174,-587.2 10,-587.2"/>
<text text-anchor="start" x="30" y="-594.3" font-family="Helvetica,sans-Serif" font-size="11.00" fill="#000000">ReligionID</text>
<polygon fill="none" stroke="#000000" points="174,-587.2 174,-609.2 288,-609.2 288,-587.2 174,-587.2"/>
<text text-anchor="start" x="177" y="-594.9" font-family="Helvetica,sans-Serif" font-size="11.00" fill="#000000">int[10]</text>
<polygon fill="none" stroke="#000000" points="10,-565.2 10,-587.2 174,-587.2 174,-565.2 10,-565.2"/>
<text text-anchor="start" x="30" y="-572.3" font-family="Helvetica,sans-Serif" font-size="11.00" fill="#000000">BloodGroupID</text>
<polygon fill="none" stroke="#000000" points="174,-565.2 174,-587.2 288,-587.2 288,-565.2 174,-565.2"/>
<text text-anchor="start" x="177" y="-572.9" font-family="Helvetica,sans-Serif" font-size="11.00" fill="#000000">int[10]</text>
<polygon fill="none" stroke="#000000" points="10,-543.2 10,-565.2 174,-565.2 174,-543.2 10,-543.2"/>
<text text-anchor="start" x="30" y="-550.3" font-family="Helvetica,sans-Serif" font-size="11.00" fill="#000000">MaritalStatusID</text>
<polygon fill="none" stroke="#000000" points="174,-543.2 174,-565.2 288,-565.2 288,-543.2 174,-543.2"/>
<text text-anchor="start" x="177" y="-550.9" font-family="Helvetica,sans-Serif" font-size="11.00" fill="#000000">int[10]</text>
<polygon fill="none" stroke="#000000" points="10,-521.2 10,-543.2 174,-543.2 174,-521.2 10,-521.2"/>
<text text-anchor="start" x="30" y="-528.3" font-family="Helvetica,sans-Serif" font-size="11.00" fill="#000000">Present_Address</text>
<polygon fill="none" stroke="#000000" points="174,-521.2 174,-543.2 288,-543.2 288,-521.2 174,-521.2"/>
<text text-anchor="start" x="177" y="-528.9" font-family="Helvetica,sans-Serif" font-size="11.00" fill="#000000">longtext[2147483647]</text>
<polygon fill="none" stroke="#000000" points="10,-499.2 10,-521.2 174,-521.2 174,-499.2 10,-499.2"/>
<text text-anchor="start" x="30" y="-506.3" font-family="Helvetica,sans-Serif" font-size="11.00" fill="#000000">Present_DistrictFK</text>
<polygon fill="none" stroke="#000000" points="174,-499.2 174,-521.2 288,-521.2 288,-499.2 174,-499.2"/>
<text text-anchor="start" x="177" y="-506.9" font-family="Helvetica,sans-Serif" font-size="11.00" fill="#000000">int[10]</text>
<polygon fill="none" stroke="#000000" points="10,-477.2 10,-499.2 174,-499.2 174,-477.2 10,-477.2"/>
<text text-anchor="start" x="30" y="-484.3" font-family="Helvetica,sans-Serif" font-size="11.00" fill="#000000">IsConsiderPermanent</text>
<polygon fill="none" stroke="#000000" points="174,-477.2 174,-499.2 288,-499.2 288,-477.2 174,-477.2"/>
<text text-anchor="start" x="177" y="-484.9" font-family="Helvetica,sans-Serif" font-size="11.00" fill="#000000">bit[1]</text>
<polygon fill="none" stroke="#000000" points="10,-455.2 10,-477.2 174,-477.2 174,-455.2 10,-455.2"/>
<text text-anchor="start" x="30" y="-462.3" font-family="Helvetica,sans-Serif" font-size="11.00" fill="#000000">Permanent_Address</text>
<polygon fill="none" stroke="#000000" points="174,-455.2 174,-477.2 288,-477.2 288,-455.2 174,-455.2"/>
<text text-anchor="start" x="177" y="-462.9" font-family="Helvetica,sans-Serif" font-size="11.00" fill="#000000">longtext[2147483647]</text>
<polygon fill="none" stroke="#000000" points="10,-433.2 10,-455.2 174,-455.2 174,-433.2 10,-433.2"/>
<text text-anchor="start" x="30" y="-440.3" font-family="Helvetica,sans-Serif" font-size="11.00" fill="#000000">Permanent_DistrictFK</text>
<polygon fill="none" stroke="#000000" points="174,-433.2 174,-455.2 288,-455.2 288,-433.2 174,-433.2"/>
<text text-anchor="start" x="177" y="-440.9" font-family="Helvetica,sans-Serif" font-size="11.00" fill="#000000">int[10]</text>
<polygon fill="none" stroke="#000000" points="10,-411.2 10,-433.2 174,-433.2 174,-411.2 10,-411.2"/>
<text text-anchor="start" x="30" y="-418.3" font-family="Helvetica,sans-Serif" font-size="11.00" fill="#000000">NIDNo</text>
<polygon fill="none" stroke="#000000" points="174,-411.2 174,-433.2 288,-433.2 288,-411.2 174,-411.2"/>
<text text-anchor="start" x="177" y="-418.9" font-family="Helvetica,sans-Serif" font-size="11.00" fill="#000000">longtext[2147483647]</text>
<polygon fill="none" stroke="#000000" points="10,-389.2 10,-411.2 174,-411.2 174,-389.2 10,-389.2"/>
<text text-anchor="start" x="30" y="-396.3" font-family="Helvetica,sans-Serif" font-size="11.00" fill="#000000">PassportNo</text>
<polygon fill="none" stroke="#000000" points="174,-389.2 174,-411.2 288,-411.2 288,-389.2 174,-389.2"/>
<text text-anchor="start" x="177" y="-396.9" font-family="Helvetica,sans-Serif" font-size="11.00" fill="#000000">longtext[2147483647]</text>
<polygon fill="none" stroke="#000000" points="10,-367.2 10,-389.2 174,-389.2 174,-367.2 10,-367.2"/>
<text text-anchor="start" x="30" y="-374.3" font-family="Helvetica,sans-Serif" font-size="11.00" fill="#000000">DrivingLicenseNo</text>
<polygon fill="none" stroke="#000000" points="174,-367.2 174,-389.2 288,-389.2 288,-367.2 174,-367.2"/>
<text text-anchor="start" x="177" y="-374.9" font-family="Helvetica,sans-Serif" font-size="11.00" fill="#000000">longtext[2147483647]</text>
<polygon fill="none" stroke="#000000" points="10,-345.2 10,-367.2 174,-367.2 174,-345.2 10,-345.2"/>
<text text-anchor="start" x="30" y="-352.3" font-family="Helvetica,sans-Serif" font-size="11.00" fill="#000000">WorkContactNo</text>
<polygon fill="none" stroke="#000000" points="174,-345.2 174,-367.2 288,-367.2 288,-345.2 174,-345.2"/>
<text text-anchor="start" x="177" y="-352.9" font-family="Helvetica,sans-Serif" font-size="11.00" fill="#000000">longtext[2147483647]</text>
<polygon fill="none" stroke="#000000" points="10,-323.2 10,-345.2 174,-345.2 174,-323.2 10,-323.2"/>
<text text-anchor="start" x="30" y="-330.3" font-family="Helvetica,sans-Serif" font-size="11.00" fill="#000000">WorkEmail</text>
<polygon fill="none" stroke="#000000" points="174,-323.2 174,-345.2 288,-345.2 288,-323.2 174,-323.2"/>
<text text-anchor="start" x="177" y="-330.9" font-family="Helvetica,sans-Serif" font-size="11.00" fill="#000000">longtext[2147483647]</text>
<polygon fill="none" stroke="#000000" points="10,-301.2 10,-323.2 174,-323.2 174,-301.2 10,-301.2"/>
<text text-anchor="start" x="30" y="-308.3" font-family="Helvetica,sans-Serif" font-size="11.00" fill="#000000">Image</text>
<polygon fill="none" stroke="#000000" points="174,-301.2 174,-323.2 288,-323.2 288,-301.2 174,-301.2"/>
<text text-anchor="start" x="176.583" y="-308.9" font-family="Helvetica,sans-Serif" font-size="11.00" fill="#000000">longblob[2147483647]</text>
<polygon fill="none" stroke="#000000" points="10,-279.2 10,-301.2 174,-301.2 174,-279.2 10,-279.2"/>
<text text-anchor="start" x="30" y="-286.3" font-family="Helvetica,sans-Serif" font-size="11.00" fill="#000000">EmployementType</text>
<polygon fill="none" stroke="#000000" points="174,-279.2 174,-301.2 288,-301.2 288,-279.2 174,-279.2"/>
<text text-anchor="start" x="177" y="-286.9" font-family="Helvetica,sans-Serif" font-size="11.00" fill="#000000">int[10]</text>
<polygon fill="none" stroke="#000000" points="10,-257.2 10,-279.2 174,-279.2 174,-257.2 10,-257.2"/>
<text text-anchor="start" x="30" y="-264.3" font-family="Helvetica,sans-Serif" font-size="11.00" fill="#000000">PresentStatus</text>
<polygon fill="none" stroke="#000000" points="174,-257.2 174,-279.2 288,-279.2 288,-257.2 174,-257.2"/>
<text text-anchor="start" x="177" y="-264.9" font-family="Helvetica,sans-Serif" font-size="11.00" fill="#000000">int[10]</text>
<polygon fill="none" stroke="#000000" points="10,-235.2 10,-257.2 174,-257.2 174,-235.2 10,-235.2"/>
<text text-anchor="start" x="30" y="-242.3" font-family="Helvetica,sans-Serif" font-size="11.00" fill="#000000">JoiningDate</text>
<polygon fill="none" stroke="#000000" points="174,-235.2 174,-257.2 288,-257.2 288,-235.2 174,-235.2"/>
<text text-anchor="start" x="177" y="-242.9" font-family="Helvetica,sans-Serif" font-size="11.00" fill="#000000">datetime[26]</text>
<polygon fill="none" stroke="#000000" points="10,-213.2 10,-235.2 174,-235.2 174,-213.2 10,-213.2"/>
<text text-anchor="start" x="30" y="-220.3" font-family="Helvetica,sans-Serif" font-size="11.00" fill="#000000">QuitDate</text>
<polygon fill="none" stroke="#000000" points="174,-213.2 174,-235.2 288,-235.2 288,-213.2 174,-213.2"/>
<text text-anchor="start" x="177" y="-220.9" font-family="Helvetica,sans-Serif" font-size="11.00" fill="#000000">datetime[26]</text>
<polygon fill="none" stroke="#000000" points="10,-191.2 10,-213.2 174,-213.2 174,-191.2 10,-191.2"/>
<text text-anchor="start" x="30" y="-198.3" font-family="Helvetica,sans-Serif" font-size="11.00" fill="#000000">ReportingDesignationId</text>
<polygon fill="none" stroke="#000000" points="174,-191.2 174,-213.2 288,-213.2 288,-191.2 174,-191.2"/>
<text text-anchor="start" x="177" y="-198.9" font-family="Helvetica,sans-Serif" font-size="11.00" fill="#000000">int[10]</text>
<polygon fill="none" stroke="#000000" points="10,-169.2 10,-191.2 174,-191.2 174,-169.2 10,-169.2"/>
<text text-anchor="start" x="30" y="-176.3" font-family="Helvetica,sans-Serif" font-size="11.00" fill="#000000">IsClosed</text>
<polygon fill="none" stroke="#000000" points="174,-169.2 174,-191.2 288,-191.2 288,-169.2 174,-169.2"/>
<text text-anchor="start" x="177" y="-176.9" font-family="Helvetica,sans-Serif" font-size="11.00" fill="#000000">bit[1]</text>
<polygon fill="none" stroke="#000000" points="10,-147.2 10,-169.2 174,-169.2 174,-147.2 10,-147.2"/>
<text text-anchor="start" x="30" y="-154.3" font-family="Helvetica,sans-Serif" font-size="11.00" fill="#000000">ValidityDate</text>
<polygon fill="none" stroke="#000000" points="174,-147.2 174,-169.2 288,-169.2 288,-147.2 174,-147.2"/>
<text text-anchor="start" x="177" y="-154.9" font-family="Helvetica,sans-Serif" font-size="11.00" fill="#000000">datetime[26]</text>
<polygon fill="none" stroke="#000000" points="10,-125.2 10,-147.2 174,-147.2 174,-125.2 10,-125.2"/>
<text text-anchor="start" x="30" y="-132.3" font-family="Helvetica,sans-Serif" font-size="11.00" fill="#000000">ConfirmedBy</text>
<polygon fill="none" stroke="#000000" points="174,-125.2 174,-147.2 288,-147.2 288,-125.2 174,-125.2"/>
<text text-anchor="start" x="177" y="-132.9" font-family="Helvetica,sans-Serif" font-size="11.00" fill="#000000">int[10]</text>
<polygon fill="none" stroke="#000000" points="10,-103.2 10,-125.2 174,-125.2 174,-103.2 10,-103.2"/>
<text text-anchor="start" x="30" y="-110.3" font-family="Helvetica,sans-Serif" font-size="11.00" fill="#000000">HasRegistered</text>
<polygon fill="none" stroke="#000000" points="174,-103.2 174,-125.2 288,-125.2 288,-103.2 174,-103.2"/>
<text text-anchor="start" x="177" y="-110.9" font-family="Helvetica,sans-Serif" font-size="11.00" fill="#000000">bit[1]</text>
<polygon fill="none" stroke="#000000" points="10,-81.2 10,-103.2 174,-103.2 174,-81.2 10,-81.2"/>
<text text-anchor="start" x="30" y="-88.3" font-family="Helvetica,sans-Serif" font-size="11.00" fill="#000000">Nationality</text>
<polygon fill="none" stroke="#000000" points="174,-81.2 174,-103.2 288,-103.2 288,-81.2 174,-81.2"/>
<text text-anchor="start" x="177" y="-88.9" font-family="Helvetica,sans-Serif" font-size="11.00" fill="#000000">int[10]</text>
<polygon fill="none" stroke="#000000" points="10,-59.2 10,-81.2 174,-81.2 174,-59.2 10,-59.2"/>
<text text-anchor="start" x="30" y="-66.3" font-family="Helvetica,sans-Serif" font-size="11.00" fill="#000000">EmpCode</text>
<polygon fill="none" stroke="#000000" points="174,-59.2 174,-81.2 288,-81.2 288,-59.2 174,-59.2"/>
<text text-anchor="start" x="177" y="-66.9" font-family="Helvetica,sans-Serif" font-size="11.00" fill="#000000">longtext[2147483647]</text>
<polygon fill="#ffffff" stroke="transparent" points="10,-40.2 10,-59.2 77,-59.2 77,-40.2 10,-40.2"/>
<polygon fill="none" stroke="#000000" points="10,-40.2 10,-59.2 77,-59.2 77,-40.2 10,-40.2"/>
<text text-anchor="start" x="13" y="-46.3" font-family="Helvetica,sans-Serif" font-size="11.00" fill="#000000">&lt; 0</text>
<polygon fill="#ffffff" stroke="transparent" points="77,-40.2 77,-59.2 174,-59.2 174,-40.2 77,-40.2"/>
<polygon fill="none" stroke="#000000" points="77,-40.2 77,-59.2 174,-59.2 174,-40.2 77,-40.2"/>
<text text-anchor="start" x="126.3807" y="-46.3" font-family="Helvetica,sans-Serif" font-size="11.00" fill="#000000">135 rows</text>
<polygon fill="#ffffff" stroke="transparent" points="174,-40.2 174,-59.2 288,-59.2 288,-40.2 174,-40.2"/>
<polygon fill="none" stroke="#000000" points="174,-40.2 174,-59.2 288,-59.2 288,-40.2 174,-40.2"/>
<text text-anchor="start" x="269.4053" y="-46.3" font-family="Helvetica,sans-Serif" font-size="11.00" fill="#000000">0 &gt;</text>
<polygon fill="none" stroke="#000000" stroke-width="2" points="9,-39.2 9,-1029.2 289,-1029.2 289,-39.2 9,-39.2"/>
</a>
</g>
</g>
</g>
</svg>
