<?xml version="1.0" encoding="UTF-8" standalone="no"?>
<!DOCTYPE svg PUBLIC "-//W3C//DTD SVG 1.1//EN"
 "http://www.w3.org/Graphics/SVG/1.1/DTD/svg11.dtd">
<!-- Generated by graphviz version 2.40.1 (20161225.0304)
 -->
<!-- Title: oneDegreeRelationshipsDiagram Pages: 1 -->
<svg width="294pt" height="580pt"
 viewBox="0.00 0.00 294.00 580.20" xmlns="http://www.w3.org/2000/svg" xmlns:xlink="http://www.w3.org/1999/xlink">
<g id="graph0" class="graph" transform="scale(1 1) rotate(0) translate(4 576.2)">
<title>oneDegreeRelationshipsDiagram</title>
<polygon fill="#ffffff" stroke="transparent" points="-4,4 -4,-576.2 290,-576.2 290,4 -4,4"/>
<text text-anchor="middle" x="72.4936" y="-7.3" font-family="Helvetica,sans-Serif" font-size="11.00" fill="#000000">Generated by SchemaSpy</text>
<!-- emp_nomineereference -->
<g id="node1" class="node">
<title>emp_nomineereference</title>
<g id="a_node1"><a xlink:href="../../tables/emp_nomineereference.html" xlink:title="emp_nomineereference" target="_top">
<polygon fill="#ffffff" stroke="transparent" points="8,-38.2 8,-568.2 278,-568.2 278,-38.2 8,-38.2"/>
<polygon fill="#f5f5f5" stroke="transparent" points="10,-543.2 10,-566.2 276,-566.2 276,-543.2 10,-543.2"/>
<polygon fill="none" stroke="#000000" points="10,-543.2 10,-566.2 276,-566.2 276,-543.2 10,-543.2"/>
<text text-anchor="start" x="15" y="-551.8" font-family="Helvetica,sans-Serif" font-weight="bold" font-size="11.00" fill="#000000">emp_nomineereference</text>
<text text-anchor="start" x="241.0437" y="-551.3" font-family="Helvetica,sans-Serif" font-size="11.00" fill="#000000">[table]</text>
<polygon fill="none" stroke="#000000" points="10,-521.2 10,-543.2 165,-543.2 165,-521.2 10,-521.2"/>
<image xlink:href="../../images/primaryKeys.png" width="11px" height="12px" preserveAspectRatio="xMinYMin meet" x="15" y="-538.2"/>
<text text-anchor="start" x="30" y="-528.3" font-family="Helvetica,sans-Serif" font-size="11.00" fill="#000000">ID</text>
<polygon fill="none" stroke="#000000" points="165,-521.2 165,-543.2 276,-543.2 276,-521.2 165,-521.2"/>
<text text-anchor="start" x="168" y="-528.9" font-family="Helvetica,sans-Serif" font-size="11.00" fill="#000000">int[10]</text>
<polygon fill="none" stroke="#000000" points="10,-499.2 10,-521.2 165,-521.2 165,-499.2 10,-499.2"/>
<text text-anchor="start" x="30" y="-506.3" font-family="Helvetica,sans-Serif" font-size="11.00" fill="#000000">Active</text>
<polygon fill="none" stroke="#000000" points="165,-499.2 165,-521.2 276,-521.2 276,-499.2 165,-499.2"/>
<text text-anchor="start" x="168" y="-506.9" font-family="Helvetica,sans-Serif" font-size="11.00" fill="#000000">bit[1]</text>
<polygon fill="none" stroke="#000000" points="10,-477.2 10,-499.2 165,-499.2 165,-477.2 10,-477.2"/>
<text text-anchor="start" x="30" y="-484.3" font-family="Helvetica,sans-Serif" font-size="11.00" fill="#000000">User</text>
<polygon fill="none" stroke="#000000" points="165,-477.2 165,-499.2 276,-499.2 276,-477.2 165,-477.2"/>
<text text-anchor="start" x="167.6115" y="-484.9" font-family="Helvetica,sans-Serif" font-size="11.00" fill="#000000">longtext[2147483647]</text>
<polygon fill="none" stroke="#000000" points="10,-455.2 10,-477.2 165,-477.2 165,-455.2 10,-455.2"/>
<text text-anchor="start" x="30" y="-462.3" font-family="Helvetica,sans-Serif" font-size="11.00" fill="#000000">CD</text>
<polygon fill="none" stroke="#000000" points="165,-455.2 165,-477.2 276,-477.2 276,-455.2 165,-455.2"/>
<text text-anchor="start" x="168" y="-462.9" font-family="Helvetica,sans-Serif" font-size="11.00" fill="#000000">datetime[26]</text>
<polygon fill="none" stroke="#000000" points="10,-433.2 10,-455.2 165,-455.2 165,-433.2 10,-433.2"/>
<text text-anchor="start" x="30" y="-440.3" font-family="Helvetica,sans-Serif" font-size="11.00" fill="#000000">UD</text>
<polygon fill="none" stroke="#000000" points="165,-433.2 165,-455.2 276,-455.2 276,-433.2 165,-433.2"/>
<text text-anchor="start" x="168" y="-440.9" font-family="Helvetica,sans-Serif" font-size="11.00" fill="#000000">datetime[26]</text>
<polygon fill="none" stroke="#000000" points="10,-411.2 10,-433.2 165,-433.2 165,-411.2 10,-411.2"/>
<text text-anchor="start" x="30" y="-418.3" font-family="Helvetica,sans-Serif" font-size="11.00" fill="#000000">Remarks</text>
<polygon fill="none" stroke="#000000" points="165,-411.2 165,-433.2 276,-433.2 276,-411.2 165,-411.2"/>
<text text-anchor="start" x="167.6115" y="-418.9" font-family="Helvetica,sans-Serif" font-size="11.00" fill="#000000">longtext[2147483647]</text>
<polygon fill="none" stroke="#000000" points="10,-389.2 10,-411.2 165,-411.2 165,-389.2 10,-389.2"/>
<text text-anchor="start" x="30" y="-396.3" font-family="Helvetica,sans-Serif" font-size="11.00" fill="#000000">UserID</text>
<polygon fill="none" stroke="#000000" points="165,-389.2 165,-411.2 276,-411.2 276,-389.2 165,-389.2"/>
<text text-anchor="start" x="168" y="-396.9" font-family="Helvetica,sans-Serif" font-size="11.00" fill="#000000">int[10]</text>
<polygon fill="none" stroke="#000000" points="10,-367.2 10,-389.2 165,-389.2 165,-367.2 10,-367.2"/>
<text text-anchor="start" x="30" y="-374.3" font-family="Helvetica,sans-Serif" font-size="11.00" fill="#000000">EmployeeFK</text>
<polygon fill="none" stroke="#000000" points="165,-367.2 165,-389.2 276,-389.2 276,-367.2 165,-367.2"/>
<text text-anchor="start" x="168" y="-374.9" font-family="Helvetica,sans-Serif" font-size="11.00" fill="#000000">int[10]</text>
<polygon fill="none" stroke="#000000" points="10,-345.2 10,-367.2 165,-367.2 165,-345.2 10,-345.2"/>
<text text-anchor="start" x="30" y="-352.3" font-family="Helvetica,sans-Serif" font-size="11.00" fill="#000000">Common_DealerFK</text>
<polygon fill="none" stroke="#000000" points="165,-345.2 165,-367.2 276,-367.2 276,-345.2 165,-345.2"/>
<text text-anchor="start" x="168" y="-352.9" font-family="Helvetica,sans-Serif" font-size="11.00" fill="#000000">int[10]</text>
<polygon fill="none" stroke="#000000" points="10,-323.2 10,-345.2 165,-345.2 165,-323.2 10,-323.2"/>
<text text-anchor="start" x="30" y="-330.3" font-family="Helvetica,sans-Serif" font-size="11.00" fill="#000000">Name</text>
<polygon fill="none" stroke="#000000" points="165,-323.2 165,-345.2 276,-345.2 276,-323.2 165,-323.2"/>
<text text-anchor="start" x="167.6115" y="-330.9" font-family="Helvetica,sans-Serif" font-size="11.00" fill="#000000">longtext[2147483647]</text>
<polygon fill="none" stroke="#000000" points="10,-301.2 10,-323.2 165,-323.2 165,-301.2 10,-301.2"/>
<text text-anchor="start" x="30" y="-308.3" font-family="Helvetica,sans-Serif" font-size="11.00" fill="#000000">ContactNo</text>
<polygon fill="none" stroke="#000000" points="165,-301.2 165,-323.2 276,-323.2 276,-301.2 165,-301.2"/>
<text text-anchor="start" x="167.6115" y="-308.9" font-family="Helvetica,sans-Serif" font-size="11.00" fill="#000000">longtext[2147483647]</text>
<polygon fill="none" stroke="#000000" points="10,-279.2 10,-301.2 165,-301.2 165,-279.2 10,-279.2"/>
<text text-anchor="start" x="30" y="-286.3" font-family="Helvetica,sans-Serif" font-size="11.00" fill="#000000">EmailId</text>
<polygon fill="none" stroke="#000000" points="165,-279.2 165,-301.2 276,-301.2 276,-279.2 165,-279.2"/>
<text text-anchor="start" x="167.6115" y="-286.9" font-family="Helvetica,sans-Serif" font-size="11.00" fill="#000000">longtext[2147483647]</text>
<polygon fill="none" stroke="#000000" points="10,-257.2 10,-279.2 165,-279.2 165,-257.2 10,-257.2"/>
<text text-anchor="start" x="30" y="-264.3" font-family="Helvetica,sans-Serif" font-size="11.00" fill="#000000">Address</text>
<polygon fill="none" stroke="#000000" points="165,-257.2 165,-279.2 276,-279.2 276,-257.2 165,-257.2"/>
<text text-anchor="start" x="167.6115" y="-264.9" font-family="Helvetica,sans-Serif" font-size="11.00" fill="#000000">longtext[2147483647]</text>
<polygon fill="none" stroke="#000000" points="10,-235.2 10,-257.2 165,-257.2 165,-235.2 10,-235.2"/>
<text text-anchor="start" x="30" y="-242.3" font-family="Helvetica,sans-Serif" font-size="11.00" fill="#000000">Relation</text>
<polygon fill="none" stroke="#000000" points="165,-235.2 165,-257.2 276,-257.2 276,-235.2 165,-235.2"/>
<text text-anchor="start" x="167.6115" y="-242.9" font-family="Helvetica,sans-Serif" font-size="11.00" fill="#000000">longtext[2147483647]</text>
<polygon fill="none" stroke="#000000" points="10,-213.2 10,-235.2 165,-235.2 165,-213.2 10,-213.2"/>
<text text-anchor="start" x="30" y="-220.3" font-family="Helvetica,sans-Serif" font-size="11.00" fill="#000000">FatherName</text>
<polygon fill="none" stroke="#000000" points="165,-213.2 165,-235.2 276,-235.2 276,-213.2 165,-213.2"/>
<text text-anchor="start" x="167.6115" y="-220.9" font-family="Helvetica,sans-Serif" font-size="11.00" fill="#000000">longtext[2147483647]</text>
<polygon fill="none" stroke="#000000" points="10,-191.2 10,-213.2 165,-213.2 165,-191.2 10,-191.2"/>
<text text-anchor="start" x="30" y="-198.3" font-family="Helvetica,sans-Serif" font-size="11.00" fill="#000000">MotherName</text>
<polygon fill="none" stroke="#000000" points="165,-191.2 165,-213.2 276,-213.2 276,-191.2 165,-191.2"/>
<text text-anchor="start" x="167.6115" y="-198.9" font-family="Helvetica,sans-Serif" font-size="11.00" fill="#000000">longtext[2147483647]</text>
<polygon fill="none" stroke="#000000" points="10,-169.2 10,-191.2 165,-191.2 165,-169.2 10,-169.2"/>
<text text-anchor="start" x="30" y="-176.3" font-family="Helvetica,sans-Serif" font-size="11.00" fill="#000000">NIDNo</text>
<polygon fill="none" stroke="#000000" points="165,-169.2 165,-191.2 276,-191.2 276,-169.2 165,-169.2"/>
<text text-anchor="start" x="167.6115" y="-176.9" font-family="Helvetica,sans-Serif" font-size="11.00" fill="#000000">longtext[2147483647]</text>
<polygon fill="none" stroke="#000000" points="10,-147.2 10,-169.2 165,-169.2 165,-147.2 10,-147.2"/>
<text text-anchor="start" x="30" y="-154.3" font-family="Helvetica,sans-Serif" font-size="11.00" fill="#000000">IsEmpReference</text>
<polygon fill="none" stroke="#000000" points="165,-147.2 165,-169.2 276,-169.2 276,-147.2 165,-147.2"/>
<text text-anchor="start" x="168" y="-154.9" font-family="Helvetica,sans-Serif" font-size="11.00" fill="#000000">bit[1]</text>
<polygon fill="none" stroke="#000000" points="10,-125.2 10,-147.2 165,-147.2 165,-125.2 10,-125.2"/>
<text text-anchor="start" x="30" y="-132.3" font-family="Helvetica,sans-Serif" font-size="11.00" fill="#000000">IsNominee</text>
<polygon fill="none" stroke="#000000" points="165,-125.2 165,-147.2 276,-147.2 276,-125.2 165,-125.2"/>
<text text-anchor="start" x="168" y="-132.9" font-family="Helvetica,sans-Serif" font-size="11.00" fill="#000000">bit[1]</text>
<polygon fill="none" stroke="#000000" points="10,-103.2 10,-125.2 165,-125.2 165,-103.2 10,-103.2"/>
<text text-anchor="start" x="30" y="-110.3" font-family="Helvetica,sans-Serif" font-size="11.00" fill="#000000">IsVarified</text>
<polygon fill="none" stroke="#000000" points="165,-103.2 165,-125.2 276,-125.2 276,-103.2 165,-103.2"/>
<text text-anchor="start" x="168" y="-110.9" font-family="Helvetica,sans-Serif" font-size="11.00" fill="#000000">bit[1]</text>
<polygon fill="none" stroke="#000000" points="10,-81.2 10,-103.2 165,-103.2 165,-81.2 10,-81.2"/>
<text text-anchor="start" x="30" y="-88.3" font-family="Helvetica,sans-Serif" font-size="11.00" fill="#000000">VarifyingComments</text>
<polygon fill="none" stroke="#000000" points="165,-81.2 165,-103.2 276,-103.2 276,-81.2 165,-81.2"/>
<text text-anchor="start" x="167.6115" y="-88.9" font-family="Helvetica,sans-Serif" font-size="11.00" fill="#000000">longtext[2147483647]</text>
<polygon fill="none" stroke="#000000" points="10,-59.2 10,-81.2 165,-81.2 165,-59.2 10,-59.2"/>
<text text-anchor="start" x="30" y="-66.3" font-family="Helvetica,sans-Serif" font-size="11.00" fill="#000000">RefEmployeeCode</text>
<polygon fill="none" stroke="#000000" points="165,-59.2 165,-81.2 276,-81.2 276,-59.2 165,-59.2"/>
<text text-anchor="start" x="167.6115" y="-66.9" font-family="Helvetica,sans-Serif" font-size="11.00" fill="#000000">longtext[2147483647]</text>
<polygon fill="#ffffff" stroke="transparent" points="10,-40.2 10,-59.2 79,-59.2 79,-40.2 10,-40.2"/>
<polygon fill="none" stroke="#000000" points="10,-40.2 10,-59.2 79,-59.2 79,-40.2 10,-40.2"/>
<text text-anchor="start" x="13" y="-46.3" font-family="Helvetica,sans-Serif" font-size="11.00" fill="#000000">&lt; 0</text>
<polygon fill="#ffffff" stroke="transparent" points="79,-40.2 79,-59.2 165,-59.2 165,-40.2 79,-40.2"/>
<polygon fill="none" stroke="#000000" points="79,-40.2 79,-59.2 165,-59.2 165,-40.2 79,-40.2"/>
<text text-anchor="start" x="129.6105" y="-46.3" font-family="Helvetica,sans-Serif" font-size="11.00" fill="#000000">0 rows</text>
<polygon fill="#ffffff" stroke="transparent" points="165,-40.2 165,-59.2 276,-59.2 276,-40.2 165,-40.2"/>
<polygon fill="none" stroke="#000000" points="165,-40.2 165,-59.2 276,-59.2 276,-40.2 165,-40.2"/>
<text text-anchor="start" x="257.4053" y="-46.3" font-family="Helvetica,sans-Serif" font-size="11.00" fill="#000000">0 &gt;</text>
<polygon fill="none" stroke="#000000" stroke-width="2" points="9,-39.2 9,-567.2 277,-567.2 277,-39.2 9,-39.2"/>
</a>
</g>
</g>
</g>
</svg>
