<?xml version="1.0" encoding="UTF-8" standalone="no"?>
<!DOCTYPE svg PUBLIC "-//W3C//DTD SVG 1.1//EN"
 "http://www.w3.org/Graphics/SVG/1.1/DTD/svg11.dtd">
<!-- Generated by graphviz version 2.40.1 (20161225.0304)
 -->
<!-- Title: oneDegreeRelationshipsDiagram Pages: 1 -->
<svg width="347pt" height="712pt"
 viewBox="0.00 0.00 347.00 712.20" xmlns="http://www.w3.org/2000/svg" xmlns:xlink="http://www.w3.org/1999/xlink">
<g id="graph0" class="graph" transform="scale(1 1) rotate(0) translate(4 708.2)">
<title>oneDegreeRelationshipsDiagram</title>
<polygon fill="#ffffff" stroke="transparent" points="-4,4 -4,-708.2 343,-708.2 343,4 -4,4"/>
<text text-anchor="middle" x="72.4936" y="-7.3" font-family="Helvetica,sans-Serif" font-size="11.00" fill="#000000">Generated by SchemaSpy</text>
<!-- lead_sales -->
<g id="node1" class="node">
<title>lead_sales</title>
<g id="a_node1"><a xlink:href="../../tables/lead_sales.html" xlink:title="lead_sales" target="_top">
<polygon fill="#ffffff" stroke="transparent" points="8,-38.2 8,-700.2 331,-700.2 331,-38.2 8,-38.2"/>
<polygon fill="#f5f5f5" stroke="transparent" points="10.5,-675.2 10.5,-698.2 329.5,-698.2 329.5,-675.2 10.5,-675.2"/>
<polygon fill="none" stroke="#000000" points="10.5,-675.2 10.5,-698.2 329.5,-698.2 329.5,-675.2 10.5,-675.2"/>
<text text-anchor="start" x="15.5" y="-683.8" font-family="Helvetica,sans-Serif" font-weight="bold" font-size="11.00" fill="#000000">lead_sales</text>
<text text-anchor="start" x="294.5437" y="-683.3" font-family="Helvetica,sans-Serif" font-size="11.00" fill="#000000">[table]</text>
<polygon fill="none" stroke="#000000" points="10.5,-653.2 10.5,-675.2 215.5,-675.2 215.5,-653.2 10.5,-653.2"/>
<image xlink:href="../../images/primaryKeys.png" width="11px" height="12px" preserveAspectRatio="xMinYMin meet" x="15.5" y="-670.2"/>
<text text-anchor="start" x="30.5" y="-660.3" font-family="Helvetica,sans-Serif" font-size="11.00" fill="#000000">ID</text>
<polygon fill="none" stroke="#000000" points="215.5,-653.2 215.5,-675.2 329.5,-675.2 329.5,-653.2 215.5,-653.2"/>
<text text-anchor="start" x="218.5" y="-660.9" font-family="Helvetica,sans-Serif" font-size="11.00" fill="#000000">int[10]</text>
<polygon fill="none" stroke="#000000" points="10.5,-631.2 10.5,-653.2 215.5,-653.2 215.5,-631.2 10.5,-631.2"/>
<text text-anchor="start" x="30.5" y="-638.3" font-family="Helvetica,sans-Serif" font-size="11.00" fill="#000000">Active</text>
<polygon fill="none" stroke="#000000" points="215.5,-631.2 215.5,-653.2 329.5,-653.2 329.5,-631.2 215.5,-631.2"/>
<text text-anchor="start" x="218.5" y="-638.9" font-family="Helvetica,sans-Serif" font-size="11.00" fill="#000000">bit[1]</text>
<polygon fill="none" stroke="#000000" points="10.5,-609.2 10.5,-631.2 215.5,-631.2 215.5,-609.2 10.5,-609.2"/>
<text text-anchor="start" x="30.5" y="-616.3" font-family="Helvetica,sans-Serif" font-size="11.00" fill="#000000">User</text>
<polygon fill="none" stroke="#000000" points="215.5,-609.2 215.5,-631.2 329.5,-631.2 329.5,-609.2 215.5,-609.2"/>
<text text-anchor="start" x="218.5" y="-616.9" font-family="Helvetica,sans-Serif" font-size="11.00" fill="#000000">longtext[2147483647]</text>
<polygon fill="none" stroke="#000000" points="10.5,-587.2 10.5,-609.2 215.5,-609.2 215.5,-587.2 10.5,-587.2"/>
<text text-anchor="start" x="30.5" y="-594.3" font-family="Helvetica,sans-Serif" font-size="11.00" fill="#000000">CD</text>
<polygon fill="none" stroke="#000000" points="215.5,-587.2 215.5,-609.2 329.5,-609.2 329.5,-587.2 215.5,-587.2"/>
<text text-anchor="start" x="218.5" y="-594.9" font-family="Helvetica,sans-Serif" font-size="11.00" fill="#000000">datetime[26]</text>
<polygon fill="none" stroke="#000000" points="10.5,-565.2 10.5,-587.2 215.5,-587.2 215.5,-565.2 10.5,-565.2"/>
<text text-anchor="start" x="30.5" y="-572.3" font-family="Helvetica,sans-Serif" font-size="11.00" fill="#000000">UD</text>
<polygon fill="none" stroke="#000000" points="215.5,-565.2 215.5,-587.2 329.5,-587.2 329.5,-565.2 215.5,-565.2"/>
<text text-anchor="start" x="218.5" y="-572.9" font-family="Helvetica,sans-Serif" font-size="11.00" fill="#000000">datetime[26]</text>
<polygon fill="none" stroke="#000000" points="10.5,-543.2 10.5,-565.2 215.5,-565.2 215.5,-543.2 10.5,-543.2"/>
<text text-anchor="start" x="30.5" y="-550.3" font-family="Helvetica,sans-Serif" font-size="11.00" fill="#000000">Remarks</text>
<polygon fill="none" stroke="#000000" points="215.5,-543.2 215.5,-565.2 329.5,-565.2 329.5,-543.2 215.5,-543.2"/>
<text text-anchor="start" x="218.5" y="-550.9" font-family="Helvetica,sans-Serif" font-size="11.00" fill="#000000">longtext[2147483647]</text>
<polygon fill="none" stroke="#000000" points="10.5,-521.2 10.5,-543.2 215.5,-543.2 215.5,-521.2 10.5,-521.2"/>
<text text-anchor="start" x="30.5" y="-528.3" font-family="Helvetica,sans-Serif" font-size="11.00" fill="#000000">UserID</text>
<polygon fill="none" stroke="#000000" points="215.5,-521.2 215.5,-543.2 329.5,-543.2 329.5,-521.2 215.5,-521.2"/>
<text text-anchor="start" x="218.5" y="-528.9" font-family="Helvetica,sans-Serif" font-size="11.00" fill="#000000">int[10]</text>
<polygon fill="none" stroke="#000000" points="10.5,-499.2 10.5,-521.2 215.5,-521.2 215.5,-499.2 10.5,-499.2"/>
<text text-anchor="start" x="30.5" y="-506.3" font-family="Helvetica,sans-Serif" font-size="11.00" fill="#000000">Common_DealerFK</text>
<polygon fill="none" stroke="#000000" points="215.5,-499.2 215.5,-521.2 329.5,-521.2 329.5,-499.2 215.5,-499.2"/>
<text text-anchor="start" x="218.5" y="-506.9" font-family="Helvetica,sans-Serif" font-size="11.00" fill="#000000">int[10]</text>
<polygon fill="none" stroke="#000000" points="10.5,-477.2 10.5,-499.2 215.5,-499.2 215.5,-477.2 10.5,-477.2"/>
<text text-anchor="start" x="30.5" y="-484.3" font-family="Helvetica,sans-Serif" font-size="11.00" fill="#000000">Common_LeadClientTypeFK</text>
<polygon fill="none" stroke="#000000" points="215.5,-477.2 215.5,-499.2 329.5,-499.2 329.5,-477.2 215.5,-477.2"/>
<text text-anchor="start" x="218.5" y="-484.9" font-family="Helvetica,sans-Serif" font-size="11.00" fill="#000000">int[10]</text>
<polygon fill="none" stroke="#000000" points="10.5,-455.2 10.5,-477.2 215.5,-477.2 215.5,-455.2 10.5,-455.2"/>
<text text-anchor="start" x="30.5" y="-462.3" font-family="Helvetica,sans-Serif" font-size="11.00" fill="#000000">ServiceTypeID</text>
<polygon fill="none" stroke="#000000" points="215.5,-455.2 215.5,-477.2 329.5,-477.2 329.5,-455.2 215.5,-455.2"/>
<text text-anchor="start" x="218.5" y="-462.9" font-family="Helvetica,sans-Serif" font-size="11.00" fill="#000000">int[10]</text>
<polygon fill="none" stroke="#000000" points="10.5,-433.2 10.5,-455.2 215.5,-455.2 215.5,-433.2 10.5,-433.2"/>
<text text-anchor="start" x="30.5" y="-440.3" font-family="Helvetica,sans-Serif" font-size="11.00" fill="#000000">Title</text>
<polygon fill="none" stroke="#000000" points="215.5,-433.2 215.5,-455.2 329.5,-455.2 329.5,-433.2 215.5,-433.2"/>
<text text-anchor="start" x="218.5" y="-440.9" font-family="Helvetica,sans-Serif" font-size="11.00" fill="#000000">int[10]</text>
<polygon fill="none" stroke="#000000" points="10.5,-411.2 10.5,-433.2 215.5,-433.2 215.5,-411.2 10.5,-411.2"/>
<text text-anchor="start" x="30.5" y="-418.3" font-family="Helvetica,sans-Serif" font-size="11.00" fill="#000000">Organization</text>
<polygon fill="none" stroke="#000000" points="215.5,-411.2 215.5,-433.2 329.5,-433.2 329.5,-411.2 215.5,-411.2"/>
<text text-anchor="start" x="218.5" y="-418.9" font-family="Helvetica,sans-Serif" font-size="11.00" fill="#000000">longtext[2147483647]</text>
<polygon fill="none" stroke="#000000" points="10.5,-389.2 10.5,-411.2 215.5,-411.2 215.5,-389.2 10.5,-389.2"/>
<text text-anchor="start" x="30.5" y="-396.3" font-family="Helvetica,sans-Serif" font-size="11.00" fill="#000000">ContactPerson</text>
<polygon fill="none" stroke="#000000" points="215.5,-389.2 215.5,-411.2 329.5,-411.2 329.5,-389.2 215.5,-389.2"/>
<text text-anchor="start" x="218.5" y="-396.9" font-family="Helvetica,sans-Serif" font-size="11.00" fill="#000000">longtext[2147483647]</text>
<polygon fill="none" stroke="#000000" points="10.5,-367.2 10.5,-389.2 215.5,-389.2 215.5,-367.2 10.5,-367.2"/>
<text text-anchor="start" x="30.5" y="-374.3" font-family="Helvetica,sans-Serif" font-size="11.00" fill="#000000">ContactNumber</text>
<polygon fill="none" stroke="#000000" points="215.5,-367.2 215.5,-389.2 329.5,-389.2 329.5,-367.2 215.5,-367.2"/>
<text text-anchor="start" x="218.5" y="-374.9" font-family="Helvetica,sans-Serif" font-size="11.00" fill="#000000">longtext[2147483647]</text>
<polygon fill="none" stroke="#000000" points="10.5,-345.2 10.5,-367.2 215.5,-367.2 215.5,-345.2 10.5,-345.2"/>
<text text-anchor="start" x="30.5" y="-352.3" font-family="Helvetica,sans-Serif" font-size="11.00" fill="#000000">Designation</text>
<polygon fill="none" stroke="#000000" points="215.5,-345.2 215.5,-367.2 329.5,-367.2 329.5,-345.2 215.5,-345.2"/>
<text text-anchor="start" x="218.5" y="-352.9" font-family="Helvetica,sans-Serif" font-size="11.00" fill="#000000">longtext[2147483647]</text>
<polygon fill="none" stroke="#000000" points="10.5,-323.2 10.5,-345.2 215.5,-345.2 215.5,-323.2 10.5,-323.2"/>
<text text-anchor="start" x="30.5" y="-330.3" font-family="Helvetica,sans-Serif" font-size="11.00" fill="#000000">Email</text>
<polygon fill="none" stroke="#000000" points="215.5,-323.2 215.5,-345.2 329.5,-345.2 329.5,-323.2 215.5,-323.2"/>
<text text-anchor="start" x="218.5" y="-330.9" font-family="Helvetica,sans-Serif" font-size="11.00" fill="#000000">longtext[2147483647]</text>
<polygon fill="none" stroke="#000000" points="10.5,-301.2 10.5,-323.2 215.5,-323.2 215.5,-301.2 10.5,-301.2"/>
<text text-anchor="start" x="30.5" y="-308.3" font-family="Helvetica,sans-Serif" font-size="11.00" fill="#000000">Common_DistrictFK</text>
<polygon fill="none" stroke="#000000" points="215.5,-301.2 215.5,-323.2 329.5,-323.2 329.5,-301.2 215.5,-301.2"/>
<text text-anchor="start" x="218.5" y="-308.9" font-family="Helvetica,sans-Serif" font-size="11.00" fill="#000000">int[10]</text>
<polygon fill="none" stroke="#000000" points="10.5,-279.2 10.5,-301.2 215.5,-301.2 215.5,-279.2 10.5,-279.2"/>
<text text-anchor="start" x="30.5" y="-286.3" font-family="Helvetica,sans-Serif" font-size="11.00" fill="#000000">Common_PoliceStationFK</text>
<polygon fill="none" stroke="#000000" points="215.5,-279.2 215.5,-301.2 329.5,-301.2 329.5,-279.2 215.5,-279.2"/>
<text text-anchor="start" x="218.5" y="-286.9" font-family="Helvetica,sans-Serif" font-size="11.00" fill="#000000">int[10]</text>
<polygon fill="none" stroke="#000000" points="10.5,-257.2 10.5,-279.2 215.5,-279.2 215.5,-257.2 10.5,-257.2"/>
<text text-anchor="start" x="30.5" y="-264.3" font-family="Helvetica,sans-Serif" font-size="11.00" fill="#000000">Common_LeadMediaTypeFK</text>
<polygon fill="none" stroke="#000000" points="215.5,-257.2 215.5,-279.2 329.5,-279.2 329.5,-257.2 215.5,-257.2"/>
<text text-anchor="start" x="218.5" y="-264.9" font-family="Helvetica,sans-Serif" font-size="11.00" fill="#000000">int[10]</text>
<polygon fill="none" stroke="#000000" points="10.5,-235.2 10.5,-257.2 215.5,-257.2 215.5,-235.2 10.5,-235.2"/>
<text text-anchor="start" x="30.5" y="-242.3" font-family="Helvetica,sans-Serif" font-size="11.00" fill="#000000">Address</text>
<polygon fill="none" stroke="#000000" points="215.5,-235.2 215.5,-257.2 329.5,-257.2 329.5,-235.2 215.5,-235.2"/>
<text text-anchor="start" x="218.5" y="-242.9" font-family="Helvetica,sans-Serif" font-size="11.00" fill="#000000">longtext[2147483647]</text>
<polygon fill="none" stroke="#000000" points="10.5,-213.2 10.5,-235.2 215.5,-235.2 215.5,-213.2 10.5,-213.2"/>
<text text-anchor="start" x="30.5" y="-220.3" font-family="Helvetica,sans-Serif" font-size="11.00" fill="#000000">ClientPriority</text>
<polygon fill="none" stroke="#000000" points="215.5,-213.2 215.5,-235.2 329.5,-235.2 329.5,-213.2 215.5,-213.2"/>
<text text-anchor="start" x="218.5" y="-220.9" font-family="Helvetica,sans-Serif" font-size="11.00" fill="#000000">int[10]</text>
<polygon fill="none" stroke="#000000" points="10.5,-191.2 10.5,-213.2 215.5,-213.2 215.5,-191.2 10.5,-191.2"/>
<text text-anchor="start" x="30.5" y="-198.3" font-family="Helvetica,sans-Serif" font-size="11.00" fill="#000000">ExpectedSaleDate</text>
<polygon fill="none" stroke="#000000" points="215.5,-191.2 215.5,-213.2 329.5,-213.2 329.5,-191.2 215.5,-191.2"/>
<text text-anchor="start" x="218.5" y="-198.9" font-family="Helvetica,sans-Serif" font-size="11.00" fill="#000000">datetime[26]</text>
<polygon fill="none" stroke="#000000" points="10.5,-169.2 10.5,-191.2 215.5,-191.2 215.5,-169.2 10.5,-169.2"/>
<text text-anchor="start" x="30.5" y="-176.3" font-family="Helvetica,sans-Serif" font-size="11.00" fill="#000000">NextMeetingDate</text>
<polygon fill="none" stroke="#000000" points="215.5,-169.2 215.5,-191.2 329.5,-191.2 329.5,-169.2 215.5,-169.2"/>
<text text-anchor="start" x="218.5" y="-176.9" font-family="Helvetica,sans-Serif" font-size="11.00" fill="#000000">datetime[26]</text>
<polygon fill="none" stroke="#000000" points="10.5,-147.2 10.5,-169.2 215.5,-169.2 215.5,-147.2 10.5,-147.2"/>
<text text-anchor="start" x="30.5" y="-154.3" font-family="Helvetica,sans-Serif" font-size="11.00" fill="#000000">NextMeetingTime</text>
<polygon fill="none" stroke="#000000" points="215.5,-147.2 215.5,-169.2 329.5,-169.2 329.5,-147.2 215.5,-147.2"/>
<text text-anchor="start" x="218.5" y="-154.9" font-family="Helvetica,sans-Serif" font-size="11.00" fill="#000000">datetime[26]</text>
<polygon fill="none" stroke="#000000" points="10.5,-125.2 10.5,-147.2 215.5,-147.2 215.5,-125.2 10.5,-125.2"/>
<text text-anchor="start" x="30.5" y="-132.3" font-family="Helvetica,sans-Serif" font-size="11.00" fill="#000000">StatusID</text>
<polygon fill="none" stroke="#000000" points="215.5,-125.2 215.5,-147.2 329.5,-147.2 329.5,-125.2 215.5,-125.2"/>
<text text-anchor="start" x="218.5" y="-132.9" font-family="Helvetica,sans-Serif" font-size="11.00" fill="#000000">int[10]</text>
<polygon fill="none" stroke="#000000" points="10.5,-103.2 10.5,-125.2 215.5,-125.2 215.5,-103.2 10.5,-103.2"/>
<text text-anchor="start" x="30.5" y="-110.3" font-family="Helvetica,sans-Serif" font-size="11.00" fill="#000000">ApprovalRemarks</text>
<polygon fill="none" stroke="#000000" points="215.5,-103.2 215.5,-125.2 329.5,-125.2 329.5,-103.2 215.5,-103.2"/>
<text text-anchor="start" x="218.5" y="-110.9" font-family="Helvetica,sans-Serif" font-size="11.00" fill="#000000">longtext[2147483647]</text>
<polygon fill="none" stroke="#000000" points="10.5,-81.2 10.5,-103.2 215.5,-103.2 215.5,-81.2 10.5,-81.2"/>
<text text-anchor="start" x="30.5" y="-88.3" font-family="Helvetica,sans-Serif" font-size="11.00" fill="#000000">VCard</text>
<polygon fill="none" stroke="#000000" points="215.5,-81.2 215.5,-103.2 329.5,-103.2 329.5,-81.2 215.5,-81.2"/>
<text text-anchor="start" x="218.083" y="-88.9" font-family="Helvetica,sans-Serif" font-size="11.00" fill="#000000">longblob[2147483647]</text>
<polygon fill="none" stroke="#000000" points="10.5,-59.2 10.5,-81.2 215.5,-81.2 215.5,-59.2 10.5,-59.2"/>
<text text-anchor="start" x="30.5" y="-66.3" font-family="Helvetica,sans-Serif" font-size="11.00" fill="#000000">Common_LeadSubCateggoryFK</text>
<polygon fill="none" stroke="#000000" points="215.5,-59.2 215.5,-81.2 329.5,-81.2 329.5,-59.2 215.5,-59.2"/>
<text text-anchor="start" x="218.5" y="-66.9" font-family="Helvetica,sans-Serif" font-size="11.00" fill="#000000">int[10]</text>
<polygon fill="#ffffff" stroke="transparent" points="10.5,-40.2 10.5,-59.2 98.5,-59.2 98.5,-40.2 10.5,-40.2"/>
<polygon fill="none" stroke="#000000" points="10.5,-40.2 10.5,-59.2 98.5,-59.2 98.5,-40.2 10.5,-40.2"/>
<text text-anchor="start" x="13.5" y="-46.3" font-family="Helvetica,sans-Serif" font-size="11.00" fill="#000000">&lt; 0</text>
<polygon fill="#ffffff" stroke="transparent" points="98.5,-40.2 98.5,-59.2 215.5,-59.2 215.5,-40.2 98.5,-40.2"/>
<polygon fill="none" stroke="#000000" points="98.5,-40.2 98.5,-59.2 215.5,-59.2 215.5,-40.2 98.5,-40.2"/>
<text text-anchor="start" x="167.8807" y="-46.3" font-family="Helvetica,sans-Serif" font-size="11.00" fill="#000000">990 rows</text>
<polygon fill="#ffffff" stroke="transparent" points="215.5,-40.2 215.5,-59.2 329.5,-59.2 329.5,-40.2 215.5,-40.2"/>
<polygon fill="none" stroke="#000000" points="215.5,-40.2 215.5,-59.2 329.5,-59.2 329.5,-40.2 215.5,-40.2"/>
<text text-anchor="start" x="310.9053" y="-46.3" font-family="Helvetica,sans-Serif" font-size="11.00" fill="#000000">0 &gt;</text>
<polygon fill="none" stroke="#000000" stroke-width="2" points="9,-39.2 9,-699.2 330,-699.2 330,-39.2 9,-39.2"/>
</a>
</g>
</g>
</g>
</svg>
