<?xml version="1.0" encoding="UTF-8" standalone="no"?>
<!DOCTYPE svg PUBLIC "-//W3C//DTD SVG 1.1//EN"
 "http://www.w3.org/Graphics/SVG/1.1/DTD/svg11.dtd">
<!-- Generated by graphviz version 2.40.1 (20161225.0304)
 -->
<!-- Title: oneDegreeRelationshipsDiagram Pages: 1 -->
<svg width="264pt" height="404pt"
 viewBox="0.00 0.00 264.00 404.20" xmlns="http://www.w3.org/2000/svg" xmlns:xlink="http://www.w3.org/1999/xlink">
<g id="graph0" class="graph" transform="scale(1 1) rotate(0) translate(4 400.2)">
<title>oneDegreeRelationshipsDiagram</title>
<polygon fill="#ffffff" stroke="transparent" points="-4,4 -4,-400.2 260,-400.2 260,4 -4,4"/>
<text text-anchor="middle" x="72.4936" y="-7.3" font-family="Helvetica,sans-Serif" font-size="11.00" fill="#000000">Generated by SchemaSpy</text>
<!-- lead_salesrecord -->
<g id="node1" class="node">
<title>lead_salesrecord</title>
<g id="a_node1"><a xlink:href="../../tables/lead_salesrecord.html" xlink:title="lead_salesrecord" target="_top">
<polygon fill="#ffffff" stroke="transparent" points="8,-38.2 8,-392.2 248,-392.2 248,-38.2 8,-38.2"/>
<polygon fill="#f5f5f5" stroke="transparent" points="10,-367.2 10,-390.2 246,-390.2 246,-367.2 10,-367.2"/>
<polygon fill="none" stroke="#000000" points="10,-367.2 10,-390.2 246,-390.2 246,-367.2 10,-367.2"/>
<text text-anchor="start" x="15" y="-375.8" font-family="Helvetica,sans-Serif" font-weight="bold" font-size="11.00" fill="#000000">lead_salesrecord</text>
<text text-anchor="start" x="211.0437" y="-375.3" font-family="Helvetica,sans-Serif" font-size="11.00" fill="#000000">[table]</text>
<polygon fill="none" stroke="#000000" points="10,-345.2 10,-367.2 135,-367.2 135,-345.2 10,-345.2"/>
<image xlink:href="../../images/primaryKeys.png" width="11px" height="12px" preserveAspectRatio="xMinYMin meet" x="15" y="-362.2"/>
<text text-anchor="start" x="30" y="-352.3" font-family="Helvetica,sans-Serif" font-size="11.00" fill="#000000">ID</text>
<polygon fill="none" stroke="#000000" points="135,-345.2 135,-367.2 246,-367.2 246,-345.2 135,-345.2"/>
<text text-anchor="start" x="138" y="-352.9" font-family="Helvetica,sans-Serif" font-size="11.00" fill="#000000">int[10]</text>
<polygon fill="none" stroke="#000000" points="10,-323.2 10,-345.2 135,-345.2 135,-323.2 10,-323.2"/>
<text text-anchor="start" x="30" y="-330.3" font-family="Helvetica,sans-Serif" font-size="11.00" fill="#000000">Active</text>
<polygon fill="none" stroke="#000000" points="135,-323.2 135,-345.2 246,-345.2 246,-323.2 135,-323.2"/>
<text text-anchor="start" x="138" y="-330.9" font-family="Helvetica,sans-Serif" font-size="11.00" fill="#000000">bit[1]</text>
<polygon fill="none" stroke="#000000" points="10,-301.2 10,-323.2 135,-323.2 135,-301.2 10,-301.2"/>
<text text-anchor="start" x="30" y="-308.3" font-family="Helvetica,sans-Serif" font-size="11.00" fill="#000000">User</text>
<polygon fill="none" stroke="#000000" points="135,-301.2 135,-323.2 246,-323.2 246,-301.2 135,-301.2"/>
<text text-anchor="start" x="137.6115" y="-308.9" font-family="Helvetica,sans-Serif" font-size="11.00" fill="#000000">longtext[2147483647]</text>
<polygon fill="none" stroke="#000000" points="10,-279.2 10,-301.2 135,-301.2 135,-279.2 10,-279.2"/>
<text text-anchor="start" x="30" y="-286.3" font-family="Helvetica,sans-Serif" font-size="11.00" fill="#000000">CD</text>
<polygon fill="none" stroke="#000000" points="135,-279.2 135,-301.2 246,-301.2 246,-279.2 135,-279.2"/>
<text text-anchor="start" x="138" y="-286.9" font-family="Helvetica,sans-Serif" font-size="11.00" fill="#000000">datetime[26]</text>
<polygon fill="none" stroke="#000000" points="10,-257.2 10,-279.2 135,-279.2 135,-257.2 10,-257.2"/>
<text text-anchor="start" x="30" y="-264.3" font-family="Helvetica,sans-Serif" font-size="11.00" fill="#000000">UD</text>
<polygon fill="none" stroke="#000000" points="135,-257.2 135,-279.2 246,-279.2 246,-257.2 135,-257.2"/>
<text text-anchor="start" x="138" y="-264.9" font-family="Helvetica,sans-Serif" font-size="11.00" fill="#000000">datetime[26]</text>
<polygon fill="none" stroke="#000000" points="10,-235.2 10,-257.2 135,-257.2 135,-235.2 10,-235.2"/>
<text text-anchor="start" x="30" y="-242.3" font-family="Helvetica,sans-Serif" font-size="11.00" fill="#000000">Remarks</text>
<polygon fill="none" stroke="#000000" points="135,-235.2 135,-257.2 246,-257.2 246,-235.2 135,-235.2"/>
<text text-anchor="start" x="137.6115" y="-242.9" font-family="Helvetica,sans-Serif" font-size="11.00" fill="#000000">longtext[2147483647]</text>
<polygon fill="none" stroke="#000000" points="10,-213.2 10,-235.2 135,-235.2 135,-213.2 10,-213.2"/>
<text text-anchor="start" x="30" y="-220.3" font-family="Helvetica,sans-Serif" font-size="11.00" fill="#000000">UserID</text>
<polygon fill="none" stroke="#000000" points="135,-213.2 135,-235.2 246,-235.2 246,-213.2 135,-213.2"/>
<text text-anchor="start" x="138" y="-220.9" font-family="Helvetica,sans-Serif" font-size="11.00" fill="#000000">int[10]</text>
<polygon fill="none" stroke="#000000" points="10,-191.2 10,-213.2 135,-213.2 135,-191.2 10,-191.2"/>
<text text-anchor="start" x="30" y="-198.3" font-family="Helvetica,sans-Serif" font-size="11.00" fill="#000000">Lead_SalesFK</text>
<polygon fill="none" stroke="#000000" points="135,-191.2 135,-213.2 246,-213.2 246,-191.2 135,-191.2"/>
<text text-anchor="start" x="138" y="-198.9" font-family="Helvetica,sans-Serif" font-size="11.00" fill="#000000">int[10]</text>
<polygon fill="none" stroke="#000000" points="10,-169.2 10,-191.2 135,-191.2 135,-169.2 10,-169.2"/>
<text text-anchor="start" x="30" y="-176.3" font-family="Helvetica,sans-Serif" font-size="11.00" fill="#000000">ClientPriority</text>
<polygon fill="none" stroke="#000000" points="135,-169.2 135,-191.2 246,-191.2 246,-169.2 135,-169.2"/>
<text text-anchor="start" x="138" y="-176.9" font-family="Helvetica,sans-Serif" font-size="11.00" fill="#000000">int[10]</text>
<polygon fill="none" stroke="#000000" points="10,-147.2 10,-169.2 135,-169.2 135,-147.2 10,-147.2"/>
<text text-anchor="start" x="30" y="-154.3" font-family="Helvetica,sans-Serif" font-size="11.00" fill="#000000">ExpectedSaleDate</text>
<polygon fill="none" stroke="#000000" points="135,-147.2 135,-169.2 246,-169.2 246,-147.2 135,-147.2"/>
<text text-anchor="start" x="138" y="-154.9" font-family="Helvetica,sans-Serif" font-size="11.00" fill="#000000">datetime[26]</text>
<polygon fill="none" stroke="#000000" points="10,-125.2 10,-147.2 135,-147.2 135,-125.2 10,-125.2"/>
<text text-anchor="start" x="30" y="-132.3" font-family="Helvetica,sans-Serif" font-size="11.00" fill="#000000">NextMeetingDate</text>
<polygon fill="none" stroke="#000000" points="135,-125.2 135,-147.2 246,-147.2 246,-125.2 135,-125.2"/>
<text text-anchor="start" x="138" y="-132.9" font-family="Helvetica,sans-Serif" font-size="11.00" fill="#000000">datetime[26]</text>
<polygon fill="none" stroke="#000000" points="10,-103.2 10,-125.2 135,-125.2 135,-103.2 10,-103.2"/>
<text text-anchor="start" x="30" y="-110.3" font-family="Helvetica,sans-Serif" font-size="11.00" fill="#000000">NextMeetingTime</text>
<polygon fill="none" stroke="#000000" points="135,-103.2 135,-125.2 246,-125.2 246,-103.2 135,-103.2"/>
<text text-anchor="start" x="138" y="-110.9" font-family="Helvetica,sans-Serif" font-size="11.00" fill="#000000">datetime[26]</text>
<polygon fill="none" stroke="#000000" points="10,-81.2 10,-103.2 135,-103.2 135,-81.2 10,-81.2"/>
<text text-anchor="start" x="30" y="-88.3" font-family="Helvetica,sans-Serif" font-size="11.00" fill="#000000">StatusID</text>
<polygon fill="none" stroke="#000000" points="135,-81.2 135,-103.2 246,-103.2 246,-81.2 135,-81.2"/>
<text text-anchor="start" x="138" y="-88.9" font-family="Helvetica,sans-Serif" font-size="11.00" fill="#000000">int[10]</text>
<polygon fill="none" stroke="#000000" points="10,-59.2 10,-81.2 135,-81.2 135,-59.2 10,-59.2"/>
<text text-anchor="start" x="30" y="-66.3" font-family="Helvetica,sans-Serif" font-size="11.00" fill="#000000">ApprovalRemarks</text>
<polygon fill="none" stroke="#000000" points="135,-59.2 135,-81.2 246,-81.2 246,-59.2 135,-59.2"/>
<text text-anchor="start" x="137.6115" y="-66.9" font-family="Helvetica,sans-Serif" font-size="11.00" fill="#000000">longtext[2147483647]</text>
<polygon fill="#ffffff" stroke="transparent" points="10,-40.2 10,-59.2 53,-59.2 53,-40.2 10,-40.2"/>
<polygon fill="none" stroke="#000000" points="10,-40.2 10,-59.2 53,-59.2 53,-40.2 10,-40.2"/>
<text text-anchor="start" x="13" y="-46.3" font-family="Helvetica,sans-Serif" font-size="11.00" fill="#000000">&lt; 0</text>
<polygon fill="#ffffff" stroke="transparent" points="53,-40.2 53,-59.2 135,-59.2 135,-40.2 53,-40.2"/>
<polygon fill="none" stroke="#000000" points="53,-40.2 53,-59.2 135,-59.2 135,-40.2 53,-40.2"/>
<text text-anchor="start" x="78.2089" y="-46.3" font-family="Helvetica,sans-Serif" font-size="11.00" fill="#000000">1,934 rows</text>
<polygon fill="#ffffff" stroke="transparent" points="135,-40.2 135,-59.2 246,-59.2 246,-40.2 135,-40.2"/>
<polygon fill="none" stroke="#000000" points="135,-40.2 135,-59.2 246,-59.2 246,-40.2 135,-40.2"/>
<text text-anchor="start" x="227.4053" y="-46.3" font-family="Helvetica,sans-Serif" font-size="11.00" fill="#000000">0 &gt;</text>
<polygon fill="none" stroke="#000000" stroke-width="2" points="9,-39.2 9,-391.2 247,-391.2 247,-39.2 9,-39.2"/>
</a>
</g>
</g>
</g>
</svg>
