<?xml version="1.0" encoding="UTF-8" standalone="no"?>
<!DOCTYPE svg PUBLIC "-//W3C//DTD SVG 1.1//EN"
 "http://www.w3.org/Graphics/SVG/1.1/DTD/svg11.dtd">
<!-- Generated by graphviz version 2.40.1 (20161225.0304)
 -->
<!-- Title: oneDegreeRelationshipsDiagram Pages: 1 -->
<svg width="291pt" height="316pt"
 viewBox="0.00 0.00 291.00 316.20" xmlns="http://www.w3.org/2000/svg" xmlns:xlink="http://www.w3.org/1999/xlink">
<g id="graph0" class="graph" transform="scale(1 1) rotate(0) translate(4 312.2)">
<title>oneDegreeRelationshipsDiagram</title>
<polygon fill="#ffffff" stroke="transparent" points="-4,4 -4,-312.2 287,-312.2 287,4 -4,4"/>
<text text-anchor="middle" x="72.4936" y="-7.3" font-family="Helvetica,sans-Serif" font-size="11.00" fill="#000000">Generated by SchemaSpy</text>
<!-- leave_approval -->
<g id="node1" class="node">
<title>leave_approval</title>
<g id="a_node1"><a xlink:href="../../tables/leave_approval.html" xlink:title="leave_approval" target="_top">
<polygon fill="#ffffff" stroke="transparent" points="8,-38.2 8,-304.2 275,-304.2 275,-38.2 8,-38.2"/>
<polygon fill="#f5f5f5" stroke="transparent" points="10.5,-279.2 10.5,-302.2 273.5,-302.2 273.5,-279.2 10.5,-279.2"/>
<polygon fill="none" stroke="#000000" points="10.5,-279.2 10.5,-302.2 273.5,-302.2 273.5,-279.2 10.5,-279.2"/>
<text text-anchor="start" x="15.5" y="-287.8" font-family="Helvetica,sans-Serif" font-weight="bold" font-size="11.00" fill="#000000">leave_approval</text>
<text text-anchor="start" x="238.5437" y="-287.3" font-family="Helvetica,sans-Serif" font-size="11.00" fill="#000000">[table]</text>
<polygon fill="none" stroke="#000000" points="10.5,-257.2 10.5,-279.2 162.5,-279.2 162.5,-257.2 10.5,-257.2"/>
<image xlink:href="../../images/primaryKeys.png" width="11px" height="12px" preserveAspectRatio="xMinYMin meet" x="15.5" y="-274.2"/>
<text text-anchor="start" x="30.5" y="-264.3" font-family="Helvetica,sans-Serif" font-size="11.00" fill="#000000">ID</text>
<polygon fill="none" stroke="#000000" points="162.5,-257.2 162.5,-279.2 273.5,-279.2 273.5,-257.2 162.5,-257.2"/>
<text text-anchor="start" x="165.5" y="-264.9" font-family="Helvetica,sans-Serif" font-size="11.00" fill="#000000">int[10]</text>
<polygon fill="none" stroke="#000000" points="10.5,-235.2 10.5,-257.2 162.5,-257.2 162.5,-235.2 10.5,-235.2"/>
<text text-anchor="start" x="30.5" y="-242.3" font-family="Helvetica,sans-Serif" font-size="11.00" fill="#000000">Active</text>
<polygon fill="none" stroke="#000000" points="162.5,-235.2 162.5,-257.2 273.5,-257.2 273.5,-235.2 162.5,-235.2"/>
<text text-anchor="start" x="165.5" y="-242.9" font-family="Helvetica,sans-Serif" font-size="11.00" fill="#000000">bit[1]</text>
<polygon fill="none" stroke="#000000" points="10.5,-213.2 10.5,-235.2 162.5,-235.2 162.5,-213.2 10.5,-213.2"/>
<text text-anchor="start" x="30.5" y="-220.3" font-family="Helvetica,sans-Serif" font-size="11.00" fill="#000000">User</text>
<polygon fill="none" stroke="#000000" points="162.5,-213.2 162.5,-235.2 273.5,-235.2 273.5,-213.2 162.5,-213.2"/>
<text text-anchor="start" x="165.1115" y="-220.9" font-family="Helvetica,sans-Serif" font-size="11.00" fill="#000000">longtext[2147483647]</text>
<polygon fill="none" stroke="#000000" points="10.5,-191.2 10.5,-213.2 162.5,-213.2 162.5,-191.2 10.5,-191.2"/>
<text text-anchor="start" x="30.5" y="-198.3" font-family="Helvetica,sans-Serif" font-size="11.00" fill="#000000">CD</text>
<polygon fill="none" stroke="#000000" points="162.5,-191.2 162.5,-213.2 273.5,-213.2 273.5,-191.2 162.5,-191.2"/>
<text text-anchor="start" x="165.5" y="-198.9" font-family="Helvetica,sans-Serif" font-size="11.00" fill="#000000">datetime[26]</text>
<polygon fill="none" stroke="#000000" points="10.5,-169.2 10.5,-191.2 162.5,-191.2 162.5,-169.2 10.5,-169.2"/>
<text text-anchor="start" x="30.5" y="-176.3" font-family="Helvetica,sans-Serif" font-size="11.00" fill="#000000">UD</text>
<polygon fill="none" stroke="#000000" points="162.5,-169.2 162.5,-191.2 273.5,-191.2 273.5,-169.2 162.5,-169.2"/>
<text text-anchor="start" x="165.5" y="-176.9" font-family="Helvetica,sans-Serif" font-size="11.00" fill="#000000">datetime[26]</text>
<polygon fill="none" stroke="#000000" points="10.5,-147.2 10.5,-169.2 162.5,-169.2 162.5,-147.2 10.5,-147.2"/>
<text text-anchor="start" x="30.5" y="-154.3" font-family="Helvetica,sans-Serif" font-size="11.00" fill="#000000">Remarks</text>
<polygon fill="none" stroke="#000000" points="162.5,-147.2 162.5,-169.2 273.5,-169.2 273.5,-147.2 162.5,-147.2"/>
<text text-anchor="start" x="165.1115" y="-154.9" font-family="Helvetica,sans-Serif" font-size="11.00" fill="#000000">longtext[2147483647]</text>
<polygon fill="none" stroke="#000000" points="10.5,-125.2 10.5,-147.2 162.5,-147.2 162.5,-125.2 10.5,-125.2"/>
<text text-anchor="start" x="30.5" y="-132.3" font-family="Helvetica,sans-Serif" font-size="11.00" fill="#000000">UserID</text>
<polygon fill="none" stroke="#000000" points="162.5,-125.2 162.5,-147.2 273.5,-147.2 273.5,-125.2 162.5,-125.2"/>
<text text-anchor="start" x="165.5" y="-132.9" font-family="Helvetica,sans-Serif" font-size="11.00" fill="#000000">int[10]</text>
<polygon fill="none" stroke="#000000" points="10.5,-103.2 10.5,-125.2 162.5,-125.2 162.5,-103.2 10.5,-103.2"/>
<text text-anchor="start" x="30.5" y="-110.3" font-family="Helvetica,sans-Serif" font-size="11.00" fill="#000000">Leave_ApplicationFK</text>
<polygon fill="none" stroke="#000000" points="162.5,-103.2 162.5,-125.2 273.5,-125.2 273.5,-103.2 162.5,-103.2"/>
<text text-anchor="start" x="165.5" y="-110.9" font-family="Helvetica,sans-Serif" font-size="11.00" fill="#000000">int[10]</text>
<polygon fill="none" stroke="#000000" points="10.5,-81.2 10.5,-103.2 162.5,-103.2 162.5,-81.2 10.5,-81.2"/>
<text text-anchor="start" x="30.5" y="-88.3" font-family="Helvetica,sans-Serif" font-size="11.00" fill="#000000">Approval_EmployeeFK</text>
<polygon fill="none" stroke="#000000" points="162.5,-81.2 162.5,-103.2 273.5,-103.2 273.5,-81.2 162.5,-81.2"/>
<text text-anchor="start" x="165.5" y="-88.9" font-family="Helvetica,sans-Serif" font-size="11.00" fill="#000000">int[10]</text>
<polygon fill="none" stroke="#000000" points="10.5,-59.2 10.5,-81.2 162.5,-81.2 162.5,-59.2 10.5,-59.2"/>
<text text-anchor="start" x="30.5" y="-66.3" font-family="Helvetica,sans-Serif" font-size="11.00" fill="#000000">ApprovalStatus</text>
<polygon fill="none" stroke="#000000" points="162.5,-59.2 162.5,-81.2 273.5,-81.2 273.5,-59.2 162.5,-59.2"/>
<text text-anchor="start" x="165.5" y="-66.9" font-family="Helvetica,sans-Serif" font-size="11.00" fill="#000000">int[10]</text>
<polygon fill="#ffffff" stroke="transparent" points="10.5,-40.2 10.5,-59.2 74.5,-59.2 74.5,-40.2 10.5,-40.2"/>
<polygon fill="none" stroke="#000000" points="10.5,-40.2 10.5,-59.2 74.5,-59.2 74.5,-40.2 10.5,-40.2"/>
<text text-anchor="start" x="13.5" y="-46.3" font-family="Helvetica,sans-Serif" font-size="11.00" fill="#000000">&lt; 0</text>
<polygon fill="#ffffff" stroke="transparent" points="74.5,-40.2 74.5,-59.2 162.5,-59.2 162.5,-40.2 74.5,-40.2"/>
<polygon fill="none" stroke="#000000" points="74.5,-40.2 74.5,-59.2 162.5,-59.2 162.5,-40.2 74.5,-40.2"/>
<text text-anchor="start" x="120.9956" y="-46.3" font-family="Helvetica,sans-Serif" font-size="11.00" fill="#000000">92 rows</text>
<polygon fill="#ffffff" stroke="transparent" points="162.5,-40.2 162.5,-59.2 273.5,-59.2 273.5,-40.2 162.5,-40.2"/>
<polygon fill="none" stroke="#000000" points="162.5,-40.2 162.5,-59.2 273.5,-59.2 273.5,-40.2 162.5,-40.2"/>
<text text-anchor="start" x="254.9053" y="-46.3" font-family="Helvetica,sans-Serif" font-size="11.00" fill="#000000">0 &gt;</text>
<polygon fill="none" stroke="#000000" stroke-width="2" points="9,-39.2 9,-303.2 274,-303.2 274,-39.2 9,-39.2"/>
</a>
</g>
</g>
</g>
</svg>
