<?xml version="1.0" encoding="UTF-8" standalone="no"?>
<!DOCTYPE svg PUBLIC "-//W3C//DTD SVG 1.1//EN"
 "http://www.w3.org/Graphics/SVG/1.1/DTD/svg11.dtd">
<!-- Generated by graphviz version 2.40.1 (20161225.0304)
 -->
<!-- Title: oneDegreeRelationshipsDiagram Pages: 1 -->
<svg width="313pt" height="382pt"
 viewBox="0.00 0.00 313.00 382.20" xmlns="http://www.w3.org/2000/svg" xmlns:xlink="http://www.w3.org/1999/xlink">
<g id="graph0" class="graph" transform="scale(1 1) rotate(0) translate(4 378.2)">
<title>oneDegreeRelationshipsDiagram</title>
<polygon fill="#ffffff" stroke="transparent" points="-4,4 -4,-378.2 309,-378.2 309,4 -4,4"/>
<text text-anchor="middle" x="72.4936" y="-7.3" font-family="Helvetica,sans-Serif" font-size="11.00" fill="#000000">Generated by SchemaSpy</text>
<!-- order_bookingconsolidate -->
<g id="node1" class="node">
<title>order_bookingconsolidate</title>
<g id="a_node1"><a xlink:href="../../tables/order_bookingconsolidate.html" xlink:title="order_bookingconsolidate" target="_top">
<polygon fill="#ffffff" stroke="transparent" points="8,-38.2 8,-370.2 297,-370.2 297,-38.2 8,-38.2"/>
<polygon fill="#f5f5f5" stroke="transparent" points="10.5,-345.2 10.5,-368.2 295.5,-368.2 295.5,-345.2 10.5,-345.2"/>
<polygon fill="none" stroke="#000000" points="10.5,-345.2 10.5,-368.2 295.5,-368.2 295.5,-345.2 10.5,-345.2"/>
<text text-anchor="start" x="15.5" y="-353.8" font-family="Helvetica,sans-Serif" font-weight="bold" font-size="11.00" fill="#000000">order_bookingconsolidate</text>
<text text-anchor="start" x="260.5437" y="-353.3" font-family="Helvetica,sans-Serif" font-size="11.00" fill="#000000">[table]</text>
<polygon fill="none" stroke="#000000" points="10.5,-323.2 10.5,-345.2 184.5,-345.2 184.5,-323.2 10.5,-323.2"/>
<image xlink:href="../../images/primaryKeys.png" width="11px" height="12px" preserveAspectRatio="xMinYMin meet" x="15.5" y="-340.2"/>
<text text-anchor="start" x="30.5" y="-330.3" font-family="Helvetica,sans-Serif" font-size="11.00" fill="#000000">ID</text>
<polygon fill="none" stroke="#000000" points="184.5,-323.2 184.5,-345.2 295.5,-345.2 295.5,-323.2 184.5,-323.2"/>
<text text-anchor="start" x="187.5" y="-330.9" font-family="Helvetica,sans-Serif" font-size="11.00" fill="#000000">int[10]</text>
<polygon fill="none" stroke="#000000" points="10.5,-301.2 10.5,-323.2 184.5,-323.2 184.5,-301.2 10.5,-301.2"/>
<text text-anchor="start" x="30.5" y="-308.3" font-family="Helvetica,sans-Serif" font-size="11.00" fill="#000000">Active</text>
<polygon fill="none" stroke="#000000" points="184.5,-301.2 184.5,-323.2 295.5,-323.2 295.5,-301.2 184.5,-301.2"/>
<text text-anchor="start" x="187.5" y="-308.9" font-family="Helvetica,sans-Serif" font-size="11.00" fill="#000000">bit[1]</text>
<polygon fill="none" stroke="#000000" points="10.5,-279.2 10.5,-301.2 184.5,-301.2 184.5,-279.2 10.5,-279.2"/>
<text text-anchor="start" x="30.5" y="-286.3" font-family="Helvetica,sans-Serif" font-size="11.00" fill="#000000">User</text>
<polygon fill="none" stroke="#000000" points="184.5,-279.2 184.5,-301.2 295.5,-301.2 295.5,-279.2 184.5,-279.2"/>
<text text-anchor="start" x="187.1115" y="-286.9" font-family="Helvetica,sans-Serif" font-size="11.00" fill="#000000">longtext[2147483647]</text>
<polygon fill="none" stroke="#000000" points="10.5,-257.2 10.5,-279.2 184.5,-279.2 184.5,-257.2 10.5,-257.2"/>
<text text-anchor="start" x="30.5" y="-264.3" font-family="Helvetica,sans-Serif" font-size="11.00" fill="#000000">CD</text>
<polygon fill="none" stroke="#000000" points="184.5,-257.2 184.5,-279.2 295.5,-279.2 295.5,-257.2 184.5,-257.2"/>
<text text-anchor="start" x="187.5" y="-264.9" font-family="Helvetica,sans-Serif" font-size="11.00" fill="#000000">datetime[26]</text>
<polygon fill="none" stroke="#000000" points="10.5,-235.2 10.5,-257.2 184.5,-257.2 184.5,-235.2 10.5,-235.2"/>
<text text-anchor="start" x="30.5" y="-242.3" font-family="Helvetica,sans-Serif" font-size="11.00" fill="#000000">UD</text>
<polygon fill="none" stroke="#000000" points="184.5,-235.2 184.5,-257.2 295.5,-257.2 295.5,-235.2 184.5,-235.2"/>
<text text-anchor="start" x="187.5" y="-242.9" font-family="Helvetica,sans-Serif" font-size="11.00" fill="#000000">datetime[26]</text>
<polygon fill="none" stroke="#000000" points="10.5,-213.2 10.5,-235.2 184.5,-235.2 184.5,-213.2 10.5,-213.2"/>
<text text-anchor="start" x="30.5" y="-220.3" font-family="Helvetica,sans-Serif" font-size="11.00" fill="#000000">Remarks</text>
<polygon fill="none" stroke="#000000" points="184.5,-213.2 184.5,-235.2 295.5,-235.2 295.5,-213.2 184.5,-213.2"/>
<text text-anchor="start" x="187.1115" y="-220.9" font-family="Helvetica,sans-Serif" font-size="11.00" fill="#000000">longtext[2147483647]</text>
<polygon fill="none" stroke="#000000" points="10.5,-191.2 10.5,-213.2 184.5,-213.2 184.5,-191.2 10.5,-191.2"/>
<text text-anchor="start" x="30.5" y="-198.3" font-family="Helvetica,sans-Serif" font-size="11.00" fill="#000000">UserID</text>
<polygon fill="none" stroke="#000000" points="184.5,-191.2 184.5,-213.2 295.5,-213.2 295.5,-191.2 184.5,-191.2"/>
<text text-anchor="start" x="187.5" y="-198.9" font-family="Helvetica,sans-Serif" font-size="11.00" fill="#000000">int[10]</text>
<polygon fill="none" stroke="#000000" points="10.5,-169.2 10.5,-191.2 184.5,-191.2 184.5,-169.2 10.5,-169.2"/>
<text text-anchor="start" x="30.5" y="-176.3" font-family="Helvetica,sans-Serif" font-size="11.00" fill="#000000">Reference_BookingFK</text>
<polygon fill="none" stroke="#000000" points="184.5,-169.2 184.5,-191.2 295.5,-191.2 295.5,-169.2 184.5,-169.2"/>
<text text-anchor="start" x="187.5" y="-176.9" font-family="Helvetica,sans-Serif" font-size="11.00" fill="#000000">int[10]</text>
<polygon fill="none" stroke="#000000" points="10.5,-147.2 10.5,-169.2 184.5,-169.2 184.5,-147.2 10.5,-147.2"/>
<text text-anchor="start" x="30.5" y="-154.3" font-family="Helvetica,sans-Serif" font-size="11.00" fill="#000000">Order_BookingItemFK</text>
<polygon fill="none" stroke="#000000" points="184.5,-147.2 184.5,-169.2 295.5,-169.2 295.5,-147.2 184.5,-147.2"/>
<text text-anchor="start" x="187.5" y="-154.9" font-family="Helvetica,sans-Serif" font-size="11.00" fill="#000000">int[10]</text>
<polygon fill="none" stroke="#000000" points="10.5,-125.2 10.5,-147.2 184.5,-147.2 184.5,-125.2 10.5,-125.2"/>
<text text-anchor="start" x="30.5" y="-132.3" font-family="Helvetica,sans-Serif" font-size="11.00" fill="#000000">Reference_BookingItemFK</text>
<polygon fill="none" stroke="#000000" points="184.5,-125.2 184.5,-147.2 295.5,-147.2 295.5,-125.2 184.5,-125.2"/>
<text text-anchor="start" x="187.5" y="-132.9" font-family="Helvetica,sans-Serif" font-size="11.00" fill="#000000">int[10]</text>
<polygon fill="none" stroke="#000000" points="10.5,-103.2 10.5,-125.2 184.5,-125.2 184.5,-103.2 10.5,-103.2"/>
<text text-anchor="start" x="30.5" y="-110.3" font-family="Helvetica,sans-Serif" font-size="11.00" fill="#000000">Common_ProductFK</text>
<polygon fill="none" stroke="#000000" points="184.5,-103.2 184.5,-125.2 295.5,-125.2 295.5,-103.2 184.5,-103.2"/>
<text text-anchor="start" x="187.5" y="-110.9" font-family="Helvetica,sans-Serif" font-size="11.00" fill="#000000">int[10]</text>
<polygon fill="none" stroke="#000000" points="10.5,-81.2 10.5,-103.2 184.5,-103.2 184.5,-81.2 10.5,-81.2"/>
<text text-anchor="start" x="30.5" y="-88.3" font-family="Helvetica,sans-Serif" font-size="11.00" fill="#000000">Common_DealerFK</text>
<polygon fill="none" stroke="#000000" points="184.5,-81.2 184.5,-103.2 295.5,-103.2 295.5,-81.2 184.5,-81.2"/>
<text text-anchor="start" x="187.5" y="-88.9" font-family="Helvetica,sans-Serif" font-size="11.00" fill="#000000">int[10]</text>
<polygon fill="none" stroke="#000000" points="10.5,-59.2 10.5,-81.2 184.5,-81.2 184.5,-59.2 10.5,-59.2"/>
<text text-anchor="start" x="30.5" y="-66.3" font-family="Helvetica,sans-Serif" font-size="11.00" fill="#000000">BookingQty</text>
<polygon fill="none" stroke="#000000" points="184.5,-59.2 184.5,-81.2 295.5,-81.2 295.5,-59.2 184.5,-59.2"/>
<text text-anchor="start" x="187.5" y="-66.9" font-family="Helvetica,sans-Serif" font-size="11.00" fill="#000000">decimal[65,30]</text>
<polygon fill="#ffffff" stroke="transparent" points="10.5,-40.2 10.5,-59.2 88.5,-59.2 88.5,-40.2 10.5,-40.2"/>
<polygon fill="none" stroke="#000000" points="10.5,-40.2 10.5,-59.2 88.5,-59.2 88.5,-40.2 10.5,-40.2"/>
<text text-anchor="start" x="13.5" y="-46.3" font-family="Helvetica,sans-Serif" font-size="11.00" fill="#000000">&lt; 0</text>
<polygon fill="#ffffff" stroke="transparent" points="88.5,-40.2 88.5,-59.2 184.5,-59.2 184.5,-40.2 88.5,-40.2"/>
<polygon fill="none" stroke="#000000" points="88.5,-40.2 88.5,-59.2 184.5,-59.2 184.5,-40.2 88.5,-40.2"/>
<text text-anchor="start" x="149.1105" y="-46.3" font-family="Helvetica,sans-Serif" font-size="11.00" fill="#000000">4 rows</text>
<polygon fill="#ffffff" stroke="transparent" points="184.5,-40.2 184.5,-59.2 295.5,-59.2 295.5,-40.2 184.5,-40.2"/>
<polygon fill="none" stroke="#000000" points="184.5,-40.2 184.5,-59.2 295.5,-59.2 295.5,-40.2 184.5,-40.2"/>
<text text-anchor="start" x="276.9053" y="-46.3" font-family="Helvetica,sans-Serif" font-size="11.00" fill="#000000">0 &gt;</text>
<polygon fill="none" stroke="#000000" stroke-width="2" points="9,-39.2 9,-369.2 296,-369.2 296,-39.2 9,-39.2"/>
</a>
</g>
</g>
</g>
</svg>
