<?xml version="1.0" encoding="UTF-8" standalone="no"?>
<!DOCTYPE svg PUBLIC "-//W3C//DTD SVG 1.1//EN"
 "http://www.w3.org/Graphics/SVG/1.1/DTD/svg11.dtd">
<!-- Generated by graphviz version 2.40.1 (20161225.0304)
 -->
<!-- Title: oneDegreeRelationshipsDiagram Pages: 1 -->
<svg width="515pt" height="667pt"
 viewBox="0.00 0.00 515.00 666.70" xmlns="http://www.w3.org/2000/svg" xmlns:xlink="http://www.w3.org/1999/xlink">
<g id="graph0" class="graph" transform="scale(1 1) rotate(0) translate(4 662.7)">
<title>oneDegreeRelationshipsDiagram</title>
<polygon fill="#ffffff" stroke="transparent" points="-4,4 -4,-662.7 511,-662.7 511,4 -4,4"/>
<text text-anchor="middle" x="72.4936" y="-7.3" font-family="Helvetica,sans-Serif" font-size="11.00" fill="#000000">Generated by SchemaSpy</text>
<!-- order_bookingitem -->
<g id="node1" class="node">
<title>order_bookingitem</title>
<g id="a_node1"><a xlink:href="../../tables/order_bookingitem.html" xlink:title="order_bookingitem" target="_top">
<polygon fill="#ffffff" stroke="transparent" points="352,-527.7 352,-654.7 499,-654.7 499,-527.7 352,-527.7"/>
<polygon fill="#f5f5f5" stroke="transparent" points="352.5,-631.2 352.5,-654.2 499.5,-654.2 499.5,-631.2 352.5,-631.2"/>
<polygon fill="none" stroke="#000000" points="352.5,-631.2 352.5,-654.2 499.5,-654.2 499.5,-631.2 352.5,-631.2"/>
<text text-anchor="start" x="357.5" y="-639.8" font-family="Helvetica,sans-Serif" font-weight="bold" font-size="11.00" fill="#000000">order_bookingitem</text>
<text text-anchor="start" x="465.0219" y="-639.3" font-family="Helvetica,sans-Serif" font-size="11.00" fill="#000000">[table]</text>
<polygon fill="none" stroke="#000000" points="352.5,-609.2 352.5,-631.2 499.5,-631.2 499.5,-609.2 352.5,-609.2"/>
<image xlink:href="../../images/primaryKeys.png" width="11px" height="12px" preserveAspectRatio="xMinYMin meet" x="357.5" y="-626.2"/>
<text text-anchor="start" x="375.5" y="-616.3" font-family="Helvetica,sans-Serif" font-size="11.00" fill="#000000">ID</text>
<polygon fill="#ffffff" stroke="transparent" points="352.5,-587.2 352.5,-609.2 499.5,-609.2 499.5,-587.2 352.5,-587.2"/>
<polygon fill="none" stroke="#000000" points="352.5,-587.2 352.5,-609.2 499.5,-609.2 499.5,-587.2 352.5,-587.2"/>
<image xlink:href="../../images/foreignKeys.png" width="11px" height="12px" preserveAspectRatio="xMinYMin meet" x="357.5" y="-604.2"/>
<text text-anchor="start" x="375.5" y="-594.3" font-family="Helvetica,sans-Serif" font-size="11.00" fill="#000000">Order_BookingFK</text>
<polygon fill="#ffffff" stroke="transparent" points="352.5,-565.2 352.5,-587.2 499.5,-587.2 499.5,-565.2 352.5,-565.2"/>
<polygon fill="none" stroke="#000000" points="352.5,-565.2 352.5,-587.2 499.5,-587.2 499.5,-565.2 352.5,-565.2"/>
<image xlink:href="../../images/foreignKeys.png" width="11px" height="12px" preserveAspectRatio="xMinYMin meet" x="357.5" y="-582.2"/>
<text text-anchor="start" x="375.5" y="-572.3" font-family="Helvetica,sans-Serif" font-size="11.00" fill="#000000">Common_ProductFK</text>
<polygon fill="none" stroke="#000000" points="352.5,-546.2 352.5,-565.2 499.5,-565.2 499.5,-546.2 352.5,-546.2"/>
<text text-anchor="start" x="355.5" y="-552.3" font-family="Helvetica,sans-Serif" font-size="11.00" fill="#000000">...</text>
<polygon fill="#ffffff" stroke="transparent" points="352.5,-527.2 352.5,-546.2 408.5,-546.2 408.5,-527.2 352.5,-527.2"/>
<polygon fill="none" stroke="#000000" points="352.5,-527.2 352.5,-546.2 408.5,-546.2 408.5,-527.2 352.5,-527.2"/>
<text text-anchor="start" x="355.5" y="-533.3" font-family="Helvetica,sans-Serif" font-size="11.00" fill="#000000">&lt; 2</text>
<polygon fill="#ffffff" stroke="transparent" points="408.5,-527.2 408.5,-546.2 469.5,-546.2 469.5,-527.2 408.5,-527.2"/>
<polygon fill="none" stroke="#000000" points="408.5,-527.2 408.5,-546.2 469.5,-546.2 469.5,-527.2 408.5,-527.2"/>
<text text-anchor="start" x="427.9956" y="-533.3" font-family="Helvetica,sans-Serif" font-size="11.00" fill="#000000">62 rows</text>
<polygon fill="#ffffff" stroke="transparent" points="469.5,-527.2 469.5,-546.2 499.5,-546.2 499.5,-527.2 469.5,-527.2"/>
<polygon fill="none" stroke="#000000" points="469.5,-527.2 469.5,-546.2 499.5,-546.2 499.5,-527.2 469.5,-527.2"/>
<text text-anchor="start" x="490.3862" y="-533.3" font-family="Helvetica,sans-Serif" font-size="11.00" fill="#000000"> &#160;</text>
</a>
</g>
</g>
<!-- order_booking -->
<g id="node2" class="node">
<title>order_booking</title>
<g id="a_node2"><a xlink:href="../../tables/order_booking.html" xlink:title="order_booking" target="_top">
<polygon fill="#ffffff" stroke="transparent" points="8,-38.2 8,-634.2 303,-634.2 303,-38.2 8,-38.2"/>
<polygon fill="#f5f5f5" stroke="transparent" points="10.5,-609.2 10.5,-632.2 301.5,-632.2 301.5,-609.2 10.5,-609.2"/>
<polygon fill="none" stroke="#000000" points="10.5,-609.2 10.5,-632.2 301.5,-632.2 301.5,-609.2 10.5,-609.2"/>
<text text-anchor="start" x="15.5" y="-617.8" font-family="Helvetica,sans-Serif" font-weight="bold" font-size="11.00" fill="#000000">order_booking</text>
<text text-anchor="start" x="266.5437" y="-617.3" font-family="Helvetica,sans-Serif" font-size="11.00" fill="#000000">[table]</text>
<polygon fill="none" stroke="#000000" points="10.5,-587.2 10.5,-609.2 190.5,-609.2 190.5,-587.2 10.5,-587.2"/>
<image xlink:href="../../images/primaryKeys.png" width="11px" height="12px" preserveAspectRatio="xMinYMin meet" x="15.5" y="-604.2"/>
<text text-anchor="start" x="30.5" y="-594.3" font-family="Helvetica,sans-Serif" font-size="11.00" fill="#000000">ID</text>
<polygon fill="none" stroke="#000000" points="190.5,-587.2 190.5,-609.2 301.5,-609.2 301.5,-587.2 190.5,-587.2"/>
<text text-anchor="start" x="193.5" y="-594.9" font-family="Helvetica,sans-Serif" font-size="11.00" fill="#000000">int[10]</text>
<polygon fill="none" stroke="#000000" points="10.5,-565.2 10.5,-587.2 190.5,-587.2 190.5,-565.2 10.5,-565.2"/>
<text text-anchor="start" x="30.5" y="-572.3" font-family="Helvetica,sans-Serif" font-size="11.00" fill="#000000">Active</text>
<polygon fill="none" stroke="#000000" points="190.5,-565.2 190.5,-587.2 301.5,-587.2 301.5,-565.2 190.5,-565.2"/>
<text text-anchor="start" x="193.5" y="-572.9" font-family="Helvetica,sans-Serif" font-size="11.00" fill="#000000">bit[1]</text>
<polygon fill="none" stroke="#000000" points="10.5,-543.2 10.5,-565.2 190.5,-565.2 190.5,-543.2 10.5,-543.2"/>
<text text-anchor="start" x="30.5" y="-550.3" font-family="Helvetica,sans-Serif" font-size="11.00" fill="#000000">User</text>
<polygon fill="none" stroke="#000000" points="190.5,-543.2 190.5,-565.2 301.5,-565.2 301.5,-543.2 190.5,-543.2"/>
<text text-anchor="start" x="193.1115" y="-550.9" font-family="Helvetica,sans-Serif" font-size="11.00" fill="#000000">longtext[2147483647]</text>
<polygon fill="none" stroke="#000000" points="10.5,-521.2 10.5,-543.2 190.5,-543.2 190.5,-521.2 10.5,-521.2"/>
<text text-anchor="start" x="30.5" y="-528.3" font-family="Helvetica,sans-Serif" font-size="11.00" fill="#000000">CD</text>
<polygon fill="none" stroke="#000000" points="190.5,-521.2 190.5,-543.2 301.5,-543.2 301.5,-521.2 190.5,-521.2"/>
<text text-anchor="start" x="193.5" y="-528.9" font-family="Helvetica,sans-Serif" font-size="11.00" fill="#000000">datetime[26]</text>
<polygon fill="none" stroke="#000000" points="10.5,-499.2 10.5,-521.2 190.5,-521.2 190.5,-499.2 10.5,-499.2"/>
<text text-anchor="start" x="30.5" y="-506.3" font-family="Helvetica,sans-Serif" font-size="11.00" fill="#000000">UD</text>
<polygon fill="none" stroke="#000000" points="190.5,-499.2 190.5,-521.2 301.5,-521.2 301.5,-499.2 190.5,-499.2"/>
<text text-anchor="start" x="193.5" y="-506.9" font-family="Helvetica,sans-Serif" font-size="11.00" fill="#000000">datetime[26]</text>
<polygon fill="none" stroke="#000000" points="10.5,-477.2 10.5,-499.2 190.5,-499.2 190.5,-477.2 10.5,-477.2"/>
<text text-anchor="start" x="30.5" y="-484.3" font-family="Helvetica,sans-Serif" font-size="11.00" fill="#000000">Remarks</text>
<polygon fill="none" stroke="#000000" points="190.5,-477.2 190.5,-499.2 301.5,-499.2 301.5,-477.2 190.5,-477.2"/>
<text text-anchor="start" x="193.1115" y="-484.9" font-family="Helvetica,sans-Serif" font-size="11.00" fill="#000000">longtext[2147483647]</text>
<polygon fill="none" stroke="#000000" points="10.5,-455.2 10.5,-477.2 190.5,-477.2 190.5,-455.2 10.5,-455.2"/>
<text text-anchor="start" x="30.5" y="-462.3" font-family="Helvetica,sans-Serif" font-size="11.00" fill="#000000">UserID</text>
<polygon fill="none" stroke="#000000" points="190.5,-455.2 190.5,-477.2 301.5,-477.2 301.5,-455.2 190.5,-455.2"/>
<text text-anchor="start" x="193.5" y="-462.9" font-family="Helvetica,sans-Serif" font-size="11.00" fill="#000000">int[10]</text>
<polygon fill="none" stroke="#000000" points="10.5,-433.2 10.5,-455.2 190.5,-455.2 190.5,-433.2 10.5,-433.2"/>
<text text-anchor="start" x="30.5" y="-440.3" font-family="Helvetica,sans-Serif" font-size="11.00" fill="#000000">Code</text>
<polygon fill="none" stroke="#000000" points="190.5,-433.2 190.5,-455.2 301.5,-455.2 301.5,-433.2 190.5,-433.2"/>
<text text-anchor="start" x="193.1115" y="-440.9" font-family="Helvetica,sans-Serif" font-size="11.00" fill="#000000">longtext[2147483647]</text>
<polygon fill="none" stroke="#000000" points="10.5,-411.2 10.5,-433.2 190.5,-433.2 190.5,-411.2 10.5,-411.2"/>
<text text-anchor="start" x="30.5" y="-418.3" font-family="Helvetica,sans-Serif" font-size="11.00" fill="#000000">Common_CustomerFK</text>
<polygon fill="none" stroke="#000000" points="190.5,-411.2 190.5,-433.2 301.5,-433.2 301.5,-411.2 190.5,-411.2"/>
<text text-anchor="start" x="193.5" y="-418.9" font-family="Helvetica,sans-Serif" font-size="11.00" fill="#000000">int[10]</text>
<polygon fill="none" stroke="#000000" points="10.5,-389.2 10.5,-411.2 190.5,-411.2 190.5,-389.2 10.5,-389.2"/>
<text text-anchor="start" x="30.5" y="-396.3" font-family="Helvetica,sans-Serif" font-size="11.00" fill="#000000">Common_BookingStatusFK</text>
<polygon fill="none" stroke="#000000" points="190.5,-389.2 190.5,-411.2 301.5,-411.2 301.5,-389.2 190.5,-389.2"/>
<text text-anchor="start" x="193.5" y="-396.9" font-family="Helvetica,sans-Serif" font-size="11.00" fill="#000000">int[10]</text>
<polygon fill="none" stroke="#000000" points="10.5,-367.2 10.5,-389.2 190.5,-389.2 190.5,-367.2 10.5,-367.2"/>
<text text-anchor="start" x="30.5" y="-374.3" font-family="Helvetica,sans-Serif" font-size="11.00" fill="#000000">BookingDate</text>
<polygon fill="none" stroke="#000000" points="190.5,-367.2 190.5,-389.2 301.5,-389.2 301.5,-367.2 190.5,-367.2"/>
<text text-anchor="start" x="193.5" y="-374.9" font-family="Helvetica,sans-Serif" font-size="11.00" fill="#000000">datetime[26]</text>
<polygon fill="none" stroke="#000000" points="10.5,-345.2 10.5,-367.2 190.5,-367.2 190.5,-345.2 10.5,-345.2"/>
<text text-anchor="start" x="30.5" y="-352.3" font-family="Helvetica,sans-Serif" font-size="11.00" fill="#000000">BookingExpireDate</text>
<polygon fill="none" stroke="#000000" points="190.5,-345.2 190.5,-367.2 301.5,-367.2 301.5,-345.2 190.5,-345.2"/>
<text text-anchor="start" x="193.5" y="-352.9" font-family="Helvetica,sans-Serif" font-size="11.00" fill="#000000">datetime[26]</text>
<polygon fill="none" stroke="#000000" points="10.5,-323.2 10.5,-345.2 190.5,-345.2 190.5,-323.2 10.5,-323.2"/>
<text text-anchor="start" x="30.5" y="-330.3" font-family="Helvetica,sans-Serif" font-size="11.00" fill="#000000">ApprovalStatusID</text>
<polygon fill="none" stroke="#000000" points="190.5,-323.2 190.5,-345.2 301.5,-345.2 301.5,-323.2 190.5,-323.2"/>
<text text-anchor="start" x="193.5" y="-330.9" font-family="Helvetica,sans-Serif" font-size="11.00" fill="#000000">int[10]</text>
<polygon fill="none" stroke="#000000" points="10.5,-301.2 10.5,-323.2 190.5,-323.2 190.5,-301.2 10.5,-301.2"/>
<text text-anchor="start" x="30.5" y="-308.3" font-family="Helvetica,sans-Serif" font-size="11.00" fill="#000000">Common_DealerFK</text>
<polygon fill="none" stroke="#000000" points="190.5,-301.2 190.5,-323.2 301.5,-323.2 301.5,-301.2 190.5,-301.2"/>
<text text-anchor="start" x="193.5" y="-308.9" font-family="Helvetica,sans-Serif" font-size="11.00" fill="#000000">int[10]</text>
<polygon fill="none" stroke="#000000" points="10.5,-279.2 10.5,-301.2 190.5,-301.2 190.5,-279.2 10.5,-279.2"/>
<text text-anchor="start" x="30.5" y="-286.3" font-family="Helvetica,sans-Serif" font-size="11.00" fill="#000000">IsSold</text>
<polygon fill="none" stroke="#000000" points="190.5,-279.2 190.5,-301.2 301.5,-301.2 301.5,-279.2 190.5,-279.2"/>
<text text-anchor="start" x="193.5" y="-286.9" font-family="Helvetica,sans-Serif" font-size="11.00" fill="#000000">bit[1]</text>
<polygon fill="none" stroke="#000000" points="10.5,-257.2 10.5,-279.2 190.5,-279.2 190.5,-257.2 10.5,-257.2"/>
<text text-anchor="start" x="30.5" y="-264.3" font-family="Helvetica,sans-Serif" font-size="11.00" fill="#000000">WarehouseFK</text>
<polygon fill="none" stroke="#000000" points="190.5,-257.2 190.5,-279.2 301.5,-279.2 301.5,-257.2 190.5,-257.2"/>
<text text-anchor="start" x="193.5" y="-264.9" font-family="Helvetica,sans-Serif" font-size="11.00" fill="#000000">int[10]</text>
<polygon fill="none" stroke="#000000" points="10.5,-235.2 10.5,-257.2 190.5,-257.2 190.5,-235.2 10.5,-235.2"/>
<text text-anchor="start" x="30.5" y="-242.3" font-family="Helvetica,sans-Serif" font-size="11.00" fill="#000000">BookFromID</text>
<polygon fill="none" stroke="#000000" points="190.5,-235.2 190.5,-257.2 301.5,-257.2 301.5,-235.2 190.5,-235.2"/>
<text text-anchor="start" x="193.5" y="-242.9" font-family="Helvetica,sans-Serif" font-size="11.00" fill="#000000">int[10]</text>
<polygon fill="none" stroke="#000000" points="10.5,-213.2 10.5,-235.2 190.5,-235.2 190.5,-213.2 10.5,-213.2"/>
<text text-anchor="start" x="30.5" y="-220.3" font-family="Helvetica,sans-Serif" font-size="11.00" fill="#000000">BookingValue</text>
<polygon fill="none" stroke="#000000" points="190.5,-213.2 190.5,-235.2 301.5,-235.2 301.5,-213.2 190.5,-213.2"/>
<text text-anchor="start" x="193.5" y="-220.9" font-family="Helvetica,sans-Serif" font-size="11.00" fill="#000000">decimal[65,30]</text>
<polygon fill="none" stroke="#000000" points="10.5,-191.2 10.5,-213.2 190.5,-213.2 190.5,-191.2 10.5,-191.2"/>
<text text-anchor="start" x="30.5" y="-198.3" font-family="Helvetica,sans-Serif" font-size="11.00" fill="#000000">Common_DealerFK2</text>
<polygon fill="none" stroke="#000000" points="190.5,-191.2 190.5,-213.2 301.5,-213.2 301.5,-191.2 190.5,-191.2"/>
<text text-anchor="start" x="193.5" y="-198.9" font-family="Helvetica,sans-Serif" font-size="11.00" fill="#000000">int[10]</text>
<polygon fill="none" stroke="#000000" points="10.5,-169.2 10.5,-191.2 190.5,-191.2 190.5,-169.2 10.5,-169.2"/>
<text text-anchor="start" x="30.5" y="-176.3" font-family="Helvetica,sans-Serif" font-size="11.00" fill="#000000">Exp_DeliveryDate</text>
<polygon fill="none" stroke="#000000" points="190.5,-169.2 190.5,-191.2 301.5,-191.2 301.5,-169.2 190.5,-169.2"/>
<text text-anchor="start" x="193.5" y="-176.9" font-family="Helvetica,sans-Serif" font-size="11.00" fill="#000000">datetime[26]</text>
<polygon fill="none" stroke="#000000" points="10.5,-147.2 10.5,-169.2 190.5,-169.2 190.5,-147.2 10.5,-147.2"/>
<text text-anchor="start" x="30.5" y="-154.3" font-family="Helvetica,sans-Serif" font-size="11.00" fill="#000000">ItemQty</text>
<polygon fill="none" stroke="#000000" points="190.5,-147.2 190.5,-169.2 301.5,-169.2 301.5,-147.2 190.5,-147.2"/>
<text text-anchor="start" x="193.5" y="-154.9" font-family="Helvetica,sans-Serif" font-size="11.00" fill="#000000">int[10]</text>
<polygon fill="none" stroke="#000000" points="10.5,-125.2 10.5,-147.2 190.5,-147.2 190.5,-125.2 10.5,-125.2"/>
<text text-anchor="start" x="30.5" y="-132.3" font-family="Helvetica,sans-Serif" font-size="11.00" fill="#000000">TypeID</text>
<polygon fill="none" stroke="#000000" points="190.5,-125.2 190.5,-147.2 301.5,-147.2 301.5,-125.2 190.5,-125.2"/>
<text text-anchor="start" x="193.5" y="-132.9" font-family="Helvetica,sans-Serif" font-size="11.00" fill="#000000">int[10]</text>
<polygon fill="none" stroke="#000000" points="10.5,-103.2 10.5,-125.2 190.5,-125.2 190.5,-103.2 10.5,-103.2"/>
<text text-anchor="start" x="30.5" y="-110.3" font-family="Helvetica,sans-Serif" font-size="11.00" fill="#000000">Common_SupplierFK</text>
<polygon fill="none" stroke="#000000" points="190.5,-103.2 190.5,-125.2 301.5,-125.2 301.5,-103.2 190.5,-103.2"/>
<text text-anchor="start" x="193.5" y="-110.9" font-family="Helvetica,sans-Serif" font-size="11.00" fill="#000000">int[10]</text>
<polygon fill="none" stroke="#000000" points="10.5,-81.2 10.5,-103.2 190.5,-103.2 190.5,-81.2 10.5,-81.2"/>
<text text-anchor="start" x="30.5" y="-88.3" font-family="Helvetica,sans-Serif" font-size="11.00" fill="#000000">IsProdBooking</text>
<polygon fill="none" stroke="#000000" points="190.5,-81.2 190.5,-103.2 301.5,-103.2 301.5,-81.2 190.5,-81.2"/>
<text text-anchor="start" x="193.5" y="-88.9" font-family="Helvetica,sans-Serif" font-size="11.00" fill="#000000">bit[1]</text>
<polygon fill="none" stroke="#000000" points="10.5,-59.2 10.5,-81.2 190.5,-81.2 190.5,-59.2 10.5,-59.2"/>
<text text-anchor="start" x="30.5" y="-66.3" font-family="Helvetica,sans-Serif" font-size="11.00" fill="#000000">ProductionAcceptenceID</text>
<polygon fill="none" stroke="#000000" points="190.5,-59.2 190.5,-81.2 301.5,-81.2 301.5,-59.2 190.5,-59.2"/>
<text text-anchor="start" x="193.5" y="-66.9" font-family="Helvetica,sans-Serif" font-size="11.00" fill="#000000">int[10]</text>
<polygon fill="#ffffff" stroke="transparent" points="10.5,-40.2 10.5,-59.2 88.5,-59.2 88.5,-40.2 10.5,-40.2"/>
<polygon fill="none" stroke="#000000" points="10.5,-40.2 10.5,-59.2 88.5,-59.2 88.5,-40.2 10.5,-40.2"/>
<text text-anchor="start" x="13.5" y="-46.3" font-family="Helvetica,sans-Serif" font-size="11.00" fill="#000000">&lt; 0</text>
<polygon fill="#ffffff" stroke="transparent" points="88.5,-40.2 88.5,-59.2 190.5,-59.2 190.5,-40.2 88.5,-40.2"/>
<polygon fill="none" stroke="#000000" points="88.5,-40.2 88.5,-59.2 190.5,-59.2 190.5,-40.2 88.5,-40.2"/>
<text text-anchor="start" x="148.9956" y="-46.3" font-family="Helvetica,sans-Serif" font-size="11.00" fill="#000000">42 rows</text>
<polygon fill="#ffffff" stroke="transparent" points="190.5,-40.2 190.5,-59.2 301.5,-59.2 301.5,-40.2 190.5,-40.2"/>
<polygon fill="none" stroke="#000000" points="190.5,-40.2 190.5,-59.2 301.5,-59.2 301.5,-40.2 190.5,-40.2"/>
<text text-anchor="start" x="282.9053" y="-46.3" font-family="Helvetica,sans-Serif" font-size="11.00" fill="#000000">1 &gt;</text>
<polygon fill="none" stroke="#000000" stroke-width="2" points="9,-39.2 9,-633.2 302,-633.2 302,-39.2 9,-39.2"/>
</a>
</g>
</g>
<!-- order_bookingitem&#45;&gt;order_booking -->
<g id="edge1" class="edge">
<title>order_bookingitem:w&#45;&gt;order_booking:e</title>
<path fill="none" stroke="#000000" d="M337.776,-598.2C325.7815,-598.2 318.3229,-598.2 301.5,-598.2"/>
<polygon fill="#000000" stroke="#000000" points="344.5,-598.2001 352.5,-601.8 348.5,-598.2 352.5,-598.2 352.5,-598.2 352.5,-598.2 348.5,-598.2 352.5,-594.6 344.5,-598.2001 344.5,-598.2001"/>
<ellipse fill="none" stroke="#000000" cx="341.3" cy="-598.2001" rx="3.2" ry="3.2"/>
</g>
</g>
</svg>
