<?xml version="1.0" encoding="UTF-8" standalone="no"?>
<!DOCTYPE svg PUBLIC "-//W3C//DTD SVG 1.1//EN"
 "http://www.w3.org/Graphics/SVG/1.1/DTD/svg11.dtd">
<!-- Generated by graphviz version 2.40.1 (20161225.0304)
 -->
<!-- Title: oneDegreeRelationshipsDiagramImplied Pages: 1 -->
<svg width="540pt" height="620pt"
 viewBox="0.00 0.00 540.07 620.20" xmlns="http://www.w3.org/2000/svg" xmlns:xlink="http://www.w3.org/1999/xlink">
<g id="graph0" class="graph" transform="scale(1 1) rotate(0) translate(4 616.2)">
<title>oneDegreeRelationshipsDiagramImplied</title>
<polygon fill="#ffffff" stroke="transparent" points="-4,4 -4,-616.2 536.0742,-616.2 536.0742,4 -4,4"/>
<text text-anchor="middle" x="72.4936" y="-7.3" font-family="Helvetica,sans-Serif" font-size="11.00" fill="#000000">Generated by SchemaSpy</text>
<!-- order_itemserialno -->
<g id="node1" class="node">
<title>order_itemserialno</title>
<g id="a_node1"><a xlink:href="../../tables/order_itemserialno.html" xlink:title="order_itemserialno" target="_top">
<polygon fill="#ffffff" stroke="transparent" points="228,-38.2 228,-590.2 494,-590.2 494,-38.2 228,-38.2"/>
<polygon fill="#f5f5f5" stroke="transparent" points="230,-565.2 230,-588.2 492,-588.2 492,-565.2 230,-565.2"/>
<polygon fill="none" stroke="#000000" points="230,-565.2 230,-588.2 492,-588.2 492,-565.2 230,-565.2"/>
<text text-anchor="start" x="235" y="-573.8" font-family="Helvetica,sans-Serif" font-weight="bold" font-size="11.00" fill="#000000">order_itemserialno</text>
<text text-anchor="start" x="457.0437" y="-573.3" font-family="Helvetica,sans-Serif" font-size="11.00" fill="#000000">[table]</text>
<polygon fill="none" stroke="#000000" points="230,-543.2 230,-565.2 381,-565.2 381,-543.2 230,-543.2"/>
<image xlink:href="../../images/primaryKeys.png" width="11px" height="12px" preserveAspectRatio="xMinYMin meet" x="235" y="-560.2"/>
<text text-anchor="start" x="250" y="-550.3" font-family="Helvetica,sans-Serif" font-size="11.00" fill="#000000">ID</text>
<polygon fill="none" stroke="#000000" points="381,-543.2 381,-565.2 492,-565.2 492,-543.2 381,-543.2"/>
<text text-anchor="start" x="384" y="-550.9" font-family="Helvetica,sans-Serif" font-size="11.00" fill="#000000">int[10]</text>
<polygon fill="none" stroke="#000000" points="230,-521.2 230,-543.2 381,-543.2 381,-521.2 230,-521.2"/>
<text text-anchor="start" x="250" y="-528.3" font-family="Helvetica,sans-Serif" font-size="11.00" fill="#000000">Active</text>
<polygon fill="none" stroke="#000000" points="381,-521.2 381,-543.2 492,-543.2 492,-521.2 381,-521.2"/>
<text text-anchor="start" x="384" y="-528.9" font-family="Helvetica,sans-Serif" font-size="11.00" fill="#000000">bit[1]</text>
<polygon fill="none" stroke="#000000" points="230,-499.2 230,-521.2 381,-521.2 381,-499.2 230,-499.2"/>
<text text-anchor="start" x="250" y="-506.3" font-family="Helvetica,sans-Serif" font-size="11.00" fill="#000000">User</text>
<polygon fill="none" stroke="#000000" points="381,-499.2 381,-521.2 492,-521.2 492,-499.2 381,-499.2"/>
<text text-anchor="start" x="383.6115" y="-506.9" font-family="Helvetica,sans-Serif" font-size="11.00" fill="#000000">longtext[2147483647]</text>
<polygon fill="none" stroke="#000000" points="230,-477.2 230,-499.2 381,-499.2 381,-477.2 230,-477.2"/>
<text text-anchor="start" x="250" y="-484.3" font-family="Helvetica,sans-Serif" font-size="11.00" fill="#000000">CD</text>
<polygon fill="none" stroke="#000000" points="381,-477.2 381,-499.2 492,-499.2 492,-477.2 381,-477.2"/>
<text text-anchor="start" x="384" y="-484.9" font-family="Helvetica,sans-Serif" font-size="11.00" fill="#000000">datetime[26]</text>
<polygon fill="none" stroke="#000000" points="230,-455.2 230,-477.2 381,-477.2 381,-455.2 230,-455.2"/>
<text text-anchor="start" x="250" y="-462.3" font-family="Helvetica,sans-Serif" font-size="11.00" fill="#000000">UD</text>
<polygon fill="none" stroke="#000000" points="381,-455.2 381,-477.2 492,-477.2 492,-455.2 381,-455.2"/>
<text text-anchor="start" x="384" y="-462.9" font-family="Helvetica,sans-Serif" font-size="11.00" fill="#000000">datetime[26]</text>
<polygon fill="none" stroke="#000000" points="230,-433.2 230,-455.2 381,-455.2 381,-433.2 230,-433.2"/>
<text text-anchor="start" x="250" y="-440.3" font-family="Helvetica,sans-Serif" font-size="11.00" fill="#000000">Remarks</text>
<polygon fill="none" stroke="#000000" points="381,-433.2 381,-455.2 492,-455.2 492,-433.2 381,-433.2"/>
<text text-anchor="start" x="383.6115" y="-440.9" font-family="Helvetica,sans-Serif" font-size="11.00" fill="#000000">longtext[2147483647]</text>
<polygon fill="none" stroke="#000000" points="230,-411.2 230,-433.2 381,-433.2 381,-411.2 230,-411.2"/>
<text text-anchor="start" x="250" y="-418.3" font-family="Helvetica,sans-Serif" font-size="11.00" fill="#000000">UserID</text>
<polygon fill="none" stroke="#000000" points="381,-411.2 381,-433.2 492,-433.2 492,-411.2 381,-411.2"/>
<text text-anchor="start" x="384" y="-418.9" font-family="Helvetica,sans-Serif" font-size="11.00" fill="#000000">int[10]</text>
<polygon fill="none" stroke="#000000" points="230,-389.2 230,-411.2 381,-411.2 381,-389.2 230,-389.2"/>
<text text-anchor="start" x="250" y="-396.3" font-family="Helvetica,sans-Serif" font-size="11.00" fill="#000000">Order_ReceiveItemFK</text>
<polygon fill="none" stroke="#000000" points="381,-389.2 381,-411.2 492,-411.2 492,-389.2 381,-389.2"/>
<text text-anchor="start" x="384" y="-396.9" font-family="Helvetica,sans-Serif" font-size="11.00" fill="#000000">int[10]</text>
<polygon fill="#ffffff" stroke="transparent" points="230,-367.2 230,-389.2 381,-389.2 381,-367.2 230,-367.2"/>
<polygon fill="none" stroke="#000000" points="230,-367.2 230,-389.2 381,-389.2 381,-367.2 230,-367.2"/>
<image xlink:href="../../images/foreignKeys.png" width="11px" height="12px" preserveAspectRatio="xMinYMin meet" x="235" y="-384.2"/>
<text text-anchor="start" x="250" y="-374.3" font-family="Helvetica,sans-Serif" font-size="11.00" fill="#000000">ItemSerialFK</text>
<polygon fill="none" stroke="#000000" points="381,-367.2 381,-389.2 492,-389.2 492,-367.2 381,-367.2"/>
<text text-anchor="start" x="384" y="-374.9" font-family="Helvetica,sans-Serif" font-size="11.00" fill="#000000">int[10]</text>
<polygon fill="#ffffff" stroke="transparent" points="230,-345.2 230,-367.2 381,-367.2 381,-345.2 230,-345.2"/>
<polygon fill="none" stroke="#000000" points="230,-345.2 230,-367.2 381,-367.2 381,-345.2 230,-345.2"/>
<image xlink:href="../../images/foreignKeys.png" width="11px" height="12px" preserveAspectRatio="xMinYMin meet" x="235" y="-362.2"/>
<text text-anchor="start" x="250" y="-352.3" font-family="Helvetica,sans-Serif" font-size="11.00" fill="#000000">Common_ProductFK</text>
<polygon fill="none" stroke="#000000" points="381,-345.2 381,-367.2 492,-367.2 492,-345.2 381,-345.2"/>
<text text-anchor="start" x="384" y="-352.9" font-family="Helvetica,sans-Serif" font-size="11.00" fill="#000000">int[10]</text>
<polygon fill="none" stroke="#000000" points="230,-323.2 230,-345.2 381,-345.2 381,-323.2 230,-323.2"/>
<text text-anchor="start" x="250" y="-330.3" font-family="Helvetica,sans-Serif" font-size="11.00" fill="#000000">SerialNo</text>
<polygon fill="none" stroke="#000000" points="381,-323.2 381,-345.2 492,-345.2 492,-323.2 381,-323.2"/>
<text text-anchor="start" x="383.6115" y="-330.9" font-family="Helvetica,sans-Serif" font-size="11.00" fill="#000000">longtext[2147483647]</text>
<polygon fill="none" stroke="#000000" points="230,-301.2 230,-323.2 381,-323.2 381,-301.2 230,-301.2"/>
<text text-anchor="start" x="250" y="-308.3" font-family="Helvetica,sans-Serif" font-size="11.00" fill="#000000">Order_SaleItemFK</text>
<polygon fill="none" stroke="#000000" points="381,-301.2 381,-323.2 492,-323.2 492,-301.2 381,-301.2"/>
<text text-anchor="start" x="384" y="-308.9" font-family="Helvetica,sans-Serif" font-size="11.00" fill="#000000">int[10]</text>
<polygon fill="none" stroke="#000000" points="230,-279.2 230,-301.2 381,-301.2 381,-279.2 230,-279.2"/>
<text text-anchor="start" x="250" y="-286.3" font-family="Helvetica,sans-Serif" font-size="11.00" fill="#000000">Common_DealerFK</text>
<polygon fill="none" stroke="#000000" points="381,-279.2 381,-301.2 492,-301.2 492,-279.2 381,-279.2"/>
<text text-anchor="start" x="384" y="-286.9" font-family="Helvetica,sans-Serif" font-size="11.00" fill="#000000">int[10]</text>
<polygon fill="none" stroke="#000000" points="230,-257.2 230,-279.2 381,-279.2 381,-257.2 230,-257.2"/>
<text text-anchor="start" x="250" y="-264.3" font-family="Helvetica,sans-Serif" font-size="11.00" fill="#000000">Common_CustomerFK</text>
<polygon fill="none" stroke="#000000" points="381,-257.2 381,-279.2 492,-279.2 492,-257.2 381,-257.2"/>
<text text-anchor="start" x="384" y="-264.9" font-family="Helvetica,sans-Serif" font-size="11.00" fill="#000000">int[10]</text>
<polygon fill="none" stroke="#000000" points="230,-235.2 230,-257.2 381,-257.2 381,-235.2 230,-235.2"/>
<text text-anchor="start" x="250" y="-242.3" font-family="Helvetica,sans-Serif" font-size="11.00" fill="#000000">SalePrice</text>
<polygon fill="none" stroke="#000000" points="381,-235.2 381,-257.2 492,-257.2 492,-235.2 381,-235.2"/>
<text text-anchor="start" x="384" y="-242.9" font-family="Helvetica,sans-Serif" font-size="11.00" fill="#000000">decimal[65,30]</text>
<polygon fill="none" stroke="#000000" points="230,-213.2 230,-235.2 381,-235.2 381,-213.2 230,-213.2"/>
<text text-anchor="start" x="250" y="-220.3" font-family="Helvetica,sans-Serif" font-size="11.00" fill="#000000">Discount</text>
<polygon fill="none" stroke="#000000" points="381,-213.2 381,-235.2 492,-235.2 492,-213.2 381,-213.2"/>
<text text-anchor="start" x="384" y="-220.9" font-family="Helvetica,sans-Serif" font-size="11.00" fill="#000000">decimal[65,30]</text>
<polygon fill="none" stroke="#000000" points="230,-191.2 230,-213.2 381,-213.2 381,-191.2 230,-191.2"/>
<text text-anchor="start" x="250" y="-198.3" font-family="Helvetica,sans-Serif" font-size="11.00" fill="#000000">TypeID</text>
<polygon fill="none" stroke="#000000" points="381,-191.2 381,-213.2 492,-213.2 492,-191.2 381,-191.2"/>
<text text-anchor="start" x="384" y="-198.9" font-family="Helvetica,sans-Serif" font-size="11.00" fill="#000000">int[10]</text>
<polygon fill="none" stroke="#000000" points="230,-169.2 230,-191.2 381,-191.2 381,-169.2 230,-169.2"/>
<text text-anchor="start" x="250" y="-176.3" font-family="Helvetica,sans-Serif" font-size="11.00" fill="#000000">IsDealerSold</text>
<polygon fill="none" stroke="#000000" points="381,-169.2 381,-191.2 492,-191.2 492,-169.2 381,-169.2"/>
<text text-anchor="start" x="384" y="-176.9" font-family="Helvetica,sans-Serif" font-size="11.00" fill="#000000">bit[1]</text>
<polygon fill="none" stroke="#000000" points="230,-147.2 230,-169.2 381,-169.2 381,-147.2 230,-147.2"/>
<text text-anchor="start" x="250" y="-154.3" font-family="Helvetica,sans-Serif" font-size="11.00" fill="#000000">IsSold</text>
<polygon fill="none" stroke="#000000" points="381,-147.2 381,-169.2 492,-169.2 492,-147.2 381,-147.2"/>
<text text-anchor="start" x="384" y="-154.9" font-family="Helvetica,sans-Serif" font-size="11.00" fill="#000000">bit[1]</text>
<polygon fill="none" stroke="#000000" points="230,-125.2 230,-147.2 381,-147.2 381,-125.2 230,-125.2"/>
<text text-anchor="start" x="250" y="-132.3" font-family="Helvetica,sans-Serif" font-size="11.00" fill="#000000">IsTransfered</text>
<polygon fill="none" stroke="#000000" points="381,-125.2 381,-147.2 492,-147.2 492,-125.2 381,-125.2"/>
<text text-anchor="start" x="384" y="-132.9" font-family="Helvetica,sans-Serif" font-size="11.00" fill="#000000">bit[1]</text>
<polygon fill="none" stroke="#000000" points="230,-103.2 230,-125.2 381,-125.2 381,-103.2 230,-103.2"/>
<text text-anchor="start" x="250" y="-110.3" font-family="Helvetica,sans-Serif" font-size="11.00" fill="#000000">WarehouseFK</text>
<polygon fill="none" stroke="#000000" points="381,-103.2 381,-125.2 492,-125.2 492,-103.2 381,-103.2"/>
<text text-anchor="start" x="384" y="-110.9" font-family="Helvetica,sans-Serif" font-size="11.00" fill="#000000">int[10]</text>
<polygon fill="none" stroke="#000000" points="230,-81.2 230,-103.2 381,-103.2 381,-81.2 230,-81.2"/>
<text text-anchor="start" x="250" y="-88.3" font-family="Helvetica,sans-Serif" font-size="11.00" fill="#000000">Retail_VoucherItemFK</text>
<polygon fill="none" stroke="#000000" points="381,-81.2 381,-103.2 492,-103.2 492,-81.2 381,-81.2"/>
<text text-anchor="start" x="384" y="-88.9" font-family="Helvetica,sans-Serif" font-size="11.00" fill="#000000">int[10]</text>
<polygon fill="none" stroke="#000000" points="230,-59.2 230,-81.2 381,-81.2 381,-59.2 230,-59.2"/>
<text text-anchor="start" x="250" y="-66.3" font-family="Helvetica,sans-Serif" font-size="11.00" fill="#000000">Common_ShopFK</text>
<polygon fill="none" stroke="#000000" points="381,-59.2 381,-81.2 492,-81.2 492,-59.2 381,-59.2"/>
<text text-anchor="start" x="384" y="-66.9" font-family="Helvetica,sans-Serif" font-size="11.00" fill="#000000">int[10]</text>
<polygon fill="#ffffff" stroke="transparent" points="230,-40.2 230,-59.2 283,-59.2 283,-40.2 230,-40.2"/>
<polygon fill="none" stroke="#000000" points="230,-40.2 230,-59.2 283,-59.2 283,-40.2 230,-40.2"/>
<text text-anchor="start" x="233" y="-46.3" font-family="Helvetica,sans-Serif" font-size="11.00" fill="#000000">&lt; 2</text>
<polygon fill="#ffffff" stroke="transparent" points="283,-40.2 283,-59.2 381,-59.2 381,-40.2 283,-40.2"/>
<polygon fill="none" stroke="#000000" points="283,-40.2 283,-59.2 381,-59.2 381,-40.2 283,-40.2"/>
<text text-anchor="start" x="318.094" y="-46.3" font-family="Helvetica,sans-Serif" font-size="11.00" fill="#000000">19,002 rows</text>
<polygon fill="#ffffff" stroke="transparent" points="381,-40.2 381,-59.2 492,-59.2 492,-40.2 381,-40.2"/>
<polygon fill="none" stroke="#000000" points="381,-40.2 381,-59.2 492,-59.2 492,-40.2 381,-40.2"/>
<text text-anchor="start" x="473.4053" y="-46.3" font-family="Helvetica,sans-Serif" font-size="11.00" fill="#000000">1 &gt;</text>
<polygon fill="none" stroke="#000000" stroke-width="2" points="229,-39.2 229,-589.2 493,-589.2 493,-39.2 229,-39.2"/>
</a>
</g>
</g>
<!-- order_itemserialno&#45;&gt;order_itemserialno -->
<g id="edge2" class="edge">
<title>order_itemserialno:w&#45;&gt;order_itemserialno:e</title>
<path fill="none" stroke="#000000" d="M222.162,-390.3761C163.8323,-486.4192 171.6006,-607.2 361,-607.2 558.5,-607.2 558.5,-598.5333 492,-554.2"/>
<polygon fill="#000000" stroke="#000000" points="225.6698,-384.9268 233.0271,-380.1486 227.8349,-381.5634 230,-378.2 230,-378.2 230,-378.2 227.8349,-381.5634 226.9729,-376.2514 225.6698,-384.9268 225.6698,-384.9268"/>
<ellipse fill="none" stroke="#000000" cx="223.9378" cy="-387.6175" rx="3.2" ry="3.2"/>
</g>
<!-- common_product -->
<g id="node2" class="node">
<title>common_product</title>
<g id="a_node2"><a xlink:href="../../tables/common_product.html" xlink:title="common_product" target="_top">
<polygon fill="#ffffff" stroke="transparent" points="8,-263.7 8,-390.7 179,-390.7 179,-263.7 8,-263.7"/>
<polygon fill="#f5f5f5" stroke="transparent" points="8.5,-367.2 8.5,-390.2 179.5,-390.2 179.5,-367.2 8.5,-367.2"/>
<polygon fill="none" stroke="#000000" points="8.5,-367.2 8.5,-390.2 179.5,-390.2 179.5,-367.2 8.5,-367.2"/>
<text text-anchor="start" x="13.5" y="-375.8" font-family="Helvetica,sans-Serif" font-weight="bold" font-size="11.00" fill="#000000">common_product</text>
<text text-anchor="start" x="144.5437" y="-375.3" font-family="Helvetica,sans-Serif" font-size="11.00" fill="#000000">[table]</text>
<polygon fill="none" stroke="#000000" points="8.5,-345.2 8.5,-367.2 179.5,-367.2 179.5,-345.2 8.5,-345.2"/>
<image xlink:href="../../images/primaryKeys.png" width="11px" height="12px" preserveAspectRatio="xMinYMin meet" x="13.5" y="-362.2"/>
<text text-anchor="start" x="28.5" y="-352.3" font-family="Helvetica,sans-Serif" font-size="11.00" fill="#000000">ID</text>
<polygon fill="#ffffff" stroke="transparent" points="8.5,-323.2 8.5,-345.2 179.5,-345.2 179.5,-323.2 8.5,-323.2"/>
<polygon fill="none" stroke="#000000" points="8.5,-323.2 8.5,-345.2 179.5,-345.2 179.5,-323.2 8.5,-323.2"/>
<image xlink:href="../../images/foreignKeys.png" width="11px" height="12px" preserveAspectRatio="xMinYMin meet" x="13.5" y="-340.2"/>
<text text-anchor="start" x="28.5" y="-330.3" font-family="Helvetica,sans-Serif" font-size="11.00" fill="#000000">Common_ManufacturerFK</text>
<polygon fill="none" stroke="#000000" points="8.5,-301.2 8.5,-323.2 179.5,-323.2 179.5,-301.2 8.5,-301.2"/>
<image xlink:href="../../images/foreignKeys.png" width="11px" height="12px" preserveAspectRatio="xMinYMin meet" x="13.5" y="-318.2"/>
<text text-anchor="start" x="28.5" y="-308.3" font-family="Helvetica,sans-Serif" font-size="11.00" fill="#000000">Common_PackTypeID</text>
<polygon fill="none" stroke="#000000" points="8.5,-282.2 8.5,-301.2 179.5,-301.2 179.5,-282.2 8.5,-282.2"/>
<text text-anchor="start" x="11.5" y="-288.3" font-family="Helvetica,sans-Serif" font-size="11.00" fill="#000000">...</text>
<polygon fill="#ffffff" stroke="transparent" points="8.5,-263.2 8.5,-282.2 71.5,-282.2 71.5,-263.2 8.5,-263.2"/>
<polygon fill="none" stroke="#000000" points="8.5,-263.2 8.5,-282.2 71.5,-282.2 71.5,-263.2 8.5,-263.2"/>
<text text-anchor="start" x="11.5" y="-269.3" font-family="Helvetica,sans-Serif" font-size="11.00" fill="#000000">&lt; 1</text>
<polygon fill="#ffffff" stroke="transparent" points="71.5,-263.2 71.5,-282.2 136.5,-282.2 136.5,-263.2 71.5,-263.2"/>
<polygon fill="none" stroke="#000000" points="71.5,-263.2 71.5,-282.2 136.5,-282.2 136.5,-263.2 71.5,-263.2"/>
<text text-anchor="start" x="94.9956" y="-269.3" font-family="Helvetica,sans-Serif" font-size="11.00" fill="#000000">54 rows</text>
<polygon fill="#ffffff" stroke="transparent" points="136.5,-263.2 136.5,-282.2 179.5,-282.2 179.5,-263.2 136.5,-263.2"/>
<polygon fill="none" stroke="#000000" points="136.5,-263.2 136.5,-282.2 179.5,-282.2 179.5,-263.2 136.5,-263.2"/>
<text text-anchor="start" x="160.9053" y="-269.3" font-family="Helvetica,sans-Serif" font-size="11.00" fill="#000000">6 &gt;</text>
</a>
</g>
</g>
<!-- order_itemserialno&#45;&gt;common_product -->
<g id="edge1" class="edge">
<title>order_itemserialno:w&#45;&gt;common_product:e</title>
<path fill="none" stroke="#000000" d="M215.4203,-356.2C203.5435,-356.2 196.158,-356.2 179.5,-356.2"/>
<polygon fill="#000000" stroke="#000000" points="222,-356.2001 230,-359.8 226,-356.2 230,-356.2 230,-356.2 230,-356.2 226,-356.2 230,-352.6 222,-356.2001 222,-356.2001"/>
<ellipse fill="none" stroke="#000000" cx="218.8" cy="-356.2001" rx="3.2" ry="3.2"/>
</g>
</g>
</svg>
