<?xml version="1.0" encoding="UTF-8" standalone="no"?>
<!DOCTYPE svg PUBLIC "-//W3C//DTD SVG 1.1//EN"
 "http://www.w3.org/Graphics/SVG/1.1/DTD/svg11.dtd">
<!-- Generated by graphviz version 2.40.1 (20161225.0304)
 -->
<!-- Title: oneDegreeRelationshipsDiagramImplied Pages: 1 -->
<svg width="509pt" height="536pt"
 viewBox="0.00 0.00 509.00 536.20" xmlns="http://www.w3.org/2000/svg" xmlns:xlink="http://www.w3.org/1999/xlink">
<g id="graph0" class="graph" transform="scale(1 1) rotate(0) translate(4 532.2)">
<title>oneDegreeRelationshipsDiagramImplied</title>
<polygon fill="#ffffff" stroke="transparent" points="-4,4 -4,-532.2 505,-532.2 505,4 -4,4"/>
<text text-anchor="middle" x="72.4936" y="-7.3" font-family="Helvetica,sans-Serif" font-size="11.00" fill="#000000">Generated by SchemaSpy</text>
<!-- order_bookingitem -->
<g id="node1" class="node">
<title>order_bookingitem</title>
<g id="a_node1"><a xlink:href="../../tables/order_bookingitem.html" xlink:title="order_bookingitem" target="_top">
<polygon fill="#ffffff" stroke="transparent" points="237,-38.2 237,-524.2 493,-524.2 493,-38.2 237,-38.2"/>
<polygon fill="#f5f5f5" stroke="transparent" points="239,-499.2 239,-522.2 491,-522.2 491,-499.2 239,-499.2"/>
<polygon fill="none" stroke="#000000" points="239,-499.2 239,-522.2 491,-522.2 491,-499.2 239,-499.2"/>
<text text-anchor="start" x="244" y="-507.8" font-family="Helvetica,sans-Serif" font-weight="bold" font-size="11.00" fill="#000000">order_bookingitem</text>
<text text-anchor="start" x="456.0437" y="-507.3" font-family="Helvetica,sans-Serif" font-size="11.00" fill="#000000">[table]</text>
<polygon fill="none" stroke="#000000" points="239,-477.2 239,-499.2 380,-499.2 380,-477.2 239,-477.2"/>
<image xlink:href="../../images/primaryKeys.png" width="11px" height="12px" preserveAspectRatio="xMinYMin meet" x="244" y="-494.2"/>
<text text-anchor="start" x="259" y="-484.3" font-family="Helvetica,sans-Serif" font-size="11.00" fill="#000000">ID</text>
<polygon fill="none" stroke="#000000" points="380,-477.2 380,-499.2 491,-499.2 491,-477.2 380,-477.2"/>
<text text-anchor="start" x="383" y="-484.9" font-family="Helvetica,sans-Serif" font-size="11.00" fill="#000000">int[10]</text>
<polygon fill="none" stroke="#000000" points="239,-455.2 239,-477.2 380,-477.2 380,-455.2 239,-455.2"/>
<text text-anchor="start" x="259" y="-462.3" font-family="Helvetica,sans-Serif" font-size="11.00" fill="#000000">Active</text>
<polygon fill="none" stroke="#000000" points="380,-455.2 380,-477.2 491,-477.2 491,-455.2 380,-455.2"/>
<text text-anchor="start" x="383" y="-462.9" font-family="Helvetica,sans-Serif" font-size="11.00" fill="#000000">bit[1]</text>
<polygon fill="none" stroke="#000000" points="239,-433.2 239,-455.2 380,-455.2 380,-433.2 239,-433.2"/>
<text text-anchor="start" x="259" y="-440.3" font-family="Helvetica,sans-Serif" font-size="11.00" fill="#000000">User</text>
<polygon fill="none" stroke="#000000" points="380,-433.2 380,-455.2 491,-455.2 491,-433.2 380,-433.2"/>
<text text-anchor="start" x="382.6115" y="-440.9" font-family="Helvetica,sans-Serif" font-size="11.00" fill="#000000">longtext[2147483647]</text>
<polygon fill="none" stroke="#000000" points="239,-411.2 239,-433.2 380,-433.2 380,-411.2 239,-411.2"/>
<text text-anchor="start" x="259" y="-418.3" font-family="Helvetica,sans-Serif" font-size="11.00" fill="#000000">CD</text>
<polygon fill="none" stroke="#000000" points="380,-411.2 380,-433.2 491,-433.2 491,-411.2 380,-411.2"/>
<text text-anchor="start" x="383" y="-418.9" font-family="Helvetica,sans-Serif" font-size="11.00" fill="#000000">datetime[26]</text>
<polygon fill="none" stroke="#000000" points="239,-389.2 239,-411.2 380,-411.2 380,-389.2 239,-389.2"/>
<text text-anchor="start" x="259" y="-396.3" font-family="Helvetica,sans-Serif" font-size="11.00" fill="#000000">UD</text>
<polygon fill="none" stroke="#000000" points="380,-389.2 380,-411.2 491,-411.2 491,-389.2 380,-389.2"/>
<text text-anchor="start" x="383" y="-396.9" font-family="Helvetica,sans-Serif" font-size="11.00" fill="#000000">datetime[26]</text>
<polygon fill="none" stroke="#000000" points="239,-367.2 239,-389.2 380,-389.2 380,-367.2 239,-367.2"/>
<text text-anchor="start" x="259" y="-374.3" font-family="Helvetica,sans-Serif" font-size="11.00" fill="#000000">Remarks</text>
<polygon fill="none" stroke="#000000" points="380,-367.2 380,-389.2 491,-389.2 491,-367.2 380,-367.2"/>
<text text-anchor="start" x="382.6115" y="-374.9" font-family="Helvetica,sans-Serif" font-size="11.00" fill="#000000">longtext[2147483647]</text>
<polygon fill="none" stroke="#000000" points="239,-345.2 239,-367.2 380,-367.2 380,-345.2 239,-345.2"/>
<text text-anchor="start" x="259" y="-352.3" font-family="Helvetica,sans-Serif" font-size="11.00" fill="#000000">UserID</text>
<polygon fill="none" stroke="#000000" points="380,-345.2 380,-367.2 491,-367.2 491,-345.2 380,-345.2"/>
<text text-anchor="start" x="383" y="-352.9" font-family="Helvetica,sans-Serif" font-size="11.00" fill="#000000">int[10]</text>
<polygon fill="#ffffff" stroke="transparent" points="239,-323.2 239,-345.2 380,-345.2 380,-323.2 239,-323.2"/>
<polygon fill="none" stroke="#000000" points="239,-323.2 239,-345.2 380,-345.2 380,-323.2 239,-323.2"/>
<image xlink:href="../../images/foreignKeys.png" width="11px" height="12px" preserveAspectRatio="xMinYMin meet" x="244" y="-340.2"/>
<text text-anchor="start" x="259" y="-330.3" font-family="Helvetica,sans-Serif" font-size="11.00" fill="#000000">Order_BookingFK</text>
<polygon fill="none" stroke="#000000" points="380,-323.2 380,-345.2 491,-345.2 491,-323.2 380,-323.2"/>
<text text-anchor="start" x="383" y="-330.9" font-family="Helvetica,sans-Serif" font-size="11.00" fill="#000000">int[10]</text>
<polygon fill="#ffffff" stroke="transparent" points="239,-301.2 239,-323.2 380,-323.2 380,-301.2 239,-301.2"/>
<polygon fill="none" stroke="#000000" points="239,-301.2 239,-323.2 380,-323.2 380,-301.2 239,-301.2"/>
<image xlink:href="../../images/foreignKeys.png" width="11px" height="12px" preserveAspectRatio="xMinYMin meet" x="244" y="-318.2"/>
<text text-anchor="start" x="259" y="-308.3" font-family="Helvetica,sans-Serif" font-size="11.00" fill="#000000">Common_ProductFK</text>
<polygon fill="none" stroke="#000000" points="380,-301.2 380,-323.2 491,-323.2 491,-301.2 380,-301.2"/>
<text text-anchor="start" x="383" y="-308.9" font-family="Helvetica,sans-Serif" font-size="11.00" fill="#000000">int[10]</text>
<polygon fill="none" stroke="#000000" points="239,-279.2 239,-301.2 380,-301.2 380,-279.2 239,-279.2"/>
<text text-anchor="start" x="259" y="-286.3" font-family="Helvetica,sans-Serif" font-size="11.00" fill="#000000">BookingQty</text>
<polygon fill="none" stroke="#000000" points="380,-279.2 380,-301.2 491,-301.2 491,-279.2 380,-279.2"/>
<text text-anchor="start" x="383" y="-286.9" font-family="Helvetica,sans-Serif" font-size="11.00" fill="#000000">int[10]</text>
<polygon fill="none" stroke="#000000" points="239,-257.2 239,-279.2 380,-279.2 380,-257.2 239,-257.2"/>
<text text-anchor="start" x="259" y="-264.3" font-family="Helvetica,sans-Serif" font-size="11.00" fill="#000000">HasInvoice</text>
<polygon fill="none" stroke="#000000" points="380,-257.2 380,-279.2 491,-279.2 491,-257.2 380,-257.2"/>
<text text-anchor="start" x="383" y="-264.9" font-family="Helvetica,sans-Serif" font-size="11.00" fill="#000000">bit[1]</text>
<polygon fill="none" stroke="#000000" points="239,-235.2 239,-257.2 380,-257.2 380,-235.2 239,-235.2"/>
<text text-anchor="start" x="259" y="-242.3" font-family="Helvetica,sans-Serif" font-size="11.00" fill="#000000">HasPartnerInvoice</text>
<polygon fill="none" stroke="#000000" points="380,-235.2 380,-257.2 491,-257.2 491,-235.2 380,-235.2"/>
<text text-anchor="start" x="383" y="-242.9" font-family="Helvetica,sans-Serif" font-size="11.00" fill="#000000">bit[1]</text>
<polygon fill="none" stroke="#000000" points="239,-213.2 239,-235.2 380,-235.2 380,-213.2 239,-213.2"/>
<text text-anchor="start" x="259" y="-220.3" font-family="Helvetica,sans-Serif" font-size="11.00" fill="#000000">RequestedQty</text>
<polygon fill="none" stroke="#000000" points="380,-213.2 380,-235.2 491,-235.2 491,-213.2 380,-213.2"/>
<text text-anchor="start" x="383" y="-220.9" font-family="Helvetica,sans-Serif" font-size="11.00" fill="#000000">int[10]</text>
<polygon fill="none" stroke="#000000" points="239,-191.2 239,-213.2 380,-213.2 380,-191.2 239,-191.2"/>
<text text-anchor="start" x="259" y="-198.3" font-family="Helvetica,sans-Serif" font-size="11.00" fill="#000000">SaleQty</text>
<polygon fill="none" stroke="#000000" points="380,-191.2 380,-213.2 491,-213.2 491,-191.2 380,-191.2"/>
<text text-anchor="start" x="383" y="-198.9" font-family="Helvetica,sans-Serif" font-size="11.00" fill="#000000">int[10]</text>
<polygon fill="none" stroke="#000000" points="239,-169.2 239,-191.2 380,-191.2 380,-169.2 239,-169.2"/>
<text text-anchor="start" x="259" y="-176.3" font-family="Helvetica,sans-Serif" font-size="11.00" fill="#000000">BookedQty</text>
<polygon fill="none" stroke="#000000" points="380,-169.2 380,-191.2 491,-191.2 491,-169.2 380,-169.2"/>
<text text-anchor="start" x="383" y="-176.9" font-family="Helvetica,sans-Serif" font-size="11.00" fill="#000000">int[10]</text>
<polygon fill="none" stroke="#000000" points="239,-147.2 239,-169.2 380,-169.2 380,-147.2 239,-147.2"/>
<text text-anchor="start" x="259" y="-154.3" font-family="Helvetica,sans-Serif" font-size="11.00" fill="#000000">Common_UnitFK</text>
<polygon fill="none" stroke="#000000" points="380,-147.2 380,-169.2 491,-169.2 491,-147.2 380,-147.2"/>
<text text-anchor="start" x="383" y="-154.9" font-family="Helvetica,sans-Serif" font-size="11.00" fill="#000000">int[10]</text>
<polygon fill="none" stroke="#000000" points="239,-125.2 239,-147.2 380,-147.2 380,-125.2 239,-125.2"/>
<text text-anchor="start" x="259" y="-132.3" font-family="Helvetica,sans-Serif" font-size="11.00" fill="#000000">AcceptedQty</text>
<polygon fill="none" stroke="#000000" points="380,-125.2 380,-147.2 491,-147.2 491,-125.2 380,-125.2"/>
<text text-anchor="start" x="383" y="-132.9" font-family="Helvetica,sans-Serif" font-size="11.00" fill="#000000">int[10]</text>
<polygon fill="none" stroke="#000000" points="239,-103.2 239,-125.2 380,-125.2 380,-103.2 239,-103.2"/>
<text text-anchor="start" x="259" y="-110.3" font-family="Helvetica,sans-Serif" font-size="11.00" fill="#000000">Exp_DeliveryDate</text>
<polygon fill="none" stroke="#000000" points="380,-103.2 380,-125.2 491,-125.2 491,-103.2 380,-103.2"/>
<text text-anchor="start" x="383" y="-110.9" font-family="Helvetica,sans-Serif" font-size="11.00" fill="#000000">datetime[26]</text>
<polygon fill="none" stroke="#000000" points="239,-81.2 239,-103.2 380,-103.2 380,-81.2 239,-81.2"/>
<text text-anchor="start" x="259" y="-88.3" font-family="Helvetica,sans-Serif" font-size="11.00" fill="#000000">IsAccepted</text>
<polygon fill="none" stroke="#000000" points="380,-81.2 380,-103.2 491,-103.2 491,-81.2 380,-81.2"/>
<text text-anchor="start" x="383" y="-88.9" font-family="Helvetica,sans-Serif" font-size="11.00" fill="#000000">bit[1]</text>
<polygon fill="none" stroke="#000000" points="239,-59.2 239,-81.2 380,-81.2 380,-59.2 239,-59.2"/>
<text text-anchor="start" x="259" y="-66.3" font-family="Helvetica,sans-Serif" font-size="11.00" fill="#000000">DeliveredQty</text>
<polygon fill="none" stroke="#000000" points="380,-59.2 380,-81.2 491,-81.2 491,-59.2 380,-59.2"/>
<text text-anchor="start" x="383" y="-66.9" font-family="Helvetica,sans-Serif" font-size="11.00" fill="#000000">int[10]</text>
<polygon fill="#ffffff" stroke="transparent" points="239,-40.2 239,-59.2 298,-59.2 298,-40.2 239,-40.2"/>
<polygon fill="none" stroke="#000000" points="239,-40.2 239,-59.2 298,-59.2 298,-40.2 239,-40.2"/>
<text text-anchor="start" x="242" y="-46.3" font-family="Helvetica,sans-Serif" font-size="11.00" fill="#000000">&lt; 2</text>
<polygon fill="#ffffff" stroke="transparent" points="298,-40.2 298,-59.2 380,-59.2 380,-40.2 298,-40.2"/>
<polygon fill="none" stroke="#000000" points="298,-40.2 298,-59.2 380,-59.2 380,-40.2 298,-40.2"/>
<text text-anchor="start" x="338.4956" y="-46.3" font-family="Helvetica,sans-Serif" font-size="11.00" fill="#000000">62 rows</text>
<polygon fill="#ffffff" stroke="transparent" points="380,-40.2 380,-59.2 491,-59.2 491,-40.2 380,-40.2"/>
<polygon fill="none" stroke="#000000" points="380,-40.2 380,-59.2 491,-59.2 491,-40.2 380,-40.2"/>
<text text-anchor="start" x="472.4053" y="-46.3" font-family="Helvetica,sans-Serif" font-size="11.00" fill="#000000">0 &gt;</text>
<polygon fill="none" stroke="#000000" stroke-width="2" points="238,-39.2 238,-523.2 492,-523.2 492,-39.2 238,-39.2"/>
</a>
</g>
</g>
<!-- common_product -->
<g id="node2" class="node">
<title>common_product</title>
<g id="a_node2"><a xlink:href="../../tables/common_product.html" xlink:title="common_product" target="_top">
<polygon fill="#ffffff" stroke="transparent" points="12.5,-178.7 12.5,-305.7 183.5,-305.7 183.5,-178.7 12.5,-178.7"/>
<polygon fill="#f5f5f5" stroke="transparent" points="13,-282.2 13,-305.2 184,-305.2 184,-282.2 13,-282.2"/>
<polygon fill="none" stroke="#000000" points="13,-282.2 13,-305.2 184,-305.2 184,-282.2 13,-282.2"/>
<text text-anchor="start" x="18" y="-290.8" font-family="Helvetica,sans-Serif" font-weight="bold" font-size="11.00" fill="#000000">common_product</text>
<text text-anchor="start" x="149.0437" y="-290.3" font-family="Helvetica,sans-Serif" font-size="11.00" fill="#000000">[table]</text>
<polygon fill="none" stroke="#000000" points="13,-260.2 13,-282.2 184,-282.2 184,-260.2 13,-260.2"/>
<image xlink:href="../../images/primaryKeys.png" width="11px" height="12px" preserveAspectRatio="xMinYMin meet" x="18" y="-277.2"/>
<text text-anchor="start" x="33" y="-267.3" font-family="Helvetica,sans-Serif" font-size="11.00" fill="#000000">ID</text>
<polygon fill="#ffffff" stroke="transparent" points="13,-238.2 13,-260.2 184,-260.2 184,-238.2 13,-238.2"/>
<polygon fill="none" stroke="#000000" points="13,-238.2 13,-260.2 184,-260.2 184,-238.2 13,-238.2"/>
<image xlink:href="../../images/foreignKeys.png" width="11px" height="12px" preserveAspectRatio="xMinYMin meet" x="18" y="-255.2"/>
<text text-anchor="start" x="33" y="-245.3" font-family="Helvetica,sans-Serif" font-size="11.00" fill="#000000">Common_ManufacturerFK</text>
<polygon fill="none" stroke="#000000" points="13,-216.2 13,-238.2 184,-238.2 184,-216.2 13,-216.2"/>
<image xlink:href="../../images/foreignKeys.png" width="11px" height="12px" preserveAspectRatio="xMinYMin meet" x="18" y="-233.2"/>
<text text-anchor="start" x="33" y="-223.3" font-family="Helvetica,sans-Serif" font-size="11.00" fill="#000000">Common_PackTypeID</text>
<polygon fill="none" stroke="#000000" points="13,-197.2 13,-216.2 184,-216.2 184,-197.2 13,-197.2"/>
<text text-anchor="start" x="16" y="-203.3" font-family="Helvetica,sans-Serif" font-size="11.00" fill="#000000">...</text>
<polygon fill="#ffffff" stroke="transparent" points="13,-178.2 13,-197.2 76,-197.2 76,-178.2 13,-178.2"/>
<polygon fill="none" stroke="#000000" points="13,-178.2 13,-197.2 76,-197.2 76,-178.2 13,-178.2"/>
<text text-anchor="start" x="16" y="-184.3" font-family="Helvetica,sans-Serif" font-size="11.00" fill="#000000">&lt; 1</text>
<polygon fill="#ffffff" stroke="transparent" points="76,-178.2 76,-197.2 141,-197.2 141,-178.2 76,-178.2"/>
<polygon fill="none" stroke="#000000" points="76,-178.2 76,-197.2 141,-197.2 141,-178.2 76,-178.2"/>
<text text-anchor="start" x="99.4956" y="-184.3" font-family="Helvetica,sans-Serif" font-size="11.00" fill="#000000">54 rows</text>
<polygon fill="#ffffff" stroke="transparent" points="141,-178.2 141,-197.2 184,-197.2 184,-178.2 141,-178.2"/>
<polygon fill="none" stroke="#000000" points="141,-178.2 141,-197.2 184,-197.2 184,-178.2 141,-178.2"/>
<text text-anchor="start" x="165.4053" y="-184.3" font-family="Helvetica,sans-Serif" font-size="11.00" fill="#000000">6 &gt;</text>
</a>
</g>
</g>
<!-- order_bookingitem&#45;&gt;common_product -->
<g id="edge1" class="edge">
<title>order_bookingitem:w&#45;&gt;common_product:e</title>
<path fill="none" stroke="#000000" d="M224.7653,-308.1189C209.455,-297.7484 208.5341,-271.2 184,-271.2"/>
<polygon fill="#000000" stroke="#000000" points="231.3098,-309.9952 238.0078,-315.6606 235.1549,-311.0976 239,-312.2 239,-312.2 239,-312.2 235.1549,-311.0976 239.9922,-308.7394 231.3098,-309.9952 231.3098,-309.9952"/>
<ellipse fill="none" stroke="#000000" cx="228.2337" cy="-309.1132" rx="3.2" ry="3.2"/>
</g>
<!-- order_booking -->
<g id="node3" class="node">
<title>order_booking</title>
<g id="a_node3"><a xlink:href="../../tables/order_booking.html" xlink:title="order_booking" target="_top">
<polygon fill="#ffffff" stroke="transparent" points="8,-326.7 8,-409.7 188,-409.7 188,-326.7 8,-326.7"/>
<polygon fill="#f5f5f5" stroke="transparent" points="8,-386.2 8,-409.2 188,-409.2 188,-386.2 8,-386.2"/>
<polygon fill="none" stroke="#000000" points="8,-386.2 8,-409.2 188,-409.2 188,-386.2 8,-386.2"/>
<text text-anchor="start" x="13" y="-394.8" font-family="Helvetica,sans-Serif" font-weight="bold" font-size="11.00" fill="#000000">order_booking</text>
<text text-anchor="start" x="153.0437" y="-394.3" font-family="Helvetica,sans-Serif" font-size="11.00" fill="#000000">[table]</text>
<polygon fill="none" stroke="#000000" points="8,-364.2 8,-386.2 188,-386.2 188,-364.2 8,-364.2"/>
<image xlink:href="../../images/primaryKeys.png" width="11px" height="12px" preserveAspectRatio="xMinYMin meet" x="13" y="-381.2"/>
<text text-anchor="start" x="28" y="-371.3" font-family="Helvetica,sans-Serif" font-size="11.00" fill="#000000">ID</text>
<polygon fill="none" stroke="#000000" points="8,-345.2 8,-364.2 188,-364.2 188,-345.2 8,-345.2"/>
<text text-anchor="start" x="11" y="-351.3" font-family="Helvetica,sans-Serif" font-size="11.00" fill="#000000">...</text>
<polygon fill="#ffffff" stroke="transparent" points="8,-326.2 8,-345.2 71,-345.2 71,-326.2 8,-326.2"/>
<polygon fill="none" stroke="#000000" points="8,-326.2 8,-345.2 71,-345.2 71,-326.2 8,-326.2"/>
<text text-anchor="start" x="11" y="-332.3" font-family="Helvetica,sans-Serif" font-size="11.00" fill="#000000"> &#160;</text>
<polygon fill="#ffffff" stroke="transparent" points="71,-326.2 71,-345.2 141,-345.2 141,-326.2 71,-326.2"/>
<polygon fill="none" stroke="#000000" points="71,-326.2 71,-345.2 141,-345.2 141,-326.2 71,-326.2"/>
<text text-anchor="start" x="99.4956" y="-332.3" font-family="Helvetica,sans-Serif" font-size="11.00" fill="#000000">42 rows</text>
<polygon fill="#ffffff" stroke="transparent" points="141,-326.2 141,-345.2 188,-345.2 188,-326.2 141,-326.2"/>
<polygon fill="none" stroke="#000000" points="141,-326.2 141,-345.2 188,-345.2 188,-326.2 141,-326.2"/>
<text text-anchor="start" x="169.4053" y="-332.3" font-family="Helvetica,sans-Serif" font-size="11.00" fill="#000000">1 &gt;</text>
</a>
</g>
</g>
<!-- order_bookingitem&#45;&gt;order_booking -->
<g id="edge2" class="edge">
<title>order_bookingitem:w&#45;&gt;order_booking:e</title>
<path fill="none" stroke="#000000" d="M225.1568,-338.5877C211.3325,-349.1646 211.1756,-375.2 188,-375.2"/>
<polygon fill="#000000" stroke="#000000" points="231.3739,-336.6172 240.0877,-337.6317 235.1869,-335.4086 239,-334.2 239,-334.2 239,-334.2 235.1869,-335.4086 237.9123,-330.7683 231.3739,-336.6172 231.3739,-336.6172"/>
<ellipse fill="none" stroke="#000000" cx="228.3235" cy="-337.5841" rx="3.2" ry="3.2"/>
</g>
</g>
</svg>
