<?xml version="1.0" encoding="UTF-8" standalone="no"?>
<!DOCTYPE svg PUBLIC "-//W3C//DTD SVG 1.1//EN"
 "http://www.w3.org/Graphics/SVG/1.1/DTD/svg11.dtd">
<!-- Generated by graphviz version 2.40.1 (20161225.0304)
 -->
<!-- Title: oneDegreeRelationshipsDiagramImplied Pages: 1 -->
<svg width="560pt" height="712pt"
 viewBox="0.00 0.00 560.00 712.20" xmlns="http://www.w3.org/2000/svg" xmlns:xlink="http://www.w3.org/1999/xlink">
<g id="graph0" class="graph" transform="scale(1 1) rotate(0) translate(4 708.2)">
<title>oneDegreeRelationshipsDiagramImplied</title>
<polygon fill="#ffffff" stroke="transparent" points="-4,4 -4,-708.2 556,-708.2 556,4 -4,4"/>
<text text-anchor="middle" x="72.4936" y="-7.3" font-family="Helvetica,sans-Serif" font-size="11.00" fill="#000000">Generated by SchemaSpy</text>
<!-- order_saleitem -->
<g id="node1" class="node">
<title>order_saleitem</title>
<g id="a_node1"><a xlink:href="../../tables/order_saleitem.html" xlink:title="order_saleitem" target="_top">
<polygon fill="#ffffff" stroke="transparent" points="253,-38.2 253,-700.2 544,-700.2 544,-38.2 253,-38.2"/>
<polygon fill="#f5f5f5" stroke="transparent" points="255.5,-675.2 255.5,-698.2 542.5,-698.2 542.5,-675.2 255.5,-675.2"/>
<polygon fill="none" stroke="#000000" points="255.5,-675.2 255.5,-698.2 542.5,-698.2 542.5,-675.2 255.5,-675.2"/>
<text text-anchor="start" x="260.5" y="-683.8" font-family="Helvetica,sans-Serif" font-weight="bold" font-size="11.00" fill="#000000">order_saleitem</text>
<text text-anchor="start" x="507.5437" y="-683.3" font-family="Helvetica,sans-Serif" font-size="11.00" fill="#000000">[table]</text>
<polygon fill="none" stroke="#000000" points="255.5,-653.2 255.5,-675.2 431.5,-675.2 431.5,-653.2 255.5,-653.2"/>
<image xlink:href="../../images/primaryKeys.png" width="11px" height="12px" preserveAspectRatio="xMinYMin meet" x="260.5" y="-670.2"/>
<text text-anchor="start" x="275.5" y="-660.3" font-family="Helvetica,sans-Serif" font-size="11.00" fill="#000000">ID</text>
<polygon fill="none" stroke="#000000" points="431.5,-653.2 431.5,-675.2 542.5,-675.2 542.5,-653.2 431.5,-653.2"/>
<text text-anchor="start" x="434.5" y="-660.9" font-family="Helvetica,sans-Serif" font-size="11.00" fill="#000000">int[10]</text>
<polygon fill="none" stroke="#000000" points="255.5,-631.2 255.5,-653.2 431.5,-653.2 431.5,-631.2 255.5,-631.2"/>
<text text-anchor="start" x="275.5" y="-638.3" font-family="Helvetica,sans-Serif" font-size="11.00" fill="#000000">Active</text>
<polygon fill="none" stroke="#000000" points="431.5,-631.2 431.5,-653.2 542.5,-653.2 542.5,-631.2 431.5,-631.2"/>
<text text-anchor="start" x="434.5" y="-638.9" font-family="Helvetica,sans-Serif" font-size="11.00" fill="#000000">bit[1]</text>
<polygon fill="none" stroke="#000000" points="255.5,-609.2 255.5,-631.2 431.5,-631.2 431.5,-609.2 255.5,-609.2"/>
<text text-anchor="start" x="275.5" y="-616.3" font-family="Helvetica,sans-Serif" font-size="11.00" fill="#000000">User</text>
<polygon fill="none" stroke="#000000" points="431.5,-609.2 431.5,-631.2 542.5,-631.2 542.5,-609.2 431.5,-609.2"/>
<text text-anchor="start" x="434.1115" y="-616.9" font-family="Helvetica,sans-Serif" font-size="11.00" fill="#000000">longtext[2147483647]</text>
<polygon fill="none" stroke="#000000" points="255.5,-587.2 255.5,-609.2 431.5,-609.2 431.5,-587.2 255.5,-587.2"/>
<text text-anchor="start" x="275.5" y="-594.3" font-family="Helvetica,sans-Serif" font-size="11.00" fill="#000000">CD</text>
<polygon fill="none" stroke="#000000" points="431.5,-587.2 431.5,-609.2 542.5,-609.2 542.5,-587.2 431.5,-587.2"/>
<text text-anchor="start" x="434.5" y="-594.9" font-family="Helvetica,sans-Serif" font-size="11.00" fill="#000000">datetime[26]</text>
<polygon fill="none" stroke="#000000" points="255.5,-565.2 255.5,-587.2 431.5,-587.2 431.5,-565.2 255.5,-565.2"/>
<text text-anchor="start" x="275.5" y="-572.3" font-family="Helvetica,sans-Serif" font-size="11.00" fill="#000000">UD</text>
<polygon fill="none" stroke="#000000" points="431.5,-565.2 431.5,-587.2 542.5,-587.2 542.5,-565.2 431.5,-565.2"/>
<text text-anchor="start" x="434.5" y="-572.9" font-family="Helvetica,sans-Serif" font-size="11.00" fill="#000000">datetime[26]</text>
<polygon fill="none" stroke="#000000" points="255.5,-543.2 255.5,-565.2 431.5,-565.2 431.5,-543.2 255.5,-543.2"/>
<text text-anchor="start" x="275.5" y="-550.3" font-family="Helvetica,sans-Serif" font-size="11.00" fill="#000000">Remarks</text>
<polygon fill="none" stroke="#000000" points="431.5,-543.2 431.5,-565.2 542.5,-565.2 542.5,-543.2 431.5,-543.2"/>
<text text-anchor="start" x="434.1115" y="-550.9" font-family="Helvetica,sans-Serif" font-size="11.00" fill="#000000">longtext[2147483647]</text>
<polygon fill="none" stroke="#000000" points="255.5,-521.2 255.5,-543.2 431.5,-543.2 431.5,-521.2 255.5,-521.2"/>
<text text-anchor="start" x="275.5" y="-528.3" font-family="Helvetica,sans-Serif" font-size="11.00" fill="#000000">UserID</text>
<polygon fill="none" stroke="#000000" points="431.5,-521.2 431.5,-543.2 542.5,-543.2 542.5,-521.2 431.5,-521.2"/>
<text text-anchor="start" x="434.5" y="-528.9" font-family="Helvetica,sans-Serif" font-size="11.00" fill="#000000">int[10]</text>
<polygon fill="#ffffff" stroke="transparent" points="255.5,-499.2 255.5,-521.2 431.5,-521.2 431.5,-499.2 255.5,-499.2"/>
<polygon fill="none" stroke="#000000" points="255.5,-499.2 255.5,-521.2 431.5,-521.2 431.5,-499.2 255.5,-499.2"/>
<image xlink:href="../../images/foreignKeys.png" width="11px" height="12px" preserveAspectRatio="xMinYMin meet" x="260.5" y="-516.2"/>
<text text-anchor="start" x="275.5" y="-506.3" font-family="Helvetica,sans-Serif" font-size="11.00" fill="#000000">Order_SaleFK</text>
<polygon fill="none" stroke="#000000" points="431.5,-499.2 431.5,-521.2 542.5,-521.2 542.5,-499.2 431.5,-499.2"/>
<text text-anchor="start" x="434.5" y="-506.9" font-family="Helvetica,sans-Serif" font-size="11.00" fill="#000000">int[10]</text>
<polygon fill="#ffffff" stroke="transparent" points="255.5,-477.2 255.5,-499.2 431.5,-499.2 431.5,-477.2 255.5,-477.2"/>
<polygon fill="none" stroke="#000000" points="255.5,-477.2 255.5,-499.2 431.5,-499.2 431.5,-477.2 255.5,-477.2"/>
<image xlink:href="../../images/foreignKeys.png" width="11px" height="12px" preserveAspectRatio="xMinYMin meet" x="260.5" y="-494.2"/>
<text text-anchor="start" x="275.5" y="-484.3" font-family="Helvetica,sans-Serif" font-size="11.00" fill="#000000">Common_ProductFK</text>
<polygon fill="none" stroke="#000000" points="431.5,-477.2 431.5,-499.2 542.5,-499.2 542.5,-477.2 431.5,-477.2"/>
<text text-anchor="start" x="434.5" y="-484.9" font-family="Helvetica,sans-Serif" font-size="11.00" fill="#000000">int[10]</text>
<polygon fill="none" stroke="#000000" points="255.5,-455.2 255.5,-477.2 431.5,-477.2 431.5,-455.2 255.5,-455.2"/>
<text text-anchor="start" x="275.5" y="-462.3" font-family="Helvetica,sans-Serif" font-size="11.00" fill="#000000">Order_BookingItemFK</text>
<polygon fill="none" stroke="#000000" points="431.5,-455.2 431.5,-477.2 542.5,-477.2 542.5,-455.2 431.5,-455.2"/>
<text text-anchor="start" x="434.5" y="-462.9" font-family="Helvetica,sans-Serif" font-size="11.00" fill="#000000">int[10]</text>
<polygon fill="none" stroke="#000000" points="255.5,-433.2 255.5,-455.2 431.5,-455.2 431.5,-433.2 255.5,-433.2"/>
<text text-anchor="start" x="275.5" y="-440.3" font-family="Helvetica,sans-Serif" font-size="11.00" fill="#000000">ProductPriceID</text>
<polygon fill="none" stroke="#000000" points="431.5,-433.2 431.5,-455.2 542.5,-455.2 542.5,-433.2 431.5,-433.2"/>
<text text-anchor="start" x="434.5" y="-440.9" font-family="Helvetica,sans-Serif" font-size="11.00" fill="#000000">int[10]</text>
<polygon fill="none" stroke="#000000" points="255.5,-411.2 255.5,-433.2 431.5,-433.2 431.5,-411.2 255.5,-411.2"/>
<text text-anchor="start" x="275.5" y="-418.3" font-family="Helvetica,sans-Serif" font-size="11.00" fill="#000000">UnitPrice</text>
<polygon fill="none" stroke="#000000" points="431.5,-411.2 431.5,-433.2 542.5,-433.2 542.5,-411.2 431.5,-411.2"/>
<text text-anchor="start" x="434.5" y="-418.9" font-family="Helvetica,sans-Serif" font-size="11.00" fill="#000000">decimal[18,5]</text>
<polygon fill="none" stroke="#000000" points="255.5,-389.2 255.5,-411.2 431.5,-411.2 431.5,-389.2 255.5,-389.2"/>
<text text-anchor="start" x="275.5" y="-396.3" font-family="Helvetica,sans-Serif" font-size="11.00" fill="#000000">Quantity</text>
<polygon fill="none" stroke="#000000" points="431.5,-389.2 431.5,-411.2 542.5,-411.2 542.5,-389.2 431.5,-389.2"/>
<text text-anchor="start" x="434.5" y="-396.9" font-family="Helvetica,sans-Serif" font-size="11.00" fill="#000000">decimal[18,5]</text>
<polygon fill="none" stroke="#000000" points="255.5,-367.2 255.5,-389.2 431.5,-389.2 431.5,-367.2 255.5,-367.2"/>
<text text-anchor="start" x="275.5" y="-374.3" font-family="Helvetica,sans-Serif" font-size="11.00" fill="#000000">TotalPrice</text>
<polygon fill="none" stroke="#000000" points="431.5,-367.2 431.5,-389.2 542.5,-389.2 542.5,-367.2 431.5,-367.2"/>
<text text-anchor="start" x="434.5" y="-374.9" font-family="Helvetica,sans-Serif" font-size="11.00" fill="#000000">decimal[18,5]</text>
<polygon fill="none" stroke="#000000" points="255.5,-345.2 255.5,-367.2 431.5,-367.2 431.5,-345.2 255.5,-345.2"/>
<text text-anchor="start" x="275.5" y="-352.3" font-family="Helvetica,sans-Serif" font-size="11.00" fill="#000000">VatAmount</text>
<polygon fill="none" stroke="#000000" points="431.5,-345.2 431.5,-367.2 542.5,-367.2 542.5,-345.2 431.5,-345.2"/>
<text text-anchor="start" x="434.5" y="-352.9" font-family="Helvetica,sans-Serif" font-size="11.00" fill="#000000">decimal[18,5]</text>
<polygon fill="none" stroke="#000000" points="255.5,-323.2 255.5,-345.2 431.5,-345.2 431.5,-323.2 255.5,-323.2"/>
<text text-anchor="start" x="275.5" y="-330.3" font-family="Helvetica,sans-Serif" font-size="11.00" fill="#000000">VatRate</text>
<polygon fill="none" stroke="#000000" points="431.5,-323.2 431.5,-345.2 542.5,-345.2 542.5,-323.2 431.5,-323.2"/>
<text text-anchor="start" x="434.5" y="-330.9" font-family="Helvetica,sans-Serif" font-size="11.00" fill="#000000">decimal[18,2]</text>
<polygon fill="none" stroke="#000000" points="255.5,-301.2 255.5,-323.2 431.5,-323.2 431.5,-301.2 255.5,-301.2"/>
<text text-anchor="start" x="275.5" y="-308.3" font-family="Helvetica,sans-Serif" font-size="11.00" fill="#000000">AITAmount</text>
<polygon fill="none" stroke="#000000" points="431.5,-301.2 431.5,-323.2 542.5,-323.2 542.5,-301.2 431.5,-301.2"/>
<text text-anchor="start" x="434.5" y="-308.9" font-family="Helvetica,sans-Serif" font-size="11.00" fill="#000000">decimal[18,5]</text>
<polygon fill="none" stroke="#000000" points="255.5,-279.2 255.5,-301.2 431.5,-301.2 431.5,-279.2 255.5,-279.2"/>
<text text-anchor="start" x="275.5" y="-286.3" font-family="Helvetica,sans-Serif" font-size="11.00" fill="#000000">AITRate</text>
<polygon fill="none" stroke="#000000" points="431.5,-279.2 431.5,-301.2 542.5,-301.2 542.5,-279.2 431.5,-279.2"/>
<text text-anchor="start" x="434.5" y="-286.9" font-family="Helvetica,sans-Serif" font-size="11.00" fill="#000000">decimal[18,2]</text>
<polygon fill="none" stroke="#000000" points="255.5,-257.2 255.5,-279.2 431.5,-279.2 431.5,-257.2 255.5,-257.2"/>
<text text-anchor="start" x="275.5" y="-264.3" font-family="Helvetica,sans-Serif" font-size="11.00" fill="#000000">Commission</text>
<polygon fill="none" stroke="#000000" points="431.5,-257.2 431.5,-279.2 542.5,-279.2 542.5,-257.2 431.5,-257.2"/>
<text text-anchor="start" x="434.5" y="-264.9" font-family="Helvetica,sans-Serif" font-size="11.00" fill="#000000">decimal[18,5]</text>
<polygon fill="none" stroke="#000000" points="255.5,-235.2 255.5,-257.2 431.5,-257.2 431.5,-235.2 255.5,-235.2"/>
<text text-anchor="start" x="275.5" y="-242.3" font-family="Helvetica,sans-Serif" font-size="11.00" fill="#000000">Discount</text>
<polygon fill="none" stroke="#000000" points="431.5,-235.2 431.5,-257.2 542.5,-257.2 542.5,-235.2 431.5,-235.2"/>
<text text-anchor="start" x="434.5" y="-242.9" font-family="Helvetica,sans-Serif" font-size="11.00" fill="#000000">decimal[18,5]</text>
<polygon fill="none" stroke="#000000" points="255.5,-213.2 255.5,-235.2 431.5,-235.2 431.5,-213.2 255.5,-213.2"/>
<text text-anchor="start" x="275.5" y="-220.3" font-family="Helvetica,sans-Serif" font-size="11.00" fill="#000000">WarrentyExpired</text>
<polygon fill="none" stroke="#000000" points="431.5,-213.2 431.5,-235.2 542.5,-235.2 542.5,-213.2 431.5,-213.2"/>
<text text-anchor="start" x="434.5" y="-220.9" font-family="Helvetica,sans-Serif" font-size="11.00" fill="#000000">datetime[26]</text>
<polygon fill="none" stroke="#000000" points="255.5,-191.2 255.5,-213.2 431.5,-213.2 431.5,-191.2 255.5,-191.2"/>
<text text-anchor="start" x="275.5" y="-198.3" font-family="Helvetica,sans-Serif" font-size="11.00" fill="#000000">IsBonus</text>
<polygon fill="none" stroke="#000000" points="431.5,-191.2 431.5,-213.2 542.5,-213.2 542.5,-191.2 431.5,-191.2"/>
<text text-anchor="start" x="434.5" y="-198.9" font-family="Helvetica,sans-Serif" font-size="11.00" fill="#000000">bit[1]</text>
<polygon fill="none" stroke="#000000" points="255.5,-169.2 255.5,-191.2 431.5,-191.2 431.5,-169.2 255.5,-169.2"/>
<text text-anchor="start" x="275.5" y="-176.3" font-family="Helvetica,sans-Serif" font-size="11.00" fill="#000000">Common_UnitFK</text>
<polygon fill="none" stroke="#000000" points="431.5,-169.2 431.5,-191.2 542.5,-191.2 542.5,-169.2 431.5,-169.2"/>
<text text-anchor="start" x="434.5" y="-176.9" font-family="Helvetica,sans-Serif" font-size="11.00" fill="#000000">int[10]</text>
<polygon fill="none" stroke="#000000" points="255.5,-147.2 255.5,-169.2 431.5,-169.2 431.5,-147.2 255.5,-147.2"/>
<text text-anchor="start" x="275.5" y="-154.3" font-family="Helvetica,sans-Serif" font-size="11.00" fill="#000000">Order_ReceiveFK</text>
<polygon fill="none" stroke="#000000" points="431.5,-147.2 431.5,-169.2 542.5,-169.2 542.5,-147.2 431.5,-147.2"/>
<text text-anchor="start" x="434.5" y="-154.9" font-family="Helvetica,sans-Serif" font-size="11.00" fill="#000000">int[10]</text>
<polygon fill="none" stroke="#000000" points="255.5,-125.2 255.5,-147.2 431.5,-147.2 431.5,-125.2 255.5,-125.2"/>
<text text-anchor="start" x="275.5" y="-132.3" font-family="Helvetica,sans-Serif" font-size="11.00" fill="#000000">QtyInPcs</text>
<polygon fill="none" stroke="#000000" points="431.5,-125.2 431.5,-147.2 542.5,-147.2 542.5,-125.2 431.5,-125.2"/>
<text text-anchor="start" x="434.5" y="-132.9" font-family="Helvetica,sans-Serif" font-size="11.00" fill="#000000">decimal[18,2]</text>
<polygon fill="none" stroke="#000000" points="255.5,-103.2 255.5,-125.2 431.5,-125.2 431.5,-103.2 255.5,-103.2"/>
<text text-anchor="start" x="275.5" y="-110.3" font-family="Helvetica,sans-Serif" font-size="11.00" fill="#000000">WarehouseFk</text>
<polygon fill="none" stroke="#000000" points="431.5,-103.2 431.5,-125.2 542.5,-125.2 542.5,-103.2 431.5,-103.2"/>
<text text-anchor="start" x="434.5" y="-110.9" font-family="Helvetica,sans-Serif" font-size="11.00" fill="#000000">int[10]</text>
<polygon fill="none" stroke="#000000" points="255.5,-81.2 255.5,-103.2 431.5,-103.2 431.5,-81.2 255.5,-81.2"/>
<text text-anchor="start" x="275.5" y="-88.3" font-family="Helvetica,sans-Serif" font-size="11.00" fill="#000000">Warehouse_ChallanItemFK</text>
<polygon fill="none" stroke="#000000" points="431.5,-81.2 431.5,-103.2 542.5,-103.2 542.5,-81.2 431.5,-81.2"/>
<text text-anchor="start" x="434.5" y="-88.9" font-family="Helvetica,sans-Serif" font-size="11.00" fill="#000000">int[10]</text>
<polygon fill="none" stroke="#000000" points="255.5,-59.2 255.5,-81.2 431.5,-81.2 431.5,-59.2 255.5,-59.2"/>
<text text-anchor="start" x="275.5" y="-66.3" font-family="Helvetica,sans-Serif" font-size="11.00" fill="#000000">Common_ShopFK</text>
<polygon fill="none" stroke="#000000" points="431.5,-59.2 431.5,-81.2 542.5,-81.2 542.5,-59.2 431.5,-59.2"/>
<text text-anchor="start" x="434.5" y="-66.9" font-family="Helvetica,sans-Serif" font-size="11.00" fill="#000000">int[10]</text>
<polygon fill="#ffffff" stroke="transparent" points="255.5,-40.2 255.5,-59.2 328.5,-59.2 328.5,-40.2 255.5,-40.2"/>
<polygon fill="none" stroke="#000000" points="255.5,-40.2 255.5,-59.2 328.5,-59.2 328.5,-40.2 255.5,-40.2"/>
<text text-anchor="start" x="258.5" y="-46.3" font-family="Helvetica,sans-Serif" font-size="11.00" fill="#000000">&lt; 2</text>
<polygon fill="#ffffff" stroke="transparent" points="328.5,-40.2 328.5,-59.2 431.5,-59.2 431.5,-40.2 328.5,-40.2"/>
<polygon fill="none" stroke="#000000" points="328.5,-40.2 328.5,-59.2 431.5,-59.2 431.5,-40.2 328.5,-40.2"/>
<text text-anchor="start" x="383.8807" y="-46.3" font-family="Helvetica,sans-Serif" font-size="11.00" fill="#000000">659 rows</text>
<polygon fill="#ffffff" stroke="transparent" points="431.5,-40.2 431.5,-59.2 542.5,-59.2 542.5,-40.2 431.5,-40.2"/>
<polygon fill="none" stroke="#000000" points="431.5,-40.2 431.5,-59.2 542.5,-59.2 542.5,-40.2 431.5,-40.2"/>
<text text-anchor="start" x="523.9053" y="-46.3" font-family="Helvetica,sans-Serif" font-size="11.00" fill="#000000">0 &gt;</text>
<polygon fill="none" stroke="#000000" stroke-width="2" points="254,-39.2 254,-699.2 543,-699.2 543,-39.2 254,-39.2"/>
</a>
</g>
</g>
<!-- common_product -->
<g id="node2" class="node">
<title>common_product</title>
<g id="a_node2"><a xlink:href="../../tables/common_product.html" xlink:title="common_product" target="_top">
<polygon fill="#ffffff" stroke="transparent" points="20.5,-332.7 20.5,-459.7 191.5,-459.7 191.5,-332.7 20.5,-332.7"/>
<polygon fill="#f5f5f5" stroke="transparent" points="21,-436.2 21,-459.2 192,-459.2 192,-436.2 21,-436.2"/>
<polygon fill="none" stroke="#000000" points="21,-436.2 21,-459.2 192,-459.2 192,-436.2 21,-436.2"/>
<text text-anchor="start" x="26" y="-444.8" font-family="Helvetica,sans-Serif" font-weight="bold" font-size="11.00" fill="#000000">common_product</text>
<text text-anchor="start" x="157.0437" y="-444.3" font-family="Helvetica,sans-Serif" font-size="11.00" fill="#000000">[table]</text>
<polygon fill="none" stroke="#000000" points="21,-414.2 21,-436.2 192,-436.2 192,-414.2 21,-414.2"/>
<image xlink:href="../../images/primaryKeys.png" width="11px" height="12px" preserveAspectRatio="xMinYMin meet" x="26" y="-431.2"/>
<text text-anchor="start" x="41" y="-421.3" font-family="Helvetica,sans-Serif" font-size="11.00" fill="#000000">ID</text>
<polygon fill="#ffffff" stroke="transparent" points="21,-392.2 21,-414.2 192,-414.2 192,-392.2 21,-392.2"/>
<polygon fill="none" stroke="#000000" points="21,-392.2 21,-414.2 192,-414.2 192,-392.2 21,-392.2"/>
<image xlink:href="../../images/foreignKeys.png" width="11px" height="12px" preserveAspectRatio="xMinYMin meet" x="26" y="-409.2"/>
<text text-anchor="start" x="41" y="-399.3" font-family="Helvetica,sans-Serif" font-size="11.00" fill="#000000">Common_ManufacturerFK</text>
<polygon fill="none" stroke="#000000" points="21,-370.2 21,-392.2 192,-392.2 192,-370.2 21,-370.2"/>
<image xlink:href="../../images/foreignKeys.png" width="11px" height="12px" preserveAspectRatio="xMinYMin meet" x="26" y="-387.2"/>
<text text-anchor="start" x="41" y="-377.3" font-family="Helvetica,sans-Serif" font-size="11.00" fill="#000000">Common_PackTypeID</text>
<polygon fill="none" stroke="#000000" points="21,-351.2 21,-370.2 192,-370.2 192,-351.2 21,-351.2"/>
<text text-anchor="start" x="24" y="-357.3" font-family="Helvetica,sans-Serif" font-size="11.00" fill="#000000">...</text>
<polygon fill="#ffffff" stroke="transparent" points="21,-332.2 21,-351.2 84,-351.2 84,-332.2 21,-332.2"/>
<polygon fill="none" stroke="#000000" points="21,-332.2 21,-351.2 84,-351.2 84,-332.2 21,-332.2"/>
<text text-anchor="start" x="24" y="-338.3" font-family="Helvetica,sans-Serif" font-size="11.00" fill="#000000">&lt; 1</text>
<polygon fill="#ffffff" stroke="transparent" points="84,-332.2 84,-351.2 149,-351.2 149,-332.2 84,-332.2"/>
<polygon fill="none" stroke="#000000" points="84,-332.2 84,-351.2 149,-351.2 149,-332.2 84,-332.2"/>
<text text-anchor="start" x="107.4956" y="-338.3" font-family="Helvetica,sans-Serif" font-size="11.00" fill="#000000">54 rows</text>
<polygon fill="#ffffff" stroke="transparent" points="149,-332.2 149,-351.2 192,-351.2 192,-332.2 149,-332.2"/>
<polygon fill="none" stroke="#000000" points="149,-332.2 149,-351.2 192,-351.2 192,-332.2 149,-332.2"/>
<text text-anchor="start" x="173.4053" y="-338.3" font-family="Helvetica,sans-Serif" font-size="11.00" fill="#000000">6 &gt;</text>
</a>
</g>
</g>
<!-- order_saleitem&#45;&gt;common_product -->
<g id="edge1" class="edge">
<title>order_saleitem:w&#45;&gt;common_product:e</title>
<path fill="none" stroke="#000000" d="M241.4203,-484.6323C219.2078,-471.3051 226.0095,-425.2 192,-425.2"/>
<polygon fill="#000000" stroke="#000000" points="247.7451,-486.2349 254.6157,-491.6897 251.6225,-487.2175 255.5,-488.2 255.5,-488.2 255.5,-488.2 251.6225,-487.2175 256.3843,-484.7103 247.7451,-486.2349 247.7451,-486.2349"/>
<ellipse fill="none" stroke="#000000" cx="244.6431" cy="-485.4489" rx="3.2" ry="3.2"/>
</g>
<!-- order_sale -->
<g id="node3" class="node">
<title>order_sale</title>
<g id="a_node3"><a xlink:href="../../tables/order_sale.html" xlink:title="order_sale" target="_top">
<polygon fill="#ffffff" stroke="transparent" points="8,-480.7 8,-607.7 204,-607.7 204,-480.7 8,-480.7"/>
<polygon fill="#f5f5f5" stroke="transparent" points="8,-584.2 8,-607.2 204,-607.2 204,-584.2 8,-584.2"/>
<polygon fill="none" stroke="#000000" points="8,-584.2 8,-607.2 204,-607.2 204,-584.2 8,-584.2"/>
<text text-anchor="start" x="13" y="-592.8" font-family="Helvetica,sans-Serif" font-weight="bold" font-size="11.00" fill="#000000">order_sale</text>
<text text-anchor="start" x="169.0437" y="-592.3" font-family="Helvetica,sans-Serif" font-size="11.00" fill="#000000">[table]</text>
<polygon fill="none" stroke="#000000" points="8,-562.2 8,-584.2 204,-584.2 204,-562.2 8,-562.2"/>
<image xlink:href="../../images/primaryKeys.png" width="11px" height="12px" preserveAspectRatio="xMinYMin meet" x="13" y="-579.2"/>
<text text-anchor="start" x="28" y="-569.3" font-family="Helvetica,sans-Serif" font-size="11.00" fill="#000000">ID</text>
<polygon fill="#ffffff" stroke="transparent" points="8,-540.2 8,-562.2 204,-562.2 204,-540.2 8,-540.2"/>
<polygon fill="none" stroke="#000000" points="8,-540.2 8,-562.2 204,-562.2 204,-540.2 8,-540.2"/>
<image xlink:href="../../images/foreignKeys.png" width="11px" height="12px" preserveAspectRatio="xMinYMin meet" x="13" y="-557.2"/>
<text text-anchor="start" x="28" y="-547.3" font-family="Helvetica,sans-Serif" font-size="11.00" fill="#000000">Common_CustomerFK</text>
<polygon fill="#ffffff" stroke="transparent" points="8,-518.2 8,-540.2 204,-540.2 204,-518.2 8,-518.2"/>
<polygon fill="none" stroke="#000000" points="8,-518.2 8,-540.2 204,-540.2 204,-518.2 8,-518.2"/>
<image xlink:href="../../images/foreignKeys.png" width="11px" height="12px" preserveAspectRatio="xMinYMin meet" x="13" y="-535.2"/>
<text text-anchor="start" x="28" y="-525.3" font-family="Helvetica,sans-Serif" font-size="11.00" fill="#000000">Common_Dealer2FK</text>
<polygon fill="none" stroke="#000000" points="8,-499.2 8,-518.2 204,-518.2 204,-499.2 8,-499.2"/>
<text text-anchor="start" x="11" y="-505.3" font-family="Helvetica,sans-Serif" font-size="11.00" fill="#000000">...</text>
<polygon fill="#ffffff" stroke="transparent" points="8,-480.2 8,-499.2 81,-499.2 81,-480.2 8,-480.2"/>
<polygon fill="none" stroke="#000000" points="8,-480.2 8,-499.2 81,-499.2 81,-480.2 8,-480.2"/>
<text text-anchor="start" x="11" y="-486.3" font-family="Helvetica,sans-Serif" font-size="11.00" fill="#000000">&lt; 2</text>
<polygon fill="#ffffff" stroke="transparent" points="81,-480.2 81,-499.2 157,-499.2 157,-480.2 81,-480.2"/>
<polygon fill="none" stroke="#000000" points="81,-480.2 81,-499.2 157,-499.2 157,-480.2 81,-480.2"/>
<text text-anchor="start" x="109.3807" y="-486.3" font-family="Helvetica,sans-Serif" font-size="11.00" fill="#000000">389 rows</text>
<polygon fill="#ffffff" stroke="transparent" points="157,-480.2 157,-499.2 204,-499.2 204,-480.2 157,-480.2"/>
<polygon fill="none" stroke="#000000" points="157,-480.2 157,-499.2 204,-499.2 204,-480.2 157,-480.2"/>
<text text-anchor="start" x="185.4053" y="-486.3" font-family="Helvetica,sans-Serif" font-size="11.00" fill="#000000">1 &gt;</text>
</a>
</g>
</g>
<!-- order_saleitem&#45;&gt;order_sale -->
<g id="edge2" class="edge">
<title>order_saleitem:w&#45;&gt;order_sale:e</title>
<path fill="none" stroke="#000000" d="M241.799,-514.7308C224.6358,-529.1761 234.2316,-573.2 204,-573.2"/>
<polygon fill="#000000" stroke="#000000" points="247.9045,-512.7118 256.6303,-513.618 251.7023,-511.4559 255.5,-510.2 255.5,-510.2 255.5,-510.2 251.7023,-511.4559 254.3697,-506.782 247.9045,-512.7118 247.9045,-512.7118"/>
<ellipse fill="none" stroke="#000000" cx="244.8663" cy="-513.7165" rx="3.2" ry="3.2"/>
</g>
</g>
</svg>
