<?xml version="1.0" encoding="UTF-8" standalone="no"?>
<!DOCTYPE svg PUBLIC "-//W3C//DTD SVG 1.1//EN"
 "http://www.w3.org/Graphics/SVG/1.1/DTD/svg11.dtd">
<!-- Generated by graphviz version 2.40.1 (20161225.0304)
 -->
<!-- Title: oneDegreeRelationshipsDiagram Pages: 1 -->
<svg width="290pt" height="624pt"
 viewBox="0.00 0.00 290.00 624.20" xmlns="http://www.w3.org/2000/svg" xmlns:xlink="http://www.w3.org/1999/xlink">
<g id="graph0" class="graph" transform="scale(1 1) rotate(0) translate(4 620.2)">
<title>oneDegreeRelationshipsDiagram</title>
<polygon fill="#ffffff" stroke="transparent" points="-4,4 -4,-620.2 286,-620.2 286,4 -4,4"/>
<text text-anchor="middle" x="72.4936" y="-7.3" font-family="Helvetica,sans-Serif" font-size="11.00" fill="#000000">Generated by SchemaSpy</text>
<!-- order_salereturn -->
<g id="node1" class="node">
<title>order_salereturn</title>
<g id="a_node1"><a xlink:href="../../tables/order_salereturn.html" xlink:title="order_salereturn" target="_top">
<polygon fill="#ffffff" stroke="transparent" points="8,-38.2 8,-612.2 274,-612.2 274,-38.2 8,-38.2"/>
<polygon fill="#f5f5f5" stroke="transparent" points="10,-587.2 10,-610.2 272,-610.2 272,-587.2 10,-587.2"/>
<polygon fill="none" stroke="#000000" points="10,-587.2 10,-610.2 272,-610.2 272,-587.2 10,-587.2"/>
<text text-anchor="start" x="15" y="-595.8" font-family="Helvetica,sans-Serif" font-weight="bold" font-size="11.00" fill="#000000">order_salereturn</text>
<text text-anchor="start" x="237.0437" y="-595.3" font-family="Helvetica,sans-Serif" font-size="11.00" fill="#000000">[table]</text>
<polygon fill="none" stroke="#000000" points="10,-565.2 10,-587.2 161,-587.2 161,-565.2 10,-565.2"/>
<image xlink:href="../../images/primaryKeys.png" width="11px" height="12px" preserveAspectRatio="xMinYMin meet" x="15" y="-582.2"/>
<text text-anchor="start" x="30" y="-572.3" font-family="Helvetica,sans-Serif" font-size="11.00" fill="#000000">ID</text>
<polygon fill="none" stroke="#000000" points="161,-565.2 161,-587.2 272,-587.2 272,-565.2 161,-565.2"/>
<text text-anchor="start" x="164" y="-572.9" font-family="Helvetica,sans-Serif" font-size="11.00" fill="#000000">int[10]</text>
<polygon fill="none" stroke="#000000" points="10,-543.2 10,-565.2 161,-565.2 161,-543.2 10,-543.2"/>
<text text-anchor="start" x="30" y="-550.3" font-family="Helvetica,sans-Serif" font-size="11.00" fill="#000000">Active</text>
<polygon fill="none" stroke="#000000" points="161,-543.2 161,-565.2 272,-565.2 272,-543.2 161,-543.2"/>
<text text-anchor="start" x="164" y="-550.9" font-family="Helvetica,sans-Serif" font-size="11.00" fill="#000000">bit[1]</text>
<polygon fill="none" stroke="#000000" points="10,-521.2 10,-543.2 161,-543.2 161,-521.2 10,-521.2"/>
<text text-anchor="start" x="30" y="-528.3" font-family="Helvetica,sans-Serif" font-size="11.00" fill="#000000">User</text>
<polygon fill="none" stroke="#000000" points="161,-521.2 161,-543.2 272,-543.2 272,-521.2 161,-521.2"/>
<text text-anchor="start" x="163.6115" y="-528.9" font-family="Helvetica,sans-Serif" font-size="11.00" fill="#000000">longtext[2147483647]</text>
<polygon fill="none" stroke="#000000" points="10,-499.2 10,-521.2 161,-521.2 161,-499.2 10,-499.2"/>
<text text-anchor="start" x="30" y="-506.3" font-family="Helvetica,sans-Serif" font-size="11.00" fill="#000000">CD</text>
<polygon fill="none" stroke="#000000" points="161,-499.2 161,-521.2 272,-521.2 272,-499.2 161,-499.2"/>
<text text-anchor="start" x="164" y="-506.9" font-family="Helvetica,sans-Serif" font-size="11.00" fill="#000000">datetime[26]</text>
<polygon fill="none" stroke="#000000" points="10,-477.2 10,-499.2 161,-499.2 161,-477.2 10,-477.2"/>
<text text-anchor="start" x="30" y="-484.3" font-family="Helvetica,sans-Serif" font-size="11.00" fill="#000000">UD</text>
<polygon fill="none" stroke="#000000" points="161,-477.2 161,-499.2 272,-499.2 272,-477.2 161,-477.2"/>
<text text-anchor="start" x="164" y="-484.9" font-family="Helvetica,sans-Serif" font-size="11.00" fill="#000000">datetime[26]</text>
<polygon fill="none" stroke="#000000" points="10,-455.2 10,-477.2 161,-477.2 161,-455.2 10,-455.2"/>
<text text-anchor="start" x="30" y="-462.3" font-family="Helvetica,sans-Serif" font-size="11.00" fill="#000000">Remarks</text>
<polygon fill="none" stroke="#000000" points="161,-455.2 161,-477.2 272,-477.2 272,-455.2 161,-455.2"/>
<text text-anchor="start" x="163.6115" y="-462.9" font-family="Helvetica,sans-Serif" font-size="11.00" fill="#000000">longtext[2147483647]</text>
<polygon fill="none" stroke="#000000" points="10,-433.2 10,-455.2 161,-455.2 161,-433.2 10,-433.2"/>
<text text-anchor="start" x="30" y="-440.3" font-family="Helvetica,sans-Serif" font-size="11.00" fill="#000000">UserID</text>
<polygon fill="none" stroke="#000000" points="161,-433.2 161,-455.2 272,-455.2 272,-433.2 161,-433.2"/>
<text text-anchor="start" x="164" y="-440.9" font-family="Helvetica,sans-Serif" font-size="11.00" fill="#000000">int[10]</text>
<polygon fill="none" stroke="#000000" points="10,-411.2 10,-433.2 161,-433.2 161,-411.2 10,-411.2"/>
<text text-anchor="start" x="30" y="-418.3" font-family="Helvetica,sans-Serif" font-size="11.00" fill="#000000">Code</text>
<polygon fill="none" stroke="#000000" points="161,-411.2 161,-433.2 272,-433.2 272,-411.2 161,-411.2"/>
<text text-anchor="start" x="163.6115" y="-418.9" font-family="Helvetica,sans-Serif" font-size="11.00" fill="#000000">longtext[2147483647]</text>
<polygon fill="none" stroke="#000000" points="10,-389.2 10,-411.2 161,-411.2 161,-389.2 10,-389.2"/>
<text text-anchor="start" x="30" y="-396.3" font-family="Helvetica,sans-Serif" font-size="11.00" fill="#000000">ReturnDate</text>
<polygon fill="none" stroke="#000000" points="161,-389.2 161,-411.2 272,-411.2 272,-389.2 161,-389.2"/>
<text text-anchor="start" x="164" y="-396.9" font-family="Helvetica,sans-Serif" font-size="11.00" fill="#000000">datetime[26]</text>
<polygon fill="none" stroke="#000000" points="10,-367.2 10,-389.2 161,-389.2 161,-367.2 10,-367.2"/>
<text text-anchor="start" x="30" y="-374.3" font-family="Helvetica,sans-Serif" font-size="11.00" fill="#000000">CustomerTypeID</text>
<polygon fill="none" stroke="#000000" points="161,-367.2 161,-389.2 272,-389.2 272,-367.2 161,-367.2"/>
<text text-anchor="start" x="164" y="-374.9" font-family="Helvetica,sans-Serif" font-size="11.00" fill="#000000">int[10]</text>
<polygon fill="none" stroke="#000000" points="10,-345.2 10,-367.2 161,-367.2 161,-345.2 10,-345.2"/>
<text text-anchor="start" x="30" y="-352.3" font-family="Helvetica,sans-Serif" font-size="11.00" fill="#000000">Common_CustomerFK</text>
<polygon fill="none" stroke="#000000" points="161,-345.2 161,-367.2 272,-367.2 272,-345.2 161,-345.2"/>
<text text-anchor="start" x="164" y="-352.9" font-family="Helvetica,sans-Serif" font-size="11.00" fill="#000000">int[10]</text>
<polygon fill="none" stroke="#000000" points="10,-323.2 10,-345.2 161,-345.2 161,-323.2 10,-323.2"/>
<text text-anchor="start" x="30" y="-330.3" font-family="Helvetica,sans-Serif" font-size="11.00" fill="#000000">Order_SaleFK</text>
<polygon fill="none" stroke="#000000" points="161,-323.2 161,-345.2 272,-345.2 272,-323.2 161,-323.2"/>
<text text-anchor="start" x="164" y="-330.9" font-family="Helvetica,sans-Serif" font-size="11.00" fill="#000000">int[10]</text>
<polygon fill="none" stroke="#000000" points="10,-301.2 10,-323.2 161,-323.2 161,-301.2 10,-301.2"/>
<text text-anchor="start" x="30" y="-308.3" font-family="Helvetica,sans-Serif" font-size="11.00" fill="#000000">TotalQty</text>
<polygon fill="none" stroke="#000000" points="161,-301.2 161,-323.2 272,-323.2 272,-301.2 161,-301.2"/>
<text text-anchor="start" x="164" y="-308.9" font-family="Helvetica,sans-Serif" font-size="11.00" fill="#000000">decimal[18,2]</text>
<polygon fill="none" stroke="#000000" points="10,-279.2 10,-301.2 161,-301.2 161,-279.2 10,-279.2"/>
<text text-anchor="start" x="30" y="-286.3" font-family="Helvetica,sans-Serif" font-size="11.00" fill="#000000">ReturnAmount</text>
<polygon fill="none" stroke="#000000" points="161,-279.2 161,-301.2 272,-301.2 272,-279.2 161,-279.2"/>
<text text-anchor="start" x="164" y="-286.9" font-family="Helvetica,sans-Serif" font-size="11.00" fill="#000000">decimal[18,5]</text>
<polygon fill="none" stroke="#000000" points="10,-257.2 10,-279.2 161,-279.2 161,-257.2 10,-257.2"/>
<text text-anchor="start" x="30" y="-264.3" font-family="Helvetica,sans-Serif" font-size="11.00" fill="#000000">CommissionRate</text>
<polygon fill="none" stroke="#000000" points="161,-257.2 161,-279.2 272,-279.2 272,-257.2 161,-257.2"/>
<text text-anchor="start" x="164" y="-264.9" font-family="Helvetica,sans-Serif" font-size="11.00" fill="#000000">decimal[18,5]</text>
<polygon fill="none" stroke="#000000" points="10,-235.2 10,-257.2 161,-257.2 161,-235.2 10,-235.2"/>
<text text-anchor="start" x="30" y="-242.3" font-family="Helvetica,sans-Serif" font-size="11.00" fill="#000000">Commission</text>
<polygon fill="none" stroke="#000000" points="161,-235.2 161,-257.2 272,-257.2 272,-235.2 161,-235.2"/>
<text text-anchor="start" x="164" y="-242.9" font-family="Helvetica,sans-Serif" font-size="11.00" fill="#000000">decimal[18,2]</text>
<polygon fill="none" stroke="#000000" points="10,-213.2 10,-235.2 161,-235.2 161,-213.2 10,-213.2"/>
<text text-anchor="start" x="30" y="-220.3" font-family="Helvetica,sans-Serif" font-size="11.00" fill="#000000">VatAmount</text>
<polygon fill="none" stroke="#000000" points="161,-213.2 161,-235.2 272,-235.2 272,-213.2 161,-213.2"/>
<text text-anchor="start" x="164" y="-220.9" font-family="Helvetica,sans-Serif" font-size="11.00" fill="#000000">decimal[18,5]</text>
<polygon fill="none" stroke="#000000" points="10,-191.2 10,-213.2 161,-213.2 161,-191.2 10,-191.2"/>
<text text-anchor="start" x="30" y="-198.3" font-family="Helvetica,sans-Serif" font-size="11.00" fill="#000000">NetAmount</text>
<polygon fill="none" stroke="#000000" points="161,-191.2 161,-213.2 272,-213.2 272,-191.2 161,-191.2"/>
<text text-anchor="start" x="164" y="-198.9" font-family="Helvetica,sans-Serif" font-size="11.00" fill="#000000">decimal[18,5]</text>
<polygon fill="none" stroke="#000000" points="10,-169.2 10,-191.2 161,-191.2 161,-169.2 10,-169.2"/>
<text text-anchor="start" x="30" y="-176.3" font-family="Helvetica,sans-Serif" font-size="11.00" fill="#000000">TotalAmount</text>
<polygon fill="none" stroke="#000000" points="161,-169.2 161,-191.2 272,-191.2 272,-169.2 161,-169.2"/>
<text text-anchor="start" x="164" y="-176.9" font-family="Helvetica,sans-Serif" font-size="11.00" fill="#000000">decimal[18,5]</text>
<polygon fill="none" stroke="#000000" points="10,-147.2 10,-169.2 161,-169.2 161,-147.2 10,-147.2"/>
<text text-anchor="start" x="30" y="-154.3" font-family="Helvetica,sans-Serif" font-size="11.00" fill="#000000">PaidAmount</text>
<polygon fill="none" stroke="#000000" points="161,-147.2 161,-169.2 272,-169.2 272,-147.2 161,-147.2"/>
<text text-anchor="start" x="164" y="-154.9" font-family="Helvetica,sans-Serif" font-size="11.00" fill="#000000">decimal[18,5]</text>
<polygon fill="none" stroke="#000000" points="10,-125.2 10,-147.2 161,-147.2 161,-125.2 10,-125.2"/>
<text text-anchor="start" x="30" y="-132.3" font-family="Helvetica,sans-Serif" font-size="11.00" fill="#000000">Common_DealerFK</text>
<polygon fill="none" stroke="#000000" points="161,-125.2 161,-147.2 272,-147.2 272,-125.2 161,-125.2"/>
<text text-anchor="start" x="164" y="-132.9" font-family="Helvetica,sans-Serif" font-size="11.00" fill="#000000">int[10]</text>
<polygon fill="none" stroke="#000000" points="10,-103.2 10,-125.2 161,-125.2 161,-103.2 10,-103.2"/>
<text text-anchor="start" x="30" y="-110.3" font-family="Helvetica,sans-Serif" font-size="11.00" fill="#000000">IsConfirmed</text>
<polygon fill="none" stroke="#000000" points="161,-103.2 161,-125.2 272,-125.2 272,-103.2 161,-103.2"/>
<text text-anchor="start" x="164" y="-110.9" font-family="Helvetica,sans-Serif" font-size="11.00" fill="#000000">bit[1]</text>
<polygon fill="none" stroke="#000000" points="10,-81.2 10,-103.2 161,-103.2 161,-81.2 10,-81.2"/>
<text text-anchor="start" x="30" y="-88.3" font-family="Helvetica,sans-Serif" font-size="11.00" fill="#000000">WarehouseFK</text>
<polygon fill="none" stroke="#000000" points="161,-81.2 161,-103.2 272,-103.2 272,-81.2 161,-81.2"/>
<text text-anchor="start" x="164" y="-88.9" font-family="Helvetica,sans-Serif" font-size="11.00" fill="#000000">int[10]</text>
<polygon fill="none" stroke="#000000" points="10,-59.2 10,-81.2 161,-81.2 161,-59.2 10,-59.2"/>
<text text-anchor="start" x="30" y="-66.3" font-family="Helvetica,sans-Serif" font-size="11.00" fill="#000000">Common_ShopFK</text>
<polygon fill="none" stroke="#000000" points="161,-59.2 161,-81.2 272,-81.2 272,-59.2 161,-59.2"/>
<text text-anchor="start" x="164" y="-66.9" font-family="Helvetica,sans-Serif" font-size="11.00" fill="#000000">int[10]</text>
<polygon fill="#ffffff" stroke="transparent" points="10,-40.2 10,-59.2 74,-59.2 74,-40.2 10,-40.2"/>
<polygon fill="none" stroke="#000000" points="10,-40.2 10,-59.2 74,-59.2 74,-40.2 10,-40.2"/>
<text text-anchor="start" x="13" y="-46.3" font-family="Helvetica,sans-Serif" font-size="11.00" fill="#000000">&lt; 0</text>
<polygon fill="#ffffff" stroke="transparent" points="74,-40.2 74,-59.2 161,-59.2 161,-40.2 74,-40.2"/>
<polygon fill="none" stroke="#000000" points="74,-40.2 74,-59.2 161,-59.2 161,-40.2 74,-40.2"/>
<text text-anchor="start" x="119.4956" y="-46.3" font-family="Helvetica,sans-Serif" font-size="11.00" fill="#000000">24 rows</text>
<polygon fill="#ffffff" stroke="transparent" points="161,-40.2 161,-59.2 272,-59.2 272,-40.2 161,-40.2"/>
<polygon fill="none" stroke="#000000" points="161,-40.2 161,-59.2 272,-59.2 272,-40.2 161,-40.2"/>
<text text-anchor="start" x="253.4053" y="-46.3" font-family="Helvetica,sans-Serif" font-size="11.00" fill="#000000">0 &gt;</text>
<polygon fill="none" stroke="#000000" stroke-width="2" points="9,-39.2 9,-611.2 273,-611.2 273,-39.2 9,-39.2"/>
</a>
</g>
</g>
</g>
</svg>
