<?xml version="1.0" encoding="UTF-8" standalone="no"?>
<!DOCTYPE svg PUBLIC "-//W3C//DTD SVG 1.1//EN"
 "http://www.w3.org/Graphics/SVG/1.1/DTD/svg11.dtd">
<!-- Generated by graphviz version 2.40.1 (20161225.0304)
 -->
<!-- Title: twoDegreesRelationshipsDiagram Pages: 1 -->
<svg width="730pt" height="947pt"
 viewBox="0.00 0.00 730.00 946.70" xmlns="http://www.w3.org/2000/svg" xmlns:xlink="http://www.w3.org/1999/xlink">
<g id="graph0" class="graph" transform="scale(1 1) rotate(0) translate(4 942.7)">
<title>twoDegreesRelationshipsDiagram</title>
<polygon fill="#ffffff" stroke="transparent" points="-4,4 -4,-942.7 726,-942.7 726,4 -4,4"/>
<text text-anchor="middle" x="72.4936" y="-7.3" font-family="Helvetica,sans-Serif" font-size="11.00" fill="#000000">Generated by SchemaSpy</text>
<!-- common_dealerproduct -->
<g id="node1" class="node">
<title>common_dealerproduct</title>
<g id="a_node1"><a xlink:href="../../tables/common_dealerproduct.html" xlink:title="common_dealerproduct" target="_top">
<polygon fill="#ffffff" stroke="transparent" points="498.5,-366.2 498.5,-427.2 673.5,-427.2 673.5,-366.2 498.5,-366.2"/>
<polygon fill="#f5f5f5" stroke="transparent" points="499,-403.7 499,-426.7 674,-426.7 674,-403.7 499,-403.7"/>
<polygon fill="none" stroke="#000000" points="499,-403.7 499,-426.7 674,-426.7 674,-403.7 499,-403.7"/>
<text text-anchor="start" x="504" y="-412.3" font-family="Helvetica,sans-Serif" font-weight="bold" font-size="11.00" fill="#000000">common_dealerproduct</text>
<text text-anchor="start" x="639.5219" y="-411.8" font-family="Helvetica,sans-Serif" font-size="11.00" fill="#000000">[table]</text>
<polygon fill="none" stroke="#000000" points="499,-384.7 499,-403.7 674,-403.7 674,-384.7 499,-384.7"/>
<text text-anchor="start" x="502" y="-390.8" font-family="Helvetica,sans-Serif" font-size="11.00" fill="#000000">...</text>
<polygon fill="#ffffff" stroke="transparent" points="499,-365.7 499,-384.7 566,-384.7 566,-365.7 499,-365.7"/>
<polygon fill="none" stroke="#000000" points="499,-365.7 499,-384.7 566,-384.7 566,-365.7 499,-365.7"/>
<text text-anchor="start" x="502" y="-371.8" font-family="Helvetica,sans-Serif" font-size="11.00" fill="#000000">&lt; 2</text>
<polygon fill="#ffffff" stroke="transparent" points="566,-365.7 566,-384.7 639,-384.7 639,-365.7 566,-365.7"/>
<polygon fill="none" stroke="#000000" points="566,-365.7 566,-384.7 639,-384.7 639,-365.7 566,-365.7"/>
<text text-anchor="start" x="591.3807" y="-371.8" font-family="Helvetica,sans-Serif" font-size="11.00" fill="#000000">427 rows</text>
<polygon fill="#ffffff" stroke="transparent" points="639,-365.7 639,-384.7 674,-384.7 674,-365.7 639,-365.7"/>
<polygon fill="none" stroke="#000000" points="639,-365.7 639,-384.7 674,-384.7 674,-365.7 639,-365.7"/>
<text text-anchor="start" x="664.8862" y="-371.8" font-family="Helvetica,sans-Serif" font-size="11.00" fill="#000000"> &#160;</text>
</a>
</g>
</g>
<!-- common_product -->
<g id="node2" class="node">
<title>common_product</title>
<g id="a_node2"><a xlink:href="../../tables/common_product.html" xlink:title="common_product" target="_top">
<polygon fill="#ffffff" stroke="transparent" points="233.5,-178.2 233.5,-305.2 404.5,-305.2 404.5,-178.2 233.5,-178.2"/>
<polygon fill="#f5f5f5" stroke="transparent" points="234,-281.7 234,-304.7 405,-304.7 405,-281.7 234,-281.7"/>
<polygon fill="none" stroke="#000000" points="234,-281.7 234,-304.7 405,-304.7 405,-281.7 234,-281.7"/>
<text text-anchor="start" x="239" y="-290.3" font-family="Helvetica,sans-Serif" font-weight="bold" font-size="11.00" fill="#000000">common_product</text>
<text text-anchor="start" x="370.0437" y="-289.8" font-family="Helvetica,sans-Serif" font-size="11.00" fill="#000000">[table]</text>
<polygon fill="none" stroke="#000000" points="234,-259.7 234,-281.7 405,-281.7 405,-259.7 234,-259.7"/>
<image xlink:href="../../images/primaryKeys.png" width="11px" height="12px" preserveAspectRatio="xMinYMin meet" x="239" y="-276.7"/>
<text text-anchor="start" x="254" y="-266.8" font-family="Helvetica,sans-Serif" font-size="11.00" fill="#000000">ID</text>
<polygon fill="#ffffff" stroke="transparent" points="234,-237.7 234,-259.7 405,-259.7 405,-237.7 234,-237.7"/>
<polygon fill="none" stroke="#000000" points="234,-237.7 234,-259.7 405,-259.7 405,-237.7 234,-237.7"/>
<image xlink:href="../../images/foreignKeys.png" width="11px" height="12px" preserveAspectRatio="xMinYMin meet" x="239" y="-254.7"/>
<text text-anchor="start" x="254" y="-244.8" font-family="Helvetica,sans-Serif" font-size="11.00" fill="#000000">Common_ManufacturerFK</text>
<polygon fill="none" stroke="#000000" points="234,-215.7 234,-237.7 405,-237.7 405,-215.7 234,-215.7"/>
<image xlink:href="../../images/foreignKeys.png" width="11px" height="12px" preserveAspectRatio="xMinYMin meet" x="239" y="-232.7"/>
<text text-anchor="start" x="254" y="-222.8" font-family="Helvetica,sans-Serif" font-size="11.00" fill="#000000">Common_PackTypeID</text>
<polygon fill="none" stroke="#000000" points="234,-196.7 234,-215.7 405,-215.7 405,-196.7 234,-196.7"/>
<text text-anchor="start" x="237" y="-202.8" font-family="Helvetica,sans-Serif" font-size="11.00" fill="#000000">...</text>
<polygon fill="#ffffff" stroke="transparent" points="234,-177.7 234,-196.7 297,-196.7 297,-177.7 234,-177.7"/>
<polygon fill="none" stroke="#000000" points="234,-177.7 234,-196.7 297,-196.7 297,-177.7 234,-177.7"/>
<text text-anchor="start" x="237" y="-183.8" font-family="Helvetica,sans-Serif" font-size="11.00" fill="#000000">&lt; 1</text>
<polygon fill="#ffffff" stroke="transparent" points="297,-177.7 297,-196.7 362,-196.7 362,-177.7 297,-177.7"/>
<polygon fill="none" stroke="#000000" points="297,-177.7 297,-196.7 362,-196.7 362,-177.7 297,-177.7"/>
<text text-anchor="start" x="320.4956" y="-183.8" font-family="Helvetica,sans-Serif" font-size="11.00" fill="#000000">54 rows</text>
<polygon fill="#ffffff" stroke="transparent" points="362,-177.7 362,-196.7 405,-196.7 405,-177.7 362,-177.7"/>
<polygon fill="none" stroke="#000000" points="362,-177.7 362,-196.7 405,-196.7 405,-177.7 362,-177.7"/>
<text text-anchor="start" x="386.4053" y="-183.8" font-family="Helvetica,sans-Serif" font-size="11.00" fill="#000000">6 &gt;</text>
</a>
</g>
</g>
<!-- common_dealerproduct&#45;&gt;common_product -->
<g id="edge1" class="edge">
<title>common_dealerproduct:w&#45;&gt;common_product:e</title>
<path fill="none" stroke="#000000" d="M484.3886,-391.5628C469.2528,-386.382 463.993,-372.3457 450,-355.7 422.4943,-322.98 447.7453,-270.7 405,-270.7"/>
<polygon fill="#000000" stroke="#000000" points="491.0842,-392.5421 498.479,-397.2621 495.0421,-393.1211 499,-393.7 499,-393.7 499,-393.7 495.0421,-393.1211 499.521,-390.1379 491.0842,-392.5421 491.0842,-392.5421"/>
<ellipse fill="none" stroke="#000000" cx="487.9179" cy="-392.079" rx="3.2" ry="3.2"/>
</g>
<!-- common_manufacturer -->
<g id="node3" class="node">
<title>common_manufacturer</title>
<g id="a_node3"><a xlink:href="../../tables/common_manufacturer.html" xlink:title="common_manufacturer" target="_top">
<polygon fill="#ffffff" stroke="transparent" points="8,-221.2 8,-282.2 180,-282.2 180,-221.2 8,-221.2"/>
<polygon fill="#f5f5f5" stroke="transparent" points="8,-258.7 8,-281.7 180,-281.7 180,-258.7 8,-258.7"/>
<polygon fill="none" stroke="#000000" points="8,-258.7 8,-281.7 180,-281.7 180,-258.7 8,-258.7"/>
<text text-anchor="start" x="13" y="-267.3" font-family="Helvetica,sans-Serif" font-weight="bold" font-size="11.00" fill="#000000">common_manufacturer</text>
<text text-anchor="start" x="145.5219" y="-266.8" font-family="Helvetica,sans-Serif" font-size="11.00" fill="#000000">[table]</text>
<polygon fill="none" stroke="#000000" points="8,-239.7 8,-258.7 180,-258.7 180,-239.7 8,-239.7"/>
<text text-anchor="start" x="11" y="-245.8" font-family="Helvetica,sans-Serif" font-size="11.00" fill="#000000">...</text>
<polygon fill="#ffffff" stroke="transparent" points="8,-220.7 8,-239.7 67,-239.7 67,-220.7 8,-220.7"/>
<polygon fill="none" stroke="#000000" points="8,-220.7 8,-239.7 67,-239.7 67,-220.7 8,-220.7"/>
<text text-anchor="start" x="11" y="-226.8" font-family="Helvetica,sans-Serif" font-size="11.00" fill="#000000"> &#160;</text>
<polygon fill="#ffffff" stroke="transparent" points="67,-220.7 67,-239.7 135,-239.7 135,-220.7 67,-220.7"/>
<polygon fill="none" stroke="#000000" points="67,-220.7 67,-239.7 135,-239.7 135,-220.7 67,-220.7"/>
<text text-anchor="start" x="93.4956" y="-226.8" font-family="Helvetica,sans-Serif" font-size="11.00" fill="#000000">33 rows</text>
<polygon fill="#ffffff" stroke="transparent" points="135,-220.7 135,-239.7 180,-239.7 180,-220.7 135,-220.7"/>
<polygon fill="none" stroke="#000000" points="135,-220.7 135,-239.7 180,-239.7 180,-220.7 135,-220.7"/>
<text text-anchor="start" x="161.4053" y="-226.8" font-family="Helvetica,sans-Serif" font-size="11.00" fill="#000000">1 &gt;</text>
</a>
</g>
</g>
<!-- common_product&#45;&gt;common_manufacturer -->
<g id="edge2" class="edge">
<title>common_product:w&#45;&gt;common_manufacturer:e</title>
<path fill="none" stroke="#000000" d="M219.2185,-248.7C206.038,-248.7 198.1875,-248.7 180,-248.7"/>
<polygon fill="#000000" stroke="#000000" points="226,-248.7001 234,-252.3 230,-248.7 234,-248.7 234,-248.7 234,-248.7 230,-248.7 234,-245.1 226,-248.7001 226,-248.7001"/>
<ellipse fill="none" stroke="#000000" cx="222.8" cy="-248.7001" rx="3.2" ry="3.2"/>
</g>
<!-- order_bookingitem -->
<g id="node4" class="node">
<title>order_bookingitem</title>
<g id="a_node4"><a xlink:href="../../tables/order_bookingitem.html" xlink:title="order_bookingitem" target="_top">
<polygon fill="#ffffff" stroke="transparent" points="458,-448.7 458,-934.7 714,-934.7 714,-448.7 458,-448.7"/>
<polygon fill="#f5f5f5" stroke="transparent" points="460,-909.7 460,-932.7 712,-932.7 712,-909.7 460,-909.7"/>
<polygon fill="none" stroke="#000000" points="460,-909.7 460,-932.7 712,-932.7 712,-909.7 460,-909.7"/>
<text text-anchor="start" x="465" y="-918.3" font-family="Helvetica,sans-Serif" font-weight="bold" font-size="11.00" fill="#000000">order_bookingitem</text>
<text text-anchor="start" x="677.0437" y="-917.8" font-family="Helvetica,sans-Serif" font-size="11.00" fill="#000000">[table]</text>
<polygon fill="none" stroke="#000000" points="460,-887.7 460,-909.7 601,-909.7 601,-887.7 460,-887.7"/>
<image xlink:href="../../images/primaryKeys.png" width="11px" height="12px" preserveAspectRatio="xMinYMin meet" x="465" y="-904.7"/>
<text text-anchor="start" x="480" y="-894.8" font-family="Helvetica,sans-Serif" font-size="11.00" fill="#000000">ID</text>
<polygon fill="none" stroke="#000000" points="601,-887.7 601,-909.7 712,-909.7 712,-887.7 601,-887.7"/>
<text text-anchor="start" x="604" y="-895.4" font-family="Helvetica,sans-Serif" font-size="11.00" fill="#000000">int[10]</text>
<polygon fill="none" stroke="#000000" points="460,-865.7 460,-887.7 601,-887.7 601,-865.7 460,-865.7"/>
<text text-anchor="start" x="480" y="-872.8" font-family="Helvetica,sans-Serif" font-size="11.00" fill="#000000">Active</text>
<polygon fill="none" stroke="#000000" points="601,-865.7 601,-887.7 712,-887.7 712,-865.7 601,-865.7"/>
<text text-anchor="start" x="604" y="-873.4" font-family="Helvetica,sans-Serif" font-size="11.00" fill="#000000">bit[1]</text>
<polygon fill="none" stroke="#000000" points="460,-843.7 460,-865.7 601,-865.7 601,-843.7 460,-843.7"/>
<text text-anchor="start" x="480" y="-850.8" font-family="Helvetica,sans-Serif" font-size="11.00" fill="#000000">User</text>
<polygon fill="none" stroke="#000000" points="601,-843.7 601,-865.7 712,-865.7 712,-843.7 601,-843.7"/>
<text text-anchor="start" x="603.6115" y="-851.4" font-family="Helvetica,sans-Serif" font-size="11.00" fill="#000000">longtext[2147483647]</text>
<polygon fill="none" stroke="#000000" points="460,-821.7 460,-843.7 601,-843.7 601,-821.7 460,-821.7"/>
<text text-anchor="start" x="480" y="-828.8" font-family="Helvetica,sans-Serif" font-size="11.00" fill="#000000">CD</text>
<polygon fill="none" stroke="#000000" points="601,-821.7 601,-843.7 712,-843.7 712,-821.7 601,-821.7"/>
<text text-anchor="start" x="604" y="-829.4" font-family="Helvetica,sans-Serif" font-size="11.00" fill="#000000">datetime[26]</text>
<polygon fill="none" stroke="#000000" points="460,-799.7 460,-821.7 601,-821.7 601,-799.7 460,-799.7"/>
<text text-anchor="start" x="480" y="-806.8" font-family="Helvetica,sans-Serif" font-size="11.00" fill="#000000">UD</text>
<polygon fill="none" stroke="#000000" points="601,-799.7 601,-821.7 712,-821.7 712,-799.7 601,-799.7"/>
<text text-anchor="start" x="604" y="-807.4" font-family="Helvetica,sans-Serif" font-size="11.00" fill="#000000">datetime[26]</text>
<polygon fill="none" stroke="#000000" points="460,-777.7 460,-799.7 601,-799.7 601,-777.7 460,-777.7"/>
<text text-anchor="start" x="480" y="-784.8" font-family="Helvetica,sans-Serif" font-size="11.00" fill="#000000">Remarks</text>
<polygon fill="none" stroke="#000000" points="601,-777.7 601,-799.7 712,-799.7 712,-777.7 601,-777.7"/>
<text text-anchor="start" x="603.6115" y="-785.4" font-family="Helvetica,sans-Serif" font-size="11.00" fill="#000000">longtext[2147483647]</text>
<polygon fill="none" stroke="#000000" points="460,-755.7 460,-777.7 601,-777.7 601,-755.7 460,-755.7"/>
<text text-anchor="start" x="480" y="-762.8" font-family="Helvetica,sans-Serif" font-size="11.00" fill="#000000">UserID</text>
<polygon fill="none" stroke="#000000" points="601,-755.7 601,-777.7 712,-777.7 712,-755.7 601,-755.7"/>
<text text-anchor="start" x="604" y="-763.4" font-family="Helvetica,sans-Serif" font-size="11.00" fill="#000000">int[10]</text>
<polygon fill="#ffffff" stroke="transparent" points="460,-733.7 460,-755.7 601,-755.7 601,-733.7 460,-733.7"/>
<polygon fill="none" stroke="#000000" points="460,-733.7 460,-755.7 601,-755.7 601,-733.7 460,-733.7"/>
<image xlink:href="../../images/foreignKeys.png" width="11px" height="12px" preserveAspectRatio="xMinYMin meet" x="465" y="-750.7"/>
<text text-anchor="start" x="480" y="-740.8" font-family="Helvetica,sans-Serif" font-size="11.00" fill="#000000">Order_BookingFK</text>
<polygon fill="none" stroke="#000000" points="601,-733.7 601,-755.7 712,-755.7 712,-733.7 601,-733.7"/>
<text text-anchor="start" x="604" y="-741.4" font-family="Helvetica,sans-Serif" font-size="11.00" fill="#000000">int[10]</text>
<polygon fill="#ffffff" stroke="transparent" points="460,-711.7 460,-733.7 601,-733.7 601,-711.7 460,-711.7"/>
<polygon fill="none" stroke="#000000" points="460,-711.7 460,-733.7 601,-733.7 601,-711.7 460,-711.7"/>
<image xlink:href="../../images/foreignKeys.png" width="11px" height="12px" preserveAspectRatio="xMinYMin meet" x="465" y="-728.7"/>
<text text-anchor="start" x="480" y="-718.8" font-family="Helvetica,sans-Serif" font-size="11.00" fill="#000000">Common_ProductFK</text>
<polygon fill="none" stroke="#000000" points="601,-711.7 601,-733.7 712,-733.7 712,-711.7 601,-711.7"/>
<text text-anchor="start" x="604" y="-719.4" font-family="Helvetica,sans-Serif" font-size="11.00" fill="#000000">int[10]</text>
<polygon fill="none" stroke="#000000" points="460,-689.7 460,-711.7 601,-711.7 601,-689.7 460,-689.7"/>
<text text-anchor="start" x="480" y="-696.8" font-family="Helvetica,sans-Serif" font-size="11.00" fill="#000000">BookingQty</text>
<polygon fill="none" stroke="#000000" points="601,-689.7 601,-711.7 712,-711.7 712,-689.7 601,-689.7"/>
<text text-anchor="start" x="604" y="-697.4" font-family="Helvetica,sans-Serif" font-size="11.00" fill="#000000">int[10]</text>
<polygon fill="none" stroke="#000000" points="460,-667.7 460,-689.7 601,-689.7 601,-667.7 460,-667.7"/>
<text text-anchor="start" x="480" y="-674.8" font-family="Helvetica,sans-Serif" font-size="11.00" fill="#000000">HasInvoice</text>
<polygon fill="none" stroke="#000000" points="601,-667.7 601,-689.7 712,-689.7 712,-667.7 601,-667.7"/>
<text text-anchor="start" x="604" y="-675.4" font-family="Helvetica,sans-Serif" font-size="11.00" fill="#000000">bit[1]</text>
<polygon fill="none" stroke="#000000" points="460,-645.7 460,-667.7 601,-667.7 601,-645.7 460,-645.7"/>
<text text-anchor="start" x="480" y="-652.8" font-family="Helvetica,sans-Serif" font-size="11.00" fill="#000000">HasPartnerInvoice</text>
<polygon fill="none" stroke="#000000" points="601,-645.7 601,-667.7 712,-667.7 712,-645.7 601,-645.7"/>
<text text-anchor="start" x="604" y="-653.4" font-family="Helvetica,sans-Serif" font-size="11.00" fill="#000000">bit[1]</text>
<polygon fill="none" stroke="#000000" points="460,-623.7 460,-645.7 601,-645.7 601,-623.7 460,-623.7"/>
<text text-anchor="start" x="480" y="-630.8" font-family="Helvetica,sans-Serif" font-size="11.00" fill="#000000">RequestedQty</text>
<polygon fill="none" stroke="#000000" points="601,-623.7 601,-645.7 712,-645.7 712,-623.7 601,-623.7"/>
<text text-anchor="start" x="604" y="-631.4" font-family="Helvetica,sans-Serif" font-size="11.00" fill="#000000">int[10]</text>
<polygon fill="none" stroke="#000000" points="460,-601.7 460,-623.7 601,-623.7 601,-601.7 460,-601.7"/>
<text text-anchor="start" x="480" y="-608.8" font-family="Helvetica,sans-Serif" font-size="11.00" fill="#000000">SaleQty</text>
<polygon fill="none" stroke="#000000" points="601,-601.7 601,-623.7 712,-623.7 712,-601.7 601,-601.7"/>
<text text-anchor="start" x="604" y="-609.4" font-family="Helvetica,sans-Serif" font-size="11.00" fill="#000000">int[10]</text>
<polygon fill="none" stroke="#000000" points="460,-579.7 460,-601.7 601,-601.7 601,-579.7 460,-579.7"/>
<text text-anchor="start" x="480" y="-586.8" font-family="Helvetica,sans-Serif" font-size="11.00" fill="#000000">BookedQty</text>
<polygon fill="none" stroke="#000000" points="601,-579.7 601,-601.7 712,-601.7 712,-579.7 601,-579.7"/>
<text text-anchor="start" x="604" y="-587.4" font-family="Helvetica,sans-Serif" font-size="11.00" fill="#000000">int[10]</text>
<polygon fill="none" stroke="#000000" points="460,-557.7 460,-579.7 601,-579.7 601,-557.7 460,-557.7"/>
<text text-anchor="start" x="480" y="-564.8" font-family="Helvetica,sans-Serif" font-size="11.00" fill="#000000">Common_UnitFK</text>
<polygon fill="none" stroke="#000000" points="601,-557.7 601,-579.7 712,-579.7 712,-557.7 601,-557.7"/>
<text text-anchor="start" x="604" y="-565.4" font-family="Helvetica,sans-Serif" font-size="11.00" fill="#000000">int[10]</text>
<polygon fill="none" stroke="#000000" points="460,-535.7 460,-557.7 601,-557.7 601,-535.7 460,-535.7"/>
<text text-anchor="start" x="480" y="-542.8" font-family="Helvetica,sans-Serif" font-size="11.00" fill="#000000">AcceptedQty</text>
<polygon fill="none" stroke="#000000" points="601,-535.7 601,-557.7 712,-557.7 712,-535.7 601,-535.7"/>
<text text-anchor="start" x="604" y="-543.4" font-family="Helvetica,sans-Serif" font-size="11.00" fill="#000000">int[10]</text>
<polygon fill="none" stroke="#000000" points="460,-513.7 460,-535.7 601,-535.7 601,-513.7 460,-513.7"/>
<text text-anchor="start" x="480" y="-520.8" font-family="Helvetica,sans-Serif" font-size="11.00" fill="#000000">Exp_DeliveryDate</text>
<polygon fill="none" stroke="#000000" points="601,-513.7 601,-535.7 712,-535.7 712,-513.7 601,-513.7"/>
<text text-anchor="start" x="604" y="-521.4" font-family="Helvetica,sans-Serif" font-size="11.00" fill="#000000">datetime[26]</text>
<polygon fill="none" stroke="#000000" points="460,-491.7 460,-513.7 601,-513.7 601,-491.7 460,-491.7"/>
<text text-anchor="start" x="480" y="-498.8" font-family="Helvetica,sans-Serif" font-size="11.00" fill="#000000">IsAccepted</text>
<polygon fill="none" stroke="#000000" points="601,-491.7 601,-513.7 712,-513.7 712,-491.7 601,-491.7"/>
<text text-anchor="start" x="604" y="-499.4" font-family="Helvetica,sans-Serif" font-size="11.00" fill="#000000">bit[1]</text>
<polygon fill="none" stroke="#000000" points="460,-469.7 460,-491.7 601,-491.7 601,-469.7 460,-469.7"/>
<text text-anchor="start" x="480" y="-476.8" font-family="Helvetica,sans-Serif" font-size="11.00" fill="#000000">DeliveredQty</text>
<polygon fill="none" stroke="#000000" points="601,-469.7 601,-491.7 712,-491.7 712,-469.7 601,-469.7"/>
<text text-anchor="start" x="604" y="-477.4" font-family="Helvetica,sans-Serif" font-size="11.00" fill="#000000">int[10]</text>
<polygon fill="#ffffff" stroke="transparent" points="460,-450.7 460,-469.7 519,-469.7 519,-450.7 460,-450.7"/>
<polygon fill="none" stroke="#000000" points="460,-450.7 460,-469.7 519,-469.7 519,-450.7 460,-450.7"/>
<text text-anchor="start" x="463" y="-456.8" font-family="Helvetica,sans-Serif" font-size="11.00" fill="#000000">&lt; 2</text>
<polygon fill="#ffffff" stroke="transparent" points="519,-450.7 519,-469.7 601,-469.7 601,-450.7 519,-450.7"/>
<polygon fill="none" stroke="#000000" points="519,-450.7 519,-469.7 601,-469.7 601,-450.7 519,-450.7"/>
<text text-anchor="start" x="559.4956" y="-456.8" font-family="Helvetica,sans-Serif" font-size="11.00" fill="#000000">62 rows</text>
<polygon fill="#ffffff" stroke="transparent" points="601,-450.7 601,-469.7 712,-469.7 712,-450.7 601,-450.7"/>
<polygon fill="none" stroke="#000000" points="601,-450.7 601,-469.7 712,-469.7 712,-450.7 601,-450.7"/>
<text text-anchor="start" x="693.4053" y="-456.8" font-family="Helvetica,sans-Serif" font-size="11.00" fill="#000000">0 &gt;</text>
<polygon fill="none" stroke="#000000" stroke-width="2" points="459,-449.7 459,-933.7 713,-933.7 713,-449.7 459,-449.7"/>
</a>
</g>
</g>
<!-- order_bookingitem&#45;&gt;common_product -->
<g id="edge3" class="edge">
<title>order_bookingitem:w&#45;&gt;common_product:e</title>
<path fill="none" stroke="#000000" d="M445.9929,-719.0617C373.6665,-676.2851 500.8494,-270.7 405,-270.7"/>
<polygon fill="#000000" stroke="#000000" points="452.2569,-720.6887 459.0949,-726.1844 456.1285,-721.6943 460,-722.7 460,-722.7 460,-722.7 456.1285,-721.6943 460.9051,-719.2156 452.2569,-720.6887 452.2569,-720.6887"/>
<ellipse fill="none" stroke="#000000" cx="449.1597" cy="-719.8842" rx="3.2" ry="3.2"/>
</g>
<!-- order_booking -->
<g id="node5" class="node">
<title>order_booking</title>
<g id="a_node5"><a xlink:href="../../tables/order_booking.html" xlink:title="order_booking" target="_top">
<polygon fill="#ffffff" stroke="transparent" points="229,-696.2 229,-779.2 409,-779.2 409,-696.2 229,-696.2"/>
<polygon fill="#f5f5f5" stroke="transparent" points="229,-755.7 229,-778.7 409,-778.7 409,-755.7 229,-755.7"/>
<polygon fill="none" stroke="#000000" points="229,-755.7 229,-778.7 409,-778.7 409,-755.7 229,-755.7"/>
<text text-anchor="start" x="234" y="-764.3" font-family="Helvetica,sans-Serif" font-weight="bold" font-size="11.00" fill="#000000">order_booking</text>
<text text-anchor="start" x="374.0437" y="-763.8" font-family="Helvetica,sans-Serif" font-size="11.00" fill="#000000">[table]</text>
<polygon fill="none" stroke="#000000" points="229,-733.7 229,-755.7 409,-755.7 409,-733.7 229,-733.7"/>
<image xlink:href="../../images/primaryKeys.png" width="11px" height="12px" preserveAspectRatio="xMinYMin meet" x="234" y="-750.7"/>
<text text-anchor="start" x="249" y="-740.8" font-family="Helvetica,sans-Serif" font-size="11.00" fill="#000000">ID</text>
<polygon fill="none" stroke="#000000" points="229,-714.7 229,-733.7 409,-733.7 409,-714.7 229,-714.7"/>
<text text-anchor="start" x="232" y="-720.8" font-family="Helvetica,sans-Serif" font-size="11.00" fill="#000000">...</text>
<polygon fill="#ffffff" stroke="transparent" points="229,-695.7 229,-714.7 292,-714.7 292,-695.7 229,-695.7"/>
<polygon fill="none" stroke="#000000" points="229,-695.7 229,-714.7 292,-714.7 292,-695.7 229,-695.7"/>
<text text-anchor="start" x="232" y="-701.8" font-family="Helvetica,sans-Serif" font-size="11.00" fill="#000000"> &#160;</text>
<polygon fill="#ffffff" stroke="transparent" points="292,-695.7 292,-714.7 362,-714.7 362,-695.7 292,-695.7"/>
<polygon fill="none" stroke="#000000" points="292,-695.7 292,-714.7 362,-714.7 362,-695.7 292,-695.7"/>
<text text-anchor="start" x="320.4956" y="-701.8" font-family="Helvetica,sans-Serif" font-size="11.00" fill="#000000">42 rows</text>
<polygon fill="#ffffff" stroke="transparent" points="362,-695.7 362,-714.7 409,-714.7 409,-695.7 362,-695.7"/>
<polygon fill="none" stroke="#000000" points="362,-695.7 362,-714.7 409,-714.7 409,-695.7 362,-695.7"/>
<text text-anchor="start" x="390.4053" y="-701.8" font-family="Helvetica,sans-Serif" font-size="11.00" fill="#000000">1 &gt;</text>
</a>
</g>
</g>
<!-- order_bookingitem&#45;&gt;order_booking -->
<g id="edge4" class="edge">
<title>order_bookingitem:w&#45;&gt;order_booking:e</title>
<path fill="none" stroke="#000000" d="M445.276,-744.7C433.2815,-744.7 425.8229,-744.7 409,-744.7"/>
<polygon fill="#000000" stroke="#000000" points="452,-744.7001 460,-748.3 456,-744.7 460,-744.7 460,-744.7 460,-744.7 456,-744.7 460,-741.1 452,-744.7001 452,-744.7001"/>
<ellipse fill="none" stroke="#000000" cx="448.8" cy="-744.7001" rx="3.2" ry="3.2"/>
</g>
<!-- order_inventory -->
<g id="node6" class="node">
<title>order_inventory</title>
<g id="a_node6"><a xlink:href="../../tables/order_inventory.html" xlink:title="order_inventory" target="_top">
<polygon fill="#ffffff" stroke="transparent" points="521,-284.2 521,-345.2 651,-345.2 651,-284.2 521,-284.2"/>
<polygon fill="#f5f5f5" stroke="transparent" points="521,-321.7 521,-344.7 651,-344.7 651,-321.7 521,-321.7"/>
<polygon fill="none" stroke="#000000" points="521,-321.7 521,-344.7 651,-344.7 651,-321.7 521,-321.7"/>
<text text-anchor="start" x="526" y="-330.3" font-family="Helvetica,sans-Serif" font-weight="bold" font-size="11.00" fill="#000000">order_inventory</text>
<text text-anchor="start" x="616.5219" y="-329.8" font-family="Helvetica,sans-Serif" font-size="11.00" fill="#000000">[table]</text>
<polygon fill="none" stroke="#000000" points="521,-302.7 521,-321.7 651,-321.7 651,-302.7 521,-302.7"/>
<text text-anchor="start" x="524" y="-308.8" font-family="Helvetica,sans-Serif" font-size="11.00" fill="#000000">...</text>
<polygon fill="#ffffff" stroke="transparent" points="521,-283.7 521,-302.7 565,-302.7 565,-283.7 521,-283.7"/>
<polygon fill="none" stroke="#000000" points="521,-283.7 521,-302.7 565,-302.7 565,-283.7 521,-283.7"/>
<text text-anchor="start" x="524" y="-289.8" font-family="Helvetica,sans-Serif" font-size="11.00" fill="#000000">&lt; 1</text>
<polygon fill="#ffffff" stroke="transparent" points="565,-283.7 565,-302.7 627,-302.7 627,-283.7 565,-283.7"/>
<polygon fill="none" stroke="#000000" points="565,-283.7 565,-302.7 627,-302.7 627,-283.7 565,-283.7"/>
<text text-anchor="start" x="579.3807" y="-289.8" font-family="Helvetica,sans-Serif" font-size="11.00" fill="#000000">136 rows</text>
<polygon fill="#ffffff" stroke="transparent" points="627,-283.7 627,-302.7 651,-302.7 651,-283.7 627,-283.7"/>
<polygon fill="none" stroke="#000000" points="627,-283.7 627,-302.7 651,-302.7 651,-283.7 627,-283.7"/>
<text text-anchor="start" x="641.8862" y="-289.8" font-family="Helvetica,sans-Serif" font-size="11.00" fill="#000000"> &#160;</text>
</a>
</g>
</g>
<!-- order_inventory&#45;&gt;common_product -->
<g id="edge5" class="edge">
<title>order_inventory:w&#45;&gt;common_product:e</title>
<path fill="none" stroke="#000000" d="M506.5364,-310.6453C464.6083,-304.2279 454.448,-270.7 405,-270.7"/>
<polygon fill="#000000" stroke="#000000" points="513.0212,-311.1181 520.7382,-315.2905 517.0106,-311.4091 521,-311.7 521,-311.7 521,-311.7 517.0106,-311.4091 521.2618,-308.1095 513.0212,-311.1181 513.0212,-311.1181"/>
<ellipse fill="none" stroke="#000000" cx="509.8297" cy="-310.8854" rx="3.2" ry="3.2"/>
</g>
<!-- order_itemserialno -->
<g id="node7" class="node">
<title>order_itemserialno</title>
<g id="a_node7"><a xlink:href="../../tables/order_itemserialno.html" xlink:title="order_itemserialno" target="_top">
<polygon fill="#ffffff" stroke="transparent" points="512.5,-202.2 512.5,-263.2 659.5,-263.2 659.5,-202.2 512.5,-202.2"/>
<polygon fill="#f5f5f5" stroke="transparent" points="513,-239.7 513,-262.7 660,-262.7 660,-239.7 513,-239.7"/>
<polygon fill="none" stroke="#000000" points="513,-239.7 513,-262.7 660,-262.7 660,-239.7 513,-239.7"/>
<text text-anchor="start" x="518" y="-248.3" font-family="Helvetica,sans-Serif" font-weight="bold" font-size="11.00" fill="#000000">order_itemserialno</text>
<text text-anchor="start" x="625.5219" y="-247.8" font-family="Helvetica,sans-Serif" font-size="11.00" fill="#000000">[table]</text>
<polygon fill="none" stroke="#000000" points="513,-220.7 513,-239.7 660,-239.7 660,-220.7 513,-220.7"/>
<text text-anchor="start" x="516" y="-226.8" font-family="Helvetica,sans-Serif" font-size="11.00" fill="#000000">...</text>
<polygon fill="#ffffff" stroke="transparent" points="513,-201.7 513,-220.7 554,-220.7 554,-201.7 513,-201.7"/>
<polygon fill="none" stroke="#000000" points="513,-201.7 513,-220.7 554,-220.7 554,-201.7 513,-201.7"/>
<text text-anchor="start" x="516" y="-207.8" font-family="Helvetica,sans-Serif" font-size="11.00" fill="#000000">&lt; 2</text>
<polygon fill="#ffffff" stroke="transparent" points="554,-201.7 554,-220.7 629,-220.7 629,-201.7 554,-201.7"/>
<polygon fill="none" stroke="#000000" points="554,-201.7 554,-220.7 629,-220.7 629,-201.7 554,-201.7"/>
<text text-anchor="start" x="566.094" y="-207.8" font-family="Helvetica,sans-Serif" font-size="11.00" fill="#000000">19,002 rows</text>
<polygon fill="#ffffff" stroke="transparent" points="629,-201.7 629,-220.7 660,-220.7 660,-201.7 629,-201.7"/>
<polygon fill="none" stroke="#000000" points="629,-201.7 629,-220.7 660,-220.7 660,-201.7 629,-201.7"/>
<text text-anchor="start" x="641.4053" y="-207.8" font-family="Helvetica,sans-Serif" font-size="11.00" fill="#000000">1 &gt;</text>
</a>
</g>
</g>
<!-- order_itemserialno&#45;&gt;common_product -->
<g id="edge6" class="edge">
<title>order_itemserialno:w&#45;&gt;common_product:e</title>
<path fill="none" stroke="#000000" d="M498.4333,-230.927C460.0639,-237.7489 451.0277,-270.7 405,-270.7"/>
<polygon fill="#000000" stroke="#000000" points="505.0282,-230.3716 513.3022,-233.2873 509.0141,-230.0358 513,-229.7 513,-229.7 513,-229.7 509.0141,-230.0358 512.6978,-226.1127 505.0282,-230.3716 505.0282,-230.3716"/>
<ellipse fill="none" stroke="#000000" cx="501.8395" cy="-230.6402" rx="3.2" ry="3.2"/>
</g>
<!-- order_receiveitem -->
<g id="node8" class="node">
<title>order_receiveitem</title>
<g id="a_node8"><a xlink:href="../../tables/order_receiveitem.html" xlink:title="order_receiveitem" target="_top">
<polygon fill="#ffffff" stroke="transparent" points="515,-120.2 515,-181.2 657,-181.2 657,-120.2 515,-120.2"/>
<polygon fill="#f5f5f5" stroke="transparent" points="515,-157.7 515,-180.7 657,-180.7 657,-157.7 515,-157.7"/>
<polygon fill="none" stroke="#000000" points="515,-157.7 515,-180.7 657,-180.7 657,-157.7 515,-157.7"/>
<text text-anchor="start" x="520" y="-166.3" font-family="Helvetica,sans-Serif" font-weight="bold" font-size="11.00" fill="#000000">order_receiveitem</text>
<text text-anchor="start" x="622.5219" y="-165.8" font-family="Helvetica,sans-Serif" font-size="11.00" fill="#000000">[table]</text>
<polygon fill="none" stroke="#000000" points="515,-138.7 515,-157.7 657,-157.7 657,-138.7 515,-138.7"/>
<text text-anchor="start" x="518" y="-144.8" font-family="Helvetica,sans-Serif" font-size="11.00" fill="#000000">...</text>
<polygon fill="#ffffff" stroke="transparent" points="515,-119.7 515,-138.7 558,-138.7 558,-119.7 515,-119.7"/>
<polygon fill="none" stroke="#000000" points="515,-119.7 515,-138.7 558,-138.7 558,-119.7 515,-119.7"/>
<text text-anchor="start" x="518" y="-125.8" font-family="Helvetica,sans-Serif" font-size="11.00" fill="#000000">&lt; 2</text>
<polygon fill="#ffffff" stroke="transparent" points="558,-119.7 558,-138.7 634,-138.7 634,-119.7 558,-119.7"/>
<polygon fill="none" stroke="#000000" points="558,-119.7 558,-138.7 634,-138.7 634,-119.7 558,-119.7"/>
<text text-anchor="start" x="571.094" y="-125.8" font-family="Helvetica,sans-Serif" font-size="11.00" fill="#000000">18,922 rows</text>
<polygon fill="#ffffff" stroke="transparent" points="634,-119.7 634,-138.7 657,-138.7 657,-119.7 634,-119.7"/>
<polygon fill="none" stroke="#000000" points="634,-119.7 634,-138.7 657,-138.7 657,-119.7 634,-119.7"/>
<text text-anchor="start" x="647.8862" y="-125.8" font-family="Helvetica,sans-Serif" font-size="11.00" fill="#000000"> &#160;</text>
</a>
</g>
</g>
<!-- order_receiveitem&#45;&gt;common_product -->
<g id="edge7" class="edge">
<title>order_receiveitem:w&#45;&gt;common_product:e</title>
<path fill="none" stroke="#000000" d="M500.558,-149.0048C477.6871,-153.6252 469.9937,-170.0981 450,-191.7 422.5526,-221.3552 445.4078,-270.7 405,-270.7"/>
<polygon fill="#000000" stroke="#000000" points="507.0325,-148.4199 515.324,-151.2854 511.0162,-148.0599 515,-147.7 515,-147.7 515,-147.7 511.0162,-148.0599 514.676,-144.1146 507.0325,-148.4199 507.0325,-148.4199"/>
<ellipse fill="none" stroke="#000000" cx="503.8454" cy="-148.7079" rx="3.2" ry="3.2"/>
</g>
<!-- order_saleitem -->
<g id="node9" class="node">
<title>order_saleitem</title>
<g id="a_node9"><a xlink:href="../../tables/order_saleitem.html" xlink:title="order_saleitem" target="_top">
<polygon fill="#ffffff" stroke="transparent" points="524,-38.2 524,-99.2 648,-99.2 648,-38.2 524,-38.2"/>
<polygon fill="#f5f5f5" stroke="transparent" points="524,-75.7 524,-98.7 648,-98.7 648,-75.7 524,-75.7"/>
<polygon fill="none" stroke="#000000" points="524,-75.7 524,-98.7 648,-98.7 648,-75.7 524,-75.7"/>
<text text-anchor="start" x="529" y="-84.3" font-family="Helvetica,sans-Serif" font-weight="bold" font-size="11.00" fill="#000000">order_saleitem</text>
<text text-anchor="start" x="613.5219" y="-83.8" font-family="Helvetica,sans-Serif" font-size="11.00" fill="#000000">[table]</text>
<polygon fill="none" stroke="#000000" points="524,-56.7 524,-75.7 648,-75.7 648,-56.7 524,-56.7"/>
<text text-anchor="start" x="527" y="-62.8" font-family="Helvetica,sans-Serif" font-size="11.00" fill="#000000">...</text>
<polygon fill="#ffffff" stroke="transparent" points="524,-37.7 524,-56.7 565,-56.7 565,-37.7 524,-37.7"/>
<polygon fill="none" stroke="#000000" points="524,-37.7 524,-56.7 565,-56.7 565,-37.7 524,-37.7"/>
<text text-anchor="start" x="527" y="-43.8" font-family="Helvetica,sans-Serif" font-size="11.00" fill="#000000">&lt; 2</text>
<polygon fill="#ffffff" stroke="transparent" points="565,-37.7 565,-56.7 625,-56.7 625,-37.7 565,-37.7"/>
<polygon fill="none" stroke="#000000" points="565,-37.7 565,-56.7 625,-56.7 625,-37.7 565,-37.7"/>
<text text-anchor="start" x="577.3807" y="-43.8" font-family="Helvetica,sans-Serif" font-size="11.00" fill="#000000">659 rows</text>
<polygon fill="#ffffff" stroke="transparent" points="625,-37.7 625,-56.7 648,-56.7 648,-37.7 625,-37.7"/>
<polygon fill="none" stroke="#000000" points="625,-37.7 625,-56.7 648,-56.7 648,-37.7 625,-37.7"/>
<text text-anchor="start" x="638.8862" y="-43.8" font-family="Helvetica,sans-Serif" font-size="11.00" fill="#000000"> &#160;</text>
</a>
</g>
</g>
<!-- order_saleitem&#45;&gt;common_product -->
<g id="edge8" class="edge">
<title>order_saleitem:w&#45;&gt;common_product:e</title>
<path fill="none" stroke="#000000" d="M509.2858,-66.5167C482.0146,-69.8619 469.9905,-83.5915 450,-109.7 404.8318,-168.6918 479.298,-270.7 405,-270.7"/>
<polygon fill="#000000" stroke="#000000" points="516.0123,-66.1434 524.1995,-69.2945 520.0061,-65.9217 524,-65.7 524,-65.7 524,-65.7 520.0061,-65.9217 523.8005,-62.1055 516.0123,-66.1434 516.0123,-66.1434"/>
<ellipse fill="none" stroke="#000000" cx="512.8172" cy="-66.3208" rx="3.2" ry="3.2"/>
</g>
</g>
</svg>
