<?xml version="1.0" encoding="UTF-8" standalone="no"?>
<!DOCTYPE svg PUBLIC "-//W3C//DTD SVG 1.1//EN"
 "http://www.w3.org/Graphics/SVG/1.1/DTD/svg11.dtd">
<!-- Generated by graphviz version 2.40.1 (20161225.0304)
 -->
<!-- Title: twoDegreesRelationshipsDiagram Pages: 1 -->
<svg width="515pt" height="729pt"
 viewBox="0.00 0.00 515.00 728.70" xmlns="http://www.w3.org/2000/svg" xmlns:xlink="http://www.w3.org/1999/xlink">
<g id="graph0" class="graph" transform="scale(1 1) rotate(0) translate(4 724.7)">
<title>twoDegreesRelationshipsDiagram</title>
<polygon fill="#ffffff" stroke="transparent" points="-4,4 -4,-724.7 511,-724.7 511,4 -4,4"/>
<text text-anchor="middle" x="72.4936" y="-7.3" font-family="Helvetica,sans-Serif" font-size="11.00" fill="#000000">Generated by SchemaSpy</text>
<!-- order_bookingitem -->
<g id="node1" class="node">
<title>order_bookingitem</title>
<g id="a_node1"><a xlink:href="../../tables/order_bookingitem.html" xlink:title="order_bookingitem" target="_top">
<polygon fill="#ffffff" stroke="transparent" points="352,-313.2 352,-440.2 499,-440.2 499,-313.2 352,-313.2"/>
<polygon fill="#f5f5f5" stroke="transparent" points="352.5,-416.7 352.5,-439.7 499.5,-439.7 499.5,-416.7 352.5,-416.7"/>
<polygon fill="none" stroke="#000000" points="352.5,-416.7 352.5,-439.7 499.5,-439.7 499.5,-416.7 352.5,-416.7"/>
<text text-anchor="start" x="357.5" y="-425.3" font-family="Helvetica,sans-Serif" font-weight="bold" font-size="11.00" fill="#000000">order_bookingitem</text>
<text text-anchor="start" x="465.0219" y="-424.8" font-family="Helvetica,sans-Serif" font-size="11.00" fill="#000000">[table]</text>
<polygon fill="none" stroke="#000000" points="352.5,-394.7 352.5,-416.7 499.5,-416.7 499.5,-394.7 352.5,-394.7"/>
<image xlink:href="../../images/primaryKeys.png" width="11px" height="12px" preserveAspectRatio="xMinYMin meet" x="357.5" y="-411.7"/>
<text text-anchor="start" x="375.5" y="-401.8" font-family="Helvetica,sans-Serif" font-size="11.00" fill="#000000">ID</text>
<polygon fill="#ffffff" stroke="transparent" points="352.5,-372.7 352.5,-394.7 499.5,-394.7 499.5,-372.7 352.5,-372.7"/>
<polygon fill="none" stroke="#000000" points="352.5,-372.7 352.5,-394.7 499.5,-394.7 499.5,-372.7 352.5,-372.7"/>
<image xlink:href="../../images/foreignKeys.png" width="11px" height="12px" preserveAspectRatio="xMinYMin meet" x="357.5" y="-389.7"/>
<text text-anchor="start" x="375.5" y="-379.8" font-family="Helvetica,sans-Serif" font-size="11.00" fill="#000000">Order_BookingFK</text>
<polygon fill="#ffffff" stroke="transparent" points="352.5,-350.7 352.5,-372.7 499.5,-372.7 499.5,-350.7 352.5,-350.7"/>
<polygon fill="none" stroke="#000000" points="352.5,-350.7 352.5,-372.7 499.5,-372.7 499.5,-350.7 352.5,-350.7"/>
<image xlink:href="../../images/foreignKeys.png" width="11px" height="12px" preserveAspectRatio="xMinYMin meet" x="357.5" y="-367.7"/>
<text text-anchor="start" x="375.5" y="-357.8" font-family="Helvetica,sans-Serif" font-size="11.00" fill="#000000">Common_ProductFK</text>
<polygon fill="none" stroke="#000000" points="352.5,-331.7 352.5,-350.7 499.5,-350.7 499.5,-331.7 352.5,-331.7"/>
<text text-anchor="start" x="355.5" y="-337.8" font-family="Helvetica,sans-Serif" font-size="11.00" fill="#000000">...</text>
<polygon fill="#ffffff" stroke="transparent" points="352.5,-312.7 352.5,-331.7 408.5,-331.7 408.5,-312.7 352.5,-312.7"/>
<polygon fill="none" stroke="#000000" points="352.5,-312.7 352.5,-331.7 408.5,-331.7 408.5,-312.7 352.5,-312.7"/>
<text text-anchor="start" x="355.5" y="-318.8" font-family="Helvetica,sans-Serif" font-size="11.00" fill="#000000">&lt; 2</text>
<polygon fill="#ffffff" stroke="transparent" points="408.5,-312.7 408.5,-331.7 469.5,-331.7 469.5,-312.7 408.5,-312.7"/>
<polygon fill="none" stroke="#000000" points="408.5,-312.7 408.5,-331.7 469.5,-331.7 469.5,-312.7 408.5,-312.7"/>
<text text-anchor="start" x="427.9956" y="-318.8" font-family="Helvetica,sans-Serif" font-size="11.00" fill="#000000">62 rows</text>
<polygon fill="#ffffff" stroke="transparent" points="469.5,-312.7 469.5,-331.7 499.5,-331.7 499.5,-312.7 469.5,-312.7"/>
<polygon fill="none" stroke="#000000" points="469.5,-312.7 469.5,-331.7 499.5,-331.7 499.5,-312.7 469.5,-312.7"/>
<text text-anchor="start" x="490.3862" y="-318.8" font-family="Helvetica,sans-Serif" font-size="11.00" fill="#000000"> &#160;</text>
</a>
</g>
</g>
<!-- common_product -->
<g id="node2" class="node">
<title>common_product</title>
<g id="a_node2"><a xlink:href="../../tables/common_product.html" xlink:title="common_product" target="_top">
<polygon fill="#ffffff" stroke="transparent" points="85.5,-38.2 85.5,-99.2 225.5,-99.2 225.5,-38.2 85.5,-38.2"/>
<polygon fill="#f5f5f5" stroke="transparent" points="85.5,-75.7 85.5,-98.7 225.5,-98.7 225.5,-75.7 85.5,-75.7"/>
<polygon fill="none" stroke="#000000" points="85.5,-75.7 85.5,-98.7 225.5,-98.7 225.5,-75.7 85.5,-75.7"/>
<text text-anchor="start" x="90.5" y="-84.3" font-family="Helvetica,sans-Serif" font-weight="bold" font-size="11.00" fill="#000000">common_product</text>
<text text-anchor="start" x="191.0219" y="-83.8" font-family="Helvetica,sans-Serif" font-size="11.00" fill="#000000">[table]</text>
<polygon fill="none" stroke="#000000" points="85.5,-56.7 85.5,-75.7 225.5,-75.7 225.5,-56.7 85.5,-56.7"/>
<text text-anchor="start" x="88.5" y="-62.8" font-family="Helvetica,sans-Serif" font-size="11.00" fill="#000000">...</text>
<polygon fill="#ffffff" stroke="transparent" points="85.5,-37.7 85.5,-56.7 133.5,-56.7 133.5,-37.7 85.5,-37.7"/>
<polygon fill="none" stroke="#000000" points="85.5,-37.7 85.5,-56.7 133.5,-56.7 133.5,-37.7 85.5,-37.7"/>
<text text-anchor="start" x="88.5" y="-43.8" font-family="Helvetica,sans-Serif" font-size="11.00" fill="#000000">&lt; 1</text>
<polygon fill="#ffffff" stroke="transparent" points="133.5,-37.7 133.5,-56.7 190.5,-56.7 190.5,-37.7 133.5,-37.7"/>
<polygon fill="none" stroke="#000000" points="133.5,-37.7 133.5,-56.7 190.5,-56.7 190.5,-37.7 133.5,-37.7"/>
<text text-anchor="start" x="148.9956" y="-43.8" font-family="Helvetica,sans-Serif" font-size="11.00" fill="#000000">54 rows</text>
<polygon fill="#ffffff" stroke="transparent" points="190.5,-37.7 190.5,-56.7 225.5,-56.7 225.5,-37.7 190.5,-37.7"/>
<polygon fill="none" stroke="#000000" points="190.5,-37.7 190.5,-56.7 225.5,-56.7 225.5,-37.7 190.5,-37.7"/>
<text text-anchor="start" x="206.9053" y="-43.8" font-family="Helvetica,sans-Serif" font-size="11.00" fill="#000000">6 &gt;</text>
</a>
</g>
</g>
<!-- order_bookingitem&#45;&gt;common_product -->
<g id="edge1" class="edge">
<title>order_bookingitem:w&#45;&gt;common_product:e</title>
<path fill="none" stroke="#000000" d="M338.7141,-356.1441C304.4673,-322.9704 341.1451,-151.0996 311,-109.7 285.8437,-75.1518 268.2366,-65.7 225.5,-65.7"/>
<polygon fill="#000000" stroke="#000000" points="345.0799,-358.7096 351.1543,-365.039 348.79,-360.2048 352.5,-361.7 352.5,-361.7 352.5,-361.7 348.79,-360.2048 353.8457,-358.361 345.0799,-358.7096 345.0799,-358.7096"/>
<ellipse fill="none" stroke="#000000" cx="342.1119" cy="-357.5134" rx="3.2" ry="3.2"/>
</g>
<!-- order_booking -->
<g id="node3" class="node">
<title>order_booking</title>
<g id="a_node3"><a xlink:href="../../tables/order_booking.html" xlink:title="order_booking" target="_top">
<polygon fill="#ffffff" stroke="transparent" points="8,-120.7 8,-716.7 303,-716.7 303,-120.7 8,-120.7"/>
<polygon fill="#f5f5f5" stroke="transparent" points="10.5,-691.7 10.5,-714.7 301.5,-714.7 301.5,-691.7 10.5,-691.7"/>
<polygon fill="none" stroke="#000000" points="10.5,-691.7 10.5,-714.7 301.5,-714.7 301.5,-691.7 10.5,-691.7"/>
<text text-anchor="start" x="15.5" y="-700.3" font-family="Helvetica,sans-Serif" font-weight="bold" font-size="11.00" fill="#000000">order_booking</text>
<text text-anchor="start" x="266.5437" y="-699.8" font-family="Helvetica,sans-Serif" font-size="11.00" fill="#000000">[table]</text>
<polygon fill="none" stroke="#000000" points="10.5,-669.7 10.5,-691.7 190.5,-691.7 190.5,-669.7 10.5,-669.7"/>
<image xlink:href="../../images/primaryKeys.png" width="11px" height="12px" preserveAspectRatio="xMinYMin meet" x="15.5" y="-686.7"/>
<text text-anchor="start" x="30.5" y="-676.8" font-family="Helvetica,sans-Serif" font-size="11.00" fill="#000000">ID</text>
<polygon fill="none" stroke="#000000" points="190.5,-669.7 190.5,-691.7 301.5,-691.7 301.5,-669.7 190.5,-669.7"/>
<text text-anchor="start" x="193.5" y="-677.4" font-family="Helvetica,sans-Serif" font-size="11.00" fill="#000000">int[10]</text>
<polygon fill="none" stroke="#000000" points="10.5,-647.7 10.5,-669.7 190.5,-669.7 190.5,-647.7 10.5,-647.7"/>
<text text-anchor="start" x="30.5" y="-654.8" font-family="Helvetica,sans-Serif" font-size="11.00" fill="#000000">Active</text>
<polygon fill="none" stroke="#000000" points="190.5,-647.7 190.5,-669.7 301.5,-669.7 301.5,-647.7 190.5,-647.7"/>
<text text-anchor="start" x="193.5" y="-655.4" font-family="Helvetica,sans-Serif" font-size="11.00" fill="#000000">bit[1]</text>
<polygon fill="none" stroke="#000000" points="10.5,-625.7 10.5,-647.7 190.5,-647.7 190.5,-625.7 10.5,-625.7"/>
<text text-anchor="start" x="30.5" y="-632.8" font-family="Helvetica,sans-Serif" font-size="11.00" fill="#000000">User</text>
<polygon fill="none" stroke="#000000" points="190.5,-625.7 190.5,-647.7 301.5,-647.7 301.5,-625.7 190.5,-625.7"/>
<text text-anchor="start" x="193.1115" y="-633.4" font-family="Helvetica,sans-Serif" font-size="11.00" fill="#000000">longtext[2147483647]</text>
<polygon fill="none" stroke="#000000" points="10.5,-603.7 10.5,-625.7 190.5,-625.7 190.5,-603.7 10.5,-603.7"/>
<text text-anchor="start" x="30.5" y="-610.8" font-family="Helvetica,sans-Serif" font-size="11.00" fill="#000000">CD</text>
<polygon fill="none" stroke="#000000" points="190.5,-603.7 190.5,-625.7 301.5,-625.7 301.5,-603.7 190.5,-603.7"/>
<text text-anchor="start" x="193.5" y="-611.4" font-family="Helvetica,sans-Serif" font-size="11.00" fill="#000000">datetime[26]</text>
<polygon fill="none" stroke="#000000" points="10.5,-581.7 10.5,-603.7 190.5,-603.7 190.5,-581.7 10.5,-581.7"/>
<text text-anchor="start" x="30.5" y="-588.8" font-family="Helvetica,sans-Serif" font-size="11.00" fill="#000000">UD</text>
<polygon fill="none" stroke="#000000" points="190.5,-581.7 190.5,-603.7 301.5,-603.7 301.5,-581.7 190.5,-581.7"/>
<text text-anchor="start" x="193.5" y="-589.4" font-family="Helvetica,sans-Serif" font-size="11.00" fill="#000000">datetime[26]</text>
<polygon fill="none" stroke="#000000" points="10.5,-559.7 10.5,-581.7 190.5,-581.7 190.5,-559.7 10.5,-559.7"/>
<text text-anchor="start" x="30.5" y="-566.8" font-family="Helvetica,sans-Serif" font-size="11.00" fill="#000000">Remarks</text>
<polygon fill="none" stroke="#000000" points="190.5,-559.7 190.5,-581.7 301.5,-581.7 301.5,-559.7 190.5,-559.7"/>
<text text-anchor="start" x="193.1115" y="-567.4" font-family="Helvetica,sans-Serif" font-size="11.00" fill="#000000">longtext[2147483647]</text>
<polygon fill="none" stroke="#000000" points="10.5,-537.7 10.5,-559.7 190.5,-559.7 190.5,-537.7 10.5,-537.7"/>
<text text-anchor="start" x="30.5" y="-544.8" font-family="Helvetica,sans-Serif" font-size="11.00" fill="#000000">UserID</text>
<polygon fill="none" stroke="#000000" points="190.5,-537.7 190.5,-559.7 301.5,-559.7 301.5,-537.7 190.5,-537.7"/>
<text text-anchor="start" x="193.5" y="-545.4" font-family="Helvetica,sans-Serif" font-size="11.00" fill="#000000">int[10]</text>
<polygon fill="none" stroke="#000000" points="10.5,-515.7 10.5,-537.7 190.5,-537.7 190.5,-515.7 10.5,-515.7"/>
<text text-anchor="start" x="30.5" y="-522.8" font-family="Helvetica,sans-Serif" font-size="11.00" fill="#000000">Code</text>
<polygon fill="none" stroke="#000000" points="190.5,-515.7 190.5,-537.7 301.5,-537.7 301.5,-515.7 190.5,-515.7"/>
<text text-anchor="start" x="193.1115" y="-523.4" font-family="Helvetica,sans-Serif" font-size="11.00" fill="#000000">longtext[2147483647]</text>
<polygon fill="none" stroke="#000000" points="10.5,-493.7 10.5,-515.7 190.5,-515.7 190.5,-493.7 10.5,-493.7"/>
<text text-anchor="start" x="30.5" y="-500.8" font-family="Helvetica,sans-Serif" font-size="11.00" fill="#000000">Common_CustomerFK</text>
<polygon fill="none" stroke="#000000" points="190.5,-493.7 190.5,-515.7 301.5,-515.7 301.5,-493.7 190.5,-493.7"/>
<text text-anchor="start" x="193.5" y="-501.4" font-family="Helvetica,sans-Serif" font-size="11.00" fill="#000000">int[10]</text>
<polygon fill="none" stroke="#000000" points="10.5,-471.7 10.5,-493.7 190.5,-493.7 190.5,-471.7 10.5,-471.7"/>
<text text-anchor="start" x="30.5" y="-478.8" font-family="Helvetica,sans-Serif" font-size="11.00" fill="#000000">Common_BookingStatusFK</text>
<polygon fill="none" stroke="#000000" points="190.5,-471.7 190.5,-493.7 301.5,-493.7 301.5,-471.7 190.5,-471.7"/>
<text text-anchor="start" x="193.5" y="-479.4" font-family="Helvetica,sans-Serif" font-size="11.00" fill="#000000">int[10]</text>
<polygon fill="none" stroke="#000000" points="10.5,-449.7 10.5,-471.7 190.5,-471.7 190.5,-449.7 10.5,-449.7"/>
<text text-anchor="start" x="30.5" y="-456.8" font-family="Helvetica,sans-Serif" font-size="11.00" fill="#000000">BookingDate</text>
<polygon fill="none" stroke="#000000" points="190.5,-449.7 190.5,-471.7 301.5,-471.7 301.5,-449.7 190.5,-449.7"/>
<text text-anchor="start" x="193.5" y="-457.4" font-family="Helvetica,sans-Serif" font-size="11.00" fill="#000000">datetime[26]</text>
<polygon fill="none" stroke="#000000" points="10.5,-427.7 10.5,-449.7 190.5,-449.7 190.5,-427.7 10.5,-427.7"/>
<text text-anchor="start" x="30.5" y="-434.8" font-family="Helvetica,sans-Serif" font-size="11.00" fill="#000000">BookingExpireDate</text>
<polygon fill="none" stroke="#000000" points="190.5,-427.7 190.5,-449.7 301.5,-449.7 301.5,-427.7 190.5,-427.7"/>
<text text-anchor="start" x="193.5" y="-435.4" font-family="Helvetica,sans-Serif" font-size="11.00" fill="#000000">datetime[26]</text>
<polygon fill="none" stroke="#000000" points="10.5,-405.7 10.5,-427.7 190.5,-427.7 190.5,-405.7 10.5,-405.7"/>
<text text-anchor="start" x="30.5" y="-412.8" font-family="Helvetica,sans-Serif" font-size="11.00" fill="#000000">ApprovalStatusID</text>
<polygon fill="none" stroke="#000000" points="190.5,-405.7 190.5,-427.7 301.5,-427.7 301.5,-405.7 190.5,-405.7"/>
<text text-anchor="start" x="193.5" y="-413.4" font-family="Helvetica,sans-Serif" font-size="11.00" fill="#000000">int[10]</text>
<polygon fill="none" stroke="#000000" points="10.5,-383.7 10.5,-405.7 190.5,-405.7 190.5,-383.7 10.5,-383.7"/>
<text text-anchor="start" x="30.5" y="-390.8" font-family="Helvetica,sans-Serif" font-size="11.00" fill="#000000">Common_DealerFK</text>
<polygon fill="none" stroke="#000000" points="190.5,-383.7 190.5,-405.7 301.5,-405.7 301.5,-383.7 190.5,-383.7"/>
<text text-anchor="start" x="193.5" y="-391.4" font-family="Helvetica,sans-Serif" font-size="11.00" fill="#000000">int[10]</text>
<polygon fill="none" stroke="#000000" points="10.5,-361.7 10.5,-383.7 190.5,-383.7 190.5,-361.7 10.5,-361.7"/>
<text text-anchor="start" x="30.5" y="-368.8" font-family="Helvetica,sans-Serif" font-size="11.00" fill="#000000">IsSold</text>
<polygon fill="none" stroke="#000000" points="190.5,-361.7 190.5,-383.7 301.5,-383.7 301.5,-361.7 190.5,-361.7"/>
<text text-anchor="start" x="193.5" y="-369.4" font-family="Helvetica,sans-Serif" font-size="11.00" fill="#000000">bit[1]</text>
<polygon fill="none" stroke="#000000" points="10.5,-339.7 10.5,-361.7 190.5,-361.7 190.5,-339.7 10.5,-339.7"/>
<text text-anchor="start" x="30.5" y="-346.8" font-family="Helvetica,sans-Serif" font-size="11.00" fill="#000000">WarehouseFK</text>
<polygon fill="none" stroke="#000000" points="190.5,-339.7 190.5,-361.7 301.5,-361.7 301.5,-339.7 190.5,-339.7"/>
<text text-anchor="start" x="193.5" y="-347.4" font-family="Helvetica,sans-Serif" font-size="11.00" fill="#000000">int[10]</text>
<polygon fill="none" stroke="#000000" points="10.5,-317.7 10.5,-339.7 190.5,-339.7 190.5,-317.7 10.5,-317.7"/>
<text text-anchor="start" x="30.5" y="-324.8" font-family="Helvetica,sans-Serif" font-size="11.00" fill="#000000">BookFromID</text>
<polygon fill="none" stroke="#000000" points="190.5,-317.7 190.5,-339.7 301.5,-339.7 301.5,-317.7 190.5,-317.7"/>
<text text-anchor="start" x="193.5" y="-325.4" font-family="Helvetica,sans-Serif" font-size="11.00" fill="#000000">int[10]</text>
<polygon fill="none" stroke="#000000" points="10.5,-295.7 10.5,-317.7 190.5,-317.7 190.5,-295.7 10.5,-295.7"/>
<text text-anchor="start" x="30.5" y="-302.8" font-family="Helvetica,sans-Serif" font-size="11.00" fill="#000000">BookingValue</text>
<polygon fill="none" stroke="#000000" points="190.5,-295.7 190.5,-317.7 301.5,-317.7 301.5,-295.7 190.5,-295.7"/>
<text text-anchor="start" x="193.5" y="-303.4" font-family="Helvetica,sans-Serif" font-size="11.00" fill="#000000">decimal[65,30]</text>
<polygon fill="none" stroke="#000000" points="10.5,-273.7 10.5,-295.7 190.5,-295.7 190.5,-273.7 10.5,-273.7"/>
<text text-anchor="start" x="30.5" y="-280.8" font-family="Helvetica,sans-Serif" font-size="11.00" fill="#000000">Common_DealerFK2</text>
<polygon fill="none" stroke="#000000" points="190.5,-273.7 190.5,-295.7 301.5,-295.7 301.5,-273.7 190.5,-273.7"/>
<text text-anchor="start" x="193.5" y="-281.4" font-family="Helvetica,sans-Serif" font-size="11.00" fill="#000000">int[10]</text>
<polygon fill="none" stroke="#000000" points="10.5,-251.7 10.5,-273.7 190.5,-273.7 190.5,-251.7 10.5,-251.7"/>
<text text-anchor="start" x="30.5" y="-258.8" font-family="Helvetica,sans-Serif" font-size="11.00" fill="#000000">Exp_DeliveryDate</text>
<polygon fill="none" stroke="#000000" points="190.5,-251.7 190.5,-273.7 301.5,-273.7 301.5,-251.7 190.5,-251.7"/>
<text text-anchor="start" x="193.5" y="-259.4" font-family="Helvetica,sans-Serif" font-size="11.00" fill="#000000">datetime[26]</text>
<polygon fill="none" stroke="#000000" points="10.5,-229.7 10.5,-251.7 190.5,-251.7 190.5,-229.7 10.5,-229.7"/>
<text text-anchor="start" x="30.5" y="-236.8" font-family="Helvetica,sans-Serif" font-size="11.00" fill="#000000">ItemQty</text>
<polygon fill="none" stroke="#000000" points="190.5,-229.7 190.5,-251.7 301.5,-251.7 301.5,-229.7 190.5,-229.7"/>
<text text-anchor="start" x="193.5" y="-237.4" font-family="Helvetica,sans-Serif" font-size="11.00" fill="#000000">int[10]</text>
<polygon fill="none" stroke="#000000" points="10.5,-207.7 10.5,-229.7 190.5,-229.7 190.5,-207.7 10.5,-207.7"/>
<text text-anchor="start" x="30.5" y="-214.8" font-family="Helvetica,sans-Serif" font-size="11.00" fill="#000000">TypeID</text>
<polygon fill="none" stroke="#000000" points="190.5,-207.7 190.5,-229.7 301.5,-229.7 301.5,-207.7 190.5,-207.7"/>
<text text-anchor="start" x="193.5" y="-215.4" font-family="Helvetica,sans-Serif" font-size="11.00" fill="#000000">int[10]</text>
<polygon fill="none" stroke="#000000" points="10.5,-185.7 10.5,-207.7 190.5,-207.7 190.5,-185.7 10.5,-185.7"/>
<text text-anchor="start" x="30.5" y="-192.8" font-family="Helvetica,sans-Serif" font-size="11.00" fill="#000000">Common_SupplierFK</text>
<polygon fill="none" stroke="#000000" points="190.5,-185.7 190.5,-207.7 301.5,-207.7 301.5,-185.7 190.5,-185.7"/>
<text text-anchor="start" x="193.5" y="-193.4" font-family="Helvetica,sans-Serif" font-size="11.00" fill="#000000">int[10]</text>
<polygon fill="none" stroke="#000000" points="10.5,-163.7 10.5,-185.7 190.5,-185.7 190.5,-163.7 10.5,-163.7"/>
<text text-anchor="start" x="30.5" y="-170.8" font-family="Helvetica,sans-Serif" font-size="11.00" fill="#000000">IsProdBooking</text>
<polygon fill="none" stroke="#000000" points="190.5,-163.7 190.5,-185.7 301.5,-185.7 301.5,-163.7 190.5,-163.7"/>
<text text-anchor="start" x="193.5" y="-171.4" font-family="Helvetica,sans-Serif" font-size="11.00" fill="#000000">bit[1]</text>
<polygon fill="none" stroke="#000000" points="10.5,-141.7 10.5,-163.7 190.5,-163.7 190.5,-141.7 10.5,-141.7"/>
<text text-anchor="start" x="30.5" y="-148.8" font-family="Helvetica,sans-Serif" font-size="11.00" fill="#000000">ProductionAcceptenceID</text>
<polygon fill="none" stroke="#000000" points="190.5,-141.7 190.5,-163.7 301.5,-163.7 301.5,-141.7 190.5,-141.7"/>
<text text-anchor="start" x="193.5" y="-149.4" font-family="Helvetica,sans-Serif" font-size="11.00" fill="#000000">int[10]</text>
<polygon fill="#ffffff" stroke="transparent" points="10.5,-122.7 10.5,-141.7 88.5,-141.7 88.5,-122.7 10.5,-122.7"/>
<polygon fill="none" stroke="#000000" points="10.5,-122.7 10.5,-141.7 88.5,-141.7 88.5,-122.7 10.5,-122.7"/>
<text text-anchor="start" x="13.5" y="-128.8" font-family="Helvetica,sans-Serif" font-size="11.00" fill="#000000">&lt; 0</text>
<polygon fill="#ffffff" stroke="transparent" points="88.5,-122.7 88.5,-141.7 190.5,-141.7 190.5,-122.7 88.5,-122.7"/>
<polygon fill="none" stroke="#000000" points="88.5,-122.7 88.5,-141.7 190.5,-141.7 190.5,-122.7 88.5,-122.7"/>
<text text-anchor="start" x="148.9956" y="-128.8" font-family="Helvetica,sans-Serif" font-size="11.00" fill="#000000">42 rows</text>
<polygon fill="#ffffff" stroke="transparent" points="190.5,-122.7 190.5,-141.7 301.5,-141.7 301.5,-122.7 190.5,-122.7"/>
<polygon fill="none" stroke="#000000" points="190.5,-122.7 190.5,-141.7 301.5,-141.7 301.5,-122.7 190.5,-122.7"/>
<text text-anchor="start" x="282.9053" y="-128.8" font-family="Helvetica,sans-Serif" font-size="11.00" fill="#000000">1 &gt;</text>
<polygon fill="none" stroke="#000000" stroke-width="2" points="9,-121.7 9,-715.7 302,-715.7 302,-121.7 9,-121.7"/>
</a>
</g>
</g>
<!-- order_bookingitem&#45;&gt;order_booking -->
<g id="edge2" class="edge">
<title>order_bookingitem:w&#45;&gt;order_booking:e</title>
<path fill="none" stroke="#000000" d="M338.0545,-385.0903C235.3717,-407.0071 430.0695,-680.7 301.5,-680.7"/>
<polygon fill="#000000" stroke="#000000" points="344.5368,-384.4664 352.8449,-387.2834 348.5184,-384.0832 352.5,-383.7 352.5,-383.7 352.5,-383.7 348.5184,-384.0832 352.1551,-380.1166 344.5368,-384.4664 344.5368,-384.4664"/>
<ellipse fill="none" stroke="#000000" cx="341.3515" cy="-384.773" rx="3.2" ry="3.2"/>
</g>
</g>
</svg>
