<?xml version="1.0" encoding="UTF-8" standalone="no"?>
<!DOCTYPE svg PUBLIC "-//W3C//DTD SVG 1.1//EN"
 "http://www.w3.org/Graphics/SVG/1.1/DTD/svg11.dtd">
<!-- Generated by graphviz version 2.40.1 (20161225.0304)
 -->
<!-- Title: twoDegreesRelationshipsDiagramImplied Pages: 1 -->
<svg width="761pt" height="1031pt"
 viewBox="0.00 0.00 761.07 1031.20" xmlns="http://www.w3.org/2000/svg" xmlns:xlink="http://www.w3.org/1999/xlink">
<g id="graph0" class="graph" transform="scale(1 1) rotate(0) translate(4 1027.2)">
<title>twoDegreesRelationshipsDiagramImplied</title>
<polygon fill="#ffffff" stroke="transparent" points="-4,4 -4,-1027.2 757.0742,-1027.2 757.0742,4 -4,4"/>
<text text-anchor="middle" x="72.4936" y="-7.3" font-family="Helvetica,sans-Serif" font-size="11.00" fill="#000000">Generated by SchemaSpy</text>
<!-- common_dealerproduct -->
<g id="node1" class="node">
<title>common_dealerproduct</title>
<g id="a_node1"><a xlink:href="../../tables/common_dealerproduct.html" xlink:title="common_dealerproduct" target="_top">
<polygon fill="#ffffff" stroke="transparent" points="494.5,-958.2 494.5,-1019.2 669.5,-1019.2 669.5,-958.2 494.5,-958.2"/>
<polygon fill="#f5f5f5" stroke="transparent" points="495,-995.7 495,-1018.7 670,-1018.7 670,-995.7 495,-995.7"/>
<polygon fill="none" stroke="#000000" points="495,-995.7 495,-1018.7 670,-1018.7 670,-995.7 495,-995.7"/>
<text text-anchor="start" x="500" y="-1004.3" font-family="Helvetica,sans-Serif" font-weight="bold" font-size="11.00" fill="#000000">common_dealerproduct</text>
<text text-anchor="start" x="635.5219" y="-1003.8" font-family="Helvetica,sans-Serif" font-size="11.00" fill="#000000">[table]</text>
<polygon fill="none" stroke="#000000" points="495,-976.7 495,-995.7 670,-995.7 670,-976.7 495,-976.7"/>
<text text-anchor="start" x="498" y="-982.8" font-family="Helvetica,sans-Serif" font-size="11.00" fill="#000000">...</text>
<polygon fill="#ffffff" stroke="transparent" points="495,-957.7 495,-976.7 562,-976.7 562,-957.7 495,-957.7"/>
<polygon fill="none" stroke="#000000" points="495,-957.7 495,-976.7 562,-976.7 562,-957.7 495,-957.7"/>
<text text-anchor="start" x="498" y="-963.8" font-family="Helvetica,sans-Serif" font-size="11.00" fill="#000000">&lt; 2</text>
<polygon fill="#ffffff" stroke="transparent" points="562,-957.7 562,-976.7 635,-976.7 635,-957.7 562,-957.7"/>
<polygon fill="none" stroke="#000000" points="562,-957.7 562,-976.7 635,-976.7 635,-957.7 562,-957.7"/>
<text text-anchor="start" x="587.3807" y="-963.8" font-family="Helvetica,sans-Serif" font-size="11.00" fill="#000000">427 rows</text>
<polygon fill="#ffffff" stroke="transparent" points="635,-957.7 635,-976.7 670,-976.7 670,-957.7 635,-957.7"/>
<polygon fill="none" stroke="#000000" points="635,-957.7 635,-976.7 670,-976.7 670,-957.7 635,-957.7"/>
<text text-anchor="start" x="660.8862" y="-963.8" font-family="Helvetica,sans-Serif" font-size="11.00" fill="#000000"> &#160;</text>
</a>
</g>
</g>
<!-- common_product -->
<g id="node2" class="node">
<title>common_product</title>
<g id="a_node2"><a xlink:href="../../tables/common_product.html" xlink:title="common_product" target="_top">
<polygon fill="#ffffff" stroke="transparent" points="229,-578.2 229,-705.2 400,-705.2 400,-578.2 229,-578.2"/>
<polygon fill="#f5f5f5" stroke="transparent" points="229.5,-681.7 229.5,-704.7 400.5,-704.7 400.5,-681.7 229.5,-681.7"/>
<polygon fill="none" stroke="#000000" points="229.5,-681.7 229.5,-704.7 400.5,-704.7 400.5,-681.7 229.5,-681.7"/>
<text text-anchor="start" x="234.5" y="-690.3" font-family="Helvetica,sans-Serif" font-weight="bold" font-size="11.00" fill="#000000">common_product</text>
<text text-anchor="start" x="365.5437" y="-689.8" font-family="Helvetica,sans-Serif" font-size="11.00" fill="#000000">[table]</text>
<polygon fill="none" stroke="#000000" points="229.5,-659.7 229.5,-681.7 400.5,-681.7 400.5,-659.7 229.5,-659.7"/>
<image xlink:href="../../images/primaryKeys.png" width="11px" height="12px" preserveAspectRatio="xMinYMin meet" x="234.5" y="-676.7"/>
<text text-anchor="start" x="249.5" y="-666.8" font-family="Helvetica,sans-Serif" font-size="11.00" fill="#000000">ID</text>
<polygon fill="#ffffff" stroke="transparent" points="229.5,-637.7 229.5,-659.7 400.5,-659.7 400.5,-637.7 229.5,-637.7"/>
<polygon fill="none" stroke="#000000" points="229.5,-637.7 229.5,-659.7 400.5,-659.7 400.5,-637.7 229.5,-637.7"/>
<image xlink:href="../../images/foreignKeys.png" width="11px" height="12px" preserveAspectRatio="xMinYMin meet" x="234.5" y="-654.7"/>
<text text-anchor="start" x="249.5" y="-644.8" font-family="Helvetica,sans-Serif" font-size="11.00" fill="#000000">Common_ManufacturerFK</text>
<polygon fill="none" stroke="#000000" points="229.5,-615.7 229.5,-637.7 400.5,-637.7 400.5,-615.7 229.5,-615.7"/>
<image xlink:href="../../images/foreignKeys.png" width="11px" height="12px" preserveAspectRatio="xMinYMin meet" x="234.5" y="-632.7"/>
<text text-anchor="start" x="249.5" y="-622.8" font-family="Helvetica,sans-Serif" font-size="11.00" fill="#000000">Common_PackTypeID</text>
<polygon fill="none" stroke="#000000" points="229.5,-596.7 229.5,-615.7 400.5,-615.7 400.5,-596.7 229.5,-596.7"/>
<text text-anchor="start" x="232.5" y="-602.8" font-family="Helvetica,sans-Serif" font-size="11.00" fill="#000000">...</text>
<polygon fill="#ffffff" stroke="transparent" points="229.5,-577.7 229.5,-596.7 292.5,-596.7 292.5,-577.7 229.5,-577.7"/>
<polygon fill="none" stroke="#000000" points="229.5,-577.7 229.5,-596.7 292.5,-596.7 292.5,-577.7 229.5,-577.7"/>
<text text-anchor="start" x="232.5" y="-583.8" font-family="Helvetica,sans-Serif" font-size="11.00" fill="#000000">&lt; 2</text>
<polygon fill="#ffffff" stroke="transparent" points="292.5,-577.7 292.5,-596.7 357.5,-596.7 357.5,-577.7 292.5,-577.7"/>
<polygon fill="none" stroke="#000000" points="292.5,-577.7 292.5,-596.7 357.5,-596.7 357.5,-577.7 292.5,-577.7"/>
<text text-anchor="start" x="315.9956" y="-583.8" font-family="Helvetica,sans-Serif" font-size="11.00" fill="#000000">54 rows</text>
<polygon fill="#ffffff" stroke="transparent" points="357.5,-577.7 357.5,-596.7 400.5,-596.7 400.5,-577.7 357.5,-577.7"/>
<polygon fill="none" stroke="#000000" points="357.5,-577.7 357.5,-596.7 400.5,-596.7 400.5,-577.7 357.5,-577.7"/>
<text text-anchor="start" x="381.9053" y="-583.8" font-family="Helvetica,sans-Serif" font-size="11.00" fill="#000000">6 &gt;</text>
</a>
</g>
</g>
<!-- common_dealerproduct&#45;&gt;common_product -->
<g id="edge1" class="edge">
<title>common_dealerproduct:w&#45;&gt;common_product:e</title>
<path fill="none" stroke="#000000" d="M480.4365,-984.3353C461.9592,-980.4024 453.4912,-968.0105 441,-947.7 408.4102,-894.7095 462.71,-670.7 400.5,-670.7"/>
<polygon fill="#000000" stroke="#000000" points="487.0349,-984.9536 494.6641,-989.2843 491.0174,-985.3268 495,-985.7 495,-985.7 495,-985.7 491.0174,-985.3268 495.3359,-982.1157 487.0349,-984.9536 487.0349,-984.9536"/>
<ellipse fill="none" stroke="#000000" cx="483.8489" cy="-984.655" rx="3.2" ry="3.2"/>
</g>
<!-- common_manufacturer -->
<g id="node3" class="node">
<title>common_manufacturer</title>
<g id="a_node3"><a xlink:href="../../tables/common_manufacturer.html" xlink:title="common_manufacturer" target="_top">
<polygon fill="#ffffff" stroke="transparent" points="8,-651.2 8,-712.2 180,-712.2 180,-651.2 8,-651.2"/>
<polygon fill="#f5f5f5" stroke="transparent" points="8,-688.7 8,-711.7 180,-711.7 180,-688.7 8,-688.7"/>
<polygon fill="none" stroke="#000000" points="8,-688.7 8,-711.7 180,-711.7 180,-688.7 8,-688.7"/>
<text text-anchor="start" x="13" y="-697.3" font-family="Helvetica,sans-Serif" font-weight="bold" font-size="11.00" fill="#000000">common_manufacturer</text>
<text text-anchor="start" x="145.5219" y="-696.8" font-family="Helvetica,sans-Serif" font-size="11.00" fill="#000000">[table]</text>
<polygon fill="none" stroke="#000000" points="8,-669.7 8,-688.7 180,-688.7 180,-669.7 8,-669.7"/>
<text text-anchor="start" x="11" y="-675.8" font-family="Helvetica,sans-Serif" font-size="11.00" fill="#000000">...</text>
<polygon fill="#ffffff" stroke="transparent" points="8,-650.7 8,-669.7 67,-669.7 67,-650.7 8,-650.7"/>
<polygon fill="none" stroke="#000000" points="8,-650.7 8,-669.7 67,-669.7 67,-650.7 8,-650.7"/>
<text text-anchor="start" x="11" y="-656.8" font-family="Helvetica,sans-Serif" font-size="11.00" fill="#000000"> &#160;</text>
<polygon fill="#ffffff" stroke="transparent" points="67,-650.7 67,-669.7 135,-669.7 135,-650.7 67,-650.7"/>
<polygon fill="none" stroke="#000000" points="67,-650.7 67,-669.7 135,-669.7 135,-650.7 67,-650.7"/>
<text text-anchor="start" x="93.4956" y="-656.8" font-family="Helvetica,sans-Serif" font-size="11.00" fill="#000000">33 rows</text>
<polygon fill="#ffffff" stroke="transparent" points="135,-650.7 135,-669.7 180,-669.7 180,-650.7 135,-650.7"/>
<polygon fill="none" stroke="#000000" points="135,-650.7 135,-669.7 180,-669.7 180,-650.7 135,-650.7"/>
<text text-anchor="start" x="161.4053" y="-656.8" font-family="Helvetica,sans-Serif" font-size="11.00" fill="#000000">1 &gt;</text>
</a>
</g>
</g>
<!-- common_product&#45;&gt;common_manufacturer -->
<g id="edge2" class="edge">
<title>common_product:w&#45;&gt;common_manufacturer:e</title>
<path fill="none" stroke="#000000" d="M215.633,-652.622C203.238,-660.7538 199.8967,-678.7 180,-678.7"/>
<polygon fill="#000000" stroke="#000000" points="221.802,-650.8773 230.4798,-652.1641 225.651,-649.7886 229.5,-648.7 229.5,-648.7 229.5,-648.7 225.651,-649.7886 228.5202,-645.2359 221.802,-650.8773 221.802,-650.8773"/>
<ellipse fill="none" stroke="#000000" cx="218.7228" cy="-651.7482" rx="3.2" ry="3.2"/>
</g>
<!-- common_packtype -->
<g id="node4" class="node">
<title>common_packtype</title>
<g id="a_node4"><a xlink:href="../../tables/common_packtype.html" xlink:title="common_packtype" target="_top">
<polygon fill="#ffffff" stroke="transparent" points="20.5,-569.2 20.5,-630.2 167.5,-630.2 167.5,-569.2 20.5,-569.2"/>
<polygon fill="#f5f5f5" stroke="transparent" points="21,-606.7 21,-629.7 168,-629.7 168,-606.7 21,-606.7"/>
<polygon fill="none" stroke="#000000" points="21,-606.7 21,-629.7 168,-629.7 168,-606.7 21,-606.7"/>
<text text-anchor="start" x="26" y="-615.3" font-family="Helvetica,sans-Serif" font-weight="bold" font-size="11.00" fill="#000000">common_packtype</text>
<text text-anchor="start" x="133.5219" y="-614.8" font-family="Helvetica,sans-Serif" font-size="11.00" fill="#000000">[table]</text>
<polygon fill="none" stroke="#000000" points="21,-587.7 21,-606.7 168,-606.7 168,-587.7 21,-587.7"/>
<text text-anchor="start" x="24" y="-593.8" font-family="Helvetica,sans-Serif" font-size="11.00" fill="#000000">...</text>
<polygon fill="#ffffff" stroke="transparent" points="21,-568.7 21,-587.7 68,-587.7 68,-568.7 21,-568.7"/>
<polygon fill="none" stroke="#000000" points="21,-568.7 21,-587.7 68,-587.7 68,-568.7 21,-568.7"/>
<text text-anchor="start" x="24" y="-574.8" font-family="Helvetica,sans-Serif" font-size="11.00" fill="#000000"> &#160;</text>
<polygon fill="#ffffff" stroke="transparent" points="68,-568.7 68,-587.7 129,-587.7 129,-568.7 68,-568.7"/>
<polygon fill="none" stroke="#000000" points="68,-568.7 68,-587.7 129,-587.7 129,-568.7 68,-568.7"/>
<text text-anchor="start" x="87.4956" y="-574.8" font-family="Helvetica,sans-Serif" font-size="11.00" fill="#000000">26 rows</text>
<polygon fill="#ffffff" stroke="transparent" points="129,-568.7 129,-587.7 168,-587.7 168,-568.7 129,-568.7"/>
<polygon fill="none" stroke="#000000" points="129,-568.7 129,-587.7 168,-587.7 168,-568.7 129,-568.7"/>
<text text-anchor="start" x="149.4053" y="-574.8" font-family="Helvetica,sans-Serif" font-size="11.00" fill="#000000">1 &gt;</text>
</a>
</g>
</g>
<!-- common_product&#45;&gt;common_packtype -->
<g id="edge3" class="edge">
<title>common_product:w&#45;&gt;common_packtype:e</title>
<path fill="none" stroke="#000000" stroke-dasharray="5,2" d="M215.1374,-623.9314C197.7891,-616.5047 192.7097,-596.7 168,-596.7"/>
<polygon fill="#000000" stroke="#000000" points="221.6446,-625.1857 228.8186,-630.2349 225.5723,-625.9429 229.5,-626.7 229.5,-626.7 229.5,-626.7 225.5723,-625.9429 230.1814,-623.1651 221.6446,-625.1857 221.6446,-625.1857"/>
<ellipse fill="none" stroke="#000000" cx="218.5025" cy="-624.58" rx="3.2" ry="3.2"/>
</g>
<!-- order_bookingitem -->
<g id="node5" class="node">
<title>order_bookingitem</title>
<g id="a_node5"><a xlink:href="../../tables/order_bookingitem.html" xlink:title="order_bookingitem" target="_top">
<polygon fill="#ffffff" stroke="transparent" points="508.5,-876.2 508.5,-937.2 655.5,-937.2 655.5,-876.2 508.5,-876.2"/>
<polygon fill="#f5f5f5" stroke="transparent" points="509,-913.7 509,-936.7 656,-936.7 656,-913.7 509,-913.7"/>
<polygon fill="none" stroke="#000000" points="509,-913.7 509,-936.7 656,-936.7 656,-913.7 509,-913.7"/>
<text text-anchor="start" x="514" y="-922.3" font-family="Helvetica,sans-Serif" font-weight="bold" font-size="11.00" fill="#000000">order_bookingitem</text>
<text text-anchor="start" x="621.5219" y="-921.8" font-family="Helvetica,sans-Serif" font-size="11.00" fill="#000000">[table]</text>
<polygon fill="none" stroke="#000000" points="509,-894.7 509,-913.7 656,-913.7 656,-894.7 509,-894.7"/>
<text text-anchor="start" x="512" y="-900.8" font-family="Helvetica,sans-Serif" font-size="11.00" fill="#000000">...</text>
<polygon fill="#ffffff" stroke="transparent" points="509,-875.7 509,-894.7 565,-894.7 565,-875.7 509,-875.7"/>
<polygon fill="none" stroke="#000000" points="509,-875.7 509,-894.7 565,-894.7 565,-875.7 509,-875.7"/>
<text text-anchor="start" x="512" y="-881.8" font-family="Helvetica,sans-Serif" font-size="11.00" fill="#000000">&lt; 2</text>
<polygon fill="#ffffff" stroke="transparent" points="565,-875.7 565,-894.7 626,-894.7 626,-875.7 565,-875.7"/>
<polygon fill="none" stroke="#000000" points="565,-875.7 565,-894.7 626,-894.7 626,-875.7 565,-875.7"/>
<text text-anchor="start" x="584.4956" y="-881.8" font-family="Helvetica,sans-Serif" font-size="11.00" fill="#000000">62 rows</text>
<polygon fill="#ffffff" stroke="transparent" points="626,-875.7 626,-894.7 656,-894.7 656,-875.7 626,-875.7"/>
<polygon fill="none" stroke="#000000" points="626,-875.7 626,-894.7 656,-894.7 656,-875.7 626,-875.7"/>
<text text-anchor="start" x="646.8862" y="-881.8" font-family="Helvetica,sans-Serif" font-size="11.00" fill="#000000"> &#160;</text>
</a>
</g>
</g>
<!-- order_bookingitem&#45;&gt;common_product -->
<g id="edge4" class="edge">
<title>order_bookingitem:w&#45;&gt;common_product:e</title>
<path fill="none" stroke="#000000" d="M494.5859,-902.9704C470.273,-900.2131 458.3604,-889.3611 441,-865.7 388.6374,-794.3329 489.0162,-670.7 400.5,-670.7"/>
<polygon fill="#000000" stroke="#000000" points="501.0102,-903.2955 508.818,-907.2954 505.0051,-903.4978 509,-903.7 509,-903.7 509,-903.7 505.0051,-903.4978 509.182,-900.1046 501.0102,-903.2955 501.0102,-903.2955"/>
<ellipse fill="none" stroke="#000000" cx="497.8143" cy="-903.1337" rx="3.2" ry="3.2"/>
</g>
<!-- order_inventory -->
<g id="node6" class="node">
<title>order_inventory</title>
<g id="a_node6"><a xlink:href="../../tables/order_inventory.html" xlink:title="order_inventory" target="_top">
<polygon fill="#ffffff" stroke="transparent" points="517,-794.2 517,-855.2 647,-855.2 647,-794.2 517,-794.2"/>
<polygon fill="#f5f5f5" stroke="transparent" points="517,-831.7 517,-854.7 647,-854.7 647,-831.7 517,-831.7"/>
<polygon fill="none" stroke="#000000" points="517,-831.7 517,-854.7 647,-854.7 647,-831.7 517,-831.7"/>
<text text-anchor="start" x="522" y="-840.3" font-family="Helvetica,sans-Serif" font-weight="bold" font-size="11.00" fill="#000000">order_inventory</text>
<text text-anchor="start" x="612.5219" y="-839.8" font-family="Helvetica,sans-Serif" font-size="11.00" fill="#000000">[table]</text>
<polygon fill="none" stroke="#000000" points="517,-812.7 517,-831.7 647,-831.7 647,-812.7 517,-812.7"/>
<text text-anchor="start" x="520" y="-818.8" font-family="Helvetica,sans-Serif" font-size="11.00" fill="#000000">...</text>
<polygon fill="#ffffff" stroke="transparent" points="517,-793.7 517,-812.7 561,-812.7 561,-793.7 517,-793.7"/>
<polygon fill="none" stroke="#000000" points="517,-793.7 517,-812.7 561,-812.7 561,-793.7 517,-793.7"/>
<text text-anchor="start" x="520" y="-799.8" font-family="Helvetica,sans-Serif" font-size="11.00" fill="#000000">&lt; 1</text>
<polygon fill="#ffffff" stroke="transparent" points="561,-793.7 561,-812.7 623,-812.7 623,-793.7 561,-793.7"/>
<polygon fill="none" stroke="#000000" points="561,-793.7 561,-812.7 623,-812.7 623,-793.7 561,-793.7"/>
<text text-anchor="start" x="575.3807" y="-799.8" font-family="Helvetica,sans-Serif" font-size="11.00" fill="#000000">136 rows</text>
<polygon fill="#ffffff" stroke="transparent" points="623,-793.7 623,-812.7 647,-812.7 647,-793.7 623,-793.7"/>
<polygon fill="none" stroke="#000000" points="623,-793.7 623,-812.7 647,-812.7 647,-793.7 623,-793.7"/>
<text text-anchor="start" x="637.8862" y="-799.8" font-family="Helvetica,sans-Serif" font-size="11.00" fill="#000000"> &#160;</text>
</a>
</g>
</g>
<!-- order_inventory&#45;&gt;common_product -->
<g id="edge5" class="edge">
<title>order_inventory:w&#45;&gt;common_product:e</title>
<path fill="none" stroke="#000000" d="M502.4255,-821.0973C475.2951,-818.5921 462.5371,-807.9779 441,-783.7 405.5956,-743.7901 453.8505,-670.7 400.5,-670.7"/>
<polygon fill="#000000" stroke="#000000" points="509.0068,-821.3694 516.8512,-825.2969 513.0034,-821.5347 517,-821.7 517,-821.7 517,-821.7 513.0034,-821.5347 517.1488,-818.1031 509.0068,-821.3694 509.0068,-821.3694"/>
<ellipse fill="none" stroke="#000000" cx="505.8096" cy="-821.2371" rx="3.2" ry="3.2"/>
</g>
<!-- order_itemserialno -->
<g id="node7" class="node">
<title>order_itemserialno</title>
<g id="a_node7"><a xlink:href="../../tables/order_itemserialno.html" xlink:title="order_itemserialno" target="_top">
<polygon fill="#ffffff" stroke="transparent" points="449,-202.7 449,-754.7 715,-754.7 715,-202.7 449,-202.7"/>
<polygon fill="#f5f5f5" stroke="transparent" points="451,-729.7 451,-752.7 713,-752.7 713,-729.7 451,-729.7"/>
<polygon fill="none" stroke="#000000" points="451,-729.7 451,-752.7 713,-752.7 713,-729.7 451,-729.7"/>
<text text-anchor="start" x="456" y="-738.3" font-family="Helvetica,sans-Serif" font-weight="bold" font-size="11.00" fill="#000000">order_itemserialno</text>
<text text-anchor="start" x="678.0437" y="-737.8" font-family="Helvetica,sans-Serif" font-size="11.00" fill="#000000">[table]</text>
<polygon fill="none" stroke="#000000" points="451,-707.7 451,-729.7 602,-729.7 602,-707.7 451,-707.7"/>
<image xlink:href="../../images/primaryKeys.png" width="11px" height="12px" preserveAspectRatio="xMinYMin meet" x="456" y="-724.7"/>
<text text-anchor="start" x="471" y="-714.8" font-family="Helvetica,sans-Serif" font-size="11.00" fill="#000000">ID</text>
<polygon fill="none" stroke="#000000" points="602,-707.7 602,-729.7 713,-729.7 713,-707.7 602,-707.7"/>
<text text-anchor="start" x="605" y="-715.4" font-family="Helvetica,sans-Serif" font-size="11.00" fill="#000000">int[10]</text>
<polygon fill="none" stroke="#000000" points="451,-685.7 451,-707.7 602,-707.7 602,-685.7 451,-685.7"/>
<text text-anchor="start" x="471" y="-692.8" font-family="Helvetica,sans-Serif" font-size="11.00" fill="#000000">Active</text>
<polygon fill="none" stroke="#000000" points="602,-685.7 602,-707.7 713,-707.7 713,-685.7 602,-685.7"/>
<text text-anchor="start" x="605" y="-693.4" font-family="Helvetica,sans-Serif" font-size="11.00" fill="#000000">bit[1]</text>
<polygon fill="none" stroke="#000000" points="451,-663.7 451,-685.7 602,-685.7 602,-663.7 451,-663.7"/>
<text text-anchor="start" x="471" y="-670.8" font-family="Helvetica,sans-Serif" font-size="11.00" fill="#000000">User</text>
<polygon fill="none" stroke="#000000" points="602,-663.7 602,-685.7 713,-685.7 713,-663.7 602,-663.7"/>
<text text-anchor="start" x="604.6115" y="-671.4" font-family="Helvetica,sans-Serif" font-size="11.00" fill="#000000">longtext[2147483647]</text>
<polygon fill="none" stroke="#000000" points="451,-641.7 451,-663.7 602,-663.7 602,-641.7 451,-641.7"/>
<text text-anchor="start" x="471" y="-648.8" font-family="Helvetica,sans-Serif" font-size="11.00" fill="#000000">CD</text>
<polygon fill="none" stroke="#000000" points="602,-641.7 602,-663.7 713,-663.7 713,-641.7 602,-641.7"/>
<text text-anchor="start" x="605" y="-649.4" font-family="Helvetica,sans-Serif" font-size="11.00" fill="#000000">datetime[26]</text>
<polygon fill="none" stroke="#000000" points="451,-619.7 451,-641.7 602,-641.7 602,-619.7 451,-619.7"/>
<text text-anchor="start" x="471" y="-626.8" font-family="Helvetica,sans-Serif" font-size="11.00" fill="#000000">UD</text>
<polygon fill="none" stroke="#000000" points="602,-619.7 602,-641.7 713,-641.7 713,-619.7 602,-619.7"/>
<text text-anchor="start" x="605" y="-627.4" font-family="Helvetica,sans-Serif" font-size="11.00" fill="#000000">datetime[26]</text>
<polygon fill="none" stroke="#000000" points="451,-597.7 451,-619.7 602,-619.7 602,-597.7 451,-597.7"/>
<text text-anchor="start" x="471" y="-604.8" font-family="Helvetica,sans-Serif" font-size="11.00" fill="#000000">Remarks</text>
<polygon fill="none" stroke="#000000" points="602,-597.7 602,-619.7 713,-619.7 713,-597.7 602,-597.7"/>
<text text-anchor="start" x="604.6115" y="-605.4" font-family="Helvetica,sans-Serif" font-size="11.00" fill="#000000">longtext[2147483647]</text>
<polygon fill="none" stroke="#000000" points="451,-575.7 451,-597.7 602,-597.7 602,-575.7 451,-575.7"/>
<text text-anchor="start" x="471" y="-582.8" font-family="Helvetica,sans-Serif" font-size="11.00" fill="#000000">UserID</text>
<polygon fill="none" stroke="#000000" points="602,-575.7 602,-597.7 713,-597.7 713,-575.7 602,-575.7"/>
<text text-anchor="start" x="605" y="-583.4" font-family="Helvetica,sans-Serif" font-size="11.00" fill="#000000">int[10]</text>
<polygon fill="none" stroke="#000000" points="451,-553.7 451,-575.7 602,-575.7 602,-553.7 451,-553.7"/>
<text text-anchor="start" x="471" y="-560.8" font-family="Helvetica,sans-Serif" font-size="11.00" fill="#000000">Order_ReceiveItemFK</text>
<polygon fill="none" stroke="#000000" points="602,-553.7 602,-575.7 713,-575.7 713,-553.7 602,-553.7"/>
<text text-anchor="start" x="605" y="-561.4" font-family="Helvetica,sans-Serif" font-size="11.00" fill="#000000">int[10]</text>
<polygon fill="#ffffff" stroke="transparent" points="451,-531.7 451,-553.7 602,-553.7 602,-531.7 451,-531.7"/>
<polygon fill="none" stroke="#000000" points="451,-531.7 451,-553.7 602,-553.7 602,-531.7 451,-531.7"/>
<image xlink:href="../../images/foreignKeys.png" width="11px" height="12px" preserveAspectRatio="xMinYMin meet" x="456" y="-548.7"/>
<text text-anchor="start" x="471" y="-538.8" font-family="Helvetica,sans-Serif" font-size="11.00" fill="#000000">ItemSerialFK</text>
<polygon fill="none" stroke="#000000" points="602,-531.7 602,-553.7 713,-553.7 713,-531.7 602,-531.7"/>
<text text-anchor="start" x="605" y="-539.4" font-family="Helvetica,sans-Serif" font-size="11.00" fill="#000000">int[10]</text>
<polygon fill="#ffffff" stroke="transparent" points="451,-509.7 451,-531.7 602,-531.7 602,-509.7 451,-509.7"/>
<polygon fill="none" stroke="#000000" points="451,-509.7 451,-531.7 602,-531.7 602,-509.7 451,-509.7"/>
<image xlink:href="../../images/foreignKeys.png" width="11px" height="12px" preserveAspectRatio="xMinYMin meet" x="456" y="-526.7"/>
<text text-anchor="start" x="471" y="-516.8" font-family="Helvetica,sans-Serif" font-size="11.00" fill="#000000">Common_ProductFK</text>
<polygon fill="none" stroke="#000000" points="602,-509.7 602,-531.7 713,-531.7 713,-509.7 602,-509.7"/>
<text text-anchor="start" x="605" y="-517.4" font-family="Helvetica,sans-Serif" font-size="11.00" fill="#000000">int[10]</text>
<polygon fill="none" stroke="#000000" points="451,-487.7 451,-509.7 602,-509.7 602,-487.7 451,-487.7"/>
<text text-anchor="start" x="471" y="-494.8" font-family="Helvetica,sans-Serif" font-size="11.00" fill="#000000">SerialNo</text>
<polygon fill="none" stroke="#000000" points="602,-487.7 602,-509.7 713,-509.7 713,-487.7 602,-487.7"/>
<text text-anchor="start" x="604.6115" y="-495.4" font-family="Helvetica,sans-Serif" font-size="11.00" fill="#000000">longtext[2147483647]</text>
<polygon fill="none" stroke="#000000" points="451,-465.7 451,-487.7 602,-487.7 602,-465.7 451,-465.7"/>
<text text-anchor="start" x="471" y="-472.8" font-family="Helvetica,sans-Serif" font-size="11.00" fill="#000000">Order_SaleItemFK</text>
<polygon fill="none" stroke="#000000" points="602,-465.7 602,-487.7 713,-487.7 713,-465.7 602,-465.7"/>
<text text-anchor="start" x="605" y="-473.4" font-family="Helvetica,sans-Serif" font-size="11.00" fill="#000000">int[10]</text>
<polygon fill="none" stroke="#000000" points="451,-443.7 451,-465.7 602,-465.7 602,-443.7 451,-443.7"/>
<text text-anchor="start" x="471" y="-450.8" font-family="Helvetica,sans-Serif" font-size="11.00" fill="#000000">Common_DealerFK</text>
<polygon fill="none" stroke="#000000" points="602,-443.7 602,-465.7 713,-465.7 713,-443.7 602,-443.7"/>
<text text-anchor="start" x="605" y="-451.4" font-family="Helvetica,sans-Serif" font-size="11.00" fill="#000000">int[10]</text>
<polygon fill="none" stroke="#000000" points="451,-421.7 451,-443.7 602,-443.7 602,-421.7 451,-421.7"/>
<text text-anchor="start" x="471" y="-428.8" font-family="Helvetica,sans-Serif" font-size="11.00" fill="#000000">Common_CustomerFK</text>
<polygon fill="none" stroke="#000000" points="602,-421.7 602,-443.7 713,-443.7 713,-421.7 602,-421.7"/>
<text text-anchor="start" x="605" y="-429.4" font-family="Helvetica,sans-Serif" font-size="11.00" fill="#000000">int[10]</text>
<polygon fill="none" stroke="#000000" points="451,-399.7 451,-421.7 602,-421.7 602,-399.7 451,-399.7"/>
<text text-anchor="start" x="471" y="-406.8" font-family="Helvetica,sans-Serif" font-size="11.00" fill="#000000">SalePrice</text>
<polygon fill="none" stroke="#000000" points="602,-399.7 602,-421.7 713,-421.7 713,-399.7 602,-399.7"/>
<text text-anchor="start" x="605" y="-407.4" font-family="Helvetica,sans-Serif" font-size="11.00" fill="#000000">decimal[65,30]</text>
<polygon fill="none" stroke="#000000" points="451,-377.7 451,-399.7 602,-399.7 602,-377.7 451,-377.7"/>
<text text-anchor="start" x="471" y="-384.8" font-family="Helvetica,sans-Serif" font-size="11.00" fill="#000000">Discount</text>
<polygon fill="none" stroke="#000000" points="602,-377.7 602,-399.7 713,-399.7 713,-377.7 602,-377.7"/>
<text text-anchor="start" x="605" y="-385.4" font-family="Helvetica,sans-Serif" font-size="11.00" fill="#000000">decimal[65,30]</text>
<polygon fill="none" stroke="#000000" points="451,-355.7 451,-377.7 602,-377.7 602,-355.7 451,-355.7"/>
<text text-anchor="start" x="471" y="-362.8" font-family="Helvetica,sans-Serif" font-size="11.00" fill="#000000">TypeID</text>
<polygon fill="none" stroke="#000000" points="602,-355.7 602,-377.7 713,-377.7 713,-355.7 602,-355.7"/>
<text text-anchor="start" x="605" y="-363.4" font-family="Helvetica,sans-Serif" font-size="11.00" fill="#000000">int[10]</text>
<polygon fill="none" stroke="#000000" points="451,-333.7 451,-355.7 602,-355.7 602,-333.7 451,-333.7"/>
<text text-anchor="start" x="471" y="-340.8" font-family="Helvetica,sans-Serif" font-size="11.00" fill="#000000">IsDealerSold</text>
<polygon fill="none" stroke="#000000" points="602,-333.7 602,-355.7 713,-355.7 713,-333.7 602,-333.7"/>
<text text-anchor="start" x="605" y="-341.4" font-family="Helvetica,sans-Serif" font-size="11.00" fill="#000000">bit[1]</text>
<polygon fill="none" stroke="#000000" points="451,-311.7 451,-333.7 602,-333.7 602,-311.7 451,-311.7"/>
<text text-anchor="start" x="471" y="-318.8" font-family="Helvetica,sans-Serif" font-size="11.00" fill="#000000">IsSold</text>
<polygon fill="none" stroke="#000000" points="602,-311.7 602,-333.7 713,-333.7 713,-311.7 602,-311.7"/>
<text text-anchor="start" x="605" y="-319.4" font-family="Helvetica,sans-Serif" font-size="11.00" fill="#000000">bit[1]</text>
<polygon fill="none" stroke="#000000" points="451,-289.7 451,-311.7 602,-311.7 602,-289.7 451,-289.7"/>
<text text-anchor="start" x="471" y="-296.8" font-family="Helvetica,sans-Serif" font-size="11.00" fill="#000000">IsTransfered</text>
<polygon fill="none" stroke="#000000" points="602,-289.7 602,-311.7 713,-311.7 713,-289.7 602,-289.7"/>
<text text-anchor="start" x="605" y="-297.4" font-family="Helvetica,sans-Serif" font-size="11.00" fill="#000000">bit[1]</text>
<polygon fill="none" stroke="#000000" points="451,-267.7 451,-289.7 602,-289.7 602,-267.7 451,-267.7"/>
<text text-anchor="start" x="471" y="-274.8" font-family="Helvetica,sans-Serif" font-size="11.00" fill="#000000">WarehouseFK</text>
<polygon fill="none" stroke="#000000" points="602,-267.7 602,-289.7 713,-289.7 713,-267.7 602,-267.7"/>
<text text-anchor="start" x="605" y="-275.4" font-family="Helvetica,sans-Serif" font-size="11.00" fill="#000000">int[10]</text>
<polygon fill="none" stroke="#000000" points="451,-245.7 451,-267.7 602,-267.7 602,-245.7 451,-245.7"/>
<text text-anchor="start" x="471" y="-252.8" font-family="Helvetica,sans-Serif" font-size="11.00" fill="#000000">Retail_VoucherItemFK</text>
<polygon fill="none" stroke="#000000" points="602,-245.7 602,-267.7 713,-267.7 713,-245.7 602,-245.7"/>
<text text-anchor="start" x="605" y="-253.4" font-family="Helvetica,sans-Serif" font-size="11.00" fill="#000000">int[10]</text>
<polygon fill="none" stroke="#000000" points="451,-223.7 451,-245.7 602,-245.7 602,-223.7 451,-223.7"/>
<text text-anchor="start" x="471" y="-230.8" font-family="Helvetica,sans-Serif" font-size="11.00" fill="#000000">Common_ShopFK</text>
<polygon fill="none" stroke="#000000" points="602,-223.7 602,-245.7 713,-245.7 713,-223.7 602,-223.7"/>
<text text-anchor="start" x="605" y="-231.4" font-family="Helvetica,sans-Serif" font-size="11.00" fill="#000000">int[10]</text>
<polygon fill="#ffffff" stroke="transparent" points="451,-204.7 451,-223.7 504,-223.7 504,-204.7 451,-204.7"/>
<polygon fill="none" stroke="#000000" points="451,-204.7 451,-223.7 504,-223.7 504,-204.7 451,-204.7"/>
<text text-anchor="start" x="454" y="-210.8" font-family="Helvetica,sans-Serif" font-size="11.00" fill="#000000">&lt; 2</text>
<polygon fill="#ffffff" stroke="transparent" points="504,-204.7 504,-223.7 602,-223.7 602,-204.7 504,-204.7"/>
<polygon fill="none" stroke="#000000" points="504,-204.7 504,-223.7 602,-223.7 602,-204.7 504,-204.7"/>
<text text-anchor="start" x="539.094" y="-210.8" font-family="Helvetica,sans-Serif" font-size="11.00" fill="#000000">19,002 rows</text>
<polygon fill="#ffffff" stroke="transparent" points="602,-204.7 602,-223.7 713,-223.7 713,-204.7 602,-204.7"/>
<polygon fill="none" stroke="#000000" points="602,-204.7 602,-223.7 713,-223.7 713,-204.7 602,-204.7"/>
<text text-anchor="start" x="694.4053" y="-210.8" font-family="Helvetica,sans-Serif" font-size="11.00" fill="#000000">1 &gt;</text>
<polygon fill="none" stroke="#000000" stroke-width="2" points="450,-203.7 450,-753.7 714,-753.7 714,-203.7 450,-203.7"/>
</a>
</g>
</g>
<!-- order_itemserialno&#45;&gt;common_product -->
<g id="edge6" class="edge">
<title>order_itemserialno:w&#45;&gt;common_product:e</title>
<path fill="none" stroke="#000000" d="M436.7524,-523.5625C394.3726,-544.3 465.0731,-670.7 400.5,-670.7"/>
<polygon fill="#000000" stroke="#000000" points="443.1567,-522.2758 451.7091,-524.2295 447.0784,-521.4879 451,-520.7 451,-520.7 451,-520.7 447.0784,-521.4879 450.2909,-517.1705 443.1567,-522.2758 443.1567,-522.2758"/>
<ellipse fill="none" stroke="#000000" cx="440.0194" cy="-522.9062" rx="3.2" ry="3.2"/>
</g>
<!-- order_itemserialno&#45;&gt;order_itemserialno -->
<g id="edge7" class="edge">
<title>order_itemserialno:w&#45;&gt;order_itemserialno:e</title>
<path fill="none" stroke="#000000" d="M443.162,-554.8761C384.8323,-650.9192 392.6006,-771.7 582,-771.7 779.5,-771.7 779.5,-763.0333 713,-718.7"/>
<polygon fill="#000000" stroke="#000000" points="446.6698,-549.4268 454.0271,-544.6486 448.8349,-546.0634 451,-542.7 451,-542.7 451,-542.7 448.8349,-546.0634 447.9729,-540.7514 446.6698,-549.4268 446.6698,-549.4268"/>
<ellipse fill="none" stroke="#000000" cx="444.9378" cy="-552.1175" rx="3.2" ry="3.2"/>
</g>
<!-- order_receiveitem -->
<g id="node8" class="node">
<title>order_receiveitem</title>
<g id="a_node8"><a xlink:href="../../tables/order_receiveitem.html" xlink:title="order_receiveitem" target="_top">
<polygon fill="#ffffff" stroke="transparent" points="511,-120.2 511,-181.2 653,-181.2 653,-120.2 511,-120.2"/>
<polygon fill="#f5f5f5" stroke="transparent" points="511,-157.7 511,-180.7 653,-180.7 653,-157.7 511,-157.7"/>
<polygon fill="none" stroke="#000000" points="511,-157.7 511,-180.7 653,-180.7 653,-157.7 511,-157.7"/>
<text text-anchor="start" x="516" y="-166.3" font-family="Helvetica,sans-Serif" font-weight="bold" font-size="11.00" fill="#000000">order_receiveitem</text>
<text text-anchor="start" x="618.5219" y="-165.8" font-family="Helvetica,sans-Serif" font-size="11.00" fill="#000000">[table]</text>
<polygon fill="none" stroke="#000000" points="511,-138.7 511,-157.7 653,-157.7 653,-138.7 511,-138.7"/>
<text text-anchor="start" x="514" y="-144.8" font-family="Helvetica,sans-Serif" font-size="11.00" fill="#000000">...</text>
<polygon fill="#ffffff" stroke="transparent" points="511,-119.7 511,-138.7 554,-138.7 554,-119.7 511,-119.7"/>
<polygon fill="none" stroke="#000000" points="511,-119.7 511,-138.7 554,-138.7 554,-119.7 511,-119.7"/>
<text text-anchor="start" x="514" y="-125.8" font-family="Helvetica,sans-Serif" font-size="11.00" fill="#000000">&lt; 2</text>
<polygon fill="#ffffff" stroke="transparent" points="554,-119.7 554,-138.7 630,-138.7 630,-119.7 554,-119.7"/>
<polygon fill="none" stroke="#000000" points="554,-119.7 554,-138.7 630,-138.7 630,-119.7 554,-119.7"/>
<text text-anchor="start" x="567.094" y="-125.8" font-family="Helvetica,sans-Serif" font-size="11.00" fill="#000000">18,922 rows</text>
<polygon fill="#ffffff" stroke="transparent" points="630,-119.7 630,-138.7 653,-138.7 653,-119.7 630,-119.7"/>
<polygon fill="none" stroke="#000000" points="630,-119.7 630,-138.7 653,-138.7 653,-119.7 630,-119.7"/>
<text text-anchor="start" x="643.8862" y="-125.8" font-family="Helvetica,sans-Serif" font-size="11.00" fill="#000000"> &#160;</text>
</a>
</g>
</g>
<!-- order_receiveitem&#45;&gt;common_product -->
<g id="edge8" class="edge">
<title>order_receiveitem:w&#45;&gt;common_product:e</title>
<path fill="none" stroke="#000000" d="M496.3228,-148.5497C469.879,-151.9327 457.3211,-165.5949 441,-192.7 413.5048,-238.3624 453.8014,-670.7 400.5,-670.7"/>
<polygon fill="#000000" stroke="#000000" points="503.0134,-148.1624 511.2081,-151.294 507.0067,-147.9312 511,-147.7 511,-147.7 511,-147.7 507.0067,-147.9312 510.7919,-144.106 503.0134,-148.1624 503.0134,-148.1624"/>
<ellipse fill="none" stroke="#000000" cx="499.8187" cy="-148.3474" rx="3.2" ry="3.2"/>
</g>
<!-- order_saleitem -->
<g id="node9" class="node">
<title>order_saleitem</title>
<g id="a_node9"><a xlink:href="../../tables/order_saleitem.html" xlink:title="order_saleitem" target="_top">
<polygon fill="#ffffff" stroke="transparent" points="520,-38.2 520,-99.2 644,-99.2 644,-38.2 520,-38.2"/>
<polygon fill="#f5f5f5" stroke="transparent" points="520,-75.7 520,-98.7 644,-98.7 644,-75.7 520,-75.7"/>
<polygon fill="none" stroke="#000000" points="520,-75.7 520,-98.7 644,-98.7 644,-75.7 520,-75.7"/>
<text text-anchor="start" x="525" y="-84.3" font-family="Helvetica,sans-Serif" font-weight="bold" font-size="11.00" fill="#000000">order_saleitem</text>
<text text-anchor="start" x="609.5219" y="-83.8" font-family="Helvetica,sans-Serif" font-size="11.00" fill="#000000">[table]</text>
<polygon fill="none" stroke="#000000" points="520,-56.7 520,-75.7 644,-75.7 644,-56.7 520,-56.7"/>
<text text-anchor="start" x="523" y="-62.8" font-family="Helvetica,sans-Serif" font-size="11.00" fill="#000000">...</text>
<polygon fill="#ffffff" stroke="transparent" points="520,-37.7 520,-56.7 561,-56.7 561,-37.7 520,-37.7"/>
<polygon fill="none" stroke="#000000" points="520,-37.7 520,-56.7 561,-56.7 561,-37.7 520,-37.7"/>
<text text-anchor="start" x="523" y="-43.8" font-family="Helvetica,sans-Serif" font-size="11.00" fill="#000000">&lt; 2</text>
<polygon fill="#ffffff" stroke="transparent" points="561,-37.7 561,-56.7 621,-56.7 621,-37.7 561,-37.7"/>
<polygon fill="none" stroke="#000000" points="561,-37.7 561,-56.7 621,-56.7 621,-37.7 561,-37.7"/>
<text text-anchor="start" x="573.3807" y="-43.8" font-family="Helvetica,sans-Serif" font-size="11.00" fill="#000000">659 rows</text>
<polygon fill="#ffffff" stroke="transparent" points="621,-37.7 621,-56.7 644,-56.7 644,-37.7 621,-37.7"/>
<polygon fill="none" stroke="#000000" points="621,-37.7 621,-56.7 644,-56.7 644,-37.7 621,-37.7"/>
<text text-anchor="start" x="634.8862" y="-43.8" font-family="Helvetica,sans-Serif" font-size="11.00" fill="#000000"> &#160;</text>
</a>
</g>
</g>
<!-- order_saleitem&#45;&gt;common_product -->
<g id="edge9" class="edge">
<title>order_saleitem:w&#45;&gt;common_product:e</title>
<path fill="none" stroke="#000000" d="M505.5447,-66.2331C475.2998,-68.7009 459.8137,-80.1759 441,-109.7 407.4152,-162.4044 462.9956,-670.7 400.5,-670.7"/>
<polygon fill="#000000" stroke="#000000" points="512.0054,-65.9949 520.1327,-69.2976 516.0027,-65.8475 520,-65.7 520,-65.7 520,-65.7 516.0027,-65.8475 519.8673,-62.1024 512.0054,-65.9949 512.0054,-65.9949"/>
<ellipse fill="none" stroke="#000000" cx="508.8076" cy="-66.1129" rx="3.2" ry="3.2"/>
</g>
</g>
</svg>
