<?xml version="1.0" encoding="UTF-8" standalone="no"?>
<!DOCTYPE svg PUBLIC "-//W3C//DTD SVG 1.1//EN"
 "http://www.w3.org/Graphics/SVG/1.1/DTD/svg11.dtd">
<!-- Generated by graphviz version 2.40.1 (20161225.0304)
 -->
<!-- Title: oneDegreeRelationshipsDiagram Pages: 1 -->
<svg width="492pt" height="557pt"
 viewBox="0.00 0.00 492.00 556.70" xmlns="http://www.w3.org/2000/svg" xmlns:xlink="http://www.w3.org/1999/xlink">
<g id="graph0" class="graph" transform="scale(1 1) rotate(0) translate(4 552.7)">
<title>oneDegreeRelationshipsDiagram</title>
<polygon fill="#ffffff" stroke="transparent" points="-4,4 -4,-552.7 488,-552.7 488,4 -4,4"/>
<text text-anchor="middle" x="72.4936" y="-7.3" font-family="Helvetica,sans-Serif" font-size="11.00" fill="#000000">Generated by SchemaSpy</text>
<!-- order_receiveitem -->
<g id="node1" class="node">
<title>order_receiveitem</title>
<g id="a_node1"><a xlink:href="../../tables/order_receiveitem.html" xlink:title="order_receiveitem" target="_top">
<polygon fill="#ffffff" stroke="transparent" points="313,-417.7 313,-544.7 476,-544.7 476,-417.7 313,-417.7"/>
<polygon fill="#f5f5f5" stroke="transparent" points="313.5,-521.2 313.5,-544.2 476.5,-544.2 476.5,-521.2 313.5,-521.2"/>
<polygon fill="none" stroke="#000000" points="313.5,-521.2 313.5,-544.2 476.5,-544.2 476.5,-521.2 313.5,-521.2"/>
<text text-anchor="start" x="318.5" y="-529.8" font-family="Helvetica,sans-Serif" font-weight="bold" font-size="11.00" fill="#000000">order_receiveitem</text>
<text text-anchor="start" x="441.5437" y="-529.3" font-family="Helvetica,sans-Serif" font-size="11.00" fill="#000000">[table]</text>
<polygon fill="none" stroke="#000000" points="313.5,-499.2 313.5,-521.2 476.5,-521.2 476.5,-499.2 313.5,-499.2"/>
<image xlink:href="../../images/primaryKeys.png" width="11px" height="12px" preserveAspectRatio="xMinYMin meet" x="318.5" y="-516.2"/>
<text text-anchor="start" x="333.5" y="-506.3" font-family="Helvetica,sans-Serif" font-size="11.00" fill="#000000">ID</text>
<polygon fill="#ffffff" stroke="transparent" points="313.5,-477.2 313.5,-499.2 476.5,-499.2 476.5,-477.2 313.5,-477.2"/>
<polygon fill="none" stroke="#000000" points="313.5,-477.2 313.5,-499.2 476.5,-499.2 476.5,-477.2 313.5,-477.2"/>
<image xlink:href="../../images/foreignKeys.png" width="11px" height="12px" preserveAspectRatio="xMinYMin meet" x="318.5" y="-494.2"/>
<text text-anchor="start" x="333.5" y="-484.3" font-family="Helvetica,sans-Serif" font-size="11.00" fill="#000000">Order_ReceiveFK</text>
<polygon fill="#ffffff" stroke="transparent" points="313.5,-455.2 313.5,-477.2 476.5,-477.2 476.5,-455.2 313.5,-455.2"/>
<polygon fill="none" stroke="#000000" points="313.5,-455.2 313.5,-477.2 476.5,-477.2 476.5,-455.2 313.5,-455.2"/>
<image xlink:href="../../images/foreignKeys.png" width="11px" height="12px" preserveAspectRatio="xMinYMin meet" x="318.5" y="-472.2"/>
<text text-anchor="start" x="333.5" y="-462.3" font-family="Helvetica,sans-Serif" font-size="11.00" fill="#000000">Common_ProductFK</text>
<polygon fill="none" stroke="#000000" points="313.5,-436.2 313.5,-455.2 476.5,-455.2 476.5,-436.2 313.5,-436.2"/>
<text text-anchor="start" x="316.5" y="-442.3" font-family="Helvetica,sans-Serif" font-size="11.00" fill="#000000">...</text>
<polygon fill="#ffffff" stroke="transparent" points="313.5,-417.2 313.5,-436.2 366.5,-436.2 366.5,-417.2 313.5,-417.2"/>
<polygon fill="none" stroke="#000000" points="313.5,-417.2 313.5,-436.2 366.5,-436.2 366.5,-417.2 313.5,-417.2"/>
<text text-anchor="start" x="316.5" y="-423.3" font-family="Helvetica,sans-Serif" font-size="11.00" fill="#000000">&lt; 2</text>
<polygon fill="#ffffff" stroke="transparent" points="366.5,-417.2 366.5,-436.2 447.5,-436.2 447.5,-417.2 366.5,-417.2"/>
<polygon fill="none" stroke="#000000" points="366.5,-417.2 366.5,-436.2 447.5,-436.2 447.5,-417.2 366.5,-417.2"/>
<text text-anchor="start" x="384.594" y="-423.3" font-family="Helvetica,sans-Serif" font-size="11.00" fill="#000000">18,922 rows</text>
<polygon fill="#ffffff" stroke="transparent" points="447.5,-417.2 447.5,-436.2 476.5,-436.2 476.5,-417.2 447.5,-417.2"/>
<polygon fill="none" stroke="#000000" points="447.5,-417.2 447.5,-436.2 476.5,-436.2 476.5,-417.2 447.5,-417.2"/>
<text text-anchor="start" x="467.3862" y="-423.3" font-family="Helvetica,sans-Serif" font-size="11.00" fill="#000000"> &#160;</text>
</a>
</g>
</g>
<!-- order_receive -->
<g id="node2" class="node">
<title>order_receive</title>
<g id="a_node2"><a xlink:href="../../tables/order_receive.html" xlink:title="order_receive" target="_top">
<polygon fill="#ffffff" stroke="transparent" points="8,-38.2 8,-524.2 264,-524.2 264,-38.2 8,-38.2"/>
<polygon fill="#f5f5f5" stroke="transparent" points="10,-499.2 10,-522.2 262,-522.2 262,-499.2 10,-499.2"/>
<polygon fill="none" stroke="#000000" points="10,-499.2 10,-522.2 262,-522.2 262,-499.2 10,-499.2"/>
<text text-anchor="start" x="15" y="-507.8" font-family="Helvetica,sans-Serif" font-weight="bold" font-size="11.00" fill="#000000">order_receive</text>
<text text-anchor="start" x="227.0437" y="-507.3" font-family="Helvetica,sans-Serif" font-size="11.00" fill="#000000">[table]</text>
<polygon fill="none" stroke="#000000" points="10,-477.2 10,-499.2 151,-499.2 151,-477.2 10,-477.2"/>
<image xlink:href="../../images/primaryKeys.png" width="11px" height="12px" preserveAspectRatio="xMinYMin meet" x="15" y="-494.2"/>
<text text-anchor="start" x="30" y="-484.3" font-family="Helvetica,sans-Serif" font-size="11.00" fill="#000000">ID</text>
<polygon fill="none" stroke="#000000" points="151,-477.2 151,-499.2 262,-499.2 262,-477.2 151,-477.2"/>
<text text-anchor="start" x="154" y="-484.9" font-family="Helvetica,sans-Serif" font-size="11.00" fill="#000000">int[10]</text>
<polygon fill="none" stroke="#000000" points="10,-455.2 10,-477.2 151,-477.2 151,-455.2 10,-455.2"/>
<text text-anchor="start" x="30" y="-462.3" font-family="Helvetica,sans-Serif" font-size="11.00" fill="#000000">Active</text>
<polygon fill="none" stroke="#000000" points="151,-455.2 151,-477.2 262,-477.2 262,-455.2 151,-455.2"/>
<text text-anchor="start" x="154" y="-462.9" font-family="Helvetica,sans-Serif" font-size="11.00" fill="#000000">bit[1]</text>
<polygon fill="none" stroke="#000000" points="10,-433.2 10,-455.2 151,-455.2 151,-433.2 10,-433.2"/>
<text text-anchor="start" x="30" y="-440.3" font-family="Helvetica,sans-Serif" font-size="11.00" fill="#000000">User</text>
<polygon fill="none" stroke="#000000" points="151,-433.2 151,-455.2 262,-455.2 262,-433.2 151,-433.2"/>
<text text-anchor="start" x="153.6115" y="-440.9" font-family="Helvetica,sans-Serif" font-size="11.00" fill="#000000">longtext[2147483647]</text>
<polygon fill="none" stroke="#000000" points="10,-411.2 10,-433.2 151,-433.2 151,-411.2 10,-411.2"/>
<text text-anchor="start" x="30" y="-418.3" font-family="Helvetica,sans-Serif" font-size="11.00" fill="#000000">CD</text>
<polygon fill="none" stroke="#000000" points="151,-411.2 151,-433.2 262,-433.2 262,-411.2 151,-411.2"/>
<text text-anchor="start" x="154" y="-418.9" font-family="Helvetica,sans-Serif" font-size="11.00" fill="#000000">datetime[26]</text>
<polygon fill="none" stroke="#000000" points="10,-389.2 10,-411.2 151,-411.2 151,-389.2 10,-389.2"/>
<text text-anchor="start" x="30" y="-396.3" font-family="Helvetica,sans-Serif" font-size="11.00" fill="#000000">UD</text>
<polygon fill="none" stroke="#000000" points="151,-389.2 151,-411.2 262,-411.2 262,-389.2 151,-389.2"/>
<text text-anchor="start" x="154" y="-396.9" font-family="Helvetica,sans-Serif" font-size="11.00" fill="#000000">datetime[26]</text>
<polygon fill="none" stroke="#000000" points="10,-367.2 10,-389.2 151,-389.2 151,-367.2 10,-367.2"/>
<text text-anchor="start" x="30" y="-374.3" font-family="Helvetica,sans-Serif" font-size="11.00" fill="#000000">Remarks</text>
<polygon fill="none" stroke="#000000" points="151,-367.2 151,-389.2 262,-389.2 262,-367.2 151,-367.2"/>
<text text-anchor="start" x="153.6115" y="-374.9" font-family="Helvetica,sans-Serif" font-size="11.00" fill="#000000">longtext[2147483647]</text>
<polygon fill="none" stroke="#000000" points="10,-345.2 10,-367.2 151,-367.2 151,-345.2 10,-345.2"/>
<text text-anchor="start" x="30" y="-352.3" font-family="Helvetica,sans-Serif" font-size="11.00" fill="#000000">UserID</text>
<polygon fill="none" stroke="#000000" points="151,-345.2 151,-367.2 262,-367.2 262,-345.2 151,-345.2"/>
<text text-anchor="start" x="154" y="-352.9" font-family="Helvetica,sans-Serif" font-size="11.00" fill="#000000">int[10]</text>
<polygon fill="none" stroke="#000000" points="10,-323.2 10,-345.2 151,-345.2 151,-323.2 10,-323.2"/>
<text text-anchor="start" x="30" y="-330.3" font-family="Helvetica,sans-Serif" font-size="11.00" fill="#000000">Code</text>
<polygon fill="none" stroke="#000000" points="151,-323.2 151,-345.2 262,-345.2 262,-323.2 151,-323.2"/>
<text text-anchor="start" x="153.6115" y="-330.9" font-family="Helvetica,sans-Serif" font-size="11.00" fill="#000000">longtext[2147483647]</text>
<polygon fill="none" stroke="#000000" points="10,-301.2 10,-323.2 151,-323.2 151,-301.2 10,-301.2"/>
<text text-anchor="start" x="30" y="-308.3" font-family="Helvetica,sans-Serif" font-size="11.00" fill="#000000">ReceiveDate</text>
<polygon fill="none" stroke="#000000" points="151,-301.2 151,-323.2 262,-323.2 262,-301.2 151,-301.2"/>
<text text-anchor="start" x="154" y="-308.9" font-family="Helvetica,sans-Serif" font-size="11.00" fill="#000000">datetime[26]</text>
<polygon fill="none" stroke="#000000" points="10,-279.2 10,-301.2 151,-301.2 151,-279.2 10,-279.2"/>
<text text-anchor="start" x="30" y="-286.3" font-family="Helvetica,sans-Serif" font-size="11.00" fill="#000000">DeliveryDate</text>
<polygon fill="none" stroke="#000000" points="151,-279.2 151,-301.2 262,-301.2 262,-279.2 151,-279.2"/>
<text text-anchor="start" x="154" y="-286.9" font-family="Helvetica,sans-Serif" font-size="11.00" fill="#000000">datetime[26]</text>
<polygon fill="none" stroke="#000000" points="10,-257.2 10,-279.2 151,-279.2 151,-257.2 10,-257.2"/>
<text text-anchor="start" x="30" y="-264.3" font-family="Helvetica,sans-Serif" font-size="11.00" fill="#000000">OrderNo</text>
<polygon fill="none" stroke="#000000" points="151,-257.2 151,-279.2 262,-279.2 262,-257.2 151,-257.2"/>
<text text-anchor="start" x="153.6115" y="-264.9" font-family="Helvetica,sans-Serif" font-size="11.00" fill="#000000">longtext[2147483647]</text>
<polygon fill="none" stroke="#000000" points="10,-235.2 10,-257.2 151,-257.2 151,-235.2 10,-235.2"/>
<text text-anchor="start" x="30" y="-242.3" font-family="Helvetica,sans-Serif" font-size="11.00" fill="#000000">PINo</text>
<polygon fill="none" stroke="#000000" points="151,-235.2 151,-257.2 262,-257.2 262,-235.2 151,-235.2"/>
<text text-anchor="start" x="153.6115" y="-242.9" font-family="Helvetica,sans-Serif" font-size="11.00" fill="#000000">longtext[2147483647]</text>
<polygon fill="none" stroke="#000000" points="10,-213.2 10,-235.2 151,-235.2 151,-213.2 10,-213.2"/>
<text text-anchor="start" x="30" y="-220.3" font-family="Helvetica,sans-Serif" font-size="11.00" fill="#000000">IsConfirmed</text>
<polygon fill="none" stroke="#000000" points="151,-213.2 151,-235.2 262,-235.2 262,-213.2 151,-213.2"/>
<text text-anchor="start" x="154" y="-220.9" font-family="Helvetica,sans-Serif" font-size="11.00" fill="#000000">bit[1]</text>
<polygon fill="none" stroke="#000000" points="10,-191.2 10,-213.2 151,-213.2 151,-191.2 10,-191.2"/>
<text text-anchor="start" x="30" y="-198.3" font-family="Helvetica,sans-Serif" font-size="11.00" fill="#000000">SupplierFK</text>
<polygon fill="none" stroke="#000000" points="151,-191.2 151,-213.2 262,-213.2 262,-191.2 151,-191.2"/>
<text text-anchor="start" x="154" y="-198.9" font-family="Helvetica,sans-Serif" font-size="11.00" fill="#000000">int[10]</text>
<polygon fill="none" stroke="#000000" points="10,-169.2 10,-191.2 151,-191.2 151,-169.2 10,-169.2"/>
<text text-anchor="start" x="30" y="-176.3" font-family="Helvetica,sans-Serif" font-size="11.00" fill="#000000">Common_DealerFK</text>
<polygon fill="none" stroke="#000000" points="151,-169.2 151,-191.2 262,-191.2 262,-169.2 151,-169.2"/>
<text text-anchor="start" x="154" y="-176.9" font-family="Helvetica,sans-Serif" font-size="11.00" fill="#000000">int[10]</text>
<polygon fill="none" stroke="#000000" points="10,-147.2 10,-169.2 151,-169.2 151,-147.2 10,-147.2"/>
<text text-anchor="start" x="30" y="-154.3" font-family="Helvetica,sans-Serif" font-size="11.00" fill="#000000">PaymentTypeID</text>
<polygon fill="none" stroke="#000000" points="151,-147.2 151,-169.2 262,-169.2 262,-147.2 151,-147.2"/>
<text text-anchor="start" x="154" y="-154.9" font-family="Helvetica,sans-Serif" font-size="11.00" fill="#000000">int[10]</text>
<polygon fill="none" stroke="#000000" points="10,-125.2 10,-147.2 151,-147.2 151,-125.2 10,-125.2"/>
<text text-anchor="start" x="30" y="-132.3" font-family="Helvetica,sans-Serif" font-size="11.00" fill="#000000">ReceiveTypeID</text>
<polygon fill="none" stroke="#000000" points="151,-125.2 151,-147.2 262,-147.2 262,-125.2 151,-125.2"/>
<text text-anchor="start" x="154" y="-132.9" font-family="Helvetica,sans-Serif" font-size="11.00" fill="#000000">int[10]</text>
<polygon fill="none" stroke="#000000" points="10,-103.2 10,-125.2 151,-125.2 151,-103.2 10,-103.2"/>
<text text-anchor="start" x="30" y="-110.3" font-family="Helvetica,sans-Serif" font-size="11.00" fill="#000000">WarehouseFK</text>
<polygon fill="none" stroke="#000000" points="151,-103.2 151,-125.2 262,-125.2 262,-103.2 151,-103.2"/>
<text text-anchor="start" x="154" y="-110.9" font-family="Helvetica,sans-Serif" font-size="11.00" fill="#000000">int[10]</text>
<polygon fill="none" stroke="#000000" points="10,-81.2 10,-103.2 151,-103.2 151,-81.2 10,-81.2"/>
<text text-anchor="start" x="30" y="-88.3" font-family="Helvetica,sans-Serif" font-size="11.00" fill="#000000">Order_ProjectFk</text>
<polygon fill="none" stroke="#000000" points="151,-81.2 151,-103.2 262,-103.2 262,-81.2 151,-81.2"/>
<text text-anchor="start" x="154" y="-88.9" font-family="Helvetica,sans-Serif" font-size="11.00" fill="#000000">int[10]</text>
<polygon fill="none" stroke="#000000" points="10,-59.2 10,-81.2 151,-81.2 151,-59.2 10,-59.2"/>
<text text-anchor="start" x="30" y="-66.3" font-family="Helvetica,sans-Serif" font-size="11.00" fill="#000000">RefOrder_ReceiveFK</text>
<polygon fill="none" stroke="#000000" points="151,-59.2 151,-81.2 262,-81.2 262,-59.2 151,-59.2"/>
<text text-anchor="start" x="154" y="-66.9" font-family="Helvetica,sans-Serif" font-size="11.00" fill="#000000">int[10]</text>
<polygon fill="#ffffff" stroke="transparent" points="10,-40.2 10,-59.2 66,-59.2 66,-40.2 10,-40.2"/>
<polygon fill="none" stroke="#000000" points="10,-40.2 10,-59.2 66,-59.2 66,-40.2 10,-40.2"/>
<text text-anchor="start" x="13" y="-46.3" font-family="Helvetica,sans-Serif" font-size="11.00" fill="#000000">&lt; 0</text>
<polygon fill="#ffffff" stroke="transparent" points="66,-40.2 66,-59.2 151,-59.2 151,-40.2 66,-40.2"/>
<polygon fill="none" stroke="#000000" points="66,-40.2 66,-59.2 151,-59.2 151,-40.2 66,-40.2"/>
<text text-anchor="start" x="103.3807" y="-46.3" font-family="Helvetica,sans-Serif" font-size="11.00" fill="#000000">137 rows</text>
<polygon fill="#ffffff" stroke="transparent" points="151,-40.2 151,-59.2 262,-59.2 262,-40.2 151,-40.2"/>
<polygon fill="none" stroke="#000000" points="151,-40.2 151,-59.2 262,-59.2 262,-40.2 151,-40.2"/>
<text text-anchor="start" x="243.4053" y="-46.3" font-family="Helvetica,sans-Serif" font-size="11.00" fill="#000000">1 &gt;</text>
<polygon fill="none" stroke="#000000" stroke-width="2" points="9,-39.2 9,-523.2 263,-523.2 263,-39.2 9,-39.2"/>
</a>
</g>
</g>
<!-- order_receiveitem&#45;&gt;order_receive -->
<g id="edge1" class="edge">
<title>order_receiveitem:w&#45;&gt;order_receive:e</title>
<path fill="none" stroke="#000000" d="M299.0156,-488.2C286.6771,-488.2 279.1667,-488.2 262,-488.2"/>
<polygon fill="#000000" stroke="#000000" points="305.5,-488.2001 313.5,-491.8 309.5,-488.2 313.5,-488.2 313.5,-488.2 313.5,-488.2 309.5,-488.2 313.5,-484.6 305.5,-488.2001 305.5,-488.2001"/>
<ellipse fill="none" stroke="#000000" cx="302.3" cy="-488.2001" rx="3.2" ry="3.2"/>
</g>
</g>
</svg>
