<?xml version="1.0" encoding="UTF-8" standalone="no"?>
<!DOCTYPE svg PUBLIC "-//W3C//DTD SVG 1.1//EN"
 "http://www.w3.org/Graphics/SVG/1.1/DTD/svg11.dtd">
<!-- Generated by graphviz version 2.40.1 (20161225.0304)
 -->
<!-- Title: oneDegreeRelationshipsDiagram Pages: 1 -->
<svg width="805pt" height="843pt"
 viewBox="0.00 0.00 805.00 842.70" xmlns="http://www.w3.org/2000/svg" xmlns:xlink="http://www.w3.org/1999/xlink">
<g id="graph0" class="graph" transform="scale(1 1) rotate(0) translate(4 838.7)">
<title>oneDegreeRelationshipsDiagram</title>
<polygon fill="#ffffff" stroke="transparent" points="-4,4 -4,-838.7 801,-838.7 801,4 -4,4"/>
<text text-anchor="middle" x="72.4936" y="-7.3" font-family="Helvetica,sans-Serif" font-size="11.00" fill="#000000">Generated by SchemaSpy</text>
<!-- order_sale -->
<g id="node1" class="node">
<title>order_sale</title>
<g id="a_node1"><a xlink:href="../../tables/order_sale.html" xlink:title="order_sale" target="_top">
<polygon fill="#ffffff" stroke="transparent" points="253,-38.2 253,-810.2 564,-810.2 564,-38.2 253,-38.2"/>
<polygon fill="#f5f5f5" stroke="transparent" points="255.5,-785.2 255.5,-808.2 562.5,-808.2 562.5,-785.2 255.5,-785.2"/>
<polygon fill="none" stroke="#000000" points="255.5,-785.2 255.5,-808.2 562.5,-808.2 562.5,-785.2 255.5,-785.2"/>
<text text-anchor="start" x="260.5" y="-793.8" font-family="Helvetica,sans-Serif" font-weight="bold" font-size="11.00" fill="#000000">order_sale</text>
<text text-anchor="start" x="527.5437" y="-793.3" font-family="Helvetica,sans-Serif" font-size="11.00" fill="#000000">[table]</text>
<polygon fill="none" stroke="#000000" points="255.5,-763.2 255.5,-785.2 451.5,-785.2 451.5,-763.2 255.5,-763.2"/>
<image xlink:href="../../images/primaryKeys.png" width="11px" height="12px" preserveAspectRatio="xMinYMin meet" x="260.5" y="-780.2"/>
<text text-anchor="start" x="275.5" y="-770.3" font-family="Helvetica,sans-Serif" font-size="11.00" fill="#000000">ID</text>
<polygon fill="none" stroke="#000000" points="451.5,-763.2 451.5,-785.2 562.5,-785.2 562.5,-763.2 451.5,-763.2"/>
<text text-anchor="start" x="454.5" y="-770.9" font-family="Helvetica,sans-Serif" font-size="11.00" fill="#000000">int[10]</text>
<polygon fill="none" stroke="#000000" points="255.5,-741.2 255.5,-763.2 451.5,-763.2 451.5,-741.2 255.5,-741.2"/>
<text text-anchor="start" x="275.5" y="-748.3" font-family="Helvetica,sans-Serif" font-size="11.00" fill="#000000">Active</text>
<polygon fill="none" stroke="#000000" points="451.5,-741.2 451.5,-763.2 562.5,-763.2 562.5,-741.2 451.5,-741.2"/>
<text text-anchor="start" x="454.5" y="-748.9" font-family="Helvetica,sans-Serif" font-size="11.00" fill="#000000">bit[1]</text>
<polygon fill="none" stroke="#000000" points="255.5,-719.2 255.5,-741.2 451.5,-741.2 451.5,-719.2 255.5,-719.2"/>
<text text-anchor="start" x="275.5" y="-726.3" font-family="Helvetica,sans-Serif" font-size="11.00" fill="#000000">User</text>
<polygon fill="none" stroke="#000000" points="451.5,-719.2 451.5,-741.2 562.5,-741.2 562.5,-719.2 451.5,-719.2"/>
<text text-anchor="start" x="454.1115" y="-726.9" font-family="Helvetica,sans-Serif" font-size="11.00" fill="#000000">longtext[2147483647]</text>
<polygon fill="none" stroke="#000000" points="255.5,-697.2 255.5,-719.2 451.5,-719.2 451.5,-697.2 255.5,-697.2"/>
<text text-anchor="start" x="275.5" y="-704.3" font-family="Helvetica,sans-Serif" font-size="11.00" fill="#000000">CD</text>
<polygon fill="none" stroke="#000000" points="451.5,-697.2 451.5,-719.2 562.5,-719.2 562.5,-697.2 451.5,-697.2"/>
<text text-anchor="start" x="454.5" y="-704.9" font-family="Helvetica,sans-Serif" font-size="11.00" fill="#000000">datetime[26]</text>
<polygon fill="none" stroke="#000000" points="255.5,-675.2 255.5,-697.2 451.5,-697.2 451.5,-675.2 255.5,-675.2"/>
<text text-anchor="start" x="275.5" y="-682.3" font-family="Helvetica,sans-Serif" font-size="11.00" fill="#000000">UD</text>
<polygon fill="none" stroke="#000000" points="451.5,-675.2 451.5,-697.2 562.5,-697.2 562.5,-675.2 451.5,-675.2"/>
<text text-anchor="start" x="454.5" y="-682.9" font-family="Helvetica,sans-Serif" font-size="11.00" fill="#000000">datetime[26]</text>
<polygon fill="none" stroke="#000000" points="255.5,-653.2 255.5,-675.2 451.5,-675.2 451.5,-653.2 255.5,-653.2"/>
<text text-anchor="start" x="275.5" y="-660.3" font-family="Helvetica,sans-Serif" font-size="11.00" fill="#000000">Remarks</text>
<polygon fill="none" stroke="#000000" points="451.5,-653.2 451.5,-675.2 562.5,-675.2 562.5,-653.2 451.5,-653.2"/>
<text text-anchor="start" x="454.1115" y="-660.9" font-family="Helvetica,sans-Serif" font-size="11.00" fill="#000000">longtext[2147483647]</text>
<polygon fill="none" stroke="#000000" points="255.5,-631.2 255.5,-653.2 451.5,-653.2 451.5,-631.2 255.5,-631.2"/>
<text text-anchor="start" x="275.5" y="-638.3" font-family="Helvetica,sans-Serif" font-size="11.00" fill="#000000">UserID</text>
<polygon fill="none" stroke="#000000" points="451.5,-631.2 451.5,-653.2 562.5,-653.2 562.5,-631.2 451.5,-631.2"/>
<text text-anchor="start" x="454.5" y="-638.9" font-family="Helvetica,sans-Serif" font-size="11.00" fill="#000000">int[10]</text>
<polygon fill="none" stroke="#000000" points="255.5,-609.2 255.5,-631.2 451.5,-631.2 451.5,-609.2 255.5,-609.2"/>
<text text-anchor="start" x="275.5" y="-616.3" font-family="Helvetica,sans-Serif" font-size="11.00" fill="#000000">Code</text>
<polygon fill="none" stroke="#000000" points="451.5,-609.2 451.5,-631.2 562.5,-631.2 562.5,-609.2 451.5,-609.2"/>
<text text-anchor="start" x="454.1115" y="-616.9" font-family="Helvetica,sans-Serif" font-size="11.00" fill="#000000">longtext[2147483647]</text>
<polygon fill="none" stroke="#000000" points="255.5,-587.2 255.5,-609.2 451.5,-609.2 451.5,-587.2 255.5,-587.2"/>
<text text-anchor="start" x="275.5" y="-594.3" font-family="Helvetica,sans-Serif" font-size="11.00" fill="#000000">InvoiceCode</text>
<polygon fill="none" stroke="#000000" points="451.5,-587.2 451.5,-609.2 562.5,-609.2 562.5,-587.2 451.5,-587.2"/>
<text text-anchor="start" x="454.1115" y="-594.9" font-family="Helvetica,sans-Serif" font-size="11.00" fill="#000000">longtext[2147483647]</text>
<polygon fill="none" stroke="#000000" points="255.5,-565.2 255.5,-587.2 451.5,-587.2 451.5,-565.2 255.5,-565.2"/>
<text text-anchor="start" x="275.5" y="-572.3" font-family="Helvetica,sans-Serif" font-size="11.00" fill="#000000">PONumber</text>
<polygon fill="none" stroke="#000000" points="451.5,-565.2 451.5,-587.2 562.5,-587.2 562.5,-565.2 451.5,-565.2"/>
<text text-anchor="start" x="454.1115" y="-572.9" font-family="Helvetica,sans-Serif" font-size="11.00" fill="#000000">longtext[2147483647]</text>
<polygon fill="#ffffff" stroke="transparent" points="255.5,-543.2 255.5,-565.2 451.5,-565.2 451.5,-543.2 255.5,-543.2"/>
<polygon fill="none" stroke="#000000" points="255.5,-543.2 255.5,-565.2 451.5,-565.2 451.5,-543.2 255.5,-543.2"/>
<image xlink:href="../../images/foreignKeys.png" width="11px" height="12px" preserveAspectRatio="xMinYMin meet" x="260.5" y="-560.2"/>
<text text-anchor="start" x="275.5" y="-550.3" font-family="Helvetica,sans-Serif" font-size="11.00" fill="#000000">Common_CustomerFK</text>
<polygon fill="none" stroke="#000000" points="451.5,-543.2 451.5,-565.2 562.5,-565.2 562.5,-543.2 451.5,-543.2"/>
<text text-anchor="start" x="454.5" y="-550.9" font-family="Helvetica,sans-Serif" font-size="11.00" fill="#000000">int[10]</text>
<polygon fill="#ffffff" stroke="transparent" points="255.5,-521.2 255.5,-543.2 451.5,-543.2 451.5,-521.2 255.5,-521.2"/>
<polygon fill="none" stroke="#000000" points="255.5,-521.2 255.5,-543.2 451.5,-543.2 451.5,-521.2 255.5,-521.2"/>
<image xlink:href="../../images/foreignKeys.png" width="11px" height="12px" preserveAspectRatio="xMinYMin meet" x="260.5" y="-538.2"/>
<text text-anchor="start" x="275.5" y="-528.3" font-family="Helvetica,sans-Serif" font-size="11.00" fill="#000000">Common_Dealer2FK</text>
<polygon fill="none" stroke="#000000" points="451.5,-521.2 451.5,-543.2 562.5,-543.2 562.5,-521.2 451.5,-521.2"/>
<text text-anchor="start" x="454.5" y="-528.9" font-family="Helvetica,sans-Serif" font-size="11.00" fill="#000000">int[10]</text>
<polygon fill="none" stroke="#000000" points="255.5,-499.2 255.5,-521.2 451.5,-521.2 451.5,-499.2 255.5,-499.2"/>
<text text-anchor="start" x="275.5" y="-506.3" font-family="Helvetica,sans-Serif" font-size="11.00" fill="#000000">Common_DealerFK</text>
<polygon fill="none" stroke="#000000" points="451.5,-499.2 451.5,-521.2 562.5,-521.2 562.5,-499.2 451.5,-499.2"/>
<text text-anchor="start" x="454.5" y="-506.9" font-family="Helvetica,sans-Serif" font-size="11.00" fill="#000000">int[10]</text>
<polygon fill="none" stroke="#000000" points="255.5,-477.2 255.5,-499.2 451.5,-499.2 451.5,-477.2 255.5,-477.2"/>
<text text-anchor="start" x="275.5" y="-484.3" font-family="Helvetica,sans-Serif" font-size="11.00" fill="#000000">SaleDate</text>
<polygon fill="none" stroke="#000000" points="451.5,-477.2 451.5,-499.2 562.5,-499.2 562.5,-477.2 451.5,-477.2"/>
<text text-anchor="start" x="454.5" y="-484.9" font-family="Helvetica,sans-Serif" font-size="11.00" fill="#000000">datetime[26]</text>
<polygon fill="none" stroke="#000000" points="255.5,-455.2 255.5,-477.2 451.5,-477.2 451.5,-455.2 255.5,-455.2"/>
<text text-anchor="start" x="275.5" y="-462.3" font-family="Helvetica,sans-Serif" font-size="11.00" fill="#000000">SalePrice</text>
<polygon fill="none" stroke="#000000" points="451.5,-455.2 451.5,-477.2 562.5,-477.2 562.5,-455.2 451.5,-455.2"/>
<text text-anchor="start" x="454.5" y="-462.9" font-family="Helvetica,sans-Serif" font-size="11.00" fill="#000000">decimal[18,5]</text>
<polygon fill="none" stroke="#000000" points="255.5,-433.2 255.5,-455.2 451.5,-455.2 451.5,-433.2 255.5,-433.2"/>
<text text-anchor="start" x="275.5" y="-440.3" font-family="Helvetica,sans-Serif" font-size="11.00" fill="#000000">DiscountAmount</text>
<polygon fill="none" stroke="#000000" points="451.5,-433.2 451.5,-455.2 562.5,-455.2 562.5,-433.2 451.5,-433.2"/>
<text text-anchor="start" x="454.5" y="-440.9" font-family="Helvetica,sans-Serif" font-size="11.00" fill="#000000">decimal[18,5]</text>
<polygon fill="none" stroke="#000000" points="255.5,-411.2 255.5,-433.2 451.5,-433.2 451.5,-411.2 255.5,-411.2"/>
<text text-anchor="start" x="275.5" y="-418.3" font-family="Helvetica,sans-Serif" font-size="11.00" fill="#000000">VatAmount</text>
<polygon fill="none" stroke="#000000" points="451.5,-411.2 451.5,-433.2 562.5,-433.2 562.5,-411.2 451.5,-411.2"/>
<text text-anchor="start" x="454.5" y="-418.9" font-family="Helvetica,sans-Serif" font-size="11.00" fill="#000000">decimal[18,5]</text>
<polygon fill="none" stroke="#000000" points="255.5,-389.2 255.5,-411.2 451.5,-411.2 451.5,-389.2 255.5,-389.2"/>
<text text-anchor="start" x="275.5" y="-396.3" font-family="Helvetica,sans-Serif" font-size="11.00" fill="#000000">AITAmount</text>
<polygon fill="none" stroke="#000000" points="451.5,-389.2 451.5,-411.2 562.5,-411.2 562.5,-389.2 451.5,-389.2"/>
<text text-anchor="start" x="454.5" y="-396.9" font-family="Helvetica,sans-Serif" font-size="11.00" fill="#000000">decimal[18,5]</text>
<polygon fill="none" stroke="#000000" points="255.5,-367.2 255.5,-389.2 451.5,-389.2 451.5,-367.2 255.5,-367.2"/>
<text text-anchor="start" x="275.5" y="-374.3" font-family="Helvetica,sans-Serif" font-size="11.00" fill="#000000">TotalCommission</text>
<polygon fill="none" stroke="#000000" points="451.5,-367.2 451.5,-389.2 562.5,-389.2 562.5,-367.2 451.5,-367.2"/>
<text text-anchor="start" x="454.5" y="-374.9" font-family="Helvetica,sans-Serif" font-size="11.00" fill="#000000">decimal[18,5]</text>
<polygon fill="none" stroke="#000000" points="255.5,-345.2 255.5,-367.2 451.5,-367.2 451.5,-345.2 255.5,-345.2"/>
<text text-anchor="start" x="275.5" y="-352.3" font-family="Helvetica,sans-Serif" font-size="11.00" fill="#000000">TotalChargeAmount</text>
<polygon fill="none" stroke="#000000" points="451.5,-345.2 451.5,-367.2 562.5,-367.2 562.5,-345.2 451.5,-345.2"/>
<text text-anchor="start" x="454.5" y="-352.9" font-family="Helvetica,sans-Serif" font-size="11.00" fill="#000000">decimal[18,5]</text>
<polygon fill="none" stroke="#000000" points="255.5,-323.2 255.5,-345.2 451.5,-345.2 451.5,-323.2 255.5,-323.2"/>
<text text-anchor="start" x="275.5" y="-330.3" font-family="Helvetica,sans-Serif" font-size="11.00" fill="#000000">CommissionRate</text>
<polygon fill="none" stroke="#000000" points="451.5,-323.2 451.5,-345.2 562.5,-345.2 562.5,-323.2 451.5,-323.2"/>
<text text-anchor="start" x="454.5" y="-330.9" font-family="Helvetica,sans-Serif" font-size="11.00" fill="#000000">decimal[18,5]</text>
<polygon fill="none" stroke="#000000" points="255.5,-301.2 255.5,-323.2 451.5,-323.2 451.5,-301.2 255.5,-301.2"/>
<text text-anchor="start" x="275.5" y="-308.3" font-family="Helvetica,sans-Serif" font-size="11.00" fill="#000000">Commission</text>
<polygon fill="none" stroke="#000000" points="451.5,-301.2 451.5,-323.2 562.5,-323.2 562.5,-301.2 451.5,-301.2"/>
<text text-anchor="start" x="454.5" y="-308.9" font-family="Helvetica,sans-Serif" font-size="11.00" fill="#000000">decimal[18,5]</text>
<polygon fill="none" stroke="#000000" points="255.5,-279.2 255.5,-301.2 451.5,-301.2 451.5,-279.2 255.5,-279.2"/>
<text text-anchor="start" x="275.5" y="-286.3" font-family="Helvetica,sans-Serif" font-size="11.00" fill="#000000">TotalReceivable</text>
<polygon fill="none" stroke="#000000" points="451.5,-279.2 451.5,-301.2 562.5,-301.2 562.5,-279.2 451.5,-279.2"/>
<text text-anchor="start" x="454.5" y="-286.9" font-family="Helvetica,sans-Serif" font-size="11.00" fill="#000000">decimal[18,5]</text>
<polygon fill="none" stroke="#000000" points="255.5,-257.2 255.5,-279.2 451.5,-279.2 451.5,-257.2 255.5,-257.2"/>
<text text-anchor="start" x="275.5" y="-264.3" font-family="Helvetica,sans-Serif" font-size="11.00" fill="#000000">IsConfirmed</text>
<polygon fill="none" stroke="#000000" points="451.5,-257.2 451.5,-279.2 562.5,-279.2 562.5,-257.2 451.5,-257.2"/>
<text text-anchor="start" x="454.5" y="-264.9" font-family="Helvetica,sans-Serif" font-size="11.00" fill="#000000">bit[1]</text>
<polygon fill="none" stroke="#000000" points="255.5,-235.2 255.5,-257.2 451.5,-257.2 451.5,-235.2 255.5,-235.2"/>
<text text-anchor="start" x="275.5" y="-242.3" font-family="Helvetica,sans-Serif" font-size="11.00" fill="#000000">SaleTypeID</text>
<polygon fill="none" stroke="#000000" points="451.5,-235.2 451.5,-257.2 562.5,-257.2 562.5,-235.2 451.5,-235.2"/>
<text text-anchor="start" x="454.5" y="-242.9" font-family="Helvetica,sans-Serif" font-size="11.00" fill="#000000">int[10]</text>
<polygon fill="none" stroke="#000000" points="255.5,-213.2 255.5,-235.2 451.5,-235.2 451.5,-213.2 255.5,-213.2"/>
<text text-anchor="start" x="275.5" y="-220.3" font-family="Helvetica,sans-Serif" font-size="11.00" fill="#000000">InvoiceVatTypeID</text>
<polygon fill="none" stroke="#000000" points="451.5,-213.2 451.5,-235.2 562.5,-235.2 562.5,-213.2 451.5,-213.2"/>
<text text-anchor="start" x="454.5" y="-220.9" font-family="Helvetica,sans-Serif" font-size="11.00" fill="#000000">int[10]</text>
<polygon fill="none" stroke="#000000" points="255.5,-191.2 255.5,-213.2 451.5,-213.2 451.5,-191.2 255.5,-191.2"/>
<text text-anchor="start" x="275.5" y="-198.3" font-family="Helvetica,sans-Serif" font-size="11.00" fill="#000000">Common_TermsNConditionFK</text>
<polygon fill="none" stroke="#000000" points="451.5,-191.2 451.5,-213.2 562.5,-213.2 562.5,-191.2 451.5,-191.2"/>
<text text-anchor="start" x="454.5" y="-198.9" font-family="Helvetica,sans-Serif" font-size="11.00" fill="#000000">int[10]</text>
<polygon fill="none" stroke="#000000" points="255.5,-169.2 255.5,-191.2 451.5,-191.2 451.5,-169.2 255.5,-169.2"/>
<text text-anchor="start" x="275.5" y="-176.3" font-family="Helvetica,sans-Serif" font-size="11.00" fill="#000000">Common_UnitFK</text>
<polygon fill="none" stroke="#000000" points="451.5,-169.2 451.5,-191.2 562.5,-191.2 562.5,-169.2 451.5,-169.2"/>
<text text-anchor="start" x="454.5" y="-176.9" font-family="Helvetica,sans-Serif" font-size="11.00" fill="#000000">int[10]</text>
<polygon fill="none" stroke="#000000" points="255.5,-147.2 255.5,-169.2 451.5,-169.2 451.5,-147.2 255.5,-147.2"/>
<text text-anchor="start" x="275.5" y="-154.3" font-family="Helvetica,sans-Serif" font-size="11.00" fill="#000000">ReferenceDealerFK</text>
<polygon fill="none" stroke="#000000" points="451.5,-147.2 451.5,-169.2 562.5,-169.2 562.5,-147.2 451.5,-147.2"/>
<text text-anchor="start" x="454.5" y="-154.9" font-family="Helvetica,sans-Serif" font-size="11.00" fill="#000000">int[10]</text>
<polygon fill="none" stroke="#000000" points="255.5,-125.2 255.5,-147.2 451.5,-147.2 451.5,-125.2 255.5,-125.2"/>
<text text-anchor="start" x="275.5" y="-132.3" font-family="Helvetica,sans-Serif" font-size="11.00" fill="#000000">IsCanceled</text>
<polygon fill="none" stroke="#000000" points="451.5,-125.2 451.5,-147.2 562.5,-147.2 562.5,-125.2 451.5,-125.2"/>
<text text-anchor="start" x="454.5" y="-132.9" font-family="Helvetica,sans-Serif" font-size="11.00" fill="#000000">bit[1]</text>
<polygon fill="none" stroke="#000000" points="255.5,-103.2 255.5,-125.2 451.5,-125.2 451.5,-103.2 255.5,-103.2"/>
<text text-anchor="start" x="275.5" y="-110.3" font-family="Helvetica,sans-Serif" font-size="11.00" fill="#000000">IsReceived</text>
<polygon fill="none" stroke="#000000" points="451.5,-103.2 451.5,-125.2 562.5,-125.2 562.5,-103.2 451.5,-103.2"/>
<text text-anchor="start" x="454.5" y="-110.9" font-family="Helvetica,sans-Serif" font-size="11.00" fill="#000000">bit[1]</text>
<polygon fill="none" stroke="#000000" points="255.5,-81.2 255.5,-103.2 451.5,-103.2 451.5,-81.2 255.5,-81.2"/>
<text text-anchor="start" x="275.5" y="-88.3" font-family="Helvetica,sans-Serif" font-size="11.00" fill="#000000">WarehouseFK</text>
<polygon fill="none" stroke="#000000" points="451.5,-81.2 451.5,-103.2 562.5,-103.2 562.5,-81.2 451.5,-81.2"/>
<text text-anchor="start" x="454.5" y="-88.9" font-family="Helvetica,sans-Serif" font-size="11.00" fill="#000000">int[10]</text>
<polygon fill="none" stroke="#000000" points="255.5,-59.2 255.5,-81.2 451.5,-81.2 451.5,-59.2 255.5,-59.2"/>
<text text-anchor="start" x="275.5" y="-66.3" font-family="Helvetica,sans-Serif" font-size="11.00" fill="#000000">Common_ShopFK</text>
<polygon fill="none" stroke="#000000" points="451.5,-59.2 451.5,-81.2 562.5,-81.2 562.5,-59.2 451.5,-59.2"/>
<text text-anchor="start" x="454.5" y="-66.9" font-family="Helvetica,sans-Serif" font-size="11.00" fill="#000000">int[10]</text>
<polygon fill="#ffffff" stroke="transparent" points="255.5,-40.2 255.5,-59.2 338.5,-59.2 338.5,-40.2 255.5,-40.2"/>
<polygon fill="none" stroke="#000000" points="255.5,-40.2 255.5,-59.2 338.5,-59.2 338.5,-40.2 255.5,-40.2"/>
<text text-anchor="start" x="258.5" y="-46.3" font-family="Helvetica,sans-Serif" font-size="11.00" fill="#000000">&lt; 2</text>
<polygon fill="#ffffff" stroke="transparent" points="338.5,-40.2 338.5,-59.2 451.5,-59.2 451.5,-40.2 338.5,-40.2"/>
<polygon fill="none" stroke="#000000" points="338.5,-40.2 338.5,-59.2 451.5,-59.2 451.5,-40.2 338.5,-40.2"/>
<text text-anchor="start" x="403.8807" y="-46.3" font-family="Helvetica,sans-Serif" font-size="11.00" fill="#000000">389 rows</text>
<polygon fill="#ffffff" stroke="transparent" points="451.5,-40.2 451.5,-59.2 562.5,-59.2 562.5,-40.2 451.5,-40.2"/>
<polygon fill="none" stroke="#000000" points="451.5,-40.2 451.5,-59.2 562.5,-59.2 562.5,-40.2 451.5,-40.2"/>
<text text-anchor="start" x="543.9053" y="-46.3" font-family="Helvetica,sans-Serif" font-size="11.00" fill="#000000">1 &gt;</text>
<polygon fill="none" stroke="#000000" stroke-width="2" points="254,-39.2 254,-809.2 563,-809.2 563,-39.2 254,-39.2"/>
</a>
</g>
</g>
<!-- common_customer -->
<g id="node2" class="node">
<title>common_customer</title>
<g id="a_node2"><a xlink:href="../../tables/common_customer.html" xlink:title="common_customer" target="_top">
<polygon fill="#ffffff" stroke="transparent" points="31.5,-546.7 31.5,-629.7 180.5,-629.7 180.5,-546.7 31.5,-546.7"/>
<polygon fill="#f5f5f5" stroke="transparent" points="32,-606.2 32,-629.2 181,-629.2 181,-606.2 32,-606.2"/>
<polygon fill="none" stroke="#000000" points="32,-606.2 32,-629.2 181,-629.2 181,-606.2 32,-606.2"/>
<text text-anchor="start" x="37" y="-614.8" font-family="Helvetica,sans-Serif" font-weight="bold" font-size="11.00" fill="#000000">common_customer</text>
<text text-anchor="start" x="146.5219" y="-614.3" font-family="Helvetica,sans-Serif" font-size="11.00" fill="#000000">[table]</text>
<polygon fill="none" stroke="#000000" points="32,-584.2 32,-606.2 181,-606.2 181,-584.2 32,-584.2"/>
<image xlink:href="../../images/primaryKeys.png" width="11px" height="12px" preserveAspectRatio="xMinYMin meet" x="37" y="-601.2"/>
<text text-anchor="start" x="61" y="-591.3" font-family="Helvetica,sans-Serif" font-size="11.00" fill="#000000">ID</text>
<polygon fill="none" stroke="#000000" points="32,-565.2 32,-584.2 181,-584.2 181,-565.2 32,-565.2"/>
<text text-anchor="start" x="35" y="-571.3" font-family="Helvetica,sans-Serif" font-size="11.00" fill="#000000">...</text>
<polygon fill="#ffffff" stroke="transparent" points="32,-546.2 32,-565.2 77,-565.2 77,-546.2 32,-546.2"/>
<polygon fill="none" stroke="#000000" points="32,-546.2 32,-565.2 77,-565.2 77,-546.2 32,-546.2"/>
<text text-anchor="start" x="35" y="-552.3" font-family="Helvetica,sans-Serif" font-size="11.00" fill="#000000"> &#160;</text>
<polygon fill="#ffffff" stroke="transparent" points="77,-546.2 77,-565.2 143,-565.2 143,-546.2 77,-546.2"/>
<polygon fill="none" stroke="#000000" points="77,-546.2 77,-565.2 143,-565.2 143,-546.2 77,-546.2"/>
<text text-anchor="start" x="95.3807" y="-552.3" font-family="Helvetica,sans-Serif" font-size="11.00" fill="#000000">147 rows</text>
<polygon fill="#ffffff" stroke="transparent" points="143,-546.2 143,-565.2 181,-565.2 181,-546.2 143,-546.2"/>
<polygon fill="none" stroke="#000000" points="143,-546.2 143,-565.2 181,-565.2 181,-546.2 143,-546.2"/>
<text text-anchor="start" x="162.4053" y="-552.3" font-family="Helvetica,sans-Serif" font-size="11.00" fill="#000000">2 &gt;</text>
</a>
</g>
</g>
<!-- order_sale&#45;&gt;common_customer -->
<g id="edge1" class="edge">
<title>order_sale:w&#45;&gt;common_customer:e</title>
<path fill="none" stroke="#000000" d="M240.9856,-556.642C217.1722,-565.4685 213.1841,-595.2 181,-595.2"/>
<polygon fill="#000000" stroke="#000000" points="247.6109,-555.5273 256.0973,-557.7501 251.5554,-554.8637 255.5,-554.2 255.5,-554.2 255.5,-554.2 251.5554,-554.8637 254.9027,-550.6499 247.6109,-555.5273 247.6109,-555.5273"/>
<ellipse fill="none" stroke="#000000" cx="244.4552" cy="-556.0583" rx="3.2" ry="3.2"/>
</g>
<!-- common_dealer -->
<g id="node3" class="node">
<title>common_dealer</title>
<g id="a_node3"><a xlink:href="../../tables/common_dealer.html" xlink:title="common_dealer" target="_top">
<polygon fill="#ffffff" stroke="transparent" points="8,-442.7 8,-525.7 204,-525.7 204,-442.7 8,-442.7"/>
<polygon fill="#f5f5f5" stroke="transparent" points="8,-502.2 8,-525.2 204,-525.2 204,-502.2 8,-502.2"/>
<polygon fill="none" stroke="#000000" points="8,-502.2 8,-525.2 204,-525.2 204,-502.2 8,-502.2"/>
<text text-anchor="start" x="13" y="-510.8" font-family="Helvetica,sans-Serif" font-weight="bold" font-size="11.00" fill="#000000">common_dealer</text>
<text text-anchor="start" x="169.0437" y="-510.3" font-family="Helvetica,sans-Serif" font-size="11.00" fill="#000000">[table]</text>
<polygon fill="none" stroke="#000000" points="8,-480.2 8,-502.2 204,-502.2 204,-480.2 8,-480.2"/>
<image xlink:href="../../images/primaryKeys.png" width="11px" height="12px" preserveAspectRatio="xMinYMin meet" x="13" y="-497.2"/>
<text text-anchor="start" x="28" y="-487.3" font-family="Helvetica,sans-Serif" font-size="11.00" fill="#000000">ID</text>
<polygon fill="none" stroke="#000000" points="8,-461.2 8,-480.2 204,-480.2 204,-461.2 8,-461.2"/>
<text text-anchor="start" x="11" y="-467.3" font-family="Helvetica,sans-Serif" font-size="11.00" fill="#000000">...</text>
<polygon fill="#ffffff" stroke="transparent" points="8,-442.2 8,-461.2 79,-461.2 79,-442.2 8,-442.2"/>
<polygon fill="none" stroke="#000000" points="8,-442.2 8,-461.2 79,-461.2 79,-442.2 8,-442.2"/>
<text text-anchor="start" x="11" y="-448.3" font-family="Helvetica,sans-Serif" font-size="11.00" fill="#000000"> &#160;</text>
<polygon fill="#ffffff" stroke="transparent" points="79,-442.2 79,-461.2 153,-461.2 153,-442.2 79,-442.2"/>
<polygon fill="none" stroke="#000000" points="79,-442.2 79,-461.2 153,-461.2 153,-442.2 79,-442.2"/>
<text text-anchor="start" x="111.4956" y="-448.3" font-family="Helvetica,sans-Serif" font-size="11.00" fill="#000000">62 rows</text>
<polygon fill="#ffffff" stroke="transparent" points="153,-442.2 153,-461.2 204,-461.2 204,-442.2 153,-442.2"/>
<polygon fill="none" stroke="#000000" points="153,-442.2 153,-461.2 204,-461.2 204,-442.2 153,-442.2"/>
<text text-anchor="start" x="185.4053" y="-448.3" font-family="Helvetica,sans-Serif" font-size="11.00" fill="#000000">4 &gt;</text>
</a>
</g>
</g>
<!-- order_sale&#45;&gt;common_dealer -->
<g id="edge2" class="edge">
<title>order_sale:w&#45;&gt;common_dealer:e</title>
<path fill="none" stroke="#000000" d="M241.5533,-527.8123C227.596,-517.2354 227.3139,-491.2 204,-491.2"/>
<polygon fill="#000000" stroke="#000000" points="247.8687,-529.7991 254.4196,-535.6341 251.6844,-530.9996 255.5,-532.2 255.5,-532.2 255.5,-532.2 251.6844,-530.9996 256.5804,-528.7659 247.8687,-529.7991 247.8687,-529.7991"/>
<ellipse fill="none" stroke="#000000" cx="244.8162" cy="-528.8388" rx="3.2" ry="3.2"/>
</g>
<!-- order_saleitem -->
<g id="node4" class="node">
<title>order_saleitem</title>
<g id="a_node4"><a xlink:href="../../tables/order_saleitem.html" xlink:title="order_saleitem" target="_top">
<polygon fill="#ffffff" stroke="transparent" points="613,-703.7 613,-830.7 789,-830.7 789,-703.7 613,-703.7"/>
<polygon fill="#f5f5f5" stroke="transparent" points="613,-807.2 613,-830.2 789,-830.2 789,-807.2 613,-807.2"/>
<polygon fill="none" stroke="#000000" points="613,-807.2 613,-830.2 789,-830.2 789,-807.2 613,-807.2"/>
<text text-anchor="start" x="618" y="-815.8" font-family="Helvetica,sans-Serif" font-weight="bold" font-size="11.00" fill="#000000">order_saleitem</text>
<text text-anchor="start" x="754.0437" y="-815.3" font-family="Helvetica,sans-Serif" font-size="11.00" fill="#000000">[table]</text>
<polygon fill="none" stroke="#000000" points="613,-785.2 613,-807.2 789,-807.2 789,-785.2 613,-785.2"/>
<image xlink:href="../../images/primaryKeys.png" width="11px" height="12px" preserveAspectRatio="xMinYMin meet" x="618" y="-802.2"/>
<text text-anchor="start" x="633" y="-792.3" font-family="Helvetica,sans-Serif" font-size="11.00" fill="#000000">ID</text>
<polygon fill="#ffffff" stroke="transparent" points="613,-763.2 613,-785.2 789,-785.2 789,-763.2 613,-763.2"/>
<polygon fill="none" stroke="#000000" points="613,-763.2 613,-785.2 789,-785.2 789,-763.2 613,-763.2"/>
<image xlink:href="../../images/foreignKeys.png" width="11px" height="12px" preserveAspectRatio="xMinYMin meet" x="618" y="-780.2"/>
<text text-anchor="start" x="633" y="-770.3" font-family="Helvetica,sans-Serif" font-size="11.00" fill="#000000">Order_SaleFK</text>
<polygon fill="#ffffff" stroke="transparent" points="613,-741.2 613,-763.2 789,-763.2 789,-741.2 613,-741.2"/>
<polygon fill="none" stroke="#000000" points="613,-741.2 613,-763.2 789,-763.2 789,-741.2 613,-741.2"/>
<image xlink:href="../../images/foreignKeys.png" width="11px" height="12px" preserveAspectRatio="xMinYMin meet" x="618" y="-758.2"/>
<text text-anchor="start" x="633" y="-748.3" font-family="Helvetica,sans-Serif" font-size="11.00" fill="#000000">Common_ProductFK</text>
<polygon fill="none" stroke="#000000" points="613,-722.2 613,-741.2 789,-741.2 789,-722.2 613,-722.2"/>
<text text-anchor="start" x="616" y="-728.3" font-family="Helvetica,sans-Serif" font-size="11.00" fill="#000000">...</text>
<polygon fill="#ffffff" stroke="transparent" points="613,-703.2 613,-722.2 680,-722.2 680,-703.2 613,-703.2"/>
<polygon fill="none" stroke="#000000" points="613,-703.2 613,-722.2 680,-722.2 680,-703.2 613,-703.2"/>
<text text-anchor="start" x="616" y="-709.3" font-family="Helvetica,sans-Serif" font-size="11.00" fill="#000000">&lt; 2</text>
<polygon fill="#ffffff" stroke="transparent" points="680,-703.2 680,-722.2 753,-722.2 753,-703.2 680,-703.2"/>
<polygon fill="none" stroke="#000000" points="680,-703.2 680,-722.2 753,-722.2 753,-703.2 680,-703.2"/>
<text text-anchor="start" x="705.3807" y="-709.3" font-family="Helvetica,sans-Serif" font-size="11.00" fill="#000000">659 rows</text>
<polygon fill="#ffffff" stroke="transparent" points="753,-703.2 753,-722.2 789,-722.2 789,-703.2 753,-703.2"/>
<polygon fill="none" stroke="#000000" points="753,-703.2 753,-722.2 789,-722.2 789,-703.2 753,-703.2"/>
<text text-anchor="start" x="779.8862" y="-709.3" font-family="Helvetica,sans-Serif" font-size="11.00" fill="#000000"> &#160;</text>
</a>
</g>
</g>
<!-- order_saleitem&#45;&gt;order_sale -->
<g id="edge3" class="edge">
<title>order_saleitem:w&#45;&gt;order_sale:e</title>
<path fill="none" stroke="#000000" d="M598.4203,-774.2C586.5435,-774.2 579.158,-774.2 562.5,-774.2"/>
<polygon fill="#000000" stroke="#000000" points="605,-774.2001 613,-777.8 609,-774.2 613,-774.2 613,-774.2 613,-774.2 609,-774.2 613,-770.6 605,-774.2001 605,-774.2001"/>
<ellipse fill="none" stroke="#000000" cx="601.8" cy="-774.2001" rx="3.2" ry="3.2"/>
</g>
</g>
</svg>
