<?xml version="1.0" encoding="UTF-8" standalone="no"?>
<!DOCTYPE svg PUBLIC "-//W3C//DTD SVG 1.1//EN"
 "http://www.w3.org/Graphics/SVG/1.1/DTD/svg11.dtd">
<!-- Generated by graphviz version 2.40.1 (20161225.0304)
 -->
<!-- Title: oneDegreeRelationshipsDiagramImplied Pages: 1 -->
<svg width="500pt" height="536pt"
 viewBox="0.00 0.00 500.00 536.20" xmlns="http://www.w3.org/2000/svg" xmlns:xlink="http://www.w3.org/1999/xlink">
<g id="graph0" class="graph" transform="scale(1 1) rotate(0) translate(4 532.2)">
<title>oneDegreeRelationshipsDiagramImplied</title>
<polygon fill="#ffffff" stroke="transparent" points="-4,4 -4,-532.2 496,-532.2 496,4 -4,4"/>
<text text-anchor="middle" x="72.4936" y="-7.3" font-family="Helvetica,sans-Serif" font-size="11.00" fill="#000000">Generated by SchemaSpy</text>
<!-- order_inventory -->
<g id="node1" class="node">
<title>order_inventory</title>
<g id="a_node1"><a xlink:href="../../tables/order_inventory.html" xlink:title="order_inventory" target="_top">
<polygon fill="#ffffff" stroke="transparent" points="228,-38.2 228,-524.2 484,-524.2 484,-38.2 228,-38.2"/>
<polygon fill="#f5f5f5" stroke="transparent" points="230,-499.2 230,-522.2 482,-522.2 482,-499.2 230,-499.2"/>
<polygon fill="none" stroke="#000000" points="230,-499.2 230,-522.2 482,-522.2 482,-499.2 230,-499.2"/>
<text text-anchor="start" x="235" y="-507.8" font-family="Helvetica,sans-Serif" font-weight="bold" font-size="11.00" fill="#000000">order_inventory</text>
<text text-anchor="start" x="447.0437" y="-507.3" font-family="Helvetica,sans-Serif" font-size="11.00" fill="#000000">[table]</text>
<polygon fill="none" stroke="#000000" points="230,-477.2 230,-499.2 371,-499.2 371,-477.2 230,-477.2"/>
<image xlink:href="../../images/primaryKeys.png" width="11px" height="12px" preserveAspectRatio="xMinYMin meet" x="235" y="-494.2"/>
<text text-anchor="start" x="250" y="-484.3" font-family="Helvetica,sans-Serif" font-size="11.00" fill="#000000">ID</text>
<polygon fill="none" stroke="#000000" points="371,-477.2 371,-499.2 482,-499.2 482,-477.2 371,-477.2"/>
<text text-anchor="start" x="374" y="-484.9" font-family="Helvetica,sans-Serif" font-size="11.00" fill="#000000">int[10]</text>
<polygon fill="none" stroke="#000000" points="230,-455.2 230,-477.2 371,-477.2 371,-455.2 230,-455.2"/>
<text text-anchor="start" x="250" y="-462.3" font-family="Helvetica,sans-Serif" font-size="11.00" fill="#000000">Active</text>
<polygon fill="none" stroke="#000000" points="371,-455.2 371,-477.2 482,-477.2 482,-455.2 371,-455.2"/>
<text text-anchor="start" x="374" y="-462.9" font-family="Helvetica,sans-Serif" font-size="11.00" fill="#000000">bit[1]</text>
<polygon fill="none" stroke="#000000" points="230,-433.2 230,-455.2 371,-455.2 371,-433.2 230,-433.2"/>
<text text-anchor="start" x="250" y="-440.3" font-family="Helvetica,sans-Serif" font-size="11.00" fill="#000000">User</text>
<polygon fill="none" stroke="#000000" points="371,-433.2 371,-455.2 482,-455.2 482,-433.2 371,-433.2"/>
<text text-anchor="start" x="373.6115" y="-440.9" font-family="Helvetica,sans-Serif" font-size="11.00" fill="#000000">longtext[2147483647]</text>
<polygon fill="none" stroke="#000000" points="230,-411.2 230,-433.2 371,-433.2 371,-411.2 230,-411.2"/>
<text text-anchor="start" x="250" y="-418.3" font-family="Helvetica,sans-Serif" font-size="11.00" fill="#000000">CD</text>
<polygon fill="none" stroke="#000000" points="371,-411.2 371,-433.2 482,-433.2 482,-411.2 371,-411.2"/>
<text text-anchor="start" x="374" y="-418.9" font-family="Helvetica,sans-Serif" font-size="11.00" fill="#000000">datetime[26]</text>
<polygon fill="none" stroke="#000000" points="230,-389.2 230,-411.2 371,-411.2 371,-389.2 230,-389.2"/>
<text text-anchor="start" x="250" y="-396.3" font-family="Helvetica,sans-Serif" font-size="11.00" fill="#000000">UD</text>
<polygon fill="none" stroke="#000000" points="371,-389.2 371,-411.2 482,-411.2 482,-389.2 371,-389.2"/>
<text text-anchor="start" x="374" y="-396.9" font-family="Helvetica,sans-Serif" font-size="11.00" fill="#000000">datetime[26]</text>
<polygon fill="none" stroke="#000000" points="230,-367.2 230,-389.2 371,-389.2 371,-367.2 230,-367.2"/>
<text text-anchor="start" x="250" y="-374.3" font-family="Helvetica,sans-Serif" font-size="11.00" fill="#000000">Remarks</text>
<polygon fill="none" stroke="#000000" points="371,-367.2 371,-389.2 482,-389.2 482,-367.2 371,-367.2"/>
<text text-anchor="start" x="373.6115" y="-374.9" font-family="Helvetica,sans-Serif" font-size="11.00" fill="#000000">longtext[2147483647]</text>
<polygon fill="none" stroke="#000000" points="230,-345.2 230,-367.2 371,-367.2 371,-345.2 230,-345.2"/>
<text text-anchor="start" x="250" y="-352.3" font-family="Helvetica,sans-Serif" font-size="11.00" fill="#000000">UserID</text>
<polygon fill="none" stroke="#000000" points="371,-345.2 371,-367.2 482,-367.2 482,-345.2 371,-345.2"/>
<text text-anchor="start" x="374" y="-352.9" font-family="Helvetica,sans-Serif" font-size="11.00" fill="#000000">int[10]</text>
<polygon fill="#ffffff" stroke="transparent" points="230,-323.2 230,-345.2 371,-345.2 371,-323.2 230,-323.2"/>
<polygon fill="none" stroke="#000000" points="230,-323.2 230,-345.2 371,-345.2 371,-323.2 230,-323.2"/>
<image xlink:href="../../images/foreignKeys.png" width="11px" height="12px" preserveAspectRatio="xMinYMin meet" x="235" y="-340.2"/>
<text text-anchor="start" x="250" y="-330.3" font-family="Helvetica,sans-Serif" font-size="11.00" fill="#000000">Common_ProductFK</text>
<polygon fill="none" stroke="#000000" points="371,-323.2 371,-345.2 482,-345.2 482,-323.2 371,-323.2"/>
<text text-anchor="start" x="374" y="-330.9" font-family="Helvetica,sans-Serif" font-size="11.00" fill="#000000">int[10]</text>
<polygon fill="none" stroke="#000000" points="230,-301.2 230,-323.2 371,-323.2 371,-301.2 230,-301.2"/>
<text text-anchor="start" x="250" y="-308.3" font-family="Helvetica,sans-Serif" font-size="11.00" fill="#000000">TotalReceiveQty</text>
<polygon fill="none" stroke="#000000" points="371,-301.2 371,-323.2 482,-323.2 482,-301.2 371,-301.2"/>
<text text-anchor="start" x="374" y="-308.9" font-family="Helvetica,sans-Serif" font-size="11.00" fill="#000000">int[10]</text>
<polygon fill="none" stroke="#000000" points="230,-279.2 230,-301.2 371,-301.2 371,-279.2 230,-279.2"/>
<text text-anchor="start" x="250" y="-286.3" font-family="Helvetica,sans-Serif" font-size="11.00" fill="#000000">TotalSaleQty</text>
<polygon fill="none" stroke="#000000" points="371,-279.2 371,-301.2 482,-301.2 482,-279.2 371,-279.2"/>
<text text-anchor="start" x="374" y="-286.9" font-family="Helvetica,sans-Serif" font-size="11.00" fill="#000000">int[10]</text>
<polygon fill="none" stroke="#000000" points="230,-257.2 230,-279.2 371,-279.2 371,-257.2 230,-257.2"/>
<text text-anchor="start" x="250" y="-264.3" font-family="Helvetica,sans-Serif" font-size="11.00" fill="#000000">StockQty</text>
<polygon fill="none" stroke="#000000" points="371,-257.2 371,-279.2 482,-279.2 482,-257.2 371,-257.2"/>
<text text-anchor="start" x="374" y="-264.9" font-family="Helvetica,sans-Serif" font-size="11.00" fill="#000000">int[10]</text>
<polygon fill="none" stroke="#000000" points="230,-235.2 230,-257.2 371,-257.2 371,-235.2 230,-235.2"/>
<text text-anchor="start" x="250" y="-242.3" font-family="Helvetica,sans-Serif" font-size="11.00" fill="#000000">Common_DealerFK</text>
<polygon fill="none" stroke="#000000" points="371,-235.2 371,-257.2 482,-257.2 482,-235.2 371,-235.2"/>
<text text-anchor="start" x="374" y="-242.9" font-family="Helvetica,sans-Serif" font-size="11.00" fill="#000000">int[10]</text>
<polygon fill="none" stroke="#000000" points="230,-213.2 230,-235.2 371,-235.2 371,-213.2 230,-213.2"/>
<text text-anchor="start" x="250" y="-220.3" font-family="Helvetica,sans-Serif" font-size="11.00" fill="#000000">TotalTransferQty</text>
<polygon fill="none" stroke="#000000" points="371,-213.2 371,-235.2 482,-235.2 482,-213.2 371,-213.2"/>
<text text-anchor="start" x="374" y="-220.9" font-family="Helvetica,sans-Serif" font-size="11.00" fill="#000000">int[10]</text>
<polygon fill="none" stroke="#000000" points="230,-191.2 230,-213.2 371,-213.2 371,-191.2 230,-191.2"/>
<text text-anchor="start" x="250" y="-198.3" font-family="Helvetica,sans-Serif" font-size="11.00" fill="#000000">WarehouseFk</text>
<polygon fill="none" stroke="#000000" points="371,-191.2 371,-213.2 482,-213.2 482,-191.2 371,-191.2"/>
<text text-anchor="start" x="374" y="-198.9" font-family="Helvetica,sans-Serif" font-size="11.00" fill="#000000">int[10]</text>
<polygon fill="none" stroke="#000000" points="230,-169.2 230,-191.2 371,-191.2 371,-169.2 230,-169.2"/>
<text text-anchor="start" x="250" y="-176.3" font-family="Helvetica,sans-Serif" font-size="11.00" fill="#000000">RentedQty</text>
<polygon fill="none" stroke="#000000" points="371,-169.2 371,-191.2 482,-191.2 482,-169.2 371,-169.2"/>
<text text-anchor="start" x="374" y="-176.9" font-family="Helvetica,sans-Serif" font-size="11.00" fill="#000000">int[10]</text>
<polygon fill="none" stroke="#000000" points="230,-147.2 230,-169.2 371,-169.2 371,-147.2 230,-147.2"/>
<text text-anchor="start" x="250" y="-154.3" font-family="Helvetica,sans-Serif" font-size="11.00" fill="#000000">RefillQty</text>
<polygon fill="none" stroke="#000000" points="371,-147.2 371,-169.2 482,-169.2 482,-147.2 371,-147.2"/>
<text text-anchor="start" x="374" y="-154.9" font-family="Helvetica,sans-Serif" font-size="11.00" fill="#000000">int[10]</text>
<polygon fill="none" stroke="#000000" points="230,-125.2 230,-147.2 371,-147.2 371,-125.2 230,-125.2"/>
<text text-anchor="start" x="250" y="-132.3" font-family="Helvetica,sans-Serif" font-size="11.00" fill="#000000">BorrowQty</text>
<polygon fill="none" stroke="#000000" points="371,-125.2 371,-147.2 482,-147.2 482,-125.2 371,-125.2"/>
<text text-anchor="start" x="374" y="-132.9" font-family="Helvetica,sans-Serif" font-size="11.00" fill="#000000">int[10]</text>
<polygon fill="none" stroke="#000000" points="230,-103.2 230,-125.2 371,-125.2 371,-103.2 230,-103.2"/>
<text text-anchor="start" x="250" y="-110.3" font-family="Helvetica,sans-Serif" font-size="11.00" fill="#000000">Common_ShopFK</text>
<polygon fill="none" stroke="#000000" points="371,-103.2 371,-125.2 482,-125.2 482,-103.2 371,-103.2"/>
<text text-anchor="start" x="374" y="-110.9" font-family="Helvetica,sans-Serif" font-size="11.00" fill="#000000">int[10]</text>
<polygon fill="none" stroke="#000000" points="230,-81.2 230,-103.2 371,-103.2 371,-81.2 230,-81.2"/>
<text text-anchor="start" x="250" y="-88.3" font-family="Helvetica,sans-Serif" font-size="11.00" fill="#000000">StorePrice</text>
<polygon fill="none" stroke="#000000" points="371,-81.2 371,-103.2 482,-103.2 482,-81.2 371,-81.2"/>
<text text-anchor="start" x="374" y="-88.9" font-family="Helvetica,sans-Serif" font-size="11.00" fill="#000000">decimal[18,5]</text>
<polygon fill="none" stroke="#000000" points="230,-59.2 230,-81.2 371,-81.2 371,-59.2 230,-59.2"/>
<text text-anchor="start" x="250" y="-66.3" font-family="Helvetica,sans-Serif" font-size="11.00" fill="#000000">BorrowRefilledQty</text>
<polygon fill="none" stroke="#000000" points="371,-59.2 371,-81.2 482,-81.2 482,-59.2 371,-59.2"/>
<text text-anchor="start" x="374" y="-66.9" font-family="Helvetica,sans-Serif" font-size="11.00" fill="#000000">int[10]</text>
<polygon fill="#ffffff" stroke="transparent" points="230,-40.2 230,-59.2 286,-59.2 286,-40.2 230,-40.2"/>
<polygon fill="none" stroke="#000000" points="230,-40.2 230,-59.2 286,-59.2 286,-40.2 230,-40.2"/>
<text text-anchor="start" x="233" y="-46.3" font-family="Helvetica,sans-Serif" font-size="11.00" fill="#000000">&lt; 1</text>
<polygon fill="#ffffff" stroke="transparent" points="286,-40.2 286,-59.2 371,-59.2 371,-40.2 286,-40.2"/>
<polygon fill="none" stroke="#000000" points="286,-40.2 286,-59.2 371,-59.2 371,-40.2 286,-40.2"/>
<text text-anchor="start" x="323.3807" y="-46.3" font-family="Helvetica,sans-Serif" font-size="11.00" fill="#000000">136 rows</text>
<polygon fill="#ffffff" stroke="transparent" points="371,-40.2 371,-59.2 482,-59.2 482,-40.2 371,-40.2"/>
<polygon fill="none" stroke="#000000" points="371,-40.2 371,-59.2 482,-59.2 482,-40.2 371,-40.2"/>
<text text-anchor="start" x="463.4053" y="-46.3" font-family="Helvetica,sans-Serif" font-size="11.00" fill="#000000">0 &gt;</text>
<polygon fill="none" stroke="#000000" stroke-width="2" points="229,-39.2 229,-523.2 483,-523.2 483,-39.2 229,-39.2"/>
</a>
</g>
</g>
<!-- common_product -->
<g id="node2" class="node">
<title>common_product</title>
<g id="a_node2"><a xlink:href="../../tables/common_product.html" xlink:title="common_product" target="_top">
<polygon fill="#ffffff" stroke="transparent" points="8,-241.7 8,-368.7 179,-368.7 179,-241.7 8,-241.7"/>
<polygon fill="#f5f5f5" stroke="transparent" points="8.5,-345.2 8.5,-368.2 179.5,-368.2 179.5,-345.2 8.5,-345.2"/>
<polygon fill="none" stroke="#000000" points="8.5,-345.2 8.5,-368.2 179.5,-368.2 179.5,-345.2 8.5,-345.2"/>
<text text-anchor="start" x="13.5" y="-353.8" font-family="Helvetica,sans-Serif" font-weight="bold" font-size="11.00" fill="#000000">common_product</text>
<text text-anchor="start" x="144.5437" y="-353.3" font-family="Helvetica,sans-Serif" font-size="11.00" fill="#000000">[table]</text>
<polygon fill="none" stroke="#000000" points="8.5,-323.2 8.5,-345.2 179.5,-345.2 179.5,-323.2 8.5,-323.2"/>
<image xlink:href="../../images/primaryKeys.png" width="11px" height="12px" preserveAspectRatio="xMinYMin meet" x="13.5" y="-340.2"/>
<text text-anchor="start" x="28.5" y="-330.3" font-family="Helvetica,sans-Serif" font-size="11.00" fill="#000000">ID</text>
<polygon fill="#ffffff" stroke="transparent" points="8.5,-301.2 8.5,-323.2 179.5,-323.2 179.5,-301.2 8.5,-301.2"/>
<polygon fill="none" stroke="#000000" points="8.5,-301.2 8.5,-323.2 179.5,-323.2 179.5,-301.2 8.5,-301.2"/>
<image xlink:href="../../images/foreignKeys.png" width="11px" height="12px" preserveAspectRatio="xMinYMin meet" x="13.5" y="-318.2"/>
<text text-anchor="start" x="28.5" y="-308.3" font-family="Helvetica,sans-Serif" font-size="11.00" fill="#000000">Common_ManufacturerFK</text>
<polygon fill="none" stroke="#000000" points="8.5,-279.2 8.5,-301.2 179.5,-301.2 179.5,-279.2 8.5,-279.2"/>
<image xlink:href="../../images/foreignKeys.png" width="11px" height="12px" preserveAspectRatio="xMinYMin meet" x="13.5" y="-296.2"/>
<text text-anchor="start" x="28.5" y="-286.3" font-family="Helvetica,sans-Serif" font-size="11.00" fill="#000000">Common_PackTypeID</text>
<polygon fill="none" stroke="#000000" points="8.5,-260.2 8.5,-279.2 179.5,-279.2 179.5,-260.2 8.5,-260.2"/>
<text text-anchor="start" x="11.5" y="-266.3" font-family="Helvetica,sans-Serif" font-size="11.00" fill="#000000">...</text>
<polygon fill="#ffffff" stroke="transparent" points="8.5,-241.2 8.5,-260.2 71.5,-260.2 71.5,-241.2 8.5,-241.2"/>
<polygon fill="none" stroke="#000000" points="8.5,-241.2 8.5,-260.2 71.5,-260.2 71.5,-241.2 8.5,-241.2"/>
<text text-anchor="start" x="11.5" y="-247.3" font-family="Helvetica,sans-Serif" font-size="11.00" fill="#000000">&lt; 1</text>
<polygon fill="#ffffff" stroke="transparent" points="71.5,-241.2 71.5,-260.2 136.5,-260.2 136.5,-241.2 71.5,-241.2"/>
<polygon fill="none" stroke="#000000" points="71.5,-241.2 71.5,-260.2 136.5,-260.2 136.5,-241.2 71.5,-241.2"/>
<text text-anchor="start" x="94.9956" y="-247.3" font-family="Helvetica,sans-Serif" font-size="11.00" fill="#000000">54 rows</text>
<polygon fill="#ffffff" stroke="transparent" points="136.5,-241.2 136.5,-260.2 179.5,-260.2 179.5,-241.2 136.5,-241.2"/>
<polygon fill="none" stroke="#000000" points="136.5,-241.2 136.5,-260.2 179.5,-260.2 179.5,-241.2 136.5,-241.2"/>
<text text-anchor="start" x="160.9053" y="-247.3" font-family="Helvetica,sans-Serif" font-size="11.00" fill="#000000">6 &gt;</text>
</a>
</g>
</g>
<!-- order_inventory&#45;&gt;common_product -->
<g id="edge1" class="edge">
<title>order_inventory:w&#45;&gt;common_product:e</title>
<path fill="none" stroke="#000000" d="M215.4203,-334.2C203.5435,-334.2 196.158,-334.2 179.5,-334.2"/>
<polygon fill="#000000" stroke="#000000" points="222,-334.2001 230,-337.8 226,-334.2 230,-334.2 230,-334.2 230,-334.2 226,-334.2 230,-330.6 222,-334.2001 222,-334.2001"/>
<ellipse fill="none" stroke="#000000" cx="218.8" cy="-334.2001" rx="3.2" ry="3.2"/>
</g>
</g>
</svg>
