<?xml version="1.0" encoding="UTF-8" standalone="no"?>
<!DOCTYPE svg PUBLIC "-//W3C//DTD SVG 1.1//EN"
 "http://www.w3.org/Graphics/SVG/1.1/DTD/svg11.dtd">
<!-- Generated by graphviz version 2.40.1 (20161225.0304)
 -->
<!-- Title: twoDegreesRelationshipsDiagram Pages: 1 -->
<svg width="721pt" height="947pt"
 viewBox="0.00 0.00 721.00 947.20" xmlns="http://www.w3.org/2000/svg" xmlns:xlink="http://www.w3.org/1999/xlink">
<g id="graph0" class="graph" transform="scale(1 1) rotate(0) translate(4 943.2)">
<title>twoDegreesRelationshipsDiagram</title>
<polygon fill="#ffffff" stroke="transparent" points="-4,4 -4,-943.2 717,-943.2 717,4 -4,4"/>
<text text-anchor="middle" x="72.4936" y="-7.3" font-family="Helvetica,sans-Serif" font-size="11.00" fill="#000000">Generated by SchemaSpy</text>
<!-- common_dealerproduct -->
<g id="node1" class="node">
<title>common_dealerproduct</title>
<g id="a_node1"><a xlink:href="../../tables/common_dealerproduct.html" xlink:title="common_dealerproduct" target="_top">
<polygon fill="#ffffff" stroke="transparent" points="489.5,-874.2 489.5,-935.2 664.5,-935.2 664.5,-874.2 489.5,-874.2"/>
<polygon fill="#f5f5f5" stroke="transparent" points="490,-911.7 490,-934.7 665,-934.7 665,-911.7 490,-911.7"/>
<polygon fill="none" stroke="#000000" points="490,-911.7 490,-934.7 665,-934.7 665,-911.7 490,-911.7"/>
<text text-anchor="start" x="495" y="-920.3" font-family="Helvetica,sans-Serif" font-weight="bold" font-size="11.00" fill="#000000">common_dealerproduct</text>
<text text-anchor="start" x="630.5219" y="-919.8" font-family="Helvetica,sans-Serif" font-size="11.00" fill="#000000">[table]</text>
<polygon fill="none" stroke="#000000" points="490,-892.7 490,-911.7 665,-911.7 665,-892.7 490,-892.7"/>
<text text-anchor="start" x="493" y="-898.8" font-family="Helvetica,sans-Serif" font-size="11.00" fill="#000000">...</text>
<polygon fill="#ffffff" stroke="transparent" points="490,-873.7 490,-892.7 557,-892.7 557,-873.7 490,-873.7"/>
<polygon fill="none" stroke="#000000" points="490,-873.7 490,-892.7 557,-892.7 557,-873.7 490,-873.7"/>
<text text-anchor="start" x="493" y="-879.8" font-family="Helvetica,sans-Serif" font-size="11.00" fill="#000000">&lt; 2</text>
<polygon fill="#ffffff" stroke="transparent" points="557,-873.7 557,-892.7 630,-892.7 630,-873.7 557,-873.7"/>
<polygon fill="none" stroke="#000000" points="557,-873.7 557,-892.7 630,-892.7 630,-873.7 557,-873.7"/>
<text text-anchor="start" x="582.3807" y="-879.8" font-family="Helvetica,sans-Serif" font-size="11.00" fill="#000000">427 rows</text>
<polygon fill="#ffffff" stroke="transparent" points="630,-873.7 630,-892.7 665,-892.7 665,-873.7 630,-873.7"/>
<polygon fill="none" stroke="#000000" points="630,-873.7 630,-892.7 665,-892.7 665,-873.7 630,-873.7"/>
<text text-anchor="start" x="655.8862" y="-879.8" font-family="Helvetica,sans-Serif" font-size="11.00" fill="#000000"> &#160;</text>
</a>
</g>
</g>
<!-- common_product -->
<g id="node2" class="node">
<title>common_product</title>
<g id="a_node2"><a xlink:href="../../tables/common_product.html" xlink:title="common_product" target="_top">
<polygon fill="#ffffff" stroke="transparent" points="229,-312.2 229,-439.2 400,-439.2 400,-312.2 229,-312.2"/>
<polygon fill="#f5f5f5" stroke="transparent" points="229.5,-415.7 229.5,-438.7 400.5,-438.7 400.5,-415.7 229.5,-415.7"/>
<polygon fill="none" stroke="#000000" points="229.5,-415.7 229.5,-438.7 400.5,-438.7 400.5,-415.7 229.5,-415.7"/>
<text text-anchor="start" x="234.5" y="-424.3" font-family="Helvetica,sans-Serif" font-weight="bold" font-size="11.00" fill="#000000">common_product</text>
<text text-anchor="start" x="365.5437" y="-423.8" font-family="Helvetica,sans-Serif" font-size="11.00" fill="#000000">[table]</text>
<polygon fill="none" stroke="#000000" points="229.5,-393.7 229.5,-415.7 400.5,-415.7 400.5,-393.7 229.5,-393.7"/>
<image xlink:href="../../images/primaryKeys.png" width="11px" height="12px" preserveAspectRatio="xMinYMin meet" x="234.5" y="-410.7"/>
<text text-anchor="start" x="249.5" y="-400.8" font-family="Helvetica,sans-Serif" font-size="11.00" fill="#000000">ID</text>
<polygon fill="#ffffff" stroke="transparent" points="229.5,-371.7 229.5,-393.7 400.5,-393.7 400.5,-371.7 229.5,-371.7"/>
<polygon fill="none" stroke="#000000" points="229.5,-371.7 229.5,-393.7 400.5,-393.7 400.5,-371.7 229.5,-371.7"/>
<image xlink:href="../../images/foreignKeys.png" width="11px" height="12px" preserveAspectRatio="xMinYMin meet" x="234.5" y="-388.7"/>
<text text-anchor="start" x="249.5" y="-378.8" font-family="Helvetica,sans-Serif" font-size="11.00" fill="#000000">Common_ManufacturerFK</text>
<polygon fill="none" stroke="#000000" points="229.5,-349.7 229.5,-371.7 400.5,-371.7 400.5,-349.7 229.5,-349.7"/>
<image xlink:href="../../images/foreignKeys.png" width="11px" height="12px" preserveAspectRatio="xMinYMin meet" x="234.5" y="-366.7"/>
<text text-anchor="start" x="249.5" y="-356.8" font-family="Helvetica,sans-Serif" font-size="11.00" fill="#000000">Common_PackTypeID</text>
<polygon fill="none" stroke="#000000" points="229.5,-330.7 229.5,-349.7 400.5,-349.7 400.5,-330.7 229.5,-330.7"/>
<text text-anchor="start" x="232.5" y="-336.8" font-family="Helvetica,sans-Serif" font-size="11.00" fill="#000000">...</text>
<polygon fill="#ffffff" stroke="transparent" points="229.5,-311.7 229.5,-330.7 292.5,-330.7 292.5,-311.7 229.5,-311.7"/>
<polygon fill="none" stroke="#000000" points="229.5,-311.7 229.5,-330.7 292.5,-330.7 292.5,-311.7 229.5,-311.7"/>
<text text-anchor="start" x="232.5" y="-317.8" font-family="Helvetica,sans-Serif" font-size="11.00" fill="#000000">&lt; 1</text>
<polygon fill="#ffffff" stroke="transparent" points="292.5,-311.7 292.5,-330.7 357.5,-330.7 357.5,-311.7 292.5,-311.7"/>
<polygon fill="none" stroke="#000000" points="292.5,-311.7 292.5,-330.7 357.5,-330.7 357.5,-311.7 292.5,-311.7"/>
<text text-anchor="start" x="315.9956" y="-317.8" font-family="Helvetica,sans-Serif" font-size="11.00" fill="#000000">54 rows</text>
<polygon fill="#ffffff" stroke="transparent" points="357.5,-311.7 357.5,-330.7 400.5,-330.7 400.5,-311.7 357.5,-311.7"/>
<polygon fill="none" stroke="#000000" points="357.5,-311.7 357.5,-330.7 400.5,-330.7 400.5,-311.7 357.5,-311.7"/>
<text text-anchor="start" x="381.9053" y="-317.8" font-family="Helvetica,sans-Serif" font-size="11.00" fill="#000000">6 &gt;</text>
</a>
</g>
</g>
<!-- common_dealerproduct&#45;&gt;common_product -->
<g id="edge1" class="edge">
<title>common_dealerproduct:w&#45;&gt;common_product:e</title>
<path fill="none" stroke="#000000" d="M475.3941,-900.0194C458.8892,-895.6617 451.5208,-882.9771 441,-863.7 416.4728,-818.7593 451.6981,-404.7 400.5,-404.7"/>
<polygon fill="#000000" stroke="#000000" points="482.0524,-900.7855 489.5885,-905.2764 486.0262,-901.2427 490,-901.7 490,-901.7 490,-901.7 486.0262,-901.2427 490.4115,-898.1236 482.0524,-900.7855 482.0524,-900.7855"/>
<ellipse fill="none" stroke="#000000" cx="478.8734" cy="-900.4197" rx="3.2" ry="3.2"/>
</g>
<!-- common_manufacturer -->
<g id="node3" class="node">
<title>common_manufacturer</title>
<g id="a_node3"><a xlink:href="../../tables/common_manufacturer.html" xlink:title="common_manufacturer" target="_top">
<polygon fill="#ffffff" stroke="transparent" points="8,-355.2 8,-416.2 180,-416.2 180,-355.2 8,-355.2"/>
<polygon fill="#f5f5f5" stroke="transparent" points="8,-392.7 8,-415.7 180,-415.7 180,-392.7 8,-392.7"/>
<polygon fill="none" stroke="#000000" points="8,-392.7 8,-415.7 180,-415.7 180,-392.7 8,-392.7"/>
<text text-anchor="start" x="13" y="-401.3" font-family="Helvetica,sans-Serif" font-weight="bold" font-size="11.00" fill="#000000">common_manufacturer</text>
<text text-anchor="start" x="145.5219" y="-400.8" font-family="Helvetica,sans-Serif" font-size="11.00" fill="#000000">[table]</text>
<polygon fill="none" stroke="#000000" points="8,-373.7 8,-392.7 180,-392.7 180,-373.7 8,-373.7"/>
<text text-anchor="start" x="11" y="-379.8" font-family="Helvetica,sans-Serif" font-size="11.00" fill="#000000">...</text>
<polygon fill="#ffffff" stroke="transparent" points="8,-354.7 8,-373.7 67,-373.7 67,-354.7 8,-354.7"/>
<polygon fill="none" stroke="#000000" points="8,-354.7 8,-373.7 67,-373.7 67,-354.7 8,-354.7"/>
<text text-anchor="start" x="11" y="-360.8" font-family="Helvetica,sans-Serif" font-size="11.00" fill="#000000"> &#160;</text>
<polygon fill="#ffffff" stroke="transparent" points="67,-354.7 67,-373.7 135,-373.7 135,-354.7 67,-354.7"/>
<polygon fill="none" stroke="#000000" points="67,-354.7 67,-373.7 135,-373.7 135,-354.7 67,-354.7"/>
<text text-anchor="start" x="93.4956" y="-360.8" font-family="Helvetica,sans-Serif" font-size="11.00" fill="#000000">33 rows</text>
<polygon fill="#ffffff" stroke="transparent" points="135,-354.7 135,-373.7 180,-373.7 180,-354.7 135,-354.7"/>
<polygon fill="none" stroke="#000000" points="135,-354.7 135,-373.7 180,-373.7 180,-354.7 135,-354.7"/>
<text text-anchor="start" x="161.4053" y="-360.8" font-family="Helvetica,sans-Serif" font-size="11.00" fill="#000000">1 &gt;</text>
</a>
</g>
</g>
<!-- common_product&#45;&gt;common_manufacturer -->
<g id="edge2" class="edge">
<title>common_product:w&#45;&gt;common_manufacturer:e</title>
<path fill="none" stroke="#000000" d="M214.8428,-382.7C203.4139,-382.7 196.1563,-382.7 180,-382.7"/>
<polygon fill="#000000" stroke="#000000" points="221.5,-382.7001 229.5,-386.3 225.5,-382.7 229.5,-382.7 229.5,-382.7 229.5,-382.7 225.5,-382.7 229.5,-379.1 221.5,-382.7001 221.5,-382.7001"/>
<ellipse fill="none" stroke="#000000" cx="218.3" cy="-382.7001" rx="3.2" ry="3.2"/>
</g>
<!-- order_bookingitem -->
<g id="node4" class="node">
<title>order_bookingitem</title>
<g id="a_node4"><a xlink:href="../../tables/order_bookingitem.html" xlink:title="order_bookingitem" target="_top">
<polygon fill="#ffffff" stroke="transparent" points="503.5,-792.2 503.5,-853.2 650.5,-853.2 650.5,-792.2 503.5,-792.2"/>
<polygon fill="#f5f5f5" stroke="transparent" points="504,-829.7 504,-852.7 651,-852.7 651,-829.7 504,-829.7"/>
<polygon fill="none" stroke="#000000" points="504,-829.7 504,-852.7 651,-852.7 651,-829.7 504,-829.7"/>
<text text-anchor="start" x="509" y="-838.3" font-family="Helvetica,sans-Serif" font-weight="bold" font-size="11.00" fill="#000000">order_bookingitem</text>
<text text-anchor="start" x="616.5219" y="-837.8" font-family="Helvetica,sans-Serif" font-size="11.00" fill="#000000">[table]</text>
<polygon fill="none" stroke="#000000" points="504,-810.7 504,-829.7 651,-829.7 651,-810.7 504,-810.7"/>
<text text-anchor="start" x="507" y="-816.8" font-family="Helvetica,sans-Serif" font-size="11.00" fill="#000000">...</text>
<polygon fill="#ffffff" stroke="transparent" points="504,-791.7 504,-810.7 560,-810.7 560,-791.7 504,-791.7"/>
<polygon fill="none" stroke="#000000" points="504,-791.7 504,-810.7 560,-810.7 560,-791.7 504,-791.7"/>
<text text-anchor="start" x="507" y="-797.8" font-family="Helvetica,sans-Serif" font-size="11.00" fill="#000000">&lt; 2</text>
<polygon fill="#ffffff" stroke="transparent" points="560,-791.7 560,-810.7 621,-810.7 621,-791.7 560,-791.7"/>
<polygon fill="none" stroke="#000000" points="560,-791.7 560,-810.7 621,-810.7 621,-791.7 560,-791.7"/>
<text text-anchor="start" x="579.4956" y="-797.8" font-family="Helvetica,sans-Serif" font-size="11.00" fill="#000000">62 rows</text>
<polygon fill="#ffffff" stroke="transparent" points="621,-791.7 621,-810.7 651,-810.7 651,-791.7 621,-791.7"/>
<polygon fill="none" stroke="#000000" points="621,-791.7 621,-810.7 651,-810.7 651,-791.7 621,-791.7"/>
<text text-anchor="start" x="641.8862" y="-797.8" font-family="Helvetica,sans-Serif" font-size="11.00" fill="#000000"> &#160;</text>
</a>
</g>
</g>
<!-- order_bookingitem&#45;&gt;common_product -->
<g id="edge3" class="edge">
<title>order_bookingitem:w&#45;&gt;common_product:e</title>
<path fill="none" stroke="#000000" d="M489.4093,-818.8283C466.9953,-815.8171 455.6937,-804.7492 441,-781.7 395.706,-710.6495 484.7598,-404.7 400.5,-404.7"/>
<polygon fill="#000000" stroke="#000000" points="496.0142,-819.2229 503.7853,-823.2936 500.0071,-819.4614 504,-819.7 504,-819.7 504,-819.7 500.0071,-819.4614 504.2147,-816.1064 496.0142,-819.2229 496.0142,-819.2229"/>
<ellipse fill="none" stroke="#000000" cx="492.8199" cy="-819.032" rx="3.2" ry="3.2"/>
</g>
<!-- order_inventory -->
<g id="node5" class="node">
<title>order_inventory</title>
<g id="a_node5"><a xlink:href="../../tables/order_inventory.html" xlink:title="order_inventory" target="_top">
<polygon fill="#ffffff" stroke="transparent" points="449,-284.7 449,-770.7 705,-770.7 705,-284.7 449,-284.7"/>
<polygon fill="#f5f5f5" stroke="transparent" points="451,-745.7 451,-768.7 703,-768.7 703,-745.7 451,-745.7"/>
<polygon fill="none" stroke="#000000" points="451,-745.7 451,-768.7 703,-768.7 703,-745.7 451,-745.7"/>
<text text-anchor="start" x="456" y="-754.3" font-family="Helvetica,sans-Serif" font-weight="bold" font-size="11.00" fill="#000000">order_inventory</text>
<text text-anchor="start" x="668.0437" y="-753.8" font-family="Helvetica,sans-Serif" font-size="11.00" fill="#000000">[table]</text>
<polygon fill="none" stroke="#000000" points="451,-723.7 451,-745.7 592,-745.7 592,-723.7 451,-723.7"/>
<image xlink:href="../../images/primaryKeys.png" width="11px" height="12px" preserveAspectRatio="xMinYMin meet" x="456" y="-740.7"/>
<text text-anchor="start" x="471" y="-730.8" font-family="Helvetica,sans-Serif" font-size="11.00" fill="#000000">ID</text>
<polygon fill="none" stroke="#000000" points="592,-723.7 592,-745.7 703,-745.7 703,-723.7 592,-723.7"/>
<text text-anchor="start" x="595" y="-731.4" font-family="Helvetica,sans-Serif" font-size="11.00" fill="#000000">int[10]</text>
<polygon fill="none" stroke="#000000" points="451,-701.7 451,-723.7 592,-723.7 592,-701.7 451,-701.7"/>
<text text-anchor="start" x="471" y="-708.8" font-family="Helvetica,sans-Serif" font-size="11.00" fill="#000000">Active</text>
<polygon fill="none" stroke="#000000" points="592,-701.7 592,-723.7 703,-723.7 703,-701.7 592,-701.7"/>
<text text-anchor="start" x="595" y="-709.4" font-family="Helvetica,sans-Serif" font-size="11.00" fill="#000000">bit[1]</text>
<polygon fill="none" stroke="#000000" points="451,-679.7 451,-701.7 592,-701.7 592,-679.7 451,-679.7"/>
<text text-anchor="start" x="471" y="-686.8" font-family="Helvetica,sans-Serif" font-size="11.00" fill="#000000">User</text>
<polygon fill="none" stroke="#000000" points="592,-679.7 592,-701.7 703,-701.7 703,-679.7 592,-679.7"/>
<text text-anchor="start" x="594.6115" y="-687.4" font-family="Helvetica,sans-Serif" font-size="11.00" fill="#000000">longtext[2147483647]</text>
<polygon fill="none" stroke="#000000" points="451,-657.7 451,-679.7 592,-679.7 592,-657.7 451,-657.7"/>
<text text-anchor="start" x="471" y="-664.8" font-family="Helvetica,sans-Serif" font-size="11.00" fill="#000000">CD</text>
<polygon fill="none" stroke="#000000" points="592,-657.7 592,-679.7 703,-679.7 703,-657.7 592,-657.7"/>
<text text-anchor="start" x="595" y="-665.4" font-family="Helvetica,sans-Serif" font-size="11.00" fill="#000000">datetime[26]</text>
<polygon fill="none" stroke="#000000" points="451,-635.7 451,-657.7 592,-657.7 592,-635.7 451,-635.7"/>
<text text-anchor="start" x="471" y="-642.8" font-family="Helvetica,sans-Serif" font-size="11.00" fill="#000000">UD</text>
<polygon fill="none" stroke="#000000" points="592,-635.7 592,-657.7 703,-657.7 703,-635.7 592,-635.7"/>
<text text-anchor="start" x="595" y="-643.4" font-family="Helvetica,sans-Serif" font-size="11.00" fill="#000000">datetime[26]</text>
<polygon fill="none" stroke="#000000" points="451,-613.7 451,-635.7 592,-635.7 592,-613.7 451,-613.7"/>
<text text-anchor="start" x="471" y="-620.8" font-family="Helvetica,sans-Serif" font-size="11.00" fill="#000000">Remarks</text>
<polygon fill="none" stroke="#000000" points="592,-613.7 592,-635.7 703,-635.7 703,-613.7 592,-613.7"/>
<text text-anchor="start" x="594.6115" y="-621.4" font-family="Helvetica,sans-Serif" font-size="11.00" fill="#000000">longtext[2147483647]</text>
<polygon fill="none" stroke="#000000" points="451,-591.7 451,-613.7 592,-613.7 592,-591.7 451,-591.7"/>
<text text-anchor="start" x="471" y="-598.8" font-family="Helvetica,sans-Serif" font-size="11.00" fill="#000000">UserID</text>
<polygon fill="none" stroke="#000000" points="592,-591.7 592,-613.7 703,-613.7 703,-591.7 592,-591.7"/>
<text text-anchor="start" x="595" y="-599.4" font-family="Helvetica,sans-Serif" font-size="11.00" fill="#000000">int[10]</text>
<polygon fill="#ffffff" stroke="transparent" points="451,-569.7 451,-591.7 592,-591.7 592,-569.7 451,-569.7"/>
<polygon fill="none" stroke="#000000" points="451,-569.7 451,-591.7 592,-591.7 592,-569.7 451,-569.7"/>
<image xlink:href="../../images/foreignKeys.png" width="11px" height="12px" preserveAspectRatio="xMinYMin meet" x="456" y="-586.7"/>
<text text-anchor="start" x="471" y="-576.8" font-family="Helvetica,sans-Serif" font-size="11.00" fill="#000000">Common_ProductFK</text>
<polygon fill="none" stroke="#000000" points="592,-569.7 592,-591.7 703,-591.7 703,-569.7 592,-569.7"/>
<text text-anchor="start" x="595" y="-577.4" font-family="Helvetica,sans-Serif" font-size="11.00" fill="#000000">int[10]</text>
<polygon fill="none" stroke="#000000" points="451,-547.7 451,-569.7 592,-569.7 592,-547.7 451,-547.7"/>
<text text-anchor="start" x="471" y="-554.8" font-family="Helvetica,sans-Serif" font-size="11.00" fill="#000000">TotalReceiveQty</text>
<polygon fill="none" stroke="#000000" points="592,-547.7 592,-569.7 703,-569.7 703,-547.7 592,-547.7"/>
<text text-anchor="start" x="595" y="-555.4" font-family="Helvetica,sans-Serif" font-size="11.00" fill="#000000">int[10]</text>
<polygon fill="none" stroke="#000000" points="451,-525.7 451,-547.7 592,-547.7 592,-525.7 451,-525.7"/>
<text text-anchor="start" x="471" y="-532.8" font-family="Helvetica,sans-Serif" font-size="11.00" fill="#000000">TotalSaleQty</text>
<polygon fill="none" stroke="#000000" points="592,-525.7 592,-547.7 703,-547.7 703,-525.7 592,-525.7"/>
<text text-anchor="start" x="595" y="-533.4" font-family="Helvetica,sans-Serif" font-size="11.00" fill="#000000">int[10]</text>
<polygon fill="none" stroke="#000000" points="451,-503.7 451,-525.7 592,-525.7 592,-503.7 451,-503.7"/>
<text text-anchor="start" x="471" y="-510.8" font-family="Helvetica,sans-Serif" font-size="11.00" fill="#000000">StockQty</text>
<polygon fill="none" stroke="#000000" points="592,-503.7 592,-525.7 703,-525.7 703,-503.7 592,-503.7"/>
<text text-anchor="start" x="595" y="-511.4" font-family="Helvetica,sans-Serif" font-size="11.00" fill="#000000">int[10]</text>
<polygon fill="none" stroke="#000000" points="451,-481.7 451,-503.7 592,-503.7 592,-481.7 451,-481.7"/>
<text text-anchor="start" x="471" y="-488.8" font-family="Helvetica,sans-Serif" font-size="11.00" fill="#000000">Common_DealerFK</text>
<polygon fill="none" stroke="#000000" points="592,-481.7 592,-503.7 703,-503.7 703,-481.7 592,-481.7"/>
<text text-anchor="start" x="595" y="-489.4" font-family="Helvetica,sans-Serif" font-size="11.00" fill="#000000">int[10]</text>
<polygon fill="none" stroke="#000000" points="451,-459.7 451,-481.7 592,-481.7 592,-459.7 451,-459.7"/>
<text text-anchor="start" x="471" y="-466.8" font-family="Helvetica,sans-Serif" font-size="11.00" fill="#000000">TotalTransferQty</text>
<polygon fill="none" stroke="#000000" points="592,-459.7 592,-481.7 703,-481.7 703,-459.7 592,-459.7"/>
<text text-anchor="start" x="595" y="-467.4" font-family="Helvetica,sans-Serif" font-size="11.00" fill="#000000">int[10]</text>
<polygon fill="none" stroke="#000000" points="451,-437.7 451,-459.7 592,-459.7 592,-437.7 451,-437.7"/>
<text text-anchor="start" x="471" y="-444.8" font-family="Helvetica,sans-Serif" font-size="11.00" fill="#000000">WarehouseFk</text>
<polygon fill="none" stroke="#000000" points="592,-437.7 592,-459.7 703,-459.7 703,-437.7 592,-437.7"/>
<text text-anchor="start" x="595" y="-445.4" font-family="Helvetica,sans-Serif" font-size="11.00" fill="#000000">int[10]</text>
<polygon fill="none" stroke="#000000" points="451,-415.7 451,-437.7 592,-437.7 592,-415.7 451,-415.7"/>
<text text-anchor="start" x="471" y="-422.8" font-family="Helvetica,sans-Serif" font-size="11.00" fill="#000000">RentedQty</text>
<polygon fill="none" stroke="#000000" points="592,-415.7 592,-437.7 703,-437.7 703,-415.7 592,-415.7"/>
<text text-anchor="start" x="595" y="-423.4" font-family="Helvetica,sans-Serif" font-size="11.00" fill="#000000">int[10]</text>
<polygon fill="none" stroke="#000000" points="451,-393.7 451,-415.7 592,-415.7 592,-393.7 451,-393.7"/>
<text text-anchor="start" x="471" y="-400.8" font-family="Helvetica,sans-Serif" font-size="11.00" fill="#000000">RefillQty</text>
<polygon fill="none" stroke="#000000" points="592,-393.7 592,-415.7 703,-415.7 703,-393.7 592,-393.7"/>
<text text-anchor="start" x="595" y="-401.4" font-family="Helvetica,sans-Serif" font-size="11.00" fill="#000000">int[10]</text>
<polygon fill="none" stroke="#000000" points="451,-371.7 451,-393.7 592,-393.7 592,-371.7 451,-371.7"/>
<text text-anchor="start" x="471" y="-378.8" font-family="Helvetica,sans-Serif" font-size="11.00" fill="#000000">BorrowQty</text>
<polygon fill="none" stroke="#000000" points="592,-371.7 592,-393.7 703,-393.7 703,-371.7 592,-371.7"/>
<text text-anchor="start" x="595" y="-379.4" font-family="Helvetica,sans-Serif" font-size="11.00" fill="#000000">int[10]</text>
<polygon fill="none" stroke="#000000" points="451,-349.7 451,-371.7 592,-371.7 592,-349.7 451,-349.7"/>
<text text-anchor="start" x="471" y="-356.8" font-family="Helvetica,sans-Serif" font-size="11.00" fill="#000000">Common_ShopFK</text>
<polygon fill="none" stroke="#000000" points="592,-349.7 592,-371.7 703,-371.7 703,-349.7 592,-349.7"/>
<text text-anchor="start" x="595" y="-357.4" font-family="Helvetica,sans-Serif" font-size="11.00" fill="#000000">int[10]</text>
<polygon fill="none" stroke="#000000" points="451,-327.7 451,-349.7 592,-349.7 592,-327.7 451,-327.7"/>
<text text-anchor="start" x="471" y="-334.8" font-family="Helvetica,sans-Serif" font-size="11.00" fill="#000000">StorePrice</text>
<polygon fill="none" stroke="#000000" points="592,-327.7 592,-349.7 703,-349.7 703,-327.7 592,-327.7"/>
<text text-anchor="start" x="595" y="-335.4" font-family="Helvetica,sans-Serif" font-size="11.00" fill="#000000">decimal[18,5]</text>
<polygon fill="none" stroke="#000000" points="451,-305.7 451,-327.7 592,-327.7 592,-305.7 451,-305.7"/>
<text text-anchor="start" x="471" y="-312.8" font-family="Helvetica,sans-Serif" font-size="11.00" fill="#000000">BorrowRefilledQty</text>
<polygon fill="none" stroke="#000000" points="592,-305.7 592,-327.7 703,-327.7 703,-305.7 592,-305.7"/>
<text text-anchor="start" x="595" y="-313.4" font-family="Helvetica,sans-Serif" font-size="11.00" fill="#000000">int[10]</text>
<polygon fill="#ffffff" stroke="transparent" points="451,-286.7 451,-305.7 507,-305.7 507,-286.7 451,-286.7"/>
<polygon fill="none" stroke="#000000" points="451,-286.7 451,-305.7 507,-305.7 507,-286.7 451,-286.7"/>
<text text-anchor="start" x="454" y="-292.8" font-family="Helvetica,sans-Serif" font-size="11.00" fill="#000000">&lt; 1</text>
<polygon fill="#ffffff" stroke="transparent" points="507,-286.7 507,-305.7 592,-305.7 592,-286.7 507,-286.7"/>
<polygon fill="none" stroke="#000000" points="507,-286.7 507,-305.7 592,-305.7 592,-286.7 507,-286.7"/>
<text text-anchor="start" x="544.3807" y="-292.8" font-family="Helvetica,sans-Serif" font-size="11.00" fill="#000000">136 rows</text>
<polygon fill="#ffffff" stroke="transparent" points="592,-286.7 592,-305.7 703,-305.7 703,-286.7 592,-286.7"/>
<polygon fill="none" stroke="#000000" points="592,-286.7 592,-305.7 703,-305.7 703,-286.7 592,-286.7"/>
<text text-anchor="start" x="684.4053" y="-292.8" font-family="Helvetica,sans-Serif" font-size="11.00" fill="#000000">0 &gt;</text>
<polygon fill="none" stroke="#000000" stroke-width="2" points="450,-285.7 450,-769.7 704,-769.7 704,-285.7 450,-285.7"/>
</a>
</g>
</g>
<!-- order_inventory&#45;&gt;common_product -->
<g id="edge4" class="edge">
<title>order_inventory:w&#45;&gt;common_product:e</title>
<path fill="none" stroke="#000000" d="M436.5715,-578.212C384.4503,-556.8201 476.1566,-404.7 400.5,-404.7"/>
<polygon fill="#000000" stroke="#000000" points="443.1163,-579.3405 450.3882,-584.2476 447.0582,-580.0203 451,-580.7 451,-580.7 451,-580.7 447.0582,-580.0203 451.6118,-577.1524 443.1163,-579.3405 443.1163,-579.3405"/>
<ellipse fill="none" stroke="#000000" cx="439.9629" cy="-578.7967" rx="3.2" ry="3.2"/>
</g>
<!-- order_itemserialno -->
<g id="node6" class="node">
<title>order_itemserialno</title>
<g id="a_node6"><a xlink:href="../../tables/order_itemserialno.html" xlink:title="order_itemserialno" target="_top">
<polygon fill="#ffffff" stroke="transparent" points="503.5,-202.2 503.5,-263.2 650.5,-263.2 650.5,-202.2 503.5,-202.2"/>
<polygon fill="#f5f5f5" stroke="transparent" points="504,-239.7 504,-262.7 651,-262.7 651,-239.7 504,-239.7"/>
<polygon fill="none" stroke="#000000" points="504,-239.7 504,-262.7 651,-262.7 651,-239.7 504,-239.7"/>
<text text-anchor="start" x="509" y="-248.3" font-family="Helvetica,sans-Serif" font-weight="bold" font-size="11.00" fill="#000000">order_itemserialno</text>
<text text-anchor="start" x="616.5219" y="-247.8" font-family="Helvetica,sans-Serif" font-size="11.00" fill="#000000">[table]</text>
<polygon fill="none" stroke="#000000" points="504,-220.7 504,-239.7 651,-239.7 651,-220.7 504,-220.7"/>
<text text-anchor="start" x="507" y="-226.8" font-family="Helvetica,sans-Serif" font-size="11.00" fill="#000000">...</text>
<polygon fill="#ffffff" stroke="transparent" points="504,-201.7 504,-220.7 545,-220.7 545,-201.7 504,-201.7"/>
<polygon fill="none" stroke="#000000" points="504,-201.7 504,-220.7 545,-220.7 545,-201.7 504,-201.7"/>
<text text-anchor="start" x="507" y="-207.8" font-family="Helvetica,sans-Serif" font-size="11.00" fill="#000000">&lt; 2</text>
<polygon fill="#ffffff" stroke="transparent" points="545,-201.7 545,-220.7 620,-220.7 620,-201.7 545,-201.7"/>
<polygon fill="none" stroke="#000000" points="545,-201.7 545,-220.7 620,-220.7 620,-201.7 545,-201.7"/>
<text text-anchor="start" x="557.094" y="-207.8" font-family="Helvetica,sans-Serif" font-size="11.00" fill="#000000">19,002 rows</text>
<polygon fill="#ffffff" stroke="transparent" points="620,-201.7 620,-220.7 651,-220.7 651,-201.7 620,-201.7"/>
<polygon fill="none" stroke="#000000" points="620,-201.7 620,-220.7 651,-220.7 651,-201.7 620,-201.7"/>
<text text-anchor="start" x="632.4053" y="-207.8" font-family="Helvetica,sans-Serif" font-size="11.00" fill="#000000">1 &gt;</text>
</a>
</g>
</g>
<!-- order_itemserialno&#45;&gt;common_product -->
<g id="edge5" class="edge">
<title>order_itemserialno:w&#45;&gt;common_product:e</title>
<path fill="none" stroke="#000000" d="M489.63,-230.9297C466.672,-235.313 458.0171,-251.1772 441,-274.7 405.5292,-323.7315 461.0167,-404.7 400.5,-404.7"/>
<polygon fill="#000000" stroke="#000000" points="496.0291,-230.3822 504.307,-233.2869 500.0146,-230.0411 504,-229.7 504,-229.7 504,-229.7 500.0146,-230.0411 503.693,-226.1131 496.0291,-230.3822 496.0291,-230.3822"/>
<ellipse fill="none" stroke="#000000" cx="492.8408" cy="-230.655" rx="3.2" ry="3.2"/>
</g>
<!-- order_receiveitem -->
<g id="node7" class="node">
<title>order_receiveitem</title>
<g id="a_node7"><a xlink:href="../../tables/order_receiveitem.html" xlink:title="order_receiveitem" target="_top">
<polygon fill="#ffffff" stroke="transparent" points="506,-120.2 506,-181.2 648,-181.2 648,-120.2 506,-120.2"/>
<polygon fill="#f5f5f5" stroke="transparent" points="506,-157.7 506,-180.7 648,-180.7 648,-157.7 506,-157.7"/>
<polygon fill="none" stroke="#000000" points="506,-157.7 506,-180.7 648,-180.7 648,-157.7 506,-157.7"/>
<text text-anchor="start" x="511" y="-166.3" font-family="Helvetica,sans-Serif" font-weight="bold" font-size="11.00" fill="#000000">order_receiveitem</text>
<text text-anchor="start" x="613.5219" y="-165.8" font-family="Helvetica,sans-Serif" font-size="11.00" fill="#000000">[table]</text>
<polygon fill="none" stroke="#000000" points="506,-138.7 506,-157.7 648,-157.7 648,-138.7 506,-138.7"/>
<text text-anchor="start" x="509" y="-144.8" font-family="Helvetica,sans-Serif" font-size="11.00" fill="#000000">...</text>
<polygon fill="#ffffff" stroke="transparent" points="506,-119.7 506,-138.7 549,-138.7 549,-119.7 506,-119.7"/>
<polygon fill="none" stroke="#000000" points="506,-119.7 506,-138.7 549,-138.7 549,-119.7 506,-119.7"/>
<text text-anchor="start" x="509" y="-125.8" font-family="Helvetica,sans-Serif" font-size="11.00" fill="#000000">&lt; 2</text>
<polygon fill="#ffffff" stroke="transparent" points="549,-119.7 549,-138.7 625,-138.7 625,-119.7 549,-119.7"/>
<polygon fill="none" stroke="#000000" points="549,-119.7 549,-138.7 625,-138.7 625,-119.7 549,-119.7"/>
<text text-anchor="start" x="562.094" y="-125.8" font-family="Helvetica,sans-Serif" font-size="11.00" fill="#000000">18,922 rows</text>
<polygon fill="#ffffff" stroke="transparent" points="625,-119.7 625,-138.7 648,-138.7 648,-119.7 625,-119.7"/>
<polygon fill="none" stroke="#000000" points="625,-119.7 625,-138.7 648,-138.7 648,-119.7 625,-119.7"/>
<text text-anchor="start" x="638.8862" y="-125.8" font-family="Helvetica,sans-Serif" font-size="11.00" fill="#000000"> &#160;</text>
</a>
</g>
</g>
<!-- order_receiveitem&#45;&gt;common_product -->
<g id="edge6" class="edge">
<title>order_receiveitem:w&#45;&gt;common_product:e</title>
<path fill="none" stroke="#000000" d="M491.6095,-148.7323C467.5893,-152.5576 457.2503,-166.9946 441,-191.7 414.5225,-231.954 448.6814,-404.7 400.5,-404.7"/>
<polygon fill="#000000" stroke="#000000" points="498.0205,-148.2724 506.2576,-151.2908 502.0103,-147.9862 506,-147.7 506,-147.7 506,-147.7 502.0103,-147.9862 505.7424,-144.1092 498.0205,-148.2724 498.0205,-148.2724"/>
<ellipse fill="none" stroke="#000000" cx="494.8287" cy="-148.5014" rx="3.2" ry="3.2"/>
</g>
<!-- order_saleitem -->
<g id="node8" class="node">
<title>order_saleitem</title>
<g id="a_node8"><a xlink:href="../../tables/order_saleitem.html" xlink:title="order_saleitem" target="_top">
<polygon fill="#ffffff" stroke="transparent" points="515,-38.2 515,-99.2 639,-99.2 639,-38.2 515,-38.2"/>
<polygon fill="#f5f5f5" stroke="transparent" points="515,-75.7 515,-98.7 639,-98.7 639,-75.7 515,-75.7"/>
<polygon fill="none" stroke="#000000" points="515,-75.7 515,-98.7 639,-98.7 639,-75.7 515,-75.7"/>
<text text-anchor="start" x="520" y="-84.3" font-family="Helvetica,sans-Serif" font-weight="bold" font-size="11.00" fill="#000000">order_saleitem</text>
<text text-anchor="start" x="604.5219" y="-83.8" font-family="Helvetica,sans-Serif" font-size="11.00" fill="#000000">[table]</text>
<polygon fill="none" stroke="#000000" points="515,-56.7 515,-75.7 639,-75.7 639,-56.7 515,-56.7"/>
<text text-anchor="start" x="518" y="-62.8" font-family="Helvetica,sans-Serif" font-size="11.00" fill="#000000">...</text>
<polygon fill="#ffffff" stroke="transparent" points="515,-37.7 515,-56.7 556,-56.7 556,-37.7 515,-37.7"/>
<polygon fill="none" stroke="#000000" points="515,-37.7 515,-56.7 556,-56.7 556,-37.7 515,-37.7"/>
<text text-anchor="start" x="518" y="-43.8" font-family="Helvetica,sans-Serif" font-size="11.00" fill="#000000">&lt; 2</text>
<polygon fill="#ffffff" stroke="transparent" points="556,-37.7 556,-56.7 616,-56.7 616,-37.7 556,-37.7"/>
<polygon fill="none" stroke="#000000" points="556,-37.7 556,-56.7 616,-56.7 616,-37.7 556,-37.7"/>
<text text-anchor="start" x="568.3807" y="-43.8" font-family="Helvetica,sans-Serif" font-size="11.00" fill="#000000">659 rows</text>
<polygon fill="#ffffff" stroke="transparent" points="616,-37.7 616,-56.7 639,-56.7 639,-37.7 616,-37.7"/>
<polygon fill="none" stroke="#000000" points="616,-37.7 616,-56.7 639,-56.7 639,-37.7 616,-37.7"/>
<text text-anchor="start" x="629.8862" y="-43.8" font-family="Helvetica,sans-Serif" font-size="11.00" fill="#000000"> &#160;</text>
</a>
</g>
</g>
<!-- order_saleitem&#45;&gt;common_product -->
<g id="edge7" class="edge">
<title>order_saleitem:w&#45;&gt;common_product:e</title>
<path fill="none" stroke="#000000" d="M500.556,-66.3986C472.6234,-69.3805 459.2513,-82.1679 441,-109.7 404.4388,-164.8526 466.6705,-404.7 400.5,-404.7"/>
<polygon fill="#000000" stroke="#000000" points="507.0093,-66.0865 515.1739,-69.2958 511.0047,-65.8933 515,-65.7 515,-65.7 515,-65.7 511.0047,-65.8933 514.8261,-62.1042 507.0093,-66.0865 507.0093,-66.0865"/>
<ellipse fill="none" stroke="#000000" cx="503.8131" cy="-66.2411" rx="3.2" ry="3.2"/>
</g>
</g>
</svg>
