<?xml version="1.0" encoding="UTF-8" standalone="no"?>
<!DOCTYPE svg PUBLIC "-//W3C//DTD SVG 1.1//EN"
 "http://www.w3.org/Graphics/SVG/1.1/DTD/svg11.dtd">
<!-- Generated by graphviz version 2.40.1 (20161225.0304)
 -->
<!-- Title: twoDegreesRelationshipsDiagram Pages: 1 -->
<svg width="805pt" height="1097pt"
 viewBox="0.00 0.00 805.00 1096.70" xmlns="http://www.w3.org/2000/svg" xmlns:xlink="http://www.w3.org/1999/xlink">
<g id="graph0" class="graph" transform="scale(1 1) rotate(0) translate(4 1092.7)">
<title>twoDegreesRelationshipsDiagram</title>
<polygon fill="#ffffff" stroke="transparent" points="-4,4 -4,-1092.7 801,-1092.7 801,4 -4,4"/>
<text text-anchor="middle" x="72.4936" y="-7.3" font-family="Helvetica,sans-Serif" font-size="11.00" fill="#000000">Generated by SchemaSpy</text>
<!-- common_contact -->
<g id="node1" class="node">
<title>common_contact</title>
<g id="a_node1"><a xlink:href="../../tables/common_contact.html" xlink:title="common_contact" target="_top">
<polygon fill="#ffffff" stroke="transparent" points="339.5,-230.2 339.5,-291.2 477.5,-291.2 477.5,-230.2 339.5,-230.2"/>
<polygon fill="#f5f5f5" stroke="transparent" points="339.5,-267.7 339.5,-290.7 477.5,-290.7 477.5,-267.7 339.5,-267.7"/>
<polygon fill="none" stroke="#000000" points="339.5,-267.7 339.5,-290.7 477.5,-290.7 477.5,-267.7 339.5,-267.7"/>
<text text-anchor="start" x="344.5" y="-276.3" font-family="Helvetica,sans-Serif" font-weight="bold" font-size="11.00" fill="#000000">common_contact</text>
<text text-anchor="start" x="443.0219" y="-275.8" font-family="Helvetica,sans-Serif" font-size="11.00" fill="#000000">[table]</text>
<polygon fill="none" stroke="#000000" points="339.5,-248.7 339.5,-267.7 477.5,-267.7 477.5,-248.7 339.5,-248.7"/>
<text text-anchor="start" x="342.5" y="-254.8" font-family="Helvetica,sans-Serif" font-size="11.00" fill="#000000">...</text>
<polygon fill="#ffffff" stroke="transparent" points="339.5,-229.7 339.5,-248.7 393.5,-248.7 393.5,-229.7 339.5,-229.7"/>
<polygon fill="none" stroke="#000000" points="339.5,-229.7 339.5,-248.7 393.5,-248.7 393.5,-229.7 339.5,-229.7"/>
<text text-anchor="start" x="342.5" y="-235.8" font-family="Helvetica,sans-Serif" font-size="11.00" fill="#000000">&lt; 2</text>
<polygon fill="#ffffff" stroke="transparent" points="393.5,-229.7 393.5,-248.7 448.5,-248.7 448.5,-229.7 393.5,-229.7"/>
<polygon fill="none" stroke="#000000" points="393.5,-229.7 393.5,-248.7 448.5,-248.7 448.5,-229.7 393.5,-229.7"/>
<text text-anchor="start" x="413.1105" y="-235.8" font-family="Helvetica,sans-Serif" font-size="11.00" fill="#000000">0 rows</text>
<polygon fill="#ffffff" stroke="transparent" points="448.5,-229.7 448.5,-248.7 477.5,-248.7 477.5,-229.7 448.5,-229.7"/>
<polygon fill="none" stroke="#000000" points="448.5,-229.7 448.5,-248.7 477.5,-248.7 477.5,-229.7 448.5,-229.7"/>
<text text-anchor="start" x="468.3862" y="-235.8" font-family="Helvetica,sans-Serif" font-size="11.00" fill="#000000"> &#160;</text>
</a>
</g>
</g>
<!-- common_customer -->
<g id="node2" class="node">
<title>common_customer</title>
<g id="a_node2"><a xlink:href="../../tables/common_customer.html" xlink:title="common_customer" target="_top">
<polygon fill="#ffffff" stroke="transparent" points="31.5,-268.2 31.5,-351.2 180.5,-351.2 180.5,-268.2 31.5,-268.2"/>
<polygon fill="#f5f5f5" stroke="transparent" points="32,-327.7 32,-350.7 181,-350.7 181,-327.7 32,-327.7"/>
<polygon fill="none" stroke="#000000" points="32,-327.7 32,-350.7 181,-350.7 181,-327.7 32,-327.7"/>
<text text-anchor="start" x="37" y="-336.3" font-family="Helvetica,sans-Serif" font-weight="bold" font-size="11.00" fill="#000000">common_customer</text>
<text text-anchor="start" x="146.5219" y="-335.8" font-family="Helvetica,sans-Serif" font-size="11.00" fill="#000000">[table]</text>
<polygon fill="none" stroke="#000000" points="32,-305.7 32,-327.7 181,-327.7 181,-305.7 32,-305.7"/>
<image xlink:href="../../images/primaryKeys.png" width="11px" height="12px" preserveAspectRatio="xMinYMin meet" x="37" y="-322.7"/>
<text text-anchor="start" x="61" y="-312.8" font-family="Helvetica,sans-Serif" font-size="11.00" fill="#000000">ID</text>
<polygon fill="none" stroke="#000000" points="32,-286.7 32,-305.7 181,-305.7 181,-286.7 32,-286.7"/>
<text text-anchor="start" x="35" y="-292.8" font-family="Helvetica,sans-Serif" font-size="11.00" fill="#000000">...</text>
<polygon fill="#ffffff" stroke="transparent" points="32,-267.7 32,-286.7 77,-286.7 77,-267.7 32,-267.7"/>
<polygon fill="none" stroke="#000000" points="32,-267.7 32,-286.7 77,-286.7 77,-267.7 32,-267.7"/>
<text text-anchor="start" x="35" y="-273.8" font-family="Helvetica,sans-Serif" font-size="11.00" fill="#000000"> &#160;</text>
<polygon fill="#ffffff" stroke="transparent" points="77,-267.7 77,-286.7 143,-286.7 143,-267.7 77,-267.7"/>
<polygon fill="none" stroke="#000000" points="77,-267.7 77,-286.7 143,-286.7 143,-267.7 77,-267.7"/>
<text text-anchor="start" x="95.3807" y="-273.8" font-family="Helvetica,sans-Serif" font-size="11.00" fill="#000000">147 rows</text>
<polygon fill="#ffffff" stroke="transparent" points="143,-267.7 143,-286.7 181,-286.7 181,-267.7 143,-267.7"/>
<polygon fill="none" stroke="#000000" points="143,-267.7 143,-286.7 181,-286.7 181,-267.7 143,-267.7"/>
<text text-anchor="start" x="162.4053" y="-273.8" font-family="Helvetica,sans-Serif" font-size="11.00" fill="#000000">2 &gt;</text>
</a>
</g>
</g>
<!-- common_contact&#45;&gt;common_customer -->
<g id="edge1" class="edge">
<title>common_contact:w&#45;&gt;common_customer:e</title>
<path fill="none" stroke="#000000" d="M324.9814,-258.4894C262.9037,-265.4907 251.0283,-316.7 181,-316.7"/>
<polygon fill="#000000" stroke="#000000" points="331.5118,-258.1344 339.6955,-261.2947 335.5059,-257.9172 339.5,-257.7 339.5,-257.7 339.5,-257.7 335.5059,-257.9172 339.3045,-254.1053 331.5118,-258.1344 331.5118,-258.1344"/>
<ellipse fill="none" stroke="#000000" cx="328.3165" cy="-258.3082" rx="3.2" ry="3.2"/>
</g>
<!-- common_dealer -->
<g id="node3" class="node">
<title>common_dealer</title>
<g id="a_node3"><a xlink:href="../../tables/common_dealer.html" xlink:title="common_dealer" target="_top">
<polygon fill="#ffffff" stroke="transparent" points="8,-149.2 8,-232.2 204,-232.2 204,-149.2 8,-149.2"/>
<polygon fill="#f5f5f5" stroke="transparent" points="8,-208.7 8,-231.7 204,-231.7 204,-208.7 8,-208.7"/>
<polygon fill="none" stroke="#000000" points="8,-208.7 8,-231.7 204,-231.7 204,-208.7 8,-208.7"/>
<text text-anchor="start" x="13" y="-217.3" font-family="Helvetica,sans-Serif" font-weight="bold" font-size="11.00" fill="#000000">common_dealer</text>
<text text-anchor="start" x="169.0437" y="-216.8" font-family="Helvetica,sans-Serif" font-size="11.00" fill="#000000">[table]</text>
<polygon fill="none" stroke="#000000" points="8,-186.7 8,-208.7 204,-208.7 204,-186.7 8,-186.7"/>
<image xlink:href="../../images/primaryKeys.png" width="11px" height="12px" preserveAspectRatio="xMinYMin meet" x="13" y="-203.7"/>
<text text-anchor="start" x="28" y="-193.8" font-family="Helvetica,sans-Serif" font-size="11.00" fill="#000000">ID</text>
<polygon fill="none" stroke="#000000" points="8,-167.7 8,-186.7 204,-186.7 204,-167.7 8,-167.7"/>
<text text-anchor="start" x="11" y="-173.8" font-family="Helvetica,sans-Serif" font-size="11.00" fill="#000000">...</text>
<polygon fill="#ffffff" stroke="transparent" points="8,-148.7 8,-167.7 79,-167.7 79,-148.7 8,-148.7"/>
<polygon fill="none" stroke="#000000" points="8,-148.7 8,-167.7 79,-167.7 79,-148.7 8,-148.7"/>
<text text-anchor="start" x="11" y="-154.8" font-family="Helvetica,sans-Serif" font-size="11.00" fill="#000000"> &#160;</text>
<polygon fill="#ffffff" stroke="transparent" points="79,-148.7 79,-167.7 153,-167.7 153,-148.7 79,-148.7"/>
<polygon fill="none" stroke="#000000" points="79,-148.7 79,-167.7 153,-167.7 153,-148.7 79,-148.7"/>
<text text-anchor="start" x="111.4956" y="-154.8" font-family="Helvetica,sans-Serif" font-size="11.00" fill="#000000">62 rows</text>
<polygon fill="#ffffff" stroke="transparent" points="153,-148.7 153,-167.7 204,-167.7 204,-148.7 153,-148.7"/>
<polygon fill="none" stroke="#000000" points="153,-148.7 153,-167.7 204,-167.7 204,-148.7 153,-148.7"/>
<text text-anchor="start" x="185.4053" y="-154.8" font-family="Helvetica,sans-Serif" font-size="11.00" fill="#000000">4 &gt;</text>
</a>
</g>
</g>
<!-- common_contact&#45;&gt;common_dealer -->
<g id="edge2" class="edge">
<title>common_contact:w&#45;&gt;common_dealer:e</title>
<path fill="none" stroke="#000000" d="M324.9991,-256.9542C291.8536,-253.2832 281.2011,-236.6283 245,-219.7 226.2671,-210.9402 224.6798,-197.7 204,-197.7"/>
<polygon fill="#000000" stroke="#000000" points="331.5106,-257.289 339.3151,-261.2952 335.5053,-257.4945 339.5,-257.7 339.5,-257.7 339.5,-257.7 335.5053,-257.4945 339.6849,-254.1048 331.5106,-257.289 331.5106,-257.289"/>
<ellipse fill="none" stroke="#000000" cx="328.3148" cy="-257.1246" rx="3.2" ry="3.2"/>
</g>
<!-- common_dealerproduct -->
<g id="node4" class="node">
<title>common_dealerproduct</title>
<g id="a_node4"><a xlink:href="../../tables/common_dealerproduct.html" xlink:title="common_dealerproduct" target="_top">
<polygon fill="#ffffff" stroke="transparent" points="613.5,-122.2 613.5,-183.2 788.5,-183.2 788.5,-122.2 613.5,-122.2"/>
<polygon fill="#f5f5f5" stroke="transparent" points="614,-159.7 614,-182.7 789,-182.7 789,-159.7 614,-159.7"/>
<polygon fill="none" stroke="#000000" points="614,-159.7 614,-182.7 789,-182.7 789,-159.7 614,-159.7"/>
<text text-anchor="start" x="619" y="-168.3" font-family="Helvetica,sans-Serif" font-weight="bold" font-size="11.00" fill="#000000">common_dealerproduct</text>
<text text-anchor="start" x="754.5219" y="-167.8" font-family="Helvetica,sans-Serif" font-size="11.00" fill="#000000">[table]</text>
<polygon fill="none" stroke="#000000" points="614,-140.7 614,-159.7 789,-159.7 789,-140.7 614,-140.7"/>
<text text-anchor="start" x="617" y="-146.8" font-family="Helvetica,sans-Serif" font-size="11.00" fill="#000000">...</text>
<polygon fill="#ffffff" stroke="transparent" points="614,-121.7 614,-140.7 681,-140.7 681,-121.7 614,-121.7"/>
<polygon fill="none" stroke="#000000" points="614,-121.7 614,-140.7 681,-140.7 681,-121.7 614,-121.7"/>
<text text-anchor="start" x="617" y="-127.8" font-family="Helvetica,sans-Serif" font-size="11.00" fill="#000000">&lt; 2</text>
<polygon fill="#ffffff" stroke="transparent" points="681,-121.7 681,-140.7 754,-140.7 754,-121.7 681,-121.7"/>
<polygon fill="none" stroke="#000000" points="681,-121.7 681,-140.7 754,-140.7 754,-121.7 681,-121.7"/>
<text text-anchor="start" x="706.3807" y="-127.8" font-family="Helvetica,sans-Serif" font-size="11.00" fill="#000000">427 rows</text>
<polygon fill="#ffffff" stroke="transparent" points="754,-121.7 754,-140.7 789,-140.7 789,-121.7 754,-121.7"/>
<polygon fill="none" stroke="#000000" points="754,-121.7 754,-140.7 789,-140.7 789,-121.7 754,-121.7"/>
<text text-anchor="start" x="779.8862" y="-127.8" font-family="Helvetica,sans-Serif" font-size="11.00" fill="#000000"> &#160;</text>
</a>
</g>
</g>
<!-- common_dealerproduct&#45;&gt;common_dealer -->
<g id="edge3" class="edge">
<title>common_dealerproduct:w&#45;&gt;common_dealer:e</title>
<path fill="none" stroke="#000000" d="M599.5287,-147.4591C590.9368,-144.5289 585.2179,-139.5512 572,-137.7 500.0357,-127.621 309.2636,-103.779 245,-137.7 216.4369,-152.7768 236.298,-197.7 204,-197.7"/>
<polygon fill="#000000" stroke="#000000" points="606.0942,-148.4758 613.4491,-153.2576 610.0471,-149.0879 614,-149.7 614,-149.7 614,-149.7 610.0471,-149.0879 614.5509,-146.1424 606.0942,-148.4758 606.0942,-148.4758"/>
<ellipse fill="none" stroke="#000000" cx="602.9319" cy="-147.9861" rx="3.2" ry="3.2"/>
</g>
<!-- common_product -->
<g id="node5" class="node">
<title>common_product</title>
<g id="a_node5"><a xlink:href="../../tables/common_product.html" xlink:title="common_product" target="_top">
<polygon fill="#ffffff" stroke="transparent" points="338.5,-148.2 338.5,-209.2 478.5,-209.2 478.5,-148.2 338.5,-148.2"/>
<polygon fill="#f5f5f5" stroke="transparent" points="338.5,-185.7 338.5,-208.7 478.5,-208.7 478.5,-185.7 338.5,-185.7"/>
<polygon fill="none" stroke="#000000" points="338.5,-185.7 338.5,-208.7 478.5,-208.7 478.5,-185.7 338.5,-185.7"/>
<text text-anchor="start" x="343.5" y="-194.3" font-family="Helvetica,sans-Serif" font-weight="bold" font-size="11.00" fill="#000000">common_product</text>
<text text-anchor="start" x="444.0219" y="-193.8" font-family="Helvetica,sans-Serif" font-size="11.00" fill="#000000">[table]</text>
<polygon fill="none" stroke="#000000" points="338.5,-166.7 338.5,-185.7 478.5,-185.7 478.5,-166.7 338.5,-166.7"/>
<text text-anchor="start" x="341.5" y="-172.8" font-family="Helvetica,sans-Serif" font-size="11.00" fill="#000000">...</text>
<polygon fill="#ffffff" stroke="transparent" points="338.5,-147.7 338.5,-166.7 386.5,-166.7 386.5,-147.7 338.5,-147.7"/>
<polygon fill="none" stroke="#000000" points="338.5,-147.7 338.5,-166.7 386.5,-166.7 386.5,-147.7 338.5,-147.7"/>
<text text-anchor="start" x="341.5" y="-153.8" font-family="Helvetica,sans-Serif" font-size="11.00" fill="#000000">&lt; 1</text>
<polygon fill="#ffffff" stroke="transparent" points="386.5,-147.7 386.5,-166.7 443.5,-166.7 443.5,-147.7 386.5,-147.7"/>
<polygon fill="none" stroke="#000000" points="386.5,-147.7 386.5,-166.7 443.5,-166.7 443.5,-147.7 386.5,-147.7"/>
<text text-anchor="start" x="401.9956" y="-153.8" font-family="Helvetica,sans-Serif" font-size="11.00" fill="#000000">54 rows</text>
<polygon fill="#ffffff" stroke="transparent" points="443.5,-147.7 443.5,-166.7 478.5,-166.7 478.5,-147.7 443.5,-147.7"/>
<polygon fill="none" stroke="#000000" points="443.5,-147.7 443.5,-166.7 478.5,-166.7 478.5,-147.7 443.5,-147.7"/>
<text text-anchor="start" x="459.9053" y="-153.8" font-family="Helvetica,sans-Serif" font-size="11.00" fill="#000000">6 &gt;</text>
</a>
</g>
</g>
<!-- common_dealerproduct&#45;&gt;common_product -->
<g id="edge4" class="edge">
<title>common_dealerproduct:w&#45;&gt;common_product:e</title>
<path fill="none" stroke="#000000" d="M599.5181,-150.2194C550.1775,-153.8838 534.6709,-175.7 478.5,-175.7"/>
<polygon fill="#000000" stroke="#000000" points="606.0051,-149.9868 614.129,-153.2977 610.0026,-149.8434 614,-149.7 614,-149.7 614,-149.7 610.0026,-149.8434 613.871,-146.1023 606.0051,-149.9868 606.0051,-149.9868"/>
<ellipse fill="none" stroke="#000000" cx="602.8072" cy="-150.1015" rx="3.2" ry="3.2"/>
</g>
<!-- common_dealerzone -->
<g id="node6" class="node">
<title>common_dealerzone</title>
<g id="a_node6"><a xlink:href="../../tables/common_dealerzone.html" xlink:title="common_dealerzone" target="_top">
<polygon fill="#ffffff" stroke="transparent" points="329.5,-38.2 329.5,-99.2 487.5,-99.2 487.5,-38.2 329.5,-38.2"/>
<polygon fill="#f5f5f5" stroke="transparent" points="329.5,-75.7 329.5,-98.7 487.5,-98.7 487.5,-75.7 329.5,-75.7"/>
<polygon fill="none" stroke="#000000" points="329.5,-75.7 329.5,-98.7 487.5,-98.7 487.5,-75.7 329.5,-75.7"/>
<text text-anchor="start" x="334.5" y="-84.3" font-family="Helvetica,sans-Serif" font-weight="bold" font-size="11.00" fill="#000000">common_dealerzone</text>
<text text-anchor="start" x="453.0219" y="-83.8" font-family="Helvetica,sans-Serif" font-size="11.00" fill="#000000">[table]</text>
<polygon fill="none" stroke="#000000" points="329.5,-56.7 329.5,-75.7 487.5,-75.7 487.5,-56.7 329.5,-56.7"/>
<text text-anchor="start" x="332.5" y="-62.8" font-family="Helvetica,sans-Serif" font-size="11.00" fill="#000000">...</text>
<polygon fill="#ffffff" stroke="transparent" points="329.5,-37.7 329.5,-56.7 390.5,-56.7 390.5,-37.7 329.5,-37.7"/>
<polygon fill="none" stroke="#000000" points="329.5,-37.7 329.5,-56.7 390.5,-56.7 390.5,-37.7 329.5,-37.7"/>
<text text-anchor="start" x="332.5" y="-43.8" font-family="Helvetica,sans-Serif" font-size="11.00" fill="#000000">&lt; 2</text>
<polygon fill="#ffffff" stroke="transparent" points="390.5,-37.7 390.5,-56.7 454.5,-56.7 454.5,-37.7 390.5,-37.7"/>
<polygon fill="none" stroke="#000000" points="390.5,-37.7 390.5,-56.7 454.5,-56.7 454.5,-37.7 390.5,-37.7"/>
<text text-anchor="start" x="412.9956" y="-43.8" font-family="Helvetica,sans-Serif" font-size="11.00" fill="#000000">52 rows</text>
<polygon fill="#ffffff" stroke="transparent" points="454.5,-37.7 454.5,-56.7 487.5,-56.7 487.5,-37.7 454.5,-37.7"/>
<polygon fill="none" stroke="#000000" points="454.5,-37.7 454.5,-56.7 487.5,-56.7 487.5,-37.7 454.5,-37.7"/>
<text text-anchor="start" x="478.3862" y="-43.8" font-family="Helvetica,sans-Serif" font-size="11.00" fill="#000000"> &#160;</text>
</a>
</g>
</g>
<!-- common_dealerzone&#45;&gt;common_dealer -->
<g id="edge5" class="edge">
<title>common_dealerzone:w&#45;&gt;common_dealer:e</title>
<path fill="none" stroke="#000000" d="M315.1055,-66.4239C283.2043,-69.9201 270.9908,-86.0313 245,-113.7 216.557,-143.9791 245.5431,-197.7 204,-197.7"/>
<polygon fill="#000000" stroke="#000000" points="321.5101,-66.1019 329.6808,-69.2955 325.505,-65.9009 329.5,-65.7 329.5,-65.7 329.5,-65.7 325.505,-65.9009 329.3192,-62.1045 321.5101,-66.1019 321.5101,-66.1019"/>
<ellipse fill="none" stroke="#000000" cx="318.3141" cy="-66.2626" rx="3.2" ry="3.2"/>
</g>
<!-- order_sale -->
<g id="node7" class="node">
<title>order_sale</title>
<g id="a_node7"><a xlink:href="../../tables/order_sale.html" xlink:title="order_sale" target="_top">
<polygon fill="#ffffff" stroke="transparent" points="253,-312.7 253,-1084.7 564,-1084.7 564,-312.7 253,-312.7"/>
<polygon fill="#f5f5f5" stroke="transparent" points="255.5,-1059.7 255.5,-1082.7 562.5,-1082.7 562.5,-1059.7 255.5,-1059.7"/>
<polygon fill="none" stroke="#000000" points="255.5,-1059.7 255.5,-1082.7 562.5,-1082.7 562.5,-1059.7 255.5,-1059.7"/>
<text text-anchor="start" x="260.5" y="-1068.3" font-family="Helvetica,sans-Serif" font-weight="bold" font-size="11.00" fill="#000000">order_sale</text>
<text text-anchor="start" x="527.5437" y="-1067.8" font-family="Helvetica,sans-Serif" font-size="11.00" fill="#000000">[table]</text>
<polygon fill="none" stroke="#000000" points="255.5,-1037.7 255.5,-1059.7 451.5,-1059.7 451.5,-1037.7 255.5,-1037.7"/>
<image xlink:href="../../images/primaryKeys.png" width="11px" height="12px" preserveAspectRatio="xMinYMin meet" x="260.5" y="-1054.7"/>
<text text-anchor="start" x="275.5" y="-1044.8" font-family="Helvetica,sans-Serif" font-size="11.00" fill="#000000">ID</text>
<polygon fill="none" stroke="#000000" points="451.5,-1037.7 451.5,-1059.7 562.5,-1059.7 562.5,-1037.7 451.5,-1037.7"/>
<text text-anchor="start" x="454.5" y="-1045.4" font-family="Helvetica,sans-Serif" font-size="11.00" fill="#000000">int[10]</text>
<polygon fill="none" stroke="#000000" points="255.5,-1015.7 255.5,-1037.7 451.5,-1037.7 451.5,-1015.7 255.5,-1015.7"/>
<text text-anchor="start" x="275.5" y="-1022.8" font-family="Helvetica,sans-Serif" font-size="11.00" fill="#000000">Active</text>
<polygon fill="none" stroke="#000000" points="451.5,-1015.7 451.5,-1037.7 562.5,-1037.7 562.5,-1015.7 451.5,-1015.7"/>
<text text-anchor="start" x="454.5" y="-1023.4" font-family="Helvetica,sans-Serif" font-size="11.00" fill="#000000">bit[1]</text>
<polygon fill="none" stroke="#000000" points="255.5,-993.7 255.5,-1015.7 451.5,-1015.7 451.5,-993.7 255.5,-993.7"/>
<text text-anchor="start" x="275.5" y="-1000.8" font-family="Helvetica,sans-Serif" font-size="11.00" fill="#000000">User</text>
<polygon fill="none" stroke="#000000" points="451.5,-993.7 451.5,-1015.7 562.5,-1015.7 562.5,-993.7 451.5,-993.7"/>
<text text-anchor="start" x="454.1115" y="-1001.4" font-family="Helvetica,sans-Serif" font-size="11.00" fill="#000000">longtext[2147483647]</text>
<polygon fill="none" stroke="#000000" points="255.5,-971.7 255.5,-993.7 451.5,-993.7 451.5,-971.7 255.5,-971.7"/>
<text text-anchor="start" x="275.5" y="-978.8" font-family="Helvetica,sans-Serif" font-size="11.00" fill="#000000">CD</text>
<polygon fill="none" stroke="#000000" points="451.5,-971.7 451.5,-993.7 562.5,-993.7 562.5,-971.7 451.5,-971.7"/>
<text text-anchor="start" x="454.5" y="-979.4" font-family="Helvetica,sans-Serif" font-size="11.00" fill="#000000">datetime[26]</text>
<polygon fill="none" stroke="#000000" points="255.5,-949.7 255.5,-971.7 451.5,-971.7 451.5,-949.7 255.5,-949.7"/>
<text text-anchor="start" x="275.5" y="-956.8" font-family="Helvetica,sans-Serif" font-size="11.00" fill="#000000">UD</text>
<polygon fill="none" stroke="#000000" points="451.5,-949.7 451.5,-971.7 562.5,-971.7 562.5,-949.7 451.5,-949.7"/>
<text text-anchor="start" x="454.5" y="-957.4" font-family="Helvetica,sans-Serif" font-size="11.00" fill="#000000">datetime[26]</text>
<polygon fill="none" stroke="#000000" points="255.5,-927.7 255.5,-949.7 451.5,-949.7 451.5,-927.7 255.5,-927.7"/>
<text text-anchor="start" x="275.5" y="-934.8" font-family="Helvetica,sans-Serif" font-size="11.00" fill="#000000">Remarks</text>
<polygon fill="none" stroke="#000000" points="451.5,-927.7 451.5,-949.7 562.5,-949.7 562.5,-927.7 451.5,-927.7"/>
<text text-anchor="start" x="454.1115" y="-935.4" font-family="Helvetica,sans-Serif" font-size="11.00" fill="#000000">longtext[2147483647]</text>
<polygon fill="none" stroke="#000000" points="255.5,-905.7 255.5,-927.7 451.5,-927.7 451.5,-905.7 255.5,-905.7"/>
<text text-anchor="start" x="275.5" y="-912.8" font-family="Helvetica,sans-Serif" font-size="11.00" fill="#000000">UserID</text>
<polygon fill="none" stroke="#000000" points="451.5,-905.7 451.5,-927.7 562.5,-927.7 562.5,-905.7 451.5,-905.7"/>
<text text-anchor="start" x="454.5" y="-913.4" font-family="Helvetica,sans-Serif" font-size="11.00" fill="#000000">int[10]</text>
<polygon fill="none" stroke="#000000" points="255.5,-883.7 255.5,-905.7 451.5,-905.7 451.5,-883.7 255.5,-883.7"/>
<text text-anchor="start" x="275.5" y="-890.8" font-family="Helvetica,sans-Serif" font-size="11.00" fill="#000000">Code</text>
<polygon fill="none" stroke="#000000" points="451.5,-883.7 451.5,-905.7 562.5,-905.7 562.5,-883.7 451.5,-883.7"/>
<text text-anchor="start" x="454.1115" y="-891.4" font-family="Helvetica,sans-Serif" font-size="11.00" fill="#000000">longtext[2147483647]</text>
<polygon fill="none" stroke="#000000" points="255.5,-861.7 255.5,-883.7 451.5,-883.7 451.5,-861.7 255.5,-861.7"/>
<text text-anchor="start" x="275.5" y="-868.8" font-family="Helvetica,sans-Serif" font-size="11.00" fill="#000000">InvoiceCode</text>
<polygon fill="none" stroke="#000000" points="451.5,-861.7 451.5,-883.7 562.5,-883.7 562.5,-861.7 451.5,-861.7"/>
<text text-anchor="start" x="454.1115" y="-869.4" font-family="Helvetica,sans-Serif" font-size="11.00" fill="#000000">longtext[2147483647]</text>
<polygon fill="none" stroke="#000000" points="255.5,-839.7 255.5,-861.7 451.5,-861.7 451.5,-839.7 255.5,-839.7"/>
<text text-anchor="start" x="275.5" y="-846.8" font-family="Helvetica,sans-Serif" font-size="11.00" fill="#000000">PONumber</text>
<polygon fill="none" stroke="#000000" points="451.5,-839.7 451.5,-861.7 562.5,-861.7 562.5,-839.7 451.5,-839.7"/>
<text text-anchor="start" x="454.1115" y="-847.4" font-family="Helvetica,sans-Serif" font-size="11.00" fill="#000000">longtext[2147483647]</text>
<polygon fill="#ffffff" stroke="transparent" points="255.5,-817.7 255.5,-839.7 451.5,-839.7 451.5,-817.7 255.5,-817.7"/>
<polygon fill="none" stroke="#000000" points="255.5,-817.7 255.5,-839.7 451.5,-839.7 451.5,-817.7 255.5,-817.7"/>
<image xlink:href="../../images/foreignKeys.png" width="11px" height="12px" preserveAspectRatio="xMinYMin meet" x="260.5" y="-834.7"/>
<text text-anchor="start" x="275.5" y="-824.8" font-family="Helvetica,sans-Serif" font-size="11.00" fill="#000000">Common_CustomerFK</text>
<polygon fill="none" stroke="#000000" points="451.5,-817.7 451.5,-839.7 562.5,-839.7 562.5,-817.7 451.5,-817.7"/>
<text text-anchor="start" x="454.5" y="-825.4" font-family="Helvetica,sans-Serif" font-size="11.00" fill="#000000">int[10]</text>
<polygon fill="#ffffff" stroke="transparent" points="255.5,-795.7 255.5,-817.7 451.5,-817.7 451.5,-795.7 255.5,-795.7"/>
<polygon fill="none" stroke="#000000" points="255.5,-795.7 255.5,-817.7 451.5,-817.7 451.5,-795.7 255.5,-795.7"/>
<image xlink:href="../../images/foreignKeys.png" width="11px" height="12px" preserveAspectRatio="xMinYMin meet" x="260.5" y="-812.7"/>
<text text-anchor="start" x="275.5" y="-802.8" font-family="Helvetica,sans-Serif" font-size="11.00" fill="#000000">Common_Dealer2FK</text>
<polygon fill="none" stroke="#000000" points="451.5,-795.7 451.5,-817.7 562.5,-817.7 562.5,-795.7 451.5,-795.7"/>
<text text-anchor="start" x="454.5" y="-803.4" font-family="Helvetica,sans-Serif" font-size="11.00" fill="#000000">int[10]</text>
<polygon fill="none" stroke="#000000" points="255.5,-773.7 255.5,-795.7 451.5,-795.7 451.5,-773.7 255.5,-773.7"/>
<text text-anchor="start" x="275.5" y="-780.8" font-family="Helvetica,sans-Serif" font-size="11.00" fill="#000000">Common_DealerFK</text>
<polygon fill="none" stroke="#000000" points="451.5,-773.7 451.5,-795.7 562.5,-795.7 562.5,-773.7 451.5,-773.7"/>
<text text-anchor="start" x="454.5" y="-781.4" font-family="Helvetica,sans-Serif" font-size="11.00" fill="#000000">int[10]</text>
<polygon fill="none" stroke="#000000" points="255.5,-751.7 255.5,-773.7 451.5,-773.7 451.5,-751.7 255.5,-751.7"/>
<text text-anchor="start" x="275.5" y="-758.8" font-family="Helvetica,sans-Serif" font-size="11.00" fill="#000000">SaleDate</text>
<polygon fill="none" stroke="#000000" points="451.5,-751.7 451.5,-773.7 562.5,-773.7 562.5,-751.7 451.5,-751.7"/>
<text text-anchor="start" x="454.5" y="-759.4" font-family="Helvetica,sans-Serif" font-size="11.00" fill="#000000">datetime[26]</text>
<polygon fill="none" stroke="#000000" points="255.5,-729.7 255.5,-751.7 451.5,-751.7 451.5,-729.7 255.5,-729.7"/>
<text text-anchor="start" x="275.5" y="-736.8" font-family="Helvetica,sans-Serif" font-size="11.00" fill="#000000">SalePrice</text>
<polygon fill="none" stroke="#000000" points="451.5,-729.7 451.5,-751.7 562.5,-751.7 562.5,-729.7 451.5,-729.7"/>
<text text-anchor="start" x="454.5" y="-737.4" font-family="Helvetica,sans-Serif" font-size="11.00" fill="#000000">decimal[18,5]</text>
<polygon fill="none" stroke="#000000" points="255.5,-707.7 255.5,-729.7 451.5,-729.7 451.5,-707.7 255.5,-707.7"/>
<text text-anchor="start" x="275.5" y="-714.8" font-family="Helvetica,sans-Serif" font-size="11.00" fill="#000000">DiscountAmount</text>
<polygon fill="none" stroke="#000000" points="451.5,-707.7 451.5,-729.7 562.5,-729.7 562.5,-707.7 451.5,-707.7"/>
<text text-anchor="start" x="454.5" y="-715.4" font-family="Helvetica,sans-Serif" font-size="11.00" fill="#000000">decimal[18,5]</text>
<polygon fill="none" stroke="#000000" points="255.5,-685.7 255.5,-707.7 451.5,-707.7 451.5,-685.7 255.5,-685.7"/>
<text text-anchor="start" x="275.5" y="-692.8" font-family="Helvetica,sans-Serif" font-size="11.00" fill="#000000">VatAmount</text>
<polygon fill="none" stroke="#000000" points="451.5,-685.7 451.5,-707.7 562.5,-707.7 562.5,-685.7 451.5,-685.7"/>
<text text-anchor="start" x="454.5" y="-693.4" font-family="Helvetica,sans-Serif" font-size="11.00" fill="#000000">decimal[18,5]</text>
<polygon fill="none" stroke="#000000" points="255.5,-663.7 255.5,-685.7 451.5,-685.7 451.5,-663.7 255.5,-663.7"/>
<text text-anchor="start" x="275.5" y="-670.8" font-family="Helvetica,sans-Serif" font-size="11.00" fill="#000000">AITAmount</text>
<polygon fill="none" stroke="#000000" points="451.5,-663.7 451.5,-685.7 562.5,-685.7 562.5,-663.7 451.5,-663.7"/>
<text text-anchor="start" x="454.5" y="-671.4" font-family="Helvetica,sans-Serif" font-size="11.00" fill="#000000">decimal[18,5]</text>
<polygon fill="none" stroke="#000000" points="255.5,-641.7 255.5,-663.7 451.5,-663.7 451.5,-641.7 255.5,-641.7"/>
<text text-anchor="start" x="275.5" y="-648.8" font-family="Helvetica,sans-Serif" font-size="11.00" fill="#000000">TotalCommission</text>
<polygon fill="none" stroke="#000000" points="451.5,-641.7 451.5,-663.7 562.5,-663.7 562.5,-641.7 451.5,-641.7"/>
<text text-anchor="start" x="454.5" y="-649.4" font-family="Helvetica,sans-Serif" font-size="11.00" fill="#000000">decimal[18,5]</text>
<polygon fill="none" stroke="#000000" points="255.5,-619.7 255.5,-641.7 451.5,-641.7 451.5,-619.7 255.5,-619.7"/>
<text text-anchor="start" x="275.5" y="-626.8" font-family="Helvetica,sans-Serif" font-size="11.00" fill="#000000">TotalChargeAmount</text>
<polygon fill="none" stroke="#000000" points="451.5,-619.7 451.5,-641.7 562.5,-641.7 562.5,-619.7 451.5,-619.7"/>
<text text-anchor="start" x="454.5" y="-627.4" font-family="Helvetica,sans-Serif" font-size="11.00" fill="#000000">decimal[18,5]</text>
<polygon fill="none" stroke="#000000" points="255.5,-597.7 255.5,-619.7 451.5,-619.7 451.5,-597.7 255.5,-597.7"/>
<text text-anchor="start" x="275.5" y="-604.8" font-family="Helvetica,sans-Serif" font-size="11.00" fill="#000000">CommissionRate</text>
<polygon fill="none" stroke="#000000" points="451.5,-597.7 451.5,-619.7 562.5,-619.7 562.5,-597.7 451.5,-597.7"/>
<text text-anchor="start" x="454.5" y="-605.4" font-family="Helvetica,sans-Serif" font-size="11.00" fill="#000000">decimal[18,5]</text>
<polygon fill="none" stroke="#000000" points="255.5,-575.7 255.5,-597.7 451.5,-597.7 451.5,-575.7 255.5,-575.7"/>
<text text-anchor="start" x="275.5" y="-582.8" font-family="Helvetica,sans-Serif" font-size="11.00" fill="#000000">Commission</text>
<polygon fill="none" stroke="#000000" points="451.5,-575.7 451.5,-597.7 562.5,-597.7 562.5,-575.7 451.5,-575.7"/>
<text text-anchor="start" x="454.5" y="-583.4" font-family="Helvetica,sans-Serif" font-size="11.00" fill="#000000">decimal[18,5]</text>
<polygon fill="none" stroke="#000000" points="255.5,-553.7 255.5,-575.7 451.5,-575.7 451.5,-553.7 255.5,-553.7"/>
<text text-anchor="start" x="275.5" y="-560.8" font-family="Helvetica,sans-Serif" font-size="11.00" fill="#000000">TotalReceivable</text>
<polygon fill="none" stroke="#000000" points="451.5,-553.7 451.5,-575.7 562.5,-575.7 562.5,-553.7 451.5,-553.7"/>
<text text-anchor="start" x="454.5" y="-561.4" font-family="Helvetica,sans-Serif" font-size="11.00" fill="#000000">decimal[18,5]</text>
<polygon fill="none" stroke="#000000" points="255.5,-531.7 255.5,-553.7 451.5,-553.7 451.5,-531.7 255.5,-531.7"/>
<text text-anchor="start" x="275.5" y="-538.8" font-family="Helvetica,sans-Serif" font-size="11.00" fill="#000000">IsConfirmed</text>
<polygon fill="none" stroke="#000000" points="451.5,-531.7 451.5,-553.7 562.5,-553.7 562.5,-531.7 451.5,-531.7"/>
<text text-anchor="start" x="454.5" y="-539.4" font-family="Helvetica,sans-Serif" font-size="11.00" fill="#000000">bit[1]</text>
<polygon fill="none" stroke="#000000" points="255.5,-509.7 255.5,-531.7 451.5,-531.7 451.5,-509.7 255.5,-509.7"/>
<text text-anchor="start" x="275.5" y="-516.8" font-family="Helvetica,sans-Serif" font-size="11.00" fill="#000000">SaleTypeID</text>
<polygon fill="none" stroke="#000000" points="451.5,-509.7 451.5,-531.7 562.5,-531.7 562.5,-509.7 451.5,-509.7"/>
<text text-anchor="start" x="454.5" y="-517.4" font-family="Helvetica,sans-Serif" font-size="11.00" fill="#000000">int[10]</text>
<polygon fill="none" stroke="#000000" points="255.5,-487.7 255.5,-509.7 451.5,-509.7 451.5,-487.7 255.5,-487.7"/>
<text text-anchor="start" x="275.5" y="-494.8" font-family="Helvetica,sans-Serif" font-size="11.00" fill="#000000">InvoiceVatTypeID</text>
<polygon fill="none" stroke="#000000" points="451.5,-487.7 451.5,-509.7 562.5,-509.7 562.5,-487.7 451.5,-487.7"/>
<text text-anchor="start" x="454.5" y="-495.4" font-family="Helvetica,sans-Serif" font-size="11.00" fill="#000000">int[10]</text>
<polygon fill="none" stroke="#000000" points="255.5,-465.7 255.5,-487.7 451.5,-487.7 451.5,-465.7 255.5,-465.7"/>
<text text-anchor="start" x="275.5" y="-472.8" font-family="Helvetica,sans-Serif" font-size="11.00" fill="#000000">Common_TermsNConditionFK</text>
<polygon fill="none" stroke="#000000" points="451.5,-465.7 451.5,-487.7 562.5,-487.7 562.5,-465.7 451.5,-465.7"/>
<text text-anchor="start" x="454.5" y="-473.4" font-family="Helvetica,sans-Serif" font-size="11.00" fill="#000000">int[10]</text>
<polygon fill="none" stroke="#000000" points="255.5,-443.7 255.5,-465.7 451.5,-465.7 451.5,-443.7 255.5,-443.7"/>
<text text-anchor="start" x="275.5" y="-450.8" font-family="Helvetica,sans-Serif" font-size="11.00" fill="#000000">Common_UnitFK</text>
<polygon fill="none" stroke="#000000" points="451.5,-443.7 451.5,-465.7 562.5,-465.7 562.5,-443.7 451.5,-443.7"/>
<text text-anchor="start" x="454.5" y="-451.4" font-family="Helvetica,sans-Serif" font-size="11.00" fill="#000000">int[10]</text>
<polygon fill="none" stroke="#000000" points="255.5,-421.7 255.5,-443.7 451.5,-443.7 451.5,-421.7 255.5,-421.7"/>
<text text-anchor="start" x="275.5" y="-428.8" font-family="Helvetica,sans-Serif" font-size="11.00" fill="#000000">ReferenceDealerFK</text>
<polygon fill="none" stroke="#000000" points="451.5,-421.7 451.5,-443.7 562.5,-443.7 562.5,-421.7 451.5,-421.7"/>
<text text-anchor="start" x="454.5" y="-429.4" font-family="Helvetica,sans-Serif" font-size="11.00" fill="#000000">int[10]</text>
<polygon fill="none" stroke="#000000" points="255.5,-399.7 255.5,-421.7 451.5,-421.7 451.5,-399.7 255.5,-399.7"/>
<text text-anchor="start" x="275.5" y="-406.8" font-family="Helvetica,sans-Serif" font-size="11.00" fill="#000000">IsCanceled</text>
<polygon fill="none" stroke="#000000" points="451.5,-399.7 451.5,-421.7 562.5,-421.7 562.5,-399.7 451.5,-399.7"/>
<text text-anchor="start" x="454.5" y="-407.4" font-family="Helvetica,sans-Serif" font-size="11.00" fill="#000000">bit[1]</text>
<polygon fill="none" stroke="#000000" points="255.5,-377.7 255.5,-399.7 451.5,-399.7 451.5,-377.7 255.5,-377.7"/>
<text text-anchor="start" x="275.5" y="-384.8" font-family="Helvetica,sans-Serif" font-size="11.00" fill="#000000">IsReceived</text>
<polygon fill="none" stroke="#000000" points="451.5,-377.7 451.5,-399.7 562.5,-399.7 562.5,-377.7 451.5,-377.7"/>
<text text-anchor="start" x="454.5" y="-385.4" font-family="Helvetica,sans-Serif" font-size="11.00" fill="#000000">bit[1]</text>
<polygon fill="none" stroke="#000000" points="255.5,-355.7 255.5,-377.7 451.5,-377.7 451.5,-355.7 255.5,-355.7"/>
<text text-anchor="start" x="275.5" y="-362.8" font-family="Helvetica,sans-Serif" font-size="11.00" fill="#000000">WarehouseFK</text>
<polygon fill="none" stroke="#000000" points="451.5,-355.7 451.5,-377.7 562.5,-377.7 562.5,-355.7 451.5,-355.7"/>
<text text-anchor="start" x="454.5" y="-363.4" font-family="Helvetica,sans-Serif" font-size="11.00" fill="#000000">int[10]</text>
<polygon fill="none" stroke="#000000" points="255.5,-333.7 255.5,-355.7 451.5,-355.7 451.5,-333.7 255.5,-333.7"/>
<text text-anchor="start" x="275.5" y="-340.8" font-family="Helvetica,sans-Serif" font-size="11.00" fill="#000000">Common_ShopFK</text>
<polygon fill="none" stroke="#000000" points="451.5,-333.7 451.5,-355.7 562.5,-355.7 562.5,-333.7 451.5,-333.7"/>
<text text-anchor="start" x="454.5" y="-341.4" font-family="Helvetica,sans-Serif" font-size="11.00" fill="#000000">int[10]</text>
<polygon fill="#ffffff" stroke="transparent" points="255.5,-314.7 255.5,-333.7 338.5,-333.7 338.5,-314.7 255.5,-314.7"/>
<polygon fill="none" stroke="#000000" points="255.5,-314.7 255.5,-333.7 338.5,-333.7 338.5,-314.7 255.5,-314.7"/>
<text text-anchor="start" x="258.5" y="-320.8" font-family="Helvetica,sans-Serif" font-size="11.00" fill="#000000">&lt; 2</text>
<polygon fill="#ffffff" stroke="transparent" points="338.5,-314.7 338.5,-333.7 451.5,-333.7 451.5,-314.7 338.5,-314.7"/>
<polygon fill="none" stroke="#000000" points="338.5,-314.7 338.5,-333.7 451.5,-333.7 451.5,-314.7 338.5,-314.7"/>
<text text-anchor="start" x="403.8807" y="-320.8" font-family="Helvetica,sans-Serif" font-size="11.00" fill="#000000">389 rows</text>
<polygon fill="#ffffff" stroke="transparent" points="451.5,-314.7 451.5,-333.7 562.5,-333.7 562.5,-314.7 451.5,-314.7"/>
<polygon fill="none" stroke="#000000" points="451.5,-314.7 451.5,-333.7 562.5,-333.7 562.5,-314.7 451.5,-314.7"/>
<text text-anchor="start" x="543.9053" y="-320.8" font-family="Helvetica,sans-Serif" font-size="11.00" fill="#000000">1 &gt;</text>
<polygon fill="none" stroke="#000000" stroke-width="2" points="254,-313.7 254,-1083.7 563,-1083.7 563,-313.7 254,-313.7"/>
</a>
</g>
</g>
<!-- order_sale&#45;&gt;common_customer -->
<g id="edge6" class="edge">
<title>order_sale:w&#45;&gt;common_customer:e</title>
<path fill="none" stroke="#000000" d="M240.9226,-827.9367C42.5507,-805.9583 405.787,-316.7 181,-316.7"/>
<polygon fill="#000000" stroke="#000000" points="247.5109,-828.2816 255.3117,-832.2951 251.5055,-828.4908 255.5,-828.7 255.5,-828.7 255.5,-828.7 251.5055,-828.4908 255.6883,-825.1049 247.5109,-828.2816 247.5109,-828.2816"/>
<ellipse fill="none" stroke="#000000" cx="244.3153" cy="-828.1143" rx="3.2" ry="3.2"/>
</g>
<!-- order_sale&#45;&gt;common_dealer -->
<g id="edge7" class="edge">
<title>order_sale:w&#45;&gt;common_dealer:e</title>
<path fill="none" stroke="#000000" d="M243.6103,-798.5515C198.4081,-726.2841 267.266,-197.7 204,-197.7"/>
<polygon fill="#000000" stroke="#000000" points="248.901,-802.1774 253.4648,-809.6695 252.2005,-804.4387 255.5,-806.7 255.5,-806.7 255.5,-806.7 252.2005,-804.4387 257.5352,-803.7305 248.901,-802.1774 248.901,-802.1774"/>
<ellipse fill="none" stroke="#000000" cx="246.2614" cy="-800.3684" rx="3.2" ry="3.2"/>
</g>
<!-- order_saleitem -->
<g id="node8" class="node">
<title>order_saleitem</title>
<g id="a_node8"><a xlink:href="../../tables/order_saleitem.html" xlink:title="order_saleitem" target="_top">
<polygon fill="#ffffff" stroke="transparent" points="613,-591.2 613,-718.2 789,-718.2 789,-591.2 613,-591.2"/>
<polygon fill="#f5f5f5" stroke="transparent" points="613,-694.7 613,-717.7 789,-717.7 789,-694.7 613,-694.7"/>
<polygon fill="none" stroke="#000000" points="613,-694.7 613,-717.7 789,-717.7 789,-694.7 613,-694.7"/>
<text text-anchor="start" x="618" y="-703.3" font-family="Helvetica,sans-Serif" font-weight="bold" font-size="11.00" fill="#000000">order_saleitem</text>
<text text-anchor="start" x="754.0437" y="-702.8" font-family="Helvetica,sans-Serif" font-size="11.00" fill="#000000">[table]</text>
<polygon fill="none" stroke="#000000" points="613,-672.7 613,-694.7 789,-694.7 789,-672.7 613,-672.7"/>
<image xlink:href="../../images/primaryKeys.png" width="11px" height="12px" preserveAspectRatio="xMinYMin meet" x="618" y="-689.7"/>
<text text-anchor="start" x="633" y="-679.8" font-family="Helvetica,sans-Serif" font-size="11.00" fill="#000000">ID</text>
<polygon fill="#ffffff" stroke="transparent" points="613,-650.7 613,-672.7 789,-672.7 789,-650.7 613,-650.7"/>
<polygon fill="none" stroke="#000000" points="613,-650.7 613,-672.7 789,-672.7 789,-650.7 613,-650.7"/>
<image xlink:href="../../images/foreignKeys.png" width="11px" height="12px" preserveAspectRatio="xMinYMin meet" x="618" y="-667.7"/>
<text text-anchor="start" x="633" y="-657.8" font-family="Helvetica,sans-Serif" font-size="11.00" fill="#000000">Order_SaleFK</text>
<polygon fill="#ffffff" stroke="transparent" points="613,-628.7 613,-650.7 789,-650.7 789,-628.7 613,-628.7"/>
<polygon fill="none" stroke="#000000" points="613,-628.7 613,-650.7 789,-650.7 789,-628.7 613,-628.7"/>
<image xlink:href="../../images/foreignKeys.png" width="11px" height="12px" preserveAspectRatio="xMinYMin meet" x="618" y="-645.7"/>
<text text-anchor="start" x="633" y="-635.8" font-family="Helvetica,sans-Serif" font-size="11.00" fill="#000000">Common_ProductFK</text>
<polygon fill="none" stroke="#000000" points="613,-609.7 613,-628.7 789,-628.7 789,-609.7 613,-609.7"/>
<text text-anchor="start" x="616" y="-615.8" font-family="Helvetica,sans-Serif" font-size="11.00" fill="#000000">...</text>
<polygon fill="#ffffff" stroke="transparent" points="613,-590.7 613,-609.7 680,-609.7 680,-590.7 613,-590.7"/>
<polygon fill="none" stroke="#000000" points="613,-590.7 613,-609.7 680,-609.7 680,-590.7 613,-590.7"/>
<text text-anchor="start" x="616" y="-596.8" font-family="Helvetica,sans-Serif" font-size="11.00" fill="#000000">&lt; 2</text>
<polygon fill="#ffffff" stroke="transparent" points="680,-590.7 680,-609.7 753,-609.7 753,-590.7 680,-590.7"/>
<polygon fill="none" stroke="#000000" points="680,-590.7 680,-609.7 753,-609.7 753,-590.7 680,-590.7"/>
<text text-anchor="start" x="705.3807" y="-596.8" font-family="Helvetica,sans-Serif" font-size="11.00" fill="#000000">659 rows</text>
<polygon fill="#ffffff" stroke="transparent" points="753,-590.7 753,-609.7 789,-609.7 789,-590.7 753,-590.7"/>
<polygon fill="none" stroke="#000000" points="753,-590.7 753,-609.7 789,-609.7 789,-590.7 753,-590.7"/>
<text text-anchor="start" x="779.8862" y="-596.8" font-family="Helvetica,sans-Serif" font-size="11.00" fill="#000000"> &#160;</text>
</a>
</g>
</g>
<!-- order_saleitem&#45;&gt;common_product -->
<g id="edge8" class="edge">
<title>order_saleitem:w&#45;&gt;common_product:e</title>
<path fill="none" stroke="#000000" d="M598.9302,-636.5062C530.8072,-601.6596 622.9781,-292.0005 572,-219.7 545.5346,-182.1651 524.4269,-175.7 478.5,-175.7"/>
<polygon fill="#000000" stroke="#000000" points="605.1985,-637.929 612.2031,-643.2107 609.0992,-638.8145 613,-639.7 613,-639.7 613,-639.7 609.0992,-638.8145 613.7969,-636.1893 605.1985,-637.929 605.1985,-637.929"/>
<ellipse fill="none" stroke="#000000" cx="602.0779" cy="-637.2207" rx="3.2" ry="3.2"/>
</g>
<!-- order_saleitem&#45;&gt;order_sale -->
<g id="edge9" class="edge">
<title>order_saleitem:w&#45;&gt;order_sale:e</title>
<path fill="none" stroke="#000000" d="M599.0932,-666.0462C540.8216,-708.5633 643.8085,-1048.7 562.5,-1048.7"/>
<polygon fill="#000000" stroke="#000000" points="605.3642,-664.0864 614.0739,-665.1361 609.1821,-662.8932 613,-661.7 613,-661.7 613,-661.7 609.1821,-662.8932 611.9261,-658.2639 605.3642,-664.0864 605.3642,-664.0864"/>
<ellipse fill="none" stroke="#000000" cx="602.3099" cy="-665.041" rx="3.2" ry="3.2"/>
</g>
</g>
</svg>
