<?xml version="1.0" encoding="UTF-8" standalone="no"?>
<!DOCTYPE svg PUBLIC "-//W3C//DTD SVG 1.1//EN"
 "http://www.w3.org/Graphics/SVG/1.1/DTD/svg11.dtd">
<!-- Generated by graphviz version 2.40.1 (20161225.0304)
 -->
<!-- Title: oneDegreeRelationshipsDiagram Pages: 1 -->
<svg width="263pt" height="404pt"
 viewBox="0.00 0.00 263.00 404.20" xmlns="http://www.w3.org/2000/svg" xmlns:xlink="http://www.w3.org/1999/xlink">
<g id="graph0" class="graph" transform="scale(1 1) rotate(0) translate(4 400.2)">
<title>oneDegreeRelationshipsDiagram</title>
<polygon fill="#ffffff" stroke="transparent" points="-4,4 -4,-400.2 259,-400.2 259,4 -4,4"/>
<text text-anchor="middle" x="72.4936" y="-7.3" font-family="Helvetica,sans-Serif" font-size="11.00" fill="#000000">Generated by SchemaSpy</text>
<!-- order_project -->
<g id="node1" class="node">
<title>order_project</title>
<g id="a_node1"><a xlink:href="../../tables/order_project.html" xlink:title="order_project" target="_top">
<polygon fill="#ffffff" stroke="transparent" points="8,-38.2 8,-392.2 247,-392.2 247,-38.2 8,-38.2"/>
<polygon fill="#f5f5f5" stroke="transparent" points="10.5,-367.2 10.5,-390.2 245.5,-390.2 245.5,-367.2 10.5,-367.2"/>
<polygon fill="none" stroke="#000000" points="10.5,-367.2 10.5,-390.2 245.5,-390.2 245.5,-367.2 10.5,-367.2"/>
<text text-anchor="start" x="15.5" y="-375.8" font-family="Helvetica,sans-Serif" font-weight="bold" font-size="11.00" fill="#000000">order_project</text>
<text text-anchor="start" x="210.5437" y="-375.3" font-family="Helvetica,sans-Serif" font-size="11.00" fill="#000000">[table]</text>
<polygon fill="none" stroke="#000000" points="10.5,-345.2 10.5,-367.2 134.5,-367.2 134.5,-345.2 10.5,-345.2"/>
<image xlink:href="../../images/primaryKeys.png" width="11px" height="12px" preserveAspectRatio="xMinYMin meet" x="15.5" y="-362.2"/>
<text text-anchor="start" x="30.5" y="-352.3" font-family="Helvetica,sans-Serif" font-size="11.00" fill="#000000">ID</text>
<polygon fill="none" stroke="#000000" points="134.5,-345.2 134.5,-367.2 245.5,-367.2 245.5,-345.2 134.5,-345.2"/>
<text text-anchor="start" x="137.5" y="-352.9" font-family="Helvetica,sans-Serif" font-size="11.00" fill="#000000">int[10]</text>
<polygon fill="none" stroke="#000000" points="10.5,-323.2 10.5,-345.2 134.5,-345.2 134.5,-323.2 10.5,-323.2"/>
<text text-anchor="start" x="30.5" y="-330.3" font-family="Helvetica,sans-Serif" font-size="11.00" fill="#000000">Active</text>
<polygon fill="none" stroke="#000000" points="134.5,-323.2 134.5,-345.2 245.5,-345.2 245.5,-323.2 134.5,-323.2"/>
<text text-anchor="start" x="137.5" y="-330.9" font-family="Helvetica,sans-Serif" font-size="11.00" fill="#000000">bit[1]</text>
<polygon fill="none" stroke="#000000" points="10.5,-301.2 10.5,-323.2 134.5,-323.2 134.5,-301.2 10.5,-301.2"/>
<text text-anchor="start" x="30.5" y="-308.3" font-family="Helvetica,sans-Serif" font-size="11.00" fill="#000000">User</text>
<polygon fill="none" stroke="#000000" points="134.5,-301.2 134.5,-323.2 245.5,-323.2 245.5,-301.2 134.5,-301.2"/>
<text text-anchor="start" x="137.1115" y="-308.9" font-family="Helvetica,sans-Serif" font-size="11.00" fill="#000000">longtext[2147483647]</text>
<polygon fill="none" stroke="#000000" points="10.5,-279.2 10.5,-301.2 134.5,-301.2 134.5,-279.2 10.5,-279.2"/>
<text text-anchor="start" x="30.5" y="-286.3" font-family="Helvetica,sans-Serif" font-size="11.00" fill="#000000">CD</text>
<polygon fill="none" stroke="#000000" points="134.5,-279.2 134.5,-301.2 245.5,-301.2 245.5,-279.2 134.5,-279.2"/>
<text text-anchor="start" x="137.5" y="-286.9" font-family="Helvetica,sans-Serif" font-size="11.00" fill="#000000">datetime[26]</text>
<polygon fill="none" stroke="#000000" points="10.5,-257.2 10.5,-279.2 134.5,-279.2 134.5,-257.2 10.5,-257.2"/>
<text text-anchor="start" x="30.5" y="-264.3" font-family="Helvetica,sans-Serif" font-size="11.00" fill="#000000">UD</text>
<polygon fill="none" stroke="#000000" points="134.5,-257.2 134.5,-279.2 245.5,-279.2 245.5,-257.2 134.5,-257.2"/>
<text text-anchor="start" x="137.5" y="-264.9" font-family="Helvetica,sans-Serif" font-size="11.00" fill="#000000">datetime[26]</text>
<polygon fill="none" stroke="#000000" points="10.5,-235.2 10.5,-257.2 134.5,-257.2 134.5,-235.2 10.5,-235.2"/>
<text text-anchor="start" x="30.5" y="-242.3" font-family="Helvetica,sans-Serif" font-size="11.00" fill="#000000">Remarks</text>
<polygon fill="none" stroke="#000000" points="134.5,-235.2 134.5,-257.2 245.5,-257.2 245.5,-235.2 134.5,-235.2"/>
<text text-anchor="start" x="137.1115" y="-242.9" font-family="Helvetica,sans-Serif" font-size="11.00" fill="#000000">longtext[2147483647]</text>
<polygon fill="none" stroke="#000000" points="10.5,-213.2 10.5,-235.2 134.5,-235.2 134.5,-213.2 10.5,-213.2"/>
<text text-anchor="start" x="30.5" y="-220.3" font-family="Helvetica,sans-Serif" font-size="11.00" fill="#000000">UserID</text>
<polygon fill="none" stroke="#000000" points="134.5,-213.2 134.5,-235.2 245.5,-235.2 245.5,-213.2 134.5,-213.2"/>
<text text-anchor="start" x="137.5" y="-220.9" font-family="Helvetica,sans-Serif" font-size="11.00" fill="#000000">int[10]</text>
<polygon fill="none" stroke="#000000" points="10.5,-191.2 10.5,-213.2 134.5,-213.2 134.5,-191.2 10.5,-191.2"/>
<text text-anchor="start" x="30.5" y="-198.3" font-family="Helvetica,sans-Serif" font-size="11.00" fill="#000000">CompnayFK</text>
<polygon fill="none" stroke="#000000" points="134.5,-191.2 134.5,-213.2 245.5,-213.2 245.5,-191.2 134.5,-191.2"/>
<text text-anchor="start" x="137.5" y="-198.9" font-family="Helvetica,sans-Serif" font-size="11.00" fill="#000000">int[10]</text>
<polygon fill="none" stroke="#000000" points="10.5,-169.2 10.5,-191.2 134.5,-191.2 134.5,-169.2 10.5,-169.2"/>
<text text-anchor="start" x="30.5" y="-176.3" font-family="Helvetica,sans-Serif" font-size="11.00" fill="#000000">Name</text>
<polygon fill="none" stroke="#000000" points="134.5,-169.2 134.5,-191.2 245.5,-191.2 245.5,-169.2 134.5,-169.2"/>
<text text-anchor="start" x="137.1115" y="-176.9" font-family="Helvetica,sans-Serif" font-size="11.00" fill="#000000">longtext[2147483647]</text>
<polygon fill="none" stroke="#000000" points="10.5,-147.2 10.5,-169.2 134.5,-169.2 134.5,-147.2 10.5,-147.2"/>
<text text-anchor="start" x="30.5" y="-154.3" font-family="Helvetica,sans-Serif" font-size="11.00" fill="#000000">OpeningDate</text>
<polygon fill="none" stroke="#000000" points="134.5,-147.2 134.5,-169.2 245.5,-169.2 245.5,-147.2 134.5,-147.2"/>
<text text-anchor="start" x="137.5" y="-154.9" font-family="Helvetica,sans-Serif" font-size="11.00" fill="#000000">datetime[26]</text>
<polygon fill="none" stroke="#000000" points="10.5,-125.2 10.5,-147.2 134.5,-147.2 134.5,-125.2 10.5,-125.2"/>
<text text-anchor="start" x="30.5" y="-132.3" font-family="Helvetica,sans-Serif" font-size="11.00" fill="#000000">ExpireDate</text>
<polygon fill="none" stroke="#000000" points="134.5,-125.2 134.5,-147.2 245.5,-147.2 245.5,-125.2 134.5,-125.2"/>
<text text-anchor="start" x="137.5" y="-132.9" font-family="Helvetica,sans-Serif" font-size="11.00" fill="#000000">datetime[26]</text>
<polygon fill="none" stroke="#000000" points="10.5,-103.2 10.5,-125.2 134.5,-125.2 134.5,-103.2 10.5,-103.2"/>
<text text-anchor="start" x="30.5" y="-110.3" font-family="Helvetica,sans-Serif" font-size="11.00" fill="#000000">RevenueRate</text>
<polygon fill="none" stroke="#000000" points="134.5,-103.2 134.5,-125.2 245.5,-125.2 245.5,-103.2 134.5,-103.2"/>
<text text-anchor="start" x="137.5" y="-110.9" font-family="Helvetica,sans-Serif" font-size="11.00" fill="#000000">decimal[65,30]</text>
<polygon fill="none" stroke="#000000" points="10.5,-81.2 10.5,-103.2 134.5,-103.2 134.5,-81.2 10.5,-81.2"/>
<text text-anchor="start" x="30.5" y="-88.3" font-family="Helvetica,sans-Serif" font-size="11.00" fill="#000000">ExpectedRevenue</text>
<polygon fill="none" stroke="#000000" points="134.5,-81.2 134.5,-103.2 245.5,-103.2 245.5,-81.2 134.5,-81.2"/>
<text text-anchor="start" x="137.5" y="-88.9" font-family="Helvetica,sans-Serif" font-size="11.00" fill="#000000">decimal[65,30]</text>
<polygon fill="none" stroke="#000000" points="10.5,-59.2 10.5,-81.2 134.5,-81.2 134.5,-59.2 10.5,-59.2"/>
<text text-anchor="start" x="30.5" y="-66.3" font-family="Helvetica,sans-Serif" font-size="11.00" fill="#000000">Budget</text>
<polygon fill="none" stroke="#000000" points="134.5,-59.2 134.5,-81.2 245.5,-81.2 245.5,-59.2 134.5,-59.2"/>
<text text-anchor="start" x="137.5" y="-66.9" font-family="Helvetica,sans-Serif" font-size="11.00" fill="#000000">decimal[65,30]</text>
<polygon fill="#ffffff" stroke="transparent" points="10.5,-40.2 10.5,-59.2 63.5,-59.2 63.5,-40.2 10.5,-40.2"/>
<polygon fill="none" stroke="#000000" points="10.5,-40.2 10.5,-59.2 63.5,-59.2 63.5,-40.2 10.5,-40.2"/>
<text text-anchor="start" x="13.5" y="-46.3" font-family="Helvetica,sans-Serif" font-size="11.00" fill="#000000">&lt; 0</text>
<polygon fill="#ffffff" stroke="transparent" points="63.5,-40.2 63.5,-59.2 134.5,-59.2 134.5,-40.2 63.5,-40.2"/>
<polygon fill="none" stroke="#000000" points="63.5,-40.2 63.5,-59.2 134.5,-59.2 134.5,-40.2 63.5,-40.2"/>
<text text-anchor="start" x="99.1105" y="-46.3" font-family="Helvetica,sans-Serif" font-size="11.00" fill="#000000">0 rows</text>
<polygon fill="#ffffff" stroke="transparent" points="134.5,-40.2 134.5,-59.2 245.5,-59.2 245.5,-40.2 134.5,-40.2"/>
<polygon fill="none" stroke="#000000" points="134.5,-40.2 134.5,-59.2 245.5,-59.2 245.5,-40.2 134.5,-40.2"/>
<text text-anchor="start" x="226.9053" y="-46.3" font-family="Helvetica,sans-Serif" font-size="11.00" fill="#000000">0 &gt;</text>
<polygon fill="none" stroke="#000000" stroke-width="2" points="9,-39.2 9,-391.2 246,-391.2 246,-39.2 9,-39.2"/>
</a>
</g>
</g>
</g>
</svg>
