<?xml version="1.0" encoding="UTF-8" standalone="no"?>
<!DOCTYPE svg PUBLIC "-//W3C//DTD SVG 1.1//EN"
 "http://www.w3.org/Graphics/SVG/1.1/DTD/svg11.dtd">
<!-- Generated by graphviz version 2.40.1 (20161225.0304)
 -->
<!-- Title: twoDegreesRelationshipsDiagram Pages: 1 -->
<svg width="492pt" height="619pt"
 viewBox="0.00 0.00 492.00 618.70" xmlns="http://www.w3.org/2000/svg" xmlns:xlink="http://www.w3.org/1999/xlink">
<g id="graph0" class="graph" transform="scale(1 1) rotate(0) translate(4 614.7)">
<title>twoDegreesRelationshipsDiagram</title>
<polygon fill="#ffffff" stroke="transparent" points="-4,4 -4,-614.7 488,-614.7 488,4 -4,4"/>
<text text-anchor="middle" x="72.4936" y="-7.3" font-family="Helvetica,sans-Serif" font-size="11.00" fill="#000000">Generated by SchemaSpy</text>
<!-- order_receiveitem -->
<g id="node1" class="node">
<title>order_receiveitem</title>
<g id="a_node1"><a xlink:href="../../tables/order_receiveitem.html" xlink:title="order_receiveitem" target="_top">
<polygon fill="#ffffff" stroke="transparent" points="313,-258.2 313,-385.2 476,-385.2 476,-258.2 313,-258.2"/>
<polygon fill="#f5f5f5" stroke="transparent" points="313.5,-361.7 313.5,-384.7 476.5,-384.7 476.5,-361.7 313.5,-361.7"/>
<polygon fill="none" stroke="#000000" points="313.5,-361.7 313.5,-384.7 476.5,-384.7 476.5,-361.7 313.5,-361.7"/>
<text text-anchor="start" x="318.5" y="-370.3" font-family="Helvetica,sans-Serif" font-weight="bold" font-size="11.00" fill="#000000">order_receiveitem</text>
<text text-anchor="start" x="441.5437" y="-369.8" font-family="Helvetica,sans-Serif" font-size="11.00" fill="#000000">[table]</text>
<polygon fill="none" stroke="#000000" points="313.5,-339.7 313.5,-361.7 476.5,-361.7 476.5,-339.7 313.5,-339.7"/>
<image xlink:href="../../images/primaryKeys.png" width="11px" height="12px" preserveAspectRatio="xMinYMin meet" x="318.5" y="-356.7"/>
<text text-anchor="start" x="333.5" y="-346.8" font-family="Helvetica,sans-Serif" font-size="11.00" fill="#000000">ID</text>
<polygon fill="#ffffff" stroke="transparent" points="313.5,-317.7 313.5,-339.7 476.5,-339.7 476.5,-317.7 313.5,-317.7"/>
<polygon fill="none" stroke="#000000" points="313.5,-317.7 313.5,-339.7 476.5,-339.7 476.5,-317.7 313.5,-317.7"/>
<image xlink:href="../../images/foreignKeys.png" width="11px" height="12px" preserveAspectRatio="xMinYMin meet" x="318.5" y="-334.7"/>
<text text-anchor="start" x="333.5" y="-324.8" font-family="Helvetica,sans-Serif" font-size="11.00" fill="#000000">Order_ReceiveFK</text>
<polygon fill="#ffffff" stroke="transparent" points="313.5,-295.7 313.5,-317.7 476.5,-317.7 476.5,-295.7 313.5,-295.7"/>
<polygon fill="none" stroke="#000000" points="313.5,-295.7 313.5,-317.7 476.5,-317.7 476.5,-295.7 313.5,-295.7"/>
<image xlink:href="../../images/foreignKeys.png" width="11px" height="12px" preserveAspectRatio="xMinYMin meet" x="318.5" y="-312.7"/>
<text text-anchor="start" x="333.5" y="-302.8" font-family="Helvetica,sans-Serif" font-size="11.00" fill="#000000">Common_ProductFK</text>
<polygon fill="none" stroke="#000000" points="313.5,-276.7 313.5,-295.7 476.5,-295.7 476.5,-276.7 313.5,-276.7"/>
<text text-anchor="start" x="316.5" y="-282.8" font-family="Helvetica,sans-Serif" font-size="11.00" fill="#000000">...</text>
<polygon fill="#ffffff" stroke="transparent" points="313.5,-257.7 313.5,-276.7 366.5,-276.7 366.5,-257.7 313.5,-257.7"/>
<polygon fill="none" stroke="#000000" points="313.5,-257.7 313.5,-276.7 366.5,-276.7 366.5,-257.7 313.5,-257.7"/>
<text text-anchor="start" x="316.5" y="-263.8" font-family="Helvetica,sans-Serif" font-size="11.00" fill="#000000">&lt; 2</text>
<polygon fill="#ffffff" stroke="transparent" points="366.5,-257.7 366.5,-276.7 447.5,-276.7 447.5,-257.7 366.5,-257.7"/>
<polygon fill="none" stroke="#000000" points="366.5,-257.7 366.5,-276.7 447.5,-276.7 447.5,-257.7 366.5,-257.7"/>
<text text-anchor="start" x="384.594" y="-263.8" font-family="Helvetica,sans-Serif" font-size="11.00" fill="#000000">18,922 rows</text>
<polygon fill="#ffffff" stroke="transparent" points="447.5,-257.7 447.5,-276.7 476.5,-276.7 476.5,-257.7 447.5,-257.7"/>
<polygon fill="none" stroke="#000000" points="447.5,-257.7 447.5,-276.7 476.5,-276.7 476.5,-257.7 447.5,-257.7"/>
<text text-anchor="start" x="467.3862" y="-263.8" font-family="Helvetica,sans-Serif" font-size="11.00" fill="#000000"> &#160;</text>
</a>
</g>
</g>
<!-- common_product -->
<g id="node2" class="node">
<title>common_product</title>
<g id="a_node2"><a xlink:href="../../tables/common_product.html" xlink:title="common_product" target="_top">
<polygon fill="#ffffff" stroke="transparent" points="66,-38.2 66,-99.2 206,-99.2 206,-38.2 66,-38.2"/>
<polygon fill="#f5f5f5" stroke="transparent" points="66,-75.7 66,-98.7 206,-98.7 206,-75.7 66,-75.7"/>
<polygon fill="none" stroke="#000000" points="66,-75.7 66,-98.7 206,-98.7 206,-75.7 66,-75.7"/>
<text text-anchor="start" x="71" y="-84.3" font-family="Helvetica,sans-Serif" font-weight="bold" font-size="11.00" fill="#000000">common_product</text>
<text text-anchor="start" x="171.5219" y="-83.8" font-family="Helvetica,sans-Serif" font-size="11.00" fill="#000000">[table]</text>
<polygon fill="none" stroke="#000000" points="66,-56.7 66,-75.7 206,-75.7 206,-56.7 66,-56.7"/>
<text text-anchor="start" x="69" y="-62.8" font-family="Helvetica,sans-Serif" font-size="11.00" fill="#000000">...</text>
<polygon fill="#ffffff" stroke="transparent" points="66,-37.7 66,-56.7 114,-56.7 114,-37.7 66,-37.7"/>
<polygon fill="none" stroke="#000000" points="66,-37.7 66,-56.7 114,-56.7 114,-37.7 66,-37.7"/>
<text text-anchor="start" x="69" y="-43.8" font-family="Helvetica,sans-Serif" font-size="11.00" fill="#000000">&lt; 1</text>
<polygon fill="#ffffff" stroke="transparent" points="114,-37.7 114,-56.7 171,-56.7 171,-37.7 114,-37.7"/>
<polygon fill="none" stroke="#000000" points="114,-37.7 114,-56.7 171,-56.7 171,-37.7 114,-37.7"/>
<text text-anchor="start" x="129.4956" y="-43.8" font-family="Helvetica,sans-Serif" font-size="11.00" fill="#000000">54 rows</text>
<polygon fill="#ffffff" stroke="transparent" points="171,-37.7 171,-56.7 206,-56.7 206,-37.7 171,-37.7"/>
<polygon fill="none" stroke="#000000" points="171,-37.7 171,-56.7 206,-56.7 206,-37.7 171,-37.7"/>
<text text-anchor="start" x="187.4053" y="-43.8" font-family="Helvetica,sans-Serif" font-size="11.00" fill="#000000">6 &gt;</text>
</a>
</g>
</g>
<!-- order_receiveitem&#45;&gt;common_product -->
<g id="edge1" class="edge">
<title>order_receiveitem:w&#45;&gt;common_product:e</title>
<path fill="none" stroke="#000000" d="M298.8397,-305.3016C235.7116,-291.5269 319.0327,-179.1593 272,-109.7 252.2336,-80.5084 241.2543,-65.7 206,-65.7"/>
<polygon fill="#000000" stroke="#000000" points="305.5361,-305.9403 313.1581,-310.2837 309.5181,-306.3201 313.5,-306.7 313.5,-306.7 313.5,-306.7 309.5181,-306.3201 313.8419,-303.1163 305.5361,-305.9403 305.5361,-305.9403"/>
<ellipse fill="none" stroke="#000000" cx="302.3506" cy="-305.6364" rx="3.2" ry="3.2"/>
</g>
<!-- order_receive -->
<g id="node3" class="node">
<title>order_receive</title>
<g id="a_node3"><a xlink:href="../../tables/order_receive.html" xlink:title="order_receive" target="_top">
<polygon fill="#ffffff" stroke="transparent" points="8,-120.7 8,-606.7 264,-606.7 264,-120.7 8,-120.7"/>
<polygon fill="#f5f5f5" stroke="transparent" points="10,-581.7 10,-604.7 262,-604.7 262,-581.7 10,-581.7"/>
<polygon fill="none" stroke="#000000" points="10,-581.7 10,-604.7 262,-604.7 262,-581.7 10,-581.7"/>
<text text-anchor="start" x="15" y="-590.3" font-family="Helvetica,sans-Serif" font-weight="bold" font-size="11.00" fill="#000000">order_receive</text>
<text text-anchor="start" x="227.0437" y="-589.8" font-family="Helvetica,sans-Serif" font-size="11.00" fill="#000000">[table]</text>
<polygon fill="none" stroke="#000000" points="10,-559.7 10,-581.7 151,-581.7 151,-559.7 10,-559.7"/>
<image xlink:href="../../images/primaryKeys.png" width="11px" height="12px" preserveAspectRatio="xMinYMin meet" x="15" y="-576.7"/>
<text text-anchor="start" x="30" y="-566.8" font-family="Helvetica,sans-Serif" font-size="11.00" fill="#000000">ID</text>
<polygon fill="none" stroke="#000000" points="151,-559.7 151,-581.7 262,-581.7 262,-559.7 151,-559.7"/>
<text text-anchor="start" x="154" y="-567.4" font-family="Helvetica,sans-Serif" font-size="11.00" fill="#000000">int[10]</text>
<polygon fill="none" stroke="#000000" points="10,-537.7 10,-559.7 151,-559.7 151,-537.7 10,-537.7"/>
<text text-anchor="start" x="30" y="-544.8" font-family="Helvetica,sans-Serif" font-size="11.00" fill="#000000">Active</text>
<polygon fill="none" stroke="#000000" points="151,-537.7 151,-559.7 262,-559.7 262,-537.7 151,-537.7"/>
<text text-anchor="start" x="154" y="-545.4" font-family="Helvetica,sans-Serif" font-size="11.00" fill="#000000">bit[1]</text>
<polygon fill="none" stroke="#000000" points="10,-515.7 10,-537.7 151,-537.7 151,-515.7 10,-515.7"/>
<text text-anchor="start" x="30" y="-522.8" font-family="Helvetica,sans-Serif" font-size="11.00" fill="#000000">User</text>
<polygon fill="none" stroke="#000000" points="151,-515.7 151,-537.7 262,-537.7 262,-515.7 151,-515.7"/>
<text text-anchor="start" x="153.6115" y="-523.4" font-family="Helvetica,sans-Serif" font-size="11.00" fill="#000000">longtext[2147483647]</text>
<polygon fill="none" stroke="#000000" points="10,-493.7 10,-515.7 151,-515.7 151,-493.7 10,-493.7"/>
<text text-anchor="start" x="30" y="-500.8" font-family="Helvetica,sans-Serif" font-size="11.00" fill="#000000">CD</text>
<polygon fill="none" stroke="#000000" points="151,-493.7 151,-515.7 262,-515.7 262,-493.7 151,-493.7"/>
<text text-anchor="start" x="154" y="-501.4" font-family="Helvetica,sans-Serif" font-size="11.00" fill="#000000">datetime[26]</text>
<polygon fill="none" stroke="#000000" points="10,-471.7 10,-493.7 151,-493.7 151,-471.7 10,-471.7"/>
<text text-anchor="start" x="30" y="-478.8" font-family="Helvetica,sans-Serif" font-size="11.00" fill="#000000">UD</text>
<polygon fill="none" stroke="#000000" points="151,-471.7 151,-493.7 262,-493.7 262,-471.7 151,-471.7"/>
<text text-anchor="start" x="154" y="-479.4" font-family="Helvetica,sans-Serif" font-size="11.00" fill="#000000">datetime[26]</text>
<polygon fill="none" stroke="#000000" points="10,-449.7 10,-471.7 151,-471.7 151,-449.7 10,-449.7"/>
<text text-anchor="start" x="30" y="-456.8" font-family="Helvetica,sans-Serif" font-size="11.00" fill="#000000">Remarks</text>
<polygon fill="none" stroke="#000000" points="151,-449.7 151,-471.7 262,-471.7 262,-449.7 151,-449.7"/>
<text text-anchor="start" x="153.6115" y="-457.4" font-family="Helvetica,sans-Serif" font-size="11.00" fill="#000000">longtext[2147483647]</text>
<polygon fill="none" stroke="#000000" points="10,-427.7 10,-449.7 151,-449.7 151,-427.7 10,-427.7"/>
<text text-anchor="start" x="30" y="-434.8" font-family="Helvetica,sans-Serif" font-size="11.00" fill="#000000">UserID</text>
<polygon fill="none" stroke="#000000" points="151,-427.7 151,-449.7 262,-449.7 262,-427.7 151,-427.7"/>
<text text-anchor="start" x="154" y="-435.4" font-family="Helvetica,sans-Serif" font-size="11.00" fill="#000000">int[10]</text>
<polygon fill="none" stroke="#000000" points="10,-405.7 10,-427.7 151,-427.7 151,-405.7 10,-405.7"/>
<text text-anchor="start" x="30" y="-412.8" font-family="Helvetica,sans-Serif" font-size="11.00" fill="#000000">Code</text>
<polygon fill="none" stroke="#000000" points="151,-405.7 151,-427.7 262,-427.7 262,-405.7 151,-405.7"/>
<text text-anchor="start" x="153.6115" y="-413.4" font-family="Helvetica,sans-Serif" font-size="11.00" fill="#000000">longtext[2147483647]</text>
<polygon fill="none" stroke="#000000" points="10,-383.7 10,-405.7 151,-405.7 151,-383.7 10,-383.7"/>
<text text-anchor="start" x="30" y="-390.8" font-family="Helvetica,sans-Serif" font-size="11.00" fill="#000000">ReceiveDate</text>
<polygon fill="none" stroke="#000000" points="151,-383.7 151,-405.7 262,-405.7 262,-383.7 151,-383.7"/>
<text text-anchor="start" x="154" y="-391.4" font-family="Helvetica,sans-Serif" font-size="11.00" fill="#000000">datetime[26]</text>
<polygon fill="none" stroke="#000000" points="10,-361.7 10,-383.7 151,-383.7 151,-361.7 10,-361.7"/>
<text text-anchor="start" x="30" y="-368.8" font-family="Helvetica,sans-Serif" font-size="11.00" fill="#000000">DeliveryDate</text>
<polygon fill="none" stroke="#000000" points="151,-361.7 151,-383.7 262,-383.7 262,-361.7 151,-361.7"/>
<text text-anchor="start" x="154" y="-369.4" font-family="Helvetica,sans-Serif" font-size="11.00" fill="#000000">datetime[26]</text>
<polygon fill="none" stroke="#000000" points="10,-339.7 10,-361.7 151,-361.7 151,-339.7 10,-339.7"/>
<text text-anchor="start" x="30" y="-346.8" font-family="Helvetica,sans-Serif" font-size="11.00" fill="#000000">OrderNo</text>
<polygon fill="none" stroke="#000000" points="151,-339.7 151,-361.7 262,-361.7 262,-339.7 151,-339.7"/>
<text text-anchor="start" x="153.6115" y="-347.4" font-family="Helvetica,sans-Serif" font-size="11.00" fill="#000000">longtext[2147483647]</text>
<polygon fill="none" stroke="#000000" points="10,-317.7 10,-339.7 151,-339.7 151,-317.7 10,-317.7"/>
<text text-anchor="start" x="30" y="-324.8" font-family="Helvetica,sans-Serif" font-size="11.00" fill="#000000">PINo</text>
<polygon fill="none" stroke="#000000" points="151,-317.7 151,-339.7 262,-339.7 262,-317.7 151,-317.7"/>
<text text-anchor="start" x="153.6115" y="-325.4" font-family="Helvetica,sans-Serif" font-size="11.00" fill="#000000">longtext[2147483647]</text>
<polygon fill="none" stroke="#000000" points="10,-295.7 10,-317.7 151,-317.7 151,-295.7 10,-295.7"/>
<text text-anchor="start" x="30" y="-302.8" font-family="Helvetica,sans-Serif" font-size="11.00" fill="#000000">IsConfirmed</text>
<polygon fill="none" stroke="#000000" points="151,-295.7 151,-317.7 262,-317.7 262,-295.7 151,-295.7"/>
<text text-anchor="start" x="154" y="-303.4" font-family="Helvetica,sans-Serif" font-size="11.00" fill="#000000">bit[1]</text>
<polygon fill="none" stroke="#000000" points="10,-273.7 10,-295.7 151,-295.7 151,-273.7 10,-273.7"/>
<text text-anchor="start" x="30" y="-280.8" font-family="Helvetica,sans-Serif" font-size="11.00" fill="#000000">SupplierFK</text>
<polygon fill="none" stroke="#000000" points="151,-273.7 151,-295.7 262,-295.7 262,-273.7 151,-273.7"/>
<text text-anchor="start" x="154" y="-281.4" font-family="Helvetica,sans-Serif" font-size="11.00" fill="#000000">int[10]</text>
<polygon fill="none" stroke="#000000" points="10,-251.7 10,-273.7 151,-273.7 151,-251.7 10,-251.7"/>
<text text-anchor="start" x="30" y="-258.8" font-family="Helvetica,sans-Serif" font-size="11.00" fill="#000000">Common_DealerFK</text>
<polygon fill="none" stroke="#000000" points="151,-251.7 151,-273.7 262,-273.7 262,-251.7 151,-251.7"/>
<text text-anchor="start" x="154" y="-259.4" font-family="Helvetica,sans-Serif" font-size="11.00" fill="#000000">int[10]</text>
<polygon fill="none" stroke="#000000" points="10,-229.7 10,-251.7 151,-251.7 151,-229.7 10,-229.7"/>
<text text-anchor="start" x="30" y="-236.8" font-family="Helvetica,sans-Serif" font-size="11.00" fill="#000000">PaymentTypeID</text>
<polygon fill="none" stroke="#000000" points="151,-229.7 151,-251.7 262,-251.7 262,-229.7 151,-229.7"/>
<text text-anchor="start" x="154" y="-237.4" font-family="Helvetica,sans-Serif" font-size="11.00" fill="#000000">int[10]</text>
<polygon fill="none" stroke="#000000" points="10,-207.7 10,-229.7 151,-229.7 151,-207.7 10,-207.7"/>
<text text-anchor="start" x="30" y="-214.8" font-family="Helvetica,sans-Serif" font-size="11.00" fill="#000000">ReceiveTypeID</text>
<polygon fill="none" stroke="#000000" points="151,-207.7 151,-229.7 262,-229.7 262,-207.7 151,-207.7"/>
<text text-anchor="start" x="154" y="-215.4" font-family="Helvetica,sans-Serif" font-size="11.00" fill="#000000">int[10]</text>
<polygon fill="none" stroke="#000000" points="10,-185.7 10,-207.7 151,-207.7 151,-185.7 10,-185.7"/>
<text text-anchor="start" x="30" y="-192.8" font-family="Helvetica,sans-Serif" font-size="11.00" fill="#000000">WarehouseFK</text>
<polygon fill="none" stroke="#000000" points="151,-185.7 151,-207.7 262,-207.7 262,-185.7 151,-185.7"/>
<text text-anchor="start" x="154" y="-193.4" font-family="Helvetica,sans-Serif" font-size="11.00" fill="#000000">int[10]</text>
<polygon fill="none" stroke="#000000" points="10,-163.7 10,-185.7 151,-185.7 151,-163.7 10,-163.7"/>
<text text-anchor="start" x="30" y="-170.8" font-family="Helvetica,sans-Serif" font-size="11.00" fill="#000000">Order_ProjectFk</text>
<polygon fill="none" stroke="#000000" points="151,-163.7 151,-185.7 262,-185.7 262,-163.7 151,-163.7"/>
<text text-anchor="start" x="154" y="-171.4" font-family="Helvetica,sans-Serif" font-size="11.00" fill="#000000">int[10]</text>
<polygon fill="none" stroke="#000000" points="10,-141.7 10,-163.7 151,-163.7 151,-141.7 10,-141.7"/>
<text text-anchor="start" x="30" y="-148.8" font-family="Helvetica,sans-Serif" font-size="11.00" fill="#000000">RefOrder_ReceiveFK</text>
<polygon fill="none" stroke="#000000" points="151,-141.7 151,-163.7 262,-163.7 262,-141.7 151,-141.7"/>
<text text-anchor="start" x="154" y="-149.4" font-family="Helvetica,sans-Serif" font-size="11.00" fill="#000000">int[10]</text>
<polygon fill="#ffffff" stroke="transparent" points="10,-122.7 10,-141.7 66,-141.7 66,-122.7 10,-122.7"/>
<polygon fill="none" stroke="#000000" points="10,-122.7 10,-141.7 66,-141.7 66,-122.7 10,-122.7"/>
<text text-anchor="start" x="13" y="-128.8" font-family="Helvetica,sans-Serif" font-size="11.00" fill="#000000">&lt; 0</text>
<polygon fill="#ffffff" stroke="transparent" points="66,-122.7 66,-141.7 151,-141.7 151,-122.7 66,-122.7"/>
<polygon fill="none" stroke="#000000" points="66,-122.7 66,-141.7 151,-141.7 151,-122.7 66,-122.7"/>
<text text-anchor="start" x="103.3807" y="-128.8" font-family="Helvetica,sans-Serif" font-size="11.00" fill="#000000">137 rows</text>
<polygon fill="#ffffff" stroke="transparent" points="151,-122.7 151,-141.7 262,-141.7 262,-122.7 151,-122.7"/>
<polygon fill="none" stroke="#000000" points="151,-122.7 151,-141.7 262,-141.7 262,-122.7 151,-122.7"/>
<text text-anchor="start" x="243.4053" y="-128.8" font-family="Helvetica,sans-Serif" font-size="11.00" fill="#000000">1 &gt;</text>
<polygon fill="none" stroke="#000000" stroke-width="2" points="9,-121.7 9,-605.7 263,-605.7 263,-121.7 9,-121.7"/>
</a>
</g>
</g>
<!-- order_receiveitem&#45;&gt;order_receive -->
<g id="edge2" class="edge">
<title>order_receiveitem:w&#45;&gt;order_receive:e</title>
<path fill="none" stroke="#000000" d="M298.8284,-330.5088C219.924,-352.6541 366.38,-570.7 262,-570.7"/>
<polygon fill="#000000" stroke="#000000" points="305.5601,-329.6789 313.9405,-332.2729 309.5301,-329.1895 313.5,-328.7 313.5,-328.7 313.5,-328.7 309.5301,-329.1895 313.0595,-325.1271 305.5601,-329.6789 305.5601,-329.6789"/>
<ellipse fill="none" stroke="#000000" cx="302.3842" cy="-330.0705" rx="3.2" ry="3.2"/>
</g>
</g>
</svg>
