<?xml version="1.0" encoding="UTF-8" standalone="no"?>
<!DOCTYPE svg PUBLIC "-//W3C//DTD SVG 1.1//EN"
 "http://www.w3.org/Graphics/SVG/1.1/DTD/svg11.dtd">
<!-- Generated by graphviz version 2.40.1 (20161225.0304)
 -->
<!-- Title: twoDegreesRelationshipsDiagram Pages: 1 -->
<svg width="743pt" height="837pt"
 viewBox="0.00 0.00 743.00 836.70" xmlns="http://www.w3.org/2000/svg" xmlns:xlink="http://www.w3.org/1999/xlink">
<g id="graph0" class="graph" transform="scale(1 1) rotate(0) translate(4 832.7)">
<title>twoDegreesRelationshipsDiagram</title>
<polygon fill="#ffffff" stroke="transparent" points="-4,4 -4,-832.7 739,-832.7 739,4 -4,4"/>
<text text-anchor="middle" x="72.4936" y="-7.3" font-family="Helvetica,sans-Serif" font-size="11.00" fill="#000000">Generated by SchemaSpy</text>
<!-- common_dealerproduct -->
<g id="node1" class="node">
<title>common_dealerproduct</title>
<g id="a_node1"><a xlink:href="../../tables/common_dealerproduct.html" xlink:title="common_dealerproduct" target="_top">
<polygon fill="#ffffff" stroke="transparent" points="500.5,-517.7 500.5,-578.7 675.5,-578.7 675.5,-517.7 500.5,-517.7"/>
<polygon fill="#f5f5f5" stroke="transparent" points="501,-555.2 501,-578.2 676,-578.2 676,-555.2 501,-555.2"/>
<polygon fill="none" stroke="#000000" points="501,-555.2 501,-578.2 676,-578.2 676,-555.2 501,-555.2"/>
<text text-anchor="start" x="506" y="-563.8" font-family="Helvetica,sans-Serif" font-weight="bold" font-size="11.00" fill="#000000">common_dealerproduct</text>
<text text-anchor="start" x="641.5219" y="-563.3" font-family="Helvetica,sans-Serif" font-size="11.00" fill="#000000">[table]</text>
<polygon fill="none" stroke="#000000" points="501,-536.2 501,-555.2 676,-555.2 676,-536.2 501,-536.2"/>
<text text-anchor="start" x="504" y="-542.3" font-family="Helvetica,sans-Serif" font-size="11.00" fill="#000000">...</text>
<polygon fill="#ffffff" stroke="transparent" points="501,-517.2 501,-536.2 568,-536.2 568,-517.2 501,-517.2"/>
<polygon fill="none" stroke="#000000" points="501,-517.2 501,-536.2 568,-536.2 568,-517.2 501,-517.2"/>
<text text-anchor="start" x="504" y="-523.3" font-family="Helvetica,sans-Serif" font-size="11.00" fill="#000000">&lt; 2</text>
<polygon fill="#ffffff" stroke="transparent" points="568,-517.2 568,-536.2 641,-536.2 641,-517.2 568,-517.2"/>
<polygon fill="none" stroke="#000000" points="568,-517.2 568,-536.2 641,-536.2 641,-517.2 568,-517.2"/>
<text text-anchor="start" x="593.3807" y="-523.3" font-family="Helvetica,sans-Serif" font-size="11.00" fill="#000000">427 rows</text>
<polygon fill="#ffffff" stroke="transparent" points="641,-517.2 641,-536.2 676,-536.2 676,-517.2 641,-517.2"/>
<polygon fill="none" stroke="#000000" points="641,-517.2 641,-536.2 676,-536.2 676,-517.2 641,-517.2"/>
<text text-anchor="start" x="666.8862" y="-523.3" font-family="Helvetica,sans-Serif" font-size="11.00" fill="#000000"> &#160;</text>
</a>
</g>
</g>
<!-- common_product -->
<g id="node2" class="node">
<title>common_product</title>
<g id="a_node2"><a xlink:href="../../tables/common_product.html" xlink:title="common_product" target="_top">
<polygon fill="#ffffff" stroke="transparent" points="229,-493.7 229,-620.7 400,-620.7 400,-493.7 229,-493.7"/>
<polygon fill="#f5f5f5" stroke="transparent" points="229.5,-597.2 229.5,-620.2 400.5,-620.2 400.5,-597.2 229.5,-597.2"/>
<polygon fill="none" stroke="#000000" points="229.5,-597.2 229.5,-620.2 400.5,-620.2 400.5,-597.2 229.5,-597.2"/>
<text text-anchor="start" x="234.5" y="-605.8" font-family="Helvetica,sans-Serif" font-weight="bold" font-size="11.00" fill="#000000">common_product</text>
<text text-anchor="start" x="365.5437" y="-605.3" font-family="Helvetica,sans-Serif" font-size="11.00" fill="#000000">[table]</text>
<polygon fill="none" stroke="#000000" points="229.5,-575.2 229.5,-597.2 400.5,-597.2 400.5,-575.2 229.5,-575.2"/>
<image xlink:href="../../images/primaryKeys.png" width="11px" height="12px" preserveAspectRatio="xMinYMin meet" x="234.5" y="-592.2"/>
<text text-anchor="start" x="249.5" y="-582.3" font-family="Helvetica,sans-Serif" font-size="11.00" fill="#000000">ID</text>
<polygon fill="#ffffff" stroke="transparent" points="229.5,-553.2 229.5,-575.2 400.5,-575.2 400.5,-553.2 229.5,-553.2"/>
<polygon fill="none" stroke="#000000" points="229.5,-553.2 229.5,-575.2 400.5,-575.2 400.5,-553.2 229.5,-553.2"/>
<image xlink:href="../../images/foreignKeys.png" width="11px" height="12px" preserveAspectRatio="xMinYMin meet" x="234.5" y="-570.2"/>
<text text-anchor="start" x="249.5" y="-560.3" font-family="Helvetica,sans-Serif" font-size="11.00" fill="#000000">Common_ManufacturerFK</text>
<polygon fill="none" stroke="#000000" points="229.5,-531.2 229.5,-553.2 400.5,-553.2 400.5,-531.2 229.5,-531.2"/>
<image xlink:href="../../images/foreignKeys.png" width="11px" height="12px" preserveAspectRatio="xMinYMin meet" x="234.5" y="-548.2"/>
<text text-anchor="start" x="249.5" y="-538.3" font-family="Helvetica,sans-Serif" font-size="11.00" fill="#000000">Common_PackTypeID</text>
<polygon fill="none" stroke="#000000" points="229.5,-512.2 229.5,-531.2 400.5,-531.2 400.5,-512.2 229.5,-512.2"/>
<text text-anchor="start" x="232.5" y="-518.3" font-family="Helvetica,sans-Serif" font-size="11.00" fill="#000000">...</text>
<polygon fill="#ffffff" stroke="transparent" points="229.5,-493.2 229.5,-512.2 292.5,-512.2 292.5,-493.2 229.5,-493.2"/>
<polygon fill="none" stroke="#000000" points="229.5,-493.2 229.5,-512.2 292.5,-512.2 292.5,-493.2 229.5,-493.2"/>
<text text-anchor="start" x="232.5" y="-499.3" font-family="Helvetica,sans-Serif" font-size="11.00" fill="#000000">&lt; 1</text>
<polygon fill="#ffffff" stroke="transparent" points="292.5,-493.2 292.5,-512.2 357.5,-512.2 357.5,-493.2 292.5,-493.2"/>
<polygon fill="none" stroke="#000000" points="292.5,-493.2 292.5,-512.2 357.5,-512.2 357.5,-493.2 292.5,-493.2"/>
<text text-anchor="start" x="315.9956" y="-499.3" font-family="Helvetica,sans-Serif" font-size="11.00" fill="#000000">54 rows</text>
<polygon fill="#ffffff" stroke="transparent" points="357.5,-493.2 357.5,-512.2 400.5,-512.2 400.5,-493.2 357.5,-493.2"/>
<polygon fill="none" stroke="#000000" points="357.5,-493.2 357.5,-512.2 400.5,-512.2 400.5,-493.2 357.5,-493.2"/>
<text text-anchor="start" x="381.9053" y="-499.3" font-family="Helvetica,sans-Serif" font-size="11.00" fill="#000000">6 &gt;</text>
</a>
</g>
</g>
<!-- common_dealerproduct&#45;&gt;common_product -->
<g id="edge1" class="edge">
<title>common_dealerproduct:w&#45;&gt;common_product:e</title>
<path fill="none" stroke="#000000" d="M486.6424,-546.5641C451.3512,-553.6783 443.4643,-586.2 400.5,-586.2"/>
<polygon fill="#000000" stroke="#000000" points="493.0359,-545.9567 501.3405,-548.7839 497.0179,-545.5784 501,-545.2 501,-545.2 501,-545.2 497.0179,-545.5784 500.6595,-541.6161 493.0359,-545.9567 493.0359,-545.9567"/>
<ellipse fill="none" stroke="#000000" cx="489.8502" cy="-546.2594" rx="3.2" ry="3.2"/>
</g>
<!-- common_manufacturer -->
<g id="node3" class="node">
<title>common_manufacturer</title>
<g id="a_node3"><a xlink:href="../../tables/common_manufacturer.html" xlink:title="common_manufacturer" target="_top">
<polygon fill="#ffffff" stroke="transparent" points="8,-536.7 8,-597.7 180,-597.7 180,-536.7 8,-536.7"/>
<polygon fill="#f5f5f5" stroke="transparent" points="8,-574.2 8,-597.2 180,-597.2 180,-574.2 8,-574.2"/>
<polygon fill="none" stroke="#000000" points="8,-574.2 8,-597.2 180,-597.2 180,-574.2 8,-574.2"/>
<text text-anchor="start" x="13" y="-582.8" font-family="Helvetica,sans-Serif" font-weight="bold" font-size="11.00" fill="#000000">common_manufacturer</text>
<text text-anchor="start" x="145.5219" y="-582.3" font-family="Helvetica,sans-Serif" font-size="11.00" fill="#000000">[table]</text>
<polygon fill="none" stroke="#000000" points="8,-555.2 8,-574.2 180,-574.2 180,-555.2 8,-555.2"/>
<text text-anchor="start" x="11" y="-561.3" font-family="Helvetica,sans-Serif" font-size="11.00" fill="#000000">...</text>
<polygon fill="#ffffff" stroke="transparent" points="8,-536.2 8,-555.2 67,-555.2 67,-536.2 8,-536.2"/>
<polygon fill="none" stroke="#000000" points="8,-536.2 8,-555.2 67,-555.2 67,-536.2 8,-536.2"/>
<text text-anchor="start" x="11" y="-542.3" font-family="Helvetica,sans-Serif" font-size="11.00" fill="#000000"> &#160;</text>
<polygon fill="#ffffff" stroke="transparent" points="67,-536.2 67,-555.2 135,-555.2 135,-536.2 67,-536.2"/>
<polygon fill="none" stroke="#000000" points="67,-536.2 67,-555.2 135,-555.2 135,-536.2 67,-536.2"/>
<text text-anchor="start" x="93.4956" y="-542.3" font-family="Helvetica,sans-Serif" font-size="11.00" fill="#000000">33 rows</text>
<polygon fill="#ffffff" stroke="transparent" points="135,-536.2 135,-555.2 180,-555.2 180,-536.2 135,-536.2"/>
<polygon fill="none" stroke="#000000" points="135,-536.2 135,-555.2 180,-555.2 180,-536.2 135,-536.2"/>
<text text-anchor="start" x="161.4053" y="-542.3" font-family="Helvetica,sans-Serif" font-size="11.00" fill="#000000">1 &gt;</text>
</a>
</g>
</g>
<!-- common_product&#45;&gt;common_manufacturer -->
<g id="edge2" class="edge">
<title>common_product:w&#45;&gt;common_manufacturer:e</title>
<path fill="none" stroke="#000000" d="M214.8428,-564.2C203.4139,-564.2 196.1563,-564.2 180,-564.2"/>
<polygon fill="#000000" stroke="#000000" points="221.5,-564.2001 229.5,-567.8 225.5,-564.2 229.5,-564.2 229.5,-564.2 229.5,-564.2 225.5,-564.2 229.5,-560.6 221.5,-564.2001 221.5,-564.2001"/>
<ellipse fill="none" stroke="#000000" cx="218.3" cy="-564.2001" rx="3.2" ry="3.2"/>
</g>
<!-- order_bookingitem -->
<g id="node4" class="node">
<title>order_bookingitem</title>
<g id="a_node4"><a xlink:href="../../tables/order_bookingitem.html" xlink:title="order_bookingitem" target="_top">
<polygon fill="#ffffff" stroke="transparent" points="514.5,-435.7 514.5,-496.7 661.5,-496.7 661.5,-435.7 514.5,-435.7"/>
<polygon fill="#f5f5f5" stroke="transparent" points="515,-473.2 515,-496.2 662,-496.2 662,-473.2 515,-473.2"/>
<polygon fill="none" stroke="#000000" points="515,-473.2 515,-496.2 662,-496.2 662,-473.2 515,-473.2"/>
<text text-anchor="start" x="520" y="-481.8" font-family="Helvetica,sans-Serif" font-weight="bold" font-size="11.00" fill="#000000">order_bookingitem</text>
<text text-anchor="start" x="627.5219" y="-481.3" font-family="Helvetica,sans-Serif" font-size="11.00" fill="#000000">[table]</text>
<polygon fill="none" stroke="#000000" points="515,-454.2 515,-473.2 662,-473.2 662,-454.2 515,-454.2"/>
<text text-anchor="start" x="518" y="-460.3" font-family="Helvetica,sans-Serif" font-size="11.00" fill="#000000">...</text>
<polygon fill="#ffffff" stroke="transparent" points="515,-435.2 515,-454.2 571,-454.2 571,-435.2 515,-435.2"/>
<polygon fill="none" stroke="#000000" points="515,-435.2 515,-454.2 571,-454.2 571,-435.2 515,-435.2"/>
<text text-anchor="start" x="518" y="-441.3" font-family="Helvetica,sans-Serif" font-size="11.00" fill="#000000">&lt; 2</text>
<polygon fill="#ffffff" stroke="transparent" points="571,-435.2 571,-454.2 632,-454.2 632,-435.2 571,-435.2"/>
<polygon fill="none" stroke="#000000" points="571,-435.2 571,-454.2 632,-454.2 632,-435.2 571,-435.2"/>
<text text-anchor="start" x="590.4956" y="-441.3" font-family="Helvetica,sans-Serif" font-size="11.00" fill="#000000">62 rows</text>
<polygon fill="#ffffff" stroke="transparent" points="632,-435.2 632,-454.2 662,-454.2 662,-435.2 632,-435.2"/>
<polygon fill="none" stroke="#000000" points="632,-435.2 632,-454.2 662,-454.2 662,-435.2 632,-435.2"/>
<text text-anchor="start" x="652.8862" y="-441.3" font-family="Helvetica,sans-Serif" font-size="11.00" fill="#000000"> &#160;</text>
</a>
</g>
</g>
<!-- order_bookingitem&#45;&gt;common_product -->
<g id="edge3" class="edge">
<title>order_bookingitem:w&#45;&gt;common_product:e</title>
<path fill="none" stroke="#000000" d="M500.4353,-464.1436C473.7236,-467.9636 463.5112,-483.2309 441,-507.2 413.9887,-535.9607 439.9562,-586.2 400.5,-586.2"/>
<polygon fill="#000000" stroke="#000000" points="507.0167,-463.7173 515.2328,-466.7925 511.0084,-463.4586 515,-463.2 515,-463.2 515,-463.2 511.0084,-463.4586 514.7672,-459.6075 507.0167,-463.7173 507.0167,-463.7173"/>
<ellipse fill="none" stroke="#000000" cx="503.8234" cy="-463.9242" rx="3.2" ry="3.2"/>
</g>
<!-- order_inventory -->
<g id="node5" class="node">
<title>order_inventory</title>
<g id="a_node5"><a xlink:href="../../tables/order_inventory.html" xlink:title="order_inventory" target="_top">
<polygon fill="#ffffff" stroke="transparent" points="523,-763.7 523,-824.7 653,-824.7 653,-763.7 523,-763.7"/>
<polygon fill="#f5f5f5" stroke="transparent" points="523,-801.2 523,-824.2 653,-824.2 653,-801.2 523,-801.2"/>
<polygon fill="none" stroke="#000000" points="523,-801.2 523,-824.2 653,-824.2 653,-801.2 523,-801.2"/>
<text text-anchor="start" x="528" y="-809.8" font-family="Helvetica,sans-Serif" font-weight="bold" font-size="11.00" fill="#000000">order_inventory</text>
<text text-anchor="start" x="618.5219" y="-809.3" font-family="Helvetica,sans-Serif" font-size="11.00" fill="#000000">[table]</text>
<polygon fill="none" stroke="#000000" points="523,-782.2 523,-801.2 653,-801.2 653,-782.2 523,-782.2"/>
<text text-anchor="start" x="526" y="-788.3" font-family="Helvetica,sans-Serif" font-size="11.00" fill="#000000">...</text>
<polygon fill="#ffffff" stroke="transparent" points="523,-763.2 523,-782.2 567,-782.2 567,-763.2 523,-763.2"/>
<polygon fill="none" stroke="#000000" points="523,-763.2 523,-782.2 567,-782.2 567,-763.2 523,-763.2"/>
<text text-anchor="start" x="526" y="-769.3" font-family="Helvetica,sans-Serif" font-size="11.00" fill="#000000">&lt; 1</text>
<polygon fill="#ffffff" stroke="transparent" points="567,-763.2 567,-782.2 629,-782.2 629,-763.2 567,-763.2"/>
<polygon fill="none" stroke="#000000" points="567,-763.2 567,-782.2 629,-782.2 629,-763.2 567,-763.2"/>
<text text-anchor="start" x="581.3807" y="-769.3" font-family="Helvetica,sans-Serif" font-size="11.00" fill="#000000">136 rows</text>
<polygon fill="#ffffff" stroke="transparent" points="629,-763.2 629,-782.2 653,-782.2 653,-763.2 629,-763.2"/>
<polygon fill="none" stroke="#000000" points="629,-763.2 629,-782.2 653,-782.2 653,-763.2 629,-763.2"/>
<text text-anchor="start" x="643.8862" y="-769.3" font-family="Helvetica,sans-Serif" font-size="11.00" fill="#000000"> &#160;</text>
</a>
</g>
</g>
<!-- order_inventory&#45;&gt;common_product -->
<g id="edge4" class="edge">
<title>order_inventory:w&#45;&gt;common_product:e</title>
<path fill="none" stroke="#000000" d="M508.5834,-790.8166C478.4665,-789.0068 463.2015,-780.2439 441,-753.2 392.5397,-694.17 476.8737,-586.2 400.5,-586.2"/>
<polygon fill="#000000" stroke="#000000" points="515.0028,-790.9873 522.9043,-794.7987 519.0014,-791.0936 523,-791.2 523,-791.2 523,-791.2 519.0014,-791.0936 523.0957,-787.6013 515.0028,-790.9873 515.0028,-790.9873"/>
<ellipse fill="none" stroke="#000000" cx="511.804" cy="-790.9022" rx="3.2" ry="3.2"/>
</g>
<!-- order_itemserialno -->
<g id="node6" class="node">
<title>order_itemserialno</title>
<g id="a_node6"><a xlink:href="../../tables/order_itemserialno.html" xlink:title="order_itemserialno" target="_top">
<polygon fill="#ffffff" stroke="transparent" points="514.5,-681.7 514.5,-742.7 661.5,-742.7 661.5,-681.7 514.5,-681.7"/>
<polygon fill="#f5f5f5" stroke="transparent" points="515,-719.2 515,-742.2 662,-742.2 662,-719.2 515,-719.2"/>
<polygon fill="none" stroke="#000000" points="515,-719.2 515,-742.2 662,-742.2 662,-719.2 515,-719.2"/>
<text text-anchor="start" x="520" y="-727.8" font-family="Helvetica,sans-Serif" font-weight="bold" font-size="11.00" fill="#000000">order_itemserialno</text>
<text text-anchor="start" x="627.5219" y="-727.3" font-family="Helvetica,sans-Serif" font-size="11.00" fill="#000000">[table]</text>
<polygon fill="none" stroke="#000000" points="515,-700.2 515,-719.2 662,-719.2 662,-700.2 515,-700.2"/>
<text text-anchor="start" x="518" y="-706.3" font-family="Helvetica,sans-Serif" font-size="11.00" fill="#000000">...</text>
<polygon fill="#ffffff" stroke="transparent" points="515,-681.2 515,-700.2 556,-700.2 556,-681.2 515,-681.2"/>
<polygon fill="none" stroke="#000000" points="515,-681.2 515,-700.2 556,-700.2 556,-681.2 515,-681.2"/>
<text text-anchor="start" x="518" y="-687.3" font-family="Helvetica,sans-Serif" font-size="11.00" fill="#000000">&lt; 2</text>
<polygon fill="#ffffff" stroke="transparent" points="556,-681.2 556,-700.2 631,-700.2 631,-681.2 556,-681.2"/>
<polygon fill="none" stroke="#000000" points="556,-681.2 556,-700.2 631,-700.2 631,-681.2 556,-681.2"/>
<text text-anchor="start" x="568.094" y="-687.3" font-family="Helvetica,sans-Serif" font-size="11.00" fill="#000000">19,002 rows</text>
<polygon fill="#ffffff" stroke="transparent" points="631,-681.2 631,-700.2 662,-700.2 662,-681.2 631,-681.2"/>
<polygon fill="none" stroke="#000000" points="631,-681.2 631,-700.2 662,-700.2 662,-681.2 631,-681.2"/>
<text text-anchor="start" x="643.4053" y="-687.3" font-family="Helvetica,sans-Serif" font-size="11.00" fill="#000000">1 &gt;</text>
</a>
</g>
</g>
<!-- order_itemserialno&#45;&gt;common_product -->
<g id="edge5" class="edge">
<title>order_itemserialno:w&#45;&gt;common_product:e</title>
<path fill="none" stroke="#000000" d="M500.4582,-708.4703C474.4661,-705.5696 463.0294,-693.8947 441,-671.2 411.8532,-641.1729 442.3469,-586.2 400.5,-586.2"/>
<polygon fill="#000000" stroke="#000000" points="507.0101,-708.799 514.8196,-712.7955 511.005,-708.9995 515,-709.2 515,-709.2 515,-709.2 511.005,-708.9995 515.1804,-705.6045 507.0101,-708.799 507.0101,-708.799"/>
<ellipse fill="none" stroke="#000000" cx="503.8141" cy="-708.6386" rx="3.2" ry="3.2"/>
</g>
<!-- order_receiveitem -->
<g id="node7" class="node">
<title>order_receiveitem</title>
<g id="a_node7"><a xlink:href="../../tables/order_receiveitem.html" xlink:title="order_receiveitem" target="_top">
<polygon fill="#ffffff" stroke="transparent" points="449,-38.2 449,-414.2 727,-414.2 727,-38.2 449,-38.2"/>
<polygon fill="#f5f5f5" stroke="transparent" points="451,-389.2 451,-412.2 725,-412.2 725,-389.2 451,-389.2"/>
<polygon fill="none" stroke="#000000" points="451,-389.2 451,-412.2 725,-412.2 725,-389.2 451,-389.2"/>
<text text-anchor="start" x="456" y="-397.8" font-family="Helvetica,sans-Serif" font-weight="bold" font-size="11.00" fill="#000000">order_receiveitem</text>
<text text-anchor="start" x="690.0437" y="-397.3" font-family="Helvetica,sans-Serif" font-size="11.00" fill="#000000">[table]</text>
<polygon fill="none" stroke="#000000" points="451,-367.2 451,-389.2 614,-389.2 614,-367.2 451,-367.2"/>
<image xlink:href="../../images/primaryKeys.png" width="11px" height="12px" preserveAspectRatio="xMinYMin meet" x="456" y="-384.2"/>
<text text-anchor="start" x="471" y="-374.3" font-family="Helvetica,sans-Serif" font-size="11.00" fill="#000000">ID</text>
<polygon fill="none" stroke="#000000" points="614,-367.2 614,-389.2 725,-389.2 725,-367.2 614,-367.2"/>
<text text-anchor="start" x="617" y="-374.9" font-family="Helvetica,sans-Serif" font-size="11.00" fill="#000000">int[10]</text>
<polygon fill="none" stroke="#000000" points="451,-345.2 451,-367.2 614,-367.2 614,-345.2 451,-345.2"/>
<text text-anchor="start" x="471" y="-352.3" font-family="Helvetica,sans-Serif" font-size="11.00" fill="#000000">Active</text>
<polygon fill="none" stroke="#000000" points="614,-345.2 614,-367.2 725,-367.2 725,-345.2 614,-345.2"/>
<text text-anchor="start" x="617" y="-352.9" font-family="Helvetica,sans-Serif" font-size="11.00" fill="#000000">bit[1]</text>
<polygon fill="none" stroke="#000000" points="451,-323.2 451,-345.2 614,-345.2 614,-323.2 451,-323.2"/>
<text text-anchor="start" x="471" y="-330.3" font-family="Helvetica,sans-Serif" font-size="11.00" fill="#000000">User</text>
<polygon fill="none" stroke="#000000" points="614,-323.2 614,-345.2 725,-345.2 725,-323.2 614,-323.2"/>
<text text-anchor="start" x="616.6115" y="-330.9" font-family="Helvetica,sans-Serif" font-size="11.00" fill="#000000">longtext[2147483647]</text>
<polygon fill="none" stroke="#000000" points="451,-301.2 451,-323.2 614,-323.2 614,-301.2 451,-301.2"/>
<text text-anchor="start" x="471" y="-308.3" font-family="Helvetica,sans-Serif" font-size="11.00" fill="#000000">CD</text>
<polygon fill="none" stroke="#000000" points="614,-301.2 614,-323.2 725,-323.2 725,-301.2 614,-301.2"/>
<text text-anchor="start" x="617" y="-308.9" font-family="Helvetica,sans-Serif" font-size="11.00" fill="#000000">datetime[26]</text>
<polygon fill="none" stroke="#000000" points="451,-279.2 451,-301.2 614,-301.2 614,-279.2 451,-279.2"/>
<text text-anchor="start" x="471" y="-286.3" font-family="Helvetica,sans-Serif" font-size="11.00" fill="#000000">UD</text>
<polygon fill="none" stroke="#000000" points="614,-279.2 614,-301.2 725,-301.2 725,-279.2 614,-279.2"/>
<text text-anchor="start" x="617" y="-286.9" font-family="Helvetica,sans-Serif" font-size="11.00" fill="#000000">datetime[26]</text>
<polygon fill="none" stroke="#000000" points="451,-257.2 451,-279.2 614,-279.2 614,-257.2 451,-257.2"/>
<text text-anchor="start" x="471" y="-264.3" font-family="Helvetica,sans-Serif" font-size="11.00" fill="#000000">Remarks</text>
<polygon fill="none" stroke="#000000" points="614,-257.2 614,-279.2 725,-279.2 725,-257.2 614,-257.2"/>
<text text-anchor="start" x="616.6115" y="-264.9" font-family="Helvetica,sans-Serif" font-size="11.00" fill="#000000">longtext[2147483647]</text>
<polygon fill="none" stroke="#000000" points="451,-235.2 451,-257.2 614,-257.2 614,-235.2 451,-235.2"/>
<text text-anchor="start" x="471" y="-242.3" font-family="Helvetica,sans-Serif" font-size="11.00" fill="#000000">UserID</text>
<polygon fill="none" stroke="#000000" points="614,-235.2 614,-257.2 725,-257.2 725,-235.2 614,-235.2"/>
<text text-anchor="start" x="617" y="-242.9" font-family="Helvetica,sans-Serif" font-size="11.00" fill="#000000">int[10]</text>
<polygon fill="#ffffff" stroke="transparent" points="451,-213.2 451,-235.2 614,-235.2 614,-213.2 451,-213.2"/>
<polygon fill="none" stroke="#000000" points="451,-213.2 451,-235.2 614,-235.2 614,-213.2 451,-213.2"/>
<image xlink:href="../../images/foreignKeys.png" width="11px" height="12px" preserveAspectRatio="xMinYMin meet" x="456" y="-230.2"/>
<text text-anchor="start" x="471" y="-220.3" font-family="Helvetica,sans-Serif" font-size="11.00" fill="#000000">Order_ReceiveFK</text>
<polygon fill="none" stroke="#000000" points="614,-213.2 614,-235.2 725,-235.2 725,-213.2 614,-213.2"/>
<text text-anchor="start" x="617" y="-220.9" font-family="Helvetica,sans-Serif" font-size="11.00" fill="#000000">int[10]</text>
<polygon fill="#ffffff" stroke="transparent" points="451,-191.2 451,-213.2 614,-213.2 614,-191.2 451,-191.2"/>
<polygon fill="none" stroke="#000000" points="451,-191.2 451,-213.2 614,-213.2 614,-191.2 451,-191.2"/>
<image xlink:href="../../images/foreignKeys.png" width="11px" height="12px" preserveAspectRatio="xMinYMin meet" x="456" y="-208.2"/>
<text text-anchor="start" x="471" y="-198.3" font-family="Helvetica,sans-Serif" font-size="11.00" fill="#000000">Common_ProductFK</text>
<polygon fill="none" stroke="#000000" points="614,-191.2 614,-213.2 725,-213.2 725,-191.2 614,-191.2"/>
<text text-anchor="start" x="617" y="-198.9" font-family="Helvetica,sans-Serif" font-size="11.00" fill="#000000">int[10]</text>
<polygon fill="none" stroke="#000000" points="451,-169.2 451,-191.2 614,-191.2 614,-169.2 451,-169.2"/>
<text text-anchor="start" x="471" y="-176.3" font-family="Helvetica,sans-Serif" font-size="11.00" fill="#000000">SerialNo</text>
<polygon fill="none" stroke="#000000" points="614,-169.2 614,-191.2 725,-191.2 725,-169.2 614,-169.2"/>
<text text-anchor="start" x="616.6115" y="-176.9" font-family="Helvetica,sans-Serif" font-size="11.00" fill="#000000">longtext[2147483647]</text>
<polygon fill="none" stroke="#000000" points="451,-147.2 451,-169.2 614,-169.2 614,-147.2 451,-147.2"/>
<text text-anchor="start" x="471" y="-154.3" font-family="Helvetica,sans-Serif" font-size="11.00" fill="#000000">Price</text>
<polygon fill="none" stroke="#000000" points="614,-147.2 614,-169.2 725,-169.2 725,-147.2 614,-147.2"/>
<text text-anchor="start" x="617" y="-154.9" font-family="Helvetica,sans-Serif" font-size="11.00" fill="#000000">decimal[18,5]</text>
<polygon fill="none" stroke="#000000" points="451,-125.2 451,-147.2 614,-147.2 614,-125.2 451,-125.2"/>
<text text-anchor="start" x="471" y="-132.3" font-family="Helvetica,sans-Serif" font-size="11.00" fill="#000000">Quantity</text>
<polygon fill="none" stroke="#000000" points="614,-125.2 614,-147.2 725,-147.2 725,-125.2 614,-125.2"/>
<text text-anchor="start" x="617" y="-132.9" font-family="Helvetica,sans-Serif" font-size="11.00" fill="#000000">int[10]</text>
<polygon fill="none" stroke="#000000" points="451,-103.2 451,-125.2 614,-125.2 614,-103.2 451,-103.2"/>
<text text-anchor="start" x="471" y="-110.3" font-family="Helvetica,sans-Serif" font-size="11.00" fill="#000000">Common_UnitFK</text>
<polygon fill="none" stroke="#000000" points="614,-103.2 614,-125.2 725,-125.2 725,-103.2 614,-103.2"/>
<text text-anchor="start" x="617" y="-110.9" font-family="Helvetica,sans-Serif" font-size="11.00" fill="#000000">int[10]</text>
<polygon fill="none" stroke="#000000" points="451,-81.2 451,-103.2 614,-103.2 614,-81.2 451,-81.2"/>
<text text-anchor="start" x="471" y="-88.3" font-family="Helvetica,sans-Serif" font-size="11.00" fill="#000000">Order_ItemSerialNoFK</text>
<polygon fill="none" stroke="#000000" points="614,-81.2 614,-103.2 725,-103.2 725,-81.2 614,-81.2"/>
<text text-anchor="start" x="617" y="-88.9" font-family="Helvetica,sans-Serif" font-size="11.00" fill="#000000">int[10]</text>
<polygon fill="none" stroke="#000000" points="451,-59.2 451,-81.2 614,-81.2 614,-59.2 451,-59.2"/>
<text text-anchor="start" x="471" y="-66.3" font-family="Helvetica,sans-Serif" font-size="11.00" fill="#000000">Order_ReceiveInStoreFK</text>
<polygon fill="none" stroke="#000000" points="614,-59.2 614,-81.2 725,-81.2 725,-59.2 614,-59.2"/>
<text text-anchor="start" x="617" y="-66.9" font-family="Helvetica,sans-Serif" font-size="11.00" fill="#000000">int[10]</text>
<polygon fill="#ffffff" stroke="transparent" points="451,-40.2 451,-59.2 510,-59.2 510,-40.2 451,-40.2"/>
<polygon fill="none" stroke="#000000" points="451,-40.2 451,-59.2 510,-59.2 510,-40.2 451,-40.2"/>
<text text-anchor="start" x="454" y="-46.3" font-family="Helvetica,sans-Serif" font-size="11.00" fill="#000000">&lt; 2</text>
<polygon fill="#ffffff" stroke="transparent" points="510,-40.2 510,-59.2 614,-59.2 614,-40.2 510,-40.2"/>
<polygon fill="none" stroke="#000000" points="510,-40.2 510,-59.2 614,-59.2 614,-40.2 510,-40.2"/>
<text text-anchor="start" x="551.094" y="-46.3" font-family="Helvetica,sans-Serif" font-size="11.00" fill="#000000">18,922 rows</text>
<polygon fill="#ffffff" stroke="transparent" points="614,-40.2 614,-59.2 725,-59.2 725,-40.2 614,-40.2"/>
<polygon fill="none" stroke="#000000" points="614,-40.2 614,-59.2 725,-59.2 725,-40.2 614,-40.2"/>
<text text-anchor="start" x="706.4053" y="-46.3" font-family="Helvetica,sans-Serif" font-size="11.00" fill="#000000">0 &gt;</text>
<polygon fill="none" stroke="#000000" stroke-width="2" points="450,-39.2 450,-413.2 726,-413.2 726,-39.2 450,-39.2"/>
</a>
</g>
</g>
<!-- order_receiveitem&#45;&gt;common_product -->
<g id="edge6" class="edge">
<title>order_receiveitem:w&#45;&gt;common_product:e</title>
<path fill="none" stroke="#000000" d="M437.1948,-206.5125C379.3251,-248.7 481.1888,-586.2 400.5,-586.2"/>
<polygon fill="#000000" stroke="#000000" points="443.3639,-204.5854 452.0734,-205.6362 447.182,-203.3927 451,-202.2 451,-202.2 451,-202.2 447.182,-203.3927 449.9266,-198.7638 443.3639,-204.5854 443.3639,-204.5854"/>
<ellipse fill="none" stroke="#000000" cx="440.3095" cy="-205.5396" rx="3.2" ry="3.2"/>
</g>
<!-- order_receive -->
<g id="node8" class="node">
<title>order_receive</title>
<g id="a_node8"><a xlink:href="../../tables/order_receive.html" xlink:title="order_receive" target="_top">
<polygon fill="#ffffff" stroke="transparent" points="244,-175.7 244,-258.7 385,-258.7 385,-175.7 244,-175.7"/>
<polygon fill="#f5f5f5" stroke="transparent" points="244.5,-235.2 244.5,-258.2 385.5,-258.2 385.5,-235.2 244.5,-235.2"/>
<polygon fill="none" stroke="#000000" points="244.5,-235.2 244.5,-258.2 385.5,-258.2 385.5,-235.2 244.5,-235.2"/>
<text text-anchor="start" x="249.5" y="-243.8" font-family="Helvetica,sans-Serif" font-weight="bold" font-size="11.00" fill="#000000">order_receive</text>
<text text-anchor="start" x="350.5437" y="-243.3" font-family="Helvetica,sans-Serif" font-size="11.00" fill="#000000">[table]</text>
<polygon fill="none" stroke="#000000" points="244.5,-213.2 244.5,-235.2 385.5,-235.2 385.5,-213.2 244.5,-213.2"/>
<image xlink:href="../../images/primaryKeys.png" width="11px" height="12px" preserveAspectRatio="xMinYMin meet" x="249.5" y="-230.2"/>
<text text-anchor="start" x="264.5" y="-220.3" font-family="Helvetica,sans-Serif" font-size="11.00" fill="#000000">ID</text>
<polygon fill="none" stroke="#000000" points="244.5,-194.2 244.5,-213.2 385.5,-213.2 385.5,-194.2 244.5,-194.2"/>
<text text-anchor="start" x="247.5" y="-200.3" font-family="Helvetica,sans-Serif" font-size="11.00" fill="#000000">...</text>
<polygon fill="#ffffff" stroke="transparent" points="244.5,-175.2 244.5,-194.2 285.5,-194.2 285.5,-175.2 244.5,-175.2"/>
<polygon fill="none" stroke="#000000" points="244.5,-175.2 244.5,-194.2 285.5,-194.2 285.5,-175.2 244.5,-175.2"/>
<text text-anchor="start" x="247.5" y="-181.3" font-family="Helvetica,sans-Serif" font-size="11.00" fill="#000000"> &#160;</text>
<polygon fill="#ffffff" stroke="transparent" points="285.5,-175.2 285.5,-194.2 349.5,-194.2 349.5,-175.2 285.5,-175.2"/>
<polygon fill="none" stroke="#000000" points="285.5,-175.2 285.5,-194.2 349.5,-194.2 349.5,-175.2 285.5,-175.2"/>
<text text-anchor="start" x="301.8807" y="-181.3" font-family="Helvetica,sans-Serif" font-size="11.00" fill="#000000">137 rows</text>
<polygon fill="#ffffff" stroke="transparent" points="349.5,-175.2 349.5,-194.2 385.5,-194.2 385.5,-175.2 349.5,-175.2"/>
<polygon fill="none" stroke="#000000" points="349.5,-175.2 349.5,-194.2 385.5,-194.2 385.5,-175.2 349.5,-175.2"/>
<text text-anchor="start" x="366.9053" y="-181.3" font-family="Helvetica,sans-Serif" font-size="11.00" fill="#000000">1 &gt;</text>
</a>
</g>
</g>
<!-- order_receiveitem&#45;&gt;order_receive -->
<g id="edge7" class="edge">
<title>order_receiveitem:w&#45;&gt;order_receive:e</title>
<path fill="none" stroke="#000000" d="M436.3773,-224.2C418.303,-224.2 409.0391,-224.2 385.5,-224.2"/>
<polygon fill="#000000" stroke="#000000" points="443,-224.2001 451,-227.8 447,-224.2 451,-224.2 451,-224.2 451,-224.2 447,-224.2 451,-220.6 443,-224.2001 443,-224.2001"/>
<ellipse fill="none" stroke="#000000" cx="439.8" cy="-224.2001" rx="3.2" ry="3.2"/>
</g>
<!-- order_saleitem -->
<g id="node9" class="node">
<title>order_saleitem</title>
<g id="a_node9"><a xlink:href="../../tables/order_saleitem.html" xlink:title="order_saleitem" target="_top">
<polygon fill="#ffffff" stroke="transparent" points="526,-599.7 526,-660.7 650,-660.7 650,-599.7 526,-599.7"/>
<polygon fill="#f5f5f5" stroke="transparent" points="526,-637.2 526,-660.2 650,-660.2 650,-637.2 526,-637.2"/>
<polygon fill="none" stroke="#000000" points="526,-637.2 526,-660.2 650,-660.2 650,-637.2 526,-637.2"/>
<text text-anchor="start" x="531" y="-645.8" font-family="Helvetica,sans-Serif" font-weight="bold" font-size="11.00" fill="#000000">order_saleitem</text>
<text text-anchor="start" x="615.5219" y="-645.3" font-family="Helvetica,sans-Serif" font-size="11.00" fill="#000000">[table]</text>
<polygon fill="none" stroke="#000000" points="526,-618.2 526,-637.2 650,-637.2 650,-618.2 526,-618.2"/>
<text text-anchor="start" x="529" y="-624.3" font-family="Helvetica,sans-Serif" font-size="11.00" fill="#000000">...</text>
<polygon fill="#ffffff" stroke="transparent" points="526,-599.2 526,-618.2 567,-618.2 567,-599.2 526,-599.2"/>
<polygon fill="none" stroke="#000000" points="526,-599.2 526,-618.2 567,-618.2 567,-599.2 526,-599.2"/>
<text text-anchor="start" x="529" y="-605.3" font-family="Helvetica,sans-Serif" font-size="11.00" fill="#000000">&lt; 2</text>
<polygon fill="#ffffff" stroke="transparent" points="567,-599.2 567,-618.2 627,-618.2 627,-599.2 567,-599.2"/>
<polygon fill="none" stroke="#000000" points="567,-599.2 567,-618.2 627,-618.2 627,-599.2 567,-599.2"/>
<text text-anchor="start" x="579.3807" y="-605.3" font-family="Helvetica,sans-Serif" font-size="11.00" fill="#000000">659 rows</text>
<polygon fill="#ffffff" stroke="transparent" points="627,-599.2 627,-618.2 650,-618.2 650,-599.2 627,-599.2"/>
<polygon fill="none" stroke="#000000" points="627,-599.2 627,-618.2 650,-618.2 650,-599.2 627,-599.2"/>
<text text-anchor="start" x="640.8862" y="-605.3" font-family="Helvetica,sans-Serif" font-size="11.00" fill="#000000"> &#160;</text>
</a>
</g>
</g>
<!-- order_saleitem&#45;&gt;common_product -->
<g id="edge8" class="edge">
<title>order_saleitem:w&#45;&gt;common_product:e</title>
<path fill="none" stroke="#000000" d="M511.3347,-626.2666C465.4501,-620.1638 453.9069,-586.2 400.5,-586.2"/>
<polygon fill="#000000" stroke="#000000" points="518.0162,-626.6918 525.7713,-630.7927 522.0081,-626.9459 526,-627.2 526,-627.2 526,-627.2 522.0081,-626.9459 526.2287,-623.6073 518.0162,-626.6918 518.0162,-626.6918"/>
<ellipse fill="none" stroke="#000000" cx="514.8226" cy="-626.4885" rx="3.2" ry="3.2"/>
</g>
</g>
</svg>
