<?xml version="1.0" encoding="UTF-8" standalone="no"?>
<!DOCTYPE svg PUBLIC "-//W3C//DTD SVG 1.1//EN"
 "http://www.w3.org/Graphics/SVG/1.1/DTD/svg11.dtd">
<!-- Generated by graphviz version 2.40.1 (20161225.0304)
 -->
<!-- Title: oneDegreeRelationshipsDiagram Pages: 1 -->
<svg width="522pt" height="426pt"
 viewBox="0.00 0.00 522.00 426.20" xmlns="http://www.w3.org/2000/svg" xmlns:xlink="http://www.w3.org/1999/xlink">
<g id="graph0" class="graph" transform="scale(1 1) rotate(0) translate(4 422.2)">
<title>oneDegreeRelationshipsDiagram</title>
<polygon fill="#ffffff" stroke="transparent" points="-4,4 -4,-422.2 518,-422.2 518,4 -4,4"/>
<text text-anchor="middle" x="72.4936" y="-7.3" font-family="Helvetica,sans-Serif" font-size="11.00" fill="#000000">Generated by SchemaSpy</text>
<!-- order_receiveitem -->
<g id="node1" class="node">
<title>order_receiveitem</title>
<g id="a_node1"><a xlink:href="../../tables/order_receiveitem.html" xlink:title="order_receiveitem" target="_top">
<polygon fill="#ffffff" stroke="transparent" points="228,-38.2 228,-414.2 506,-414.2 506,-38.2 228,-38.2"/>
<polygon fill="#f5f5f5" stroke="transparent" points="230,-389.2 230,-412.2 504,-412.2 504,-389.2 230,-389.2"/>
<polygon fill="none" stroke="#000000" points="230,-389.2 230,-412.2 504,-412.2 504,-389.2 230,-389.2"/>
<text text-anchor="start" x="235" y="-397.8" font-family="Helvetica,sans-Serif" font-weight="bold" font-size="11.00" fill="#000000">order_receiveitem</text>
<text text-anchor="start" x="469.0437" y="-397.3" font-family="Helvetica,sans-Serif" font-size="11.00" fill="#000000">[table]</text>
<polygon fill="none" stroke="#000000" points="230,-367.2 230,-389.2 393,-389.2 393,-367.2 230,-367.2"/>
<image xlink:href="../../images/primaryKeys.png" width="11px" height="12px" preserveAspectRatio="xMinYMin meet" x="235" y="-384.2"/>
<text text-anchor="start" x="250" y="-374.3" font-family="Helvetica,sans-Serif" font-size="11.00" fill="#000000">ID</text>
<polygon fill="none" stroke="#000000" points="393,-367.2 393,-389.2 504,-389.2 504,-367.2 393,-367.2"/>
<text text-anchor="start" x="396" y="-374.9" font-family="Helvetica,sans-Serif" font-size="11.00" fill="#000000">int[10]</text>
<polygon fill="none" stroke="#000000" points="230,-345.2 230,-367.2 393,-367.2 393,-345.2 230,-345.2"/>
<text text-anchor="start" x="250" y="-352.3" font-family="Helvetica,sans-Serif" font-size="11.00" fill="#000000">Active</text>
<polygon fill="none" stroke="#000000" points="393,-345.2 393,-367.2 504,-367.2 504,-345.2 393,-345.2"/>
<text text-anchor="start" x="396" y="-352.9" font-family="Helvetica,sans-Serif" font-size="11.00" fill="#000000">bit[1]</text>
<polygon fill="none" stroke="#000000" points="230,-323.2 230,-345.2 393,-345.2 393,-323.2 230,-323.2"/>
<text text-anchor="start" x="250" y="-330.3" font-family="Helvetica,sans-Serif" font-size="11.00" fill="#000000">User</text>
<polygon fill="none" stroke="#000000" points="393,-323.2 393,-345.2 504,-345.2 504,-323.2 393,-323.2"/>
<text text-anchor="start" x="395.6115" y="-330.9" font-family="Helvetica,sans-Serif" font-size="11.00" fill="#000000">longtext[2147483647]</text>
<polygon fill="none" stroke="#000000" points="230,-301.2 230,-323.2 393,-323.2 393,-301.2 230,-301.2"/>
<text text-anchor="start" x="250" y="-308.3" font-family="Helvetica,sans-Serif" font-size="11.00" fill="#000000">CD</text>
<polygon fill="none" stroke="#000000" points="393,-301.2 393,-323.2 504,-323.2 504,-301.2 393,-301.2"/>
<text text-anchor="start" x="396" y="-308.9" font-family="Helvetica,sans-Serif" font-size="11.00" fill="#000000">datetime[26]</text>
<polygon fill="none" stroke="#000000" points="230,-279.2 230,-301.2 393,-301.2 393,-279.2 230,-279.2"/>
<text text-anchor="start" x="250" y="-286.3" font-family="Helvetica,sans-Serif" font-size="11.00" fill="#000000">UD</text>
<polygon fill="none" stroke="#000000" points="393,-279.2 393,-301.2 504,-301.2 504,-279.2 393,-279.2"/>
<text text-anchor="start" x="396" y="-286.9" font-family="Helvetica,sans-Serif" font-size="11.00" fill="#000000">datetime[26]</text>
<polygon fill="none" stroke="#000000" points="230,-257.2 230,-279.2 393,-279.2 393,-257.2 230,-257.2"/>
<text text-anchor="start" x="250" y="-264.3" font-family="Helvetica,sans-Serif" font-size="11.00" fill="#000000">Remarks</text>
<polygon fill="none" stroke="#000000" points="393,-257.2 393,-279.2 504,-279.2 504,-257.2 393,-257.2"/>
<text text-anchor="start" x="395.6115" y="-264.9" font-family="Helvetica,sans-Serif" font-size="11.00" fill="#000000">longtext[2147483647]</text>
<polygon fill="none" stroke="#000000" points="230,-235.2 230,-257.2 393,-257.2 393,-235.2 230,-235.2"/>
<text text-anchor="start" x="250" y="-242.3" font-family="Helvetica,sans-Serif" font-size="11.00" fill="#000000">UserID</text>
<polygon fill="none" stroke="#000000" points="393,-235.2 393,-257.2 504,-257.2 504,-235.2 393,-235.2"/>
<text text-anchor="start" x="396" y="-242.9" font-family="Helvetica,sans-Serif" font-size="11.00" fill="#000000">int[10]</text>
<polygon fill="#ffffff" stroke="transparent" points="230,-213.2 230,-235.2 393,-235.2 393,-213.2 230,-213.2"/>
<polygon fill="none" stroke="#000000" points="230,-213.2 230,-235.2 393,-235.2 393,-213.2 230,-213.2"/>
<image xlink:href="../../images/foreignKeys.png" width="11px" height="12px" preserveAspectRatio="xMinYMin meet" x="235" y="-230.2"/>
<text text-anchor="start" x="250" y="-220.3" font-family="Helvetica,sans-Serif" font-size="11.00" fill="#000000">Order_ReceiveFK</text>
<polygon fill="none" stroke="#000000" points="393,-213.2 393,-235.2 504,-235.2 504,-213.2 393,-213.2"/>
<text text-anchor="start" x="396" y="-220.9" font-family="Helvetica,sans-Serif" font-size="11.00" fill="#000000">int[10]</text>
<polygon fill="#ffffff" stroke="transparent" points="230,-191.2 230,-213.2 393,-213.2 393,-191.2 230,-191.2"/>
<polygon fill="none" stroke="#000000" points="230,-191.2 230,-213.2 393,-213.2 393,-191.2 230,-191.2"/>
<image xlink:href="../../images/foreignKeys.png" width="11px" height="12px" preserveAspectRatio="xMinYMin meet" x="235" y="-208.2"/>
<text text-anchor="start" x="250" y="-198.3" font-family="Helvetica,sans-Serif" font-size="11.00" fill="#000000">Common_ProductFK</text>
<polygon fill="none" stroke="#000000" points="393,-191.2 393,-213.2 504,-213.2 504,-191.2 393,-191.2"/>
<text text-anchor="start" x="396" y="-198.9" font-family="Helvetica,sans-Serif" font-size="11.00" fill="#000000">int[10]</text>
<polygon fill="none" stroke="#000000" points="230,-169.2 230,-191.2 393,-191.2 393,-169.2 230,-169.2"/>
<text text-anchor="start" x="250" y="-176.3" font-family="Helvetica,sans-Serif" font-size="11.00" fill="#000000">SerialNo</text>
<polygon fill="none" stroke="#000000" points="393,-169.2 393,-191.2 504,-191.2 504,-169.2 393,-169.2"/>
<text text-anchor="start" x="395.6115" y="-176.9" font-family="Helvetica,sans-Serif" font-size="11.00" fill="#000000">longtext[2147483647]</text>
<polygon fill="none" stroke="#000000" points="230,-147.2 230,-169.2 393,-169.2 393,-147.2 230,-147.2"/>
<text text-anchor="start" x="250" y="-154.3" font-family="Helvetica,sans-Serif" font-size="11.00" fill="#000000">Price</text>
<polygon fill="none" stroke="#000000" points="393,-147.2 393,-169.2 504,-169.2 504,-147.2 393,-147.2"/>
<text text-anchor="start" x="396" y="-154.9" font-family="Helvetica,sans-Serif" font-size="11.00" fill="#000000">decimal[18,5]</text>
<polygon fill="none" stroke="#000000" points="230,-125.2 230,-147.2 393,-147.2 393,-125.2 230,-125.2"/>
<text text-anchor="start" x="250" y="-132.3" font-family="Helvetica,sans-Serif" font-size="11.00" fill="#000000">Quantity</text>
<polygon fill="none" stroke="#000000" points="393,-125.2 393,-147.2 504,-147.2 504,-125.2 393,-125.2"/>
<text text-anchor="start" x="396" y="-132.9" font-family="Helvetica,sans-Serif" font-size="11.00" fill="#000000">int[10]</text>
<polygon fill="none" stroke="#000000" points="230,-103.2 230,-125.2 393,-125.2 393,-103.2 230,-103.2"/>
<text text-anchor="start" x="250" y="-110.3" font-family="Helvetica,sans-Serif" font-size="11.00" fill="#000000">Common_UnitFK</text>
<polygon fill="none" stroke="#000000" points="393,-103.2 393,-125.2 504,-125.2 504,-103.2 393,-103.2"/>
<text text-anchor="start" x="396" y="-110.9" font-family="Helvetica,sans-Serif" font-size="11.00" fill="#000000">int[10]</text>
<polygon fill="none" stroke="#000000" points="230,-81.2 230,-103.2 393,-103.2 393,-81.2 230,-81.2"/>
<text text-anchor="start" x="250" y="-88.3" font-family="Helvetica,sans-Serif" font-size="11.00" fill="#000000">Order_ItemSerialNoFK</text>
<polygon fill="none" stroke="#000000" points="393,-81.2 393,-103.2 504,-103.2 504,-81.2 393,-81.2"/>
<text text-anchor="start" x="396" y="-88.9" font-family="Helvetica,sans-Serif" font-size="11.00" fill="#000000">int[10]</text>
<polygon fill="none" stroke="#000000" points="230,-59.2 230,-81.2 393,-81.2 393,-59.2 230,-59.2"/>
<text text-anchor="start" x="250" y="-66.3" font-family="Helvetica,sans-Serif" font-size="11.00" fill="#000000">Order_ReceiveInStoreFK</text>
<polygon fill="none" stroke="#000000" points="393,-59.2 393,-81.2 504,-81.2 504,-59.2 393,-59.2"/>
<text text-anchor="start" x="396" y="-66.9" font-family="Helvetica,sans-Serif" font-size="11.00" fill="#000000">int[10]</text>
<polygon fill="#ffffff" stroke="transparent" points="230,-40.2 230,-59.2 289,-59.2 289,-40.2 230,-40.2"/>
<polygon fill="none" stroke="#000000" points="230,-40.2 230,-59.2 289,-59.2 289,-40.2 230,-40.2"/>
<text text-anchor="start" x="233" y="-46.3" font-family="Helvetica,sans-Serif" font-size="11.00" fill="#000000">&lt; 2</text>
<polygon fill="#ffffff" stroke="transparent" points="289,-40.2 289,-59.2 393,-59.2 393,-40.2 289,-40.2"/>
<polygon fill="none" stroke="#000000" points="289,-40.2 289,-59.2 393,-59.2 393,-40.2 289,-40.2"/>
<text text-anchor="start" x="330.094" y="-46.3" font-family="Helvetica,sans-Serif" font-size="11.00" fill="#000000">18,922 rows</text>
<polygon fill="#ffffff" stroke="transparent" points="393,-40.2 393,-59.2 504,-59.2 504,-40.2 393,-40.2"/>
<polygon fill="none" stroke="#000000" points="393,-40.2 393,-59.2 504,-59.2 504,-40.2 393,-40.2"/>
<text text-anchor="start" x="485.4053" y="-46.3" font-family="Helvetica,sans-Serif" font-size="11.00" fill="#000000">0 &gt;</text>
<polygon fill="none" stroke="#000000" stroke-width="2" points="229,-39.2 229,-413.2 505,-413.2 505,-39.2 229,-39.2"/>
</a>
</g>
</g>
<!-- common_product -->
<g id="node2" class="node">
<title>common_product</title>
<g id="a_node2"><a xlink:href="../../tables/common_product.html" xlink:title="common_product" target="_top">
<polygon fill="#ffffff" stroke="transparent" points="8,-68.7 8,-195.7 179,-195.7 179,-68.7 8,-68.7"/>
<polygon fill="#f5f5f5" stroke="transparent" points="8.5,-172.2 8.5,-195.2 179.5,-195.2 179.5,-172.2 8.5,-172.2"/>
<polygon fill="none" stroke="#000000" points="8.5,-172.2 8.5,-195.2 179.5,-195.2 179.5,-172.2 8.5,-172.2"/>
<text text-anchor="start" x="13.5" y="-180.8" font-family="Helvetica,sans-Serif" font-weight="bold" font-size="11.00" fill="#000000">common_product</text>
<text text-anchor="start" x="144.5437" y="-180.3" font-family="Helvetica,sans-Serif" font-size="11.00" fill="#000000">[table]</text>
<polygon fill="none" stroke="#000000" points="8.5,-150.2 8.5,-172.2 179.5,-172.2 179.5,-150.2 8.5,-150.2"/>
<image xlink:href="../../images/primaryKeys.png" width="11px" height="12px" preserveAspectRatio="xMinYMin meet" x="13.5" y="-167.2"/>
<text text-anchor="start" x="28.5" y="-157.3" font-family="Helvetica,sans-Serif" font-size="11.00" fill="#000000">ID</text>
<polygon fill="#ffffff" stroke="transparent" points="8.5,-128.2 8.5,-150.2 179.5,-150.2 179.5,-128.2 8.5,-128.2"/>
<polygon fill="none" stroke="#000000" points="8.5,-128.2 8.5,-150.2 179.5,-150.2 179.5,-128.2 8.5,-128.2"/>
<image xlink:href="../../images/foreignKeys.png" width="11px" height="12px" preserveAspectRatio="xMinYMin meet" x="13.5" y="-145.2"/>
<text text-anchor="start" x="28.5" y="-135.3" font-family="Helvetica,sans-Serif" font-size="11.00" fill="#000000">Common_ManufacturerFK</text>
<polygon fill="none" stroke="#000000" points="8.5,-106.2 8.5,-128.2 179.5,-128.2 179.5,-106.2 8.5,-106.2"/>
<image xlink:href="../../images/foreignKeys.png" width="11px" height="12px" preserveAspectRatio="xMinYMin meet" x="13.5" y="-123.2"/>
<text text-anchor="start" x="28.5" y="-113.3" font-family="Helvetica,sans-Serif" font-size="11.00" fill="#000000">Common_PackTypeID</text>
<polygon fill="none" stroke="#000000" points="8.5,-87.2 8.5,-106.2 179.5,-106.2 179.5,-87.2 8.5,-87.2"/>
<text text-anchor="start" x="11.5" y="-93.3" font-family="Helvetica,sans-Serif" font-size="11.00" fill="#000000">...</text>
<polygon fill="#ffffff" stroke="transparent" points="8.5,-68.2 8.5,-87.2 71.5,-87.2 71.5,-68.2 8.5,-68.2"/>
<polygon fill="none" stroke="#000000" points="8.5,-68.2 8.5,-87.2 71.5,-87.2 71.5,-68.2 8.5,-68.2"/>
<text text-anchor="start" x="11.5" y="-74.3" font-family="Helvetica,sans-Serif" font-size="11.00" fill="#000000">&lt; 1</text>
<polygon fill="#ffffff" stroke="transparent" points="71.5,-68.2 71.5,-87.2 136.5,-87.2 136.5,-68.2 71.5,-68.2"/>
<polygon fill="none" stroke="#000000" points="71.5,-68.2 71.5,-87.2 136.5,-87.2 136.5,-68.2 71.5,-68.2"/>
<text text-anchor="start" x="94.9956" y="-74.3" font-family="Helvetica,sans-Serif" font-size="11.00" fill="#000000">54 rows</text>
<polygon fill="#ffffff" stroke="transparent" points="136.5,-68.2 136.5,-87.2 179.5,-87.2 179.5,-68.2 136.5,-68.2"/>
<polygon fill="none" stroke="#000000" points="136.5,-68.2 136.5,-87.2 179.5,-87.2 179.5,-68.2 136.5,-68.2"/>
<text text-anchor="start" x="160.9053" y="-74.3" font-family="Helvetica,sans-Serif" font-size="11.00" fill="#000000">6 &gt;</text>
</a>
</g>
</g>
<!-- order_receiveitem&#45;&gt;common_product -->
<g id="edge1" class="edge">
<title>order_receiveitem:w&#45;&gt;common_product:e</title>
<path fill="none" stroke="#000000" d="M216.2601,-197.8123C202.5688,-187.2354 202.5379,-161.2 179.5,-161.2"/>
<polygon fill="#000000" stroke="#000000" points="222.3792,-199.7663 228.9048,-205.6294 226.1896,-200.9832 230,-202.2 230,-202.2 230,-202.2 226.1896,-200.9832 231.0952,-198.7706 222.3792,-199.7663 222.3792,-199.7663"/>
<ellipse fill="none" stroke="#000000" cx="219.3308" cy="-198.7928" rx="3.2" ry="3.2"/>
</g>
<!-- order_receive -->
<g id="node3" class="node">
<title>order_receive</title>
<g id="a_node3"><a xlink:href="../../tables/order_receive.html" xlink:title="order_receive" target="_top">
<polygon fill="#ffffff" stroke="transparent" points="23,-216.7 23,-299.7 164,-299.7 164,-216.7 23,-216.7"/>
<polygon fill="#f5f5f5" stroke="transparent" points="23.5,-276.2 23.5,-299.2 164.5,-299.2 164.5,-276.2 23.5,-276.2"/>
<polygon fill="none" stroke="#000000" points="23.5,-276.2 23.5,-299.2 164.5,-299.2 164.5,-276.2 23.5,-276.2"/>
<text text-anchor="start" x="28.5" y="-284.8" font-family="Helvetica,sans-Serif" font-weight="bold" font-size="11.00" fill="#000000">order_receive</text>
<text text-anchor="start" x="129.5437" y="-284.3" font-family="Helvetica,sans-Serif" font-size="11.00" fill="#000000">[table]</text>
<polygon fill="none" stroke="#000000" points="23.5,-254.2 23.5,-276.2 164.5,-276.2 164.5,-254.2 23.5,-254.2"/>
<image xlink:href="../../images/primaryKeys.png" width="11px" height="12px" preserveAspectRatio="xMinYMin meet" x="28.5" y="-271.2"/>
<text text-anchor="start" x="43.5" y="-261.3" font-family="Helvetica,sans-Serif" font-size="11.00" fill="#000000">ID</text>
<polygon fill="none" stroke="#000000" points="23.5,-235.2 23.5,-254.2 164.5,-254.2 164.5,-235.2 23.5,-235.2"/>
<text text-anchor="start" x="26.5" y="-241.3" font-family="Helvetica,sans-Serif" font-size="11.00" fill="#000000">...</text>
<polygon fill="#ffffff" stroke="transparent" points="23.5,-216.2 23.5,-235.2 64.5,-235.2 64.5,-216.2 23.5,-216.2"/>
<polygon fill="none" stroke="#000000" points="23.5,-216.2 23.5,-235.2 64.5,-235.2 64.5,-216.2 23.5,-216.2"/>
<text text-anchor="start" x="26.5" y="-222.3" font-family="Helvetica,sans-Serif" font-size="11.00" fill="#000000"> &#160;</text>
<polygon fill="#ffffff" stroke="transparent" points="64.5,-216.2 64.5,-235.2 128.5,-235.2 128.5,-216.2 64.5,-216.2"/>
<polygon fill="none" stroke="#000000" points="64.5,-216.2 64.5,-235.2 128.5,-235.2 128.5,-216.2 64.5,-216.2"/>
<text text-anchor="start" x="80.8807" y="-222.3" font-family="Helvetica,sans-Serif" font-size="11.00" fill="#000000">137 rows</text>
<polygon fill="#ffffff" stroke="transparent" points="128.5,-216.2 128.5,-235.2 164.5,-235.2 164.5,-216.2 128.5,-216.2"/>
<polygon fill="none" stroke="#000000" points="128.5,-216.2 128.5,-235.2 164.5,-235.2 164.5,-216.2 128.5,-216.2"/>
<text text-anchor="start" x="145.9053" y="-222.3" font-family="Helvetica,sans-Serif" font-size="11.00" fill="#000000">1 &gt;</text>
</a>
</g>
</g>
<!-- order_receiveitem&#45;&gt;order_receive -->
<g id="edge2" class="edge">
<title>order_receiveitem:w&#45;&gt;order_receive:e</title>
<path fill="none" stroke="#000000" d="M215.7955,-227.1486C195.6919,-236.5495 193.2094,-265.2 164.5,-265.2"/>
<polygon fill="#000000" stroke="#000000" points="222.167,-225.8261 230.7317,-227.7249 226.0835,-225.013 230,-224.2 230,-224.2 230,-224.2 226.0835,-225.013 229.2683,-220.6751 222.167,-225.8261 222.167,-225.8261"/>
<ellipse fill="none" stroke="#000000" cx="219.0338" cy="-226.4765" rx="3.2" ry="3.2"/>
</g>
</g>
</svg>
