<?xml version="1.0" encoding="UTF-8" standalone="no"?>
<!DOCTYPE svg PUBLIC "-//W3C//DTD SVG 1.1//EN"
 "http://www.w3.org/Graphics/SVG/1.1/DTD/svg11.dtd">
<!-- Generated by graphviz version 2.40.1 (20161225.0304)
 -->
<!-- Title: oneDegreeRelationshipsDiagram Pages: 1 -->
<svg width="302pt" height="448pt"
 viewBox="0.00 0.00 302.00 448.20" xmlns="http://www.w3.org/2000/svg" xmlns:xlink="http://www.w3.org/1999/xlink">
<g id="graph0" class="graph" transform="scale(1 1) rotate(0) translate(4 444.2)">
<title>oneDegreeRelationshipsDiagram</title>
<polygon fill="#ffffff" stroke="transparent" points="-4,4 -4,-444.2 298,-444.2 298,4 -4,4"/>
<text text-anchor="middle" x="72.4936" y="-7.3" font-family="Helvetica,sans-Serif" font-size="11.00" fill="#000000">Generated by SchemaSpy</text>
<!-- proc_rawbookingitem -->
<g id="node1" class="node">
<title>proc_rawbookingitem</title>
<g id="a_node1"><a xlink:href="../../tables/proc_rawbookingitem.html" xlink:title="proc_rawbookingitem" target="_top">
<polygon fill="#ffffff" stroke="transparent" points="8,-38.2 8,-436.2 286,-436.2 286,-38.2 8,-38.2"/>
<polygon fill="#f5f5f5" stroke="transparent" points="10,-411.2 10,-434.2 284,-434.2 284,-411.2 10,-411.2"/>
<polygon fill="none" stroke="#000000" points="10,-411.2 10,-434.2 284,-434.2 284,-411.2 10,-411.2"/>
<text text-anchor="start" x="15" y="-419.8" font-family="Helvetica,sans-Serif" font-weight="bold" font-size="11.00" fill="#000000">proc_rawbookingitem</text>
<text text-anchor="start" x="249.0437" y="-419.3" font-family="Helvetica,sans-Serif" font-size="11.00" fill="#000000">[table]</text>
<polygon fill="none" stroke="#000000" points="10,-389.2 10,-411.2 173,-411.2 173,-389.2 10,-389.2"/>
<image xlink:href="../../images/primaryKeys.png" width="11px" height="12px" preserveAspectRatio="xMinYMin meet" x="15" y="-406.2"/>
<text text-anchor="start" x="30" y="-396.3" font-family="Helvetica,sans-Serif" font-size="11.00" fill="#000000">ID</text>
<polygon fill="none" stroke="#000000" points="173,-389.2 173,-411.2 284,-411.2 284,-389.2 173,-389.2"/>
<text text-anchor="start" x="176" y="-396.9" font-family="Helvetica,sans-Serif" font-size="11.00" fill="#000000">int[10]</text>
<polygon fill="none" stroke="#000000" points="10,-367.2 10,-389.2 173,-389.2 173,-367.2 10,-367.2"/>
<text text-anchor="start" x="30" y="-374.3" font-family="Helvetica,sans-Serif" font-size="11.00" fill="#000000">Active</text>
<polygon fill="none" stroke="#000000" points="173,-367.2 173,-389.2 284,-389.2 284,-367.2 173,-367.2"/>
<text text-anchor="start" x="176" y="-374.9" font-family="Helvetica,sans-Serif" font-size="11.00" fill="#000000">bit[1]</text>
<polygon fill="none" stroke="#000000" points="10,-345.2 10,-367.2 173,-367.2 173,-345.2 10,-345.2"/>
<text text-anchor="start" x="30" y="-352.3" font-family="Helvetica,sans-Serif" font-size="11.00" fill="#000000">User</text>
<polygon fill="none" stroke="#000000" points="173,-345.2 173,-367.2 284,-367.2 284,-345.2 173,-345.2"/>
<text text-anchor="start" x="175.6115" y="-352.9" font-family="Helvetica,sans-Serif" font-size="11.00" fill="#000000">longtext[2147483647]</text>
<polygon fill="none" stroke="#000000" points="10,-323.2 10,-345.2 173,-345.2 173,-323.2 10,-323.2"/>
<text text-anchor="start" x="30" y="-330.3" font-family="Helvetica,sans-Serif" font-size="11.00" fill="#000000">CD</text>
<polygon fill="none" stroke="#000000" points="173,-323.2 173,-345.2 284,-345.2 284,-323.2 173,-323.2"/>
<text text-anchor="start" x="176" y="-330.9" font-family="Helvetica,sans-Serif" font-size="11.00" fill="#000000">datetime[26]</text>
<polygon fill="none" stroke="#000000" points="10,-301.2 10,-323.2 173,-323.2 173,-301.2 10,-301.2"/>
<text text-anchor="start" x="30" y="-308.3" font-family="Helvetica,sans-Serif" font-size="11.00" fill="#000000">UD</text>
<polygon fill="none" stroke="#000000" points="173,-301.2 173,-323.2 284,-323.2 284,-301.2 173,-301.2"/>
<text text-anchor="start" x="176" y="-308.9" font-family="Helvetica,sans-Serif" font-size="11.00" fill="#000000">datetime[26]</text>
<polygon fill="none" stroke="#000000" points="10,-279.2 10,-301.2 173,-301.2 173,-279.2 10,-279.2"/>
<text text-anchor="start" x="30" y="-286.3" font-family="Helvetica,sans-Serif" font-size="11.00" fill="#000000">Remarks</text>
<polygon fill="none" stroke="#000000" points="173,-279.2 173,-301.2 284,-301.2 284,-279.2 173,-279.2"/>
<text text-anchor="start" x="175.6115" y="-286.9" font-family="Helvetica,sans-Serif" font-size="11.00" fill="#000000">longtext[2147483647]</text>
<polygon fill="none" stroke="#000000" points="10,-257.2 10,-279.2 173,-279.2 173,-257.2 10,-257.2"/>
<text text-anchor="start" x="30" y="-264.3" font-family="Helvetica,sans-Serif" font-size="11.00" fill="#000000">UserID</text>
<polygon fill="none" stroke="#000000" points="173,-257.2 173,-279.2 284,-279.2 284,-257.2 173,-257.2"/>
<text text-anchor="start" x="176" y="-264.9" font-family="Helvetica,sans-Serif" font-size="11.00" fill="#000000">int[10]</text>
<polygon fill="none" stroke="#000000" points="10,-235.2 10,-257.2 173,-257.2 173,-235.2 10,-235.2"/>
<text text-anchor="start" x="30" y="-242.3" font-family="Helvetica,sans-Serif" font-size="11.00" fill="#000000">Proc_RawBookingFK</text>
<polygon fill="none" stroke="#000000" points="173,-235.2 173,-257.2 284,-257.2 284,-235.2 173,-235.2"/>
<text text-anchor="start" x="176" y="-242.9" font-family="Helvetica,sans-Serif" font-size="11.00" fill="#000000">int[10]</text>
<polygon fill="none" stroke="#000000" points="10,-213.2 10,-235.2 173,-235.2 173,-213.2 10,-213.2"/>
<text text-anchor="start" x="30" y="-220.3" font-family="Helvetica,sans-Serif" font-size="11.00" fill="#000000">Proc_RawConsolidateFK</text>
<polygon fill="none" stroke="#000000" points="173,-213.2 173,-235.2 284,-235.2 284,-213.2 173,-213.2"/>
<text text-anchor="start" x="176" y="-220.9" font-family="Helvetica,sans-Serif" font-size="11.00" fill="#000000">int[10]</text>
<polygon fill="none" stroke="#000000" points="10,-191.2 10,-213.2 173,-213.2 173,-191.2 10,-191.2"/>
<text text-anchor="start" x="30" y="-198.3" font-family="Helvetica,sans-Serif" font-size="11.00" fill="#000000">Order_BookingItemFK</text>
<polygon fill="none" stroke="#000000" points="173,-191.2 173,-213.2 284,-213.2 284,-191.2 173,-191.2"/>
<text text-anchor="start" x="176" y="-198.9" font-family="Helvetica,sans-Serif" font-size="11.00" fill="#000000">int[10]</text>
<polygon fill="none" stroke="#000000" points="10,-169.2 10,-191.2 173,-191.2 173,-169.2 10,-169.2"/>
<text text-anchor="start" x="30" y="-176.3" font-family="Helvetica,sans-Serif" font-size="11.00" fill="#000000">Common_RawItemFK</text>
<polygon fill="none" stroke="#000000" points="173,-169.2 173,-191.2 284,-191.2 284,-169.2 173,-169.2"/>
<text text-anchor="start" x="176" y="-176.9" font-family="Helvetica,sans-Serif" font-size="11.00" fill="#000000">int[10]</text>
<polygon fill="none" stroke="#000000" points="10,-147.2 10,-169.2 173,-169.2 173,-147.2 10,-147.2"/>
<text text-anchor="start" x="30" y="-154.3" font-family="Helvetica,sans-Serif" font-size="11.00" fill="#000000">Common_UnitFK</text>
<polygon fill="none" stroke="#000000" points="173,-147.2 173,-169.2 284,-169.2 284,-147.2 173,-147.2"/>
<text text-anchor="start" x="176" y="-154.9" font-family="Helvetica,sans-Serif" font-size="11.00" fill="#000000">int[10]</text>
<polygon fill="none" stroke="#000000" points="10,-125.2 10,-147.2 173,-147.2 173,-125.2 10,-125.2"/>
<text text-anchor="start" x="30" y="-132.3" font-family="Helvetica,sans-Serif" font-size="11.00" fill="#000000">Proc_BookingProductFK</text>
<polygon fill="none" stroke="#000000" points="173,-125.2 173,-147.2 284,-147.2 284,-125.2 173,-125.2"/>
<text text-anchor="start" x="176" y="-132.9" font-family="Helvetica,sans-Serif" font-size="11.00" fill="#000000">int[10]</text>
<polygon fill="none" stroke="#000000" points="10,-103.2 10,-125.2 173,-125.2 173,-103.2 10,-103.2"/>
<text text-anchor="start" x="30" y="-110.3" font-family="Helvetica,sans-Serif" font-size="11.00" fill="#000000">Quantity</text>
<polygon fill="none" stroke="#000000" points="173,-103.2 173,-125.2 284,-125.2 284,-103.2 173,-103.2"/>
<text text-anchor="start" x="176" y="-110.9" font-family="Helvetica,sans-Serif" font-size="11.00" fill="#000000">decimal[18,2]</text>
<polygon fill="none" stroke="#000000" points="10,-81.2 10,-103.2 173,-103.2 173,-81.2 10,-81.2"/>
<text text-anchor="start" x="30" y="-88.3" font-family="Helvetica,sans-Serif" font-size="11.00" fill="#000000">Receive_Qty</text>
<polygon fill="none" stroke="#000000" points="173,-81.2 173,-103.2 284,-103.2 284,-81.2 173,-81.2"/>
<text text-anchor="start" x="176" y="-88.9" font-family="Helvetica,sans-Serif" font-size="11.00" fill="#000000">decimal[18,2]</text>
<polygon fill="none" stroke="#000000" points="10,-59.2 10,-81.2 173,-81.2 173,-59.2 10,-59.2"/>
<text text-anchor="start" x="30" y="-66.3" font-family="Helvetica,sans-Serif" font-size="11.00" fill="#000000">FinishProduct_Qty</text>
<polygon fill="none" stroke="#000000" points="173,-59.2 173,-81.2 284,-81.2 284,-59.2 173,-59.2"/>
<text text-anchor="start" x="176" y="-66.9" font-family="Helvetica,sans-Serif" font-size="11.00" fill="#000000">decimal[18,2]</text>
<polygon fill="#ffffff" stroke="transparent" points="10,-40.2 10,-59.2 80,-59.2 80,-40.2 10,-40.2"/>
<polygon fill="none" stroke="#000000" points="10,-40.2 10,-59.2 80,-59.2 80,-40.2 10,-40.2"/>
<text text-anchor="start" x="13" y="-46.3" font-family="Helvetica,sans-Serif" font-size="11.00" fill="#000000">&lt; 0</text>
<polygon fill="#ffffff" stroke="transparent" points="80,-40.2 80,-59.2 173,-59.2 173,-40.2 80,-40.2"/>
<polygon fill="none" stroke="#000000" points="80,-40.2 80,-59.2 173,-59.2 173,-40.2 80,-40.2"/>
<text text-anchor="start" x="131.4956" y="-46.3" font-family="Helvetica,sans-Serif" font-size="11.00" fill="#000000">93 rows</text>
<polygon fill="#ffffff" stroke="transparent" points="173,-40.2 173,-59.2 284,-59.2 284,-40.2 173,-40.2"/>
<polygon fill="none" stroke="#000000" points="173,-40.2 173,-59.2 284,-59.2 284,-40.2 173,-40.2"/>
<text text-anchor="start" x="265.4053" y="-46.3" font-family="Helvetica,sans-Serif" font-size="11.00" fill="#000000">0 &gt;</text>
<polygon fill="none" stroke="#000000" stroke-width="2" points="9,-39.2 9,-435.2 285,-435.2 285,-39.2 9,-39.2"/>
</a>
</g>
</g>
</g>
</svg>
