<?xml version="1.0" encoding="UTF-8" standalone="no"?>
<!DOCTYPE svg PUBLIC "-//W3C//DTD SVG 1.1//EN"
 "http://www.w3.org/Graphics/SVG/1.1/DTD/svg11.dtd">
<!-- Generated by graphviz version 2.40.1 (20161225.0304)
 -->
<!-- Title: oneDegreeRelationshipsDiagram Pages: 1 -->
<svg width="335pt" height="514pt"
 viewBox="0.00 0.00 335.00 514.20" xmlns="http://www.w3.org/2000/svg" xmlns:xlink="http://www.w3.org/1999/xlink">
<g id="graph0" class="graph" transform="scale(1 1) rotate(0) translate(4 510.2)">
<title>oneDegreeRelationshipsDiagram</title>
<polygon fill="#ffffff" stroke="transparent" points="-4,4 -4,-510.2 331,-510.2 331,4 -4,4"/>
<text text-anchor="middle" x="72.4936" y="-7.3" font-family="Helvetica,sans-Serif" font-size="11.00" fill="#000000">Generated by SchemaSpy</text>
<!-- proc_rawpo -->
<g id="node1" class="node">
<title>proc_rawpo</title>
<g id="a_node1"><a xlink:href="../../tables/proc_rawpo.html" xlink:title="proc_rawpo" target="_top">
<polygon fill="#ffffff" stroke="transparent" points="8,-38.2 8,-502.2 319,-502.2 319,-38.2 8,-38.2"/>
<polygon fill="#f5f5f5" stroke="transparent" points="10.5,-477.2 10.5,-500.2 317.5,-500.2 317.5,-477.2 10.5,-477.2"/>
<polygon fill="none" stroke="#000000" points="10.5,-477.2 10.5,-500.2 317.5,-500.2 317.5,-477.2 10.5,-477.2"/>
<text text-anchor="start" x="15.5" y="-485.8" font-family="Helvetica,sans-Serif" font-weight="bold" font-size="11.00" fill="#000000">proc_rawpo</text>
<text text-anchor="start" x="282.5437" y="-485.3" font-family="Helvetica,sans-Serif" font-size="11.00" fill="#000000">[table]</text>
<polygon fill="none" stroke="#000000" points="10.5,-455.2 10.5,-477.2 206.5,-477.2 206.5,-455.2 10.5,-455.2"/>
<image xlink:href="../../images/primaryKeys.png" width="11px" height="12px" preserveAspectRatio="xMinYMin meet" x="15.5" y="-472.2"/>
<text text-anchor="start" x="30.5" y="-462.3" font-family="Helvetica,sans-Serif" font-size="11.00" fill="#000000">ID</text>
<polygon fill="none" stroke="#000000" points="206.5,-455.2 206.5,-477.2 317.5,-477.2 317.5,-455.2 206.5,-455.2"/>
<text text-anchor="start" x="209.5" y="-462.9" font-family="Helvetica,sans-Serif" font-size="11.00" fill="#000000">int[10]</text>
<polygon fill="none" stroke="#000000" points="10.5,-433.2 10.5,-455.2 206.5,-455.2 206.5,-433.2 10.5,-433.2"/>
<text text-anchor="start" x="30.5" y="-440.3" font-family="Helvetica,sans-Serif" font-size="11.00" fill="#000000">Active</text>
<polygon fill="none" stroke="#000000" points="206.5,-433.2 206.5,-455.2 317.5,-455.2 317.5,-433.2 206.5,-433.2"/>
<text text-anchor="start" x="209.5" y="-440.9" font-family="Helvetica,sans-Serif" font-size="11.00" fill="#000000">bit[1]</text>
<polygon fill="none" stroke="#000000" points="10.5,-411.2 10.5,-433.2 206.5,-433.2 206.5,-411.2 10.5,-411.2"/>
<text text-anchor="start" x="30.5" y="-418.3" font-family="Helvetica,sans-Serif" font-size="11.00" fill="#000000">User</text>
<polygon fill="none" stroke="#000000" points="206.5,-411.2 206.5,-433.2 317.5,-433.2 317.5,-411.2 206.5,-411.2"/>
<text text-anchor="start" x="209.1115" y="-418.9" font-family="Helvetica,sans-Serif" font-size="11.00" fill="#000000">longtext[2147483647]</text>
<polygon fill="none" stroke="#000000" points="10.5,-389.2 10.5,-411.2 206.5,-411.2 206.5,-389.2 10.5,-389.2"/>
<text text-anchor="start" x="30.5" y="-396.3" font-family="Helvetica,sans-Serif" font-size="11.00" fill="#000000">CD</text>
<polygon fill="none" stroke="#000000" points="206.5,-389.2 206.5,-411.2 317.5,-411.2 317.5,-389.2 206.5,-389.2"/>
<text text-anchor="start" x="209.5" y="-396.9" font-family="Helvetica,sans-Serif" font-size="11.00" fill="#000000">datetime[26]</text>
<polygon fill="none" stroke="#000000" points="10.5,-367.2 10.5,-389.2 206.5,-389.2 206.5,-367.2 10.5,-367.2"/>
<text text-anchor="start" x="30.5" y="-374.3" font-family="Helvetica,sans-Serif" font-size="11.00" fill="#000000">UD</text>
<polygon fill="none" stroke="#000000" points="206.5,-367.2 206.5,-389.2 317.5,-389.2 317.5,-367.2 206.5,-367.2"/>
<text text-anchor="start" x="209.5" y="-374.9" font-family="Helvetica,sans-Serif" font-size="11.00" fill="#000000">datetime[26]</text>
<polygon fill="none" stroke="#000000" points="10.5,-345.2 10.5,-367.2 206.5,-367.2 206.5,-345.2 10.5,-345.2"/>
<text text-anchor="start" x="30.5" y="-352.3" font-family="Helvetica,sans-Serif" font-size="11.00" fill="#000000">Remarks</text>
<polygon fill="none" stroke="#000000" points="206.5,-345.2 206.5,-367.2 317.5,-367.2 317.5,-345.2 206.5,-345.2"/>
<text text-anchor="start" x="209.1115" y="-352.9" font-family="Helvetica,sans-Serif" font-size="11.00" fill="#000000">longtext[2147483647]</text>
<polygon fill="none" stroke="#000000" points="10.5,-323.2 10.5,-345.2 206.5,-345.2 206.5,-323.2 10.5,-323.2"/>
<text text-anchor="start" x="30.5" y="-330.3" font-family="Helvetica,sans-Serif" font-size="11.00" fill="#000000">UserID</text>
<polygon fill="none" stroke="#000000" points="206.5,-323.2 206.5,-345.2 317.5,-345.2 317.5,-323.2 206.5,-323.2"/>
<text text-anchor="start" x="209.5" y="-330.9" font-family="Helvetica,sans-Serif" font-size="11.00" fill="#000000">int[10]</text>
<polygon fill="none" stroke="#000000" points="10.5,-301.2 10.5,-323.2 206.5,-323.2 206.5,-301.2 10.5,-301.2"/>
<text text-anchor="start" x="30.5" y="-308.3" font-family="Helvetica,sans-Serif" font-size="11.00" fill="#000000">CompanyFK</text>
<polygon fill="none" stroke="#000000" points="206.5,-301.2 206.5,-323.2 317.5,-323.2 317.5,-301.2 206.5,-301.2"/>
<text text-anchor="start" x="209.5" y="-308.9" font-family="Helvetica,sans-Serif" font-size="11.00" fill="#000000">int[10]</text>
<polygon fill="none" stroke="#000000" points="10.5,-279.2 10.5,-301.2 206.5,-301.2 206.5,-279.2 10.5,-279.2"/>
<text text-anchor="start" x="30.5" y="-286.3" font-family="Helvetica,sans-Serif" font-size="11.00" fill="#000000">Common_SupplierFK</text>
<polygon fill="none" stroke="#000000" points="206.5,-279.2 206.5,-301.2 317.5,-301.2 317.5,-279.2 206.5,-279.2"/>
<text text-anchor="start" x="209.5" y="-286.9" font-family="Helvetica,sans-Serif" font-size="11.00" fill="#000000">int[10]</text>
<polygon fill="none" stroke="#000000" points="10.5,-257.2 10.5,-279.2 206.5,-279.2 206.5,-257.2 10.5,-257.2"/>
<text text-anchor="start" x="30.5" y="-264.3" font-family="Helvetica,sans-Serif" font-size="11.00" fill="#000000">PaymentTypeFK</text>
<polygon fill="none" stroke="#000000" points="206.5,-257.2 206.5,-279.2 317.5,-279.2 317.5,-257.2 206.5,-257.2"/>
<text text-anchor="start" x="209.5" y="-264.9" font-family="Helvetica,sans-Serif" font-size="11.00" fill="#000000">int[10]</text>
<polygon fill="none" stroke="#000000" points="10.5,-235.2 10.5,-257.2 206.5,-257.2 206.5,-235.2 10.5,-235.2"/>
<text text-anchor="start" x="30.5" y="-242.3" font-family="Helvetica,sans-Serif" font-size="11.00" fill="#000000">POTypeID</text>
<polygon fill="none" stroke="#000000" points="206.5,-235.2 206.5,-257.2 317.5,-257.2 317.5,-235.2 206.5,-235.2"/>
<text text-anchor="start" x="209.5" y="-242.9" font-family="Helvetica,sans-Serif" font-size="11.00" fill="#000000">int[10]</text>
<polygon fill="none" stroke="#000000" points="10.5,-213.2 10.5,-235.2 206.5,-235.2 206.5,-213.2 10.5,-213.2"/>
<text text-anchor="start" x="30.5" y="-220.3" font-family="Helvetica,sans-Serif" font-size="11.00" fill="#000000">StatusID</text>
<polygon fill="none" stroke="#000000" points="206.5,-213.2 206.5,-235.2 317.5,-235.2 317.5,-213.2 206.5,-213.2"/>
<text text-anchor="start" x="209.5" y="-220.9" font-family="Helvetica,sans-Serif" font-size="11.00" fill="#000000">int[10]</text>
<polygon fill="none" stroke="#000000" points="10.5,-191.2 10.5,-213.2 206.5,-213.2 206.5,-191.2 10.5,-191.2"/>
<text text-anchor="start" x="30.5" y="-198.3" font-family="Helvetica,sans-Serif" font-size="11.00" fill="#000000">OrderDate</text>
<polygon fill="none" stroke="#000000" points="206.5,-191.2 206.5,-213.2 317.5,-213.2 317.5,-191.2 206.5,-191.2"/>
<text text-anchor="start" x="209.5" y="-198.9" font-family="Helvetica,sans-Serif" font-size="11.00" fill="#000000">datetime[26]</text>
<polygon fill="none" stroke="#000000" points="10.5,-169.2 10.5,-191.2 206.5,-191.2 206.5,-169.2 10.5,-169.2"/>
<text text-anchor="start" x="30.5" y="-176.3" font-family="Helvetica,sans-Serif" font-size="11.00" fill="#000000">ExpDeliveryDate</text>
<polygon fill="none" stroke="#000000" points="206.5,-169.2 206.5,-191.2 317.5,-191.2 317.5,-169.2 206.5,-169.2"/>
<text text-anchor="start" x="209.5" y="-176.9" font-family="Helvetica,sans-Serif" font-size="11.00" fill="#000000">datetime[26]</text>
<polygon fill="none" stroke="#000000" points="10.5,-147.2 10.5,-169.2 206.5,-169.2 206.5,-147.2 10.5,-147.2"/>
<text text-anchor="start" x="30.5" y="-154.3" font-family="Helvetica,sans-Serif" font-size="11.00" fill="#000000">OrderCID</text>
<polygon fill="none" stroke="#000000" points="206.5,-147.2 206.5,-169.2 317.5,-169.2 317.5,-147.2 206.5,-147.2"/>
<text text-anchor="start" x="209.1115" y="-154.9" font-family="Helvetica,sans-Serif" font-size="11.00" fill="#000000">longtext[2147483647]</text>
<polygon fill="none" stroke="#000000" points="10.5,-125.2 10.5,-147.2 206.5,-147.2 206.5,-125.2 10.5,-125.2"/>
<text text-anchor="start" x="30.5" y="-132.3" font-family="Helvetica,sans-Serif" font-size="11.00" fill="#000000">TotalValue</text>
<polygon fill="none" stroke="#000000" points="206.5,-125.2 206.5,-147.2 317.5,-147.2 317.5,-125.2 206.5,-125.2"/>
<text text-anchor="start" x="209.5" y="-132.9" font-family="Helvetica,sans-Serif" font-size="11.00" fill="#000000">decimal[18,5]</text>
<polygon fill="none" stroke="#000000" points="10.5,-103.2 10.5,-125.2 206.5,-125.2 206.5,-103.2 10.5,-103.2"/>
<text text-anchor="start" x="30.5" y="-110.3" font-family="Helvetica,sans-Serif" font-size="11.00" fill="#000000">Common_TermsNConditionFK</text>
<polygon fill="none" stroke="#000000" points="206.5,-103.2 206.5,-125.2 317.5,-125.2 317.5,-103.2 206.5,-103.2"/>
<text text-anchor="start" x="209.5" y="-110.9" font-family="Helvetica,sans-Serif" font-size="11.00" fill="#000000">int[10]</text>
<polygon fill="none" stroke="#000000" points="10.5,-81.2 10.5,-103.2 206.5,-103.2 206.5,-81.2 10.5,-81.2"/>
<text text-anchor="start" x="30.5" y="-88.3" font-family="Helvetica,sans-Serif" font-size="11.00" fill="#000000">Exp_PaymentDays</text>
<polygon fill="none" stroke="#000000" points="206.5,-81.2 206.5,-103.2 317.5,-103.2 317.5,-81.2 206.5,-81.2"/>
<text text-anchor="start" x="209.5" y="-88.9" font-family="Helvetica,sans-Serif" font-size="11.00" fill="#000000">int[10]</text>
<polygon fill="none" stroke="#000000" points="10.5,-59.2 10.5,-81.2 206.5,-81.2 206.5,-59.2 10.5,-59.2"/>
<text text-anchor="start" x="30.5" y="-66.3" font-family="Helvetica,sans-Serif" font-size="11.00" fill="#000000">OrderNo</text>
<polygon fill="none" stroke="#000000" points="206.5,-59.2 206.5,-81.2 317.5,-81.2 317.5,-59.2 206.5,-59.2"/>
<text text-anchor="start" x="209.1115" y="-66.9" font-family="Helvetica,sans-Serif" font-size="11.00" fill="#000000">longtext[2147483647]</text>
<polygon fill="#ffffff" stroke="transparent" points="10.5,-40.2 10.5,-59.2 96.5,-59.2 96.5,-40.2 10.5,-40.2"/>
<polygon fill="none" stroke="#000000" points="10.5,-40.2 10.5,-59.2 96.5,-59.2 96.5,-40.2 10.5,-40.2"/>
<text text-anchor="start" x="13.5" y="-46.3" font-family="Helvetica,sans-Serif" font-size="11.00" fill="#000000">&lt; 0</text>
<polygon fill="#ffffff" stroke="transparent" points="96.5,-40.2 96.5,-59.2 206.5,-59.2 206.5,-40.2 96.5,-40.2"/>
<polygon fill="none" stroke="#000000" points="96.5,-40.2 96.5,-59.2 206.5,-59.2 206.5,-40.2 96.5,-40.2"/>
<text text-anchor="start" x="164.9956" y="-46.3" font-family="Helvetica,sans-Serif" font-size="11.00" fill="#000000">34 rows</text>
<polygon fill="#ffffff" stroke="transparent" points="206.5,-40.2 206.5,-59.2 317.5,-59.2 317.5,-40.2 206.5,-40.2"/>
<polygon fill="none" stroke="#000000" points="206.5,-40.2 206.5,-59.2 317.5,-59.2 317.5,-40.2 206.5,-40.2"/>
<text text-anchor="start" x="298.9053" y="-46.3" font-family="Helvetica,sans-Serif" font-size="11.00" fill="#000000">0 &gt;</text>
<polygon fill="none" stroke="#000000" stroke-width="2" points="9,-39.2 9,-501.2 318,-501.2 318,-39.2 9,-39.2"/>
</a>
</g>
</g>
</g>
</svg>
