<?xml version="1.0" encoding="UTF-8" standalone="no"?>
<!DOCTYPE svg PUBLIC "-//W3C//DTD SVG 1.1//EN"
 "http://www.w3.org/Graphics/SVG/1.1/DTD/svg11.dtd">
<!-- Generated by graphviz version 2.40.1 (20161225.0304)
 -->
<!-- Title: oneDegreeRelationshipsDiagram Pages: 1 -->
<svg width="324pt" height="338pt"
 viewBox="0.00 0.00 324.00 338.20" xmlns="http://www.w3.org/2000/svg" xmlns:xlink="http://www.w3.org/1999/xlink">
<g id="graph0" class="graph" transform="scale(1 1) rotate(0) translate(4 334.2)">
<title>oneDegreeRelationshipsDiagram</title>
<polygon fill="#ffffff" stroke="transparent" points="-4,4 -4,-334.2 320,-334.2 320,4 -4,4"/>
<text text-anchor="middle" x="72.4936" y="-7.3" font-family="Helvetica,sans-Serif" font-size="11.00" fill="#000000">Generated by SchemaSpy</text>
<!-- proc_rawbookingitemhistory -->
<g id="node1" class="node">
<title>proc_rawbookingitemhistory</title>
<g id="a_node1"><a xlink:href="../../tables/proc_rawbookingitemhistory.html" xlink:title="proc_rawbookingitemhistory" target="_top">
<polygon fill="#ffffff" stroke="transparent" points="8,-38.2 8,-326.2 308,-326.2 308,-38.2 8,-38.2"/>
<polygon fill="#f5f5f5" stroke="transparent" points="10,-301.2 10,-324.2 306,-324.2 306,-301.2 10,-301.2"/>
<polygon fill="none" stroke="#000000" points="10,-301.2 10,-324.2 306,-324.2 306,-301.2 10,-301.2"/>
<text text-anchor="start" x="15" y="-309.8" font-family="Helvetica,sans-Serif" font-weight="bold" font-size="11.00" fill="#000000">proc_rawbookingitemhistory</text>
<text text-anchor="start" x="271.0437" y="-309.3" font-family="Helvetica,sans-Serif" font-size="11.00" fill="#000000">[table]</text>
<polygon fill="none" stroke="#000000" points="10,-279.2 10,-301.2 195,-301.2 195,-279.2 10,-279.2"/>
<image xlink:href="../../images/primaryKeys.png" width="11px" height="12px" preserveAspectRatio="xMinYMin meet" x="15" y="-296.2"/>
<text text-anchor="start" x="30" y="-286.3" font-family="Helvetica,sans-Serif" font-size="11.00" fill="#000000">ID</text>
<polygon fill="none" stroke="#000000" points="195,-279.2 195,-301.2 306,-301.2 306,-279.2 195,-279.2"/>
<text text-anchor="start" x="198" y="-286.9" font-family="Helvetica,sans-Serif" font-size="11.00" fill="#000000">int[10]</text>
<polygon fill="none" stroke="#000000" points="10,-257.2 10,-279.2 195,-279.2 195,-257.2 10,-257.2"/>
<text text-anchor="start" x="30" y="-264.3" font-family="Helvetica,sans-Serif" font-size="11.00" fill="#000000">Active</text>
<polygon fill="none" stroke="#000000" points="195,-257.2 195,-279.2 306,-279.2 306,-257.2 195,-257.2"/>
<text text-anchor="start" x="198" y="-264.9" font-family="Helvetica,sans-Serif" font-size="11.00" fill="#000000">bit[1]</text>
<polygon fill="none" stroke="#000000" points="10,-235.2 10,-257.2 195,-257.2 195,-235.2 10,-235.2"/>
<text text-anchor="start" x="30" y="-242.3" font-family="Helvetica,sans-Serif" font-size="11.00" fill="#000000">User</text>
<polygon fill="none" stroke="#000000" points="195,-235.2 195,-257.2 306,-257.2 306,-235.2 195,-235.2"/>
<text text-anchor="start" x="197.6115" y="-242.9" font-family="Helvetica,sans-Serif" font-size="11.00" fill="#000000">longtext[2147483647]</text>
<polygon fill="none" stroke="#000000" points="10,-213.2 10,-235.2 195,-235.2 195,-213.2 10,-213.2"/>
<text text-anchor="start" x="30" y="-220.3" font-family="Helvetica,sans-Serif" font-size="11.00" fill="#000000">CD</text>
<polygon fill="none" stroke="#000000" points="195,-213.2 195,-235.2 306,-235.2 306,-213.2 195,-213.2"/>
<text text-anchor="start" x="198" y="-220.9" font-family="Helvetica,sans-Serif" font-size="11.00" fill="#000000">datetime[26]</text>
<polygon fill="none" stroke="#000000" points="10,-191.2 10,-213.2 195,-213.2 195,-191.2 10,-191.2"/>
<text text-anchor="start" x="30" y="-198.3" font-family="Helvetica,sans-Serif" font-size="11.00" fill="#000000">UD</text>
<polygon fill="none" stroke="#000000" points="195,-191.2 195,-213.2 306,-213.2 306,-191.2 195,-191.2"/>
<text text-anchor="start" x="198" y="-198.9" font-family="Helvetica,sans-Serif" font-size="11.00" fill="#000000">datetime[26]</text>
<polygon fill="none" stroke="#000000" points="10,-169.2 10,-191.2 195,-191.2 195,-169.2 10,-169.2"/>
<text text-anchor="start" x="30" y="-176.3" font-family="Helvetica,sans-Serif" font-size="11.00" fill="#000000">Remarks</text>
<polygon fill="none" stroke="#000000" points="195,-169.2 195,-191.2 306,-191.2 306,-169.2 195,-169.2"/>
<text text-anchor="start" x="197.6115" y="-176.9" font-family="Helvetica,sans-Serif" font-size="11.00" fill="#000000">longtext[2147483647]</text>
<polygon fill="none" stroke="#000000" points="10,-147.2 10,-169.2 195,-169.2 195,-147.2 10,-147.2"/>
<text text-anchor="start" x="30" y="-154.3" font-family="Helvetica,sans-Serif" font-size="11.00" fill="#000000">UserID</text>
<polygon fill="none" stroke="#000000" points="195,-147.2 195,-169.2 306,-169.2 306,-147.2 195,-147.2"/>
<text text-anchor="start" x="198" y="-154.9" font-family="Helvetica,sans-Serif" font-size="11.00" fill="#000000">int[10]</text>
<polygon fill="none" stroke="#000000" points="10,-125.2 10,-147.2 195,-147.2 195,-125.2 10,-125.2"/>
<text text-anchor="start" x="30" y="-132.3" font-family="Helvetica,sans-Serif" font-size="11.00" fill="#000000">Proc_RawConsolidateFK</text>
<polygon fill="none" stroke="#000000" points="195,-125.2 195,-147.2 306,-147.2 306,-125.2 195,-125.2"/>
<text text-anchor="start" x="198" y="-132.9" font-family="Helvetica,sans-Serif" font-size="11.00" fill="#000000">int[10]</text>
<polygon fill="none" stroke="#000000" points="10,-103.2 10,-125.2 195,-125.2 195,-103.2 10,-103.2"/>
<text text-anchor="start" x="30" y="-110.3" font-family="Helvetica,sans-Serif" font-size="11.00" fill="#000000">Store_POChallanItemFK</text>
<polygon fill="none" stroke="#000000" points="195,-103.2 195,-125.2 306,-125.2 306,-103.2 195,-103.2"/>
<text text-anchor="start" x="198" y="-110.9" font-family="Helvetica,sans-Serif" font-size="11.00" fill="#000000">int[10]</text>
<polygon fill="none" stroke="#000000" points="10,-81.2 10,-103.2 195,-103.2 195,-81.2 10,-81.2"/>
<text text-anchor="start" x="30" y="-88.3" font-family="Helvetica,sans-Serif" font-size="11.00" fill="#000000">Quantity</text>
<polygon fill="none" stroke="#000000" points="195,-81.2 195,-103.2 306,-103.2 306,-81.2 195,-81.2"/>
<text text-anchor="start" x="198" y="-88.9" font-family="Helvetica,sans-Serif" font-size="11.00" fill="#000000">decimal[65,30]</text>
<polygon fill="none" stroke="#000000" points="10,-59.2 10,-81.2 195,-81.2 195,-59.2 10,-59.2"/>
<text text-anchor="start" x="30" y="-66.3" font-family="Helvetica,sans-Serif" font-size="11.00" fill="#000000">Unit_Price</text>
<polygon fill="none" stroke="#000000" points="195,-59.2 195,-81.2 306,-81.2 306,-59.2 195,-59.2"/>
<text text-anchor="start" x="198" y="-66.9" font-family="Helvetica,sans-Serif" font-size="11.00" fill="#000000">decimal[65,30]</text>
<polygon fill="#ffffff" stroke="transparent" points="10,-40.2 10,-59.2 91,-59.2 91,-40.2 10,-40.2"/>
<polygon fill="none" stroke="#000000" points="10,-40.2 10,-59.2 91,-59.2 91,-40.2 10,-40.2"/>
<text text-anchor="start" x="13" y="-46.3" font-family="Helvetica,sans-Serif" font-size="11.00" fill="#000000">&lt; 0</text>
<polygon fill="#ffffff" stroke="transparent" points="91,-40.2 91,-59.2 195,-59.2 195,-40.2 91,-40.2"/>
<polygon fill="none" stroke="#000000" points="91,-40.2 91,-59.2 195,-59.2 195,-40.2 91,-40.2"/>
<text text-anchor="start" x="153.4956" y="-46.3" font-family="Helvetica,sans-Serif" font-size="11.00" fill="#000000">71 rows</text>
<polygon fill="#ffffff" stroke="transparent" points="195,-40.2 195,-59.2 306,-59.2 306,-40.2 195,-40.2"/>
<polygon fill="none" stroke="#000000" points="195,-40.2 195,-59.2 306,-59.2 306,-40.2 195,-40.2"/>
<text text-anchor="start" x="287.4053" y="-46.3" font-family="Helvetica,sans-Serif" font-size="11.00" fill="#000000">0 &gt;</text>
<polygon fill="none" stroke="#000000" stroke-width="2" points="9,-39.2 9,-325.2 307,-325.2 307,-39.2 9,-39.2"/>
</a>
</g>
</g>
</g>
</svg>
