<?xml version="1.0" encoding="UTF-8" standalone="no"?>
<!DOCTYPE svg PUBLIC "-//W3C//DTD SVG 1.1//EN"
 "http://www.w3.org/Graphics/SVG/1.1/DTD/svg11.dtd">
<!-- Generated by graphviz version 2.40.1 (20161225.0304)
 -->
<!-- Title: oneDegreeRelationshipsDiagram Pages: 1 -->
<svg width="275pt" height="404pt"
 viewBox="0.00 0.00 275.00 404.20" xmlns="http://www.w3.org/2000/svg" xmlns:xlink="http://www.w3.org/1999/xlink">
<g id="graph0" class="graph" transform="scale(1 1) rotate(0) translate(4 400.2)">
<title>oneDegreeRelationshipsDiagram</title>
<polygon fill="#ffffff" stroke="transparent" points="-4,4 -4,-400.2 271,-400.2 271,4 -4,4"/>
<text text-anchor="middle" x="72.4936" y="-7.3" font-family="Helvetica,sans-Serif" font-size="11.00" fill="#000000">Generated by SchemaSpy</text>
<!-- rawitem -->
<g id="node1" class="node">
<title>rawitem</title>
<g id="a_node1"><a xlink:href="../../tables/rawitem.html" xlink:title="rawitem" target="_top">
<polygon fill="#ffffff" stroke="transparent" points="8,-38.2 8,-392.2 259,-392.2 259,-38.2 8,-38.2"/>
<polygon fill="#f5f5f5" stroke="transparent" points="10.5,-367.2 10.5,-390.2 257.5,-390.2 257.5,-367.2 10.5,-367.2"/>
<polygon fill="none" stroke="#000000" points="10.5,-367.2 10.5,-390.2 257.5,-390.2 257.5,-367.2 10.5,-367.2"/>
<text text-anchor="start" x="15.5" y="-375.8" font-family="Helvetica,sans-Serif" font-weight="bold" font-size="11.00" fill="#000000">rawitem</text>
<text text-anchor="start" x="222.5437" y="-375.3" font-family="Helvetica,sans-Serif" font-size="11.00" fill="#000000">[table]</text>
<polygon fill="none" stroke="#000000" points="10.5,-345.2 10.5,-367.2 146.5,-367.2 146.5,-345.2 10.5,-345.2"/>
<image xlink:href="../../images/primaryKeys.png" width="11px" height="12px" preserveAspectRatio="xMinYMin meet" x="15.5" y="-362.2"/>
<text text-anchor="start" x="30.5" y="-352.3" font-family="Helvetica,sans-Serif" font-size="11.00" fill="#000000">ID</text>
<polygon fill="none" stroke="#000000" points="146.5,-345.2 146.5,-367.2 257.5,-367.2 257.5,-345.2 146.5,-345.2"/>
<text text-anchor="start" x="149.5" y="-352.9" font-family="Helvetica,sans-Serif" font-size="11.00" fill="#000000">int[10]</text>
<polygon fill="none" stroke="#000000" points="10.5,-323.2 10.5,-345.2 146.5,-345.2 146.5,-323.2 10.5,-323.2"/>
<text text-anchor="start" x="30.5" y="-330.3" font-family="Helvetica,sans-Serif" font-size="11.00" fill="#000000">Active</text>
<polygon fill="none" stroke="#000000" points="146.5,-323.2 146.5,-345.2 257.5,-345.2 257.5,-323.2 146.5,-323.2"/>
<text text-anchor="start" x="149.5" y="-330.9" font-family="Helvetica,sans-Serif" font-size="11.00" fill="#000000">bit[1]</text>
<polygon fill="none" stroke="#000000" points="10.5,-301.2 10.5,-323.2 146.5,-323.2 146.5,-301.2 10.5,-301.2"/>
<text text-anchor="start" x="30.5" y="-308.3" font-family="Helvetica,sans-Serif" font-size="11.00" fill="#000000">User</text>
<polygon fill="none" stroke="#000000" points="146.5,-301.2 146.5,-323.2 257.5,-323.2 257.5,-301.2 146.5,-301.2"/>
<text text-anchor="start" x="149.1115" y="-308.9" font-family="Helvetica,sans-Serif" font-size="11.00" fill="#000000">longtext[2147483647]</text>
<polygon fill="none" stroke="#000000" points="10.5,-279.2 10.5,-301.2 146.5,-301.2 146.5,-279.2 10.5,-279.2"/>
<text text-anchor="start" x="30.5" y="-286.3" font-family="Helvetica,sans-Serif" font-size="11.00" fill="#000000">CD</text>
<polygon fill="none" stroke="#000000" points="146.5,-279.2 146.5,-301.2 257.5,-301.2 257.5,-279.2 146.5,-279.2"/>
<text text-anchor="start" x="149.5" y="-286.9" font-family="Helvetica,sans-Serif" font-size="11.00" fill="#000000">datetime[26]</text>
<polygon fill="none" stroke="#000000" points="10.5,-257.2 10.5,-279.2 146.5,-279.2 146.5,-257.2 10.5,-257.2"/>
<text text-anchor="start" x="30.5" y="-264.3" font-family="Helvetica,sans-Serif" font-size="11.00" fill="#000000">UD</text>
<polygon fill="none" stroke="#000000" points="146.5,-257.2 146.5,-279.2 257.5,-279.2 257.5,-257.2 146.5,-257.2"/>
<text text-anchor="start" x="149.5" y="-264.9" font-family="Helvetica,sans-Serif" font-size="11.00" fill="#000000">datetime[26]</text>
<polygon fill="none" stroke="#000000" points="10.5,-235.2 10.5,-257.2 146.5,-257.2 146.5,-235.2 10.5,-235.2"/>
<text text-anchor="start" x="30.5" y="-242.3" font-family="Helvetica,sans-Serif" font-size="11.00" fill="#000000">Remarks</text>
<polygon fill="none" stroke="#000000" points="146.5,-235.2 146.5,-257.2 257.5,-257.2 257.5,-235.2 146.5,-235.2"/>
<text text-anchor="start" x="149.1115" y="-242.9" font-family="Helvetica,sans-Serif" font-size="11.00" fill="#000000">longtext[2147483647]</text>
<polygon fill="none" stroke="#000000" points="10.5,-213.2 10.5,-235.2 146.5,-235.2 146.5,-213.2 10.5,-213.2"/>
<text text-anchor="start" x="30.5" y="-220.3" font-family="Helvetica,sans-Serif" font-size="11.00" fill="#000000">UserID</text>
<polygon fill="none" stroke="#000000" points="146.5,-213.2 146.5,-235.2 257.5,-235.2 257.5,-213.2 146.5,-213.2"/>
<text text-anchor="start" x="149.5" y="-220.9" font-family="Helvetica,sans-Serif" font-size="11.00" fill="#000000">int[10]</text>
<polygon fill="none" stroke="#000000" points="10.5,-191.2 10.5,-213.2 146.5,-213.2 146.5,-191.2 10.5,-191.2"/>
<text text-anchor="start" x="30.5" y="-198.3" font-family="Helvetica,sans-Serif" font-size="11.00" fill="#000000">CompanyFK</text>
<polygon fill="none" stroke="#000000" points="146.5,-191.2 146.5,-213.2 257.5,-213.2 257.5,-191.2 146.5,-191.2"/>
<text text-anchor="start" x="149.5" y="-198.9" font-family="Helvetica,sans-Serif" font-size="11.00" fill="#000000">int[10]</text>
<polygon fill="none" stroke="#000000" points="10.5,-169.2 10.5,-191.2 146.5,-191.2 146.5,-169.2 10.5,-169.2"/>
<text text-anchor="start" x="30.5" y="-176.3" font-family="Helvetica,sans-Serif" font-size="11.00" fill="#000000">RawCategoryFK</text>
<polygon fill="none" stroke="#000000" points="146.5,-169.2 146.5,-191.2 257.5,-191.2 257.5,-169.2 146.5,-169.2"/>
<text text-anchor="start" x="149.5" y="-176.9" font-family="Helvetica,sans-Serif" font-size="11.00" fill="#000000">int[10]</text>
<polygon fill="none" stroke="#000000" points="10.5,-147.2 10.5,-169.2 146.5,-169.2 146.5,-147.2 10.5,-147.2"/>
<text text-anchor="start" x="30.5" y="-154.3" font-family="Helvetica,sans-Serif" font-size="11.00" fill="#000000">RawSubCategoryFK</text>
<polygon fill="none" stroke="#000000" points="146.5,-147.2 146.5,-169.2 257.5,-169.2 257.5,-147.2 146.5,-147.2"/>
<text text-anchor="start" x="149.5" y="-154.9" font-family="Helvetica,sans-Serif" font-size="11.00" fill="#000000">int[10]</text>
<polygon fill="none" stroke="#000000" points="10.5,-125.2 10.5,-147.2 146.5,-147.2 146.5,-125.2 10.5,-125.2"/>
<text text-anchor="start" x="30.5" y="-132.3" font-family="Helvetica,sans-Serif" font-size="11.00" fill="#000000">UnitFK</text>
<polygon fill="none" stroke="#000000" points="146.5,-125.2 146.5,-147.2 257.5,-147.2 257.5,-125.2 146.5,-125.2"/>
<text text-anchor="start" x="149.5" y="-132.9" font-family="Helvetica,sans-Serif" font-size="11.00" fill="#000000">int[10]</text>
<polygon fill="none" stroke="#000000" points="10.5,-103.2 10.5,-125.2 146.5,-125.2 146.5,-103.2 10.5,-103.2"/>
<text text-anchor="start" x="30.5" y="-110.3" font-family="Helvetica,sans-Serif" font-size="11.00" fill="#000000">Name</text>
<polygon fill="none" stroke="#000000" points="146.5,-103.2 146.5,-125.2 257.5,-125.2 257.5,-103.2 146.5,-103.2"/>
<text text-anchor="start" x="149.1115" y="-110.9" font-family="Helvetica,sans-Serif" font-size="11.00" fill="#000000">longtext[2147483647]</text>
<polygon fill="none" stroke="#000000" points="10.5,-81.2 10.5,-103.2 146.5,-103.2 146.5,-81.2 10.5,-81.2"/>
<text text-anchor="start" x="30.5" y="-88.3" font-family="Helvetica,sans-Serif" font-size="11.00" fill="#000000">Code</text>
<polygon fill="none" stroke="#000000" points="146.5,-81.2 146.5,-103.2 257.5,-103.2 257.5,-81.2 146.5,-81.2"/>
<text text-anchor="start" x="149.1115" y="-88.9" font-family="Helvetica,sans-Serif" font-size="11.00" fill="#000000">longtext[2147483647]</text>
<polygon fill="none" stroke="#000000" points="10.5,-59.2 10.5,-81.2 146.5,-81.2 146.5,-59.2 10.5,-59.2"/>
<text text-anchor="start" x="30.5" y="-66.3" font-family="Helvetica,sans-Serif" font-size="11.00" fill="#000000">Unit_Price</text>
<polygon fill="none" stroke="#000000" points="146.5,-59.2 146.5,-81.2 257.5,-81.2 257.5,-59.2 146.5,-59.2"/>
<text text-anchor="start" x="149.5" y="-66.9" font-family="Helvetica,sans-Serif" font-size="11.00" fill="#000000">decimal[18,2]</text>
<polygon fill="#ffffff" stroke="transparent" points="10.5,-40.2 10.5,-59.2 66.5,-59.2 66.5,-40.2 10.5,-40.2"/>
<polygon fill="none" stroke="#000000" points="10.5,-40.2 10.5,-59.2 66.5,-59.2 66.5,-40.2 10.5,-40.2"/>
<text text-anchor="start" x="13.5" y="-46.3" font-family="Helvetica,sans-Serif" font-size="11.00" fill="#000000">&lt; 0</text>
<polygon fill="#ffffff" stroke="transparent" points="66.5,-40.2 66.5,-59.2 146.5,-59.2 146.5,-40.2 66.5,-40.2"/>
<polygon fill="none" stroke="#000000" points="66.5,-40.2 66.5,-59.2 146.5,-59.2 146.5,-40.2 66.5,-40.2"/>
<text text-anchor="start" x="104.9956" y="-46.3" font-family="Helvetica,sans-Serif" font-size="11.00" fill="#000000">10 rows</text>
<polygon fill="#ffffff" stroke="transparent" points="146.5,-40.2 146.5,-59.2 257.5,-59.2 257.5,-40.2 146.5,-40.2"/>
<polygon fill="none" stroke="#000000" points="146.5,-40.2 146.5,-59.2 257.5,-59.2 257.5,-40.2 146.5,-40.2"/>
<text text-anchor="start" x="238.9053" y="-46.3" font-family="Helvetica,sans-Serif" font-size="11.00" fill="#000000">0 &gt;</text>
<polygon fill="none" stroke="#000000" stroke-width="2" points="9,-39.2 9,-391.2 258,-391.2 258,-39.2 9,-39.2"/>
</a>
</g>
</g>
</g>
</svg>
