<?xml version="1.0" encoding="UTF-8" standalone="no"?>
<!DOCTYPE svg PUBLIC "-//W3C//DTD SVG 1.1//EN"
 "http://www.w3.org/Graphics/SVG/1.1/DTD/svg11.dtd">
<!-- Generated by graphviz version 2.40.1 (20161225.0304)
 -->
<!-- Title: oneDegreeRelationshipsDiagram Pages: 1 -->
<svg width="356pt" height="426pt"
 viewBox="0.00 0.00 356.00 426.20" xmlns="http://www.w3.org/2000/svg" xmlns:xlink="http://www.w3.org/1999/xlink">
<g id="graph0" class="graph" transform="scale(1 1) rotate(0) translate(4 422.2)">
<title>oneDegreeRelationshipsDiagram</title>
<polygon fill="#ffffff" stroke="transparent" points="-4,4 -4,-422.2 352,-422.2 352,4 -4,4"/>
<text text-anchor="middle" x="72.4936" y="-7.3" font-family="Helvetica,sans-Serif" font-size="11.00" fill="#000000">Generated by SchemaSpy</text>
<!-- retail_vouchertranshistory -->
<g id="node1" class="node">
<title>retail_vouchertranshistory</title>
<g id="a_node1"><a xlink:href="../../tables/retail_vouchertranshistory.html" xlink:title="retail_vouchertranshistory" target="_top">
<polygon fill="#ffffff" stroke="transparent" points="8,-38.2 8,-414.2 340,-414.2 340,-38.2 8,-38.2"/>
<polygon fill="#f5f5f5" stroke="transparent" points="10,-389.2 10,-412.2 338,-412.2 338,-389.2 10,-389.2"/>
<polygon fill="none" stroke="#000000" points="10,-389.2 10,-412.2 338,-412.2 338,-389.2 10,-389.2"/>
<text text-anchor="start" x="15" y="-397.8" font-family="Helvetica,sans-Serif" font-weight="bold" font-size="11.00" fill="#000000">retail_vouchertranshistory</text>
<text text-anchor="start" x="303.0437" y="-397.3" font-family="Helvetica,sans-Serif" font-size="11.00" fill="#000000">[table]</text>
<polygon fill="none" stroke="#000000" points="10,-367.2 10,-389.2 227,-389.2 227,-367.2 10,-367.2"/>
<image xlink:href="../../images/primaryKeys.png" width="11px" height="12px" preserveAspectRatio="xMinYMin meet" x="15" y="-384.2"/>
<text text-anchor="start" x="30" y="-374.3" font-family="Helvetica,sans-Serif" font-size="11.00" fill="#000000">ID</text>
<polygon fill="none" stroke="#000000" points="227,-367.2 227,-389.2 338,-389.2 338,-367.2 227,-367.2"/>
<text text-anchor="start" x="230" y="-374.9" font-family="Helvetica,sans-Serif" font-size="11.00" fill="#000000">int[10]</text>
<polygon fill="none" stroke="#000000" points="10,-345.2 10,-367.2 227,-367.2 227,-345.2 10,-345.2"/>
<text text-anchor="start" x="30" y="-352.3" font-family="Helvetica,sans-Serif" font-size="11.00" fill="#000000">Active</text>
<polygon fill="none" stroke="#000000" points="227,-345.2 227,-367.2 338,-367.2 338,-345.2 227,-345.2"/>
<text text-anchor="start" x="230" y="-352.9" font-family="Helvetica,sans-Serif" font-size="11.00" fill="#000000">bit[1]</text>
<polygon fill="none" stroke="#000000" points="10,-323.2 10,-345.2 227,-345.2 227,-323.2 10,-323.2"/>
<text text-anchor="start" x="30" y="-330.3" font-family="Helvetica,sans-Serif" font-size="11.00" fill="#000000">User</text>
<polygon fill="none" stroke="#000000" points="227,-323.2 227,-345.2 338,-345.2 338,-323.2 227,-323.2"/>
<text text-anchor="start" x="229.6115" y="-330.9" font-family="Helvetica,sans-Serif" font-size="11.00" fill="#000000">longtext[2147483647]</text>
<polygon fill="none" stroke="#000000" points="10,-301.2 10,-323.2 227,-323.2 227,-301.2 10,-301.2"/>
<text text-anchor="start" x="30" y="-308.3" font-family="Helvetica,sans-Serif" font-size="11.00" fill="#000000">CD</text>
<polygon fill="none" stroke="#000000" points="227,-301.2 227,-323.2 338,-323.2 338,-301.2 227,-301.2"/>
<text text-anchor="start" x="230" y="-308.9" font-family="Helvetica,sans-Serif" font-size="11.00" fill="#000000">datetime[26]</text>
<polygon fill="none" stroke="#000000" points="10,-279.2 10,-301.2 227,-301.2 227,-279.2 10,-279.2"/>
<text text-anchor="start" x="30" y="-286.3" font-family="Helvetica,sans-Serif" font-size="11.00" fill="#000000">UD</text>
<polygon fill="none" stroke="#000000" points="227,-279.2 227,-301.2 338,-301.2 338,-279.2 227,-279.2"/>
<text text-anchor="start" x="230" y="-286.9" font-family="Helvetica,sans-Serif" font-size="11.00" fill="#000000">datetime[26]</text>
<polygon fill="none" stroke="#000000" points="10,-257.2 10,-279.2 227,-279.2 227,-257.2 10,-257.2"/>
<text text-anchor="start" x="30" y="-264.3" font-family="Helvetica,sans-Serif" font-size="11.00" fill="#000000">Remarks</text>
<polygon fill="none" stroke="#000000" points="227,-257.2 227,-279.2 338,-279.2 338,-257.2 227,-257.2"/>
<text text-anchor="start" x="229.6115" y="-264.9" font-family="Helvetica,sans-Serif" font-size="11.00" fill="#000000">longtext[2147483647]</text>
<polygon fill="none" stroke="#000000" points="10,-235.2 10,-257.2 227,-257.2 227,-235.2 10,-235.2"/>
<text text-anchor="start" x="30" y="-242.3" font-family="Helvetica,sans-Serif" font-size="11.00" fill="#000000">UserID</text>
<polygon fill="none" stroke="#000000" points="227,-235.2 227,-257.2 338,-257.2 338,-235.2 227,-235.2"/>
<text text-anchor="start" x="230" y="-242.9" font-family="Helvetica,sans-Serif" font-size="11.00" fill="#000000">int[10]</text>
<polygon fill="none" stroke="#000000" points="10,-213.2 10,-235.2 227,-235.2 227,-213.2 10,-213.2"/>
<text text-anchor="start" x="30" y="-220.3" font-family="Helvetica,sans-Serif" font-size="11.00" fill="#000000">Retail_VoucherFK</text>
<polygon fill="none" stroke="#000000" points="227,-213.2 227,-235.2 338,-235.2 338,-213.2 227,-213.2"/>
<text text-anchor="start" x="230" y="-220.9" font-family="Helvetica,sans-Serif" font-size="11.00" fill="#000000">int[10]</text>
<polygon fill="none" stroke="#000000" points="10,-191.2 10,-213.2 227,-213.2 227,-191.2 10,-191.2"/>
<text text-anchor="start" x="30" y="-198.3" font-family="Helvetica,sans-Serif" font-size="11.00" fill="#000000">Retail_VoucherTransectionFK</text>
<polygon fill="none" stroke="#000000" points="227,-191.2 227,-213.2 338,-213.2 338,-191.2 227,-191.2"/>
<text text-anchor="start" x="230" y="-198.9" font-family="Helvetica,sans-Serif" font-size="11.00" fill="#000000">int[10]</text>
<polygon fill="none" stroke="#000000" points="10,-169.2 10,-191.2 227,-191.2 227,-169.2 10,-169.2"/>
<text text-anchor="start" x="30" y="-176.3" font-family="Helvetica,sans-Serif" font-size="11.00" fill="#000000">Amount</text>
<polygon fill="none" stroke="#000000" points="227,-169.2 227,-191.2 338,-191.2 338,-169.2 227,-169.2"/>
<text text-anchor="start" x="230" y="-176.9" font-family="Helvetica,sans-Serif" font-size="11.00" fill="#000000">decimal[65,30]</text>
<polygon fill="none" stroke="#000000" points="10,-147.2 10,-169.2 227,-169.2 227,-147.2 10,-147.2"/>
<text text-anchor="start" x="30" y="-154.3" font-family="Helvetica,sans-Serif" font-size="11.00" fill="#000000">PaymentMethodId</text>
<polygon fill="none" stroke="#000000" points="227,-147.2 227,-169.2 338,-169.2 338,-147.2 227,-147.2"/>
<text text-anchor="start" x="230" y="-154.9" font-family="Helvetica,sans-Serif" font-size="11.00" fill="#000000">int[10]</text>
<polygon fill="none" stroke="#000000" points="10,-125.2 10,-147.2 227,-147.2 227,-125.2 10,-125.2"/>
<text text-anchor="start" x="30" y="-132.3" font-family="Helvetica,sans-Serif" font-size="11.00" fill="#000000">TransactionId</text>
<polygon fill="none" stroke="#000000" points="227,-125.2 227,-147.2 338,-147.2 338,-125.2 227,-125.2"/>
<text text-anchor="start" x="229.6115" y="-132.9" font-family="Helvetica,sans-Serif" font-size="11.00" fill="#000000">longtext[2147483647]</text>
<polygon fill="none" stroke="#000000" points="10,-103.2 10,-125.2 227,-125.2 227,-103.2 10,-103.2"/>
<text text-anchor="start" x="30" y="-110.3" font-family="Helvetica,sans-Serif" font-size="11.00" fill="#000000">MerchantID</text>
<polygon fill="none" stroke="#000000" points="227,-103.2 227,-125.2 338,-125.2 338,-103.2 227,-103.2"/>
<text text-anchor="start" x="229.6115" y="-110.9" font-family="Helvetica,sans-Serif" font-size="11.00" fill="#000000">longtext[2147483647]</text>
<polygon fill="none" stroke="#000000" points="10,-81.2 10,-103.2 227,-103.2 227,-81.2 10,-81.2"/>
<text text-anchor="start" x="30" y="-88.3" font-family="Helvetica,sans-Serif" font-size="11.00" fill="#000000">MerchantUserID</text>
<polygon fill="none" stroke="#000000" points="227,-81.2 227,-103.2 338,-103.2 338,-81.2 227,-81.2"/>
<text text-anchor="start" x="229.6115" y="-88.9" font-family="Helvetica,sans-Serif" font-size="11.00" fill="#000000">longtext[2147483647]</text>
<polygon fill="none" stroke="#000000" points="10,-59.2 10,-81.2 227,-81.2 227,-59.2 10,-59.2"/>
<text text-anchor="start" x="30" y="-66.3" font-family="Helvetica,sans-Serif" font-size="11.00" fill="#000000">Retail_VoucherTransectionItemFK</text>
<polygon fill="none" stroke="#000000" points="227,-59.2 227,-81.2 338,-81.2 338,-59.2 227,-59.2"/>
<text text-anchor="start" x="230" y="-66.9" font-family="Helvetica,sans-Serif" font-size="11.00" fill="#000000">int[10]</text>
<polygon fill="#ffffff" stroke="transparent" points="10,-40.2 10,-59.2 104,-59.2 104,-40.2 10,-40.2"/>
<polygon fill="none" stroke="#000000" points="10,-40.2 10,-59.2 104,-59.2 104,-40.2 10,-40.2"/>
<text text-anchor="start" x="13" y="-46.3" font-family="Helvetica,sans-Serif" font-size="11.00" fill="#000000">&lt; 0</text>
<polygon fill="#ffffff" stroke="transparent" points="104,-40.2 104,-59.2 227,-59.2 227,-40.2 104,-40.2"/>
<polygon fill="none" stroke="#000000" points="104,-40.2 104,-59.2 227,-59.2 227,-40.2 104,-40.2"/>
<text text-anchor="start" x="179.3807" y="-46.3" font-family="Helvetica,sans-Serif" font-size="11.00" fill="#000000">134 rows</text>
<polygon fill="#ffffff" stroke="transparent" points="227,-40.2 227,-59.2 338,-59.2 338,-40.2 227,-40.2"/>
<polygon fill="none" stroke="#000000" points="227,-40.2 227,-59.2 338,-59.2 338,-40.2 227,-40.2"/>
<text text-anchor="start" x="319.4053" y="-46.3" font-family="Helvetica,sans-Serif" font-size="11.00" fill="#000000">0 &gt;</text>
<polygon fill="none" stroke="#000000" stroke-width="2" points="9,-39.2 9,-413.2 339,-413.2 339,-39.2 9,-39.2"/>
</a>
</g>
</g>
</g>
</svg>
