<?xml version="1.0" encoding="UTF-8" standalone="no"?>
<!DOCTYPE svg PUBLIC "-//W3C//DTD SVG 1.1//EN"
 "http://www.w3.org/Graphics/SVG/1.1/DTD/svg11.dtd">
<!-- Generated by graphviz version 2.40.1 (20161225.0304)
 -->
<!-- Title: oneDegreeRelationshipsDiagram Pages: 1 -->
<svg width="297pt" height="360pt"
 viewBox="0.00 0.00 297.00 360.20" xmlns="http://www.w3.org/2000/svg" xmlns:xlink="http://www.w3.org/1999/xlink">
<g id="graph0" class="graph" transform="scale(1 1) rotate(0) translate(4 356.2)">
<title>oneDegreeRelationshipsDiagram</title>
<polygon fill="#ffffff" stroke="transparent" points="-4,4 -4,-356.2 293,-356.2 293,4 -4,4"/>
<text text-anchor="middle" x="72.4936" y="-7.3" font-family="Helvetica,sans-Serif" font-size="11.00" fill="#000000">Generated by SchemaSpy</text>
<!-- retail_challanitembonus -->
<g id="node1" class="node">
<title>retail_challanitembonus</title>
<g id="a_node1"><a xlink:href="../../tables/retail_challanitembonus.html" xlink:title="retail_challanitembonus" target="_top">
<polygon fill="#ffffff" stroke="transparent" points="8,-38.2 8,-348.2 281,-348.2 281,-38.2 8,-38.2"/>
<polygon fill="#f5f5f5" stroke="transparent" points="10.5,-323.2 10.5,-346.2 279.5,-346.2 279.5,-323.2 10.5,-323.2"/>
<polygon fill="none" stroke="#000000" points="10.5,-323.2 10.5,-346.2 279.5,-346.2 279.5,-323.2 10.5,-323.2"/>
<text text-anchor="start" x="15.5" y="-331.8" font-family="Helvetica,sans-Serif" font-weight="bold" font-size="11.00" fill="#000000">retail_challanitembonus</text>
<text text-anchor="start" x="244.5437" y="-331.3" font-family="Helvetica,sans-Serif" font-size="11.00" fill="#000000">[table]</text>
<polygon fill="none" stroke="#000000" points="10.5,-301.2 10.5,-323.2 168.5,-323.2 168.5,-301.2 10.5,-301.2"/>
<image xlink:href="../../images/primaryKeys.png" width="11px" height="12px" preserveAspectRatio="xMinYMin meet" x="15.5" y="-318.2"/>
<text text-anchor="start" x="30.5" y="-308.3" font-family="Helvetica,sans-Serif" font-size="11.00" fill="#000000">ID</text>
<polygon fill="none" stroke="#000000" points="168.5,-301.2 168.5,-323.2 279.5,-323.2 279.5,-301.2 168.5,-301.2"/>
<text text-anchor="start" x="171.5" y="-308.9" font-family="Helvetica,sans-Serif" font-size="11.00" fill="#000000">int[10]</text>
<polygon fill="none" stroke="#000000" points="10.5,-279.2 10.5,-301.2 168.5,-301.2 168.5,-279.2 10.5,-279.2"/>
<text text-anchor="start" x="30.5" y="-286.3" font-family="Helvetica,sans-Serif" font-size="11.00" fill="#000000">Active</text>
<polygon fill="none" stroke="#000000" points="168.5,-279.2 168.5,-301.2 279.5,-301.2 279.5,-279.2 168.5,-279.2"/>
<text text-anchor="start" x="171.5" y="-286.9" font-family="Helvetica,sans-Serif" font-size="11.00" fill="#000000">bit[1]</text>
<polygon fill="none" stroke="#000000" points="10.5,-257.2 10.5,-279.2 168.5,-279.2 168.5,-257.2 10.5,-257.2"/>
<text text-anchor="start" x="30.5" y="-264.3" font-family="Helvetica,sans-Serif" font-size="11.00" fill="#000000">User</text>
<polygon fill="none" stroke="#000000" points="168.5,-257.2 168.5,-279.2 279.5,-279.2 279.5,-257.2 168.5,-257.2"/>
<text text-anchor="start" x="171.1115" y="-264.9" font-family="Helvetica,sans-Serif" font-size="11.00" fill="#000000">longtext[2147483647]</text>
<polygon fill="none" stroke="#000000" points="10.5,-235.2 10.5,-257.2 168.5,-257.2 168.5,-235.2 10.5,-235.2"/>
<text text-anchor="start" x="30.5" y="-242.3" font-family="Helvetica,sans-Serif" font-size="11.00" fill="#000000">CD</text>
<polygon fill="none" stroke="#000000" points="168.5,-235.2 168.5,-257.2 279.5,-257.2 279.5,-235.2 168.5,-235.2"/>
<text text-anchor="start" x="171.5" y="-242.9" font-family="Helvetica,sans-Serif" font-size="11.00" fill="#000000">datetime[26]</text>
<polygon fill="none" stroke="#000000" points="10.5,-213.2 10.5,-235.2 168.5,-235.2 168.5,-213.2 10.5,-213.2"/>
<text text-anchor="start" x="30.5" y="-220.3" font-family="Helvetica,sans-Serif" font-size="11.00" fill="#000000">UD</text>
<polygon fill="none" stroke="#000000" points="168.5,-213.2 168.5,-235.2 279.5,-235.2 279.5,-213.2 168.5,-213.2"/>
<text text-anchor="start" x="171.5" y="-220.9" font-family="Helvetica,sans-Serif" font-size="11.00" fill="#000000">datetime[26]</text>
<polygon fill="none" stroke="#000000" points="10.5,-191.2 10.5,-213.2 168.5,-213.2 168.5,-191.2 10.5,-191.2"/>
<text text-anchor="start" x="30.5" y="-198.3" font-family="Helvetica,sans-Serif" font-size="11.00" fill="#000000">Remarks</text>
<polygon fill="none" stroke="#000000" points="168.5,-191.2 168.5,-213.2 279.5,-213.2 279.5,-191.2 168.5,-191.2"/>
<text text-anchor="start" x="171.1115" y="-198.9" font-family="Helvetica,sans-Serif" font-size="11.00" fill="#000000">longtext[2147483647]</text>
<polygon fill="none" stroke="#000000" points="10.5,-169.2 10.5,-191.2 168.5,-191.2 168.5,-169.2 10.5,-169.2"/>
<text text-anchor="start" x="30.5" y="-176.3" font-family="Helvetica,sans-Serif" font-size="11.00" fill="#000000">UserID</text>
<polygon fill="none" stroke="#000000" points="168.5,-169.2 168.5,-191.2 279.5,-191.2 279.5,-169.2 168.5,-169.2"/>
<text text-anchor="start" x="171.5" y="-176.9" font-family="Helvetica,sans-Serif" font-size="11.00" fill="#000000">int[10]</text>
<polygon fill="none" stroke="#000000" points="10.5,-147.2 10.5,-169.2 168.5,-169.2 168.5,-147.2 10.5,-147.2"/>
<text text-anchor="start" x="30.5" y="-154.3" font-family="Helvetica,sans-Serif" font-size="11.00" fill="#000000">Retail_ChallanItemFK</text>
<polygon fill="none" stroke="#000000" points="168.5,-147.2 168.5,-169.2 279.5,-169.2 279.5,-147.2 168.5,-147.2"/>
<text text-anchor="start" x="171.5" y="-154.9" font-family="Helvetica,sans-Serif" font-size="11.00" fill="#000000">int[10]</text>
<polygon fill="none" stroke="#000000" points="10.5,-125.2 10.5,-147.2 168.5,-147.2 168.5,-125.2 10.5,-125.2"/>
<text text-anchor="start" x="30.5" y="-132.3" font-family="Helvetica,sans-Serif" font-size="11.00" fill="#000000">Bonus_ProductFk</text>
<polygon fill="none" stroke="#000000" points="168.5,-125.2 168.5,-147.2 279.5,-147.2 279.5,-125.2 168.5,-125.2"/>
<text text-anchor="start" x="171.5" y="-132.9" font-family="Helvetica,sans-Serif" font-size="11.00" fill="#000000">int[10]</text>
<polygon fill="none" stroke="#000000" points="10.5,-103.2 10.5,-125.2 168.5,-125.2 168.5,-103.2 10.5,-103.2"/>
<text text-anchor="start" x="30.5" y="-110.3" font-family="Helvetica,sans-Serif" font-size="11.00" fill="#000000">Qty</text>
<polygon fill="none" stroke="#000000" points="168.5,-103.2 168.5,-125.2 279.5,-125.2 279.5,-103.2 168.5,-103.2"/>
<text text-anchor="start" x="171.5" y="-110.9" font-family="Helvetica,sans-Serif" font-size="11.00" fill="#000000">decimal[65,30]</text>
<polygon fill="none" stroke="#000000" points="10.5,-81.2 10.5,-103.2 168.5,-103.2 168.5,-81.2 10.5,-81.2"/>
<text text-anchor="start" x="30.5" y="-88.3" font-family="Helvetica,sans-Serif" font-size="11.00" fill="#000000">Common_UnitFK</text>
<polygon fill="none" stroke="#000000" points="168.5,-81.2 168.5,-103.2 279.5,-103.2 279.5,-81.2 168.5,-81.2"/>
<text text-anchor="start" x="171.5" y="-88.9" font-family="Helvetica,sans-Serif" font-size="11.00" fill="#000000">int[10]</text>
<polygon fill="none" stroke="#000000" points="10.5,-59.2 10.5,-81.2 168.5,-81.2 168.5,-59.2 10.5,-59.2"/>
<text text-anchor="start" x="30.5" y="-66.3" font-family="Helvetica,sans-Serif" font-size="11.00" fill="#000000">TotalValue</text>
<polygon fill="none" stroke="#000000" points="168.5,-59.2 168.5,-81.2 279.5,-81.2 279.5,-59.2 168.5,-59.2"/>
<text text-anchor="start" x="171.5" y="-66.9" font-family="Helvetica,sans-Serif" font-size="11.00" fill="#000000">decimal[65,30]</text>
<polygon fill="#ffffff" stroke="transparent" points="10.5,-40.2 10.5,-59.2 77.5,-59.2 77.5,-40.2 10.5,-40.2"/>
<polygon fill="none" stroke="#000000" points="10.5,-40.2 10.5,-59.2 77.5,-59.2 77.5,-40.2 10.5,-40.2"/>
<text text-anchor="start" x="13.5" y="-46.3" font-family="Helvetica,sans-Serif" font-size="11.00" fill="#000000">&lt; 0</text>
<polygon fill="#ffffff" stroke="transparent" points="77.5,-40.2 77.5,-59.2 168.5,-59.2 168.5,-40.2 77.5,-40.2"/>
<polygon fill="none" stroke="#000000" points="77.5,-40.2 77.5,-59.2 168.5,-59.2 168.5,-40.2 77.5,-40.2"/>
<text text-anchor="start" x="126.9956" y="-46.3" font-family="Helvetica,sans-Serif" font-size="11.00" fill="#000000">13 rows</text>
<polygon fill="#ffffff" stroke="transparent" points="168.5,-40.2 168.5,-59.2 279.5,-59.2 279.5,-40.2 168.5,-40.2"/>
<polygon fill="none" stroke="#000000" points="168.5,-40.2 168.5,-59.2 279.5,-59.2 279.5,-40.2 168.5,-40.2"/>
<text text-anchor="start" x="260.9053" y="-46.3" font-family="Helvetica,sans-Serif" font-size="11.00" fill="#000000">0 &gt;</text>
<polygon fill="none" stroke="#000000" stroke-width="2" points="9,-39.2 9,-347.2 280,-347.2 280,-39.2 9,-39.2"/>
</a>
</g>
</g>
</g>
</svg>
