<?xml version="1.0" encoding="UTF-8" standalone="no"?>
<!DOCTYPE svg PUBLIC "-//W3C//DTD SVG 1.1//EN"
 "http://www.w3.org/Graphics/SVG/1.1/DTD/svg11.dtd">
<!-- Generated by graphviz version 2.40.1 (20161225.0304)
 -->
<!-- Title: oneDegreeRelationshipsDiagram Pages: 1 -->
<svg width="372pt" height="448pt"
 viewBox="0.00 0.00 372.00 448.20" xmlns="http://www.w3.org/2000/svg" xmlns:xlink="http://www.w3.org/1999/xlink">
<g id="graph0" class="graph" transform="scale(1 1) rotate(0) translate(4 444.2)">
<title>oneDegreeRelationshipsDiagram</title>
<polygon fill="#ffffff" stroke="transparent" points="-4,4 -4,-444.2 368,-444.2 368,4 -4,4"/>
<text text-anchor="middle" x="72.4936" y="-7.3" font-family="Helvetica,sans-Serif" font-size="11.00" fill="#000000">Generated by SchemaSpy</text>
<!-- retail_vouchertransectionitem -->
<g id="node1" class="node">
<title>retail_vouchertransectionitem</title>
<g id="a_node1"><a xlink:href="../../tables/retail_vouchertransectionitem.html" xlink:title="retail_vouchertransectionitem" target="_top">
<polygon fill="#ffffff" stroke="transparent" points="8,-38.2 8,-436.2 356,-436.2 356,-38.2 8,-38.2"/>
<polygon fill="#f5f5f5" stroke="transparent" points="10,-411.2 10,-434.2 354,-434.2 354,-411.2 10,-411.2"/>
<polygon fill="none" stroke="#000000" points="10,-411.2 10,-434.2 354,-434.2 354,-411.2 10,-411.2"/>
<text text-anchor="start" x="15" y="-419.8" font-family="Helvetica,sans-Serif" font-weight="bold" font-size="11.00" fill="#000000">retail_vouchertransectionitem</text>
<text text-anchor="start" x="319.0437" y="-419.3" font-family="Helvetica,sans-Serif" font-size="11.00" fill="#000000">[table]</text>
<polygon fill="none" stroke="#000000" points="10,-389.2 10,-411.2 243,-411.2 243,-389.2 10,-389.2"/>
<image xlink:href="../../images/primaryKeys.png" width="11px" height="12px" preserveAspectRatio="xMinYMin meet" x="15" y="-406.2"/>
<text text-anchor="start" x="30" y="-396.3" font-family="Helvetica,sans-Serif" font-size="11.00" fill="#000000">ID</text>
<polygon fill="none" stroke="#000000" points="243,-389.2 243,-411.2 354,-411.2 354,-389.2 243,-389.2"/>
<text text-anchor="start" x="246" y="-396.9" font-family="Helvetica,sans-Serif" font-size="11.00" fill="#000000">int[10]</text>
<polygon fill="none" stroke="#000000" points="10,-367.2 10,-389.2 243,-389.2 243,-367.2 10,-367.2"/>
<text text-anchor="start" x="30" y="-374.3" font-family="Helvetica,sans-Serif" font-size="11.00" fill="#000000">Retail_VoucherFK</text>
<polygon fill="none" stroke="#000000" points="243,-367.2 243,-389.2 354,-389.2 354,-367.2 243,-367.2"/>
<text text-anchor="start" x="246" y="-374.9" font-family="Helvetica,sans-Serif" font-size="11.00" fill="#000000">int[10]</text>
<polygon fill="none" stroke="#000000" points="10,-345.2 10,-367.2 243,-367.2 243,-345.2 10,-345.2"/>
<text text-anchor="start" x="30" y="-352.3" font-family="Helvetica,sans-Serif" font-size="11.00" fill="#000000">Retail_VoucherTransectionFK</text>
<polygon fill="none" stroke="#000000" points="243,-345.2 243,-367.2 354,-367.2 354,-345.2 243,-345.2"/>
<text text-anchor="start" x="246" y="-352.9" font-family="Helvetica,sans-Serif" font-size="11.00" fill="#000000">int[10]</text>
<polygon fill="none" stroke="#000000" points="10,-323.2 10,-345.2 243,-345.2 243,-323.2 10,-323.2"/>
<text text-anchor="start" x="30" y="-330.3" font-family="Helvetica,sans-Serif" font-size="11.00" fill="#000000">Amount</text>
<polygon fill="none" stroke="#000000" points="243,-323.2 243,-345.2 354,-345.2 354,-323.2 243,-323.2"/>
<text text-anchor="start" x="246" y="-330.9" font-family="Helvetica,sans-Serif" font-size="11.00" fill="#000000">decimal[65,30]</text>
<polygon fill="none" stroke="#000000" points="10,-301.2 10,-323.2 243,-323.2 243,-301.2 10,-301.2"/>
<text text-anchor="start" x="30" y="-308.3" font-family="Helvetica,sans-Serif" font-size="11.00" fill="#000000">PayTypeId</text>
<polygon fill="none" stroke="#000000" points="243,-301.2 243,-323.2 354,-323.2 354,-301.2 243,-301.2"/>
<text text-anchor="start" x="246" y="-308.9" font-family="Helvetica,sans-Serif" font-size="11.00" fill="#000000">int[10]</text>
<polygon fill="none" stroke="#000000" points="10,-279.2 10,-301.2 243,-301.2 243,-279.2 10,-279.2"/>
<text text-anchor="start" x="30" y="-286.3" font-family="Helvetica,sans-Serif" font-size="11.00" fill="#000000">ReceivePaymentTypeId</text>
<polygon fill="none" stroke="#000000" points="243,-279.2 243,-301.2 354,-301.2 354,-279.2 243,-279.2"/>
<text text-anchor="start" x="246" y="-286.9" font-family="Helvetica,sans-Serif" font-size="11.00" fill="#000000">int[10]</text>
<polygon fill="none" stroke="#000000" points="10,-257.2 10,-279.2 243,-279.2 243,-257.2 10,-257.2"/>
<text text-anchor="start" x="30" y="-264.3" font-family="Helvetica,sans-Serif" font-size="11.00" fill="#000000">Active</text>
<polygon fill="none" stroke="#000000" points="243,-257.2 243,-279.2 354,-279.2 354,-257.2 243,-257.2"/>
<text text-anchor="start" x="246" y="-264.9" font-family="Helvetica,sans-Serif" font-size="11.00" fill="#000000">bit[1]</text>
<polygon fill="none" stroke="#000000" points="10,-235.2 10,-257.2 243,-257.2 243,-235.2 10,-235.2"/>
<text text-anchor="start" x="30" y="-242.3" font-family="Helvetica,sans-Serif" font-size="11.00" fill="#000000">User</text>
<polygon fill="none" stroke="#000000" points="243,-235.2 243,-257.2 354,-257.2 354,-235.2 243,-235.2"/>
<text text-anchor="start" x="245.6115" y="-242.9" font-family="Helvetica,sans-Serif" font-size="11.00" fill="#000000">longtext[2147483647]</text>
<polygon fill="none" stroke="#000000" points="10,-213.2 10,-235.2 243,-235.2 243,-213.2 10,-213.2"/>
<text text-anchor="start" x="30" y="-220.3" font-family="Helvetica,sans-Serif" font-size="11.00" fill="#000000">CD</text>
<polygon fill="none" stroke="#000000" points="243,-213.2 243,-235.2 354,-235.2 354,-213.2 243,-213.2"/>
<text text-anchor="start" x="246" y="-220.9" font-family="Helvetica,sans-Serif" font-size="11.00" fill="#000000">datetime[26]</text>
<polygon fill="none" stroke="#000000" points="10,-191.2 10,-213.2 243,-213.2 243,-191.2 10,-191.2"/>
<text text-anchor="start" x="30" y="-198.3" font-family="Helvetica,sans-Serif" font-size="11.00" fill="#000000">UD</text>
<polygon fill="none" stroke="#000000" points="243,-191.2 243,-213.2 354,-213.2 354,-191.2 243,-191.2"/>
<text text-anchor="start" x="246" y="-198.9" font-family="Helvetica,sans-Serif" font-size="11.00" fill="#000000">datetime[26]</text>
<polygon fill="none" stroke="#000000" points="10,-169.2 10,-191.2 243,-191.2 243,-169.2 10,-169.2"/>
<text text-anchor="start" x="30" y="-176.3" font-family="Helvetica,sans-Serif" font-size="11.00" fill="#000000">Remarks</text>
<polygon fill="none" stroke="#000000" points="243,-169.2 243,-191.2 354,-191.2 354,-169.2 243,-169.2"/>
<text text-anchor="start" x="245.6115" y="-176.9" font-family="Helvetica,sans-Serif" font-size="11.00" fill="#000000">longtext[2147483647]</text>
<polygon fill="none" stroke="#000000" points="10,-147.2 10,-169.2 243,-169.2 243,-147.2 10,-147.2"/>
<text text-anchor="start" x="30" y="-154.3" font-family="Helvetica,sans-Serif" font-size="11.00" fill="#000000">UserID</text>
<polygon fill="none" stroke="#000000" points="243,-147.2 243,-169.2 354,-169.2 354,-147.2 243,-147.2"/>
<text text-anchor="start" x="246" y="-154.9" font-family="Helvetica,sans-Serif" font-size="11.00" fill="#000000">int[10]</text>
<polygon fill="none" stroke="#000000" points="10,-125.2 10,-147.2 243,-147.2 243,-125.2 10,-125.2"/>
<text text-anchor="start" x="30" y="-132.3" font-family="Helvetica,sans-Serif" font-size="11.00" fill="#000000">Advance_Amount</text>
<polygon fill="none" stroke="#000000" points="243,-125.2 243,-147.2 354,-147.2 354,-125.2 243,-125.2"/>
<text text-anchor="start" x="246" y="-132.9" font-family="Helvetica,sans-Serif" font-size="11.00" fill="#000000">decimal[65,30]</text>
<polygon fill="none" stroke="#000000" points="10,-103.2 10,-125.2 243,-125.2 243,-103.2 10,-103.2"/>
<text text-anchor="start" x="30" y="-110.3" font-family="Helvetica,sans-Serif" font-size="11.00" fill="#000000">Common_ShopFK</text>
<polygon fill="none" stroke="#000000" points="243,-103.2 243,-125.2 354,-125.2 354,-103.2 243,-103.2"/>
<text text-anchor="start" x="246" y="-110.9" font-family="Helvetica,sans-Serif" font-size="11.00" fill="#000000">int[10]</text>
<polygon fill="none" stroke="#000000" points="10,-81.2 10,-103.2 243,-103.2 243,-81.2 10,-81.2"/>
<text text-anchor="start" x="30" y="-88.3" font-family="Helvetica,sans-Serif" font-size="11.00" fill="#000000">CompanyFK</text>
<polygon fill="none" stroke="#000000" points="243,-81.2 243,-103.2 354,-103.2 354,-81.2 243,-81.2"/>
<text text-anchor="start" x="246" y="-88.9" font-family="Helvetica,sans-Serif" font-size="11.00" fill="#000000">int[10]</text>
<polygon fill="none" stroke="#000000" points="10,-59.2 10,-81.2 243,-81.2 243,-59.2 10,-59.2"/>
<text text-anchor="start" x="30" y="-66.3" font-family="Helvetica,sans-Serif" font-size="11.00" fill="#000000">Retail_VoucherTransactionHistoryFK</text>
<polygon fill="none" stroke="#000000" points="243,-59.2 243,-81.2 354,-81.2 354,-59.2 243,-59.2"/>
<text text-anchor="start" x="246" y="-66.9" font-family="Helvetica,sans-Serif" font-size="11.00" fill="#000000">int[10]</text>
<polygon fill="#ffffff" stroke="transparent" points="10,-40.2 10,-59.2 115,-59.2 115,-40.2 10,-40.2"/>
<polygon fill="none" stroke="#000000" points="10,-40.2 10,-59.2 115,-59.2 115,-40.2 10,-40.2"/>
<text text-anchor="start" x="13" y="-46.3" font-family="Helvetica,sans-Serif" font-size="11.00" fill="#000000">&lt; 0</text>
<polygon fill="#ffffff" stroke="transparent" points="115,-40.2 115,-59.2 243,-59.2 243,-40.2 115,-40.2"/>
<polygon fill="none" stroke="#000000" points="115,-40.2 115,-59.2 243,-59.2 243,-40.2 115,-40.2"/>
<text text-anchor="start" x="201.4956" y="-46.3" font-family="Helvetica,sans-Serif" font-size="11.00" fill="#000000">51 rows</text>
<polygon fill="#ffffff" stroke="transparent" points="243,-40.2 243,-59.2 354,-59.2 354,-40.2 243,-40.2"/>
<polygon fill="none" stroke="#000000" points="243,-40.2 243,-59.2 354,-59.2 354,-40.2 243,-40.2"/>
<text text-anchor="start" x="335.4053" y="-46.3" font-family="Helvetica,sans-Serif" font-size="11.00" fill="#000000">0 &gt;</text>
<polygon fill="none" stroke="#000000" stroke-width="2" points="9,-39.2 9,-435.2 355,-435.2 355,-39.2 9,-39.2"/>
</a>
</g>
</g>
</g>
</svg>
