<?xml version="1.0" encoding="UTF-8" standalone="no"?>
<!DOCTYPE svg PUBLIC "-//W3C//DTD SVG 1.1//EN"
 "http://www.w3.org/Graphics/SVG/1.1/DTD/svg11.dtd">
<!-- Generated by graphviz version 2.40.1 (20161225.0304)
 -->
<!-- Title: oneDegreeRelationshipsDiagram Pages: 1 -->
<svg width="312pt" height="800pt"
 viewBox="0.00 0.00 312.00 800.20" xmlns="http://www.w3.org/2000/svg" xmlns:xlink="http://www.w3.org/1999/xlink">
<g id="graph0" class="graph" transform="scale(1 1) rotate(0) translate(4 796.2)">
<title>oneDegreeRelationshipsDiagram</title>
<polygon fill="#ffffff" stroke="transparent" points="-4,4 -4,-796.2 308,-796.2 308,4 -4,4"/>
<text text-anchor="middle" x="72.4936" y="-7.3" font-family="Helvetica,sans-Serif" font-size="11.00" fill="#000000">Generated by SchemaSpy</text>
<!-- salary_payrollcard -->
<g id="node1" class="node">
<title>salary_payrollcard</title>
<g id="a_node1"><a xlink:href="../../tables/salary_payrollcard.html" xlink:title="salary_payrollcard" target="_top">
<polygon fill="#ffffff" stroke="transparent" points="8,-38.2 8,-788.2 296,-788.2 296,-38.2 8,-38.2"/>
<polygon fill="#f5f5f5" stroke="transparent" points="10,-763.2 10,-786.2 294,-786.2 294,-763.2 10,-763.2"/>
<polygon fill="none" stroke="#000000" points="10,-763.2 10,-786.2 294,-786.2 294,-763.2 10,-763.2"/>
<text text-anchor="start" x="15" y="-771.8" font-family="Helvetica,sans-Serif" font-weight="bold" font-size="11.00" fill="#000000">salary_payrollcard</text>
<text text-anchor="start" x="259.0437" y="-771.3" font-family="Helvetica,sans-Serif" font-size="11.00" fill="#000000">[table]</text>
<polygon fill="none" stroke="#000000" points="10,-741.2 10,-763.2 183,-763.2 183,-741.2 10,-741.2"/>
<image xlink:href="../../images/primaryKeys.png" width="11px" height="12px" preserveAspectRatio="xMinYMin meet" x="15" y="-758.2"/>
<text text-anchor="start" x="30" y="-748.3" font-family="Helvetica,sans-Serif" font-size="11.00" fill="#000000">ID</text>
<polygon fill="none" stroke="#000000" points="183,-741.2 183,-763.2 294,-763.2 294,-741.2 183,-741.2"/>
<text text-anchor="start" x="186" y="-748.9" font-family="Helvetica,sans-Serif" font-size="11.00" fill="#000000">int[10]</text>
<polygon fill="none" stroke="#000000" points="10,-719.2 10,-741.2 183,-741.2 183,-719.2 10,-719.2"/>
<text text-anchor="start" x="30" y="-726.3" font-family="Helvetica,sans-Serif" font-size="11.00" fill="#000000">Active</text>
<polygon fill="none" stroke="#000000" points="183,-719.2 183,-741.2 294,-741.2 294,-719.2 183,-719.2"/>
<text text-anchor="start" x="186" y="-726.9" font-family="Helvetica,sans-Serif" font-size="11.00" fill="#000000">bit[1]</text>
<polygon fill="none" stroke="#000000" points="10,-697.2 10,-719.2 183,-719.2 183,-697.2 10,-697.2"/>
<text text-anchor="start" x="30" y="-704.3" font-family="Helvetica,sans-Serif" font-size="11.00" fill="#000000">User</text>
<polygon fill="none" stroke="#000000" points="183,-697.2 183,-719.2 294,-719.2 294,-697.2 183,-697.2"/>
<text text-anchor="start" x="185.6115" y="-704.9" font-family="Helvetica,sans-Serif" font-size="11.00" fill="#000000">longtext[2147483647]</text>
<polygon fill="none" stroke="#000000" points="10,-675.2 10,-697.2 183,-697.2 183,-675.2 10,-675.2"/>
<text text-anchor="start" x="30" y="-682.3" font-family="Helvetica,sans-Serif" font-size="11.00" fill="#000000">CD</text>
<polygon fill="none" stroke="#000000" points="183,-675.2 183,-697.2 294,-697.2 294,-675.2 183,-675.2"/>
<text text-anchor="start" x="186" y="-682.9" font-family="Helvetica,sans-Serif" font-size="11.00" fill="#000000">datetime[26]</text>
<polygon fill="none" stroke="#000000" points="10,-653.2 10,-675.2 183,-675.2 183,-653.2 10,-653.2"/>
<text text-anchor="start" x="30" y="-660.3" font-family="Helvetica,sans-Serif" font-size="11.00" fill="#000000">UD</text>
<polygon fill="none" stroke="#000000" points="183,-653.2 183,-675.2 294,-675.2 294,-653.2 183,-653.2"/>
<text text-anchor="start" x="186" y="-660.9" font-family="Helvetica,sans-Serif" font-size="11.00" fill="#000000">datetime[26]</text>
<polygon fill="none" stroke="#000000" points="10,-631.2 10,-653.2 183,-653.2 183,-631.2 10,-631.2"/>
<text text-anchor="start" x="30" y="-638.3" font-family="Helvetica,sans-Serif" font-size="11.00" fill="#000000">Remarks</text>
<polygon fill="none" stroke="#000000" points="183,-631.2 183,-653.2 294,-653.2 294,-631.2 183,-631.2"/>
<text text-anchor="start" x="185.6115" y="-638.9" font-family="Helvetica,sans-Serif" font-size="11.00" fill="#000000">longtext[2147483647]</text>
<polygon fill="none" stroke="#000000" points="10,-609.2 10,-631.2 183,-631.2 183,-609.2 10,-609.2"/>
<text text-anchor="start" x="30" y="-616.3" font-family="Helvetica,sans-Serif" font-size="11.00" fill="#000000">UserID</text>
<polygon fill="none" stroke="#000000" points="183,-609.2 183,-631.2 294,-631.2 294,-609.2 183,-609.2"/>
<text text-anchor="start" x="186" y="-616.9" font-family="Helvetica,sans-Serif" font-size="11.00" fill="#000000">int[10]</text>
<polygon fill="none" stroke="#000000" points="10,-587.2 10,-609.2 183,-609.2 183,-587.2 10,-587.2"/>
<text text-anchor="start" x="30" y="-594.3" font-family="Helvetica,sans-Serif" font-size="11.00" fill="#000000">Salary_PayrollFK</text>
<polygon fill="none" stroke="#000000" points="183,-587.2 183,-609.2 294,-609.2 294,-587.2 183,-587.2"/>
<text text-anchor="start" x="186" y="-594.9" font-family="Helvetica,sans-Serif" font-size="11.00" fill="#000000">int[10]</text>
<polygon fill="none" stroke="#000000" points="10,-565.2 10,-587.2 183,-587.2 183,-565.2 10,-565.2"/>
<text text-anchor="start" x="30" y="-572.3" font-family="Helvetica,sans-Serif" font-size="11.00" fill="#000000">EmployeeFK</text>
<polygon fill="none" stroke="#000000" points="183,-565.2 183,-587.2 294,-587.2 294,-565.2 183,-565.2"/>
<text text-anchor="start" x="186" y="-572.9" font-family="Helvetica,sans-Serif" font-size="11.00" fill="#000000">int[10]</text>
<polygon fill="none" stroke="#000000" points="10,-543.2 10,-565.2 183,-565.2 183,-543.2 10,-543.2"/>
<text text-anchor="start" x="30" y="-550.3" font-family="Helvetica,sans-Serif" font-size="11.00" fill="#000000">Salary_PayCardFK</text>
<polygon fill="none" stroke="#000000" points="183,-543.2 183,-565.2 294,-565.2 294,-543.2 183,-543.2"/>
<text text-anchor="start" x="186" y="-550.9" font-family="Helvetica,sans-Serif" font-size="11.00" fill="#000000">int[10]</text>
<polygon fill="none" stroke="#000000" points="10,-521.2 10,-543.2 183,-543.2 183,-521.2 10,-521.2"/>
<text text-anchor="start" x="30" y="-528.3" font-family="Helvetica,sans-Serif" font-size="11.00" fill="#000000">AdvancePaid</text>
<polygon fill="none" stroke="#000000" points="183,-521.2 183,-543.2 294,-543.2 294,-521.2 183,-521.2"/>
<text text-anchor="start" x="186" y="-528.9" font-family="Helvetica,sans-Serif" font-size="11.00" fill="#000000">decimal[18,5]</text>
<polygon fill="none" stroke="#000000" points="10,-499.2 10,-521.2 183,-521.2 183,-499.2 10,-499.2"/>
<text text-anchor="start" x="30" y="-506.3" font-family="Helvetica,sans-Serif" font-size="11.00" fill="#000000">PayableAmount</text>
<polygon fill="none" stroke="#000000" points="183,-499.2 183,-521.2 294,-521.2 294,-499.2 183,-499.2"/>
<text text-anchor="start" x="186" y="-506.9" font-family="Helvetica,sans-Serif" font-size="11.00" fill="#000000">decimal[18,5]</text>
<polygon fill="none" stroke="#000000" points="10,-477.2 10,-499.2 183,-499.2 183,-477.2 10,-477.2"/>
<text text-anchor="start" x="30" y="-484.3" font-family="Helvetica,sans-Serif" font-size="11.00" fill="#000000">AbsentDeduction</text>
<polygon fill="none" stroke="#000000" points="183,-477.2 183,-499.2 294,-499.2 294,-477.2 183,-477.2"/>
<text text-anchor="start" x="186" y="-484.9" font-family="Helvetica,sans-Serif" font-size="11.00" fill="#000000">decimal[18,5]</text>
<polygon fill="none" stroke="#000000" points="10,-455.2 10,-477.2 183,-477.2 183,-455.2 10,-455.2"/>
<text text-anchor="start" x="30" y="-462.3" font-family="Helvetica,sans-Serif" font-size="11.00" fill="#000000">AttendancePayCardFK</text>
<polygon fill="none" stroke="#000000" points="183,-455.2 183,-477.2 294,-477.2 294,-455.2 183,-455.2"/>
<text text-anchor="start" x="186" y="-462.9" font-family="Helvetica,sans-Serif" font-size="11.00" fill="#000000">int[10]</text>
<polygon fill="none" stroke="#000000" points="10,-433.2 10,-455.2 183,-455.2 183,-433.2 10,-433.2"/>
<text text-anchor="start" x="30" y="-440.3" font-family="Helvetica,sans-Serif" font-size="11.00" fill="#000000">Common_DealerFK</text>
<polygon fill="none" stroke="#000000" points="183,-433.2 183,-455.2 294,-455.2 294,-433.2 183,-433.2"/>
<text text-anchor="start" x="186" y="-440.9" font-family="Helvetica,sans-Serif" font-size="11.00" fill="#000000">int[10]</text>
<polygon fill="none" stroke="#000000" points="10,-411.2 10,-433.2 183,-433.2 183,-411.2 10,-411.2"/>
<text text-anchor="start" x="30" y="-418.3" font-family="Helvetica,sans-Serif" font-size="11.00" fill="#000000">EmployeeStatusID</text>
<polygon fill="none" stroke="#000000" points="183,-411.2 183,-433.2 294,-433.2 294,-411.2 183,-411.2"/>
<text text-anchor="start" x="186" y="-418.9" font-family="Helvetica,sans-Serif" font-size="11.00" fill="#000000">int[10]</text>
<polygon fill="none" stroke="#000000" points="10,-389.2 10,-411.2 183,-411.2 183,-389.2 10,-389.2"/>
<text text-anchor="start" x="30" y="-396.3" font-family="Helvetica,sans-Serif" font-size="11.00" fill="#000000">IsPaid</text>
<polygon fill="none" stroke="#000000" points="183,-389.2 183,-411.2 294,-411.2 294,-389.2 183,-389.2"/>
<text text-anchor="start" x="186" y="-396.9" font-family="Helvetica,sans-Serif" font-size="11.00" fill="#000000">bit[1]</text>
<polygon fill="none" stroke="#000000" points="10,-367.2 10,-389.2 183,-389.2 183,-367.2 10,-367.2"/>
<text text-anchor="start" x="30" y="-374.3" font-family="Helvetica,sans-Serif" font-size="11.00" fill="#000000">PayFromDate</text>
<polygon fill="none" stroke="#000000" points="183,-367.2 183,-389.2 294,-389.2 294,-367.2 183,-367.2"/>
<text text-anchor="start" x="186" y="-374.9" font-family="Helvetica,sans-Serif" font-size="11.00" fill="#000000">datetime[26]</text>
<polygon fill="none" stroke="#000000" points="10,-345.2 10,-367.2 183,-367.2 183,-345.2 10,-345.2"/>
<text text-anchor="start" x="30" y="-352.3" font-family="Helvetica,sans-Serif" font-size="11.00" fill="#000000">PayToDate</text>
<polygon fill="none" stroke="#000000" points="183,-345.2 183,-367.2 294,-367.2 294,-345.2 183,-345.2"/>
<text text-anchor="start" x="186" y="-352.9" font-family="Helvetica,sans-Serif" font-size="11.00" fill="#000000">datetime[26]</text>
<polygon fill="none" stroke="#000000" points="10,-323.2 10,-345.2 183,-345.2 183,-323.2 10,-323.2"/>
<text text-anchor="start" x="30" y="-330.3" font-family="Helvetica,sans-Serif" font-size="11.00" fill="#000000">StampDeduction</text>
<polygon fill="none" stroke="#000000" points="183,-323.2 183,-345.2 294,-345.2 294,-323.2 183,-323.2"/>
<text text-anchor="start" x="186" y="-330.9" font-family="Helvetica,sans-Serif" font-size="11.00" fill="#000000">decimal[18,5]</text>
<polygon fill="none" stroke="#000000" points="10,-301.2 10,-323.2 183,-323.2 183,-301.2 10,-301.2"/>
<text text-anchor="start" x="30" y="-308.3" font-family="Helvetica,sans-Serif" font-size="11.00" fill="#000000">TaxDeduction</text>
<polygon fill="none" stroke="#000000" points="183,-301.2 183,-323.2 294,-323.2 294,-301.2 183,-301.2"/>
<text text-anchor="start" x="186" y="-308.9" font-family="Helvetica,sans-Serif" font-size="11.00" fill="#000000">decimal[18,5]</text>
<polygon fill="none" stroke="#000000" points="10,-279.2 10,-301.2 183,-301.2 183,-279.2 10,-279.2"/>
<text text-anchor="start" x="30" y="-286.3" font-family="Helvetica,sans-Serif" font-size="11.00" fill="#000000">TotalBenefit</text>
<polygon fill="none" stroke="#000000" points="183,-279.2 183,-301.2 294,-301.2 294,-279.2 183,-279.2"/>
<text text-anchor="start" x="186" y="-286.9" font-family="Helvetica,sans-Serif" font-size="11.00" fill="#000000">decimal[18,5]</text>
<polygon fill="none" stroke="#000000" points="10,-257.2 10,-279.2 183,-279.2 183,-257.2 10,-257.2"/>
<text text-anchor="start" x="30" y="-264.3" font-family="Helvetica,sans-Serif" font-size="11.00" fill="#000000">TotalDays</text>
<polygon fill="none" stroke="#000000" points="183,-257.2 183,-279.2 294,-279.2 294,-257.2 183,-257.2"/>
<text text-anchor="start" x="186" y="-264.9" font-family="Helvetica,sans-Serif" font-size="11.00" fill="#000000">int[10]</text>
<polygon fill="none" stroke="#000000" points="10,-235.2 10,-257.2 183,-257.2 183,-235.2 10,-235.2"/>
<text text-anchor="start" x="30" y="-242.3" font-family="Helvetica,sans-Serif" font-size="11.00" fill="#000000">TotalDeduction</text>
<polygon fill="none" stroke="#000000" points="183,-235.2 183,-257.2 294,-257.2 294,-235.2 183,-235.2"/>
<text text-anchor="start" x="186" y="-242.9" font-family="Helvetica,sans-Serif" font-size="11.00" fill="#000000">decimal[18,5]</text>
<polygon fill="none" stroke="#000000" points="10,-213.2 10,-235.2 183,-235.2 183,-213.2 10,-213.2"/>
<text text-anchor="start" x="30" y="-220.3" font-family="Helvetica,sans-Serif" font-size="11.00" fill="#000000">TotalOTValue</text>
<polygon fill="none" stroke="#000000" points="183,-213.2 183,-235.2 294,-235.2 294,-213.2 183,-213.2"/>
<text text-anchor="start" x="186" y="-220.9" font-family="Helvetica,sans-Serif" font-size="11.00" fill="#000000">decimal[18,5]</text>
<polygon fill="none" stroke="#000000" points="10,-191.2 10,-213.2 183,-213.2 183,-191.2 10,-191.2"/>
<text text-anchor="start" x="30" y="-198.3" font-family="Helvetica,sans-Serif" font-size="11.00" fill="#000000">IsHold</text>
<polygon fill="none" stroke="#000000" points="183,-191.2 183,-213.2 294,-213.2 294,-191.2 183,-191.2"/>
<text text-anchor="start" x="186" y="-198.9" font-family="Helvetica,sans-Serif" font-size="11.00" fill="#000000">bit[1]</text>
<polygon fill="none" stroke="#000000" points="10,-169.2 10,-191.2 183,-191.2 183,-169.2 10,-169.2"/>
<text text-anchor="start" x="30" y="-176.3" font-family="Helvetica,sans-Serif" font-size="11.00" fill="#000000">IsFullPaid</text>
<polygon fill="none" stroke="#000000" points="183,-169.2 183,-191.2 294,-191.2 294,-169.2 183,-169.2"/>
<text text-anchor="start" x="186" y="-176.9" font-family="Helvetica,sans-Serif" font-size="11.00" fill="#000000">bit[1]</text>
<polygon fill="none" stroke="#000000" points="10,-147.2 10,-169.2 183,-169.2 183,-147.2 10,-147.2"/>
<text text-anchor="start" x="30" y="-154.3" font-family="Helvetica,sans-Serif" font-size="11.00" fill="#000000">PaidAmount</text>
<polygon fill="none" stroke="#000000" points="183,-147.2 183,-169.2 294,-169.2 294,-147.2 183,-147.2"/>
<text text-anchor="start" x="186" y="-154.9" font-family="Helvetica,sans-Serif" font-size="11.00" fill="#000000">decimal[18,5]</text>
<polygon fill="none" stroke="#000000" points="10,-125.2 10,-147.2 183,-147.2 183,-125.2 10,-125.2"/>
<text text-anchor="start" x="30" y="-132.3" font-family="Helvetica,sans-Serif" font-size="11.00" fill="#000000">IsAdjusted</text>
<polygon fill="none" stroke="#000000" points="183,-125.2 183,-147.2 294,-147.2 294,-125.2 183,-125.2"/>
<text text-anchor="start" x="186" y="-132.9" font-family="Helvetica,sans-Serif" font-size="11.00" fill="#000000">bit[1]</text>
<polygon fill="none" stroke="#000000" points="10,-103.2 10,-125.2 183,-125.2 183,-103.2 10,-103.2"/>
<text text-anchor="start" x="30" y="-110.3" font-family="Helvetica,sans-Serif" font-size="11.00" fill="#000000">Salary_AdjustEmployeeFK</text>
<polygon fill="none" stroke="#000000" points="183,-103.2 183,-125.2 294,-125.2 294,-103.2 183,-103.2"/>
<text text-anchor="start" x="186" y="-110.9" font-family="Helvetica,sans-Serif" font-size="11.00" fill="#000000">int[10]</text>
<polygon fill="none" stroke="#000000" points="10,-81.2 10,-103.2 183,-103.2 183,-81.2 10,-81.2"/>
<text text-anchor="start" x="30" y="-88.3" font-family="Helvetica,sans-Serif" font-size="11.00" fill="#000000">DisburseAccountFK</text>
<polygon fill="none" stroke="#000000" points="183,-81.2 183,-103.2 294,-103.2 294,-81.2 183,-81.2"/>
<text text-anchor="start" x="186" y="-88.9" font-family="Helvetica,sans-Serif" font-size="11.00" fill="#000000">int[10]</text>
<polygon fill="none" stroke="#000000" points="10,-59.2 10,-81.2 183,-81.2 183,-59.2 10,-59.2"/>
<text text-anchor="start" x="30" y="-66.3" font-family="Helvetica,sans-Serif" font-size="11.00" fill="#000000">PaymentTypeID</text>
<polygon fill="none" stroke="#000000" points="183,-59.2 183,-81.2 294,-81.2 294,-59.2 183,-59.2"/>
<text text-anchor="start" x="186" y="-66.9" font-family="Helvetica,sans-Serif" font-size="11.00" fill="#000000">int[10]</text>
<polygon fill="#ffffff" stroke="transparent" points="10,-40.2 10,-59.2 88,-59.2 88,-40.2 10,-40.2"/>
<polygon fill="none" stroke="#000000" points="10,-40.2 10,-59.2 88,-59.2 88,-40.2 10,-40.2"/>
<text text-anchor="start" x="13" y="-46.3" font-family="Helvetica,sans-Serif" font-size="11.00" fill="#000000">&lt; 0</text>
<polygon fill="#ffffff" stroke="transparent" points="88,-40.2 88,-59.2 183,-59.2 183,-40.2 88,-40.2"/>
<polygon fill="none" stroke="#000000" points="88,-40.2 88,-59.2 183,-59.2 183,-40.2 88,-40.2"/>
<text text-anchor="start" x="147.6105" y="-46.3" font-family="Helvetica,sans-Serif" font-size="11.00" fill="#000000">7 rows</text>
<polygon fill="#ffffff" stroke="transparent" points="183,-40.2 183,-59.2 294,-59.2 294,-40.2 183,-40.2"/>
<polygon fill="none" stroke="#000000" points="183,-40.2 183,-59.2 294,-59.2 294,-40.2 183,-40.2"/>
<text text-anchor="start" x="275.4053" y="-46.3" font-family="Helvetica,sans-Serif" font-size="11.00" fill="#000000">0 &gt;</text>
<polygon fill="none" stroke="#000000" stroke-width="2" points="9,-39.2 9,-787.2 295,-787.2 295,-39.2 9,-39.2"/>
</a>
</g>
</g>
</g>
</svg>
