<?xml version="1.0" encoding="UTF-8" standalone="no"?>
<!DOCTYPE svg PUBLIC "-//W3C//DTD SVG 1.1//EN"
 "http://www.w3.org/Graphics/SVG/1.1/DTD/svg11.dtd">
<!-- Generated by graphviz version 2.40.1 (20161225.0304)
 -->
<!-- Title: oneDegreeRelationshipsDiagram Pages: 1 -->
<svg width="281pt" height="646pt"
 viewBox="0.00 0.00 281.00 646.20" xmlns="http://www.w3.org/2000/svg" xmlns:xlink="http://www.w3.org/1999/xlink">
<g id="graph0" class="graph" transform="scale(1 1) rotate(0) translate(4 642.2)">
<title>oneDegreeRelationshipsDiagram</title>
<polygon fill="#ffffff" stroke="transparent" points="-4,4 -4,-642.2 277,-642.2 277,4 -4,4"/>
<text text-anchor="middle" x="72.4936" y="-7.3" font-family="Helvetica,sans-Serif" font-size="11.00" fill="#000000">Generated by SchemaSpy</text>
<!-- salary_paycard -->
<g id="node1" class="node">
<title>salary_paycard</title>
<g id="a_node1"><a xlink:href="../../tables/salary_paycard.html" xlink:title="salary_paycard" target="_top">
<polygon fill="#ffffff" stroke="transparent" points="8,-38.2 8,-634.2 265,-634.2 265,-38.2 8,-38.2"/>
<polygon fill="#f5f5f5" stroke="transparent" points="10.5,-609.2 10.5,-632.2 263.5,-632.2 263.5,-609.2 10.5,-609.2"/>
<polygon fill="none" stroke="#000000" points="10.5,-609.2 10.5,-632.2 263.5,-632.2 263.5,-609.2 10.5,-609.2"/>
<text text-anchor="start" x="15.5" y="-617.8" font-family="Helvetica,sans-Serif" font-weight="bold" font-size="11.00" fill="#000000">salary_paycard</text>
<text text-anchor="start" x="228.5437" y="-617.3" font-family="Helvetica,sans-Serif" font-size="11.00" fill="#000000">[table]</text>
<polygon fill="none" stroke="#000000" points="10.5,-587.2 10.5,-609.2 152.5,-609.2 152.5,-587.2 10.5,-587.2"/>
<image xlink:href="../../images/primaryKeys.png" width="11px" height="12px" preserveAspectRatio="xMinYMin meet" x="15.5" y="-604.2"/>
<text text-anchor="start" x="30.5" y="-594.3" font-family="Helvetica,sans-Serif" font-size="11.00" fill="#000000">ID</text>
<polygon fill="none" stroke="#000000" points="152.5,-587.2 152.5,-609.2 263.5,-609.2 263.5,-587.2 152.5,-587.2"/>
<text text-anchor="start" x="155.5" y="-594.9" font-family="Helvetica,sans-Serif" font-size="11.00" fill="#000000">int[10]</text>
<polygon fill="none" stroke="#000000" points="10.5,-565.2 10.5,-587.2 152.5,-587.2 152.5,-565.2 10.5,-565.2"/>
<text text-anchor="start" x="30.5" y="-572.3" font-family="Helvetica,sans-Serif" font-size="11.00" fill="#000000">Active</text>
<polygon fill="none" stroke="#000000" points="152.5,-565.2 152.5,-587.2 263.5,-587.2 263.5,-565.2 152.5,-565.2"/>
<text text-anchor="start" x="155.5" y="-572.9" font-family="Helvetica,sans-Serif" font-size="11.00" fill="#000000">bit[1]</text>
<polygon fill="none" stroke="#000000" points="10.5,-543.2 10.5,-565.2 152.5,-565.2 152.5,-543.2 10.5,-543.2"/>
<text text-anchor="start" x="30.5" y="-550.3" font-family="Helvetica,sans-Serif" font-size="11.00" fill="#000000">User</text>
<polygon fill="none" stroke="#000000" points="152.5,-543.2 152.5,-565.2 263.5,-565.2 263.5,-543.2 152.5,-543.2"/>
<text text-anchor="start" x="155.1115" y="-550.9" font-family="Helvetica,sans-Serif" font-size="11.00" fill="#000000">longtext[2147483647]</text>
<polygon fill="none" stroke="#000000" points="10.5,-521.2 10.5,-543.2 152.5,-543.2 152.5,-521.2 10.5,-521.2"/>
<text text-anchor="start" x="30.5" y="-528.3" font-family="Helvetica,sans-Serif" font-size="11.00" fill="#000000">CD</text>
<polygon fill="none" stroke="#000000" points="152.5,-521.2 152.5,-543.2 263.5,-543.2 263.5,-521.2 152.5,-521.2"/>
<text text-anchor="start" x="155.5" y="-528.9" font-family="Helvetica,sans-Serif" font-size="11.00" fill="#000000">datetime[26]</text>
<polygon fill="none" stroke="#000000" points="10.5,-499.2 10.5,-521.2 152.5,-521.2 152.5,-499.2 10.5,-499.2"/>
<text text-anchor="start" x="30.5" y="-506.3" font-family="Helvetica,sans-Serif" font-size="11.00" fill="#000000">UD</text>
<polygon fill="none" stroke="#000000" points="152.5,-499.2 152.5,-521.2 263.5,-521.2 263.5,-499.2 152.5,-499.2"/>
<text text-anchor="start" x="155.5" y="-506.9" font-family="Helvetica,sans-Serif" font-size="11.00" fill="#000000">datetime[26]</text>
<polygon fill="none" stroke="#000000" points="10.5,-477.2 10.5,-499.2 152.5,-499.2 152.5,-477.2 10.5,-477.2"/>
<text text-anchor="start" x="30.5" y="-484.3" font-family="Helvetica,sans-Serif" font-size="11.00" fill="#000000">Remarks</text>
<polygon fill="none" stroke="#000000" points="152.5,-477.2 152.5,-499.2 263.5,-499.2 263.5,-477.2 152.5,-477.2"/>
<text text-anchor="start" x="155.1115" y="-484.9" font-family="Helvetica,sans-Serif" font-size="11.00" fill="#000000">longtext[2147483647]</text>
<polygon fill="none" stroke="#000000" points="10.5,-455.2 10.5,-477.2 152.5,-477.2 152.5,-455.2 10.5,-455.2"/>
<text text-anchor="start" x="30.5" y="-462.3" font-family="Helvetica,sans-Serif" font-size="11.00" fill="#000000">UserID</text>
<polygon fill="none" stroke="#000000" points="152.5,-455.2 152.5,-477.2 263.5,-477.2 263.5,-455.2 152.5,-455.2"/>
<text text-anchor="start" x="155.5" y="-462.9" font-family="Helvetica,sans-Serif" font-size="11.00" fill="#000000">int[10]</text>
<polygon fill="none" stroke="#000000" points="10.5,-433.2 10.5,-455.2 152.5,-455.2 152.5,-433.2 10.5,-433.2"/>
<text text-anchor="start" x="30.5" y="-440.3" font-family="Helvetica,sans-Serif" font-size="11.00" fill="#000000">EmployeeFK</text>
<polygon fill="none" stroke="#000000" points="152.5,-433.2 152.5,-455.2 263.5,-455.2 263.5,-433.2 152.5,-433.2"/>
<text text-anchor="start" x="155.5" y="-440.9" font-family="Helvetica,sans-Serif" font-size="11.00" fill="#000000">int[10]</text>
<polygon fill="none" stroke="#000000" points="10.5,-411.2 10.5,-433.2 152.5,-433.2 152.5,-411.2 10.5,-411.2"/>
<text text-anchor="start" x="30.5" y="-418.3" font-family="Helvetica,sans-Serif" font-size="11.00" fill="#000000">Common_DealerFK</text>
<polygon fill="none" stroke="#000000" points="152.5,-411.2 152.5,-433.2 263.5,-433.2 263.5,-411.2 152.5,-411.2"/>
<text text-anchor="start" x="155.5" y="-418.9" font-family="Helvetica,sans-Serif" font-size="11.00" fill="#000000">int[10]</text>
<polygon fill="none" stroke="#000000" points="10.5,-389.2 10.5,-411.2 152.5,-411.2 152.5,-389.2 10.5,-389.2"/>
<text text-anchor="start" x="30.5" y="-396.3" font-family="Helvetica,sans-Serif" font-size="11.00" fill="#000000">IsConsolidated</text>
<polygon fill="none" stroke="#000000" points="152.5,-389.2 152.5,-411.2 263.5,-411.2 263.5,-389.2 152.5,-389.2"/>
<text text-anchor="start" x="155.5" y="-396.9" font-family="Helvetica,sans-Serif" font-size="11.00" fill="#000000">bit[1]</text>
<polygon fill="none" stroke="#000000" points="10.5,-367.2 10.5,-389.2 152.5,-389.2 152.5,-367.2 10.5,-367.2"/>
<text text-anchor="start" x="30.5" y="-374.3" font-family="Helvetica,sans-Serif" font-size="11.00" fill="#000000">BasicPay</text>
<polygon fill="none" stroke="#000000" points="152.5,-367.2 152.5,-389.2 263.5,-389.2 263.5,-367.2 152.5,-367.2"/>
<text text-anchor="start" x="155.5" y="-374.9" font-family="Helvetica,sans-Serif" font-size="11.00" fill="#000000">decimal[18,5]</text>
<polygon fill="none" stroke="#000000" points="10.5,-345.2 10.5,-367.2 152.5,-367.2 152.5,-345.2 10.5,-345.2"/>
<text text-anchor="start" x="30.5" y="-352.3" font-family="Helvetica,sans-Serif" font-size="11.00" fill="#000000">HouseAllowance</text>
<polygon fill="none" stroke="#000000" points="152.5,-345.2 152.5,-367.2 263.5,-367.2 263.5,-345.2 152.5,-345.2"/>
<text text-anchor="start" x="155.5" y="-352.9" font-family="Helvetica,sans-Serif" font-size="11.00" fill="#000000">decimal[18,5]</text>
<polygon fill="none" stroke="#000000" points="10.5,-323.2 10.5,-345.2 152.5,-345.2 152.5,-323.2 10.5,-323.2"/>
<text text-anchor="start" x="30.5" y="-330.3" font-family="Helvetica,sans-Serif" font-size="11.00" fill="#000000">OtherAllowence</text>
<polygon fill="none" stroke="#000000" points="152.5,-323.2 152.5,-345.2 263.5,-345.2 263.5,-323.2 152.5,-323.2"/>
<text text-anchor="start" x="155.5" y="-330.9" font-family="Helvetica,sans-Serif" font-size="11.00" fill="#000000">decimal[18,5]</text>
<polygon fill="none" stroke="#000000" points="10.5,-301.2 10.5,-323.2 152.5,-323.2 152.5,-301.2 10.5,-301.2"/>
<text text-anchor="start" x="30.5" y="-308.3" font-family="Helvetica,sans-Serif" font-size="11.00" fill="#000000">GrossPay</text>
<polygon fill="none" stroke="#000000" points="152.5,-301.2 152.5,-323.2 263.5,-323.2 263.5,-301.2 152.5,-301.2"/>
<text text-anchor="start" x="155.5" y="-308.9" font-family="Helvetica,sans-Serif" font-size="11.00" fill="#000000">decimal[18,5]</text>
<polygon fill="none" stroke="#000000" points="10.5,-279.2 10.5,-301.2 152.5,-301.2 152.5,-279.2 10.5,-279.2"/>
<text text-anchor="start" x="30.5" y="-286.3" font-family="Helvetica,sans-Serif" font-size="11.00" fill="#000000">BonusAmount</text>
<polygon fill="none" stroke="#000000" points="152.5,-279.2 152.5,-301.2 263.5,-301.2 263.5,-279.2 152.5,-279.2"/>
<text text-anchor="start" x="155.5" y="-286.9" font-family="Helvetica,sans-Serif" font-size="11.00" fill="#000000">decimal[18,5]</text>
<polygon fill="none" stroke="#000000" points="10.5,-257.2 10.5,-279.2 152.5,-279.2 152.5,-257.2 10.5,-257.2"/>
<text text-anchor="start" x="30.5" y="-264.3" font-family="Helvetica,sans-Serif" font-size="11.00" fill="#000000">TaxAmount</text>
<polygon fill="none" stroke="#000000" points="152.5,-257.2 152.5,-279.2 263.5,-279.2 263.5,-257.2 152.5,-257.2"/>
<text text-anchor="start" x="155.5" y="-264.9" font-family="Helvetica,sans-Serif" font-size="11.00" fill="#000000">decimal[18,5]</text>
<polygon fill="none" stroke="#000000" points="10.5,-235.2 10.5,-257.2 152.5,-257.2 152.5,-235.2 10.5,-235.2"/>
<text text-anchor="start" x="30.5" y="-242.3" font-family="Helvetica,sans-Serif" font-size="11.00" fill="#000000">PayableAmount</text>
<polygon fill="none" stroke="#000000" points="152.5,-235.2 152.5,-257.2 263.5,-257.2 263.5,-235.2 152.5,-235.2"/>
<text text-anchor="start" x="155.5" y="-242.9" font-family="Helvetica,sans-Serif" font-size="11.00" fill="#000000">decimal[18,5]</text>
<polygon fill="none" stroke="#000000" points="10.5,-213.2 10.5,-235.2 152.5,-235.2 152.5,-213.2 10.5,-213.2"/>
<text text-anchor="start" x="30.5" y="-220.3" font-family="Helvetica,sans-Serif" font-size="11.00" fill="#000000">GrossPerDayAmount</text>
<polygon fill="none" stroke="#000000" points="152.5,-213.2 152.5,-235.2 263.5,-235.2 263.5,-213.2 152.5,-213.2"/>
<text text-anchor="start" x="155.5" y="-220.9" font-family="Helvetica,sans-Serif" font-size="11.00" fill="#000000">decimal[18,5]</text>
<polygon fill="none" stroke="#000000" points="10.5,-191.2 10.5,-213.2 152.5,-213.2 152.5,-191.2 10.5,-191.2"/>
<text text-anchor="start" x="30.5" y="-198.3" font-family="Helvetica,sans-Serif" font-size="11.00" fill="#000000">BasicPerDayAmount</text>
<polygon fill="none" stroke="#000000" points="152.5,-191.2 152.5,-213.2 263.5,-213.2 263.5,-191.2 152.5,-191.2"/>
<text text-anchor="start" x="155.5" y="-198.9" font-family="Helvetica,sans-Serif" font-size="11.00" fill="#000000">decimal[18,5]</text>
<polygon fill="none" stroke="#000000" points="10.5,-169.2 10.5,-191.2 152.5,-191.2 152.5,-169.2 10.5,-169.2"/>
<text text-anchor="start" x="30.5" y="-176.3" font-family="Helvetica,sans-Serif" font-size="11.00" fill="#000000">EffectDate</text>
<polygon fill="none" stroke="#000000" points="152.5,-169.2 152.5,-191.2 263.5,-191.2 263.5,-169.2 152.5,-169.2"/>
<text text-anchor="start" x="155.5" y="-176.9" font-family="Helvetica,sans-Serif" font-size="11.00" fill="#000000">datetime[26]</text>
<polygon fill="none" stroke="#000000" points="10.5,-147.2 10.5,-169.2 152.5,-169.2 152.5,-147.2 10.5,-147.2"/>
<text text-anchor="start" x="30.5" y="-154.3" font-family="Helvetica,sans-Serif" font-size="11.00" fill="#000000">ExpairDate</text>
<polygon fill="none" stroke="#000000" points="152.5,-147.2 152.5,-169.2 263.5,-169.2 263.5,-147.2 152.5,-147.2"/>
<text text-anchor="start" x="155.5" y="-154.9" font-family="Helvetica,sans-Serif" font-size="11.00" fill="#000000">datetime[26]</text>
<polygon fill="none" stroke="#000000" points="10.5,-125.2 10.5,-147.2 152.5,-147.2 152.5,-125.2 10.5,-125.2"/>
<text text-anchor="start" x="30.5" y="-132.3" font-family="Helvetica,sans-Serif" font-size="11.00" fill="#000000">IsExpaired</text>
<polygon fill="none" stroke="#000000" points="152.5,-125.2 152.5,-147.2 263.5,-147.2 263.5,-125.2 152.5,-125.2"/>
<text text-anchor="start" x="155.5" y="-132.9" font-family="Helvetica,sans-Serif" font-size="11.00" fill="#000000">bit[1]</text>
<polygon fill="none" stroke="#000000" points="10.5,-103.2 10.5,-125.2 152.5,-125.2 152.5,-103.2 10.5,-103.2"/>
<text text-anchor="start" x="30.5" y="-110.3" font-family="Helvetica,sans-Serif" font-size="11.00" fill="#000000">Salary_PayCardFK</text>
<polygon fill="none" stroke="#000000" points="152.5,-103.2 152.5,-125.2 263.5,-125.2 263.5,-103.2 152.5,-103.2"/>
<text text-anchor="start" x="155.5" y="-110.9" font-family="Helvetica,sans-Serif" font-size="11.00" fill="#000000">int[10]</text>
<polygon fill="none" stroke="#000000" points="10.5,-81.2 10.5,-103.2 152.5,-103.2 152.5,-81.2 10.5,-81.2"/>
<text text-anchor="start" x="30.5" y="-88.3" font-family="Helvetica,sans-Serif" font-size="11.00" fill="#000000">Emp_TINFK</text>
<polygon fill="none" stroke="#000000" points="152.5,-81.2 152.5,-103.2 263.5,-103.2 263.5,-81.2 152.5,-81.2"/>
<text text-anchor="start" x="155.5" y="-88.9" font-family="Helvetica,sans-Serif" font-size="11.00" fill="#000000">int[10]</text>
<polygon fill="none" stroke="#000000" points="10.5,-59.2 10.5,-81.2 152.5,-81.2 152.5,-59.2 10.5,-59.2"/>
<text text-anchor="start" x="30.5" y="-66.3" font-family="Helvetica,sans-Serif" font-size="11.00" fill="#000000">TaxReduceAmount</text>
<polygon fill="none" stroke="#000000" points="152.5,-59.2 152.5,-81.2 263.5,-81.2 263.5,-59.2 152.5,-59.2"/>
<text text-anchor="start" x="155.5" y="-66.9" font-family="Helvetica,sans-Serif" font-size="11.00" fill="#000000">decimal[18,5]</text>
<polygon fill="#ffffff" stroke="transparent" points="10.5,-40.2 10.5,-59.2 69.5,-59.2 69.5,-40.2 10.5,-40.2"/>
<polygon fill="none" stroke="#000000" points="10.5,-40.2 10.5,-59.2 69.5,-59.2 69.5,-40.2 10.5,-40.2"/>
<text text-anchor="start" x="13.5" y="-46.3" font-family="Helvetica,sans-Serif" font-size="11.00" fill="#000000">&lt; 0</text>
<polygon fill="#ffffff" stroke="transparent" points="69.5,-40.2 69.5,-59.2 152.5,-59.2 152.5,-40.2 69.5,-40.2"/>
<polygon fill="none" stroke="#000000" points="69.5,-40.2 69.5,-59.2 152.5,-59.2 152.5,-40.2 69.5,-40.2"/>
<text text-anchor="start" x="110.9956" y="-46.3" font-family="Helvetica,sans-Serif" font-size="11.00" fill="#000000">69 rows</text>
<polygon fill="#ffffff" stroke="transparent" points="152.5,-40.2 152.5,-59.2 263.5,-59.2 263.5,-40.2 152.5,-40.2"/>
<polygon fill="none" stroke="#000000" points="152.5,-40.2 152.5,-59.2 263.5,-59.2 263.5,-40.2 152.5,-40.2"/>
<text text-anchor="start" x="244.9053" y="-46.3" font-family="Helvetica,sans-Serif" font-size="11.00" fill="#000000">0 &gt;</text>
<polygon fill="none" stroke="#000000" stroke-width="2" points="9,-39.2 9,-633.2 264,-633.2 264,-39.2 9,-39.2"/>
</a>
</g>
</g>
</g>
</svg>
