<?xml version="1.0" encoding="UTF-8" standalone="no"?>
<!DOCTYPE svg PUBLIC "-//W3C//DTD SVG 1.1//EN"
 "http://www.w3.org/Graphics/SVG/1.1/DTD/svg11.dtd">
<!-- Generated by graphviz version 2.40.1 (20161225.0304)
 -->
<!-- Title: oneDegreeRelationshipsDiagram Pages: 1 -->
<svg width="240pt" height="382pt"
 viewBox="0.00 0.00 240.00 382.20" xmlns="http://www.w3.org/2000/svg" xmlns:xlink="http://www.w3.org/1999/xlink">
<g id="graph0" class="graph" transform="scale(1 1) rotate(0) translate(4 378.2)">
<title>oneDegreeRelationshipsDiagram</title>
<polygon fill="#ffffff" stroke="transparent" points="-4,4 -4,-378.2 236,-378.2 236,4 -4,4"/>
<text text-anchor="middle" x="72.4936" y="-7.3" font-family="Helvetica,sans-Serif" font-size="11.00" fill="#000000">Generated by SchemaSpy</text>
<!-- store_transfer -->
<g id="node1" class="node">
<title>store_transfer</title>
<g id="a_node1"><a xlink:href="../../tables/store_transfer.html" xlink:title="store_transfer" target="_top">
<polygon fill="#ffffff" stroke="transparent" points="8,-38.2 8,-370.2 224,-370.2 224,-38.2 8,-38.2"/>
<polygon fill="#f5f5f5" stroke="transparent" points="10,-345.2 10,-368.2 222,-368.2 222,-345.2 10,-345.2"/>
<polygon fill="none" stroke="#000000" points="10,-345.2 10,-368.2 222,-368.2 222,-345.2 10,-345.2"/>
<text text-anchor="start" x="15" y="-353.8" font-family="Helvetica,sans-Serif" font-weight="bold" font-size="11.00" fill="#000000">store_transfer</text>
<text text-anchor="start" x="187.0437" y="-353.3" font-family="Helvetica,sans-Serif" font-size="11.00" fill="#000000">[table]</text>
<polygon fill="none" stroke="#000000" points="10,-323.2 10,-345.2 111,-345.2 111,-323.2 10,-323.2"/>
<image xlink:href="../../images/primaryKeys.png" width="11px" height="12px" preserveAspectRatio="xMinYMin meet" x="15" y="-340.2"/>
<text text-anchor="start" x="30" y="-330.3" font-family="Helvetica,sans-Serif" font-size="11.00" fill="#000000">ID</text>
<polygon fill="none" stroke="#000000" points="111,-323.2 111,-345.2 222,-345.2 222,-323.2 111,-323.2"/>
<text text-anchor="start" x="114" y="-330.9" font-family="Helvetica,sans-Serif" font-size="11.00" fill="#000000">int[10]</text>
<polygon fill="none" stroke="#000000" points="10,-301.2 10,-323.2 111,-323.2 111,-301.2 10,-301.2"/>
<text text-anchor="start" x="30" y="-308.3" font-family="Helvetica,sans-Serif" font-size="11.00" fill="#000000">Active</text>
<polygon fill="none" stroke="#000000" points="111,-301.2 111,-323.2 222,-323.2 222,-301.2 111,-301.2"/>
<text text-anchor="start" x="114" y="-308.9" font-family="Helvetica,sans-Serif" font-size="11.00" fill="#000000">bit[1]</text>
<polygon fill="none" stroke="#000000" points="10,-279.2 10,-301.2 111,-301.2 111,-279.2 10,-279.2"/>
<text text-anchor="start" x="30" y="-286.3" font-family="Helvetica,sans-Serif" font-size="11.00" fill="#000000">User</text>
<polygon fill="none" stroke="#000000" points="111,-279.2 111,-301.2 222,-301.2 222,-279.2 111,-279.2"/>
<text text-anchor="start" x="113.6115" y="-286.9" font-family="Helvetica,sans-Serif" font-size="11.00" fill="#000000">longtext[2147483647]</text>
<polygon fill="none" stroke="#000000" points="10,-257.2 10,-279.2 111,-279.2 111,-257.2 10,-257.2"/>
<text text-anchor="start" x="30" y="-264.3" font-family="Helvetica,sans-Serif" font-size="11.00" fill="#000000">CD</text>
<polygon fill="none" stroke="#000000" points="111,-257.2 111,-279.2 222,-279.2 222,-257.2 111,-257.2"/>
<text text-anchor="start" x="114" y="-264.9" font-family="Helvetica,sans-Serif" font-size="11.00" fill="#000000">datetime[26]</text>
<polygon fill="none" stroke="#000000" points="10,-235.2 10,-257.2 111,-257.2 111,-235.2 10,-235.2"/>
<text text-anchor="start" x="30" y="-242.3" font-family="Helvetica,sans-Serif" font-size="11.00" fill="#000000">UD</text>
<polygon fill="none" stroke="#000000" points="111,-235.2 111,-257.2 222,-257.2 222,-235.2 111,-235.2"/>
<text text-anchor="start" x="114" y="-242.9" font-family="Helvetica,sans-Serif" font-size="11.00" fill="#000000">datetime[26]</text>
<polygon fill="none" stroke="#000000" points="10,-213.2 10,-235.2 111,-235.2 111,-213.2 10,-213.2"/>
<text text-anchor="start" x="30" y="-220.3" font-family="Helvetica,sans-Serif" font-size="11.00" fill="#000000">Remarks</text>
<polygon fill="none" stroke="#000000" points="111,-213.2 111,-235.2 222,-235.2 222,-213.2 111,-213.2"/>
<text text-anchor="start" x="113.6115" y="-220.9" font-family="Helvetica,sans-Serif" font-size="11.00" fill="#000000">longtext[2147483647]</text>
<polygon fill="none" stroke="#000000" points="10,-191.2 10,-213.2 111,-213.2 111,-191.2 10,-191.2"/>
<text text-anchor="start" x="30" y="-198.3" font-family="Helvetica,sans-Serif" font-size="11.00" fill="#000000">UserID</text>
<polygon fill="none" stroke="#000000" points="111,-191.2 111,-213.2 222,-213.2 222,-191.2 111,-191.2"/>
<text text-anchor="start" x="114" y="-198.9" font-family="Helvetica,sans-Serif" font-size="11.00" fill="#000000">int[10]</text>
<polygon fill="none" stroke="#000000" points="10,-169.2 10,-191.2 111,-191.2 111,-169.2 10,-169.2"/>
<text text-anchor="start" x="30" y="-176.3" font-family="Helvetica,sans-Serif" font-size="11.00" fill="#000000">TransferDate</text>
<polygon fill="none" stroke="#000000" points="111,-169.2 111,-191.2 222,-191.2 222,-169.2 111,-169.2"/>
<text text-anchor="start" x="114" y="-176.9" font-family="Helvetica,sans-Serif" font-size="11.00" fill="#000000">datetime[26]</text>
<polygon fill="none" stroke="#000000" points="10,-147.2 10,-169.2 111,-169.2 111,-147.2 10,-147.2"/>
<text text-anchor="start" x="30" y="-154.3" font-family="Helvetica,sans-Serif" font-size="11.00" fill="#000000">CID</text>
<polygon fill="none" stroke="#000000" points="111,-147.2 111,-169.2 222,-169.2 222,-147.2 111,-147.2"/>
<text text-anchor="start" x="114" y="-154.9" font-family="Helvetica,sans-Serif" font-size="11.00" fill="#000000">varchar[50]</text>
<polygon fill="none" stroke="#000000" points="10,-125.2 10,-147.2 111,-147.2 111,-125.2 10,-125.2"/>
<text text-anchor="start" x="30" y="-132.3" font-family="Helvetica,sans-Serif" font-size="11.00" fill="#000000">StatusID</text>
<polygon fill="none" stroke="#000000" points="111,-125.2 111,-147.2 222,-147.2 222,-125.2 111,-125.2"/>
<text text-anchor="start" x="114" y="-132.9" font-family="Helvetica,sans-Serif" font-size="11.00" fill="#000000">int[10]</text>
<polygon fill="none" stroke="#000000" points="10,-103.2 10,-125.2 111,-125.2 111,-103.2 10,-103.2"/>
<text text-anchor="start" x="30" y="-110.3" font-family="Helvetica,sans-Serif" font-size="11.00" fill="#000000">ItemQty</text>
<polygon fill="none" stroke="#000000" points="111,-103.2 111,-125.2 222,-125.2 222,-103.2 111,-103.2"/>
<text text-anchor="start" x="114" y="-110.9" font-family="Helvetica,sans-Serif" font-size="11.00" fill="#000000">int[10]</text>
<polygon fill="none" stroke="#000000" points="10,-81.2 10,-103.2 111,-103.2 111,-81.2 10,-81.2"/>
<text text-anchor="start" x="30" y="-88.3" font-family="Helvetica,sans-Serif" font-size="11.00" fill="#000000">TransferValue</text>
<polygon fill="none" stroke="#000000" points="111,-81.2 111,-103.2 222,-103.2 222,-81.2 111,-81.2"/>
<text text-anchor="start" x="114" y="-88.9" font-family="Helvetica,sans-Serif" font-size="11.00" fill="#000000">decimal[18,5]</text>
<polygon fill="none" stroke="#000000" points="10,-59.2 10,-81.2 111,-81.2 111,-59.2 10,-59.2"/>
<text text-anchor="start" x="30" y="-66.3" font-family="Helvetica,sans-Serif" font-size="11.00" fill="#000000">CompanyFK</text>
<polygon fill="none" stroke="#000000" points="111,-59.2 111,-81.2 222,-81.2 222,-59.2 111,-59.2"/>
<text text-anchor="start" x="114" y="-66.9" font-family="Helvetica,sans-Serif" font-size="11.00" fill="#000000">int[10]</text>
<polygon fill="#ffffff" stroke="transparent" points="10,-40.2 10,-59.2 49,-59.2 49,-40.2 10,-40.2"/>
<polygon fill="none" stroke="#000000" points="10,-40.2 10,-59.2 49,-59.2 49,-40.2 10,-40.2"/>
<text text-anchor="start" x="13" y="-46.3" font-family="Helvetica,sans-Serif" font-size="11.00" fill="#000000">&lt; 0</text>
<polygon fill="#ffffff" stroke="transparent" points="49,-40.2 49,-59.2 111,-59.2 111,-40.2 49,-40.2"/>
<polygon fill="none" stroke="#000000" points="49,-40.2 49,-59.2 111,-59.2 111,-40.2 49,-40.2"/>
<text text-anchor="start" x="69.4956" y="-46.3" font-family="Helvetica,sans-Serif" font-size="11.00" fill="#000000">17 rows</text>
<polygon fill="#ffffff" stroke="transparent" points="111,-40.2 111,-59.2 222,-59.2 222,-40.2 111,-40.2"/>
<polygon fill="none" stroke="#000000" points="111,-40.2 111,-59.2 222,-59.2 222,-40.2 111,-40.2"/>
<text text-anchor="start" x="203.4053" y="-46.3" font-family="Helvetica,sans-Serif" font-size="11.00" fill="#000000">0 &gt;</text>
<polygon fill="none" stroke="#000000" stroke-width="2" points="9,-39.2 9,-369.2 223,-369.2 223,-39.2 9,-39.2"/>
</a>
</g>
</g>
</g>
</svg>
