<?xml version="1.0" encoding="UTF-8" standalone="no"?>
<!DOCTYPE svg PUBLIC "-//W3C//DTD SVG 1.1//EN"
 "http://www.w3.org/Graphics/SVG/1.1/DTD/svg11.dtd">
<!-- Generated by graphviz version 2.40.1 (20161225.0304)
 -->
<!-- Title: oneDegreeRelationshipsDiagram Pages: 1 -->
<svg width="278pt" height="426pt"
 viewBox="0.00 0.00 278.00 426.20" xmlns="http://www.w3.org/2000/svg" xmlns:xlink="http://www.w3.org/1999/xlink">
<g id="graph0" class="graph" transform="scale(1 1) rotate(0) translate(4 422.2)">
<title>oneDegreeRelationshipsDiagram</title>
<polygon fill="#ffffff" stroke="transparent" points="-4,4 -4,-422.2 274,-422.2 274,4 -4,4"/>
<text text-anchor="middle" x="72.4936" y="-7.3" font-family="Helvetica,sans-Serif" font-size="11.00" fill="#000000">Generated by SchemaSpy</text>
<!-- target_comsummary -->
<g id="node1" class="node">
<title>target_comsummary</title>
<g id="a_node1"><a xlink:href="../../tables/target_comsummary.html" xlink:title="target_comsummary" target="_top">
<polygon fill="#ffffff" stroke="transparent" points="8,-38.2 8,-414.2 262,-414.2 262,-38.2 8,-38.2"/>
<polygon fill="#f5f5f5" stroke="transparent" points="10,-389.2 10,-412.2 260,-412.2 260,-389.2 10,-389.2"/>
<polygon fill="none" stroke="#000000" points="10,-389.2 10,-412.2 260,-412.2 260,-389.2 10,-389.2"/>
<text text-anchor="start" x="15" y="-397.8" font-family="Helvetica,sans-Serif" font-weight="bold" font-size="11.00" fill="#000000">target_comsummary</text>
<text text-anchor="start" x="225.0437" y="-397.3" font-family="Helvetica,sans-Serif" font-size="11.00" fill="#000000">[table]</text>
<polygon fill="none" stroke="#000000" points="10,-367.2 10,-389.2 149,-389.2 149,-367.2 10,-367.2"/>
<image xlink:href="../../images/primaryKeys.png" width="11px" height="12px" preserveAspectRatio="xMinYMin meet" x="15" y="-384.2"/>
<text text-anchor="start" x="30" y="-374.3" font-family="Helvetica,sans-Serif" font-size="11.00" fill="#000000">ID</text>
<polygon fill="none" stroke="#000000" points="149,-367.2 149,-389.2 260,-389.2 260,-367.2 149,-367.2"/>
<text text-anchor="start" x="152" y="-374.9" font-family="Helvetica,sans-Serif" font-size="11.00" fill="#000000">int[10]</text>
<polygon fill="none" stroke="#000000" points="10,-345.2 10,-367.2 149,-367.2 149,-345.2 10,-345.2"/>
<text text-anchor="start" x="30" y="-352.3" font-family="Helvetica,sans-Serif" font-size="11.00" fill="#000000">Active</text>
<polygon fill="none" stroke="#000000" points="149,-345.2 149,-367.2 260,-367.2 260,-345.2 149,-345.2"/>
<text text-anchor="start" x="152" y="-352.9" font-family="Helvetica,sans-Serif" font-size="11.00" fill="#000000">bit[1]</text>
<polygon fill="none" stroke="#000000" points="10,-323.2 10,-345.2 149,-345.2 149,-323.2 10,-323.2"/>
<text text-anchor="start" x="30" y="-330.3" font-family="Helvetica,sans-Serif" font-size="11.00" fill="#000000">User</text>
<polygon fill="none" stroke="#000000" points="149,-323.2 149,-345.2 260,-345.2 260,-323.2 149,-323.2"/>
<text text-anchor="start" x="151.6115" y="-330.9" font-family="Helvetica,sans-Serif" font-size="11.00" fill="#000000">longtext[2147483647]</text>
<polygon fill="none" stroke="#000000" points="10,-301.2 10,-323.2 149,-323.2 149,-301.2 10,-301.2"/>
<text text-anchor="start" x="30" y="-308.3" font-family="Helvetica,sans-Serif" font-size="11.00" fill="#000000">CD</text>
<polygon fill="none" stroke="#000000" points="149,-301.2 149,-323.2 260,-323.2 260,-301.2 149,-301.2"/>
<text text-anchor="start" x="152" y="-308.9" font-family="Helvetica,sans-Serif" font-size="11.00" fill="#000000">datetime[26]</text>
<polygon fill="none" stroke="#000000" points="10,-279.2 10,-301.2 149,-301.2 149,-279.2 10,-279.2"/>
<text text-anchor="start" x="30" y="-286.3" font-family="Helvetica,sans-Serif" font-size="11.00" fill="#000000">UD</text>
<polygon fill="none" stroke="#000000" points="149,-279.2 149,-301.2 260,-301.2 260,-279.2 149,-279.2"/>
<text text-anchor="start" x="152" y="-286.9" font-family="Helvetica,sans-Serif" font-size="11.00" fill="#000000">datetime[26]</text>
<polygon fill="none" stroke="#000000" points="10,-257.2 10,-279.2 149,-279.2 149,-257.2 10,-257.2"/>
<text text-anchor="start" x="30" y="-264.3" font-family="Helvetica,sans-Serif" font-size="11.00" fill="#000000">Remarks</text>
<polygon fill="none" stroke="#000000" points="149,-257.2 149,-279.2 260,-279.2 260,-257.2 149,-257.2"/>
<text text-anchor="start" x="151.6115" y="-264.9" font-family="Helvetica,sans-Serif" font-size="11.00" fill="#000000">longtext[2147483647]</text>
<polygon fill="none" stroke="#000000" points="10,-235.2 10,-257.2 149,-257.2 149,-235.2 10,-235.2"/>
<text text-anchor="start" x="30" y="-242.3" font-family="Helvetica,sans-Serif" font-size="11.00" fill="#000000">UserID</text>
<polygon fill="none" stroke="#000000" points="149,-235.2 149,-257.2 260,-257.2 260,-235.2 149,-235.2"/>
<text text-anchor="start" x="152" y="-242.9" font-family="Helvetica,sans-Serif" font-size="11.00" fill="#000000">int[10]</text>
<polygon fill="none" stroke="#000000" points="10,-213.2 10,-235.2 149,-235.2 149,-213.2 10,-213.2"/>
<text text-anchor="start" x="30" y="-220.3" font-family="Helvetica,sans-Serif" font-size="11.00" fill="#000000">EmployeeFK</text>
<polygon fill="none" stroke="#000000" points="149,-213.2 149,-235.2 260,-235.2 260,-213.2 149,-213.2"/>
<text text-anchor="start" x="152" y="-220.9" font-family="Helvetica,sans-Serif" font-size="11.00" fill="#000000">int[10]</text>
<polygon fill="none" stroke="#000000" points="10,-191.2 10,-213.2 149,-213.2 149,-191.2 10,-191.2"/>
<text text-anchor="start" x="30" y="-198.3" font-family="Helvetica,sans-Serif" font-size="11.00" fill="#000000">CompanyFK</text>
<polygon fill="none" stroke="#000000" points="149,-191.2 149,-213.2 260,-213.2 260,-191.2 149,-191.2"/>
<text text-anchor="start" x="152" y="-198.9" font-family="Helvetica,sans-Serif" font-size="11.00" fill="#000000">int[10]</text>
<polygon fill="none" stroke="#000000" points="10,-169.2 10,-191.2 149,-191.2 149,-169.2 10,-169.2"/>
<text text-anchor="start" x="30" y="-176.3" font-family="Helvetica,sans-Serif" font-size="11.00" fill="#000000">Payroll_Month</text>
<polygon fill="none" stroke="#000000" points="149,-169.2 149,-191.2 260,-191.2 260,-169.2 149,-169.2"/>
<text text-anchor="start" x="152" y="-176.9" font-family="Helvetica,sans-Serif" font-size="11.00" fill="#000000">datetime[26]</text>
<polygon fill="none" stroke="#000000" points="10,-147.2 10,-169.2 149,-169.2 149,-147.2 10,-147.2"/>
<text text-anchor="start" x="30" y="-154.3" font-family="Helvetica,sans-Serif" font-size="11.00" fill="#000000">Month</text>
<polygon fill="none" stroke="#000000" points="149,-147.2 149,-169.2 260,-169.2 260,-147.2 149,-147.2"/>
<text text-anchor="start" x="152" y="-154.9" font-family="Helvetica,sans-Serif" font-size="11.00" fill="#000000">int[10]</text>
<polygon fill="none" stroke="#000000" points="10,-125.2 10,-147.2 149,-147.2 149,-125.2 10,-125.2"/>
<text text-anchor="start" x="30" y="-132.3" font-family="Helvetica,sans-Serif" font-size="11.00" fill="#000000">Year</text>
<polygon fill="none" stroke="#000000" points="149,-125.2 149,-147.2 260,-147.2 260,-125.2 149,-125.2"/>
<text text-anchor="start" x="152" y="-132.9" font-family="Helvetica,sans-Serif" font-size="11.00" fill="#000000">int[10]</text>
<polygon fill="none" stroke="#000000" points="10,-103.2 10,-125.2 149,-125.2 149,-103.2 10,-103.2"/>
<text text-anchor="start" x="30" y="-110.3" font-family="Helvetica,sans-Serif" font-size="11.00" fill="#000000">Commission</text>
<polygon fill="none" stroke="#000000" points="149,-103.2 149,-125.2 260,-125.2 260,-103.2 149,-103.2"/>
<text text-anchor="start" x="152" y="-110.9" font-family="Helvetica,sans-Serif" font-size="11.00" fill="#000000">decimal[18,2]</text>
<polygon fill="none" stroke="#000000" points="10,-81.2 10,-103.2 149,-103.2 149,-81.2 10,-81.2"/>
<text text-anchor="start" x="30" y="-88.3" font-family="Helvetica,sans-Serif" font-size="11.00" fill="#000000">Target</text>
<polygon fill="none" stroke="#000000" points="149,-81.2 149,-103.2 260,-103.2 260,-81.2 149,-81.2"/>
<text text-anchor="start" x="152" y="-88.9" font-family="Helvetica,sans-Serif" font-size="11.00" fill="#000000">decimal[18,2]</text>
<polygon fill="none" stroke="#000000" points="10,-59.2 10,-81.2 149,-81.2 149,-59.2 10,-59.2"/>
<text text-anchor="start" x="30" y="-66.3" font-family="Helvetica,sans-Serif" font-size="11.00" fill="#000000">ApprovalStatusID</text>
<polygon fill="none" stroke="#000000" points="149,-59.2 149,-81.2 260,-81.2 260,-59.2 149,-59.2"/>
<text text-anchor="start" x="152" y="-66.9" font-family="Helvetica,sans-Serif" font-size="11.00" fill="#000000">int[10]</text>
<polygon fill="#ffffff" stroke="transparent" points="10,-40.2 10,-59.2 71,-59.2 71,-40.2 10,-40.2"/>
<polygon fill="none" stroke="#000000" points="10,-40.2 10,-59.2 71,-59.2 71,-40.2 10,-40.2"/>
<text text-anchor="start" x="13" y="-46.3" font-family="Helvetica,sans-Serif" font-size="11.00" fill="#000000">&lt; 0</text>
<polygon fill="#ffffff" stroke="transparent" points="71,-40.2 71,-59.2 149,-59.2 149,-40.2 71,-40.2"/>
<polygon fill="none" stroke="#000000" points="71,-40.2 71,-59.2 149,-59.2 149,-40.2 71,-40.2"/>
<text text-anchor="start" x="113.6105" y="-46.3" font-family="Helvetica,sans-Serif" font-size="11.00" fill="#000000">0 rows</text>
<polygon fill="#ffffff" stroke="transparent" points="149,-40.2 149,-59.2 260,-59.2 260,-40.2 149,-40.2"/>
<polygon fill="none" stroke="#000000" points="149,-40.2 149,-59.2 260,-59.2 260,-40.2 149,-40.2"/>
<text text-anchor="start" x="241.4053" y="-46.3" font-family="Helvetica,sans-Serif" font-size="11.00" fill="#000000">0 &gt;</text>
<polygon fill="none" stroke="#000000" stroke-width="2" points="9,-39.2 9,-413.2 261,-413.2 261,-39.2 9,-39.2"/>
</a>
</g>
</g>
</g>
</svg>
