<?xml version="1.0" encoding="UTF-8" standalone="no"?>
<!DOCTYPE svg PUBLIC "-//W3C//DTD SVG 1.1//EN"
 "http://www.w3.org/Graphics/SVG/1.1/DTD/svg11.dtd">
<!-- Generated by graphviz version 2.40.1 (20161225.0304)
 -->
<!-- Title: oneDegreeRelationshipsDiagram Pages: 1 -->
<svg width="291pt" height="536pt"
 viewBox="0.00 0.00 291.00 536.20" xmlns="http://www.w3.org/2000/svg" xmlns:xlink="http://www.w3.org/1999/xlink">
<g id="graph0" class="graph" transform="scale(1 1) rotate(0) translate(4 532.2)">
<title>oneDegreeRelationshipsDiagram</title>
<polygon fill="#ffffff" stroke="transparent" points="-4,4 -4,-532.2 287,-532.2 287,4 -4,4"/>
<text text-anchor="middle" x="72.4936" y="-7.3" font-family="Helvetica,sans-Serif" font-size="11.00" fill="#000000">Generated by SchemaSpy</text>
<!-- target_comitem -->
<g id="node1" class="node">
<title>target_comitem</title>
<g id="a_node1"><a xlink:href="../../tables/target_comitem.html" xlink:title="target_comitem" target="_top">
<polygon fill="#ffffff" stroke="transparent" points="8,-38.2 8,-524.2 275,-524.2 275,-38.2 8,-38.2"/>
<polygon fill="#f5f5f5" stroke="transparent" points="10.5,-499.2 10.5,-522.2 273.5,-522.2 273.5,-499.2 10.5,-499.2"/>
<polygon fill="none" stroke="#000000" points="10.5,-499.2 10.5,-522.2 273.5,-522.2 273.5,-499.2 10.5,-499.2"/>
<text text-anchor="start" x="15.5" y="-507.8" font-family="Helvetica,sans-Serif" font-weight="bold" font-size="11.00" fill="#000000">target_comitem</text>
<text text-anchor="start" x="238.5437" y="-507.3" font-family="Helvetica,sans-Serif" font-size="11.00" fill="#000000">[table]</text>
<polygon fill="none" stroke="#000000" points="10.5,-477.2 10.5,-499.2 162.5,-499.2 162.5,-477.2 10.5,-477.2"/>
<image xlink:href="../../images/primaryKeys.png" width="11px" height="12px" preserveAspectRatio="xMinYMin meet" x="15.5" y="-494.2"/>
<text text-anchor="start" x="30.5" y="-484.3" font-family="Helvetica,sans-Serif" font-size="11.00" fill="#000000">ID</text>
<polygon fill="none" stroke="#000000" points="162.5,-477.2 162.5,-499.2 273.5,-499.2 273.5,-477.2 162.5,-477.2"/>
<text text-anchor="start" x="165.5" y="-484.9" font-family="Helvetica,sans-Serif" font-size="11.00" fill="#000000">int[10]</text>
<polygon fill="none" stroke="#000000" points="10.5,-455.2 10.5,-477.2 162.5,-477.2 162.5,-455.2 10.5,-455.2"/>
<text text-anchor="start" x="30.5" y="-462.3" font-family="Helvetica,sans-Serif" font-size="11.00" fill="#000000">Active</text>
<polygon fill="none" stroke="#000000" points="162.5,-455.2 162.5,-477.2 273.5,-477.2 273.5,-455.2 162.5,-455.2"/>
<text text-anchor="start" x="165.5" y="-462.9" font-family="Helvetica,sans-Serif" font-size="11.00" fill="#000000">bit[1]</text>
<polygon fill="none" stroke="#000000" points="10.5,-433.2 10.5,-455.2 162.5,-455.2 162.5,-433.2 10.5,-433.2"/>
<text text-anchor="start" x="30.5" y="-440.3" font-family="Helvetica,sans-Serif" font-size="11.00" fill="#000000">User</text>
<polygon fill="none" stroke="#000000" points="162.5,-433.2 162.5,-455.2 273.5,-455.2 273.5,-433.2 162.5,-433.2"/>
<text text-anchor="start" x="165.1115" y="-440.9" font-family="Helvetica,sans-Serif" font-size="11.00" fill="#000000">longtext[2147483647]</text>
<polygon fill="none" stroke="#000000" points="10.5,-411.2 10.5,-433.2 162.5,-433.2 162.5,-411.2 10.5,-411.2"/>
<text text-anchor="start" x="30.5" y="-418.3" font-family="Helvetica,sans-Serif" font-size="11.00" fill="#000000">CD</text>
<polygon fill="none" stroke="#000000" points="162.5,-411.2 162.5,-433.2 273.5,-433.2 273.5,-411.2 162.5,-411.2"/>
<text text-anchor="start" x="165.5" y="-418.9" font-family="Helvetica,sans-Serif" font-size="11.00" fill="#000000">datetime[26]</text>
<polygon fill="none" stroke="#000000" points="10.5,-389.2 10.5,-411.2 162.5,-411.2 162.5,-389.2 10.5,-389.2"/>
<text text-anchor="start" x="30.5" y="-396.3" font-family="Helvetica,sans-Serif" font-size="11.00" fill="#000000">UD</text>
<polygon fill="none" stroke="#000000" points="162.5,-389.2 162.5,-411.2 273.5,-411.2 273.5,-389.2 162.5,-389.2"/>
<text text-anchor="start" x="165.5" y="-396.9" font-family="Helvetica,sans-Serif" font-size="11.00" fill="#000000">datetime[26]</text>
<polygon fill="none" stroke="#000000" points="10.5,-367.2 10.5,-389.2 162.5,-389.2 162.5,-367.2 10.5,-367.2"/>
<text text-anchor="start" x="30.5" y="-374.3" font-family="Helvetica,sans-Serif" font-size="11.00" fill="#000000">Remarks</text>
<polygon fill="none" stroke="#000000" points="162.5,-367.2 162.5,-389.2 273.5,-389.2 273.5,-367.2 162.5,-367.2"/>
<text text-anchor="start" x="165.1115" y="-374.9" font-family="Helvetica,sans-Serif" font-size="11.00" fill="#000000">longtext[2147483647]</text>
<polygon fill="none" stroke="#000000" points="10.5,-345.2 10.5,-367.2 162.5,-367.2 162.5,-345.2 10.5,-345.2"/>
<text text-anchor="start" x="30.5" y="-352.3" font-family="Helvetica,sans-Serif" font-size="11.00" fill="#000000">UserID</text>
<polygon fill="none" stroke="#000000" points="162.5,-345.2 162.5,-367.2 273.5,-367.2 273.5,-345.2 162.5,-345.2"/>
<text text-anchor="start" x="165.5" y="-352.9" font-family="Helvetica,sans-Serif" font-size="11.00" fill="#000000">int[10]</text>
<polygon fill="none" stroke="#000000" points="10.5,-323.2 10.5,-345.2 162.5,-345.2 162.5,-323.2 10.5,-323.2"/>
<text text-anchor="start" x="30.5" y="-330.3" font-family="Helvetica,sans-Serif" font-size="11.00" fill="#000000">Target_CommissionFK</text>
<polygon fill="none" stroke="#000000" points="162.5,-323.2 162.5,-345.2 273.5,-345.2 273.5,-323.2 162.5,-323.2"/>
<text text-anchor="start" x="165.5" y="-330.9" font-family="Helvetica,sans-Serif" font-size="11.00" fill="#000000">int[10]</text>
<polygon fill="none" stroke="#000000" points="10.5,-301.2 10.5,-323.2 162.5,-323.2 162.5,-301.2 10.5,-301.2"/>
<text text-anchor="start" x="30.5" y="-308.3" font-family="Helvetica,sans-Serif" font-size="11.00" fill="#000000">Common_ProductFK</text>
<polygon fill="none" stroke="#000000" points="162.5,-301.2 162.5,-323.2 273.5,-323.2 273.5,-301.2 162.5,-301.2"/>
<text text-anchor="start" x="165.5" y="-308.9" font-family="Helvetica,sans-Serif" font-size="11.00" fill="#000000">int[10]</text>
<polygon fill="none" stroke="#000000" points="10.5,-279.2 10.5,-301.2 162.5,-301.2 162.5,-279.2 10.5,-279.2"/>
<text text-anchor="start" x="30.5" y="-286.3" font-family="Helvetica,sans-Serif" font-size="11.00" fill="#000000">CompanyFK</text>
<polygon fill="none" stroke="#000000" points="162.5,-279.2 162.5,-301.2 273.5,-301.2 273.5,-279.2 162.5,-279.2"/>
<text text-anchor="start" x="165.5" y="-286.9" font-family="Helvetica,sans-Serif" font-size="11.00" fill="#000000">int[10]</text>
<polygon fill="none" stroke="#000000" points="10.5,-257.2 10.5,-279.2 162.5,-279.2 162.5,-257.2 10.5,-257.2"/>
<text text-anchor="start" x="30.5" y="-264.3" font-family="Helvetica,sans-Serif" font-size="11.00" fill="#000000">Team_MemberFK</text>
<polygon fill="none" stroke="#000000" points="162.5,-257.2 162.5,-279.2 273.5,-279.2 273.5,-257.2 162.5,-257.2"/>
<text text-anchor="start" x="165.5" y="-264.9" font-family="Helvetica,sans-Serif" font-size="11.00" fill="#000000">int[10]</text>
<polygon fill="none" stroke="#000000" points="10.5,-235.2 10.5,-257.2 162.5,-257.2 162.5,-235.2 10.5,-235.2"/>
<text text-anchor="start" x="30.5" y="-242.3" font-family="Helvetica,sans-Serif" font-size="11.00" fill="#000000">EmployeeFK</text>
<polygon fill="none" stroke="#000000" points="162.5,-235.2 162.5,-257.2 273.5,-257.2 273.5,-235.2 162.5,-235.2"/>
<text text-anchor="start" x="165.5" y="-242.9" font-family="Helvetica,sans-Serif" font-size="11.00" fill="#000000">int[10]</text>
<polygon fill="none" stroke="#000000" points="10.5,-213.2 10.5,-235.2 162.5,-235.2 162.5,-213.2 10.5,-213.2"/>
<text text-anchor="start" x="30.5" y="-220.3" font-family="Helvetica,sans-Serif" font-size="11.00" fill="#000000">CommissionRate</text>
<polygon fill="none" stroke="#000000" points="162.5,-213.2 162.5,-235.2 273.5,-235.2 273.5,-213.2 162.5,-213.2"/>
<text text-anchor="start" x="165.5" y="-220.9" font-family="Helvetica,sans-Serif" font-size="11.00" fill="#000000">int[10]</text>
<polygon fill="none" stroke="#000000" points="10.5,-191.2 10.5,-213.2 162.5,-213.2 162.5,-191.2 10.5,-191.2"/>
<text text-anchor="start" x="30.5" y="-198.3" font-family="Helvetica,sans-Serif" font-size="11.00" fill="#000000">SlabTypeID</text>
<polygon fill="none" stroke="#000000" points="162.5,-191.2 162.5,-213.2 273.5,-213.2 273.5,-191.2 162.5,-191.2"/>
<text text-anchor="start" x="165.5" y="-198.9" font-family="Helvetica,sans-Serif" font-size="11.00" fill="#000000">int[10]</text>
<polygon fill="none" stroke="#000000" points="10.5,-169.2 10.5,-191.2 162.5,-191.2 162.5,-169.2 10.5,-169.2"/>
<text text-anchor="start" x="30.5" y="-176.3" font-family="Helvetica,sans-Serif" font-size="11.00" fill="#000000">MinAmount</text>
<polygon fill="none" stroke="#000000" points="162.5,-169.2 162.5,-191.2 273.5,-191.2 273.5,-169.2 162.5,-169.2"/>
<text text-anchor="start" x="165.5" y="-176.9" font-family="Helvetica,sans-Serif" font-size="11.00" fill="#000000">decimal[65,30]</text>
<polygon fill="none" stroke="#000000" points="10.5,-147.2 10.5,-169.2 162.5,-169.2 162.5,-147.2 10.5,-147.2"/>
<text text-anchor="start" x="30.5" y="-154.3" font-family="Helvetica,sans-Serif" font-size="11.00" fill="#000000">MaxAmount</text>
<polygon fill="none" stroke="#000000" points="162.5,-147.2 162.5,-169.2 273.5,-169.2 273.5,-147.2 162.5,-147.2"/>
<text text-anchor="start" x="165.5" y="-154.9" font-family="Helvetica,sans-Serif" font-size="11.00" fill="#000000">decimal[65,30]</text>
<polygon fill="none" stroke="#000000" points="10.5,-125.2 10.5,-147.2 162.5,-147.2 162.5,-125.2 10.5,-125.2"/>
<text text-anchor="start" x="30.5" y="-132.3" font-family="Helvetica,sans-Serif" font-size="11.00" fill="#000000">CommissionTakeBy</text>
<polygon fill="none" stroke="#000000" points="162.5,-125.2 162.5,-147.2 273.5,-147.2 273.5,-125.2 162.5,-125.2"/>
<text text-anchor="start" x="165.5" y="-132.9" font-family="Helvetica,sans-Serif" font-size="11.00" fill="#000000">int[10]</text>
<polygon fill="none" stroke="#000000" points="10.5,-103.2 10.5,-125.2 162.5,-125.2 162.5,-103.2 10.5,-103.2"/>
<text text-anchor="start" x="30.5" y="-110.3" font-family="Helvetica,sans-Serif" font-size="11.00" fill="#000000">IsPercentage</text>
<polygon fill="none" stroke="#000000" points="162.5,-103.2 162.5,-125.2 273.5,-125.2 273.5,-103.2 162.5,-103.2"/>
<text text-anchor="start" x="165.5" y="-110.9" font-family="Helvetica,sans-Serif" font-size="11.00" fill="#000000">bit[1]</text>
<polygon fill="none" stroke="#000000" points="10.5,-81.2 10.5,-103.2 162.5,-103.2 162.5,-81.2 10.5,-81.2"/>
<text text-anchor="start" x="30.5" y="-88.3" font-family="Helvetica,sans-Serif" font-size="11.00" fill="#000000">Amount</text>
<polygon fill="none" stroke="#000000" points="162.5,-81.2 162.5,-103.2 273.5,-103.2 273.5,-81.2 162.5,-81.2"/>
<text text-anchor="start" x="165.5" y="-88.9" font-family="Helvetica,sans-Serif" font-size="11.00" fill="#000000">decimal[65,30]</text>
<polygon fill="none" stroke="#000000" points="10.5,-59.2 10.5,-81.2 162.5,-81.2 162.5,-59.2 10.5,-59.2"/>
<text text-anchor="start" x="30.5" y="-66.3" font-family="Helvetica,sans-Serif" font-size="11.00" fill="#000000">TotalAmount</text>
<polygon fill="none" stroke="#000000" points="162.5,-59.2 162.5,-81.2 273.5,-81.2 273.5,-59.2 162.5,-59.2"/>
<text text-anchor="start" x="165.5" y="-66.9" font-family="Helvetica,sans-Serif" font-size="11.00" fill="#000000">decimal[65,30]</text>
<polygon fill="#ffffff" stroke="transparent" points="10.5,-40.2 10.5,-59.2 77.5,-59.2 77.5,-40.2 10.5,-40.2"/>
<polygon fill="none" stroke="#000000" points="10.5,-40.2 10.5,-59.2 77.5,-59.2 77.5,-40.2 10.5,-40.2"/>
<text text-anchor="start" x="13.5" y="-46.3" font-family="Helvetica,sans-Serif" font-size="11.00" fill="#000000">&lt; 0</text>
<polygon fill="#ffffff" stroke="transparent" points="77.5,-40.2 77.5,-59.2 162.5,-59.2 162.5,-40.2 77.5,-40.2"/>
<polygon fill="none" stroke="#000000" points="77.5,-40.2 77.5,-59.2 162.5,-59.2 162.5,-40.2 77.5,-40.2"/>
<text text-anchor="start" x="127.1105" y="-46.3" font-family="Helvetica,sans-Serif" font-size="11.00" fill="#000000">4 rows</text>
<polygon fill="#ffffff" stroke="transparent" points="162.5,-40.2 162.5,-59.2 273.5,-59.2 273.5,-40.2 162.5,-40.2"/>
<polygon fill="none" stroke="#000000" points="162.5,-40.2 162.5,-59.2 273.5,-59.2 273.5,-40.2 162.5,-40.2"/>
<text text-anchor="start" x="254.9053" y="-46.3" font-family="Helvetica,sans-Serif" font-size="11.00" fill="#000000">0 &gt;</text>
<polygon fill="none" stroke="#000000" stroke-width="2" points="9,-39.2 9,-523.2 274,-523.2 274,-39.2 9,-39.2"/>
</a>
</g>
</g>
</g>
</svg>
