<?xml version="1.0" encoding="UTF-8" standalone="no"?>
<!DOCTYPE svg PUBLIC "-//W3C//DTD SVG 1.1//EN"
 "http://www.w3.org/Graphics/SVG/1.1/DTD/svg11.dtd">
<!-- Generated by graphviz version 2.40.1 (20161225.0304)
 -->
<!-- Title: oneDegreeRelationshipsDiagram Pages: 1 -->
<svg width="285pt" height="514pt"
 viewBox="0.00 0.00 285.00 514.20" xmlns="http://www.w3.org/2000/svg" xmlns:xlink="http://www.w3.org/1999/xlink">
<g id="graph0" class="graph" transform="scale(1 1) rotate(0) translate(4 510.2)">
<title>oneDegreeRelationshipsDiagram</title>
<polygon fill="#ffffff" stroke="transparent" points="-4,4 -4,-510.2 281,-510.2 281,4 -4,4"/>
<text text-anchor="middle" x="72.4936" y="-7.3" font-family="Helvetica,sans-Serif" font-size="11.00" fill="#000000">Generated by SchemaSpy</text>
<!-- teammember_fytarget -->
<g id="node1" class="node">
<title>teammember_fytarget</title>
<g id="a_node1"><a xlink:href="../../tables/teammember_fytarget.html" xlink:title="teammember_fytarget" target="_top">
<polygon fill="#ffffff" stroke="transparent" points="8,-38.2 8,-502.2 269,-502.2 269,-38.2 8,-38.2"/>
<polygon fill="#f5f5f5" stroke="transparent" points="10.5,-477.2 10.5,-500.2 267.5,-500.2 267.5,-477.2 10.5,-477.2"/>
<polygon fill="none" stroke="#000000" points="10.5,-477.2 10.5,-500.2 267.5,-500.2 267.5,-477.2 10.5,-477.2"/>
<text text-anchor="start" x="15.5" y="-485.8" font-family="Helvetica,sans-Serif" font-weight="bold" font-size="11.00" fill="#000000">teammember_fytarget</text>
<text text-anchor="start" x="232.5437" y="-485.3" font-family="Helvetica,sans-Serif" font-size="11.00" fill="#000000">[table]</text>
<polygon fill="none" stroke="#000000" points="10.5,-455.2 10.5,-477.2 156.5,-477.2 156.5,-455.2 10.5,-455.2"/>
<image xlink:href="../../images/primaryKeys.png" width="11px" height="12px" preserveAspectRatio="xMinYMin meet" x="15.5" y="-472.2"/>
<text text-anchor="start" x="30.5" y="-462.3" font-family="Helvetica,sans-Serif" font-size="11.00" fill="#000000">ID</text>
<polygon fill="none" stroke="#000000" points="156.5,-455.2 156.5,-477.2 267.5,-477.2 267.5,-455.2 156.5,-455.2"/>
<text text-anchor="start" x="159.5" y="-462.9" font-family="Helvetica,sans-Serif" font-size="11.00" fill="#000000">int[10]</text>
<polygon fill="none" stroke="#000000" points="10.5,-433.2 10.5,-455.2 156.5,-455.2 156.5,-433.2 10.5,-433.2"/>
<text text-anchor="start" x="30.5" y="-440.3" font-family="Helvetica,sans-Serif" font-size="11.00" fill="#000000">Active</text>
<polygon fill="none" stroke="#000000" points="156.5,-433.2 156.5,-455.2 267.5,-455.2 267.5,-433.2 156.5,-433.2"/>
<text text-anchor="start" x="159.5" y="-440.9" font-family="Helvetica,sans-Serif" font-size="11.00" fill="#000000">bit[1]</text>
<polygon fill="none" stroke="#000000" points="10.5,-411.2 10.5,-433.2 156.5,-433.2 156.5,-411.2 10.5,-411.2"/>
<text text-anchor="start" x="30.5" y="-418.3" font-family="Helvetica,sans-Serif" font-size="11.00" fill="#000000">User</text>
<polygon fill="none" stroke="#000000" points="156.5,-411.2 156.5,-433.2 267.5,-433.2 267.5,-411.2 156.5,-411.2"/>
<text text-anchor="start" x="159.1115" y="-418.9" font-family="Helvetica,sans-Serif" font-size="11.00" fill="#000000">longtext[2147483647]</text>
<polygon fill="none" stroke="#000000" points="10.5,-389.2 10.5,-411.2 156.5,-411.2 156.5,-389.2 10.5,-389.2"/>
<text text-anchor="start" x="30.5" y="-396.3" font-family="Helvetica,sans-Serif" font-size="11.00" fill="#000000">CD</text>
<polygon fill="none" stroke="#000000" points="156.5,-389.2 156.5,-411.2 267.5,-411.2 267.5,-389.2 156.5,-389.2"/>
<text text-anchor="start" x="159.5" y="-396.9" font-family="Helvetica,sans-Serif" font-size="11.00" fill="#000000">datetime[26]</text>
<polygon fill="none" stroke="#000000" points="10.5,-367.2 10.5,-389.2 156.5,-389.2 156.5,-367.2 10.5,-367.2"/>
<text text-anchor="start" x="30.5" y="-374.3" font-family="Helvetica,sans-Serif" font-size="11.00" fill="#000000">UD</text>
<polygon fill="none" stroke="#000000" points="156.5,-367.2 156.5,-389.2 267.5,-389.2 267.5,-367.2 156.5,-367.2"/>
<text text-anchor="start" x="159.5" y="-374.9" font-family="Helvetica,sans-Serif" font-size="11.00" fill="#000000">datetime[26]</text>
<polygon fill="none" stroke="#000000" points="10.5,-345.2 10.5,-367.2 156.5,-367.2 156.5,-345.2 10.5,-345.2"/>
<text text-anchor="start" x="30.5" y="-352.3" font-family="Helvetica,sans-Serif" font-size="11.00" fill="#000000">Remarks</text>
<polygon fill="none" stroke="#000000" points="156.5,-345.2 156.5,-367.2 267.5,-367.2 267.5,-345.2 156.5,-345.2"/>
<text text-anchor="start" x="159.1115" y="-352.9" font-family="Helvetica,sans-Serif" font-size="11.00" fill="#000000">longtext[2147483647]</text>
<polygon fill="none" stroke="#000000" points="10.5,-323.2 10.5,-345.2 156.5,-345.2 156.5,-323.2 10.5,-323.2"/>
<text text-anchor="start" x="30.5" y="-330.3" font-family="Helvetica,sans-Serif" font-size="11.00" fill="#000000">UserID</text>
<polygon fill="none" stroke="#000000" points="156.5,-323.2 156.5,-345.2 267.5,-345.2 267.5,-323.2 156.5,-323.2"/>
<text text-anchor="start" x="159.5" y="-330.9" font-family="Helvetica,sans-Serif" font-size="11.00" fill="#000000">int[10]</text>
<polygon fill="none" stroke="#000000" points="10.5,-301.2 10.5,-323.2 156.5,-323.2 156.5,-301.2 10.5,-301.2"/>
<text text-anchor="start" x="30.5" y="-308.3" font-family="Helvetica,sans-Serif" font-size="11.00" fill="#000000">Team_MemberFK</text>
<polygon fill="none" stroke="#000000" points="156.5,-301.2 156.5,-323.2 267.5,-323.2 267.5,-301.2 156.5,-301.2"/>
<text text-anchor="start" x="159.5" y="-308.9" font-family="Helvetica,sans-Serif" font-size="11.00" fill="#000000">int[10]</text>
<polygon fill="none" stroke="#000000" points="10.5,-279.2 10.5,-301.2 156.5,-301.2 156.5,-279.2 10.5,-279.2"/>
<text text-anchor="start" x="30.5" y="-286.3" font-family="Helvetica,sans-Serif" font-size="11.00" fill="#000000">Team_FYTargetFK</text>
<polygon fill="none" stroke="#000000" points="156.5,-279.2 156.5,-301.2 267.5,-301.2 267.5,-279.2 156.5,-279.2"/>
<text text-anchor="start" x="159.5" y="-286.9" font-family="Helvetica,sans-Serif" font-size="11.00" fill="#000000">int[10]</text>
<polygon fill="none" stroke="#000000" points="10.5,-257.2 10.5,-279.2 156.5,-279.2 156.5,-257.2 10.5,-257.2"/>
<text text-anchor="start" x="30.5" y="-264.3" font-family="Helvetica,sans-Serif" font-size="11.00" fill="#000000">Target_Rate</text>
<polygon fill="none" stroke="#000000" points="156.5,-257.2 156.5,-279.2 267.5,-279.2 267.5,-257.2 156.5,-257.2"/>
<text text-anchor="start" x="159.5" y="-264.9" font-family="Helvetica,sans-Serif" font-size="11.00" fill="#000000">decimal[65,30]</text>
<polygon fill="none" stroke="#000000" points="10.5,-235.2 10.5,-257.2 156.5,-257.2 156.5,-235.2 10.5,-235.2"/>
<text text-anchor="start" x="30.5" y="-242.3" font-family="Helvetica,sans-Serif" font-size="11.00" fill="#000000">Target_Amount</text>
<polygon fill="none" stroke="#000000" points="156.5,-235.2 156.5,-257.2 267.5,-257.2 267.5,-235.2 156.5,-235.2"/>
<text text-anchor="start" x="159.5" y="-242.9" font-family="Helvetica,sans-Serif" font-size="11.00" fill="#000000">decimal[65,30]</text>
<polygon fill="none" stroke="#000000" points="10.5,-213.2 10.5,-235.2 156.5,-235.2 156.5,-213.2 10.5,-213.2"/>
<text text-anchor="start" x="30.5" y="-220.3" font-family="Helvetica,sans-Serif" font-size="11.00" fill="#000000">Start_Date</text>
<polygon fill="none" stroke="#000000" points="156.5,-213.2 156.5,-235.2 267.5,-235.2 267.5,-213.2 156.5,-213.2"/>
<text text-anchor="start" x="159.5" y="-220.9" font-family="Helvetica,sans-Serif" font-size="11.00" fill="#000000">datetime[26]</text>
<polygon fill="none" stroke="#000000" points="10.5,-191.2 10.5,-213.2 156.5,-213.2 156.5,-191.2 10.5,-191.2"/>
<text text-anchor="start" x="30.5" y="-198.3" font-family="Helvetica,sans-Serif" font-size="11.00" fill="#000000">End_Date</text>
<polygon fill="none" stroke="#000000" points="156.5,-191.2 156.5,-213.2 267.5,-213.2 267.5,-191.2 156.5,-191.2"/>
<text text-anchor="start" x="159.5" y="-198.9" font-family="Helvetica,sans-Serif" font-size="11.00" fill="#000000">datetime[26]</text>
<polygon fill="none" stroke="#000000" points="10.5,-169.2 10.5,-191.2 156.5,-191.2 156.5,-169.2 10.5,-169.2"/>
<text text-anchor="start" x="30.5" y="-176.3" font-family="Helvetica,sans-Serif" font-size="11.00" fill="#000000">Common_DealerFK</text>
<polygon fill="none" stroke="#000000" points="156.5,-169.2 156.5,-191.2 267.5,-191.2 267.5,-169.2 156.5,-169.2"/>
<text text-anchor="start" x="159.5" y="-176.9" font-family="Helvetica,sans-Serif" font-size="11.00" fill="#000000">int[10]</text>
<polygon fill="none" stroke="#000000" points="10.5,-147.2 10.5,-169.2 156.5,-169.2 156.5,-147.2 10.5,-147.2"/>
<text text-anchor="start" x="30.5" y="-154.3" font-family="Helvetica,sans-Serif" font-size="11.00" fill="#000000">AchieveRate</text>
<polygon fill="none" stroke="#000000" points="156.5,-147.2 156.5,-169.2 267.5,-169.2 267.5,-147.2 156.5,-147.2"/>
<text text-anchor="start" x="159.5" y="-154.9" font-family="Helvetica,sans-Serif" font-size="11.00" fill="#000000">decimal[65,30]</text>
<polygon fill="none" stroke="#000000" points="10.5,-125.2 10.5,-147.2 156.5,-147.2 156.5,-125.2 10.5,-125.2"/>
<text text-anchor="start" x="30.5" y="-132.3" font-family="Helvetica,sans-Serif" font-size="11.00" fill="#000000">AchieveAmount</text>
<polygon fill="none" stroke="#000000" points="156.5,-125.2 156.5,-147.2 267.5,-147.2 267.5,-125.2 156.5,-125.2"/>
<text text-anchor="start" x="159.5" y="-132.9" font-family="Helvetica,sans-Serif" font-size="11.00" fill="#000000">decimal[65,30]</text>
<polygon fill="none" stroke="#000000" points="10.5,-103.2 10.5,-125.2 156.5,-125.2 156.5,-103.2 10.5,-103.2"/>
<text text-anchor="start" x="30.5" y="-110.3" font-family="Helvetica,sans-Serif" font-size="11.00" fill="#000000">CommisionAmount</text>
<polygon fill="none" stroke="#000000" points="156.5,-103.2 156.5,-125.2 267.5,-125.2 267.5,-103.2 156.5,-103.2"/>
<text text-anchor="start" x="159.5" y="-110.9" font-family="Helvetica,sans-Serif" font-size="11.00" fill="#000000">decimal[65,30]</text>
<polygon fill="none" stroke="#000000" points="10.5,-81.2 10.5,-103.2 156.5,-103.2 156.5,-81.2 10.5,-81.2"/>
<text text-anchor="start" x="30.5" y="-88.3" font-family="Helvetica,sans-Serif" font-size="11.00" fill="#000000">CommissionRate</text>
<polygon fill="none" stroke="#000000" points="156.5,-81.2 156.5,-103.2 267.5,-103.2 267.5,-81.2 156.5,-81.2"/>
<text text-anchor="start" x="159.5" y="-88.9" font-family="Helvetica,sans-Serif" font-size="11.00" fill="#000000">int[10]</text>
<polygon fill="none" stroke="#000000" points="10.5,-59.2 10.5,-81.2 156.5,-81.2 156.5,-59.2 10.5,-59.2"/>
<text text-anchor="start" x="30.5" y="-66.3" font-family="Helvetica,sans-Serif" font-size="11.00" fill="#000000">IsPercentage</text>
<polygon fill="none" stroke="#000000" points="156.5,-59.2 156.5,-81.2 267.5,-81.2 267.5,-59.2 156.5,-59.2"/>
<text text-anchor="start" x="159.5" y="-66.9" font-family="Helvetica,sans-Serif" font-size="11.00" fill="#000000">bit[1]</text>
<polygon fill="#ffffff" stroke="transparent" points="10.5,-40.2 10.5,-59.2 71.5,-59.2 71.5,-40.2 10.5,-40.2"/>
<polygon fill="none" stroke="#000000" points="10.5,-40.2 10.5,-59.2 71.5,-59.2 71.5,-40.2 10.5,-40.2"/>
<text text-anchor="start" x="13.5" y="-46.3" font-family="Helvetica,sans-Serif" font-size="11.00" fill="#000000">&lt; 0</text>
<polygon fill="#ffffff" stroke="transparent" points="71.5,-40.2 71.5,-59.2 156.5,-59.2 156.5,-40.2 71.5,-40.2"/>
<polygon fill="none" stroke="#000000" points="71.5,-40.2 71.5,-59.2 156.5,-59.2 156.5,-40.2 71.5,-40.2"/>
<text text-anchor="start" x="114.9956" y="-46.3" font-family="Helvetica,sans-Serif" font-size="11.00" fill="#000000">15 rows</text>
<polygon fill="#ffffff" stroke="transparent" points="156.5,-40.2 156.5,-59.2 267.5,-59.2 267.5,-40.2 156.5,-40.2"/>
<polygon fill="none" stroke="#000000" points="156.5,-40.2 156.5,-59.2 267.5,-59.2 267.5,-40.2 156.5,-40.2"/>
<text text-anchor="start" x="248.9053" y="-46.3" font-family="Helvetica,sans-Serif" font-size="11.00" fill="#000000">0 &gt;</text>
<polygon fill="none" stroke="#000000" stroke-width="2" points="9,-39.2 9,-501.2 268,-501.2 268,-39.2 9,-39.2"/>
</a>
</g>
</g>
</g>
</svg>
