<?xml version="1.0" encoding="UTF-8" standalone="no"?>
<!DOCTYPE svg PUBLIC "-//W3C//DTD SVG 1.1//EN"
 "http://www.w3.org/Graphics/SVG/1.1/DTD/svg11.dtd">
<!-- Generated by graphviz version 2.40.1 (20161225.0304)
 -->
<!-- Title: oneDegreeRelationshipsDiagram Pages: 1 -->
<svg width="262pt" height="426pt"
 viewBox="0.00 0.00 262.00 426.20" xmlns="http://www.w3.org/2000/svg" xmlns:xlink="http://www.w3.org/1999/xlink">
<g id="graph0" class="graph" transform="scale(1 1) rotate(0) translate(4 422.2)">
<title>oneDegreeRelationshipsDiagram</title>
<polygon fill="#ffffff" stroke="transparent" points="-4,4 -4,-422.2 258,-422.2 258,4 -4,4"/>
<text text-anchor="middle" x="72.4936" y="-7.3" font-family="Helvetica,sans-Serif" font-size="11.00" fill="#000000">Generated by SchemaSpy</text>
<!-- temp_salesleadbooking -->
<g id="node1" class="node">
<title>temp_salesleadbooking</title>
<g id="a_node1"><a xlink:href="../../tables/temp_salesleadbooking.html" xlink:title="temp_salesleadbooking" target="_top">
<polygon fill="#ffffff" stroke="transparent" points="8,-38.2 8,-414.2 246,-414.2 246,-38.2 8,-38.2"/>
<polygon fill="#f5f5f5" stroke="transparent" points="10,-389.2 10,-412.2 244,-412.2 244,-389.2 10,-389.2"/>
<polygon fill="none" stroke="#000000" points="10,-389.2 10,-412.2 244,-412.2 244,-389.2 10,-389.2"/>
<text text-anchor="start" x="15" y="-397.8" font-family="Helvetica,sans-Serif" font-weight="bold" font-size="11.00" fill="#000000">temp_salesleadbooking</text>
<text text-anchor="start" x="209.0437" y="-397.3" font-family="Helvetica,sans-Serif" font-size="11.00" fill="#000000">[table]</text>
<polygon fill="none" stroke="#000000" points="10,-367.2 10,-389.2 167,-389.2 167,-367.2 10,-367.2"/>
<image xlink:href="../../images/primaryKeys.png" width="11px" height="12px" preserveAspectRatio="xMinYMin meet" x="15" y="-384.2"/>
<text text-anchor="start" x="30" y="-374.3" font-family="Helvetica,sans-Serif" font-size="11.00" fill="#000000">ID</text>
<polygon fill="none" stroke="#000000" points="167,-367.2 167,-389.2 244,-389.2 244,-367.2 167,-367.2"/>
<text text-anchor="start" x="170" y="-374.9" font-family="Helvetica,sans-Serif" font-size="11.00" fill="#000000">varchar[36]</text>
<polygon fill="none" stroke="#000000" points="10,-345.2 10,-367.2 167,-367.2 167,-345.2 10,-345.2"/>
<text text-anchor="start" x="30" y="-352.3" font-family="Helvetica,sans-Serif" font-size="11.00" fill="#000000">Common_ShopeFK</text>
<polygon fill="none" stroke="#000000" points="167,-345.2 167,-367.2 244,-367.2 244,-345.2 167,-345.2"/>
<text text-anchor="start" x="170" y="-352.9" font-family="Helvetica,sans-Serif" font-size="11.00" fill="#000000">int[10]</text>
<polygon fill="none" stroke="#000000" points="10,-323.2 10,-345.2 167,-345.2 167,-323.2 10,-323.2"/>
<text text-anchor="start" x="30" y="-330.3" font-family="Helvetica,sans-Serif" font-size="11.00" fill="#000000">Common_DealerFK</text>
<polygon fill="none" stroke="#000000" points="167,-323.2 167,-345.2 244,-345.2 244,-323.2 167,-323.2"/>
<text text-anchor="start" x="170" y="-330.9" font-family="Helvetica,sans-Serif" font-size="11.00" fill="#000000">int[10]</text>
<polygon fill="none" stroke="#000000" points="10,-301.2 10,-323.2 167,-323.2 167,-301.2 10,-301.2"/>
<text text-anchor="start" x="30" y="-308.3" font-family="Helvetica,sans-Serif" font-size="11.00" fill="#000000">Common_RouteFK</text>
<polygon fill="none" stroke="#000000" points="167,-301.2 167,-323.2 244,-323.2 244,-301.2 167,-301.2"/>
<text text-anchor="start" x="170" y="-308.9" font-family="Helvetica,sans-Serif" font-size="11.00" fill="#000000">int[10]</text>
<polygon fill="none" stroke="#000000" points="10,-279.2 10,-301.2 167,-301.2 167,-279.2 10,-279.2"/>
<text text-anchor="start" x="30" y="-286.3" font-family="Helvetica,sans-Serif" font-size="11.00" fill="#000000">EmployeeFK</text>
<polygon fill="none" stroke="#000000" points="167,-279.2 167,-301.2 244,-301.2 244,-279.2 167,-279.2"/>
<text text-anchor="start" x="170" y="-286.9" font-family="Helvetica,sans-Serif" font-size="11.00" fill="#000000">int[10]</text>
<polygon fill="none" stroke="#000000" points="10,-257.2 10,-279.2 167,-279.2 167,-257.2 10,-257.2"/>
<text text-anchor="start" x="30" y="-264.3" font-family="Helvetica,sans-Serif" font-size="11.00" fill="#000000">Common_ProductFK</text>
<polygon fill="none" stroke="#000000" points="167,-257.2 167,-279.2 244,-279.2 244,-257.2 167,-257.2"/>
<text text-anchor="start" x="170" y="-264.9" font-family="Helvetica,sans-Serif" font-size="11.00" fill="#000000">int[10]</text>
<polygon fill="none" stroke="#000000" points="10,-235.2 10,-257.2 167,-257.2 167,-235.2 10,-235.2"/>
<text text-anchor="start" x="30" y="-242.3" font-family="Helvetica,sans-Serif" font-size="11.00" fill="#000000">Quantity</text>
<polygon fill="none" stroke="#000000" points="167,-235.2 167,-257.2 244,-257.2 244,-235.2 167,-235.2"/>
<text text-anchor="start" x="169.7406" y="-242.9" font-family="Helvetica,sans-Serif" font-size="11.00" fill="#000000">decimal[65,30]</text>
<polygon fill="none" stroke="#000000" points="10,-213.2 10,-235.2 167,-235.2 167,-213.2 10,-213.2"/>
<text text-anchor="start" x="30" y="-220.3" font-family="Helvetica,sans-Serif" font-size="11.00" fill="#000000">Common_UnitFk</text>
<polygon fill="none" stroke="#000000" points="167,-213.2 167,-235.2 244,-235.2 244,-213.2 167,-213.2"/>
<text text-anchor="start" x="170" y="-220.9" font-family="Helvetica,sans-Serif" font-size="11.00" fill="#000000">int[10]</text>
<polygon fill="none" stroke="#000000" points="10,-191.2 10,-213.2 167,-213.2 167,-191.2 10,-191.2"/>
<text text-anchor="start" x="30" y="-198.3" font-family="Helvetica,sans-Serif" font-size="11.00" fill="#000000">UnitPrice</text>
<polygon fill="none" stroke="#000000" points="167,-191.2 167,-213.2 244,-213.2 244,-191.2 167,-191.2"/>
<text text-anchor="start" x="169.7406" y="-198.9" font-family="Helvetica,sans-Serif" font-size="11.00" fill="#000000">decimal[65,30]</text>
<polygon fill="none" stroke="#000000" points="10,-169.2 10,-191.2 167,-191.2 167,-169.2 10,-169.2"/>
<text text-anchor="start" x="30" y="-176.3" font-family="Helvetica,sans-Serif" font-size="11.00" fill="#000000">Competitor_ProductFK</text>
<polygon fill="none" stroke="#000000" points="167,-169.2 167,-191.2 244,-191.2 244,-169.2 167,-169.2"/>
<text text-anchor="start" x="170" y="-176.9" font-family="Helvetica,sans-Serif" font-size="11.00" fill="#000000">int[10]</text>
<polygon fill="none" stroke="#000000" points="10,-147.2 10,-169.2 167,-169.2 167,-147.2 10,-147.2"/>
<text text-anchor="start" x="30" y="-154.3" font-family="Helvetica,sans-Serif" font-size="11.00" fill="#000000">CompetitorQuantity</text>
<polygon fill="none" stroke="#000000" points="167,-147.2 167,-169.2 244,-169.2 244,-147.2 167,-147.2"/>
<text text-anchor="start" x="169.7406" y="-154.9" font-family="Helvetica,sans-Serif" font-size="11.00" fill="#000000">decimal[65,30]</text>
<polygon fill="none" stroke="#000000" points="10,-125.2 10,-147.2 167,-147.2 167,-125.2 10,-125.2"/>
<text text-anchor="start" x="30" y="-132.3" font-family="Helvetica,sans-Serif" font-size="11.00" fill="#000000">DeliveryDate</text>
<polygon fill="none" stroke="#000000" points="167,-125.2 167,-147.2 244,-147.2 244,-125.2 167,-125.2"/>
<text text-anchor="start" x="170" y="-132.9" font-family="Helvetica,sans-Serif" font-size="11.00" fill="#000000">datetime[26]</text>
<polygon fill="none" stroke="#000000" points="10,-103.2 10,-125.2 167,-125.2 167,-103.2 10,-103.2"/>
<text text-anchor="start" x="30" y="-110.3" font-family="Helvetica,sans-Serif" font-size="11.00" fill="#000000">AvailableQty</text>
<polygon fill="none" stroke="#000000" points="167,-103.2 167,-125.2 244,-125.2 244,-103.2 167,-103.2"/>
<text text-anchor="start" x="169.7406" y="-110.9" font-family="Helvetica,sans-Serif" font-size="11.00" fill="#000000">decimal[65,30]</text>
<polygon fill="none" stroke="#000000" points="10,-81.2 10,-103.2 167,-103.2 167,-81.2 10,-81.2"/>
<text text-anchor="start" x="30" y="-88.3" font-family="Helvetica,sans-Serif" font-size="11.00" fill="#000000">DiscountFK</text>
<polygon fill="none" stroke="#000000" points="167,-81.2 167,-103.2 244,-103.2 244,-81.2 167,-81.2"/>
<text text-anchor="start" x="170" y="-88.9" font-family="Helvetica,sans-Serif" font-size="11.00" fill="#000000">int[10]</text>
<polygon fill="none" stroke="#000000" points="10,-59.2 10,-81.2 167,-81.2 167,-59.2 10,-59.2"/>
<text text-anchor="start" x="30" y="-66.3" font-family="Helvetica,sans-Serif" font-size="11.00" fill="#000000">PromotionFK</text>
<polygon fill="none" stroke="#000000" points="167,-59.2 167,-81.2 244,-81.2 244,-59.2 167,-59.2"/>
<text text-anchor="start" x="170" y="-66.9" font-family="Helvetica,sans-Serif" font-size="11.00" fill="#000000">int[10]</text>
<polygon fill="#ffffff" stroke="transparent" points="10,-40.2 10,-59.2 80,-59.2 80,-40.2 10,-40.2"/>
<polygon fill="none" stroke="#000000" points="10,-40.2 10,-59.2 80,-59.2 80,-40.2 10,-40.2"/>
<text text-anchor="start" x="13" y="-46.3" font-family="Helvetica,sans-Serif" font-size="11.00" fill="#000000">&lt; 0</text>
<polygon fill="#ffffff" stroke="transparent" points="80,-40.2 80,-59.2 167,-59.2 167,-40.2 80,-40.2"/>
<polygon fill="none" stroke="#000000" points="80,-40.2 80,-59.2 167,-59.2 167,-40.2 80,-40.2"/>
<text text-anchor="start" x="131.6105" y="-46.3" font-family="Helvetica,sans-Serif" font-size="11.00" fill="#000000">0 rows</text>
<polygon fill="#ffffff" stroke="transparent" points="167,-40.2 167,-59.2 244,-59.2 244,-40.2 167,-40.2"/>
<polygon fill="none" stroke="#000000" points="167,-40.2 167,-59.2 244,-59.2 244,-40.2 167,-40.2"/>
<text text-anchor="start" x="225.4053" y="-46.3" font-family="Helvetica,sans-Serif" font-size="11.00" fill="#000000">0 &gt;</text>
<polygon fill="none" stroke="#000000" stroke-width="2" points="9,-39.2 9,-413.2 245,-413.2 245,-39.2 9,-39.2"/>
</a>
</g>
</g>
</g>
</svg>
