<?xml version="1.0" encoding="UTF-8" standalone="no"?>
<!DOCTYPE svg PUBLIC "-//W3C//DTD SVG 1.1//EN"
 "http://www.w3.org/Graphics/SVG/1.1/DTD/svg11.dtd">
<!-- Generated by graphviz version 2.40.1 (20161225.0304)
 -->
<!-- Title: twoDegreesRelationshipsDiagram Pages: 1 -->
<svg width="771pt" height="353pt"
 viewBox="0.00 0.00 771.00 353.20" xmlns="http://www.w3.org/2000/svg" xmlns:xlink="http://www.w3.org/1999/xlink">
<g id="graph0" class="graph" transform="scale(1 1) rotate(0) translate(4 349.2)">
<title>twoDegreesRelationshipsDiagram</title>
<polygon fill="#ffffff" stroke="transparent" points="-4,4 -4,-349.2 767,-349.2 767,4 -4,4"/>
<text text-anchor="middle" x="72.4936" y="-7.3" font-family="Helvetica,sans-Serif" font-size="11.00" fill="#000000">Generated by SchemaSpy</text>
<!-- user_menuitem -->
<g id="node1" class="node">
<title>user_menuitem</title>
<g id="a_node1"><a xlink:href="../../tables/user_menuitem.html" xlink:title="user_menuitem" target="_top">
<polygon fill="#ffffff" stroke="transparent" points="430,-236.2 430,-341.2 557,-341.2 557,-236.2 430,-236.2"/>
<polygon fill="#f5f5f5" stroke="transparent" points="430.5,-317.7 430.5,-340.7 557.5,-340.7 557.5,-317.7 430.5,-317.7"/>
<polygon fill="none" stroke="#000000" points="430.5,-317.7 430.5,-340.7 557.5,-340.7 557.5,-317.7 430.5,-317.7"/>
<text text-anchor="start" x="435.5" y="-326.3" font-family="Helvetica,sans-Serif" font-weight="bold" font-size="11.00" fill="#000000">user_menuitem</text>
<text text-anchor="start" x="523.0219" y="-325.8" font-family="Helvetica,sans-Serif" font-size="11.00" fill="#000000">[table]</text>
<polygon fill="none" stroke="#000000" points="430.5,-295.7 430.5,-317.7 557.5,-317.7 557.5,-295.7 430.5,-295.7"/>
<image xlink:href="../../images/primaryKeys.png" width="11px" height="12px" preserveAspectRatio="xMinYMin meet" x="435.5" y="-312.7"/>
<text text-anchor="start" x="453.5" y="-302.8" font-family="Helvetica,sans-Serif" font-size="11.00" fill="#000000">ID</text>
<polygon fill="#ffffff" stroke="transparent" points="430.5,-273.7 430.5,-295.7 557.5,-295.7 557.5,-273.7 430.5,-273.7"/>
<polygon fill="none" stroke="#000000" points="430.5,-273.7 430.5,-295.7 557.5,-295.7 557.5,-273.7 430.5,-273.7"/>
<image xlink:href="../../images/foreignKeys.png" width="11px" height="12px" preserveAspectRatio="xMinYMin meet" x="435.5" y="-290.7"/>
<text text-anchor="start" x="453.5" y="-280.8" font-family="Helvetica,sans-Serif" font-size="11.00" fill="#000000">User_SubMenuFk</text>
<polygon fill="none" stroke="#000000" points="430.5,-254.7 430.5,-273.7 557.5,-273.7 557.5,-254.7 430.5,-254.7"/>
<text text-anchor="start" x="433.5" y="-260.8" font-family="Helvetica,sans-Serif" font-size="11.00" fill="#000000">...</text>
<polygon fill="#ffffff" stroke="transparent" points="430.5,-235.7 430.5,-254.7 468.5,-254.7 468.5,-235.7 430.5,-235.7"/>
<polygon fill="none" stroke="#000000" points="430.5,-235.7 430.5,-254.7 468.5,-254.7 468.5,-235.7 430.5,-235.7"/>
<text text-anchor="start" x="433.5" y="-241.8" font-family="Helvetica,sans-Serif" font-size="11.00" fill="#000000">&lt; 1</text>
<polygon fill="#ffffff" stroke="transparent" points="468.5,-235.7 468.5,-254.7 527.5,-254.7 527.5,-235.7 468.5,-235.7"/>
<polygon fill="none" stroke="#000000" points="468.5,-235.7 468.5,-254.7 527.5,-254.7 527.5,-235.7 468.5,-235.7"/>
<text text-anchor="start" x="479.8807" y="-241.8" font-family="Helvetica,sans-Serif" font-size="11.00" fill="#000000">392 rows</text>
<polygon fill="#ffffff" stroke="transparent" points="527.5,-235.7 527.5,-254.7 557.5,-254.7 557.5,-235.7 527.5,-235.7"/>
<polygon fill="none" stroke="#000000" points="527.5,-235.7 527.5,-254.7 557.5,-254.7 557.5,-235.7 527.5,-235.7"/>
<text text-anchor="start" x="538.9053" y="-241.8" font-family="Helvetica,sans-Serif" font-size="11.00" fill="#000000">1 &gt;</text>
</a>
</g>
</g>
<!-- user_submenu -->
<g id="node2" class="node">
<title>user_submenu</title>
<g id="a_node2"><a xlink:href="../../tables/user_submenu.html" xlink:title="user_submenu" target="_top">
<polygon fill="#ffffff" stroke="transparent" points="160,-54.7 160,-320.7 381,-320.7 381,-54.7 160,-54.7"/>
<polygon fill="#f5f5f5" stroke="transparent" points="162.5,-295.7 162.5,-318.7 379.5,-318.7 379.5,-295.7 162.5,-295.7"/>
<polygon fill="none" stroke="#000000" points="162.5,-295.7 162.5,-318.7 379.5,-318.7 379.5,-295.7 162.5,-295.7"/>
<text text-anchor="start" x="167.5" y="-304.3" font-family="Helvetica,sans-Serif" font-weight="bold" font-size="11.00" fill="#000000">user_submenu</text>
<text text-anchor="start" x="344.5437" y="-303.8" font-family="Helvetica,sans-Serif" font-size="11.00" fill="#000000">[table]</text>
<polygon fill="none" stroke="#000000" points="162.5,-273.7 162.5,-295.7 268.5,-295.7 268.5,-273.7 162.5,-273.7"/>
<image xlink:href="../../images/primaryKeys.png" width="11px" height="12px" preserveAspectRatio="xMinYMin meet" x="167.5" y="-290.7"/>
<text text-anchor="start" x="182.5" y="-280.8" font-family="Helvetica,sans-Serif" font-size="11.00" fill="#000000">ID</text>
<polygon fill="none" stroke="#000000" points="268.5,-273.7 268.5,-295.7 379.5,-295.7 379.5,-273.7 268.5,-273.7"/>
<text text-anchor="start" x="271.5" y="-281.4" font-family="Helvetica,sans-Serif" font-size="11.00" fill="#000000">int[10]</text>
<polygon fill="none" stroke="#000000" points="162.5,-251.7 162.5,-273.7 268.5,-273.7 268.5,-251.7 162.5,-251.7"/>
<text text-anchor="start" x="182.5" y="-258.8" font-family="Helvetica,sans-Serif" font-size="11.00" fill="#000000">Active</text>
<polygon fill="none" stroke="#000000" points="268.5,-251.7 268.5,-273.7 379.5,-273.7 379.5,-251.7 268.5,-251.7"/>
<text text-anchor="start" x="271.5" y="-259.4" font-family="Helvetica,sans-Serif" font-size="11.00" fill="#000000">bit[1]</text>
<polygon fill="none" stroke="#000000" points="162.5,-229.7 162.5,-251.7 268.5,-251.7 268.5,-229.7 162.5,-229.7"/>
<text text-anchor="start" x="182.5" y="-236.8" font-family="Helvetica,sans-Serif" font-size="11.00" fill="#000000">User</text>
<polygon fill="none" stroke="#000000" points="268.5,-229.7 268.5,-251.7 379.5,-251.7 379.5,-229.7 268.5,-229.7"/>
<text text-anchor="start" x="271.1115" y="-237.4" font-family="Helvetica,sans-Serif" font-size="11.00" fill="#000000">longtext[2147483647]</text>
<polygon fill="none" stroke="#000000" points="162.5,-207.7 162.5,-229.7 268.5,-229.7 268.5,-207.7 162.5,-207.7"/>
<text text-anchor="start" x="182.5" y="-214.8" font-family="Helvetica,sans-Serif" font-size="11.00" fill="#000000">CD</text>
<polygon fill="none" stroke="#000000" points="268.5,-207.7 268.5,-229.7 379.5,-229.7 379.5,-207.7 268.5,-207.7"/>
<text text-anchor="start" x="271.5" y="-215.4" font-family="Helvetica,sans-Serif" font-size="11.00" fill="#000000">datetime[26]</text>
<polygon fill="none" stroke="#000000" points="162.5,-185.7 162.5,-207.7 268.5,-207.7 268.5,-185.7 162.5,-185.7"/>
<text text-anchor="start" x="182.5" y="-192.8" font-family="Helvetica,sans-Serif" font-size="11.00" fill="#000000">UD</text>
<polygon fill="none" stroke="#000000" points="268.5,-185.7 268.5,-207.7 379.5,-207.7 379.5,-185.7 268.5,-185.7"/>
<text text-anchor="start" x="271.5" y="-193.4" font-family="Helvetica,sans-Serif" font-size="11.00" fill="#000000">datetime[26]</text>
<polygon fill="none" stroke="#000000" points="162.5,-163.7 162.5,-185.7 268.5,-185.7 268.5,-163.7 162.5,-163.7"/>
<text text-anchor="start" x="182.5" y="-170.8" font-family="Helvetica,sans-Serif" font-size="11.00" fill="#000000">Remarks</text>
<polygon fill="none" stroke="#000000" points="268.5,-163.7 268.5,-185.7 379.5,-185.7 379.5,-163.7 268.5,-163.7"/>
<text text-anchor="start" x="271.1115" y="-171.4" font-family="Helvetica,sans-Serif" font-size="11.00" fill="#000000">longtext[2147483647]</text>
<polygon fill="none" stroke="#000000" points="162.5,-141.7 162.5,-163.7 268.5,-163.7 268.5,-141.7 162.5,-141.7"/>
<text text-anchor="start" x="182.5" y="-148.8" font-family="Helvetica,sans-Serif" font-size="11.00" fill="#000000">UserID</text>
<polygon fill="none" stroke="#000000" points="268.5,-141.7 268.5,-163.7 379.5,-163.7 379.5,-141.7 268.5,-141.7"/>
<text text-anchor="start" x="271.5" y="-149.4" font-family="Helvetica,sans-Serif" font-size="11.00" fill="#000000">int[10]</text>
<polygon fill="none" stroke="#000000" points="162.5,-119.7 162.5,-141.7 268.5,-141.7 268.5,-119.7 162.5,-119.7"/>
<text text-anchor="start" x="182.5" y="-126.8" font-family="Helvetica,sans-Serif" font-size="11.00" fill="#000000">Name</text>
<polygon fill="none" stroke="#000000" points="268.5,-119.7 268.5,-141.7 379.5,-141.7 379.5,-119.7 268.5,-119.7"/>
<text text-anchor="start" x="271.1115" y="-127.4" font-family="Helvetica,sans-Serif" font-size="11.00" fill="#000000">longtext[2147483647]</text>
<polygon fill="none" stroke="#000000" points="162.5,-97.7 162.5,-119.7 268.5,-119.7 268.5,-97.7 162.5,-97.7"/>
<text text-anchor="start" x="182.5" y="-104.8" font-family="Helvetica,sans-Serif" font-size="11.00" fill="#000000">Priority</text>
<polygon fill="none" stroke="#000000" points="268.5,-97.7 268.5,-119.7 379.5,-119.7 379.5,-97.7 268.5,-97.7"/>
<text text-anchor="start" x="271.5" y="-105.4" font-family="Helvetica,sans-Serif" font-size="11.00" fill="#000000">int[10]</text>
<polygon fill="#ffffff" stroke="transparent" points="162.5,-75.7 162.5,-97.7 268.5,-97.7 268.5,-75.7 162.5,-75.7"/>
<polygon fill="none" stroke="#000000" points="162.5,-75.7 162.5,-97.7 268.5,-97.7 268.5,-75.7 162.5,-75.7"/>
<image xlink:href="../../images/foreignKeys.png" width="11px" height="12px" preserveAspectRatio="xMinYMin meet" x="167.5" y="-92.7"/>
<text text-anchor="start" x="182.5" y="-82.8" font-family="Helvetica,sans-Serif" font-size="11.00" fill="#000000">User_MenuFk</text>
<polygon fill="none" stroke="#000000" points="268.5,-75.7 268.5,-97.7 379.5,-97.7 379.5,-75.7 268.5,-75.7"/>
<text text-anchor="start" x="271.5" y="-83.4" font-family="Helvetica,sans-Serif" font-size="11.00" fill="#000000">int[10]</text>
<polygon fill="#ffffff" stroke="transparent" points="162.5,-56.7 162.5,-75.7 206.5,-75.7 206.5,-56.7 162.5,-56.7"/>
<polygon fill="none" stroke="#000000" points="162.5,-56.7 162.5,-75.7 206.5,-75.7 206.5,-56.7 162.5,-56.7"/>
<text text-anchor="start" x="165.5" y="-62.8" font-family="Helvetica,sans-Serif" font-size="11.00" fill="#000000">&lt; 1</text>
<polygon fill="#ffffff" stroke="transparent" points="206.5,-56.7 206.5,-75.7 268.5,-75.7 268.5,-56.7 206.5,-56.7"/>
<polygon fill="none" stroke="#000000" points="206.5,-56.7 206.5,-75.7 268.5,-75.7 268.5,-56.7 206.5,-56.7"/>
<text text-anchor="start" x="233.1105" y="-62.8" font-family="Helvetica,sans-Serif" font-size="11.00" fill="#000000">0 rows</text>
<polygon fill="#ffffff" stroke="transparent" points="268.5,-56.7 268.5,-75.7 379.5,-75.7 379.5,-56.7 268.5,-56.7"/>
<polygon fill="none" stroke="#000000" points="268.5,-56.7 268.5,-75.7 379.5,-75.7 379.5,-56.7 268.5,-56.7"/>
<text text-anchor="start" x="360.9053" y="-62.8" font-family="Helvetica,sans-Serif" font-size="11.00" fill="#000000">1 &gt;</text>
<polygon fill="none" stroke="#000000" stroke-width="2" points="161,-55.7 161,-319.7 380,-319.7 380,-55.7 161,-55.7"/>
</a>
</g>
</g>
<!-- user_menuitem&#45;&gt;user_submenu -->
<g id="edge1" class="edge">
<title>user_menuitem:w&#45;&gt;user_submenu:e</title>
<path fill="none" stroke="#000000" d="M415.776,-284.7C403.7815,-284.7 396.3229,-284.7 379.5,-284.7"/>
<polygon fill="#000000" stroke="#000000" points="422.5,-284.7001 430.5,-288.3 426.5,-284.7 430.5,-284.7 430.5,-284.7 430.5,-284.7 426.5,-284.7 430.5,-281.1 422.5,-284.7001 422.5,-284.7001"/>
<ellipse fill="none" stroke="#000000" cx="419.3" cy="-284.7001" rx="3.2" ry="3.2"/>
</g>
<!-- user_menu -->
<g id="node4" class="node">
<title>user_menu</title>
<g id="a_node4"><a xlink:href="../../tables/user_menu.html" xlink:title="user_menu" target="_top">
<polygon fill="#ffffff" stroke="transparent" points="8,-38.2 8,-121.2 111,-121.2 111,-38.2 8,-38.2"/>
<polygon fill="#f5f5f5" stroke="transparent" points="8.5,-97.7 8.5,-120.7 111.5,-120.7 111.5,-97.7 8.5,-97.7"/>
<polygon fill="none" stroke="#000000" points="8.5,-97.7 8.5,-120.7 111.5,-120.7 111.5,-97.7 8.5,-97.7"/>
<text text-anchor="start" x="13.5" y="-106.3" font-family="Helvetica,sans-Serif" font-weight="bold" font-size="11.00" fill="#000000">user_menu</text>
<text text-anchor="start" x="77.0219" y="-105.8" font-family="Helvetica,sans-Serif" font-size="11.00" fill="#000000">[table]</text>
<polygon fill="none" stroke="#000000" points="8.5,-75.7 8.5,-97.7 111.5,-97.7 111.5,-75.7 8.5,-75.7"/>
<image xlink:href="../../images/primaryKeys.png" width="11px" height="12px" preserveAspectRatio="xMinYMin meet" x="13.5" y="-92.7"/>
<text text-anchor="start" x="37.5" y="-82.8" font-family="Helvetica,sans-Serif" font-size="11.00" fill="#000000">ID</text>
<polygon fill="none" stroke="#000000" points="8.5,-56.7 8.5,-75.7 111.5,-75.7 111.5,-56.7 8.5,-56.7"/>
<text text-anchor="start" x="11.5" y="-62.8" font-family="Helvetica,sans-Serif" font-size="11.00" fill="#000000">...</text>
<polygon fill="#ffffff" stroke="transparent" points="8.5,-37.7 8.5,-56.7 33.5,-56.7 33.5,-37.7 8.5,-37.7"/>
<polygon fill="none" stroke="#000000" points="8.5,-37.7 8.5,-56.7 33.5,-56.7 33.5,-37.7 8.5,-37.7"/>
<text text-anchor="start" x="11.5" y="-43.8" font-family="Helvetica,sans-Serif" font-size="11.00" fill="#000000"> &#160;</text>
<polygon fill="#ffffff" stroke="transparent" points="33.5,-37.7 33.5,-56.7 83.5,-56.7 83.5,-37.7 33.5,-37.7"/>
<polygon fill="none" stroke="#000000" points="33.5,-37.7 33.5,-56.7 83.5,-56.7 83.5,-37.7 33.5,-37.7"/>
<text text-anchor="start" x="41.9956" y="-43.8" font-family="Helvetica,sans-Serif" font-size="11.00" fill="#000000">12 rows</text>
<polygon fill="#ffffff" stroke="transparent" points="83.5,-37.7 83.5,-56.7 111.5,-56.7 111.5,-37.7 83.5,-37.7"/>
<polygon fill="none" stroke="#000000" points="83.5,-37.7 83.5,-56.7 111.5,-56.7 111.5,-37.7 83.5,-37.7"/>
<text text-anchor="start" x="92.9053" y="-43.8" font-family="Helvetica,sans-Serif" font-size="11.00" fill="#000000">1 &gt;</text>
</a>
</g>
</g>
<!-- user_submenu&#45;&gt;user_menu -->
<g id="edge3" class="edge">
<title>user_submenu:w&#45;&gt;user_menu:e</title>
<path fill="none" stroke="#000000" d="M147.776,-86.7C135.7815,-86.7 128.3229,-86.7 111.5,-86.7"/>
<polygon fill="#000000" stroke="#000000" points="154.5,-86.7001 162.5,-90.3 158.5,-86.7 162.5,-86.7 162.5,-86.7 162.5,-86.7 158.5,-86.7 162.5,-83.1 154.5,-86.7001 154.5,-86.7001"/>
<ellipse fill="none" stroke="#000000" cx="151.3" cy="-86.7001" rx="3.2" ry="3.2"/>
</g>
<!-- user_rolemenuitem -->
<g id="node3" class="node">
<title>user_rolemenuitem</title>
<g id="a_node3"><a xlink:href="../../tables/user_rolemenuitem.html" xlink:title="user_rolemenuitem" target="_top">
<polygon fill="#ffffff" stroke="transparent" points="606,-279.2 606,-340.2 755,-340.2 755,-279.2 606,-279.2"/>
<polygon fill="#f5f5f5" stroke="transparent" points="606.5,-316.7 606.5,-339.7 755.5,-339.7 755.5,-316.7 606.5,-316.7"/>
<polygon fill="none" stroke="#000000" points="606.5,-316.7 606.5,-339.7 755.5,-339.7 755.5,-316.7 606.5,-316.7"/>
<text text-anchor="start" x="611.5" y="-325.3" font-family="Helvetica,sans-Serif" font-weight="bold" font-size="11.00" fill="#000000">user_rolemenuitem</text>
<text text-anchor="start" x="721.0219" y="-324.8" font-family="Helvetica,sans-Serif" font-size="11.00" fill="#000000">[table]</text>
<polygon fill="none" stroke="#000000" points="606.5,-297.7 606.5,-316.7 755.5,-316.7 755.5,-297.7 606.5,-297.7"/>
<text text-anchor="start" x="609.5" y="-303.8" font-family="Helvetica,sans-Serif" font-size="11.00" fill="#000000">...</text>
<polygon fill="#ffffff" stroke="transparent" points="606.5,-278.7 606.5,-297.7 666.5,-297.7 666.5,-278.7 606.5,-278.7"/>
<polygon fill="none" stroke="#000000" points="606.5,-278.7 606.5,-297.7 666.5,-297.7 666.5,-278.7 606.5,-278.7"/>
<text text-anchor="start" x="609.5" y="-284.8" font-family="Helvetica,sans-Serif" font-size="11.00" fill="#000000">&lt; 2</text>
<polygon fill="#ffffff" stroke="transparent" points="666.5,-278.7 666.5,-297.7 723.5,-297.7 723.5,-278.7 666.5,-278.7"/>
<polygon fill="none" stroke="#000000" points="666.5,-278.7 666.5,-297.7 723.5,-297.7 723.5,-278.7 666.5,-278.7"/>
<text text-anchor="start" x="688.1105" y="-284.8" font-family="Helvetica,sans-Serif" font-size="11.00" fill="#000000">0 rows</text>
<polygon fill="#ffffff" stroke="transparent" points="723.5,-278.7 723.5,-297.7 755.5,-297.7 755.5,-278.7 723.5,-278.7"/>
<polygon fill="none" stroke="#000000" points="723.5,-278.7 723.5,-297.7 755.5,-297.7 755.5,-278.7 723.5,-278.7"/>
<text text-anchor="start" x="746.3862" y="-284.8" font-family="Helvetica,sans-Serif" font-size="11.00" fill="#000000"> &#160;</text>
</a>
</g>
</g>
<!-- user_rolemenuitem&#45;&gt;user_menuitem -->
<g id="edge2" class="edge">
<title>user_rolemenuitem:w&#45;&gt;user_menuitem:e</title>
<path fill="none" stroke="#000000" d="M591.9909,-306.7C580.6774,-306.7 573.4931,-306.7 557.5,-306.7"/>
<polygon fill="#000000" stroke="#000000" points="598.5,-306.7001 606.5,-310.3 602.5,-306.7 606.5,-306.7 606.5,-306.7 606.5,-306.7 602.5,-306.7 606.5,-303.1 598.5,-306.7001 598.5,-306.7001"/>
<ellipse fill="none" stroke="#000000" cx="595.3" cy="-306.7001" rx="3.2" ry="3.2"/>
</g>
</g>
</svg>
