<?xml version="1.0" encoding="UTF-8" standalone="no"?>
<!DOCTYPE svg PUBLIC "-//W3C//DTD SVG 1.1//EN"
 "http://www.w3.org/Graphics/SVG/1.1/DTD/svg11.dtd">
<!-- Generated by graphviz version 2.40.1 (20161225.0304)
 -->
<!-- Title: oneDegreeRelationshipsDiagram Pages: 1 -->
<svg width="441pt" height="352pt"
 viewBox="0.00 0.00 441.00 351.70" xmlns="http://www.w3.org/2000/svg" xmlns:xlink="http://www.w3.org/1999/xlink">
<g id="graph0" class="graph" transform="scale(1 1) rotate(0) translate(4 347.7)">
<title>oneDegreeRelationshipsDiagram</title>
<polygon fill="#ffffff" stroke="transparent" points="-4,4 -4,-347.7 437,-347.7 437,4 -4,4"/>
<text text-anchor="middle" x="72.4936" y="-7.3" font-family="Helvetica,sans-Serif" font-size="11.00" fill="#000000">Generated by SchemaSpy</text>
<!-- user_roleassign -->
<g id="node1" class="node">
<title>user_roleassign</title>
<g id="a_node1"><a xlink:href="../../tables/user_roleassign.html" xlink:title="user_roleassign" target="_top">
<polygon fill="#ffffff" stroke="transparent" points="197,-95.7 197,-339.7 425,-339.7 425,-95.7 197,-95.7"/>
<polygon fill="#f5f5f5" stroke="transparent" points="199,-314.7 199,-337.7 423,-337.7 423,-314.7 199,-314.7"/>
<polygon fill="none" stroke="#000000" points="199,-314.7 199,-337.7 423,-337.7 423,-314.7 199,-314.7"/>
<text text-anchor="start" x="204" y="-323.3" font-family="Helvetica,sans-Serif" font-weight="bold" font-size="11.00" fill="#000000">user_roleassign</text>
<text text-anchor="start" x="388.0437" y="-322.8" font-family="Helvetica,sans-Serif" font-size="11.00" fill="#000000">[table]</text>
<polygon fill="none" stroke="#000000" points="199,-292.7 199,-314.7 312,-314.7 312,-292.7 199,-292.7"/>
<image xlink:href="../../images/primaryKeys.png" width="11px" height="12px" preserveAspectRatio="xMinYMin meet" x="204" y="-309.7"/>
<text text-anchor="start" x="219" y="-299.8" font-family="Helvetica,sans-Serif" font-size="11.00" fill="#000000">ID</text>
<polygon fill="none" stroke="#000000" points="312,-292.7 312,-314.7 423,-314.7 423,-292.7 312,-292.7"/>
<text text-anchor="start" x="315" y="-300.4" font-family="Helvetica,sans-Serif" font-size="11.00" fill="#000000">int[10]</text>
<polygon fill="none" stroke="#000000" points="199,-270.7 199,-292.7 312,-292.7 312,-270.7 199,-270.7"/>
<text text-anchor="start" x="219" y="-277.8" font-family="Helvetica,sans-Serif" font-size="11.00" fill="#000000">Active</text>
<polygon fill="none" stroke="#000000" points="312,-270.7 312,-292.7 423,-292.7 423,-270.7 312,-270.7"/>
<text text-anchor="start" x="315" y="-278.4" font-family="Helvetica,sans-Serif" font-size="11.00" fill="#000000">bit[1]</text>
<polygon fill="none" stroke="#000000" points="199,-248.7 199,-270.7 312,-270.7 312,-248.7 199,-248.7"/>
<text text-anchor="start" x="219" y="-255.8" font-family="Helvetica,sans-Serif" font-size="11.00" fill="#000000">User</text>
<polygon fill="none" stroke="#000000" points="312,-248.7 312,-270.7 423,-270.7 423,-248.7 312,-248.7"/>
<text text-anchor="start" x="314.6115" y="-256.4" font-family="Helvetica,sans-Serif" font-size="11.00" fill="#000000">longtext[2147483647]</text>
<polygon fill="none" stroke="#000000" points="199,-226.7 199,-248.7 312,-248.7 312,-226.7 199,-226.7"/>
<text text-anchor="start" x="219" y="-233.8" font-family="Helvetica,sans-Serif" font-size="11.00" fill="#000000">CD</text>
<polygon fill="none" stroke="#000000" points="312,-226.7 312,-248.7 423,-248.7 423,-226.7 312,-226.7"/>
<text text-anchor="start" x="315" y="-234.4" font-family="Helvetica,sans-Serif" font-size="11.00" fill="#000000">datetime[26]</text>
<polygon fill="none" stroke="#000000" points="199,-204.7 199,-226.7 312,-226.7 312,-204.7 199,-204.7"/>
<text text-anchor="start" x="219" y="-211.8" font-family="Helvetica,sans-Serif" font-size="11.00" fill="#000000">UD</text>
<polygon fill="none" stroke="#000000" points="312,-204.7 312,-226.7 423,-226.7 423,-204.7 312,-204.7"/>
<text text-anchor="start" x="315" y="-212.4" font-family="Helvetica,sans-Serif" font-size="11.00" fill="#000000">datetime[26]</text>
<polygon fill="none" stroke="#000000" points="199,-182.7 199,-204.7 312,-204.7 312,-182.7 199,-182.7"/>
<text text-anchor="start" x="219" y="-189.8" font-family="Helvetica,sans-Serif" font-size="11.00" fill="#000000">Remarks</text>
<polygon fill="none" stroke="#000000" points="312,-182.7 312,-204.7 423,-204.7 423,-182.7 312,-182.7"/>
<text text-anchor="start" x="314.6115" y="-190.4" font-family="Helvetica,sans-Serif" font-size="11.00" fill="#000000">longtext[2147483647]</text>
<polygon fill="none" stroke="#000000" points="199,-160.7 199,-182.7 312,-182.7 312,-160.7 199,-160.7"/>
<text text-anchor="start" x="219" y="-167.8" font-family="Helvetica,sans-Serif" font-size="11.00" fill="#000000">UserID</text>
<polygon fill="none" stroke="#000000" points="312,-160.7 312,-182.7 423,-182.7 423,-160.7 312,-160.7"/>
<text text-anchor="start" x="315" y="-168.4" font-family="Helvetica,sans-Serif" font-size="11.00" fill="#000000">int[10]</text>
<polygon fill="#ffffff" stroke="transparent" points="199,-138.7 199,-160.7 312,-160.7 312,-138.7 199,-138.7"/>
<polygon fill="none" stroke="#000000" points="199,-138.7 199,-160.7 312,-160.7 312,-138.7 199,-138.7"/>
<image xlink:href="../../images/foreignKeys.png" width="11px" height="12px" preserveAspectRatio="xMinYMin meet" x="204" y="-155.7"/>
<text text-anchor="start" x="219" y="-145.8" font-family="Helvetica,sans-Serif" font-size="11.00" fill="#000000">User_RoleFk</text>
<polygon fill="none" stroke="#000000" points="312,-138.7 312,-160.7 423,-160.7 423,-138.7 312,-138.7"/>
<text text-anchor="start" x="315" y="-146.4" font-family="Helvetica,sans-Serif" font-size="11.00" fill="#000000">int[10]</text>
<polygon fill="#ffffff" stroke="transparent" points="199,-116.7 199,-138.7 312,-138.7 312,-116.7 199,-116.7"/>
<polygon fill="none" stroke="#000000" points="199,-116.7 199,-138.7 312,-138.7 312,-116.7 199,-116.7"/>
<image xlink:href="../../images/foreignKeys.png" width="11px" height="12px" preserveAspectRatio="xMinYMin meet" x="204" y="-133.7"/>
<text text-anchor="start" x="219" y="-123.8" font-family="Helvetica,sans-Serif" font-size="11.00" fill="#000000">User_UserFk</text>
<polygon fill="none" stroke="#000000" points="312,-116.7 312,-138.7 423,-138.7 423,-116.7 312,-116.7"/>
<text text-anchor="start" x="315" y="-124.4" font-family="Helvetica,sans-Serif" font-size="11.00" fill="#000000">int[10]</text>
<polygon fill="#ffffff" stroke="transparent" points="199,-97.7 199,-116.7 247,-116.7 247,-97.7 199,-97.7"/>
<polygon fill="none" stroke="#000000" points="199,-97.7 199,-116.7 247,-116.7 247,-97.7 199,-97.7"/>
<text text-anchor="start" x="202" y="-103.8" font-family="Helvetica,sans-Serif" font-size="11.00" fill="#000000">&lt; 2</text>
<polygon fill="#ffffff" stroke="transparent" points="247,-97.7 247,-116.7 312,-116.7 312,-97.7 247,-97.7"/>
<polygon fill="none" stroke="#000000" points="247,-97.7 247,-116.7 312,-116.7 312,-97.7 247,-97.7"/>
<text text-anchor="start" x="276.6105" y="-103.8" font-family="Helvetica,sans-Serif" font-size="11.00" fill="#000000">0 rows</text>
<polygon fill="#ffffff" stroke="transparent" points="312,-97.7 312,-116.7 423,-116.7 423,-97.7 312,-97.7"/>
<polygon fill="none" stroke="#000000" points="312,-97.7 312,-116.7 423,-116.7 423,-97.7 312,-97.7"/>
<text text-anchor="start" x="404.4053" y="-103.8" font-family="Helvetica,sans-Serif" font-size="11.00" fill="#000000">0 &gt;</text>
<polygon fill="none" stroke="#000000" stroke-width="2" points="198,-96.7 198,-338.7 424,-338.7 424,-96.7 198,-96.7"/>
</a>
</g>
</g>
<!-- user_role -->
<g id="node2" class="node">
<title>user_role</title>
<g id="a_node2"><a xlink:href="../../tables/user_role.html" xlink:title="user_role" target="_top">
<polygon fill="#ffffff" stroke="transparent" points="31.5,-142.2 31.5,-225.2 124.5,-225.2 124.5,-142.2 31.5,-142.2"/>
<polygon fill="#f5f5f5" stroke="transparent" points="32,-201.7 32,-224.7 125,-224.7 125,-201.7 32,-201.7"/>
<polygon fill="none" stroke="#000000" points="32,-201.7 32,-224.7 125,-224.7 125,-201.7 32,-201.7"/>
<text text-anchor="start" x="37" y="-210.3" font-family="Helvetica,sans-Serif" font-weight="bold" font-size="11.00" fill="#000000">user_role</text>
<text text-anchor="start" x="90.5219" y="-209.8" font-family="Helvetica,sans-Serif" font-size="11.00" fill="#000000">[table]</text>
<polygon fill="none" stroke="#000000" points="32,-179.7 32,-201.7 125,-201.7 125,-179.7 32,-179.7"/>
<image xlink:href="../../images/primaryKeys.png" width="11px" height="12px" preserveAspectRatio="xMinYMin meet" x="37" y="-196.7"/>
<text text-anchor="start" x="61" y="-186.8" font-family="Helvetica,sans-Serif" font-size="11.00" fill="#000000">ID</text>
<polygon fill="none" stroke="#000000" points="32,-160.7 32,-179.7 125,-179.7 125,-160.7 32,-160.7"/>
<text text-anchor="start" x="35" y="-166.8" font-family="Helvetica,sans-Serif" font-size="11.00" fill="#000000">...</text>
<polygon fill="#ffffff" stroke="transparent" points="32,-141.7 32,-160.7 52,-160.7 52,-141.7 32,-141.7"/>
<polygon fill="none" stroke="#000000" points="32,-141.7 32,-160.7 52,-160.7 52,-141.7 32,-141.7"/>
<text text-anchor="start" x="35" y="-147.8" font-family="Helvetica,sans-Serif" font-size="11.00" fill="#000000"> &#160;</text>
<polygon fill="#ffffff" stroke="transparent" points="52,-141.7 52,-160.7 100,-160.7 100,-141.7 52,-141.7"/>
<polygon fill="none" stroke="#000000" points="52,-141.7 52,-160.7 100,-160.7 100,-141.7 52,-141.7"/>
<text text-anchor="start" x="58.4956" y="-147.8" font-family="Helvetica,sans-Serif" font-size="11.00" fill="#000000">27 rows</text>
<polygon fill="#ffffff" stroke="transparent" points="100,-141.7 100,-160.7 125,-160.7 125,-141.7 100,-141.7"/>
<polygon fill="none" stroke="#000000" points="100,-141.7 100,-160.7 125,-160.7 125,-141.7 100,-141.7"/>
<text text-anchor="start" x="106.4053" y="-147.8" font-family="Helvetica,sans-Serif" font-size="11.00" fill="#000000">2 &gt;</text>
</a>
</g>
</g>
<!-- user_roleassign&#45;&gt;user_role -->
<g id="edge1" class="edge">
<title>user_roleassign:w&#45;&gt;user_role:e</title>
<path fill="none" stroke="#000000" d="M184.5673,-152.142C160.9015,-160.9685 157.0184,-190.7 125,-190.7"/>
<polygon fill="#000000" stroke="#000000" points="191.1121,-151.0346 199.6006,-153.2496 195.0561,-150.3673 199,-149.7 199,-149.7 199,-149.7 195.0561,-150.3673 198.3994,-146.1504 191.1121,-151.0346 191.1121,-151.0346"/>
<ellipse fill="none" stroke="#000000" cx="187.9569" cy="-151.5685" rx="3.2" ry="3.2"/>
</g>
<!-- user_user -->
<g id="node3" class="node">
<title>user_user</title>
<g id="a_node3"><a xlink:href="../../tables/user_user.html" xlink:title="user_user" target="_top">
<polygon fill="#ffffff" stroke="transparent" points="8,-38.2 8,-121.2 148,-121.2 148,-38.2 8,-38.2"/>
<polygon fill="#f5f5f5" stroke="transparent" points="8,-97.7 8,-120.7 148,-120.7 148,-97.7 8,-97.7"/>
<polygon fill="none" stroke="#000000" points="8,-97.7 8,-120.7 148,-120.7 148,-97.7 8,-97.7"/>
<text text-anchor="start" x="13" y="-106.3" font-family="Helvetica,sans-Serif" font-weight="bold" font-size="11.00" fill="#000000">user_user</text>
<text text-anchor="start" x="113.0437" y="-105.8" font-family="Helvetica,sans-Serif" font-size="11.00" fill="#000000">[table]</text>
<polygon fill="none" stroke="#000000" points="8,-75.7 8,-97.7 148,-97.7 148,-75.7 8,-75.7"/>
<image xlink:href="../../images/primaryKeys.png" width="11px" height="12px" preserveAspectRatio="xMinYMin meet" x="13" y="-92.7"/>
<text text-anchor="start" x="28" y="-82.8" font-family="Helvetica,sans-Serif" font-size="11.00" fill="#000000">ID</text>
<polygon fill="none" stroke="#000000" points="8,-56.7 8,-75.7 148,-75.7 148,-56.7 8,-56.7"/>
<text text-anchor="start" x="11" y="-62.8" font-family="Helvetica,sans-Serif" font-size="11.00" fill="#000000">...</text>
<polygon fill="#ffffff" stroke="transparent" points="8,-37.7 8,-56.7 54,-56.7 54,-37.7 8,-37.7"/>
<polygon fill="none" stroke="#000000" points="8,-37.7 8,-56.7 54,-56.7 54,-37.7 8,-37.7"/>
<text text-anchor="start" x="11" y="-43.8" font-family="Helvetica,sans-Serif" font-size="11.00" fill="#000000"> &#160;</text>
<polygon fill="#ffffff" stroke="transparent" points="54,-37.7 54,-56.7 109,-56.7 109,-37.7 54,-37.7"/>
<polygon fill="none" stroke="#000000" points="54,-37.7 54,-56.7 109,-56.7 109,-37.7 54,-37.7"/>
<text text-anchor="start" x="73.6105" y="-43.8" font-family="Helvetica,sans-Serif" font-size="11.00" fill="#000000">0 rows</text>
<polygon fill="#ffffff" stroke="transparent" points="109,-37.7 109,-56.7 148,-56.7 148,-37.7 109,-37.7"/>
<polygon fill="none" stroke="#000000" points="109,-37.7 109,-56.7 148,-56.7 148,-37.7 109,-37.7"/>
<text text-anchor="start" x="129.4053" y="-43.8" font-family="Helvetica,sans-Serif" font-size="11.00" fill="#000000">1 &gt;</text>
</a>
</g>
</g>
<!-- user_roleassign&#45;&gt;user_user -->
<g id="edge2" class="edge">
<title>user_roleassign:w&#45;&gt;user_user:e</title>
<path fill="none" stroke="#000000" d="M185.1568,-123.3123C171.3325,-112.7354 171.1756,-86.7 148,-86.7"/>
<polygon fill="#000000" stroke="#000000" points="191.3739,-125.2828 197.9123,-131.1317 195.1869,-126.4914 199,-127.7 199,-127.7 199,-127.7 195.1869,-126.4914 200.0877,-124.2683 191.3739,-125.2828 191.3739,-125.2828"/>
<ellipse fill="none" stroke="#000000" cx="188.3235" cy="-124.3159" rx="3.2" ry="3.2"/>
</g>
</g>
</svg>
