<?xml version="1.0" encoding="UTF-8" standalone="no"?>
<!DOCTYPE svg PUBLIC "-//W3C//DTD SVG 1.1//EN"
 "http://www.w3.org/Graphics/SVG/1.1/DTD/svg11.dtd">
<!-- Generated by graphviz version 2.40.1 (20161225.0304)
 -->
<!-- Title: twoDegreesRelationshipsDiagram Pages: 1 -->
<svg width="619pt" height="417pt"
 viewBox="0.00 0.00 619.00 416.70" xmlns="http://www.w3.org/2000/svg" xmlns:xlink="http://www.w3.org/1999/xlink">
<g id="graph0" class="graph" transform="scale(1 1) rotate(0) translate(4 412.7)">
<title>twoDegreesRelationshipsDiagram</title>
<polygon fill="#ffffff" stroke="transparent" points="-4,4 -4,-412.7 615,-412.7 615,4 -4,4"/>
<text text-anchor="middle" x="72.4936" y="-7.3" font-family="Helvetica,sans-Serif" font-size="11.00" fill="#000000">Generated by SchemaSpy</text>
<!-- user_menuitem -->
<g id="node1" class="node">
<title>user_menuitem</title>
<g id="a_node1"><a xlink:href="../../tables/user_menuitem.html" xlink:title="user_menuitem" target="_top">
<polygon fill="#ffffff" stroke="transparent" points="181,-144.2 181,-249.2 308,-249.2 308,-144.2 181,-144.2"/>
<polygon fill="#f5f5f5" stroke="transparent" points="181.5,-225.7 181.5,-248.7 308.5,-248.7 308.5,-225.7 181.5,-225.7"/>
<polygon fill="none" stroke="#000000" points="181.5,-225.7 181.5,-248.7 308.5,-248.7 308.5,-225.7 181.5,-225.7"/>
<text text-anchor="start" x="186.5" y="-234.3" font-family="Helvetica,sans-Serif" font-weight="bold" font-size="11.00" fill="#000000">user_menuitem</text>
<text text-anchor="start" x="274.0219" y="-233.8" font-family="Helvetica,sans-Serif" font-size="11.00" fill="#000000">[table]</text>
<polygon fill="none" stroke="#000000" points="181.5,-203.7 181.5,-225.7 308.5,-225.7 308.5,-203.7 181.5,-203.7"/>
<image xlink:href="../../images/primaryKeys.png" width="11px" height="12px" preserveAspectRatio="xMinYMin meet" x="186.5" y="-220.7"/>
<text text-anchor="start" x="204.5" y="-210.8" font-family="Helvetica,sans-Serif" font-size="11.00" fill="#000000">ID</text>
<polygon fill="#ffffff" stroke="transparent" points="181.5,-181.7 181.5,-203.7 308.5,-203.7 308.5,-181.7 181.5,-181.7"/>
<polygon fill="none" stroke="#000000" points="181.5,-181.7 181.5,-203.7 308.5,-203.7 308.5,-181.7 181.5,-181.7"/>
<image xlink:href="../../images/foreignKeys.png" width="11px" height="12px" preserveAspectRatio="xMinYMin meet" x="186.5" y="-198.7"/>
<text text-anchor="start" x="204.5" y="-188.8" font-family="Helvetica,sans-Serif" font-size="11.00" fill="#000000">User_SubMenuFk</text>
<polygon fill="none" stroke="#000000" points="181.5,-162.7 181.5,-181.7 308.5,-181.7 308.5,-162.7 181.5,-162.7"/>
<text text-anchor="start" x="184.5" y="-168.8" font-family="Helvetica,sans-Serif" font-size="11.00" fill="#000000">...</text>
<polygon fill="#ffffff" stroke="transparent" points="181.5,-143.7 181.5,-162.7 219.5,-162.7 219.5,-143.7 181.5,-143.7"/>
<polygon fill="none" stroke="#000000" points="181.5,-143.7 181.5,-162.7 219.5,-162.7 219.5,-143.7 181.5,-143.7"/>
<text text-anchor="start" x="184.5" y="-149.8" font-family="Helvetica,sans-Serif" font-size="11.00" fill="#000000">&lt; 1</text>
<polygon fill="#ffffff" stroke="transparent" points="219.5,-143.7 219.5,-162.7 278.5,-162.7 278.5,-143.7 219.5,-143.7"/>
<polygon fill="none" stroke="#000000" points="219.5,-143.7 219.5,-162.7 278.5,-162.7 278.5,-143.7 219.5,-143.7"/>
<text text-anchor="start" x="230.8807" y="-149.8" font-family="Helvetica,sans-Serif" font-size="11.00" fill="#000000">392 rows</text>
<polygon fill="#ffffff" stroke="transparent" points="278.5,-143.7 278.5,-162.7 308.5,-162.7 308.5,-143.7 278.5,-143.7"/>
<polygon fill="none" stroke="#000000" points="278.5,-143.7 278.5,-162.7 308.5,-162.7 308.5,-143.7 278.5,-143.7"/>
<text text-anchor="start" x="289.9053" y="-149.8" font-family="Helvetica,sans-Serif" font-size="11.00" fill="#000000">1 &gt;</text>
</a>
</g>
</g>
<!-- user_submenu -->
<g id="node2" class="node">
<title>user_submenu</title>
<g id="a_node2"><a xlink:href="../../tables/user_submenu.html" xlink:title="user_submenu" target="_top">
<polygon fill="#ffffff" stroke="transparent" points="8,-165.2 8,-226.2 132,-226.2 132,-165.2 8,-165.2"/>
<polygon fill="#f5f5f5" stroke="transparent" points="8,-202.7 8,-225.7 132,-225.7 132,-202.7 8,-202.7"/>
<polygon fill="none" stroke="#000000" points="8,-202.7 8,-225.7 132,-225.7 132,-202.7 8,-202.7"/>
<text text-anchor="start" x="13" y="-211.3" font-family="Helvetica,sans-Serif" font-weight="bold" font-size="11.00" fill="#000000">user_submenu</text>
<text text-anchor="start" x="97.5219" y="-210.8" font-family="Helvetica,sans-Serif" font-size="11.00" fill="#000000">[table]</text>
<polygon fill="none" stroke="#000000" points="8,-183.7 8,-202.7 132,-202.7 132,-183.7 8,-183.7"/>
<text text-anchor="start" x="11" y="-189.8" font-family="Helvetica,sans-Serif" font-size="11.00" fill="#000000">...</text>
<polygon fill="#ffffff" stroke="transparent" points="8,-164.7 8,-183.7 51,-183.7 51,-164.7 8,-164.7"/>
<polygon fill="none" stroke="#000000" points="8,-164.7 8,-183.7 51,-183.7 51,-164.7 8,-164.7"/>
<text text-anchor="start" x="11" y="-170.8" font-family="Helvetica,sans-Serif" font-size="11.00" fill="#000000">&lt; 1</text>
<polygon fill="#ffffff" stroke="transparent" points="51,-164.7 51,-183.7 100,-183.7 100,-164.7 51,-164.7"/>
<polygon fill="none" stroke="#000000" points="51,-164.7 51,-183.7 100,-183.7 100,-164.7 51,-164.7"/>
<text text-anchor="start" x="64.6105" y="-170.8" font-family="Helvetica,sans-Serif" font-size="11.00" fill="#000000">0 rows</text>
<polygon fill="#ffffff" stroke="transparent" points="100,-164.7 100,-183.7 132,-183.7 132,-164.7 100,-164.7"/>
<polygon fill="none" stroke="#000000" points="100,-164.7 100,-183.7 132,-183.7 132,-164.7 100,-164.7"/>
<text text-anchor="start" x="113.4053" y="-170.8" font-family="Helvetica,sans-Serif" font-size="11.00" fill="#000000">1 &gt;</text>
</a>
</g>
</g>
<!-- user_menuitem&#45;&gt;user_submenu -->
<g id="edge1" class="edge">
<title>user_menuitem:w&#45;&gt;user_submenu:e</title>
<path fill="none" stroke="#000000" d="M166.8428,-192.7C155.4139,-192.7 148.1563,-192.7 132,-192.7"/>
<polygon fill="#000000" stroke="#000000" points="173.5,-192.7001 181.5,-196.3 177.5,-192.7 181.5,-192.7 181.5,-192.7 181.5,-192.7 177.5,-192.7 181.5,-189.1 173.5,-192.7001 173.5,-192.7001"/>
<ellipse fill="none" stroke="#000000" cx="170.3" cy="-192.7001" rx="3.2" ry="3.2"/>
</g>
<!-- user_roleassign -->
<g id="node3" class="node">
<title>user_roleassign</title>
<g id="a_node3"><a xlink:href="../../tables/user_roleassign.html" xlink:title="user_roleassign" target="_top">
<polygon fill="#ffffff" stroke="transparent" points="414.5,-56.2 414.5,-117.2 545.5,-117.2 545.5,-56.2 414.5,-56.2"/>
<polygon fill="#f5f5f5" stroke="transparent" points="415,-93.7 415,-116.7 546,-116.7 546,-93.7 415,-93.7"/>
<polygon fill="none" stroke="#000000" points="415,-93.7 415,-116.7 546,-116.7 546,-93.7 415,-93.7"/>
<text text-anchor="start" x="420" y="-102.3" font-family="Helvetica,sans-Serif" font-weight="bold" font-size="11.00" fill="#000000">user_roleassign</text>
<text text-anchor="start" x="511.5219" y="-101.8" font-family="Helvetica,sans-Serif" font-size="11.00" fill="#000000">[table]</text>
<polygon fill="none" stroke="#000000" points="415,-74.7 415,-93.7 546,-93.7 546,-74.7 415,-74.7"/>
<text text-anchor="start" x="418" y="-80.8" font-family="Helvetica,sans-Serif" font-size="11.00" fill="#000000">...</text>
<polygon fill="#ffffff" stroke="transparent" points="415,-55.7 415,-74.7 466,-74.7 466,-55.7 415,-55.7"/>
<polygon fill="none" stroke="#000000" points="415,-55.7 415,-74.7 466,-74.7 466,-55.7 415,-55.7"/>
<text text-anchor="start" x="418" y="-61.8" font-family="Helvetica,sans-Serif" font-size="11.00" fill="#000000">&lt; 2</text>
<polygon fill="#ffffff" stroke="transparent" points="466,-55.7 466,-74.7 519,-74.7 519,-55.7 466,-55.7"/>
<polygon fill="none" stroke="#000000" points="466,-55.7 466,-74.7 519,-74.7 519,-55.7 466,-55.7"/>
<text text-anchor="start" x="483.6105" y="-61.8" font-family="Helvetica,sans-Serif" font-size="11.00" fill="#000000">0 rows</text>
<polygon fill="#ffffff" stroke="transparent" points="519,-55.7 519,-74.7 546,-74.7 546,-55.7 519,-55.7"/>
<polygon fill="none" stroke="#000000" points="519,-55.7 519,-74.7 546,-74.7 546,-55.7 519,-55.7"/>
<text text-anchor="start" x="536.8862" y="-61.8" font-family="Helvetica,sans-Serif" font-size="11.00" fill="#000000"> &#160;</text>
</a>
</g>
</g>
<!-- user_role -->
<g id="node4" class="node">
<title>user_role</title>
<g id="a_node4"><a xlink:href="../../tables/user_role.html" xlink:title="user_role" target="_top">
<polygon fill="#ffffff" stroke="transparent" points="198,-38.2 198,-121.2 291,-121.2 291,-38.2 198,-38.2"/>
<polygon fill="#f5f5f5" stroke="transparent" points="198.5,-97.7 198.5,-120.7 291.5,-120.7 291.5,-97.7 198.5,-97.7"/>
<polygon fill="none" stroke="#000000" points="198.5,-97.7 198.5,-120.7 291.5,-120.7 291.5,-97.7 198.5,-97.7"/>
<text text-anchor="start" x="203.5" y="-106.3" font-family="Helvetica,sans-Serif" font-weight="bold" font-size="11.00" fill="#000000">user_role</text>
<text text-anchor="start" x="257.0219" y="-105.8" font-family="Helvetica,sans-Serif" font-size="11.00" fill="#000000">[table]</text>
<polygon fill="none" stroke="#000000" points="198.5,-75.7 198.5,-97.7 291.5,-97.7 291.5,-75.7 198.5,-75.7"/>
<image xlink:href="../../images/primaryKeys.png" width="11px" height="12px" preserveAspectRatio="xMinYMin meet" x="203.5" y="-92.7"/>
<text text-anchor="start" x="227.5" y="-82.8" font-family="Helvetica,sans-Serif" font-size="11.00" fill="#000000">ID</text>
<polygon fill="none" stroke="#000000" points="198.5,-56.7 198.5,-75.7 291.5,-75.7 291.5,-56.7 198.5,-56.7"/>
<text text-anchor="start" x="201.5" y="-62.8" font-family="Helvetica,sans-Serif" font-size="11.00" fill="#000000">...</text>
<polygon fill="#ffffff" stroke="transparent" points="198.5,-37.7 198.5,-56.7 218.5,-56.7 218.5,-37.7 198.5,-37.7"/>
<polygon fill="none" stroke="#000000" points="198.5,-37.7 198.5,-56.7 218.5,-56.7 218.5,-37.7 198.5,-37.7"/>
<text text-anchor="start" x="201.5" y="-43.8" font-family="Helvetica,sans-Serif" font-size="11.00" fill="#000000"> &#160;</text>
<polygon fill="#ffffff" stroke="transparent" points="218.5,-37.7 218.5,-56.7 266.5,-56.7 266.5,-37.7 218.5,-37.7"/>
<polygon fill="none" stroke="#000000" points="218.5,-37.7 218.5,-56.7 266.5,-56.7 266.5,-37.7 218.5,-37.7"/>
<text text-anchor="start" x="224.9956" y="-43.8" font-family="Helvetica,sans-Serif" font-size="11.00" fill="#000000">27 rows</text>
<polygon fill="#ffffff" stroke="transparent" points="266.5,-37.7 266.5,-56.7 291.5,-56.7 291.5,-37.7 266.5,-37.7"/>
<polygon fill="none" stroke="#000000" points="266.5,-37.7 266.5,-56.7 291.5,-56.7 291.5,-37.7 266.5,-37.7"/>
<text text-anchor="start" x="272.9053" y="-43.8" font-family="Helvetica,sans-Serif" font-size="11.00" fill="#000000">2 &gt;</text>
</a>
</g>
</g>
<!-- user_roleassign&#45;&gt;user_role -->
<g id="edge2" class="edge">
<title>user_roleassign:w&#45;&gt;user_role:e</title>
<path fill="none" stroke="#000000" d="M400.5768,-83.7742C357.1658,-84.2361 341.2577,-86.7 291.5,-86.7"/>
<polygon fill="#000000" stroke="#000000" points="407.0001,-83.7412 415.0185,-87.3 411.0001,-83.7206 415,-83.7 415,-83.7 415,-83.7 411.0001,-83.7206 414.9815,-80.1 407.0001,-83.7412 407.0001,-83.7412"/>
<ellipse fill="none" stroke="#000000" cx="403.8001" cy="-83.7577" rx="3.2" ry="3.2"/>
</g>
<!-- user_rolemenuitem -->
<g id="node5" class="node">
<title>user_rolemenuitem</title>
<g id="a_node5"><a xlink:href="../../tables/user_rolemenuitem.html" xlink:title="user_rolemenuitem" target="_top">
<polygon fill="#ffffff" stroke="transparent" points="357,-138.7 357,-404.7 603,-404.7 603,-138.7 357,-138.7"/>
<polygon fill="#f5f5f5" stroke="transparent" points="359,-379.7 359,-402.7 601,-402.7 601,-379.7 359,-379.7"/>
<polygon fill="none" stroke="#000000" points="359,-379.7 359,-402.7 601,-402.7 601,-379.7 359,-379.7"/>
<text text-anchor="start" x="364" y="-388.3" font-family="Helvetica,sans-Serif" font-weight="bold" font-size="11.00" fill="#000000">user_rolemenuitem</text>
<text text-anchor="start" x="566.0437" y="-387.8" font-family="Helvetica,sans-Serif" font-size="11.00" fill="#000000">[table]</text>
<polygon fill="none" stroke="#000000" points="359,-357.7 359,-379.7 490,-379.7 490,-357.7 359,-357.7"/>
<image xlink:href="../../images/primaryKeys.png" width="11px" height="12px" preserveAspectRatio="xMinYMin meet" x="364" y="-374.7"/>
<text text-anchor="start" x="379" y="-364.8" font-family="Helvetica,sans-Serif" font-size="11.00" fill="#000000">ID</text>
<polygon fill="none" stroke="#000000" points="490,-357.7 490,-379.7 601,-379.7 601,-357.7 490,-357.7"/>
<text text-anchor="start" x="493" y="-365.4" font-family="Helvetica,sans-Serif" font-size="11.00" fill="#000000">int[10]</text>
<polygon fill="none" stroke="#000000" points="359,-335.7 359,-357.7 490,-357.7 490,-335.7 359,-335.7"/>
<text text-anchor="start" x="379" y="-342.8" font-family="Helvetica,sans-Serif" font-size="11.00" fill="#000000">Active</text>
<polygon fill="none" stroke="#000000" points="490,-335.7 490,-357.7 601,-357.7 601,-335.7 490,-335.7"/>
<text text-anchor="start" x="493" y="-343.4" font-family="Helvetica,sans-Serif" font-size="11.00" fill="#000000">bit[1]</text>
<polygon fill="none" stroke="#000000" points="359,-313.7 359,-335.7 490,-335.7 490,-313.7 359,-313.7"/>
<text text-anchor="start" x="379" y="-320.8" font-family="Helvetica,sans-Serif" font-size="11.00" fill="#000000">User</text>
<polygon fill="none" stroke="#000000" points="490,-313.7 490,-335.7 601,-335.7 601,-313.7 490,-313.7"/>
<text text-anchor="start" x="492.6115" y="-321.4" font-family="Helvetica,sans-Serif" font-size="11.00" fill="#000000">longtext[2147483647]</text>
<polygon fill="none" stroke="#000000" points="359,-291.7 359,-313.7 490,-313.7 490,-291.7 359,-291.7"/>
<text text-anchor="start" x="379" y="-298.8" font-family="Helvetica,sans-Serif" font-size="11.00" fill="#000000">CD</text>
<polygon fill="none" stroke="#000000" points="490,-291.7 490,-313.7 601,-313.7 601,-291.7 490,-291.7"/>
<text text-anchor="start" x="493" y="-299.4" font-family="Helvetica,sans-Serif" font-size="11.00" fill="#000000">datetime[26]</text>
<polygon fill="none" stroke="#000000" points="359,-269.7 359,-291.7 490,-291.7 490,-269.7 359,-269.7"/>
<text text-anchor="start" x="379" y="-276.8" font-family="Helvetica,sans-Serif" font-size="11.00" fill="#000000">UD</text>
<polygon fill="none" stroke="#000000" points="490,-269.7 490,-291.7 601,-291.7 601,-269.7 490,-269.7"/>
<text text-anchor="start" x="493" y="-277.4" font-family="Helvetica,sans-Serif" font-size="11.00" fill="#000000">datetime[26]</text>
<polygon fill="none" stroke="#000000" points="359,-247.7 359,-269.7 490,-269.7 490,-247.7 359,-247.7"/>
<text text-anchor="start" x="379" y="-254.8" font-family="Helvetica,sans-Serif" font-size="11.00" fill="#000000">Remarks</text>
<polygon fill="none" stroke="#000000" points="490,-247.7 490,-269.7 601,-269.7 601,-247.7 490,-247.7"/>
<text text-anchor="start" x="492.6115" y="-255.4" font-family="Helvetica,sans-Serif" font-size="11.00" fill="#000000">longtext[2147483647]</text>
<polygon fill="none" stroke="#000000" points="359,-225.7 359,-247.7 490,-247.7 490,-225.7 359,-225.7"/>
<text text-anchor="start" x="379" y="-232.8" font-family="Helvetica,sans-Serif" font-size="11.00" fill="#000000">UserID</text>
<polygon fill="none" stroke="#000000" points="490,-225.7 490,-247.7 601,-247.7 601,-225.7 490,-225.7"/>
<text text-anchor="start" x="493" y="-233.4" font-family="Helvetica,sans-Serif" font-size="11.00" fill="#000000">int[10]</text>
<polygon fill="#ffffff" stroke="transparent" points="359,-203.7 359,-225.7 490,-225.7 490,-203.7 359,-203.7"/>
<polygon fill="none" stroke="#000000" points="359,-203.7 359,-225.7 490,-225.7 490,-203.7 359,-203.7"/>
<image xlink:href="../../images/foreignKeys.png" width="11px" height="12px" preserveAspectRatio="xMinYMin meet" x="364" y="-220.7"/>
<text text-anchor="start" x="379" y="-210.8" font-family="Helvetica,sans-Serif" font-size="11.00" fill="#000000">User_MenuItemFk</text>
<polygon fill="none" stroke="#000000" points="490,-203.7 490,-225.7 601,-225.7 601,-203.7 490,-203.7"/>
<text text-anchor="start" x="493" y="-211.4" font-family="Helvetica,sans-Serif" font-size="11.00" fill="#000000">int[10]</text>
<polygon fill="#ffffff" stroke="transparent" points="359,-181.7 359,-203.7 490,-203.7 490,-181.7 359,-181.7"/>
<polygon fill="none" stroke="#000000" points="359,-181.7 359,-203.7 490,-203.7 490,-181.7 359,-181.7"/>
<image xlink:href="../../images/foreignKeys.png" width="11px" height="12px" preserveAspectRatio="xMinYMin meet" x="364" y="-198.7"/>
<text text-anchor="start" x="379" y="-188.8" font-family="Helvetica,sans-Serif" font-size="11.00" fill="#000000">User_RoleFK</text>
<polygon fill="none" stroke="#000000" points="490,-181.7 490,-203.7 601,-203.7 601,-181.7 490,-181.7"/>
<text text-anchor="start" x="493" y="-189.4" font-family="Helvetica,sans-Serif" font-size="11.00" fill="#000000">int[10]</text>
<polygon fill="none" stroke="#000000" points="359,-159.7 359,-181.7 490,-181.7 490,-159.7 359,-159.7"/>
<text text-anchor="start" x="379" y="-166.8" font-family="Helvetica,sans-Serif" font-size="11.00" fill="#000000">IsAllowed</text>
<polygon fill="none" stroke="#000000" points="490,-159.7 490,-181.7 601,-181.7 601,-159.7 490,-159.7"/>
<text text-anchor="start" x="493" y="-167.4" font-family="Helvetica,sans-Serif" font-size="11.00" fill="#000000">bit[1]</text>
<polygon fill="#ffffff" stroke="transparent" points="359,-140.7 359,-159.7 416,-159.7 416,-140.7 359,-140.7"/>
<polygon fill="none" stroke="#000000" points="359,-140.7 359,-159.7 416,-159.7 416,-140.7 359,-140.7"/>
<text text-anchor="start" x="362" y="-146.8" font-family="Helvetica,sans-Serif" font-size="11.00" fill="#000000">&lt; 2</text>
<polygon fill="#ffffff" stroke="transparent" points="416,-140.7 416,-159.7 490,-159.7 490,-140.7 416,-140.7"/>
<polygon fill="none" stroke="#000000" points="416,-140.7 416,-159.7 490,-159.7 490,-140.7 416,-140.7"/>
<text text-anchor="start" x="454.6105" y="-146.8" font-family="Helvetica,sans-Serif" font-size="11.00" fill="#000000">0 rows</text>
<polygon fill="#ffffff" stroke="transparent" points="490,-140.7 490,-159.7 601,-159.7 601,-140.7 490,-140.7"/>
<polygon fill="none" stroke="#000000" points="490,-140.7 490,-159.7 601,-159.7 601,-140.7 490,-140.7"/>
<text text-anchor="start" x="582.4053" y="-146.8" font-family="Helvetica,sans-Serif" font-size="11.00" fill="#000000">0 &gt;</text>
<polygon fill="none" stroke="#000000" stroke-width="2" points="358,-139.7 358,-403.7 602,-403.7 602,-139.7 358,-139.7"/>
</a>
</g>
</g>
<!-- user_rolemenuitem&#45;&gt;user_menuitem -->
<g id="edge3" class="edge">
<title>user_rolemenuitem:w&#45;&gt;user_menuitem:e</title>
<path fill="none" stroke="#000000" d="M344.4203,-214.7C332.5435,-214.7 325.158,-214.7 308.5,-214.7"/>
<polygon fill="#000000" stroke="#000000" points="351,-214.7001 359,-218.3 355,-214.7 359,-214.7 359,-214.7 359,-214.7 355,-214.7 359,-211.1 351,-214.7001 351,-214.7001"/>
<ellipse fill="none" stroke="#000000" cx="347.8" cy="-214.7001" rx="3.2" ry="3.2"/>
</g>
<!-- user_rolemenuitem&#45;&gt;user_role -->
<g id="edge4" class="edge">
<title>user_rolemenuitem:w&#45;&gt;user_role:e</title>
<path fill="none" stroke="#000000" d="M344.8691,-189.6419C311.0948,-172.2621 341.6796,-86.7 291.5,-86.7"/>
<polygon fill="#000000" stroke="#000000" points="351.181,-191.0078 358.2385,-196.2186 355.0905,-191.8539 359,-192.7 359,-192.7 359,-192.7 355.0905,-191.8539 359.7615,-189.1814 351.181,-191.0078 351.181,-191.0078"/>
<ellipse fill="none" stroke="#000000" cx="348.0534" cy="-190.331" rx="3.2" ry="3.2"/>
</g>
</g>
</svg>
