<?xml version="1.0" encoding="UTF-8" standalone="no"?>
<!DOCTYPE svg PUBLIC "-//W3C//DTD SVG 1.1//EN"
 "http://www.w3.org/Graphics/SVG/1.1/DTD/svg11.dtd">
<!-- Generated by graphviz version 2.40.1 (20161225.0304)
 -->
<!-- Title: oneDegreeRelationshipsDiagram Pages: 1 -->
<svg width="306pt" height="316pt"
 viewBox="0.00 0.00 306.00 316.20" xmlns="http://www.w3.org/2000/svg" xmlns:xlink="http://www.w3.org/1999/xlink">
<g id="graph0" class="graph" transform="scale(1 1) rotate(0) translate(4 312.2)">
<title>oneDegreeRelationshipsDiagram</title>
<polygon fill="#ffffff" stroke="transparent" points="-4,4 -4,-312.2 302,-312.2 302,4 -4,4"/>
<text text-anchor="middle" x="72.4936" y="-7.3" font-family="Helvetica,sans-Serif" font-size="11.00" fill="#000000">Generated by SchemaSpy</text>
<!-- user_accountlimit -->
<g id="node1" class="node">
<title>user_accountlimit</title>
<g id="a_node1"><a xlink:href="../../tables/user_accountlimit.html" xlink:title="user_accountlimit" target="_top">
<polygon fill="#ffffff" stroke="transparent" points="8,-38.2 8,-304.2 290,-304.2 290,-38.2 8,-38.2"/>
<polygon fill="#f5f5f5" stroke="transparent" points="10,-279.2 10,-302.2 288,-302.2 288,-279.2 10,-279.2"/>
<polygon fill="none" stroke="#000000" points="10,-279.2 10,-302.2 288,-302.2 288,-279.2 10,-279.2"/>
<text text-anchor="start" x="15" y="-287.8" font-family="Helvetica,sans-Serif" font-weight="bold" font-size="11.00" fill="#000000">user_accountlimit</text>
<text text-anchor="start" x="253.0437" y="-287.3" font-family="Helvetica,sans-Serif" font-size="11.00" fill="#000000">[table]</text>
<polygon fill="none" stroke="#000000" points="10,-257.2 10,-279.2 177,-279.2 177,-257.2 10,-257.2"/>
<image xlink:href="../../images/primaryKeys.png" width="11px" height="12px" preserveAspectRatio="xMinYMin meet" x="15" y="-274.2"/>
<text text-anchor="start" x="30" y="-264.3" font-family="Helvetica,sans-Serif" font-size="11.00" fill="#000000">ID</text>
<polygon fill="none" stroke="#000000" points="177,-257.2 177,-279.2 288,-279.2 288,-257.2 177,-257.2"/>
<text text-anchor="start" x="180" y="-264.9" font-family="Helvetica,sans-Serif" font-size="11.00" fill="#000000">int[10]</text>
<polygon fill="none" stroke="#000000" points="10,-235.2 10,-257.2 177,-257.2 177,-235.2 10,-235.2"/>
<text text-anchor="start" x="30" y="-242.3" font-family="Helvetica,sans-Serif" font-size="11.00" fill="#000000">Active</text>
<polygon fill="none" stroke="#000000" points="177,-235.2 177,-257.2 288,-257.2 288,-235.2 177,-235.2"/>
<text text-anchor="start" x="180" y="-242.9" font-family="Helvetica,sans-Serif" font-size="11.00" fill="#000000">bit[1]</text>
<polygon fill="none" stroke="#000000" points="10,-213.2 10,-235.2 177,-235.2 177,-213.2 10,-213.2"/>
<text text-anchor="start" x="30" y="-220.3" font-family="Helvetica,sans-Serif" font-size="11.00" fill="#000000">User</text>
<polygon fill="none" stroke="#000000" points="177,-213.2 177,-235.2 288,-235.2 288,-213.2 177,-213.2"/>
<text text-anchor="start" x="179.6115" y="-220.9" font-family="Helvetica,sans-Serif" font-size="11.00" fill="#000000">longtext[2147483647]</text>
<polygon fill="none" stroke="#000000" points="10,-191.2 10,-213.2 177,-213.2 177,-191.2 10,-191.2"/>
<text text-anchor="start" x="30" y="-198.3" font-family="Helvetica,sans-Serif" font-size="11.00" fill="#000000">CD</text>
<polygon fill="none" stroke="#000000" points="177,-191.2 177,-213.2 288,-213.2 288,-191.2 177,-191.2"/>
<text text-anchor="start" x="180" y="-198.9" font-family="Helvetica,sans-Serif" font-size="11.00" fill="#000000">datetime[26]</text>
<polygon fill="none" stroke="#000000" points="10,-169.2 10,-191.2 177,-191.2 177,-169.2 10,-169.2"/>
<text text-anchor="start" x="30" y="-176.3" font-family="Helvetica,sans-Serif" font-size="11.00" fill="#000000">UD</text>
<polygon fill="none" stroke="#000000" points="177,-169.2 177,-191.2 288,-191.2 288,-169.2 177,-169.2"/>
<text text-anchor="start" x="180" y="-176.9" font-family="Helvetica,sans-Serif" font-size="11.00" fill="#000000">datetime[26]</text>
<polygon fill="none" stroke="#000000" points="10,-147.2 10,-169.2 177,-169.2 177,-147.2 10,-147.2"/>
<text text-anchor="start" x="30" y="-154.3" font-family="Helvetica,sans-Serif" font-size="11.00" fill="#000000">Remarks</text>
<polygon fill="none" stroke="#000000" points="177,-147.2 177,-169.2 288,-169.2 288,-147.2 177,-147.2"/>
<text text-anchor="start" x="179.6115" y="-154.9" font-family="Helvetica,sans-Serif" font-size="11.00" fill="#000000">longtext[2147483647]</text>
<polygon fill="none" stroke="#000000" points="10,-125.2 10,-147.2 177,-147.2 177,-125.2 10,-125.2"/>
<text text-anchor="start" x="30" y="-132.3" font-family="Helvetica,sans-Serif" font-size="11.00" fill="#000000">UserID</text>
<polygon fill="none" stroke="#000000" points="177,-125.2 177,-147.2 288,-147.2 288,-125.2 177,-125.2"/>
<text text-anchor="start" x="180" y="-132.9" font-family="Helvetica,sans-Serif" font-size="11.00" fill="#000000">int[10]</text>
<polygon fill="none" stroke="#000000" points="10,-103.2 10,-125.2 177,-125.2 177,-103.2 10,-103.2"/>
<text text-anchor="start" x="30" y="-110.3" font-family="Helvetica,sans-Serif" font-size="11.00" fill="#000000">User_PackageAccountFK</text>
<polygon fill="none" stroke="#000000" points="177,-103.2 177,-125.2 288,-125.2 288,-103.2 177,-103.2"/>
<text text-anchor="start" x="180" y="-110.9" font-family="Helvetica,sans-Serif" font-size="11.00" fill="#000000">int[10]</text>
<polygon fill="none" stroke="#000000" points="10,-81.2 10,-103.2 177,-103.2 177,-81.2 10,-81.2"/>
<text text-anchor="start" x="30" y="-88.3" font-family="Helvetica,sans-Serif" font-size="11.00" fill="#000000">User_UserFK</text>
<polygon fill="none" stroke="#000000" points="177,-81.2 177,-103.2 288,-103.2 288,-81.2 177,-81.2"/>
<text text-anchor="start" x="180" y="-88.9" font-family="Helvetica,sans-Serif" font-size="11.00" fill="#000000">int[10]</text>
<polygon fill="none" stroke="#000000" points="10,-59.2 10,-81.2 177,-81.2 177,-59.2 10,-59.2"/>
<text text-anchor="start" x="30" y="-66.3" font-family="Helvetica,sans-Serif" font-size="11.00" fill="#000000">AccountLimit</text>
<polygon fill="none" stroke="#000000" points="177,-59.2 177,-81.2 288,-81.2 288,-59.2 177,-59.2"/>
<text text-anchor="start" x="180" y="-66.9" font-family="Helvetica,sans-Serif" font-size="11.00" fill="#000000">int[10]</text>
<polygon fill="#ffffff" stroke="transparent" points="10,-40.2 10,-59.2 82,-59.2 82,-40.2 10,-40.2"/>
<polygon fill="none" stroke="#000000" points="10,-40.2 10,-59.2 82,-59.2 82,-40.2 10,-40.2"/>
<text text-anchor="start" x="13" y="-46.3" font-family="Helvetica,sans-Serif" font-size="11.00" fill="#000000">&lt; 0</text>
<polygon fill="#ffffff" stroke="transparent" points="82,-40.2 82,-59.2 177,-59.2 177,-40.2 82,-40.2"/>
<polygon fill="none" stroke="#000000" points="82,-40.2 82,-59.2 177,-59.2 177,-40.2 82,-40.2"/>
<text text-anchor="start" x="135.4956" y="-46.3" font-family="Helvetica,sans-Serif" font-size="11.00" fill="#000000">80 rows</text>
<polygon fill="#ffffff" stroke="transparent" points="177,-40.2 177,-59.2 288,-59.2 288,-40.2 177,-40.2"/>
<polygon fill="none" stroke="#000000" points="177,-40.2 177,-59.2 288,-59.2 288,-40.2 177,-40.2"/>
<text text-anchor="start" x="269.4053" y="-46.3" font-family="Helvetica,sans-Serif" font-size="11.00" fill="#000000">0 &gt;</text>
<polygon fill="none" stroke="#000000" stroke-width="2" points="9,-39.2 9,-303.2 289,-303.2 289,-39.2 9,-39.2"/>
</a>
</g>
</g>
</g>
</svg>
