<?xml version="1.0" encoding="UTF-8" standalone="no"?>
<!DOCTYPE svg PUBLIC "-//W3C//DTD SVG 1.1//EN"
 "http://www.w3.org/Graphics/SVG/1.1/DTD/svg11.dtd">
<!-- Generated by graphviz version 2.40.1 (20161225.0304)
 -->
<!-- Title: twoDegreesRelationshipsDiagram Pages: 1 -->
<svg width="784pt" height="509pt"
 viewBox="0.00 0.00 784.00 508.70" xmlns="http://www.w3.org/2000/svg" xmlns:xlink="http://www.w3.org/1999/xlink">
<g id="graph0" class="graph" transform="scale(1 1) rotate(0) translate(4 504.7)">
<title>twoDegreesRelationshipsDiagram</title>
<polygon fill="#ffffff" stroke="transparent" points="-4,4 -4,-504.7 780,-504.7 780,4 -4,4"/>
<text text-anchor="middle" x="72.4936" y="-7.3" font-family="Helvetica,sans-Serif" font-size="11.00" fill="#000000">Generated by SchemaSpy</text>
<!-- user_menuitem -->
<g id="node1" class="node">
<title>user_menuitem</title>
<g id="a_node1"><a xlink:href="../../tables/user_menuitem.html" xlink:title="user_menuitem" target="_top">
<polygon fill="#ffffff" stroke="transparent" points="333,-120.7 333,-496.7 570,-496.7 570,-120.7 333,-120.7"/>
<polygon fill="#f5f5f5" stroke="transparent" points="335.5,-471.7 335.5,-494.7 568.5,-494.7 568.5,-471.7 335.5,-471.7"/>
<polygon fill="none" stroke="#000000" points="335.5,-471.7 335.5,-494.7 568.5,-494.7 568.5,-471.7 335.5,-471.7"/>
<text text-anchor="start" x="340.5" y="-480.3" font-family="Helvetica,sans-Serif" font-weight="bold" font-size="11.00" fill="#000000">user_menuitem</text>
<text text-anchor="start" x="533.5437" y="-479.8" font-family="Helvetica,sans-Serif" font-size="11.00" fill="#000000">[table]</text>
<polygon fill="none" stroke="#000000" points="335.5,-449.7 335.5,-471.7 457.5,-471.7 457.5,-449.7 335.5,-449.7"/>
<image xlink:href="../../images/primaryKeys.png" width="11px" height="12px" preserveAspectRatio="xMinYMin meet" x="340.5" y="-466.7"/>
<text text-anchor="start" x="355.5" y="-456.8" font-family="Helvetica,sans-Serif" font-size="11.00" fill="#000000">ID</text>
<polygon fill="none" stroke="#000000" points="457.5,-449.7 457.5,-471.7 568.5,-471.7 568.5,-449.7 457.5,-449.7"/>
<text text-anchor="start" x="460.5" y="-457.4" font-family="Helvetica,sans-Serif" font-size="11.00" fill="#000000">int[10]</text>
<polygon fill="none" stroke="#000000" points="335.5,-427.7 335.5,-449.7 457.5,-449.7 457.5,-427.7 335.5,-427.7"/>
<text text-anchor="start" x="355.5" y="-434.8" font-family="Helvetica,sans-Serif" font-size="11.00" fill="#000000">Active</text>
<polygon fill="none" stroke="#000000" points="457.5,-427.7 457.5,-449.7 568.5,-449.7 568.5,-427.7 457.5,-427.7"/>
<text text-anchor="start" x="460.5" y="-435.4" font-family="Helvetica,sans-Serif" font-size="11.00" fill="#000000">bit[1]</text>
<polygon fill="none" stroke="#000000" points="335.5,-405.7 335.5,-427.7 457.5,-427.7 457.5,-405.7 335.5,-405.7"/>
<text text-anchor="start" x="355.5" y="-412.8" font-family="Helvetica,sans-Serif" font-size="11.00" fill="#000000">User</text>
<polygon fill="none" stroke="#000000" points="457.5,-405.7 457.5,-427.7 568.5,-427.7 568.5,-405.7 457.5,-405.7"/>
<text text-anchor="start" x="460.1115" y="-413.4" font-family="Helvetica,sans-Serif" font-size="11.00" fill="#000000">longtext[2147483647]</text>
<polygon fill="none" stroke="#000000" points="335.5,-383.7 335.5,-405.7 457.5,-405.7 457.5,-383.7 335.5,-383.7"/>
<text text-anchor="start" x="355.5" y="-390.8" font-family="Helvetica,sans-Serif" font-size="11.00" fill="#000000">CD</text>
<polygon fill="none" stroke="#000000" points="457.5,-383.7 457.5,-405.7 568.5,-405.7 568.5,-383.7 457.5,-383.7"/>
<text text-anchor="start" x="460.5" y="-391.4" font-family="Helvetica,sans-Serif" font-size="11.00" fill="#000000">datetime[26]</text>
<polygon fill="none" stroke="#000000" points="335.5,-361.7 335.5,-383.7 457.5,-383.7 457.5,-361.7 335.5,-361.7"/>
<text text-anchor="start" x="355.5" y="-368.8" font-family="Helvetica,sans-Serif" font-size="11.00" fill="#000000">UD</text>
<polygon fill="none" stroke="#000000" points="457.5,-361.7 457.5,-383.7 568.5,-383.7 568.5,-361.7 457.5,-361.7"/>
<text text-anchor="start" x="460.5" y="-369.4" font-family="Helvetica,sans-Serif" font-size="11.00" fill="#000000">datetime[26]</text>
<polygon fill="none" stroke="#000000" points="335.5,-339.7 335.5,-361.7 457.5,-361.7 457.5,-339.7 335.5,-339.7"/>
<text text-anchor="start" x="355.5" y="-346.8" font-family="Helvetica,sans-Serif" font-size="11.00" fill="#000000">Remarks</text>
<polygon fill="none" stroke="#000000" points="457.5,-339.7 457.5,-361.7 568.5,-361.7 568.5,-339.7 457.5,-339.7"/>
<text text-anchor="start" x="460.1115" y="-347.4" font-family="Helvetica,sans-Serif" font-size="11.00" fill="#000000">longtext[2147483647]</text>
<polygon fill="none" stroke="#000000" points="335.5,-317.7 335.5,-339.7 457.5,-339.7 457.5,-317.7 335.5,-317.7"/>
<text text-anchor="start" x="355.5" y="-324.8" font-family="Helvetica,sans-Serif" font-size="11.00" fill="#000000">UserID</text>
<polygon fill="none" stroke="#000000" points="457.5,-317.7 457.5,-339.7 568.5,-339.7 568.5,-317.7 457.5,-317.7"/>
<text text-anchor="start" x="460.5" y="-325.4" font-family="Helvetica,sans-Serif" font-size="11.00" fill="#000000">int[10]</text>
<polygon fill="none" stroke="#000000" points="335.5,-295.7 335.5,-317.7 457.5,-317.7 457.5,-295.7 335.5,-295.7"/>
<text text-anchor="start" x="355.5" y="-302.8" font-family="Helvetica,sans-Serif" font-size="11.00" fill="#000000">Name</text>
<polygon fill="none" stroke="#000000" points="457.5,-295.7 457.5,-317.7 568.5,-317.7 568.5,-295.7 457.5,-295.7"/>
<text text-anchor="start" x="460.1115" y="-303.4" font-family="Helvetica,sans-Serif" font-size="11.00" fill="#000000">longtext[2147483647]</text>
<polygon fill="none" stroke="#000000" points="335.5,-273.7 335.5,-295.7 457.5,-295.7 457.5,-273.7 335.5,-273.7"/>
<text text-anchor="start" x="355.5" y="-280.8" font-family="Helvetica,sans-Serif" font-size="11.00" fill="#000000">Priority</text>
<polygon fill="none" stroke="#000000" points="457.5,-273.7 457.5,-295.7 568.5,-295.7 568.5,-273.7 457.5,-273.7"/>
<text text-anchor="start" x="460.5" y="-281.4" font-family="Helvetica,sans-Serif" font-size="11.00" fill="#000000">int[10]</text>
<polygon fill="none" stroke="#000000" points="335.5,-251.7 335.5,-273.7 457.5,-273.7 457.5,-251.7 335.5,-251.7"/>
<text text-anchor="start" x="355.5" y="-258.8" font-family="Helvetica,sans-Serif" font-size="11.00" fill="#000000">Method</text>
<polygon fill="none" stroke="#000000" points="457.5,-251.7 457.5,-273.7 568.5,-273.7 568.5,-251.7 457.5,-251.7"/>
<text text-anchor="start" x="460.1115" y="-259.4" font-family="Helvetica,sans-Serif" font-size="11.00" fill="#000000">longtext[2147483647]</text>
<polygon fill="none" stroke="#000000" points="335.5,-229.7 335.5,-251.7 457.5,-251.7 457.5,-229.7 335.5,-229.7"/>
<text text-anchor="start" x="355.5" y="-236.8" font-family="Helvetica,sans-Serif" font-size="11.00" fill="#000000">IsAlone</text>
<polygon fill="none" stroke="#000000" points="457.5,-229.7 457.5,-251.7 568.5,-251.7 568.5,-229.7 457.5,-229.7"/>
<text text-anchor="start" x="460.5" y="-237.4" font-family="Helvetica,sans-Serif" font-size="11.00" fill="#000000">bit[1]</text>
<polygon fill="#ffffff" stroke="transparent" points="335.5,-207.7 335.5,-229.7 457.5,-229.7 457.5,-207.7 335.5,-207.7"/>
<polygon fill="none" stroke="#000000" points="335.5,-207.7 335.5,-229.7 457.5,-229.7 457.5,-207.7 335.5,-207.7"/>
<image xlink:href="../../images/foreignKeys.png" width="11px" height="12px" preserveAspectRatio="xMinYMin meet" x="340.5" y="-224.7"/>
<text text-anchor="start" x="355.5" y="-214.8" font-family="Helvetica,sans-Serif" font-size="11.00" fill="#000000">User_SubMenuFk</text>
<polygon fill="none" stroke="#000000" points="457.5,-207.7 457.5,-229.7 568.5,-229.7 568.5,-207.7 457.5,-207.7"/>
<text text-anchor="start" x="460.5" y="-215.4" font-family="Helvetica,sans-Serif" font-size="11.00" fill="#000000">int[10]</text>
<polygon fill="none" stroke="#000000" points="335.5,-185.7 335.5,-207.7 457.5,-207.7 457.5,-185.7 335.5,-185.7"/>
<text text-anchor="start" x="355.5" y="-192.8" font-family="Helvetica,sans-Serif" font-size="11.00" fill="#000000">ActionID</text>
<polygon fill="none" stroke="#000000" points="457.5,-185.7 457.5,-207.7 568.5,-207.7 568.5,-185.7 457.5,-185.7"/>
<text text-anchor="start" x="460.5" y="-193.4" font-family="Helvetica,sans-Serif" font-size="11.00" fill="#000000">int[10]</text>
<polygon fill="none" stroke="#000000" points="335.5,-163.7 335.5,-185.7 457.5,-185.7 457.5,-163.7 335.5,-163.7"/>
<text text-anchor="start" x="355.5" y="-170.8" font-family="Helvetica,sans-Serif" font-size="11.00" fill="#000000">IsAdminItem</text>
<polygon fill="none" stroke="#000000" points="457.5,-163.7 457.5,-185.7 568.5,-185.7 568.5,-163.7 457.5,-163.7"/>
<text text-anchor="start" x="460.5" y="-171.4" font-family="Helvetica,sans-Serif" font-size="11.00" fill="#000000">bit[1]</text>
<polygon fill="none" stroke="#000000" points="335.5,-141.7 335.5,-163.7 457.5,-163.7 457.5,-141.7 335.5,-141.7"/>
<text text-anchor="start" x="355.5" y="-148.8" font-family="Helvetica,sans-Serif" font-size="11.00" fill="#000000">ItemGroupID</text>
<polygon fill="none" stroke="#000000" points="457.5,-141.7 457.5,-163.7 568.5,-163.7 568.5,-141.7 457.5,-141.7"/>
<text text-anchor="start" x="460.5" y="-149.4" font-family="Helvetica,sans-Serif" font-size="11.00" fill="#000000">int[10]</text>
<polygon fill="#ffffff" stroke="transparent" points="335.5,-122.7 335.5,-141.7 381.5,-141.7 381.5,-122.7 335.5,-122.7"/>
<polygon fill="none" stroke="#000000" points="335.5,-122.7 335.5,-141.7 381.5,-141.7 381.5,-122.7 335.5,-122.7"/>
<text text-anchor="start" x="338.5" y="-128.8" font-family="Helvetica,sans-Serif" font-size="11.00" fill="#000000">&lt; 1</text>
<polygon fill="#ffffff" stroke="transparent" points="381.5,-122.7 381.5,-141.7 457.5,-141.7 457.5,-122.7 381.5,-122.7"/>
<polygon fill="none" stroke="#000000" points="381.5,-122.7 381.5,-141.7 457.5,-141.7 457.5,-122.7 381.5,-122.7"/>
<text text-anchor="start" x="409.8807" y="-128.8" font-family="Helvetica,sans-Serif" font-size="11.00" fill="#000000">392 rows</text>
<polygon fill="#ffffff" stroke="transparent" points="457.5,-122.7 457.5,-141.7 568.5,-141.7 568.5,-122.7 457.5,-122.7"/>
<polygon fill="none" stroke="#000000" points="457.5,-122.7 457.5,-141.7 568.5,-141.7 568.5,-122.7 457.5,-122.7"/>
<text text-anchor="start" x="549.9053" y="-128.8" font-family="Helvetica,sans-Serif" font-size="11.00" fill="#000000">1 &gt;</text>
<polygon fill="none" stroke="#000000" stroke-width="2" points="334,-121.7 334,-495.7 569,-495.7 569,-121.7 334,-121.7"/>
</a>
</g>
</g>
<!-- user_submenu -->
<g id="node2" class="node">
<title>user_submenu</title>
<g id="a_node2"><a xlink:href="../../tables/user_submenu.html" xlink:title="user_submenu" target="_top">
<polygon fill="#ffffff" stroke="transparent" points="160,-148.2 160,-253.2 284,-253.2 284,-148.2 160,-148.2"/>
<polygon fill="#f5f5f5" stroke="transparent" points="160,-229.7 160,-252.7 284,-252.7 284,-229.7 160,-229.7"/>
<polygon fill="none" stroke="#000000" points="160,-229.7 160,-252.7 284,-252.7 284,-229.7 160,-229.7"/>
<text text-anchor="start" x="165" y="-238.3" font-family="Helvetica,sans-Serif" font-weight="bold" font-size="11.00" fill="#000000">user_submenu</text>
<text text-anchor="start" x="249.5219" y="-237.8" font-family="Helvetica,sans-Serif" font-size="11.00" fill="#000000">[table]</text>
<polygon fill="none" stroke="#000000" points="160,-207.7 160,-229.7 284,-229.7 284,-207.7 160,-207.7"/>
<image xlink:href="../../images/primaryKeys.png" width="11px" height="12px" preserveAspectRatio="xMinYMin meet" x="165" y="-224.7"/>
<text text-anchor="start" x="189" y="-214.8" font-family="Helvetica,sans-Serif" font-size="11.00" fill="#000000">ID</text>
<polygon fill="#ffffff" stroke="transparent" points="160,-185.7 160,-207.7 284,-207.7 284,-185.7 160,-185.7"/>
<polygon fill="none" stroke="#000000" points="160,-185.7 160,-207.7 284,-207.7 284,-185.7 160,-185.7"/>
<image xlink:href="../../images/foreignKeys.png" width="11px" height="12px" preserveAspectRatio="xMinYMin meet" x="165" y="-202.7"/>
<text text-anchor="start" x="189" y="-192.8" font-family="Helvetica,sans-Serif" font-size="11.00" fill="#000000">User_MenuFk</text>
<polygon fill="none" stroke="#000000" points="160,-166.7 160,-185.7 284,-185.7 284,-166.7 160,-166.7"/>
<text text-anchor="start" x="163" y="-172.8" font-family="Helvetica,sans-Serif" font-size="11.00" fill="#000000">...</text>
<polygon fill="#ffffff" stroke="transparent" points="160,-147.7 160,-166.7 203,-166.7 203,-147.7 160,-147.7"/>
<polygon fill="none" stroke="#000000" points="160,-147.7 160,-166.7 203,-166.7 203,-147.7 160,-147.7"/>
<text text-anchor="start" x="163" y="-153.8" font-family="Helvetica,sans-Serif" font-size="11.00" fill="#000000">&lt; 1</text>
<polygon fill="#ffffff" stroke="transparent" points="203,-147.7 203,-166.7 252,-166.7 252,-147.7 203,-147.7"/>
<polygon fill="none" stroke="#000000" points="203,-147.7 203,-166.7 252,-166.7 252,-147.7 203,-147.7"/>
<text text-anchor="start" x="216.6105" y="-153.8" font-family="Helvetica,sans-Serif" font-size="11.00" fill="#000000">0 rows</text>
<polygon fill="#ffffff" stroke="transparent" points="252,-147.7 252,-166.7 284,-166.7 284,-147.7 252,-147.7"/>
<polygon fill="none" stroke="#000000" points="252,-147.7 252,-166.7 284,-166.7 284,-147.7 252,-147.7"/>
<text text-anchor="start" x="265.4053" y="-153.8" font-family="Helvetica,sans-Serif" font-size="11.00" fill="#000000">1 &gt;</text>
</a>
</g>
</g>
<!-- user_menuitem&#45;&gt;user_submenu -->
<g id="edge1" class="edge">
<title>user_menuitem:w&#45;&gt;user_submenu:e</title>
<path fill="none" stroke="#000000" d="M321.0156,-218.7C308.6771,-218.7 301.1667,-218.7 284,-218.7"/>
<polygon fill="#000000" stroke="#000000" points="327.5,-218.7001 335.5,-222.3 331.5,-218.7 335.5,-218.7 335.5,-218.7 335.5,-218.7 331.5,-218.7 335.5,-215.1 327.5,-218.7001 327.5,-218.7001"/>
<ellipse fill="none" stroke="#000000" cx="324.3" cy="-218.7001" rx="3.2" ry="3.2"/>
</g>
<!-- user_menu -->
<g id="node5" class="node">
<title>user_menu</title>
<g id="a_node5"><a xlink:href="../../tables/user_menu.html" xlink:title="user_menu" target="_top">
<polygon fill="#ffffff" stroke="transparent" points="8,-169.2 8,-230.2 111,-230.2 111,-169.2 8,-169.2"/>
<polygon fill="#f5f5f5" stroke="transparent" points="8.5,-206.7 8.5,-229.7 111.5,-229.7 111.5,-206.7 8.5,-206.7"/>
<polygon fill="none" stroke="#000000" points="8.5,-206.7 8.5,-229.7 111.5,-229.7 111.5,-206.7 8.5,-206.7"/>
<text text-anchor="start" x="13.5" y="-215.3" font-family="Helvetica,sans-Serif" font-weight="bold" font-size="11.00" fill="#000000">user_menu</text>
<text text-anchor="start" x="77.0219" y="-214.8" font-family="Helvetica,sans-Serif" font-size="11.00" fill="#000000">[table]</text>
<polygon fill="none" stroke="#000000" points="8.5,-187.7 8.5,-206.7 111.5,-206.7 111.5,-187.7 8.5,-187.7"/>
<text text-anchor="start" x="11.5" y="-193.8" font-family="Helvetica,sans-Serif" font-size="11.00" fill="#000000">...</text>
<polygon fill="#ffffff" stroke="transparent" points="8.5,-168.7 8.5,-187.7 33.5,-187.7 33.5,-168.7 8.5,-168.7"/>
<polygon fill="none" stroke="#000000" points="8.5,-168.7 8.5,-187.7 33.5,-187.7 33.5,-168.7 8.5,-168.7"/>
<text text-anchor="start" x="11.5" y="-174.8" font-family="Helvetica,sans-Serif" font-size="11.00" fill="#000000"> &#160;</text>
<polygon fill="#ffffff" stroke="transparent" points="33.5,-168.7 33.5,-187.7 83.5,-187.7 83.5,-168.7 33.5,-168.7"/>
<polygon fill="none" stroke="#000000" points="33.5,-168.7 33.5,-187.7 83.5,-187.7 83.5,-168.7 33.5,-168.7"/>
<text text-anchor="start" x="41.9956" y="-174.8" font-family="Helvetica,sans-Serif" font-size="11.00" fill="#000000">12 rows</text>
<polygon fill="#ffffff" stroke="transparent" points="83.5,-168.7 83.5,-187.7 111.5,-187.7 111.5,-168.7 83.5,-168.7"/>
<polygon fill="none" stroke="#000000" points="83.5,-168.7 83.5,-187.7 111.5,-187.7 111.5,-168.7 83.5,-168.7"/>
<text text-anchor="start" x="92.9053" y="-174.8" font-family="Helvetica,sans-Serif" font-size="11.00" fill="#000000">1 &gt;</text>
</a>
</g>
</g>
<!-- user_submenu&#45;&gt;user_menu -->
<g id="edge4" class="edge">
<title>user_submenu:w&#45;&gt;user_menu:e</title>
<path fill="none" stroke="#000000" d="M145.2829,-196.7C134.2886,-196.7 127.1615,-196.7 111.5,-196.7"/>
<polygon fill="#000000" stroke="#000000" points="152,-196.7001 160,-200.3 156,-196.7 160,-196.7 160,-196.7 160,-196.7 156,-196.7 160,-193.1 152,-196.7001 152,-196.7001"/>
<ellipse fill="none" stroke="#000000" cx="148.8" cy="-196.7001" rx="3.2" ry="3.2"/>
</g>
<!-- user_rolemenuitem -->
<g id="node3" class="node">
<title>user_rolemenuitem</title>
<g id="a_node3"><a xlink:href="../../tables/user_rolemenuitem.html" xlink:title="user_rolemenuitem" target="_top">
<polygon fill="#ffffff" stroke="transparent" points="619,-204.2 619,-331.2 768,-331.2 768,-204.2 619,-204.2"/>
<polygon fill="#f5f5f5" stroke="transparent" points="619.5,-307.7 619.5,-330.7 768.5,-330.7 768.5,-307.7 619.5,-307.7"/>
<polygon fill="none" stroke="#000000" points="619.5,-307.7 619.5,-330.7 768.5,-330.7 768.5,-307.7 619.5,-307.7"/>
<text text-anchor="start" x="624.5" y="-316.3" font-family="Helvetica,sans-Serif" font-weight="bold" font-size="11.00" fill="#000000">user_rolemenuitem</text>
<text text-anchor="start" x="734.0219" y="-315.8" font-family="Helvetica,sans-Serif" font-size="11.00" fill="#000000">[table]</text>
<polygon fill="none" stroke="#000000" points="619.5,-285.7 619.5,-307.7 768.5,-307.7 768.5,-285.7 619.5,-285.7"/>
<image xlink:href="../../images/primaryKeys.png" width="11px" height="12px" preserveAspectRatio="xMinYMin meet" x="624.5" y="-302.7"/>
<text text-anchor="start" x="648.5" y="-292.8" font-family="Helvetica,sans-Serif" font-size="11.00" fill="#000000">ID</text>
<polygon fill="#ffffff" stroke="transparent" points="619.5,-263.7 619.5,-285.7 768.5,-285.7 768.5,-263.7 619.5,-263.7"/>
<polygon fill="none" stroke="#000000" points="619.5,-263.7 619.5,-285.7 768.5,-285.7 768.5,-263.7 619.5,-263.7"/>
<image xlink:href="../../images/foreignKeys.png" width="11px" height="12px" preserveAspectRatio="xMinYMin meet" x="624.5" y="-280.7"/>
<text text-anchor="start" x="648.5" y="-270.8" font-family="Helvetica,sans-Serif" font-size="11.00" fill="#000000">User_MenuItemFk</text>
<polygon fill="#ffffff" stroke="transparent" points="619.5,-241.7 619.5,-263.7 768.5,-263.7 768.5,-241.7 619.5,-241.7"/>
<polygon fill="none" stroke="#000000" points="619.5,-241.7 619.5,-263.7 768.5,-263.7 768.5,-241.7 619.5,-241.7"/>
<image xlink:href="../../images/foreignKeys.png" width="11px" height="12px" preserveAspectRatio="xMinYMin meet" x="624.5" y="-258.7"/>
<text text-anchor="start" x="648.5" y="-248.8" font-family="Helvetica,sans-Serif" font-size="11.00" fill="#000000">User_RoleFK</text>
<polygon fill="none" stroke="#000000" points="619.5,-222.7 619.5,-241.7 768.5,-241.7 768.5,-222.7 619.5,-222.7"/>
<text text-anchor="start" x="622.5" y="-228.8" font-family="Helvetica,sans-Serif" font-size="11.00" fill="#000000">...</text>
<polygon fill="#ffffff" stroke="transparent" points="619.5,-203.7 619.5,-222.7 679.5,-222.7 679.5,-203.7 619.5,-203.7"/>
<polygon fill="none" stroke="#000000" points="619.5,-203.7 619.5,-222.7 679.5,-222.7 679.5,-203.7 619.5,-203.7"/>
<text text-anchor="start" x="622.5" y="-209.8" font-family="Helvetica,sans-Serif" font-size="11.00" fill="#000000">&lt; 2</text>
<polygon fill="#ffffff" stroke="transparent" points="679.5,-203.7 679.5,-222.7 736.5,-222.7 736.5,-203.7 679.5,-203.7"/>
<polygon fill="none" stroke="#000000" points="679.5,-203.7 679.5,-222.7 736.5,-222.7 736.5,-203.7 679.5,-203.7"/>
<text text-anchor="start" x="701.1105" y="-209.8" font-family="Helvetica,sans-Serif" font-size="11.00" fill="#000000">0 rows</text>
<polygon fill="#ffffff" stroke="transparent" points="736.5,-203.7 736.5,-222.7 768.5,-222.7 768.5,-203.7 736.5,-203.7"/>
<polygon fill="none" stroke="#000000" points="736.5,-203.7 736.5,-222.7 768.5,-222.7 768.5,-203.7 736.5,-203.7"/>
<text text-anchor="start" x="759.3862" y="-209.8" font-family="Helvetica,sans-Serif" font-size="11.00" fill="#000000"> &#160;</text>
</a>
</g>
</g>
<!-- user_rolemenuitem&#45;&gt;user_menuitem -->
<g id="edge2" class="edge">
<title>user_rolemenuitem:w&#45;&gt;user_menuitem:e</title>
<path fill="none" stroke="#000000" d="M605.0299,-277.0517C548.8684,-298.5829 648.5257,-460.7 568.5,-460.7"/>
<polygon fill="#000000" stroke="#000000" points="611.6036,-275.9834 620.0775,-278.2534 615.5518,-275.3417 619.5,-274.7 619.5,-274.7 619.5,-274.7 615.5518,-275.3417 618.9225,-271.1466 611.6036,-275.9834 611.6036,-275.9834"/>
<ellipse fill="none" stroke="#000000" cx="608.445" cy="-276.4968" rx="3.2" ry="3.2"/>
</g>
<!-- user_role -->
<g id="node4" class="node">
<title>user_role</title>
<g id="a_node4"><a xlink:href="../../tables/user_role.html" xlink:title="user_role" target="_top">
<polygon fill="#ffffff" stroke="transparent" points="405,-38.2 405,-99.2 498,-99.2 498,-38.2 405,-38.2"/>
<polygon fill="#f5f5f5" stroke="transparent" points="405.5,-75.7 405.5,-98.7 498.5,-98.7 498.5,-75.7 405.5,-75.7"/>
<polygon fill="none" stroke="#000000" points="405.5,-75.7 405.5,-98.7 498.5,-98.7 498.5,-75.7 405.5,-75.7"/>
<text text-anchor="start" x="410.5" y="-84.3" font-family="Helvetica,sans-Serif" font-weight="bold" font-size="11.00" fill="#000000">user_role</text>
<text text-anchor="start" x="464.0219" y="-83.8" font-family="Helvetica,sans-Serif" font-size="11.00" fill="#000000">[table]</text>
<polygon fill="none" stroke="#000000" points="405.5,-56.7 405.5,-75.7 498.5,-75.7 498.5,-56.7 405.5,-56.7"/>
<text text-anchor="start" x="408.5" y="-62.8" font-family="Helvetica,sans-Serif" font-size="11.00" fill="#000000">...</text>
<polygon fill="#ffffff" stroke="transparent" points="405.5,-37.7 405.5,-56.7 425.5,-56.7 425.5,-37.7 405.5,-37.7"/>
<polygon fill="none" stroke="#000000" points="405.5,-37.7 405.5,-56.7 425.5,-56.7 425.5,-37.7 405.5,-37.7"/>
<text text-anchor="start" x="408.5" y="-43.8" font-family="Helvetica,sans-Serif" font-size="11.00" fill="#000000"> &#160;</text>
<polygon fill="#ffffff" stroke="transparent" points="425.5,-37.7 425.5,-56.7 473.5,-56.7 473.5,-37.7 425.5,-37.7"/>
<polygon fill="none" stroke="#000000" points="425.5,-37.7 425.5,-56.7 473.5,-56.7 473.5,-37.7 425.5,-37.7"/>
<text text-anchor="start" x="431.9956" y="-43.8" font-family="Helvetica,sans-Serif" font-size="11.00" fill="#000000">27 rows</text>
<polygon fill="#ffffff" stroke="transparent" points="473.5,-37.7 473.5,-56.7 498.5,-56.7 498.5,-37.7 473.5,-37.7"/>
<polygon fill="none" stroke="#000000" points="473.5,-37.7 473.5,-56.7 498.5,-56.7 498.5,-37.7 473.5,-37.7"/>
<text text-anchor="start" x="479.9053" y="-43.8" font-family="Helvetica,sans-Serif" font-size="11.00" fill="#000000">2 &gt;</text>
</a>
</g>
</g>
<!-- user_rolemenuitem&#45;&gt;user_role -->
<g id="edge3" class="edge">
<title>user_rolemenuitem:w&#45;&gt;user_role:e</title>
<path fill="none" stroke="#000000" d="M605.2145,-250.7605C563.8692,-237.3021 615.7474,-156.9679 578,-109.7 552.7996,-78.1436 538.884,-65.7 498.5,-65.7"/>
<polygon fill="#000000" stroke="#000000" points="611.5727,-251.6237 619.0157,-256.2673 615.5364,-252.1618 619.5,-252.7 619.5,-252.7 619.5,-252.7 615.5364,-252.1618 619.9843,-249.1327 611.5727,-251.6237 611.5727,-251.6237"/>
<ellipse fill="none" stroke="#000000" cx="608.4018" cy="-251.1932" rx="3.2" ry="3.2"/>
</g>
</g>
</svg>
