<?xml version="1.0" encoding="UTF-8" standalone="no"?>
<!DOCTYPE svg PUBLIC "-//W3C//DTD SVG 1.1//EN"
 "http://www.w3.org/Graphics/SVG/1.1/DTD/svg11.dtd">
<!-- Generated by graphviz version 2.40.1 (20161225.0304)
 -->
<!-- Title: twoDegreesRelationshipsDiagram Pages: 1 -->
<svg width="462pt" height="641pt"
 viewBox="0.00 0.00 462.00 640.70" xmlns="http://www.w3.org/2000/svg" xmlns:xlink="http://www.w3.org/1999/xlink">
<g id="graph0" class="graph" transform="scale(1 1) rotate(0) translate(4 636.7)">
<title>twoDegreesRelationshipsDiagram</title>
<polygon fill="#ffffff" stroke="transparent" points="-4,4 -4,-636.7 458,-636.7 458,4 -4,4"/>
<text text-anchor="middle" x="72.4936" y="-7.3" font-family="Helvetica,sans-Serif" font-size="11.00" fill="#000000">Generated by SchemaSpy</text>
<!-- user_roleassign -->
<g id="node1" class="node">
<title>user_roleassign</title>
<g id="a_node1"><a xlink:href="../../tables/user_roleassign.html" xlink:title="user_roleassign" target="_top">
<polygon fill="#ffffff" stroke="transparent" points="315,-492.7 315,-619.7 446,-619.7 446,-492.7 315,-492.7"/>
<polygon fill="#f5f5f5" stroke="transparent" points="315.5,-596.2 315.5,-619.2 446.5,-619.2 446.5,-596.2 315.5,-596.2"/>
<polygon fill="none" stroke="#000000" points="315.5,-596.2 315.5,-619.2 446.5,-619.2 446.5,-596.2 315.5,-596.2"/>
<text text-anchor="start" x="320.5" y="-604.8" font-family="Helvetica,sans-Serif" font-weight="bold" font-size="11.00" fill="#000000">user_roleassign</text>
<text text-anchor="start" x="412.0219" y="-604.3" font-family="Helvetica,sans-Serif" font-size="11.00" fill="#000000">[table]</text>
<polygon fill="none" stroke="#000000" points="315.5,-574.2 315.5,-596.2 446.5,-596.2 446.5,-574.2 315.5,-574.2"/>
<image xlink:href="../../images/primaryKeys.png" width="11px" height="12px" preserveAspectRatio="xMinYMin meet" x="320.5" y="-591.2"/>
<text text-anchor="start" x="344.5" y="-581.3" font-family="Helvetica,sans-Serif" font-size="11.00" fill="#000000">ID</text>
<polygon fill="#ffffff" stroke="transparent" points="315.5,-552.2 315.5,-574.2 446.5,-574.2 446.5,-552.2 315.5,-552.2"/>
<polygon fill="none" stroke="#000000" points="315.5,-552.2 315.5,-574.2 446.5,-574.2 446.5,-552.2 315.5,-552.2"/>
<image xlink:href="../../images/foreignKeys.png" width="11px" height="12px" preserveAspectRatio="xMinYMin meet" x="320.5" y="-569.2"/>
<text text-anchor="start" x="344.5" y="-559.3" font-family="Helvetica,sans-Serif" font-size="11.00" fill="#000000">User_RoleFk</text>
<polygon fill="#ffffff" stroke="transparent" points="315.5,-530.2 315.5,-552.2 446.5,-552.2 446.5,-530.2 315.5,-530.2"/>
<polygon fill="none" stroke="#000000" points="315.5,-530.2 315.5,-552.2 446.5,-552.2 446.5,-530.2 315.5,-530.2"/>
<image xlink:href="../../images/foreignKeys.png" width="11px" height="12px" preserveAspectRatio="xMinYMin meet" x="320.5" y="-547.2"/>
<text text-anchor="start" x="344.5" y="-537.3" font-family="Helvetica,sans-Serif" font-size="11.00" fill="#000000">User_UserFk</text>
<polygon fill="none" stroke="#000000" points="315.5,-511.2 315.5,-530.2 446.5,-530.2 446.5,-511.2 315.5,-511.2"/>
<text text-anchor="start" x="318.5" y="-517.3" font-family="Helvetica,sans-Serif" font-size="11.00" fill="#000000">...</text>
<polygon fill="#ffffff" stroke="transparent" points="315.5,-492.2 315.5,-511.2 366.5,-511.2 366.5,-492.2 315.5,-492.2"/>
<polygon fill="none" stroke="#000000" points="315.5,-492.2 315.5,-511.2 366.5,-511.2 366.5,-492.2 315.5,-492.2"/>
<text text-anchor="start" x="318.5" y="-498.3" font-family="Helvetica,sans-Serif" font-size="11.00" fill="#000000">&lt; 2</text>
<polygon fill="#ffffff" stroke="transparent" points="366.5,-492.2 366.5,-511.2 419.5,-511.2 419.5,-492.2 366.5,-492.2"/>
<polygon fill="none" stroke="#000000" points="366.5,-492.2 366.5,-511.2 419.5,-511.2 419.5,-492.2 366.5,-492.2"/>
<text text-anchor="start" x="384.1105" y="-498.3" font-family="Helvetica,sans-Serif" font-size="11.00" fill="#000000">0 rows</text>
<polygon fill="#ffffff" stroke="transparent" points="419.5,-492.2 419.5,-511.2 446.5,-511.2 446.5,-492.2 419.5,-492.2"/>
<polygon fill="none" stroke="#000000" points="419.5,-492.2 419.5,-511.2 446.5,-511.2 446.5,-492.2 419.5,-492.2"/>
<text text-anchor="start" x="437.3862" y="-498.3" font-family="Helvetica,sans-Serif" font-size="11.00" fill="#000000"> &#160;</text>
</a>
</g>
</g>
<!-- user_role -->
<g id="node2" class="node">
<title>user_role</title>
<g id="a_node2"><a xlink:href="../../tables/user_role.html" xlink:title="user_role" target="_top">
<polygon fill="#ffffff" stroke="transparent" points="90.5,-567.7 90.5,-628.7 183.5,-628.7 183.5,-567.7 90.5,-567.7"/>
<polygon fill="#f5f5f5" stroke="transparent" points="91,-605.2 91,-628.2 184,-628.2 184,-605.2 91,-605.2"/>
<polygon fill="none" stroke="#000000" points="91,-605.2 91,-628.2 184,-628.2 184,-605.2 91,-605.2"/>
<text text-anchor="start" x="96" y="-613.8" font-family="Helvetica,sans-Serif" font-weight="bold" font-size="11.00" fill="#000000">user_role</text>
<text text-anchor="start" x="149.5219" y="-613.3" font-family="Helvetica,sans-Serif" font-size="11.00" fill="#000000">[table]</text>
<polygon fill="none" stroke="#000000" points="91,-586.2 91,-605.2 184,-605.2 184,-586.2 91,-586.2"/>
<text text-anchor="start" x="94" y="-592.3" font-family="Helvetica,sans-Serif" font-size="11.00" fill="#000000">...</text>
<polygon fill="#ffffff" stroke="transparent" points="91,-567.2 91,-586.2 111,-586.2 111,-567.2 91,-567.2"/>
<polygon fill="none" stroke="#000000" points="91,-567.2 91,-586.2 111,-586.2 111,-567.2 91,-567.2"/>
<text text-anchor="start" x="94" y="-573.3" font-family="Helvetica,sans-Serif" font-size="11.00" fill="#000000"> &#160;</text>
<polygon fill="#ffffff" stroke="transparent" points="111,-567.2 111,-586.2 159,-586.2 159,-567.2 111,-567.2"/>
<polygon fill="none" stroke="#000000" points="111,-567.2 111,-586.2 159,-586.2 159,-567.2 111,-567.2"/>
<text text-anchor="start" x="117.4956" y="-573.3" font-family="Helvetica,sans-Serif" font-size="11.00" fill="#000000">27 rows</text>
<polygon fill="#ffffff" stroke="transparent" points="159,-567.2 159,-586.2 184,-586.2 184,-567.2 159,-567.2"/>
<polygon fill="none" stroke="#000000" points="159,-567.2 159,-586.2 184,-586.2 184,-567.2 159,-567.2"/>
<text text-anchor="start" x="165.4053" y="-573.3" font-family="Helvetica,sans-Serif" font-size="11.00" fill="#000000">2 &gt;</text>
</a>
</g>
</g>
<!-- user_roleassign&#45;&gt;user_role -->
<g id="edge1" class="edge">
<title>user_roleassign:w&#45;&gt;user_role:e</title>
<path fill="none" stroke="#000000" d="M301.015,-563.8684C253.0635,-568.4637 238.9809,-595.2 184,-595.2"/>
<polygon fill="#000000" stroke="#000000" points="307.5085,-563.5688 315.666,-566.7962 311.5043,-563.3844 315.5,-563.2 315.5,-563.2 315.5,-563.2 311.5043,-563.3844 315.334,-559.6038 307.5085,-563.5688 307.5085,-563.5688"/>
<ellipse fill="none" stroke="#000000" cx="304.3119" cy="-563.7163" rx="3.2" ry="3.2"/>
</g>
<!-- user_user -->
<g id="node3" class="node">
<title>user_user</title>
<g id="a_node3"><a xlink:href="../../tables/user_user.html" xlink:title="user_user" target="_top">
<polygon fill="#ffffff" stroke="transparent" points="8,-38.2 8,-546.2 266,-546.2 266,-38.2 8,-38.2"/>
<polygon fill="#f5f5f5" stroke="transparent" points="10,-521.2 10,-544.2 264,-544.2 264,-521.2 10,-521.2"/>
<polygon fill="none" stroke="#000000" points="10,-521.2 10,-544.2 264,-544.2 264,-521.2 10,-521.2"/>
<text text-anchor="start" x="15" y="-529.8" font-family="Helvetica,sans-Serif" font-weight="bold" font-size="11.00" fill="#000000">user_user</text>
<text text-anchor="start" x="229.0437" y="-529.3" font-family="Helvetica,sans-Serif" font-size="11.00" fill="#000000">[table]</text>
<polygon fill="none" stroke="#000000" points="10,-499.2 10,-521.2 150,-521.2 150,-499.2 10,-499.2"/>
<image xlink:href="../../images/primaryKeys.png" width="11px" height="12px" preserveAspectRatio="xMinYMin meet" x="15" y="-516.2"/>
<text text-anchor="start" x="30" y="-506.3" font-family="Helvetica,sans-Serif" font-size="11.00" fill="#000000">ID</text>
<polygon fill="none" stroke="#000000" points="150,-499.2 150,-521.2 264,-521.2 264,-499.2 150,-499.2"/>
<text text-anchor="start" x="153" y="-506.9" font-family="Helvetica,sans-Serif" font-size="11.00" fill="#000000">int[10]</text>
<polygon fill="none" stroke="#000000" points="10,-477.2 10,-499.2 150,-499.2 150,-477.2 10,-477.2"/>
<text text-anchor="start" x="30" y="-484.3" font-family="Helvetica,sans-Serif" font-size="11.00" fill="#000000">Active</text>
<polygon fill="none" stroke="#000000" points="150,-477.2 150,-499.2 264,-499.2 264,-477.2 150,-477.2"/>
<text text-anchor="start" x="153" y="-484.9" font-family="Helvetica,sans-Serif" font-size="11.00" fill="#000000">bit[1]</text>
<polygon fill="none" stroke="#000000" points="10,-455.2 10,-477.2 150,-477.2 150,-455.2 10,-455.2"/>
<text text-anchor="start" x="30" y="-462.3" font-family="Helvetica,sans-Serif" font-size="11.00" fill="#000000">User</text>
<polygon fill="none" stroke="#000000" points="150,-455.2 150,-477.2 264,-477.2 264,-455.2 150,-455.2"/>
<text text-anchor="start" x="153" y="-462.9" font-family="Helvetica,sans-Serif" font-size="11.00" fill="#000000">longtext[2147483647]</text>
<polygon fill="none" stroke="#000000" points="10,-433.2 10,-455.2 150,-455.2 150,-433.2 10,-433.2"/>
<text text-anchor="start" x="30" y="-440.3" font-family="Helvetica,sans-Serif" font-size="11.00" fill="#000000">CD</text>
<polygon fill="none" stroke="#000000" points="150,-433.2 150,-455.2 264,-455.2 264,-433.2 150,-433.2"/>
<text text-anchor="start" x="153" y="-440.9" font-family="Helvetica,sans-Serif" font-size="11.00" fill="#000000">datetime[26]</text>
<polygon fill="none" stroke="#000000" points="10,-411.2 10,-433.2 150,-433.2 150,-411.2 10,-411.2"/>
<text text-anchor="start" x="30" y="-418.3" font-family="Helvetica,sans-Serif" font-size="11.00" fill="#000000">UD</text>
<polygon fill="none" stroke="#000000" points="150,-411.2 150,-433.2 264,-433.2 264,-411.2 150,-411.2"/>
<text text-anchor="start" x="153" y="-418.9" font-family="Helvetica,sans-Serif" font-size="11.00" fill="#000000">datetime[26]</text>
<polygon fill="none" stroke="#000000" points="10,-389.2 10,-411.2 150,-411.2 150,-389.2 10,-389.2"/>
<text text-anchor="start" x="30" y="-396.3" font-family="Helvetica,sans-Serif" font-size="11.00" fill="#000000">Remarks</text>
<polygon fill="none" stroke="#000000" points="150,-389.2 150,-411.2 264,-411.2 264,-389.2 150,-389.2"/>
<text text-anchor="start" x="153" y="-396.9" font-family="Helvetica,sans-Serif" font-size="11.00" fill="#000000">longtext[2147483647]</text>
<polygon fill="none" stroke="#000000" points="10,-367.2 10,-389.2 150,-389.2 150,-367.2 10,-367.2"/>
<text text-anchor="start" x="30" y="-374.3" font-family="Helvetica,sans-Serif" font-size="11.00" fill="#000000">UserID</text>
<polygon fill="none" stroke="#000000" points="150,-367.2 150,-389.2 264,-389.2 264,-367.2 150,-367.2"/>
<text text-anchor="start" x="153" y="-374.9" font-family="Helvetica,sans-Serif" font-size="11.00" fill="#000000">int[10]</text>
<polygon fill="none" stroke="#000000" points="10,-345.2 10,-367.2 150,-367.2 150,-345.2 10,-345.2"/>
<text text-anchor="start" x="30" y="-352.3" font-family="Helvetica,sans-Serif" font-size="11.00" fill="#000000">Code</text>
<polygon fill="none" stroke="#000000" points="150,-345.2 150,-367.2 264,-367.2 264,-345.2 150,-345.2"/>
<text text-anchor="start" x="153" y="-352.9" font-family="Helvetica,sans-Serif" font-size="11.00" fill="#000000">longtext[2147483647]</text>
<polygon fill="none" stroke="#000000" points="10,-323.2 10,-345.2 150,-345.2 150,-323.2 10,-323.2"/>
<text text-anchor="start" x="30" y="-330.3" font-family="Helvetica,sans-Serif" font-size="11.00" fill="#000000">UserName</text>
<polygon fill="none" stroke="#000000" points="150,-323.2 150,-345.2 264,-345.2 264,-323.2 150,-323.2"/>
<text text-anchor="start" x="153" y="-330.9" font-family="Helvetica,sans-Serif" font-size="11.00" fill="#000000">longtext[2147483647]</text>
<polygon fill="none" stroke="#000000" points="10,-301.2 10,-323.2 150,-323.2 150,-301.2 10,-301.2"/>
<text text-anchor="start" x="30" y="-308.3" font-family="Helvetica,sans-Serif" font-size="11.00" fill="#000000">Password</text>
<polygon fill="none" stroke="#000000" points="150,-301.2 150,-323.2 264,-323.2 264,-301.2 150,-301.2"/>
<text text-anchor="start" x="153" y="-308.9" font-family="Helvetica,sans-Serif" font-size="11.00" fill="#000000">longtext[2147483647]</text>
<polygon fill="none" stroke="#000000" points="10,-279.2 10,-301.2 150,-301.2 150,-279.2 10,-279.2"/>
<text text-anchor="start" x="30" y="-286.3" font-family="Helvetica,sans-Serif" font-size="11.00" fill="#000000">Name</text>
<polygon fill="none" stroke="#000000" points="150,-279.2 150,-301.2 264,-301.2 264,-279.2 150,-279.2"/>
<text text-anchor="start" x="153" y="-286.9" font-family="Helvetica,sans-Serif" font-size="11.00" fill="#000000">longtext[2147483647]</text>
<polygon fill="none" stroke="#000000" points="10,-257.2 10,-279.2 150,-279.2 150,-257.2 10,-257.2"/>
<text text-anchor="start" x="30" y="-264.3" font-family="Helvetica,sans-Serif" font-size="11.00" fill="#000000">Photo</text>
<polygon fill="none" stroke="#000000" points="150,-257.2 150,-279.2 264,-279.2 264,-257.2 150,-257.2"/>
<text text-anchor="start" x="152.583" y="-264.9" font-family="Helvetica,sans-Serif" font-size="11.00" fill="#000000">longblob[2147483647]</text>
<polygon fill="none" stroke="#000000" points="10,-235.2 10,-257.2 150,-257.2 150,-235.2 10,-235.2"/>
<text text-anchor="start" x="30" y="-242.3" font-family="Helvetica,sans-Serif" font-size="11.00" fill="#000000">Email</text>
<polygon fill="none" stroke="#000000" points="150,-235.2 150,-257.2 264,-257.2 264,-235.2 150,-235.2"/>
<text text-anchor="start" x="153" y="-242.9" font-family="Helvetica,sans-Serif" font-size="11.00" fill="#000000">longtext[2147483647]</text>
<polygon fill="none" stroke="#000000" points="10,-213.2 10,-235.2 150,-235.2 150,-213.2 10,-213.2"/>
<text text-anchor="start" x="30" y="-220.3" font-family="Helvetica,sans-Serif" font-size="11.00" fill="#000000">Mobile</text>
<polygon fill="none" stroke="#000000" points="150,-213.2 150,-235.2 264,-235.2 264,-213.2 150,-213.2"/>
<text text-anchor="start" x="153" y="-220.9" font-family="Helvetica,sans-Serif" font-size="11.00" fill="#000000">longtext[2147483647]</text>
<polygon fill="none" stroke="#000000" points="10,-191.2 10,-213.2 150,-213.2 150,-191.2 10,-191.2"/>
<text text-anchor="start" x="30" y="-198.3" font-family="Helvetica,sans-Serif" font-size="11.00" fill="#000000">Locked</text>
<polygon fill="none" stroke="#000000" points="150,-191.2 150,-213.2 264,-213.2 264,-191.2 150,-191.2"/>
<text text-anchor="start" x="153" y="-198.9" font-family="Helvetica,sans-Serif" font-size="11.00" fill="#000000">bit[1]</text>
<polygon fill="none" stroke="#000000" points="10,-169.2 10,-191.2 150,-191.2 150,-169.2 10,-169.2"/>
<text text-anchor="start" x="30" y="-176.3" font-family="Helvetica,sans-Serif" font-size="11.00" fill="#000000">User_TypeFK</text>
<polygon fill="none" stroke="#000000" points="150,-169.2 150,-191.2 264,-191.2 264,-169.2 150,-169.2"/>
<text text-anchor="start" x="153" y="-176.9" font-family="Helvetica,sans-Serif" font-size="11.00" fill="#000000">int[10]</text>
<polygon fill="none" stroke="#000000" points="10,-147.2 10,-169.2 150,-169.2 150,-147.2 10,-147.2"/>
<text text-anchor="start" x="30" y="-154.3" font-family="Helvetica,sans-Serif" font-size="11.00" fill="#000000">User_DealerFK</text>
<polygon fill="none" stroke="#000000" points="150,-147.2 150,-169.2 264,-169.2 264,-147.2 150,-147.2"/>
<text text-anchor="start" x="153" y="-154.9" font-family="Helvetica,sans-Serif" font-size="11.00" fill="#000000">int[10]</text>
<polygon fill="none" stroke="#000000" points="10,-125.2 10,-147.2 150,-147.2 150,-125.2 10,-125.2"/>
<text text-anchor="start" x="30" y="-132.3" font-family="Helvetica,sans-Serif" font-size="11.00" fill="#000000">MasterReferenceFK</text>
<polygon fill="none" stroke="#000000" points="150,-125.2 150,-147.2 264,-147.2 264,-125.2 150,-125.2"/>
<text text-anchor="start" x="153" y="-132.9" font-family="Helvetica,sans-Serif" font-size="11.00" fill="#000000">int[10]</text>
<polygon fill="none" stroke="#000000" points="10,-103.2 10,-125.2 150,-125.2 150,-103.2 10,-103.2"/>
<text text-anchor="start" x="30" y="-110.3" font-family="Helvetica,sans-Serif" font-size="11.00" fill="#000000">User_PackageFK</text>
<polygon fill="none" stroke="#000000" points="150,-103.2 150,-125.2 264,-125.2 264,-103.2 150,-103.2"/>
<text text-anchor="start" x="153" y="-110.9" font-family="Helvetica,sans-Serif" font-size="11.00" fill="#000000">int[10]</text>
<polygon fill="none" stroke="#000000" points="10,-81.2 10,-103.2 150,-103.2 150,-81.2 10,-81.2"/>
<text text-anchor="start" x="30" y="-88.3" font-family="Helvetica,sans-Serif" font-size="11.00" fill="#000000">UserLayerID</text>
<polygon fill="none" stroke="#000000" points="150,-81.2 150,-103.2 264,-103.2 264,-81.2 150,-81.2"/>
<text text-anchor="start" x="153" y="-88.9" font-family="Helvetica,sans-Serif" font-size="11.00" fill="#000000">int[10]</text>
<polygon fill="none" stroke="#000000" points="10,-59.2 10,-81.2 150,-81.2 150,-59.2 10,-59.2"/>
<text text-anchor="start" x="30" y="-66.3" font-family="Helvetica,sans-Serif" font-size="11.00" fill="#000000">Common_VentureFK</text>
<polygon fill="none" stroke="#000000" points="150,-59.2 150,-81.2 264,-81.2 264,-59.2 150,-59.2"/>
<text text-anchor="start" x="153" y="-66.9" font-family="Helvetica,sans-Serif" font-size="11.00" fill="#000000">int[10]</text>
<polygon fill="#ffffff" stroke="transparent" points="10,-40.2 10,-59.2 71,-59.2 71,-40.2 10,-40.2"/>
<polygon fill="none" stroke="#000000" points="10,-40.2 10,-59.2 71,-59.2 71,-40.2 10,-40.2"/>
<text text-anchor="start" x="13" y="-46.3" font-family="Helvetica,sans-Serif" font-size="11.00" fill="#000000">&lt; 0</text>
<polygon fill="#ffffff" stroke="transparent" points="71,-40.2 71,-59.2 150,-59.2 150,-40.2 71,-40.2"/>
<polygon fill="none" stroke="#000000" points="71,-40.2 71,-59.2 150,-59.2 150,-40.2 71,-40.2"/>
<text text-anchor="start" x="114.6105" y="-46.3" font-family="Helvetica,sans-Serif" font-size="11.00" fill="#000000">0 rows</text>
<polygon fill="#ffffff" stroke="transparent" points="150,-40.2 150,-59.2 264,-59.2 264,-40.2 150,-40.2"/>
<polygon fill="none" stroke="#000000" points="150,-40.2 150,-59.2 264,-59.2 264,-40.2 150,-40.2"/>
<text text-anchor="start" x="245.4053" y="-46.3" font-family="Helvetica,sans-Serif" font-size="11.00" fill="#000000">1 &gt;</text>
<polygon fill="none" stroke="#000000" stroke-width="2" points="9,-39.2 9,-545.2 265,-545.2 265,-39.2 9,-39.2"/>
</a>
</g>
</g>
<!-- user_roleassign&#45;&gt;user_user -->
<g id="edge2" class="edge">
<title>user_roleassign:w&#45;&gt;user_user:e</title>
<path fill="none" stroke="#000000" d="M301.4805,-537.3988C288.2585,-529.1209 284.8716,-510.2 264,-510.2"/>
<polygon fill="#000000" stroke="#000000" points="307.7788,-539.1064 314.5579,-544.6745 311.6394,-540.1532 315.5,-541.2 315.5,-541.2 315.5,-541.2 311.6394,-540.1532 316.4421,-537.7255 307.7788,-539.1064 307.7788,-539.1064"/>
<ellipse fill="none" stroke="#000000" cx="304.6903" cy="-538.269" rx="3.2" ry="3.2"/>
</g>
</g>
</svg>
