<?xml version="1.0" encoding="UTF-8" standalone="no"?>
<!DOCTYPE svg PUBLIC "-//W3C//DTD SVG 1.1//EN"
 "http://www.w3.org/Graphics/SVG/1.1/DTD/svg11.dtd">
<!-- Generated by graphviz version 2.40.1 (20161225.0304)
 -->
<!-- Title: oneDegreeRelationshipsDiagram Pages: 1 -->
<svg width="446pt" height="363pt"
 viewBox="0.00 0.00 446.00 362.70" xmlns="http://www.w3.org/2000/svg" xmlns:xlink="http://www.w3.org/1999/xlink">
<g id="graph0" class="graph" transform="scale(1 1) rotate(0) translate(4 358.7)">
<title>oneDegreeRelationshipsDiagram</title>
<polygon fill="#ffffff" stroke="transparent" points="-4,4 -4,-358.7 442,-358.7 442,4 -4,4"/>
<text text-anchor="middle" x="72.4936" y="-7.3" font-family="Helvetica,sans-Serif" font-size="11.00" fill="#000000">Generated by SchemaSpy</text>
<!-- user_rolemenuitem -->
<g id="node1" class="node">
<title>user_rolemenuitem</title>
<g id="a_node1"><a xlink:href="../../tables/user_rolemenuitem.html" xlink:title="user_rolemenuitem" target="_top">
<polygon fill="#ffffff" stroke="transparent" points="184,-84.7 184,-350.7 430,-350.7 430,-84.7 184,-84.7"/>
<polygon fill="#f5f5f5" stroke="transparent" points="186,-325.7 186,-348.7 428,-348.7 428,-325.7 186,-325.7"/>
<polygon fill="none" stroke="#000000" points="186,-325.7 186,-348.7 428,-348.7 428,-325.7 186,-325.7"/>
<text text-anchor="start" x="191" y="-334.3" font-family="Helvetica,sans-Serif" font-weight="bold" font-size="11.00" fill="#000000">user_rolemenuitem</text>
<text text-anchor="start" x="393.0437" y="-333.8" font-family="Helvetica,sans-Serif" font-size="11.00" fill="#000000">[table]</text>
<polygon fill="none" stroke="#000000" points="186,-303.7 186,-325.7 317,-325.7 317,-303.7 186,-303.7"/>
<image xlink:href="../../images/primaryKeys.png" width="11px" height="12px" preserveAspectRatio="xMinYMin meet" x="191" y="-320.7"/>
<text text-anchor="start" x="206" y="-310.8" font-family="Helvetica,sans-Serif" font-size="11.00" fill="#000000">ID</text>
<polygon fill="none" stroke="#000000" points="317,-303.7 317,-325.7 428,-325.7 428,-303.7 317,-303.7"/>
<text text-anchor="start" x="320" y="-311.4" font-family="Helvetica,sans-Serif" font-size="11.00" fill="#000000">int[10]</text>
<polygon fill="none" stroke="#000000" points="186,-281.7 186,-303.7 317,-303.7 317,-281.7 186,-281.7"/>
<text text-anchor="start" x="206" y="-288.8" font-family="Helvetica,sans-Serif" font-size="11.00" fill="#000000">Active</text>
<polygon fill="none" stroke="#000000" points="317,-281.7 317,-303.7 428,-303.7 428,-281.7 317,-281.7"/>
<text text-anchor="start" x="320" y="-289.4" font-family="Helvetica,sans-Serif" font-size="11.00" fill="#000000">bit[1]</text>
<polygon fill="none" stroke="#000000" points="186,-259.7 186,-281.7 317,-281.7 317,-259.7 186,-259.7"/>
<text text-anchor="start" x="206" y="-266.8" font-family="Helvetica,sans-Serif" font-size="11.00" fill="#000000">User</text>
<polygon fill="none" stroke="#000000" points="317,-259.7 317,-281.7 428,-281.7 428,-259.7 317,-259.7"/>
<text text-anchor="start" x="319.6115" y="-267.4" font-family="Helvetica,sans-Serif" font-size="11.00" fill="#000000">longtext[2147483647]</text>
<polygon fill="none" stroke="#000000" points="186,-237.7 186,-259.7 317,-259.7 317,-237.7 186,-237.7"/>
<text text-anchor="start" x="206" y="-244.8" font-family="Helvetica,sans-Serif" font-size="11.00" fill="#000000">CD</text>
<polygon fill="none" stroke="#000000" points="317,-237.7 317,-259.7 428,-259.7 428,-237.7 317,-237.7"/>
<text text-anchor="start" x="320" y="-245.4" font-family="Helvetica,sans-Serif" font-size="11.00" fill="#000000">datetime[26]</text>
<polygon fill="none" stroke="#000000" points="186,-215.7 186,-237.7 317,-237.7 317,-215.7 186,-215.7"/>
<text text-anchor="start" x="206" y="-222.8" font-family="Helvetica,sans-Serif" font-size="11.00" fill="#000000">UD</text>
<polygon fill="none" stroke="#000000" points="317,-215.7 317,-237.7 428,-237.7 428,-215.7 317,-215.7"/>
<text text-anchor="start" x="320" y="-223.4" font-family="Helvetica,sans-Serif" font-size="11.00" fill="#000000">datetime[26]</text>
<polygon fill="none" stroke="#000000" points="186,-193.7 186,-215.7 317,-215.7 317,-193.7 186,-193.7"/>
<text text-anchor="start" x="206" y="-200.8" font-family="Helvetica,sans-Serif" font-size="11.00" fill="#000000">Remarks</text>
<polygon fill="none" stroke="#000000" points="317,-193.7 317,-215.7 428,-215.7 428,-193.7 317,-193.7"/>
<text text-anchor="start" x="319.6115" y="-201.4" font-family="Helvetica,sans-Serif" font-size="11.00" fill="#000000">longtext[2147483647]</text>
<polygon fill="none" stroke="#000000" points="186,-171.7 186,-193.7 317,-193.7 317,-171.7 186,-171.7"/>
<text text-anchor="start" x="206" y="-178.8" font-family="Helvetica,sans-Serif" font-size="11.00" fill="#000000">UserID</text>
<polygon fill="none" stroke="#000000" points="317,-171.7 317,-193.7 428,-193.7 428,-171.7 317,-171.7"/>
<text text-anchor="start" x="320" y="-179.4" font-family="Helvetica,sans-Serif" font-size="11.00" fill="#000000">int[10]</text>
<polygon fill="#ffffff" stroke="transparent" points="186,-149.7 186,-171.7 317,-171.7 317,-149.7 186,-149.7"/>
<polygon fill="none" stroke="#000000" points="186,-149.7 186,-171.7 317,-171.7 317,-149.7 186,-149.7"/>
<image xlink:href="../../images/foreignKeys.png" width="11px" height="12px" preserveAspectRatio="xMinYMin meet" x="191" y="-166.7"/>
<text text-anchor="start" x="206" y="-156.8" font-family="Helvetica,sans-Serif" font-size="11.00" fill="#000000">User_MenuItemFk</text>
<polygon fill="none" stroke="#000000" points="317,-149.7 317,-171.7 428,-171.7 428,-149.7 317,-149.7"/>
<text text-anchor="start" x="320" y="-157.4" font-family="Helvetica,sans-Serif" font-size="11.00" fill="#000000">int[10]</text>
<polygon fill="#ffffff" stroke="transparent" points="186,-127.7 186,-149.7 317,-149.7 317,-127.7 186,-127.7"/>
<polygon fill="none" stroke="#000000" points="186,-127.7 186,-149.7 317,-149.7 317,-127.7 186,-127.7"/>
<image xlink:href="../../images/foreignKeys.png" width="11px" height="12px" preserveAspectRatio="xMinYMin meet" x="191" y="-144.7"/>
<text text-anchor="start" x="206" y="-134.8" font-family="Helvetica,sans-Serif" font-size="11.00" fill="#000000">User_RoleFK</text>
<polygon fill="none" stroke="#000000" points="317,-127.7 317,-149.7 428,-149.7 428,-127.7 317,-127.7"/>
<text text-anchor="start" x="320" y="-135.4" font-family="Helvetica,sans-Serif" font-size="11.00" fill="#000000">int[10]</text>
<polygon fill="none" stroke="#000000" points="186,-105.7 186,-127.7 317,-127.7 317,-105.7 186,-105.7"/>
<text text-anchor="start" x="206" y="-112.8" font-family="Helvetica,sans-Serif" font-size="11.00" fill="#000000">IsAllowed</text>
<polygon fill="none" stroke="#000000" points="317,-105.7 317,-127.7 428,-127.7 428,-105.7 317,-105.7"/>
<text text-anchor="start" x="320" y="-113.4" font-family="Helvetica,sans-Serif" font-size="11.00" fill="#000000">bit[1]</text>
<polygon fill="#ffffff" stroke="transparent" points="186,-86.7 186,-105.7 243,-105.7 243,-86.7 186,-86.7"/>
<polygon fill="none" stroke="#000000" points="186,-86.7 186,-105.7 243,-105.7 243,-86.7 186,-86.7"/>
<text text-anchor="start" x="189" y="-92.8" font-family="Helvetica,sans-Serif" font-size="11.00" fill="#000000">&lt; 2</text>
<polygon fill="#ffffff" stroke="transparent" points="243,-86.7 243,-105.7 317,-105.7 317,-86.7 243,-86.7"/>
<polygon fill="none" stroke="#000000" points="243,-86.7 243,-105.7 317,-105.7 317,-86.7 243,-86.7"/>
<text text-anchor="start" x="281.6105" y="-92.8" font-family="Helvetica,sans-Serif" font-size="11.00" fill="#000000">0 rows</text>
<polygon fill="#ffffff" stroke="transparent" points="317,-86.7 317,-105.7 428,-105.7 428,-86.7 317,-86.7"/>
<polygon fill="none" stroke="#000000" points="317,-86.7 317,-105.7 428,-105.7 428,-86.7 317,-86.7"/>
<text text-anchor="start" x="409.4053" y="-92.8" font-family="Helvetica,sans-Serif" font-size="11.00" fill="#000000">0 &gt;</text>
<polygon fill="none" stroke="#000000" stroke-width="2" points="185,-85.7 185,-349.7 429,-349.7 429,-85.7 185,-85.7"/>
</a>
</g>
</g>
<!-- user_menuitem -->
<g id="node2" class="node">
<title>user_menuitem</title>
<g id="a_node2"><a xlink:href="../../tables/user_menuitem.html" xlink:title="user_menuitem" target="_top">
<polygon fill="#ffffff" stroke="transparent" points="8,-142.2 8,-247.2 135,-247.2 135,-142.2 8,-142.2"/>
<polygon fill="#f5f5f5" stroke="transparent" points="8.5,-223.7 8.5,-246.7 135.5,-246.7 135.5,-223.7 8.5,-223.7"/>
<polygon fill="none" stroke="#000000" points="8.5,-223.7 8.5,-246.7 135.5,-246.7 135.5,-223.7 8.5,-223.7"/>
<text text-anchor="start" x="13.5" y="-232.3" font-family="Helvetica,sans-Serif" font-weight="bold" font-size="11.00" fill="#000000">user_menuitem</text>
<text text-anchor="start" x="101.0219" y="-231.8" font-family="Helvetica,sans-Serif" font-size="11.00" fill="#000000">[table]</text>
<polygon fill="none" stroke="#000000" points="8.5,-201.7 8.5,-223.7 135.5,-223.7 135.5,-201.7 8.5,-201.7"/>
<image xlink:href="../../images/primaryKeys.png" width="11px" height="12px" preserveAspectRatio="xMinYMin meet" x="13.5" y="-218.7"/>
<text text-anchor="start" x="31.5" y="-208.8" font-family="Helvetica,sans-Serif" font-size="11.00" fill="#000000">ID</text>
<polygon fill="#ffffff" stroke="transparent" points="8.5,-179.7 8.5,-201.7 135.5,-201.7 135.5,-179.7 8.5,-179.7"/>
<polygon fill="none" stroke="#000000" points="8.5,-179.7 8.5,-201.7 135.5,-201.7 135.5,-179.7 8.5,-179.7"/>
<image xlink:href="../../images/foreignKeys.png" width="11px" height="12px" preserveAspectRatio="xMinYMin meet" x="13.5" y="-196.7"/>
<text text-anchor="start" x="31.5" y="-186.8" font-family="Helvetica,sans-Serif" font-size="11.00" fill="#000000">User_SubMenuFk</text>
<polygon fill="none" stroke="#000000" points="8.5,-160.7 8.5,-179.7 135.5,-179.7 135.5,-160.7 8.5,-160.7"/>
<text text-anchor="start" x="11.5" y="-166.8" font-family="Helvetica,sans-Serif" font-size="11.00" fill="#000000">...</text>
<polygon fill="#ffffff" stroke="transparent" points="8.5,-141.7 8.5,-160.7 46.5,-160.7 46.5,-141.7 8.5,-141.7"/>
<polygon fill="none" stroke="#000000" points="8.5,-141.7 8.5,-160.7 46.5,-160.7 46.5,-141.7 8.5,-141.7"/>
<text text-anchor="start" x="11.5" y="-147.8" font-family="Helvetica,sans-Serif" font-size="11.00" fill="#000000">&lt; 1</text>
<polygon fill="#ffffff" stroke="transparent" points="46.5,-141.7 46.5,-160.7 105.5,-160.7 105.5,-141.7 46.5,-141.7"/>
<polygon fill="none" stroke="#000000" points="46.5,-141.7 46.5,-160.7 105.5,-160.7 105.5,-141.7 46.5,-141.7"/>
<text text-anchor="start" x="57.8807" y="-147.8" font-family="Helvetica,sans-Serif" font-size="11.00" fill="#000000">392 rows</text>
<polygon fill="#ffffff" stroke="transparent" points="105.5,-141.7 105.5,-160.7 135.5,-160.7 135.5,-141.7 105.5,-141.7"/>
<polygon fill="none" stroke="#000000" points="105.5,-141.7 105.5,-160.7 135.5,-160.7 135.5,-141.7 105.5,-141.7"/>
<text text-anchor="start" x="116.9053" y="-147.8" font-family="Helvetica,sans-Serif" font-size="11.00" fill="#000000">1 &gt;</text>
</a>
</g>
</g>
<!-- user_rolemenuitem&#45;&gt;user_menuitem -->
<g id="edge1" class="edge">
<title>user_rolemenuitem:w&#45;&gt;user_menuitem:e</title>
<path fill="none" stroke="#000000" d="M172.1372,-165.4988C157.3861,-178.3719 161.6756,-212.7 135.5,-212.7"/>
<polygon fill="#000000" stroke="#000000" points="178.4401,-163.317 187.1777,-164.1019 182.2201,-162.0085 186,-160.7 186,-160.7 186,-160.7 182.2201,-162.0085 184.8223,-157.2981 178.4401,-163.317 178.4401,-163.317"/>
<ellipse fill="none" stroke="#000000" cx="175.4162" cy="-164.3638" rx="3.2" ry="3.2"/>
</g>
<!-- user_role -->
<g id="node3" class="node">
<title>user_role</title>
<g id="a_node3"><a xlink:href="../../tables/user_role.html" xlink:title="user_role" target="_top">
<polygon fill="#ffffff" stroke="transparent" points="25,-38.2 25,-121.2 118,-121.2 118,-38.2 25,-38.2"/>
<polygon fill="#f5f5f5" stroke="transparent" points="25.5,-97.7 25.5,-120.7 118.5,-120.7 118.5,-97.7 25.5,-97.7"/>
<polygon fill="none" stroke="#000000" points="25.5,-97.7 25.5,-120.7 118.5,-120.7 118.5,-97.7 25.5,-97.7"/>
<text text-anchor="start" x="30.5" y="-106.3" font-family="Helvetica,sans-Serif" font-weight="bold" font-size="11.00" fill="#000000">user_role</text>
<text text-anchor="start" x="84.0219" y="-105.8" font-family="Helvetica,sans-Serif" font-size="11.00" fill="#000000">[table]</text>
<polygon fill="none" stroke="#000000" points="25.5,-75.7 25.5,-97.7 118.5,-97.7 118.5,-75.7 25.5,-75.7"/>
<image xlink:href="../../images/primaryKeys.png" width="11px" height="12px" preserveAspectRatio="xMinYMin meet" x="30.5" y="-92.7"/>
<text text-anchor="start" x="54.5" y="-82.8" font-family="Helvetica,sans-Serif" font-size="11.00" fill="#000000">ID</text>
<polygon fill="none" stroke="#000000" points="25.5,-56.7 25.5,-75.7 118.5,-75.7 118.5,-56.7 25.5,-56.7"/>
<text text-anchor="start" x="28.5" y="-62.8" font-family="Helvetica,sans-Serif" font-size="11.00" fill="#000000">...</text>
<polygon fill="#ffffff" stroke="transparent" points="25.5,-37.7 25.5,-56.7 45.5,-56.7 45.5,-37.7 25.5,-37.7"/>
<polygon fill="none" stroke="#000000" points="25.5,-37.7 25.5,-56.7 45.5,-56.7 45.5,-37.7 25.5,-37.7"/>
<text text-anchor="start" x="28.5" y="-43.8" font-family="Helvetica,sans-Serif" font-size="11.00" fill="#000000"> &#160;</text>
<polygon fill="#ffffff" stroke="transparent" points="45.5,-37.7 45.5,-56.7 93.5,-56.7 93.5,-37.7 45.5,-37.7"/>
<polygon fill="none" stroke="#000000" points="45.5,-37.7 45.5,-56.7 93.5,-56.7 93.5,-37.7 45.5,-37.7"/>
<text text-anchor="start" x="51.9956" y="-43.8" font-family="Helvetica,sans-Serif" font-size="11.00" fill="#000000">27 rows</text>
<polygon fill="#ffffff" stroke="transparent" points="93.5,-37.7 93.5,-56.7 118.5,-56.7 118.5,-37.7 93.5,-37.7"/>
<polygon fill="none" stroke="#000000" points="93.5,-37.7 93.5,-56.7 118.5,-56.7 118.5,-37.7 93.5,-37.7"/>
<text text-anchor="start" x="99.9053" y="-43.8" font-family="Helvetica,sans-Serif" font-size="11.00" fill="#000000">2 &gt;</text>
</a>
</g>
</g>
<!-- user_rolemenuitem&#45;&gt;user_role -->
<g id="edge2" class="edge">
<title>user_rolemenuitem:w&#45;&gt;user_role:e</title>
<path fill="none" stroke="#000000" d="M171.8824,-135.6029C149.5604,-124.4083 150.7485,-86.7 118.5,-86.7"/>
<polygon fill="#000000" stroke="#000000" points="178.1858,-136.9857 185.2286,-142.2164 182.0929,-137.8428 186,-138.7 186,-138.7 186,-138.7 182.0929,-137.8428 186.7714,-135.1836 178.1858,-136.9857 178.1858,-136.9857"/>
<ellipse fill="none" stroke="#000000" cx="175.0602" cy="-136.3" rx="3.2" ry="3.2"/>
</g>
</g>
</svg>
