<?xml version="1.0" encoding="UTF-8" standalone="no"?>
<!DOCTYPE svg PUBLIC "-//W3C//DTD SVG 1.1//EN"
 "http://www.w3.org/Graphics/SVG/1.1/DTD/svg11.dtd">
<!-- Generated by graphviz version 2.40.1 (20161225.0304)
 -->
<!-- Title: oneDegreeRelationshipsDiagram Pages: 1 -->
<svg width="397pt" height="315pt"
 viewBox="0.00 0.00 397.00 314.70" xmlns="http://www.w3.org/2000/svg" xmlns:xlink="http://www.w3.org/1999/xlink">
<g id="graph0" class="graph" transform="scale(1 1) rotate(0) translate(4 310.7)">
<title>oneDegreeRelationshipsDiagram</title>
<polygon fill="#ffffff" stroke="transparent" points="-4,4 -4,-310.7 393,-310.7 393,4 -4,4"/>
<text text-anchor="middle" x="72.4936" y="-7.3" font-family="Helvetica,sans-Serif" font-size="11.00" fill="#000000">Generated by SchemaSpy</text>
<!-- user_submenu -->
<g id="node1" class="node">
<title>user_submenu</title>
<g id="a_node1"><a xlink:href="../../tables/user_submenu.html" xlink:title="user_submenu" target="_top">
<polygon fill="#ffffff" stroke="transparent" points="257,-197.7 257,-302.7 381,-302.7 381,-197.7 257,-197.7"/>
<polygon fill="#f5f5f5" stroke="transparent" points="257,-279.2 257,-302.2 381,-302.2 381,-279.2 257,-279.2"/>
<polygon fill="none" stroke="#000000" points="257,-279.2 257,-302.2 381,-302.2 381,-279.2 257,-279.2"/>
<text text-anchor="start" x="262" y="-287.8" font-family="Helvetica,sans-Serif" font-weight="bold" font-size="11.00" fill="#000000">user_submenu</text>
<text text-anchor="start" x="346.5219" y="-287.3" font-family="Helvetica,sans-Serif" font-size="11.00" fill="#000000">[table]</text>
<polygon fill="none" stroke="#000000" points="257,-257.2 257,-279.2 381,-279.2 381,-257.2 257,-257.2"/>
<image xlink:href="../../images/primaryKeys.png" width="11px" height="12px" preserveAspectRatio="xMinYMin meet" x="262" y="-274.2"/>
<text text-anchor="start" x="286" y="-264.3" font-family="Helvetica,sans-Serif" font-size="11.00" fill="#000000">ID</text>
<polygon fill="#ffffff" stroke="transparent" points="257,-235.2 257,-257.2 381,-257.2 381,-235.2 257,-235.2"/>
<polygon fill="none" stroke="#000000" points="257,-235.2 257,-257.2 381,-257.2 381,-235.2 257,-235.2"/>
<image xlink:href="../../images/foreignKeys.png" width="11px" height="12px" preserveAspectRatio="xMinYMin meet" x="262" y="-252.2"/>
<text text-anchor="start" x="286" y="-242.3" font-family="Helvetica,sans-Serif" font-size="11.00" fill="#000000">User_MenuFk</text>
<polygon fill="none" stroke="#000000" points="257,-216.2 257,-235.2 381,-235.2 381,-216.2 257,-216.2"/>
<text text-anchor="start" x="260" y="-222.3" font-family="Helvetica,sans-Serif" font-size="11.00" fill="#000000">...</text>
<polygon fill="#ffffff" stroke="transparent" points="257,-197.2 257,-216.2 300,-216.2 300,-197.2 257,-197.2"/>
<polygon fill="none" stroke="#000000" points="257,-197.2 257,-216.2 300,-216.2 300,-197.2 257,-197.2"/>
<text text-anchor="start" x="260" y="-203.3" font-family="Helvetica,sans-Serif" font-size="11.00" fill="#000000">&lt; 1</text>
<polygon fill="#ffffff" stroke="transparent" points="300,-197.2 300,-216.2 349,-216.2 349,-197.2 300,-197.2"/>
<polygon fill="none" stroke="#000000" points="300,-197.2 300,-216.2 349,-216.2 349,-197.2 300,-197.2"/>
<text text-anchor="start" x="313.6105" y="-203.3" font-family="Helvetica,sans-Serif" font-size="11.00" fill="#000000">0 rows</text>
<polygon fill="#ffffff" stroke="transparent" points="349,-197.2 349,-216.2 381,-216.2 381,-197.2 349,-197.2"/>
<polygon fill="none" stroke="#000000" points="349,-197.2 349,-216.2 381,-216.2 381,-197.2 349,-197.2"/>
<text text-anchor="start" x="362.4053" y="-203.3" font-family="Helvetica,sans-Serif" font-size="11.00" fill="#000000">1 &gt;</text>
</a>
</g>
</g>
<!-- user_menu -->
<g id="node2" class="node">
<title>user_menu</title>
<g id="a_node2"><a xlink:href="../../tables/user_menu.html" xlink:title="user_menu" target="_top">
<polygon fill="#ffffff" stroke="transparent" points="8,-38.2 8,-282.2 208,-282.2 208,-38.2 8,-38.2"/>
<polygon fill="#f5f5f5" stroke="transparent" points="10,-257.2 10,-280.2 206,-280.2 206,-257.2 10,-257.2"/>
<polygon fill="none" stroke="#000000" points="10,-257.2 10,-280.2 206,-280.2 206,-257.2 10,-257.2"/>
<text text-anchor="start" x="15" y="-265.8" font-family="Helvetica,sans-Serif" font-weight="bold" font-size="11.00" fill="#000000">user_menu</text>
<text text-anchor="start" x="171.0437" y="-265.3" font-family="Helvetica,sans-Serif" font-size="11.00" fill="#000000">[table]</text>
<polygon fill="none" stroke="#000000" points="10,-235.2 10,-257.2 95,-257.2 95,-235.2 10,-235.2"/>
<image xlink:href="../../images/primaryKeys.png" width="11px" height="12px" preserveAspectRatio="xMinYMin meet" x="15" y="-252.2"/>
<text text-anchor="start" x="30" y="-242.3" font-family="Helvetica,sans-Serif" font-size="11.00" fill="#000000">ID</text>
<polygon fill="none" stroke="#000000" points="95,-235.2 95,-257.2 206,-257.2 206,-235.2 95,-235.2"/>
<text text-anchor="start" x="98" y="-242.9" font-family="Helvetica,sans-Serif" font-size="11.00" fill="#000000">int[10]</text>
<polygon fill="none" stroke="#000000" points="10,-213.2 10,-235.2 95,-235.2 95,-213.2 10,-213.2"/>
<text text-anchor="start" x="30" y="-220.3" font-family="Helvetica,sans-Serif" font-size="11.00" fill="#000000">Active</text>
<polygon fill="none" stroke="#000000" points="95,-213.2 95,-235.2 206,-235.2 206,-213.2 95,-213.2"/>
<text text-anchor="start" x="98" y="-220.9" font-family="Helvetica,sans-Serif" font-size="11.00" fill="#000000">bit[1]</text>
<polygon fill="none" stroke="#000000" points="10,-191.2 10,-213.2 95,-213.2 95,-191.2 10,-191.2"/>
<text text-anchor="start" x="30" y="-198.3" font-family="Helvetica,sans-Serif" font-size="11.00" fill="#000000">User</text>
<polygon fill="none" stroke="#000000" points="95,-191.2 95,-213.2 206,-213.2 206,-191.2 95,-191.2"/>
<text text-anchor="start" x="97.6115" y="-198.9" font-family="Helvetica,sans-Serif" font-size="11.00" fill="#000000">longtext[2147483647]</text>
<polygon fill="none" stroke="#000000" points="10,-169.2 10,-191.2 95,-191.2 95,-169.2 10,-169.2"/>
<text text-anchor="start" x="30" y="-176.3" font-family="Helvetica,sans-Serif" font-size="11.00" fill="#000000">CD</text>
<polygon fill="none" stroke="#000000" points="95,-169.2 95,-191.2 206,-191.2 206,-169.2 95,-169.2"/>
<text text-anchor="start" x="98" y="-176.9" font-family="Helvetica,sans-Serif" font-size="11.00" fill="#000000">datetime[26]</text>
<polygon fill="none" stroke="#000000" points="10,-147.2 10,-169.2 95,-169.2 95,-147.2 10,-147.2"/>
<text text-anchor="start" x="30" y="-154.3" font-family="Helvetica,sans-Serif" font-size="11.00" fill="#000000">UD</text>
<polygon fill="none" stroke="#000000" points="95,-147.2 95,-169.2 206,-169.2 206,-147.2 95,-147.2"/>
<text text-anchor="start" x="98" y="-154.9" font-family="Helvetica,sans-Serif" font-size="11.00" fill="#000000">datetime[26]</text>
<polygon fill="none" stroke="#000000" points="10,-125.2 10,-147.2 95,-147.2 95,-125.2 10,-125.2"/>
<text text-anchor="start" x="30" y="-132.3" font-family="Helvetica,sans-Serif" font-size="11.00" fill="#000000">Remarks</text>
<polygon fill="none" stroke="#000000" points="95,-125.2 95,-147.2 206,-147.2 206,-125.2 95,-125.2"/>
<text text-anchor="start" x="97.6115" y="-132.9" font-family="Helvetica,sans-Serif" font-size="11.00" fill="#000000">longtext[2147483647]</text>
<polygon fill="none" stroke="#000000" points="10,-103.2 10,-125.2 95,-125.2 95,-103.2 10,-103.2"/>
<text text-anchor="start" x="30" y="-110.3" font-family="Helvetica,sans-Serif" font-size="11.00" fill="#000000">UserID</text>
<polygon fill="none" stroke="#000000" points="95,-103.2 95,-125.2 206,-125.2 206,-103.2 95,-103.2"/>
<text text-anchor="start" x="98" y="-110.9" font-family="Helvetica,sans-Serif" font-size="11.00" fill="#000000">int[10]</text>
<polygon fill="none" stroke="#000000" points="10,-81.2 10,-103.2 95,-103.2 95,-81.2 10,-81.2"/>
<text text-anchor="start" x="30" y="-88.3" font-family="Helvetica,sans-Serif" font-size="11.00" fill="#000000">Name</text>
<polygon fill="none" stroke="#000000" points="95,-81.2 95,-103.2 206,-103.2 206,-81.2 95,-81.2"/>
<text text-anchor="start" x="97.6115" y="-88.9" font-family="Helvetica,sans-Serif" font-size="11.00" fill="#000000">longtext[2147483647]</text>
<polygon fill="none" stroke="#000000" points="10,-59.2 10,-81.2 95,-81.2 95,-59.2 10,-59.2"/>
<text text-anchor="start" x="30" y="-66.3" font-family="Helvetica,sans-Serif" font-size="11.00" fill="#000000">Priority</text>
<polygon fill="none" stroke="#000000" points="95,-59.2 95,-81.2 206,-81.2 206,-59.2 95,-59.2"/>
<text text-anchor="start" x="98" y="-66.9" font-family="Helvetica,sans-Serif" font-size="11.00" fill="#000000">int[10]</text>
<polygon fill="#ffffff" stroke="transparent" points="10,-40.2 10,-59.2 41,-59.2 41,-40.2 10,-40.2"/>
<polygon fill="none" stroke="#000000" points="10,-40.2 10,-59.2 41,-59.2 41,-40.2 10,-40.2"/>
<text text-anchor="start" x="13" y="-46.3" font-family="Helvetica,sans-Serif" font-size="11.00" fill="#000000">&lt; 0</text>
<polygon fill="#ffffff" stroke="transparent" points="41,-40.2 41,-59.2 95,-59.2 95,-40.2 41,-40.2"/>
<polygon fill="none" stroke="#000000" points="41,-40.2 41,-59.2 95,-59.2 95,-40.2 41,-40.2"/>
<text text-anchor="start" x="53.4956" y="-46.3" font-family="Helvetica,sans-Serif" font-size="11.00" fill="#000000">12 rows</text>
<polygon fill="#ffffff" stroke="transparent" points="95,-40.2 95,-59.2 206,-59.2 206,-40.2 95,-40.2"/>
<polygon fill="none" stroke="#000000" points="95,-40.2 95,-59.2 206,-59.2 206,-40.2 95,-40.2"/>
<text text-anchor="start" x="187.4053" y="-46.3" font-family="Helvetica,sans-Serif" font-size="11.00" fill="#000000">1 &gt;</text>
<polygon fill="none" stroke="#000000" stroke-width="2" points="9,-39.2 9,-281.2 207,-281.2 207,-39.2 9,-39.2"/>
</a>
</g>
</g>
<!-- user_submenu&#45;&gt;user_menu -->
<g id="edge1" class="edge">
<title>user_submenu:w&#45;&gt;user_menu:e</title>
<path fill="none" stroke="#000000" d="M242.276,-246.2C230.2815,-246.2 222.8229,-246.2 206,-246.2"/>
<polygon fill="#000000" stroke="#000000" points="249,-246.2001 257,-249.8 253,-246.2 257,-246.2 257,-246.2 257,-246.2 253,-246.2 257,-242.6 249,-246.2001 249,-246.2001"/>
<ellipse fill="none" stroke="#000000" cx="245.8" cy="-246.2001" rx="3.2" ry="3.2"/>
</g>
</g>
</svg>
