<?xml version="1.0" encoding="UTF-8" standalone="no"?>
<!DOCTYPE svg PUBLIC "-//W3C//DTD SVG 1.1//EN"
 "http://www.w3.org/Graphics/SVG/1.1/DTD/svg11.dtd">
<!-- Generated by graphviz version 2.40.1 (20161225.0304)
 -->
<!-- Title: twoDegreesRelationshipsDiagram Pages: 1 -->
<svg width="441pt" height="393pt"
 viewBox="0.00 0.00 441.00 393.20" xmlns="http://www.w3.org/2000/svg" xmlns:xlink="http://www.w3.org/1999/xlink">
<g id="graph0" class="graph" transform="scale(1 1) rotate(0) translate(4 389.2)">
<title>twoDegreesRelationshipsDiagram</title>
<polygon fill="#ffffff" stroke="transparent" points="-4,4 -4,-389.2 437,-389.2 437,4 -4,4"/>
<text text-anchor="middle" x="72.4936" y="-7.3" font-family="Helvetica,sans-Serif" font-size="11.00" fill="#000000">Generated by SchemaSpy</text>
<!-- user_roleassign -->
<g id="node1" class="node">
<title>user_roleassign</title>
<g id="a_node1"><a xlink:href="../../tables/user_roleassign.html" xlink:title="user_roleassign" target="_top">
<polygon fill="#ffffff" stroke="transparent" points="197,-54.7 197,-298.7 425,-298.7 425,-54.7 197,-54.7"/>
<polygon fill="#f5f5f5" stroke="transparent" points="199,-273.7 199,-296.7 423,-296.7 423,-273.7 199,-273.7"/>
<polygon fill="none" stroke="#000000" points="199,-273.7 199,-296.7 423,-296.7 423,-273.7 199,-273.7"/>
<text text-anchor="start" x="204" y="-282.3" font-family="Helvetica,sans-Serif" font-weight="bold" font-size="11.00" fill="#000000">user_roleassign</text>
<text text-anchor="start" x="388.0437" y="-281.8" font-family="Helvetica,sans-Serif" font-size="11.00" fill="#000000">[table]</text>
<polygon fill="none" stroke="#000000" points="199,-251.7 199,-273.7 312,-273.7 312,-251.7 199,-251.7"/>
<image xlink:href="../../images/primaryKeys.png" width="11px" height="12px" preserveAspectRatio="xMinYMin meet" x="204" y="-268.7"/>
<text text-anchor="start" x="219" y="-258.8" font-family="Helvetica,sans-Serif" font-size="11.00" fill="#000000">ID</text>
<polygon fill="none" stroke="#000000" points="312,-251.7 312,-273.7 423,-273.7 423,-251.7 312,-251.7"/>
<text text-anchor="start" x="315" y="-259.4" font-family="Helvetica,sans-Serif" font-size="11.00" fill="#000000">int[10]</text>
<polygon fill="none" stroke="#000000" points="199,-229.7 199,-251.7 312,-251.7 312,-229.7 199,-229.7"/>
<text text-anchor="start" x="219" y="-236.8" font-family="Helvetica,sans-Serif" font-size="11.00" fill="#000000">Active</text>
<polygon fill="none" stroke="#000000" points="312,-229.7 312,-251.7 423,-251.7 423,-229.7 312,-229.7"/>
<text text-anchor="start" x="315" y="-237.4" font-family="Helvetica,sans-Serif" font-size="11.00" fill="#000000">bit[1]</text>
<polygon fill="none" stroke="#000000" points="199,-207.7 199,-229.7 312,-229.7 312,-207.7 199,-207.7"/>
<text text-anchor="start" x="219" y="-214.8" font-family="Helvetica,sans-Serif" font-size="11.00" fill="#000000">User</text>
<polygon fill="none" stroke="#000000" points="312,-207.7 312,-229.7 423,-229.7 423,-207.7 312,-207.7"/>
<text text-anchor="start" x="314.6115" y="-215.4" font-family="Helvetica,sans-Serif" font-size="11.00" fill="#000000">longtext[2147483647]</text>
<polygon fill="none" stroke="#000000" points="199,-185.7 199,-207.7 312,-207.7 312,-185.7 199,-185.7"/>
<text text-anchor="start" x="219" y="-192.8" font-family="Helvetica,sans-Serif" font-size="11.00" fill="#000000">CD</text>
<polygon fill="none" stroke="#000000" points="312,-185.7 312,-207.7 423,-207.7 423,-185.7 312,-185.7"/>
<text text-anchor="start" x="315" y="-193.4" font-family="Helvetica,sans-Serif" font-size="11.00" fill="#000000">datetime[26]</text>
<polygon fill="none" stroke="#000000" points="199,-163.7 199,-185.7 312,-185.7 312,-163.7 199,-163.7"/>
<text text-anchor="start" x="219" y="-170.8" font-family="Helvetica,sans-Serif" font-size="11.00" fill="#000000">UD</text>
<polygon fill="none" stroke="#000000" points="312,-163.7 312,-185.7 423,-185.7 423,-163.7 312,-163.7"/>
<text text-anchor="start" x="315" y="-171.4" font-family="Helvetica,sans-Serif" font-size="11.00" fill="#000000">datetime[26]</text>
<polygon fill="none" stroke="#000000" points="199,-141.7 199,-163.7 312,-163.7 312,-141.7 199,-141.7"/>
<text text-anchor="start" x="219" y="-148.8" font-family="Helvetica,sans-Serif" font-size="11.00" fill="#000000">Remarks</text>
<polygon fill="none" stroke="#000000" points="312,-141.7 312,-163.7 423,-163.7 423,-141.7 312,-141.7"/>
<text text-anchor="start" x="314.6115" y="-149.4" font-family="Helvetica,sans-Serif" font-size="11.00" fill="#000000">longtext[2147483647]</text>
<polygon fill="none" stroke="#000000" points="199,-119.7 199,-141.7 312,-141.7 312,-119.7 199,-119.7"/>
<text text-anchor="start" x="219" y="-126.8" font-family="Helvetica,sans-Serif" font-size="11.00" fill="#000000">UserID</text>
<polygon fill="none" stroke="#000000" points="312,-119.7 312,-141.7 423,-141.7 423,-119.7 312,-119.7"/>
<text text-anchor="start" x="315" y="-127.4" font-family="Helvetica,sans-Serif" font-size="11.00" fill="#000000">int[10]</text>
<polygon fill="#ffffff" stroke="transparent" points="199,-97.7 199,-119.7 312,-119.7 312,-97.7 199,-97.7"/>
<polygon fill="none" stroke="#000000" points="199,-97.7 199,-119.7 312,-119.7 312,-97.7 199,-97.7"/>
<image xlink:href="../../images/foreignKeys.png" width="11px" height="12px" preserveAspectRatio="xMinYMin meet" x="204" y="-114.7"/>
<text text-anchor="start" x="219" y="-104.8" font-family="Helvetica,sans-Serif" font-size="11.00" fill="#000000">User_RoleFk</text>
<polygon fill="none" stroke="#000000" points="312,-97.7 312,-119.7 423,-119.7 423,-97.7 312,-97.7"/>
<text text-anchor="start" x="315" y="-105.4" font-family="Helvetica,sans-Serif" font-size="11.00" fill="#000000">int[10]</text>
<polygon fill="#ffffff" stroke="transparent" points="199,-75.7 199,-97.7 312,-97.7 312,-75.7 199,-75.7"/>
<polygon fill="none" stroke="#000000" points="199,-75.7 199,-97.7 312,-97.7 312,-75.7 199,-75.7"/>
<image xlink:href="../../images/foreignKeys.png" width="11px" height="12px" preserveAspectRatio="xMinYMin meet" x="204" y="-92.7"/>
<text text-anchor="start" x="219" y="-82.8" font-family="Helvetica,sans-Serif" font-size="11.00" fill="#000000">User_UserFk</text>
<polygon fill="none" stroke="#000000" points="312,-75.7 312,-97.7 423,-97.7 423,-75.7 312,-75.7"/>
<text text-anchor="start" x="315" y="-83.4" font-family="Helvetica,sans-Serif" font-size="11.00" fill="#000000">int[10]</text>
<polygon fill="#ffffff" stroke="transparent" points="199,-56.7 199,-75.7 247,-75.7 247,-56.7 199,-56.7"/>
<polygon fill="none" stroke="#000000" points="199,-56.7 199,-75.7 247,-75.7 247,-56.7 199,-56.7"/>
<text text-anchor="start" x="202" y="-62.8" font-family="Helvetica,sans-Serif" font-size="11.00" fill="#000000">&lt; 2</text>
<polygon fill="#ffffff" stroke="transparent" points="247,-56.7 247,-75.7 312,-75.7 312,-56.7 247,-56.7"/>
<polygon fill="none" stroke="#000000" points="247,-56.7 247,-75.7 312,-75.7 312,-56.7 247,-56.7"/>
<text text-anchor="start" x="276.6105" y="-62.8" font-family="Helvetica,sans-Serif" font-size="11.00" fill="#000000">0 rows</text>
<polygon fill="#ffffff" stroke="transparent" points="312,-56.7 312,-75.7 423,-75.7 423,-56.7 312,-56.7"/>
<polygon fill="none" stroke="#000000" points="312,-56.7 312,-75.7 423,-75.7 423,-56.7 312,-56.7"/>
<text text-anchor="start" x="404.4053" y="-62.8" font-family="Helvetica,sans-Serif" font-size="11.00" fill="#000000">0 &gt;</text>
<polygon fill="none" stroke="#000000" stroke-width="2" points="198,-55.7 198,-297.7 424,-297.7 424,-55.7 198,-55.7"/>
</a>
</g>
</g>
<!-- user_role -->
<g id="node2" class="node">
<title>user_role</title>
<g id="a_node2"><a xlink:href="../../tables/user_role.html" xlink:title="user_role" target="_top">
<polygon fill="#ffffff" stroke="transparent" points="31.5,-220.2 31.5,-303.2 124.5,-303.2 124.5,-220.2 31.5,-220.2"/>
<polygon fill="#f5f5f5" stroke="transparent" points="32,-279.7 32,-302.7 125,-302.7 125,-279.7 32,-279.7"/>
<polygon fill="none" stroke="#000000" points="32,-279.7 32,-302.7 125,-302.7 125,-279.7 32,-279.7"/>
<text text-anchor="start" x="37" y="-288.3" font-family="Helvetica,sans-Serif" font-weight="bold" font-size="11.00" fill="#000000">user_role</text>
<text text-anchor="start" x="90.5219" y="-287.8" font-family="Helvetica,sans-Serif" font-size="11.00" fill="#000000">[table]</text>
<polygon fill="none" stroke="#000000" points="32,-257.7 32,-279.7 125,-279.7 125,-257.7 32,-257.7"/>
<image xlink:href="../../images/primaryKeys.png" width="11px" height="12px" preserveAspectRatio="xMinYMin meet" x="37" y="-274.7"/>
<text text-anchor="start" x="61" y="-264.8" font-family="Helvetica,sans-Serif" font-size="11.00" fill="#000000">ID</text>
<polygon fill="none" stroke="#000000" points="32,-238.7 32,-257.7 125,-257.7 125,-238.7 32,-238.7"/>
<text text-anchor="start" x="35" y="-244.8" font-family="Helvetica,sans-Serif" font-size="11.00" fill="#000000">...</text>
<polygon fill="#ffffff" stroke="transparent" points="32,-219.7 32,-238.7 52,-238.7 52,-219.7 32,-219.7"/>
<polygon fill="none" stroke="#000000" points="32,-219.7 32,-238.7 52,-238.7 52,-219.7 32,-219.7"/>
<text text-anchor="start" x="35" y="-225.8" font-family="Helvetica,sans-Serif" font-size="11.00" fill="#000000"> &#160;</text>
<polygon fill="#ffffff" stroke="transparent" points="52,-219.7 52,-238.7 100,-238.7 100,-219.7 52,-219.7"/>
<polygon fill="none" stroke="#000000" points="52,-219.7 52,-238.7 100,-238.7 100,-219.7 52,-219.7"/>
<text text-anchor="start" x="58.4956" y="-225.8" font-family="Helvetica,sans-Serif" font-size="11.00" fill="#000000">27 rows</text>
<polygon fill="#ffffff" stroke="transparent" points="100,-219.7 100,-238.7 125,-238.7 125,-219.7 100,-219.7"/>
<polygon fill="none" stroke="#000000" points="100,-219.7 100,-238.7 125,-238.7 125,-219.7 100,-219.7"/>
<text text-anchor="start" x="106.4053" y="-225.8" font-family="Helvetica,sans-Serif" font-size="11.00" fill="#000000">2 &gt;</text>
</a>
</g>
</g>
<!-- user_roleassign&#45;&gt;user_role -->
<g id="edge1" class="edge">
<title>user_roleassign:w&#45;&gt;user_role:e</title>
<path fill="none" stroke="#000000" d="M184.75,-110.9618C131.4847,-130.409 197.8395,-268.7 125,-268.7"/>
<polygon fill="#000000" stroke="#000000" points="191.0989,-109.9541 199.5644,-112.2555 195.0495,-109.3271 199,-108.7 199,-108.7 199,-108.7 195.0495,-109.3271 198.4356,-105.1445 191.0989,-109.9541 191.0989,-109.9541"/>
<ellipse fill="none" stroke="#000000" cx="187.9385" cy="-110.4558" rx="3.2" ry="3.2"/>
</g>
<!-- user_user -->
<g id="node3" class="node">
<title>user_user</title>
<g id="a_node3"><a xlink:href="../../tables/user_user.html" xlink:title="user_user" target="_top">
<polygon fill="#ffffff" stroke="transparent" points="8,-38.2 8,-121.2 148,-121.2 148,-38.2 8,-38.2"/>
<polygon fill="#f5f5f5" stroke="transparent" points="8,-97.7 8,-120.7 148,-120.7 148,-97.7 8,-97.7"/>
<polygon fill="none" stroke="#000000" points="8,-97.7 8,-120.7 148,-120.7 148,-97.7 8,-97.7"/>
<text text-anchor="start" x="13" y="-106.3" font-family="Helvetica,sans-Serif" font-weight="bold" font-size="11.00" fill="#000000">user_user</text>
<text text-anchor="start" x="113.0437" y="-105.8" font-family="Helvetica,sans-Serif" font-size="11.00" fill="#000000">[table]</text>
<polygon fill="none" stroke="#000000" points="8,-75.7 8,-97.7 148,-97.7 148,-75.7 8,-75.7"/>
<image xlink:href="../../images/primaryKeys.png" width="11px" height="12px" preserveAspectRatio="xMinYMin meet" x="13" y="-92.7"/>
<text text-anchor="start" x="28" y="-82.8" font-family="Helvetica,sans-Serif" font-size="11.00" fill="#000000">ID</text>
<polygon fill="none" stroke="#000000" points="8,-56.7 8,-75.7 148,-75.7 148,-56.7 8,-56.7"/>
<text text-anchor="start" x="11" y="-62.8" font-family="Helvetica,sans-Serif" font-size="11.00" fill="#000000">...</text>
<polygon fill="#ffffff" stroke="transparent" points="8,-37.7 8,-56.7 54,-56.7 54,-37.7 8,-37.7"/>
<polygon fill="none" stroke="#000000" points="8,-37.7 8,-56.7 54,-56.7 54,-37.7 8,-37.7"/>
<text text-anchor="start" x="11" y="-43.8" font-family="Helvetica,sans-Serif" font-size="11.00" fill="#000000"> &#160;</text>
<polygon fill="#ffffff" stroke="transparent" points="54,-37.7 54,-56.7 109,-56.7 109,-37.7 54,-37.7"/>
<polygon fill="none" stroke="#000000" points="54,-37.7 54,-56.7 109,-56.7 109,-37.7 54,-37.7"/>
<text text-anchor="start" x="73.6105" y="-43.8" font-family="Helvetica,sans-Serif" font-size="11.00" fill="#000000">0 rows</text>
<polygon fill="#ffffff" stroke="transparent" points="109,-37.7 109,-56.7 148,-56.7 148,-37.7 109,-37.7"/>
<polygon fill="none" stroke="#000000" points="109,-37.7 109,-56.7 148,-56.7 148,-37.7 109,-37.7"/>
<text text-anchor="start" x="129.4053" y="-43.8" font-family="Helvetica,sans-Serif" font-size="11.00" fill="#000000">1 &gt;</text>
</a>
</g>
</g>
<!-- user_roleassign&#45;&gt;user_user -->
<g id="edge2" class="edge">
<title>user_roleassign:w&#45;&gt;user_user:e</title>
<path fill="none" stroke="#000000" d="M184.276,-86.7C172.2815,-86.7 164.8229,-86.7 148,-86.7"/>
<polygon fill="#000000" stroke="#000000" points="191,-86.7001 199,-90.3 195,-86.7 199,-86.7 199,-86.7 199,-86.7 195,-86.7 199,-83.1 191,-86.7001 191,-86.7001"/>
<ellipse fill="none" stroke="#000000" cx="187.8" cy="-86.7001" rx="3.2" ry="3.2"/>
</g>
<!-- user_rolemenuitem -->
<g id="node4" class="node">
<title>user_rolemenuitem</title>
<g id="a_node4"><a xlink:href="../../tables/user_rolemenuitem.html" xlink:title="user_rolemenuitem" target="_top">
<polygon fill="#ffffff" stroke="transparent" points="236.5,-320.2 236.5,-381.2 385.5,-381.2 385.5,-320.2 236.5,-320.2"/>
<polygon fill="#f5f5f5" stroke="transparent" points="237,-357.7 237,-380.7 386,-380.7 386,-357.7 237,-357.7"/>
<polygon fill="none" stroke="#000000" points="237,-357.7 237,-380.7 386,-380.7 386,-357.7 237,-357.7"/>
<text text-anchor="start" x="242" y="-366.3" font-family="Helvetica,sans-Serif" font-weight="bold" font-size="11.00" fill="#000000">user_rolemenuitem</text>
<text text-anchor="start" x="351.5219" y="-365.8" font-family="Helvetica,sans-Serif" font-size="11.00" fill="#000000">[table]</text>
<polygon fill="none" stroke="#000000" points="237,-338.7 237,-357.7 386,-357.7 386,-338.7 237,-338.7"/>
<text text-anchor="start" x="240" y="-344.8" font-family="Helvetica,sans-Serif" font-size="11.00" fill="#000000">...</text>
<polygon fill="#ffffff" stroke="transparent" points="237,-319.7 237,-338.7 297,-338.7 297,-319.7 237,-319.7"/>
<polygon fill="none" stroke="#000000" points="237,-319.7 237,-338.7 297,-338.7 297,-319.7 237,-319.7"/>
<text text-anchor="start" x="240" y="-325.8" font-family="Helvetica,sans-Serif" font-size="11.00" fill="#000000">&lt; 2</text>
<polygon fill="#ffffff" stroke="transparent" points="297,-319.7 297,-338.7 354,-338.7 354,-319.7 297,-319.7"/>
<polygon fill="none" stroke="#000000" points="297,-319.7 297,-338.7 354,-338.7 354,-319.7 297,-319.7"/>
<text text-anchor="start" x="318.6105" y="-325.8" font-family="Helvetica,sans-Serif" font-size="11.00" fill="#000000">0 rows</text>
<polygon fill="#ffffff" stroke="transparent" points="354,-319.7 354,-338.7 386,-338.7 386,-319.7 354,-319.7"/>
<polygon fill="none" stroke="#000000" points="354,-319.7 354,-338.7 386,-338.7 386,-319.7 354,-319.7"/>
<text text-anchor="start" x="376.8862" y="-325.8" font-family="Helvetica,sans-Serif" font-size="11.00" fill="#000000"> &#160;</text>
</a>
</g>
</g>
<!-- user_rolemenuitem&#45;&gt;user_role -->
<g id="edge3" class="edge">
<title>user_rolemenuitem:w&#45;&gt;user_role:e</title>
<path fill="none" stroke="#000000" d="M222.4819,-345.9765C177.2666,-334.4235 180.561,-268.7 125,-268.7"/>
<polygon fill="#000000" stroke="#000000" points="229.0558,-346.7569 236.5756,-351.2749 233.0279,-347.2284 237,-347.7 237,-347.7 237,-347.7 233.0279,-347.2284 237.4244,-344.1251 229.0558,-346.7569 229.0558,-346.7569"/>
<ellipse fill="none" stroke="#000000" cx="225.8781" cy="-346.3796" rx="3.2" ry="3.2"/>
</g>
</g>
</svg>
