<?xml version="1.0" encoding="UTF-8" standalone="no"?>
<!DOCTYPE svg PUBLIC "-//W3C//DTD SVG 1.1//EN"
 "http://www.w3.org/Graphics/SVG/1.1/DTD/svg11.dtd">
<!-- Generated by graphviz version 2.40.1 (20161225.0304)
 -->
<!-- Title: oneDegreeRelationshipsDiagram Pages: 1 -->
<svg width="632pt" height="447pt"
 viewBox="0.00 0.00 632.00 446.70" xmlns="http://www.w3.org/2000/svg" xmlns:xlink="http://www.w3.org/1999/xlink">
<g id="graph0" class="graph" transform="scale(1 1) rotate(0) translate(4 442.7)">
<title>oneDegreeRelationshipsDiagram</title>
<polygon fill="#ffffff" stroke="transparent" points="-4,4 -4,-442.7 628,-442.7 628,4 -4,4"/>
<text text-anchor="middle" x="72.4936" y="-7.3" font-family="Helvetica,sans-Serif" font-size="11.00" fill="#000000">Generated by SchemaSpy</text>
<!-- user_menuitem -->
<g id="node1" class="node">
<title>user_menuitem</title>
<g id="a_node1"><a xlink:href="../../tables/user_menuitem.html" xlink:title="user_menuitem" target="_top">
<polygon fill="#ffffff" stroke="transparent" points="181,-38.2 181,-414.2 418,-414.2 418,-38.2 181,-38.2"/>
<polygon fill="#f5f5f5" stroke="transparent" points="183.5,-389.2 183.5,-412.2 416.5,-412.2 416.5,-389.2 183.5,-389.2"/>
<polygon fill="none" stroke="#000000" points="183.5,-389.2 183.5,-412.2 416.5,-412.2 416.5,-389.2 183.5,-389.2"/>
<text text-anchor="start" x="188.5" y="-397.8" font-family="Helvetica,sans-Serif" font-weight="bold" font-size="11.00" fill="#000000">user_menuitem</text>
<text text-anchor="start" x="381.5437" y="-397.3" font-family="Helvetica,sans-Serif" font-size="11.00" fill="#000000">[table]</text>
<polygon fill="none" stroke="#000000" points="183.5,-367.2 183.5,-389.2 305.5,-389.2 305.5,-367.2 183.5,-367.2"/>
<image xlink:href="../../images/primaryKeys.png" width="11px" height="12px" preserveAspectRatio="xMinYMin meet" x="188.5" y="-384.2"/>
<text text-anchor="start" x="203.5" y="-374.3" font-family="Helvetica,sans-Serif" font-size="11.00" fill="#000000">ID</text>
<polygon fill="none" stroke="#000000" points="305.5,-367.2 305.5,-389.2 416.5,-389.2 416.5,-367.2 305.5,-367.2"/>
<text text-anchor="start" x="308.5" y="-374.9" font-family="Helvetica,sans-Serif" font-size="11.00" fill="#000000">int[10]</text>
<polygon fill="none" stroke="#000000" points="183.5,-345.2 183.5,-367.2 305.5,-367.2 305.5,-345.2 183.5,-345.2"/>
<text text-anchor="start" x="203.5" y="-352.3" font-family="Helvetica,sans-Serif" font-size="11.00" fill="#000000">Active</text>
<polygon fill="none" stroke="#000000" points="305.5,-345.2 305.5,-367.2 416.5,-367.2 416.5,-345.2 305.5,-345.2"/>
<text text-anchor="start" x="308.5" y="-352.9" font-family="Helvetica,sans-Serif" font-size="11.00" fill="#000000">bit[1]</text>
<polygon fill="none" stroke="#000000" points="183.5,-323.2 183.5,-345.2 305.5,-345.2 305.5,-323.2 183.5,-323.2"/>
<text text-anchor="start" x="203.5" y="-330.3" font-family="Helvetica,sans-Serif" font-size="11.00" fill="#000000">User</text>
<polygon fill="none" stroke="#000000" points="305.5,-323.2 305.5,-345.2 416.5,-345.2 416.5,-323.2 305.5,-323.2"/>
<text text-anchor="start" x="308.1115" y="-330.9" font-family="Helvetica,sans-Serif" font-size="11.00" fill="#000000">longtext[2147483647]</text>
<polygon fill="none" stroke="#000000" points="183.5,-301.2 183.5,-323.2 305.5,-323.2 305.5,-301.2 183.5,-301.2"/>
<text text-anchor="start" x="203.5" y="-308.3" font-family="Helvetica,sans-Serif" font-size="11.00" fill="#000000">CD</text>
<polygon fill="none" stroke="#000000" points="305.5,-301.2 305.5,-323.2 416.5,-323.2 416.5,-301.2 305.5,-301.2"/>
<text text-anchor="start" x="308.5" y="-308.9" font-family="Helvetica,sans-Serif" font-size="11.00" fill="#000000">datetime[26]</text>
<polygon fill="none" stroke="#000000" points="183.5,-279.2 183.5,-301.2 305.5,-301.2 305.5,-279.2 183.5,-279.2"/>
<text text-anchor="start" x="203.5" y="-286.3" font-family="Helvetica,sans-Serif" font-size="11.00" fill="#000000">UD</text>
<polygon fill="none" stroke="#000000" points="305.5,-279.2 305.5,-301.2 416.5,-301.2 416.5,-279.2 305.5,-279.2"/>
<text text-anchor="start" x="308.5" y="-286.9" font-family="Helvetica,sans-Serif" font-size="11.00" fill="#000000">datetime[26]</text>
<polygon fill="none" stroke="#000000" points="183.5,-257.2 183.5,-279.2 305.5,-279.2 305.5,-257.2 183.5,-257.2"/>
<text text-anchor="start" x="203.5" y="-264.3" font-family="Helvetica,sans-Serif" font-size="11.00" fill="#000000">Remarks</text>
<polygon fill="none" stroke="#000000" points="305.5,-257.2 305.5,-279.2 416.5,-279.2 416.5,-257.2 305.5,-257.2"/>
<text text-anchor="start" x="308.1115" y="-264.9" font-family="Helvetica,sans-Serif" font-size="11.00" fill="#000000">longtext[2147483647]</text>
<polygon fill="none" stroke="#000000" points="183.5,-235.2 183.5,-257.2 305.5,-257.2 305.5,-235.2 183.5,-235.2"/>
<text text-anchor="start" x="203.5" y="-242.3" font-family="Helvetica,sans-Serif" font-size="11.00" fill="#000000">UserID</text>
<polygon fill="none" stroke="#000000" points="305.5,-235.2 305.5,-257.2 416.5,-257.2 416.5,-235.2 305.5,-235.2"/>
<text text-anchor="start" x="308.5" y="-242.9" font-family="Helvetica,sans-Serif" font-size="11.00" fill="#000000">int[10]</text>
<polygon fill="none" stroke="#000000" points="183.5,-213.2 183.5,-235.2 305.5,-235.2 305.5,-213.2 183.5,-213.2"/>
<text text-anchor="start" x="203.5" y="-220.3" font-family="Helvetica,sans-Serif" font-size="11.00" fill="#000000">Name</text>
<polygon fill="none" stroke="#000000" points="305.5,-213.2 305.5,-235.2 416.5,-235.2 416.5,-213.2 305.5,-213.2"/>
<text text-anchor="start" x="308.1115" y="-220.9" font-family="Helvetica,sans-Serif" font-size="11.00" fill="#000000">longtext[2147483647]</text>
<polygon fill="none" stroke="#000000" points="183.5,-191.2 183.5,-213.2 305.5,-213.2 305.5,-191.2 183.5,-191.2"/>
<text text-anchor="start" x="203.5" y="-198.3" font-family="Helvetica,sans-Serif" font-size="11.00" fill="#000000">Priority</text>
<polygon fill="none" stroke="#000000" points="305.5,-191.2 305.5,-213.2 416.5,-213.2 416.5,-191.2 305.5,-191.2"/>
<text text-anchor="start" x="308.5" y="-198.9" font-family="Helvetica,sans-Serif" font-size="11.00" fill="#000000">int[10]</text>
<polygon fill="none" stroke="#000000" points="183.5,-169.2 183.5,-191.2 305.5,-191.2 305.5,-169.2 183.5,-169.2"/>
<text text-anchor="start" x="203.5" y="-176.3" font-family="Helvetica,sans-Serif" font-size="11.00" fill="#000000">Method</text>
<polygon fill="none" stroke="#000000" points="305.5,-169.2 305.5,-191.2 416.5,-191.2 416.5,-169.2 305.5,-169.2"/>
<text text-anchor="start" x="308.1115" y="-176.9" font-family="Helvetica,sans-Serif" font-size="11.00" fill="#000000">longtext[2147483647]</text>
<polygon fill="none" stroke="#000000" points="183.5,-147.2 183.5,-169.2 305.5,-169.2 305.5,-147.2 183.5,-147.2"/>
<text text-anchor="start" x="203.5" y="-154.3" font-family="Helvetica,sans-Serif" font-size="11.00" fill="#000000">IsAlone</text>
<polygon fill="none" stroke="#000000" points="305.5,-147.2 305.5,-169.2 416.5,-169.2 416.5,-147.2 305.5,-147.2"/>
<text text-anchor="start" x="308.5" y="-154.9" font-family="Helvetica,sans-Serif" font-size="11.00" fill="#000000">bit[1]</text>
<polygon fill="#ffffff" stroke="transparent" points="183.5,-125.2 183.5,-147.2 305.5,-147.2 305.5,-125.2 183.5,-125.2"/>
<polygon fill="none" stroke="#000000" points="183.5,-125.2 183.5,-147.2 305.5,-147.2 305.5,-125.2 183.5,-125.2"/>
<image xlink:href="../../images/foreignKeys.png" width="11px" height="12px" preserveAspectRatio="xMinYMin meet" x="188.5" y="-142.2"/>
<text text-anchor="start" x="203.5" y="-132.3" font-family="Helvetica,sans-Serif" font-size="11.00" fill="#000000">User_SubMenuFk</text>
<polygon fill="none" stroke="#000000" points="305.5,-125.2 305.5,-147.2 416.5,-147.2 416.5,-125.2 305.5,-125.2"/>
<text text-anchor="start" x="308.5" y="-132.9" font-family="Helvetica,sans-Serif" font-size="11.00" fill="#000000">int[10]</text>
<polygon fill="none" stroke="#000000" points="183.5,-103.2 183.5,-125.2 305.5,-125.2 305.5,-103.2 183.5,-103.2"/>
<text text-anchor="start" x="203.5" y="-110.3" font-family="Helvetica,sans-Serif" font-size="11.00" fill="#000000">ActionID</text>
<polygon fill="none" stroke="#000000" points="305.5,-103.2 305.5,-125.2 416.5,-125.2 416.5,-103.2 305.5,-103.2"/>
<text text-anchor="start" x="308.5" y="-110.9" font-family="Helvetica,sans-Serif" font-size="11.00" fill="#000000">int[10]</text>
<polygon fill="none" stroke="#000000" points="183.5,-81.2 183.5,-103.2 305.5,-103.2 305.5,-81.2 183.5,-81.2"/>
<text text-anchor="start" x="203.5" y="-88.3" font-family="Helvetica,sans-Serif" font-size="11.00" fill="#000000">IsAdminItem</text>
<polygon fill="none" stroke="#000000" points="305.5,-81.2 305.5,-103.2 416.5,-103.2 416.5,-81.2 305.5,-81.2"/>
<text text-anchor="start" x="308.5" y="-88.9" font-family="Helvetica,sans-Serif" font-size="11.00" fill="#000000">bit[1]</text>
<polygon fill="none" stroke="#000000" points="183.5,-59.2 183.5,-81.2 305.5,-81.2 305.5,-59.2 183.5,-59.2"/>
<text text-anchor="start" x="203.5" y="-66.3" font-family="Helvetica,sans-Serif" font-size="11.00" fill="#000000">ItemGroupID</text>
<polygon fill="none" stroke="#000000" points="305.5,-59.2 305.5,-81.2 416.5,-81.2 416.5,-59.2 305.5,-59.2"/>
<text text-anchor="start" x="308.5" y="-66.9" font-family="Helvetica,sans-Serif" font-size="11.00" fill="#000000">int[10]</text>
<polygon fill="#ffffff" stroke="transparent" points="183.5,-40.2 183.5,-59.2 229.5,-59.2 229.5,-40.2 183.5,-40.2"/>
<polygon fill="none" stroke="#000000" points="183.5,-40.2 183.5,-59.2 229.5,-59.2 229.5,-40.2 183.5,-40.2"/>
<text text-anchor="start" x="186.5" y="-46.3" font-family="Helvetica,sans-Serif" font-size="11.00" fill="#000000">&lt; 1</text>
<polygon fill="#ffffff" stroke="transparent" points="229.5,-40.2 229.5,-59.2 305.5,-59.2 305.5,-40.2 229.5,-40.2"/>
<polygon fill="none" stroke="#000000" points="229.5,-40.2 229.5,-59.2 305.5,-59.2 305.5,-40.2 229.5,-40.2"/>
<text text-anchor="start" x="257.8807" y="-46.3" font-family="Helvetica,sans-Serif" font-size="11.00" fill="#000000">392 rows</text>
<polygon fill="#ffffff" stroke="transparent" points="305.5,-40.2 305.5,-59.2 416.5,-59.2 416.5,-40.2 305.5,-40.2"/>
<polygon fill="none" stroke="#000000" points="305.5,-40.2 305.5,-59.2 416.5,-59.2 416.5,-40.2 305.5,-40.2"/>
<text text-anchor="start" x="397.9053" y="-46.3" font-family="Helvetica,sans-Serif" font-size="11.00" fill="#000000">1 &gt;</text>
<polygon fill="none" stroke="#000000" stroke-width="2" points="182,-39.2 182,-413.2 417,-413.2 417,-39.2 182,-39.2"/>
</a>
</g>
</g>
<!-- user_submenu -->
<g id="node2" class="node">
<title>user_submenu</title>
<g id="a_node2"><a xlink:href="../../tables/user_submenu.html" xlink:title="user_submenu" target="_top">
<polygon fill="#ffffff" stroke="transparent" points="8,-65.7 8,-170.7 132,-170.7 132,-65.7 8,-65.7"/>
<polygon fill="#f5f5f5" stroke="transparent" points="8,-147.2 8,-170.2 132,-170.2 132,-147.2 8,-147.2"/>
<polygon fill="none" stroke="#000000" points="8,-147.2 8,-170.2 132,-170.2 132,-147.2 8,-147.2"/>
<text text-anchor="start" x="13" y="-155.8" font-family="Helvetica,sans-Serif" font-weight="bold" font-size="11.00" fill="#000000">user_submenu</text>
<text text-anchor="start" x="97.5219" y="-155.3" font-family="Helvetica,sans-Serif" font-size="11.00" fill="#000000">[table]</text>
<polygon fill="none" stroke="#000000" points="8,-125.2 8,-147.2 132,-147.2 132,-125.2 8,-125.2"/>
<image xlink:href="../../images/primaryKeys.png" width="11px" height="12px" preserveAspectRatio="xMinYMin meet" x="13" y="-142.2"/>
<text text-anchor="start" x="37" y="-132.3" font-family="Helvetica,sans-Serif" font-size="11.00" fill="#000000">ID</text>
<polygon fill="#ffffff" stroke="transparent" points="8,-103.2 8,-125.2 132,-125.2 132,-103.2 8,-103.2"/>
<polygon fill="none" stroke="#000000" points="8,-103.2 8,-125.2 132,-125.2 132,-103.2 8,-103.2"/>
<image xlink:href="../../images/foreignKeys.png" width="11px" height="12px" preserveAspectRatio="xMinYMin meet" x="13" y="-120.2"/>
<text text-anchor="start" x="37" y="-110.3" font-family="Helvetica,sans-Serif" font-size="11.00" fill="#000000">User_MenuFk</text>
<polygon fill="none" stroke="#000000" points="8,-84.2 8,-103.2 132,-103.2 132,-84.2 8,-84.2"/>
<text text-anchor="start" x="11" y="-90.3" font-family="Helvetica,sans-Serif" font-size="11.00" fill="#000000">...</text>
<polygon fill="#ffffff" stroke="transparent" points="8,-65.2 8,-84.2 51,-84.2 51,-65.2 8,-65.2"/>
<polygon fill="none" stroke="#000000" points="8,-65.2 8,-84.2 51,-84.2 51,-65.2 8,-65.2"/>
<text text-anchor="start" x="11" y="-71.3" font-family="Helvetica,sans-Serif" font-size="11.00" fill="#000000">&lt; 1</text>
<polygon fill="#ffffff" stroke="transparent" points="51,-65.2 51,-84.2 100,-84.2 100,-65.2 51,-65.2"/>
<polygon fill="none" stroke="#000000" points="51,-65.2 51,-84.2 100,-84.2 100,-65.2 51,-65.2"/>
<text text-anchor="start" x="64.6105" y="-71.3" font-family="Helvetica,sans-Serif" font-size="11.00" fill="#000000">0 rows</text>
<polygon fill="#ffffff" stroke="transparent" points="100,-65.2 100,-84.2 132,-84.2 132,-65.2 100,-65.2"/>
<polygon fill="none" stroke="#000000" points="100,-65.2 100,-84.2 132,-84.2 132,-65.2 100,-65.2"/>
<text text-anchor="start" x="113.4053" y="-71.3" font-family="Helvetica,sans-Serif" font-size="11.00" fill="#000000">1 &gt;</text>
</a>
</g>
</g>
<!-- user_menuitem&#45;&gt;user_submenu -->
<g id="edge1" class="edge">
<title>user_menuitem:w&#45;&gt;user_submenu:e</title>
<path fill="none" stroke="#000000" d="M169.0156,-136.2C156.6771,-136.2 149.1667,-136.2 132,-136.2"/>
<polygon fill="#000000" stroke="#000000" points="175.5,-136.2001 183.5,-139.8 179.5,-136.2 183.5,-136.2 183.5,-136.2 183.5,-136.2 179.5,-136.2 183.5,-132.6 175.5,-136.2001 175.5,-136.2001"/>
<ellipse fill="none" stroke="#000000" cx="172.3" cy="-136.2001" rx="3.2" ry="3.2"/>
</g>
<!-- user_rolemenuitem -->
<g id="node3" class="node">
<title>user_rolemenuitem</title>
<g id="a_node3"><a xlink:href="../../tables/user_rolemenuitem.html" xlink:title="user_rolemenuitem" target="_top">
<polygon fill="#ffffff" stroke="transparent" points="467,-307.7 467,-434.7 616,-434.7 616,-307.7 467,-307.7"/>
<polygon fill="#f5f5f5" stroke="transparent" points="467.5,-411.2 467.5,-434.2 616.5,-434.2 616.5,-411.2 467.5,-411.2"/>
<polygon fill="none" stroke="#000000" points="467.5,-411.2 467.5,-434.2 616.5,-434.2 616.5,-411.2 467.5,-411.2"/>
<text text-anchor="start" x="472.5" y="-419.8" font-family="Helvetica,sans-Serif" font-weight="bold" font-size="11.00" fill="#000000">user_rolemenuitem</text>
<text text-anchor="start" x="582.0219" y="-419.3" font-family="Helvetica,sans-Serif" font-size="11.00" fill="#000000">[table]</text>
<polygon fill="none" stroke="#000000" points="467.5,-389.2 467.5,-411.2 616.5,-411.2 616.5,-389.2 467.5,-389.2"/>
<image xlink:href="../../images/primaryKeys.png" width="11px" height="12px" preserveAspectRatio="xMinYMin meet" x="472.5" y="-406.2"/>
<text text-anchor="start" x="496.5" y="-396.3" font-family="Helvetica,sans-Serif" font-size="11.00" fill="#000000">ID</text>
<polygon fill="#ffffff" stroke="transparent" points="467.5,-367.2 467.5,-389.2 616.5,-389.2 616.5,-367.2 467.5,-367.2"/>
<polygon fill="none" stroke="#000000" points="467.5,-367.2 467.5,-389.2 616.5,-389.2 616.5,-367.2 467.5,-367.2"/>
<image xlink:href="../../images/foreignKeys.png" width="11px" height="12px" preserveAspectRatio="xMinYMin meet" x="472.5" y="-384.2"/>
<text text-anchor="start" x="496.5" y="-374.3" font-family="Helvetica,sans-Serif" font-size="11.00" fill="#000000">User_MenuItemFk</text>
<polygon fill="#ffffff" stroke="transparent" points="467.5,-345.2 467.5,-367.2 616.5,-367.2 616.5,-345.2 467.5,-345.2"/>
<polygon fill="none" stroke="#000000" points="467.5,-345.2 467.5,-367.2 616.5,-367.2 616.5,-345.2 467.5,-345.2"/>
<image xlink:href="../../images/foreignKeys.png" width="11px" height="12px" preserveAspectRatio="xMinYMin meet" x="472.5" y="-362.2"/>
<text text-anchor="start" x="496.5" y="-352.3" font-family="Helvetica,sans-Serif" font-size="11.00" fill="#000000">User_RoleFK</text>
<polygon fill="none" stroke="#000000" points="467.5,-326.2 467.5,-345.2 616.5,-345.2 616.5,-326.2 467.5,-326.2"/>
<text text-anchor="start" x="470.5" y="-332.3" font-family="Helvetica,sans-Serif" font-size="11.00" fill="#000000">...</text>
<polygon fill="#ffffff" stroke="transparent" points="467.5,-307.2 467.5,-326.2 527.5,-326.2 527.5,-307.2 467.5,-307.2"/>
<polygon fill="none" stroke="#000000" points="467.5,-307.2 467.5,-326.2 527.5,-326.2 527.5,-307.2 467.5,-307.2"/>
<text text-anchor="start" x="470.5" y="-313.3" font-family="Helvetica,sans-Serif" font-size="11.00" fill="#000000">&lt; 2</text>
<polygon fill="#ffffff" stroke="transparent" points="527.5,-307.2 527.5,-326.2 584.5,-326.2 584.5,-307.2 527.5,-307.2"/>
<polygon fill="none" stroke="#000000" points="527.5,-307.2 527.5,-326.2 584.5,-326.2 584.5,-307.2 527.5,-307.2"/>
<text text-anchor="start" x="549.1105" y="-313.3" font-family="Helvetica,sans-Serif" font-size="11.00" fill="#000000">0 rows</text>
<polygon fill="#ffffff" stroke="transparent" points="584.5,-307.2 584.5,-326.2 616.5,-326.2 616.5,-307.2 584.5,-307.2"/>
<polygon fill="none" stroke="#000000" points="584.5,-307.2 584.5,-326.2 616.5,-326.2 616.5,-307.2 584.5,-307.2"/>
<text text-anchor="start" x="607.3862" y="-313.3" font-family="Helvetica,sans-Serif" font-size="11.00" fill="#000000"> &#160;</text>
</a>
</g>
</g>
<!-- user_rolemenuitem&#45;&gt;user_menuitem -->
<g id="edge2" class="edge">
<title>user_rolemenuitem:w&#45;&gt;user_menuitem:e</title>
<path fill="none" stroke="#000000" d="M452.776,-378.2C440.7815,-378.2 433.3229,-378.2 416.5,-378.2"/>
<polygon fill="#000000" stroke="#000000" points="459.5,-378.2001 467.5,-381.8 463.5,-378.2 467.5,-378.2 467.5,-378.2 467.5,-378.2 463.5,-378.2 467.5,-374.6 459.5,-378.2001 459.5,-378.2001"/>
<ellipse fill="none" stroke="#000000" cx="456.3" cy="-378.2001" rx="3.2" ry="3.2"/>
</g>
</g>
</svg>
