<?xml version="1.0" encoding="UTF-8" standalone="no"?>
<!DOCTYPE svg PUBLIC "-//W3C//DTD SVG 1.1//EN"
 "http://www.w3.org/Graphics/SVG/1.1/DTD/svg11.dtd">
<!-- Generated by graphviz version 2.40.1 (20161225.0304)
 -->
<!-- Title: oneDegreeRelationshipsDiagram Pages: 1 -->
<svg width="412pt" height="378pt"
 viewBox="0.00 0.00 412.00 377.70" xmlns="http://www.w3.org/2000/svg" xmlns:xlink="http://www.w3.org/1999/xlink">
<g id="graph0" class="graph" transform="scale(1 1) rotate(0) translate(4 373.7)">
<title>oneDegreeRelationshipsDiagram</title>
<polygon fill="#ffffff" stroke="transparent" points="-4,4 -4,-373.7 408,-373.7 408,4 -4,4"/>
<text text-anchor="middle" x="72.4936" y="-7.3" font-family="Helvetica,sans-Serif" font-size="11.00" fill="#000000">Generated by SchemaSpy</text>
<!-- user_roleassign -->
<g id="node1" class="node">
<title>user_roleassign</title>
<g id="a_node1"><a xlink:href="../../tables/user_roleassign.html" xlink:title="user_roleassign" target="_top">
<polygon fill="#ffffff" stroke="transparent" points="256,-238.7 256,-365.7 387,-365.7 387,-238.7 256,-238.7"/>
<polygon fill="#f5f5f5" stroke="transparent" points="256.5,-342.2 256.5,-365.2 387.5,-365.2 387.5,-342.2 256.5,-342.2"/>
<polygon fill="none" stroke="#000000" points="256.5,-342.2 256.5,-365.2 387.5,-365.2 387.5,-342.2 256.5,-342.2"/>
<text text-anchor="start" x="261.5" y="-350.8" font-family="Helvetica,sans-Serif" font-weight="bold" font-size="11.00" fill="#000000">user_roleassign</text>
<text text-anchor="start" x="353.0219" y="-350.3" font-family="Helvetica,sans-Serif" font-size="11.00" fill="#000000">[table]</text>
<polygon fill="none" stroke="#000000" points="256.5,-320.2 256.5,-342.2 387.5,-342.2 387.5,-320.2 256.5,-320.2"/>
<image xlink:href="../../images/primaryKeys.png" width="11px" height="12px" preserveAspectRatio="xMinYMin meet" x="261.5" y="-337.2"/>
<text text-anchor="start" x="285.5" y="-327.3" font-family="Helvetica,sans-Serif" font-size="11.00" fill="#000000">ID</text>
<polygon fill="#ffffff" stroke="transparent" points="256.5,-298.2 256.5,-320.2 387.5,-320.2 387.5,-298.2 256.5,-298.2"/>
<polygon fill="none" stroke="#000000" points="256.5,-298.2 256.5,-320.2 387.5,-320.2 387.5,-298.2 256.5,-298.2"/>
<image xlink:href="../../images/foreignKeys.png" width="11px" height="12px" preserveAspectRatio="xMinYMin meet" x="261.5" y="-315.2"/>
<text text-anchor="start" x="285.5" y="-305.3" font-family="Helvetica,sans-Serif" font-size="11.00" fill="#000000">User_RoleFk</text>
<polygon fill="#ffffff" stroke="transparent" points="256.5,-276.2 256.5,-298.2 387.5,-298.2 387.5,-276.2 256.5,-276.2"/>
<polygon fill="none" stroke="#000000" points="256.5,-276.2 256.5,-298.2 387.5,-298.2 387.5,-276.2 256.5,-276.2"/>
<image xlink:href="../../images/foreignKeys.png" width="11px" height="12px" preserveAspectRatio="xMinYMin meet" x="261.5" y="-293.2"/>
<text text-anchor="start" x="285.5" y="-283.3" font-family="Helvetica,sans-Serif" font-size="11.00" fill="#000000">User_UserFk</text>
<polygon fill="none" stroke="#000000" points="256.5,-257.2 256.5,-276.2 387.5,-276.2 387.5,-257.2 256.5,-257.2"/>
<text text-anchor="start" x="259.5" y="-263.3" font-family="Helvetica,sans-Serif" font-size="11.00" fill="#000000">...</text>
<polygon fill="#ffffff" stroke="transparent" points="256.5,-238.2 256.5,-257.2 307.5,-257.2 307.5,-238.2 256.5,-238.2"/>
<polygon fill="none" stroke="#000000" points="256.5,-238.2 256.5,-257.2 307.5,-257.2 307.5,-238.2 256.5,-238.2"/>
<text text-anchor="start" x="259.5" y="-244.3" font-family="Helvetica,sans-Serif" font-size="11.00" fill="#000000">&lt; 2</text>
<polygon fill="#ffffff" stroke="transparent" points="307.5,-238.2 307.5,-257.2 360.5,-257.2 360.5,-238.2 307.5,-238.2"/>
<polygon fill="none" stroke="#000000" points="307.5,-238.2 307.5,-257.2 360.5,-257.2 360.5,-238.2 307.5,-238.2"/>
<text text-anchor="start" x="325.1105" y="-244.3" font-family="Helvetica,sans-Serif" font-size="11.00" fill="#000000">0 rows</text>
<polygon fill="#ffffff" stroke="transparent" points="360.5,-238.2 360.5,-257.2 387.5,-257.2 387.5,-238.2 360.5,-238.2"/>
<polygon fill="none" stroke="#000000" points="360.5,-238.2 360.5,-257.2 387.5,-257.2 387.5,-238.2 360.5,-238.2"/>
<text text-anchor="start" x="378.3862" y="-244.3" font-family="Helvetica,sans-Serif" font-size="11.00" fill="#000000"> &#160;</text>
</a>
</g>
</g>
<!-- user_role -->
<g id="node2" class="node">
<title>user_role</title>
<g id="a_node2"><a xlink:href="../../tables/user_role.html" xlink:title="user_role" target="_top">
<polygon fill="#ffffff" stroke="transparent" points="8,-38.2 8,-260.2 198,-260.2 198,-38.2 8,-38.2"/>
<polygon fill="#f5f5f5" stroke="transparent" points="10,-235.2 10,-258.2 196,-258.2 196,-235.2 10,-235.2"/>
<polygon fill="none" stroke="#000000" points="10,-235.2 10,-258.2 196,-258.2 196,-235.2 10,-235.2"/>
<text text-anchor="start" x="15" y="-243.8" font-family="Helvetica,sans-Serif" font-weight="bold" font-size="11.00" fill="#000000">user_role</text>
<text text-anchor="start" x="161.0437" y="-243.3" font-family="Helvetica,sans-Serif" font-size="11.00" fill="#000000">[table]</text>
<polygon fill="none" stroke="#000000" points="10,-213.2 10,-235.2 85,-235.2 85,-213.2 10,-213.2"/>
<image xlink:href="../../images/primaryKeys.png" width="11px" height="12px" preserveAspectRatio="xMinYMin meet" x="15" y="-230.2"/>
<text text-anchor="start" x="30" y="-220.3" font-family="Helvetica,sans-Serif" font-size="11.00" fill="#000000">ID</text>
<polygon fill="none" stroke="#000000" points="85,-213.2 85,-235.2 196,-235.2 196,-213.2 85,-213.2"/>
<text text-anchor="start" x="88" y="-220.9" font-family="Helvetica,sans-Serif" font-size="11.00" fill="#000000">int[10]</text>
<polygon fill="none" stroke="#000000" points="10,-191.2 10,-213.2 85,-213.2 85,-191.2 10,-191.2"/>
<text text-anchor="start" x="30" y="-198.3" font-family="Helvetica,sans-Serif" font-size="11.00" fill="#000000">Active</text>
<polygon fill="none" stroke="#000000" points="85,-191.2 85,-213.2 196,-213.2 196,-191.2 85,-191.2"/>
<text text-anchor="start" x="88" y="-198.9" font-family="Helvetica,sans-Serif" font-size="11.00" fill="#000000">bit[1]</text>
<polygon fill="none" stroke="#000000" points="10,-169.2 10,-191.2 85,-191.2 85,-169.2 10,-169.2"/>
<text text-anchor="start" x="30" y="-176.3" font-family="Helvetica,sans-Serif" font-size="11.00" fill="#000000">User</text>
<polygon fill="none" stroke="#000000" points="85,-169.2 85,-191.2 196,-191.2 196,-169.2 85,-169.2"/>
<text text-anchor="start" x="87.6115" y="-176.9" font-family="Helvetica,sans-Serif" font-size="11.00" fill="#000000">longtext[2147483647]</text>
<polygon fill="none" stroke="#000000" points="10,-147.2 10,-169.2 85,-169.2 85,-147.2 10,-147.2"/>
<text text-anchor="start" x="30" y="-154.3" font-family="Helvetica,sans-Serif" font-size="11.00" fill="#000000">CD</text>
<polygon fill="none" stroke="#000000" points="85,-147.2 85,-169.2 196,-169.2 196,-147.2 85,-147.2"/>
<text text-anchor="start" x="88" y="-154.9" font-family="Helvetica,sans-Serif" font-size="11.00" fill="#000000">datetime[26]</text>
<polygon fill="none" stroke="#000000" points="10,-125.2 10,-147.2 85,-147.2 85,-125.2 10,-125.2"/>
<text text-anchor="start" x="30" y="-132.3" font-family="Helvetica,sans-Serif" font-size="11.00" fill="#000000">UD</text>
<polygon fill="none" stroke="#000000" points="85,-125.2 85,-147.2 196,-147.2 196,-125.2 85,-125.2"/>
<text text-anchor="start" x="88" y="-132.9" font-family="Helvetica,sans-Serif" font-size="11.00" fill="#000000">datetime[26]</text>
<polygon fill="none" stroke="#000000" points="10,-103.2 10,-125.2 85,-125.2 85,-103.2 10,-103.2"/>
<text text-anchor="start" x="30" y="-110.3" font-family="Helvetica,sans-Serif" font-size="11.00" fill="#000000">Remarks</text>
<polygon fill="none" stroke="#000000" points="85,-103.2 85,-125.2 196,-125.2 196,-103.2 85,-103.2"/>
<text text-anchor="start" x="87.6115" y="-110.9" font-family="Helvetica,sans-Serif" font-size="11.00" fill="#000000">longtext[2147483647]</text>
<polygon fill="none" stroke="#000000" points="10,-81.2 10,-103.2 85,-103.2 85,-81.2 10,-81.2"/>
<text text-anchor="start" x="30" y="-88.3" font-family="Helvetica,sans-Serif" font-size="11.00" fill="#000000">UserID</text>
<polygon fill="none" stroke="#000000" points="85,-81.2 85,-103.2 196,-103.2 196,-81.2 85,-81.2"/>
<text text-anchor="start" x="88" y="-88.9" font-family="Helvetica,sans-Serif" font-size="11.00" fill="#000000">int[10]</text>
<polygon fill="none" stroke="#000000" points="10,-59.2 10,-81.2 85,-81.2 85,-59.2 10,-59.2"/>
<text text-anchor="start" x="30" y="-66.3" font-family="Helvetica,sans-Serif" font-size="11.00" fill="#000000">Name</text>
<polygon fill="none" stroke="#000000" points="85,-59.2 85,-81.2 196,-81.2 196,-59.2 85,-59.2"/>
<text text-anchor="start" x="87.6115" y="-66.9" font-family="Helvetica,sans-Serif" font-size="11.00" fill="#000000">longtext[2147483647]</text>
<polygon fill="#ffffff" stroke="transparent" points="10,-40.2 10,-59.2 36,-59.2 36,-40.2 10,-40.2"/>
<polygon fill="none" stroke="#000000" points="10,-40.2 10,-59.2 36,-59.2 36,-40.2 10,-40.2"/>
<text text-anchor="start" x="13" y="-46.3" font-family="Helvetica,sans-Serif" font-size="11.00" fill="#000000">&lt; 0</text>
<polygon fill="#ffffff" stroke="transparent" points="36,-40.2 36,-59.2 85,-59.2 85,-40.2 36,-40.2"/>
<polygon fill="none" stroke="#000000" points="36,-40.2 36,-59.2 85,-59.2 85,-40.2 36,-40.2"/>
<text text-anchor="start" x="43.4956" y="-46.3" font-family="Helvetica,sans-Serif" font-size="11.00" fill="#000000">27 rows</text>
<polygon fill="#ffffff" stroke="transparent" points="85,-40.2 85,-59.2 196,-59.2 196,-40.2 85,-40.2"/>
<polygon fill="none" stroke="#000000" points="85,-40.2 85,-59.2 196,-59.2 196,-40.2 85,-40.2"/>
<text text-anchor="start" x="177.4053" y="-46.3" font-family="Helvetica,sans-Serif" font-size="11.00" fill="#000000">2 &gt;</text>
<polygon fill="none" stroke="#000000" stroke-width="2" points="9,-39.2 9,-259.2 197,-259.2 197,-39.2 9,-39.2"/>
</a>
</g>
</g>
<!-- user_roleassign&#45;&gt;user_role -->
<g id="edge1" class="edge">
<title>user_roleassign:w&#45;&gt;user_role:e</title>
<path fill="none" stroke="#000000" d="M242.489,-305.5477C216.9617,-289.2781 236.5737,-224.2 196,-224.2"/>
<polygon fill="#000000" stroke="#000000" points="248.7587,-307.182 255.5919,-312.6836 252.6293,-308.191 256.5,-309.2 256.5,-309.2 256.5,-309.2 252.6293,-308.191 257.4081,-305.7164 248.7587,-307.182 248.7587,-307.182"/>
<ellipse fill="none" stroke="#000000" cx="245.6622" cy="-306.3748" rx="3.2" ry="3.2"/>
</g>
<!-- user_rolemenuitem -->
<g id="node3" class="node">
<title>user_rolemenuitem</title>
<g id="a_node3"><a xlink:href="../../tables/user_rolemenuitem.html" xlink:title="user_rolemenuitem" target="_top">
<polygon fill="#ffffff" stroke="transparent" points="247,-90.7 247,-217.7 396,-217.7 396,-90.7 247,-90.7"/>
<polygon fill="#f5f5f5" stroke="transparent" points="247.5,-194.2 247.5,-217.2 396.5,-217.2 396.5,-194.2 247.5,-194.2"/>
<polygon fill="none" stroke="#000000" points="247.5,-194.2 247.5,-217.2 396.5,-217.2 396.5,-194.2 247.5,-194.2"/>
<text text-anchor="start" x="252.5" y="-202.8" font-family="Helvetica,sans-Serif" font-weight="bold" font-size="11.00" fill="#000000">user_rolemenuitem</text>
<text text-anchor="start" x="362.0219" y="-202.3" font-family="Helvetica,sans-Serif" font-size="11.00" fill="#000000">[table]</text>
<polygon fill="none" stroke="#000000" points="247.5,-172.2 247.5,-194.2 396.5,-194.2 396.5,-172.2 247.5,-172.2"/>
<image xlink:href="../../images/primaryKeys.png" width="11px" height="12px" preserveAspectRatio="xMinYMin meet" x="252.5" y="-189.2"/>
<text text-anchor="start" x="276.5" y="-179.3" font-family="Helvetica,sans-Serif" font-size="11.00" fill="#000000">ID</text>
<polygon fill="#ffffff" stroke="transparent" points="247.5,-150.2 247.5,-172.2 396.5,-172.2 396.5,-150.2 247.5,-150.2"/>
<polygon fill="none" stroke="#000000" points="247.5,-150.2 247.5,-172.2 396.5,-172.2 396.5,-150.2 247.5,-150.2"/>
<image xlink:href="../../images/foreignKeys.png" width="11px" height="12px" preserveAspectRatio="xMinYMin meet" x="252.5" y="-167.2"/>
<text text-anchor="start" x="276.5" y="-157.3" font-family="Helvetica,sans-Serif" font-size="11.00" fill="#000000">User_MenuItemFk</text>
<polygon fill="#ffffff" stroke="transparent" points="247.5,-128.2 247.5,-150.2 396.5,-150.2 396.5,-128.2 247.5,-128.2"/>
<polygon fill="none" stroke="#000000" points="247.5,-128.2 247.5,-150.2 396.5,-150.2 396.5,-128.2 247.5,-128.2"/>
<image xlink:href="../../images/foreignKeys.png" width="11px" height="12px" preserveAspectRatio="xMinYMin meet" x="252.5" y="-145.2"/>
<text text-anchor="start" x="276.5" y="-135.3" font-family="Helvetica,sans-Serif" font-size="11.00" fill="#000000">User_RoleFK</text>
<polygon fill="none" stroke="#000000" points="247.5,-109.2 247.5,-128.2 396.5,-128.2 396.5,-109.2 247.5,-109.2"/>
<text text-anchor="start" x="250.5" y="-115.3" font-family="Helvetica,sans-Serif" font-size="11.00" fill="#000000">...</text>
<polygon fill="#ffffff" stroke="transparent" points="247.5,-90.2 247.5,-109.2 307.5,-109.2 307.5,-90.2 247.5,-90.2"/>
<polygon fill="none" stroke="#000000" points="247.5,-90.2 247.5,-109.2 307.5,-109.2 307.5,-90.2 247.5,-90.2"/>
<text text-anchor="start" x="250.5" y="-96.3" font-family="Helvetica,sans-Serif" font-size="11.00" fill="#000000">&lt; 2</text>
<polygon fill="#ffffff" stroke="transparent" points="307.5,-90.2 307.5,-109.2 364.5,-109.2 364.5,-90.2 307.5,-90.2"/>
<polygon fill="none" stroke="#000000" points="307.5,-90.2 307.5,-109.2 364.5,-109.2 364.5,-90.2 307.5,-90.2"/>
<text text-anchor="start" x="329.1105" y="-96.3" font-family="Helvetica,sans-Serif" font-size="11.00" fill="#000000">0 rows</text>
<polygon fill="#ffffff" stroke="transparent" points="364.5,-90.2 364.5,-109.2 396.5,-109.2 396.5,-90.2 364.5,-90.2"/>
<polygon fill="none" stroke="#000000" points="364.5,-90.2 364.5,-109.2 396.5,-109.2 396.5,-90.2 364.5,-90.2"/>
<text text-anchor="start" x="387.3862" y="-96.3" font-family="Helvetica,sans-Serif" font-size="11.00" fill="#000000"> &#160;</text>
</a>
</g>
</g>
<!-- user_rolemenuitem&#45;&gt;user_role -->
<g id="edge2" class="edge">
<title>user_rolemenuitem:w&#45;&gt;user_role:e</title>
<path fill="none" stroke="#000000" d="M233.5119,-143.532C211.8888,-160.8534 234.1318,-224.2 196,-224.2"/>
<polygon fill="#000000" stroke="#000000" points="239.8581,-141.5667 248.565,-142.6389 243.679,-140.3833 247.5,-139.2 247.5,-139.2 247.5,-139.2 243.679,-140.3833 246.435,-135.7611 239.8581,-141.5667 239.8581,-141.5667"/>
<ellipse fill="none" stroke="#000000" cx="236.8013" cy="-142.5134" rx="3.2" ry="3.2"/>
</g>
</g>
</svg>
