<?xml version="1.0" encoding="UTF-8" standalone="no"?>
<!DOCTYPE svg PUBLIC "-//W3C//DTD SVG 1.1//EN"
 "http://www.w3.org/Graphics/SVG/1.1/DTD/svg11.dtd">
<!-- Generated by graphviz version 2.40.1 (20161225.0304)
 -->
<!-- Title: oneDegreeRelationshipsDiagram Pages: 1 -->
<svg width="247pt" height="448pt"
 viewBox="0.00 0.00 247.00 448.20" xmlns="http://www.w3.org/2000/svg" xmlns:xlink="http://www.w3.org/1999/xlink">
<g id="graph0" class="graph" transform="scale(1 1) rotate(0) translate(4 444.2)">
<title>oneDegreeRelationshipsDiagram</title>
<polygon fill="#ffffff" stroke="transparent" points="-4,4 -4,-444.2 243,-444.2 243,4 -4,4"/>
<text text-anchor="middle" x="72.4936" y="-7.3" font-family="Helvetica,sans-Serif" font-size="11.00" fill="#000000">Generated by SchemaSpy</text>
<!-- user_package -->
<g id="node1" class="node">
<title>user_package</title>
<g id="a_node1"><a xlink:href="../../tables/user_package.html" xlink:title="user_package" target="_top">
<polygon fill="#ffffff" stroke="transparent" points="8,-38.2 8,-436.2 231,-436.2 231,-38.2 8,-38.2"/>
<polygon fill="#f5f5f5" stroke="transparent" points="10.5,-411.2 10.5,-434.2 229.5,-434.2 229.5,-411.2 10.5,-411.2"/>
<polygon fill="none" stroke="#000000" points="10.5,-411.2 10.5,-434.2 229.5,-434.2 229.5,-411.2 10.5,-411.2"/>
<text text-anchor="start" x="15.5" y="-419.8" font-family="Helvetica,sans-Serif" font-weight="bold" font-size="11.00" fill="#000000">user_package</text>
<text text-anchor="start" x="194.5437" y="-419.3" font-family="Helvetica,sans-Serif" font-size="11.00" fill="#000000">[table]</text>
<polygon fill="none" stroke="#000000" points="10.5,-389.2 10.5,-411.2 118.5,-411.2 118.5,-389.2 10.5,-389.2"/>
<image xlink:href="../../images/primaryKeys.png" width="11px" height="12px" preserveAspectRatio="xMinYMin meet" x="15.5" y="-406.2"/>
<text text-anchor="start" x="30.5" y="-396.3" font-family="Helvetica,sans-Serif" font-size="11.00" fill="#000000">ID</text>
<polygon fill="none" stroke="#000000" points="118.5,-389.2 118.5,-411.2 229.5,-411.2 229.5,-389.2 118.5,-389.2"/>
<text text-anchor="start" x="121.5" y="-396.9" font-family="Helvetica,sans-Serif" font-size="11.00" fill="#000000">int[10]</text>
<polygon fill="none" stroke="#000000" points="10.5,-367.2 10.5,-389.2 118.5,-389.2 118.5,-367.2 10.5,-367.2"/>
<text text-anchor="start" x="30.5" y="-374.3" font-family="Helvetica,sans-Serif" font-size="11.00" fill="#000000">Active</text>
<polygon fill="none" stroke="#000000" points="118.5,-367.2 118.5,-389.2 229.5,-389.2 229.5,-367.2 118.5,-367.2"/>
<text text-anchor="start" x="121.5" y="-374.9" font-family="Helvetica,sans-Serif" font-size="11.00" fill="#000000">bit[1]</text>
<polygon fill="none" stroke="#000000" points="10.5,-345.2 10.5,-367.2 118.5,-367.2 118.5,-345.2 10.5,-345.2"/>
<text text-anchor="start" x="30.5" y="-352.3" font-family="Helvetica,sans-Serif" font-size="11.00" fill="#000000">User</text>
<polygon fill="none" stroke="#000000" points="118.5,-345.2 118.5,-367.2 229.5,-367.2 229.5,-345.2 118.5,-345.2"/>
<text text-anchor="start" x="121.1115" y="-352.9" font-family="Helvetica,sans-Serif" font-size="11.00" fill="#000000">longtext[2147483647]</text>
<polygon fill="none" stroke="#000000" points="10.5,-323.2 10.5,-345.2 118.5,-345.2 118.5,-323.2 10.5,-323.2"/>
<text text-anchor="start" x="30.5" y="-330.3" font-family="Helvetica,sans-Serif" font-size="11.00" fill="#000000">CD</text>
<polygon fill="none" stroke="#000000" points="118.5,-323.2 118.5,-345.2 229.5,-345.2 229.5,-323.2 118.5,-323.2"/>
<text text-anchor="start" x="121.5" y="-330.9" font-family="Helvetica,sans-Serif" font-size="11.00" fill="#000000">datetime[26]</text>
<polygon fill="none" stroke="#000000" points="10.5,-301.2 10.5,-323.2 118.5,-323.2 118.5,-301.2 10.5,-301.2"/>
<text text-anchor="start" x="30.5" y="-308.3" font-family="Helvetica,sans-Serif" font-size="11.00" fill="#000000">UD</text>
<polygon fill="none" stroke="#000000" points="118.5,-301.2 118.5,-323.2 229.5,-323.2 229.5,-301.2 118.5,-301.2"/>
<text text-anchor="start" x="121.5" y="-308.9" font-family="Helvetica,sans-Serif" font-size="11.00" fill="#000000">datetime[26]</text>
<polygon fill="none" stroke="#000000" points="10.5,-279.2 10.5,-301.2 118.5,-301.2 118.5,-279.2 10.5,-279.2"/>
<text text-anchor="start" x="30.5" y="-286.3" font-family="Helvetica,sans-Serif" font-size="11.00" fill="#000000">Remarks</text>
<polygon fill="none" stroke="#000000" points="118.5,-279.2 118.5,-301.2 229.5,-301.2 229.5,-279.2 118.5,-279.2"/>
<text text-anchor="start" x="121.1115" y="-286.9" font-family="Helvetica,sans-Serif" font-size="11.00" fill="#000000">longtext[2147483647]</text>
<polygon fill="none" stroke="#000000" points="10.5,-257.2 10.5,-279.2 118.5,-279.2 118.5,-257.2 10.5,-257.2"/>
<text text-anchor="start" x="30.5" y="-264.3" font-family="Helvetica,sans-Serif" font-size="11.00" fill="#000000">UserID</text>
<polygon fill="none" stroke="#000000" points="118.5,-257.2 118.5,-279.2 229.5,-279.2 229.5,-257.2 118.5,-257.2"/>
<text text-anchor="start" x="121.5" y="-264.9" font-family="Helvetica,sans-Serif" font-size="11.00" fill="#000000">int[10]</text>
<polygon fill="none" stroke="#000000" points="10.5,-235.2 10.5,-257.2 118.5,-257.2 118.5,-235.2 10.5,-235.2"/>
<text text-anchor="start" x="30.5" y="-242.3" font-family="Helvetica,sans-Serif" font-size="11.00" fill="#000000">Name</text>
<polygon fill="none" stroke="#000000" points="118.5,-235.2 118.5,-257.2 229.5,-257.2 229.5,-235.2 118.5,-235.2"/>
<text text-anchor="start" x="121.1115" y="-242.9" font-family="Helvetica,sans-Serif" font-size="11.00" fill="#000000">longtext[2147483647]</text>
<polygon fill="none" stroke="#000000" points="10.5,-213.2 10.5,-235.2 118.5,-235.2 118.5,-213.2 10.5,-213.2"/>
<text text-anchor="start" x="30.5" y="-220.3" font-family="Helvetica,sans-Serif" font-size="11.00" fill="#000000">HasAccount</text>
<polygon fill="none" stroke="#000000" points="118.5,-213.2 118.5,-235.2 229.5,-235.2 229.5,-213.2 118.5,-213.2"/>
<text text-anchor="start" x="121.5" y="-220.9" font-family="Helvetica,sans-Serif" font-size="11.00" fill="#000000">bit[1]</text>
<polygon fill="none" stroke="#000000" points="10.5,-191.2 10.5,-213.2 118.5,-213.2 118.5,-191.2 10.5,-191.2"/>
<text text-anchor="start" x="30.5" y="-198.3" font-family="Helvetica,sans-Serif" font-size="11.00" fill="#000000">HasAttendance</text>
<polygon fill="none" stroke="#000000" points="118.5,-191.2 118.5,-213.2 229.5,-213.2 229.5,-191.2 118.5,-191.2"/>
<text text-anchor="start" x="121.5" y="-198.9" font-family="Helvetica,sans-Serif" font-size="11.00" fill="#000000">bit[1]</text>
<polygon fill="none" stroke="#000000" points="10.5,-169.2 10.5,-191.2 118.5,-191.2 118.5,-169.2 10.5,-169.2"/>
<text text-anchor="start" x="30.5" y="-176.3" font-family="Helvetica,sans-Serif" font-size="11.00" fill="#000000">HasHRM</text>
<polygon fill="none" stroke="#000000" points="118.5,-169.2 118.5,-191.2 229.5,-191.2 229.5,-169.2 118.5,-169.2"/>
<text text-anchor="start" x="121.5" y="-176.9" font-family="Helvetica,sans-Serif" font-size="11.00" fill="#000000">bit[1]</text>
<polygon fill="none" stroke="#000000" points="10.5,-147.2 10.5,-169.2 118.5,-169.2 118.5,-147.2 10.5,-147.2"/>
<text text-anchor="start" x="30.5" y="-154.3" font-family="Helvetica,sans-Serif" font-size="11.00" fill="#000000">HasLeave</text>
<polygon fill="none" stroke="#000000" points="118.5,-147.2 118.5,-169.2 229.5,-169.2 229.5,-147.2 118.5,-147.2"/>
<text text-anchor="start" x="121.5" y="-154.9" font-family="Helvetica,sans-Serif" font-size="11.00" fill="#000000">bit[1]</text>
<polygon fill="none" stroke="#000000" points="10.5,-125.2 10.5,-147.2 118.5,-147.2 118.5,-125.2 10.5,-125.2"/>
<text text-anchor="start" x="30.5" y="-132.3" font-family="Helvetica,sans-Serif" font-size="11.00" fill="#000000">HasPayroll</text>
<polygon fill="none" stroke="#000000" points="118.5,-125.2 118.5,-147.2 229.5,-147.2 229.5,-125.2 118.5,-125.2"/>
<text text-anchor="start" x="121.5" y="-132.9" font-family="Helvetica,sans-Serif" font-size="11.00" fill="#000000">bit[1]</text>
<polygon fill="none" stroke="#000000" points="10.5,-103.2 10.5,-125.2 118.5,-125.2 118.5,-103.2 10.5,-103.2"/>
<text text-anchor="start" x="30.5" y="-110.3" font-family="Helvetica,sans-Serif" font-size="11.00" fill="#000000">HasRequisition</text>
<polygon fill="none" stroke="#000000" points="118.5,-103.2 118.5,-125.2 229.5,-125.2 229.5,-103.2 118.5,-103.2"/>
<text text-anchor="start" x="121.5" y="-110.9" font-family="Helvetica,sans-Serif" font-size="11.00" fill="#000000">bit[1]</text>
<polygon fill="none" stroke="#000000" points="10.5,-81.2 10.5,-103.2 118.5,-103.2 118.5,-81.2 10.5,-81.2"/>
<text text-anchor="start" x="30.5" y="-88.3" font-family="Helvetica,sans-Serif" font-size="11.00" fill="#000000">HasProject</text>
<polygon fill="none" stroke="#000000" points="118.5,-81.2 118.5,-103.2 229.5,-103.2 229.5,-81.2 118.5,-81.2"/>
<text text-anchor="start" x="121.5" y="-88.9" font-family="Helvetica,sans-Serif" font-size="11.00" fill="#000000">bit[1]</text>
<polygon fill="none" stroke="#000000" points="10.5,-59.2 10.5,-81.2 118.5,-81.2 118.5,-59.2 10.5,-59.2"/>
<text text-anchor="start" x="30.5" y="-66.3" font-family="Helvetica,sans-Serif" font-size="11.00" fill="#000000">HasVenture</text>
<polygon fill="none" stroke="#000000" points="118.5,-59.2 118.5,-81.2 229.5,-81.2 229.5,-59.2 118.5,-59.2"/>
<text text-anchor="start" x="121.5" y="-66.9" font-family="Helvetica,sans-Serif" font-size="11.00" fill="#000000">bit[1]</text>
<polygon fill="#ffffff" stroke="transparent" points="10.5,-40.2 10.5,-59.2 55.5,-59.2 55.5,-40.2 10.5,-40.2"/>
<polygon fill="none" stroke="#000000" points="10.5,-40.2 10.5,-59.2 55.5,-59.2 55.5,-40.2 10.5,-40.2"/>
<text text-anchor="start" x="13.5" y="-46.3" font-family="Helvetica,sans-Serif" font-size="11.00" fill="#000000">&lt; 0</text>
<polygon fill="#ffffff" stroke="transparent" points="55.5,-40.2 55.5,-59.2 118.5,-59.2 118.5,-40.2 55.5,-40.2"/>
<polygon fill="none" stroke="#000000" points="55.5,-40.2 55.5,-59.2 118.5,-59.2 118.5,-40.2 55.5,-40.2"/>
<text text-anchor="start" x="83.1105" y="-46.3" font-family="Helvetica,sans-Serif" font-size="11.00" fill="#000000">7 rows</text>
<polygon fill="#ffffff" stroke="transparent" points="118.5,-40.2 118.5,-59.2 229.5,-59.2 229.5,-40.2 118.5,-40.2"/>
<polygon fill="none" stroke="#000000" points="118.5,-40.2 118.5,-59.2 229.5,-59.2 229.5,-40.2 118.5,-40.2"/>
<text text-anchor="start" x="210.9053" y="-46.3" font-family="Helvetica,sans-Serif" font-size="11.00" fill="#000000">0 &gt;</text>
<polygon fill="none" stroke="#000000" stroke-width="2" points="9,-39.2 9,-435.2 230,-435.2 230,-39.2 9,-39.2"/>
</a>
</g>
</g>
</g>
</svg>
