<?xml version="1.0" encoding="UTF-8" standalone="no"?>
<!DOCTYPE svg PUBLIC "-//W3C//DTD SVG 1.1//EN"
 "http://www.w3.org/Graphics/SVG/1.1/DTD/svg11.dtd">
<!-- Generated by graphviz version 2.40.1 (20161225.0304)
 -->
<!-- Title: twoDegreesRelationshipsDiagram Pages: 1 -->
<svg width="412pt" height="437pt"
 viewBox="0.00 0.00 412.00 437.20" xmlns="http://www.w3.org/2000/svg" xmlns:xlink="http://www.w3.org/1999/xlink">
<g id="graph0" class="graph" transform="scale(1 1) rotate(0) translate(4 433.2)">
<title>twoDegreesRelationshipsDiagram</title>
<polygon fill="#ffffff" stroke="transparent" points="-4,4 -4,-433.2 408,-433.2 408,4 -4,4"/>
<text text-anchor="middle" x="72.4936" y="-7.3" font-family="Helvetica,sans-Serif" font-size="11.00" fill="#000000">Generated by SchemaSpy</text>
<!-- user_roleassign -->
<g id="node1" class="node">
<title>user_roleassign</title>
<g id="a_node1"><a xlink:href="../../tables/user_roleassign.html" xlink:title="user_roleassign" target="_top">
<polygon fill="#ffffff" stroke="transparent" points="256,-63.2 256,-190.2 387,-190.2 387,-63.2 256,-63.2"/>
<polygon fill="#f5f5f5" stroke="transparent" points="256.5,-166.7 256.5,-189.7 387.5,-189.7 387.5,-166.7 256.5,-166.7"/>
<polygon fill="none" stroke="#000000" points="256.5,-166.7 256.5,-189.7 387.5,-189.7 387.5,-166.7 256.5,-166.7"/>
<text text-anchor="start" x="261.5" y="-175.3" font-family="Helvetica,sans-Serif" font-weight="bold" font-size="11.00" fill="#000000">user_roleassign</text>
<text text-anchor="start" x="353.0219" y="-174.8" font-family="Helvetica,sans-Serif" font-size="11.00" fill="#000000">[table]</text>
<polygon fill="none" stroke="#000000" points="256.5,-144.7 256.5,-166.7 387.5,-166.7 387.5,-144.7 256.5,-144.7"/>
<image xlink:href="../../images/primaryKeys.png" width="11px" height="12px" preserveAspectRatio="xMinYMin meet" x="261.5" y="-161.7"/>
<text text-anchor="start" x="285.5" y="-151.8" font-family="Helvetica,sans-Serif" font-size="11.00" fill="#000000">ID</text>
<polygon fill="#ffffff" stroke="transparent" points="256.5,-122.7 256.5,-144.7 387.5,-144.7 387.5,-122.7 256.5,-122.7"/>
<polygon fill="none" stroke="#000000" points="256.5,-122.7 256.5,-144.7 387.5,-144.7 387.5,-122.7 256.5,-122.7"/>
<image xlink:href="../../images/foreignKeys.png" width="11px" height="12px" preserveAspectRatio="xMinYMin meet" x="261.5" y="-139.7"/>
<text text-anchor="start" x="285.5" y="-129.8" font-family="Helvetica,sans-Serif" font-size="11.00" fill="#000000">User_RoleFk</text>
<polygon fill="#ffffff" stroke="transparent" points="256.5,-100.7 256.5,-122.7 387.5,-122.7 387.5,-100.7 256.5,-100.7"/>
<polygon fill="none" stroke="#000000" points="256.5,-100.7 256.5,-122.7 387.5,-122.7 387.5,-100.7 256.5,-100.7"/>
<image xlink:href="../../images/foreignKeys.png" width="11px" height="12px" preserveAspectRatio="xMinYMin meet" x="261.5" y="-117.7"/>
<text text-anchor="start" x="285.5" y="-107.8" font-family="Helvetica,sans-Serif" font-size="11.00" fill="#000000">User_UserFk</text>
<polygon fill="none" stroke="#000000" points="256.5,-81.7 256.5,-100.7 387.5,-100.7 387.5,-81.7 256.5,-81.7"/>
<text text-anchor="start" x="259.5" y="-87.8" font-family="Helvetica,sans-Serif" font-size="11.00" fill="#000000">...</text>
<polygon fill="#ffffff" stroke="transparent" points="256.5,-62.7 256.5,-81.7 307.5,-81.7 307.5,-62.7 256.5,-62.7"/>
<polygon fill="none" stroke="#000000" points="256.5,-62.7 256.5,-81.7 307.5,-81.7 307.5,-62.7 256.5,-62.7"/>
<text text-anchor="start" x="259.5" y="-68.8" font-family="Helvetica,sans-Serif" font-size="11.00" fill="#000000">&lt; 2</text>
<polygon fill="#ffffff" stroke="transparent" points="307.5,-62.7 307.5,-81.7 360.5,-81.7 360.5,-62.7 307.5,-62.7"/>
<polygon fill="none" stroke="#000000" points="307.5,-62.7 307.5,-81.7 360.5,-81.7 360.5,-62.7 307.5,-62.7"/>
<text text-anchor="start" x="325.1105" y="-68.8" font-family="Helvetica,sans-Serif" font-size="11.00" fill="#000000">0 rows</text>
<polygon fill="#ffffff" stroke="transparent" points="360.5,-62.7 360.5,-81.7 387.5,-81.7 387.5,-62.7 360.5,-62.7"/>
<polygon fill="none" stroke="#000000" points="360.5,-62.7 360.5,-81.7 387.5,-81.7 387.5,-62.7 360.5,-62.7"/>
<text text-anchor="start" x="378.3862" y="-68.8" font-family="Helvetica,sans-Serif" font-size="11.00" fill="#000000"> &#160;</text>
</a>
</g>
</g>
<!-- user_role -->
<g id="node2" class="node">
<title>user_role</title>
<g id="a_node2"><a xlink:href="../../tables/user_role.html" xlink:title="user_role" target="_top">
<polygon fill="#ffffff" stroke="transparent" points="8,-120.7 8,-342.7 198,-342.7 198,-120.7 8,-120.7"/>
<polygon fill="#f5f5f5" stroke="transparent" points="10,-317.7 10,-340.7 196,-340.7 196,-317.7 10,-317.7"/>
<polygon fill="none" stroke="#000000" points="10,-317.7 10,-340.7 196,-340.7 196,-317.7 10,-317.7"/>
<text text-anchor="start" x="15" y="-326.3" font-family="Helvetica,sans-Serif" font-weight="bold" font-size="11.00" fill="#000000">user_role</text>
<text text-anchor="start" x="161.0437" y="-325.8" font-family="Helvetica,sans-Serif" font-size="11.00" fill="#000000">[table]</text>
<polygon fill="none" stroke="#000000" points="10,-295.7 10,-317.7 85,-317.7 85,-295.7 10,-295.7"/>
<image xlink:href="../../images/primaryKeys.png" width="11px" height="12px" preserveAspectRatio="xMinYMin meet" x="15" y="-312.7"/>
<text text-anchor="start" x="30" y="-302.8" font-family="Helvetica,sans-Serif" font-size="11.00" fill="#000000">ID</text>
<polygon fill="none" stroke="#000000" points="85,-295.7 85,-317.7 196,-317.7 196,-295.7 85,-295.7"/>
<text text-anchor="start" x="88" y="-303.4" font-family="Helvetica,sans-Serif" font-size="11.00" fill="#000000">int[10]</text>
<polygon fill="none" stroke="#000000" points="10,-273.7 10,-295.7 85,-295.7 85,-273.7 10,-273.7"/>
<text text-anchor="start" x="30" y="-280.8" font-family="Helvetica,sans-Serif" font-size="11.00" fill="#000000">Active</text>
<polygon fill="none" stroke="#000000" points="85,-273.7 85,-295.7 196,-295.7 196,-273.7 85,-273.7"/>
<text text-anchor="start" x="88" y="-281.4" font-family="Helvetica,sans-Serif" font-size="11.00" fill="#000000">bit[1]</text>
<polygon fill="none" stroke="#000000" points="10,-251.7 10,-273.7 85,-273.7 85,-251.7 10,-251.7"/>
<text text-anchor="start" x="30" y="-258.8" font-family="Helvetica,sans-Serif" font-size="11.00" fill="#000000">User</text>
<polygon fill="none" stroke="#000000" points="85,-251.7 85,-273.7 196,-273.7 196,-251.7 85,-251.7"/>
<text text-anchor="start" x="87.6115" y="-259.4" font-family="Helvetica,sans-Serif" font-size="11.00" fill="#000000">longtext[2147483647]</text>
<polygon fill="none" stroke="#000000" points="10,-229.7 10,-251.7 85,-251.7 85,-229.7 10,-229.7"/>
<text text-anchor="start" x="30" y="-236.8" font-family="Helvetica,sans-Serif" font-size="11.00" fill="#000000">CD</text>
<polygon fill="none" stroke="#000000" points="85,-229.7 85,-251.7 196,-251.7 196,-229.7 85,-229.7"/>
<text text-anchor="start" x="88" y="-237.4" font-family="Helvetica,sans-Serif" font-size="11.00" fill="#000000">datetime[26]</text>
<polygon fill="none" stroke="#000000" points="10,-207.7 10,-229.7 85,-229.7 85,-207.7 10,-207.7"/>
<text text-anchor="start" x="30" y="-214.8" font-family="Helvetica,sans-Serif" font-size="11.00" fill="#000000">UD</text>
<polygon fill="none" stroke="#000000" points="85,-207.7 85,-229.7 196,-229.7 196,-207.7 85,-207.7"/>
<text text-anchor="start" x="88" y="-215.4" font-family="Helvetica,sans-Serif" font-size="11.00" fill="#000000">datetime[26]</text>
<polygon fill="none" stroke="#000000" points="10,-185.7 10,-207.7 85,-207.7 85,-185.7 10,-185.7"/>
<text text-anchor="start" x="30" y="-192.8" font-family="Helvetica,sans-Serif" font-size="11.00" fill="#000000">Remarks</text>
<polygon fill="none" stroke="#000000" points="85,-185.7 85,-207.7 196,-207.7 196,-185.7 85,-185.7"/>
<text text-anchor="start" x="87.6115" y="-193.4" font-family="Helvetica,sans-Serif" font-size="11.00" fill="#000000">longtext[2147483647]</text>
<polygon fill="none" stroke="#000000" points="10,-163.7 10,-185.7 85,-185.7 85,-163.7 10,-163.7"/>
<text text-anchor="start" x="30" y="-170.8" font-family="Helvetica,sans-Serif" font-size="11.00" fill="#000000">UserID</text>
<polygon fill="none" stroke="#000000" points="85,-163.7 85,-185.7 196,-185.7 196,-163.7 85,-163.7"/>
<text text-anchor="start" x="88" y="-171.4" font-family="Helvetica,sans-Serif" font-size="11.00" fill="#000000">int[10]</text>
<polygon fill="none" stroke="#000000" points="10,-141.7 10,-163.7 85,-163.7 85,-141.7 10,-141.7"/>
<text text-anchor="start" x="30" y="-148.8" font-family="Helvetica,sans-Serif" font-size="11.00" fill="#000000">Name</text>
<polygon fill="none" stroke="#000000" points="85,-141.7 85,-163.7 196,-163.7 196,-141.7 85,-141.7"/>
<text text-anchor="start" x="87.6115" y="-149.4" font-family="Helvetica,sans-Serif" font-size="11.00" fill="#000000">longtext[2147483647]</text>
<polygon fill="#ffffff" stroke="transparent" points="10,-122.7 10,-141.7 36,-141.7 36,-122.7 10,-122.7"/>
<polygon fill="none" stroke="#000000" points="10,-122.7 10,-141.7 36,-141.7 36,-122.7 10,-122.7"/>
<text text-anchor="start" x="13" y="-128.8" font-family="Helvetica,sans-Serif" font-size="11.00" fill="#000000">&lt; 0</text>
<polygon fill="#ffffff" stroke="transparent" points="36,-122.7 36,-141.7 85,-141.7 85,-122.7 36,-122.7"/>
<polygon fill="none" stroke="#000000" points="36,-122.7 36,-141.7 85,-141.7 85,-122.7 36,-122.7"/>
<text text-anchor="start" x="43.4956" y="-128.8" font-family="Helvetica,sans-Serif" font-size="11.00" fill="#000000">27 rows</text>
<polygon fill="#ffffff" stroke="transparent" points="85,-122.7 85,-141.7 196,-141.7 196,-122.7 85,-122.7"/>
<polygon fill="none" stroke="#000000" points="85,-122.7 85,-141.7 196,-141.7 196,-122.7 85,-122.7"/>
<text text-anchor="start" x="177.4053" y="-128.8" font-family="Helvetica,sans-Serif" font-size="11.00" fill="#000000">2 &gt;</text>
<polygon fill="none" stroke="#000000" stroke-width="2" points="9,-121.7 9,-341.7 197,-341.7 197,-121.7 9,-121.7"/>
</a>
</g>
</g>
<!-- user_roleassign&#45;&gt;user_role -->
<g id="edge1" class="edge">
<title>user_roleassign:w&#45;&gt;user_role:e</title>
<path fill="none" stroke="#000000" d="M242.2555,-136.0148C188.1872,-156.5439 271.8868,-306.7 196,-306.7"/>
<polygon fill="#000000" stroke="#000000" points="248.6036,-134.9832 257.0775,-137.2534 252.5518,-134.3416 256.5,-133.7 256.5,-133.7 256.5,-133.7 252.5518,-134.3416 255.9225,-130.1466 248.6036,-134.9832 248.6036,-134.9832"/>
<ellipse fill="none" stroke="#000000" cx="245.445" cy="-135.4965" rx="3.2" ry="3.2"/>
</g>
<!-- user_user -->
<g id="node3" class="node">
<title>user_user</title>
<g id="a_node3"><a xlink:href="../../tables/user_user.html" xlink:title="user_user" target="_top">
<polygon fill="#ffffff" stroke="transparent" points="55,-38.2 55,-99.2 151,-99.2 151,-38.2 55,-38.2"/>
<polygon fill="#f5f5f5" stroke="transparent" points="55,-75.7 55,-98.7 151,-98.7 151,-75.7 55,-75.7"/>
<polygon fill="none" stroke="#000000" points="55,-75.7 55,-98.7 151,-98.7 151,-75.7 55,-75.7"/>
<text text-anchor="start" x="60" y="-84.3" font-family="Helvetica,sans-Serif" font-weight="bold" font-size="11.00" fill="#000000">user_user</text>
<text text-anchor="start" x="116.5219" y="-83.8" font-family="Helvetica,sans-Serif" font-size="11.00" fill="#000000">[table]</text>
<polygon fill="none" stroke="#000000" points="55,-56.7 55,-75.7 151,-75.7 151,-56.7 55,-56.7"/>
<text text-anchor="start" x="58" y="-62.8" font-family="Helvetica,sans-Serif" font-size="11.00" fill="#000000">...</text>
<polygon fill="#ffffff" stroke="transparent" points="55,-37.7 55,-56.7 79,-56.7 79,-37.7 55,-37.7"/>
<polygon fill="none" stroke="#000000" points="55,-37.7 55,-56.7 79,-56.7 79,-37.7 55,-37.7"/>
<text text-anchor="start" x="58" y="-43.8" font-family="Helvetica,sans-Serif" font-size="11.00" fill="#000000"> &#160;</text>
<polygon fill="#ffffff" stroke="transparent" points="79,-37.7 79,-56.7 123,-56.7 123,-37.7 79,-37.7"/>
<polygon fill="none" stroke="#000000" points="79,-37.7 79,-56.7 123,-56.7 123,-37.7 79,-37.7"/>
<text text-anchor="start" x="87.6105" y="-43.8" font-family="Helvetica,sans-Serif" font-size="11.00" fill="#000000">0 rows</text>
<polygon fill="#ffffff" stroke="transparent" points="123,-37.7 123,-56.7 151,-56.7 151,-37.7 123,-37.7"/>
<polygon fill="none" stroke="#000000" points="123,-37.7 123,-56.7 151,-56.7 151,-37.7 123,-37.7"/>
<text text-anchor="start" x="132.4053" y="-43.8" font-family="Helvetica,sans-Serif" font-size="11.00" fill="#000000">1 &gt;</text>
</a>
</g>
</g>
<!-- user_roleassign&#45;&gt;user_user -->
<g id="edge2" class="edge">
<title>user_roleassign:w&#45;&gt;user_user:e</title>
<path fill="none" stroke="#000000" d="M241.803,-110.2729C204.1403,-102.5086 196.7572,-65.7 151,-65.7"/>
<polygon fill="#000000" stroke="#000000" points="248.5375,-110.9268 256.152,-115.2831 252.5187,-111.3134 256.5,-111.7 256.5,-111.7 256.5,-111.7 252.5187,-111.3134 256.848,-108.1169 248.5375,-110.9268 248.5375,-110.9268"/>
<ellipse fill="none" stroke="#000000" cx="245.3524" cy="-110.6175" rx="3.2" ry="3.2"/>
</g>
<!-- user_rolemenuitem -->
<g id="node4" class="node">
<title>user_rolemenuitem</title>
<g id="a_node4"><a xlink:href="../../tables/user_rolemenuitem.html" xlink:title="user_rolemenuitem" target="_top">
<polygon fill="#ffffff" stroke="transparent" points="247,-289.2 247,-416.2 396,-416.2 396,-289.2 247,-289.2"/>
<polygon fill="#f5f5f5" stroke="transparent" points="247.5,-392.7 247.5,-415.7 396.5,-415.7 396.5,-392.7 247.5,-392.7"/>
<polygon fill="none" stroke="#000000" points="247.5,-392.7 247.5,-415.7 396.5,-415.7 396.5,-392.7 247.5,-392.7"/>
<text text-anchor="start" x="252.5" y="-401.3" font-family="Helvetica,sans-Serif" font-weight="bold" font-size="11.00" fill="#000000">user_rolemenuitem</text>
<text text-anchor="start" x="362.0219" y="-400.8" font-family="Helvetica,sans-Serif" font-size="11.00" fill="#000000">[table]</text>
<polygon fill="none" stroke="#000000" points="247.5,-370.7 247.5,-392.7 396.5,-392.7 396.5,-370.7 247.5,-370.7"/>
<image xlink:href="../../images/primaryKeys.png" width="11px" height="12px" preserveAspectRatio="xMinYMin meet" x="252.5" y="-387.7"/>
<text text-anchor="start" x="276.5" y="-377.8" font-family="Helvetica,sans-Serif" font-size="11.00" fill="#000000">ID</text>
<polygon fill="#ffffff" stroke="transparent" points="247.5,-348.7 247.5,-370.7 396.5,-370.7 396.5,-348.7 247.5,-348.7"/>
<polygon fill="none" stroke="#000000" points="247.5,-348.7 247.5,-370.7 396.5,-370.7 396.5,-348.7 247.5,-348.7"/>
<image xlink:href="../../images/foreignKeys.png" width="11px" height="12px" preserveAspectRatio="xMinYMin meet" x="252.5" y="-365.7"/>
<text text-anchor="start" x="276.5" y="-355.8" font-family="Helvetica,sans-Serif" font-size="11.00" fill="#000000">User_MenuItemFk</text>
<polygon fill="#ffffff" stroke="transparent" points="247.5,-326.7 247.5,-348.7 396.5,-348.7 396.5,-326.7 247.5,-326.7"/>
<polygon fill="none" stroke="#000000" points="247.5,-326.7 247.5,-348.7 396.5,-348.7 396.5,-326.7 247.5,-326.7"/>
<image xlink:href="../../images/foreignKeys.png" width="11px" height="12px" preserveAspectRatio="xMinYMin meet" x="252.5" y="-343.7"/>
<text text-anchor="start" x="276.5" y="-333.8" font-family="Helvetica,sans-Serif" font-size="11.00" fill="#000000">User_RoleFK</text>
<polygon fill="none" stroke="#000000" points="247.5,-307.7 247.5,-326.7 396.5,-326.7 396.5,-307.7 247.5,-307.7"/>
<text text-anchor="start" x="250.5" y="-313.8" font-family="Helvetica,sans-Serif" font-size="11.00" fill="#000000">...</text>
<polygon fill="#ffffff" stroke="transparent" points="247.5,-288.7 247.5,-307.7 307.5,-307.7 307.5,-288.7 247.5,-288.7"/>
<polygon fill="none" stroke="#000000" points="247.5,-288.7 247.5,-307.7 307.5,-307.7 307.5,-288.7 247.5,-288.7"/>
<text text-anchor="start" x="250.5" y="-294.8" font-family="Helvetica,sans-Serif" font-size="11.00" fill="#000000">&lt; 2</text>
<polygon fill="#ffffff" stroke="transparent" points="307.5,-288.7 307.5,-307.7 364.5,-307.7 364.5,-288.7 307.5,-288.7"/>
<polygon fill="none" stroke="#000000" points="307.5,-288.7 307.5,-307.7 364.5,-307.7 364.5,-288.7 307.5,-288.7"/>
<text text-anchor="start" x="329.1105" y="-294.8" font-family="Helvetica,sans-Serif" font-size="11.00" fill="#000000">0 rows</text>
<polygon fill="#ffffff" stroke="transparent" points="364.5,-288.7 364.5,-307.7 396.5,-307.7 396.5,-288.7 364.5,-288.7"/>
<polygon fill="none" stroke="#000000" points="364.5,-288.7 364.5,-307.7 396.5,-307.7 396.5,-288.7 364.5,-288.7"/>
<text text-anchor="start" x="387.3862" y="-294.8" font-family="Helvetica,sans-Serif" font-size="11.00" fill="#000000"> &#160;</text>
</a>
</g>
</g>
<!-- user_rolemenuitem&#45;&gt;user_role -->
<g id="edge4" class="edge">
<title>user_rolemenuitem:w&#45;&gt;user_role:e</title>
<path fill="none" stroke="#000000" d="M233.4805,-333.8988C220.2585,-325.6209 216.8716,-306.7 196,-306.7"/>
<polygon fill="#000000" stroke="#000000" points="239.7788,-335.6064 246.5579,-341.1745 243.6394,-336.6532 247.5,-337.7 247.5,-337.7 247.5,-337.7 243.6394,-336.6532 248.4421,-334.2255 239.7788,-335.6064 239.7788,-335.6064"/>
<ellipse fill="none" stroke="#000000" cx="236.6903" cy="-334.769" rx="3.2" ry="3.2"/>
</g>
<!-- user_menuitem -->
<g id="node5" class="node">
<title>user_menuitem</title>
<g id="a_node5"><a xlink:href="../../tables/user_menuitem.html" xlink:title="user_menuitem" target="_top">
<polygon fill="#ffffff" stroke="transparent" points="39.5,-364.2 39.5,-425.2 166.5,-425.2 166.5,-364.2 39.5,-364.2"/>
<polygon fill="#f5f5f5" stroke="transparent" points="40,-401.7 40,-424.7 167,-424.7 167,-401.7 40,-401.7"/>
<polygon fill="none" stroke="#000000" points="40,-401.7 40,-424.7 167,-424.7 167,-401.7 40,-401.7"/>
<text text-anchor="start" x="45" y="-410.3" font-family="Helvetica,sans-Serif" font-weight="bold" font-size="11.00" fill="#000000">user_menuitem</text>
<text text-anchor="start" x="132.5219" y="-409.8" font-family="Helvetica,sans-Serif" font-size="11.00" fill="#000000">[table]</text>
<polygon fill="none" stroke="#000000" points="40,-382.7 40,-401.7 167,-401.7 167,-382.7 40,-382.7"/>
<text text-anchor="start" x="43" y="-388.8" font-family="Helvetica,sans-Serif" font-size="11.00" fill="#000000">...</text>
<polygon fill="#ffffff" stroke="transparent" points="40,-363.7 40,-382.7 78,-382.7 78,-363.7 40,-363.7"/>
<polygon fill="none" stroke="#000000" points="40,-363.7 40,-382.7 78,-382.7 78,-363.7 40,-363.7"/>
<text text-anchor="start" x="43" y="-369.8" font-family="Helvetica,sans-Serif" font-size="11.00" fill="#000000">&lt; 1</text>
<polygon fill="#ffffff" stroke="transparent" points="78,-363.7 78,-382.7 137,-382.7 137,-363.7 78,-363.7"/>
<polygon fill="none" stroke="#000000" points="78,-363.7 78,-382.7 137,-382.7 137,-363.7 78,-363.7"/>
<text text-anchor="start" x="89.3807" y="-369.8" font-family="Helvetica,sans-Serif" font-size="11.00" fill="#000000">392 rows</text>
<polygon fill="#ffffff" stroke="transparent" points="137,-363.7 137,-382.7 167,-382.7 167,-363.7 137,-363.7"/>
<polygon fill="none" stroke="#000000" points="137,-363.7 137,-382.7 167,-382.7 167,-363.7 137,-363.7"/>
<text text-anchor="start" x="148.4053" y="-369.8" font-family="Helvetica,sans-Serif" font-size="11.00" fill="#000000">1 &gt;</text>
</a>
</g>
</g>
<!-- user_rolemenuitem&#45;&gt;user_menuitem -->
<g id="edge3" class="edge">
<title>user_rolemenuitem:w&#45;&gt;user_menuitem:e</title>
<path fill="none" stroke="#000000" d="M233.1393,-361.4205C207.323,-368.0672 200.0867,-391.7 167,-391.7"/>
<polygon fill="#000000" stroke="#000000" points="239.5568,-360.6517 247.9283,-363.2744 243.5284,-360.1758 247.5,-359.7 247.5,-359.7 247.5,-359.7 243.5284,-360.1758 247.0717,-356.1256 239.5568,-360.6517 239.5568,-360.6517"/>
<ellipse fill="none" stroke="#000000" cx="236.3795" cy="-361.0323" rx="3.2" ry="3.2"/>
</g>
</g>
</svg>
