<?xml version="1.0" encoding="UTF-8" standalone="no"?>
<!DOCTYPE svg PUBLIC "-//W3C//DTD SVG 1.1//EN"
 "http://www.w3.org/Graphics/SVG/1.1/DTD/svg11.dtd">
<!-- Generated by graphviz version 2.40.1 (20161225.0304)
 -->
<!-- Title: oneDegreeRelationshipsDiagram Pages: 1 -->
<svg width="337pt" height="580pt"
 viewBox="0.00 0.00 337.00 580.20" xmlns="http://www.w3.org/2000/svg" xmlns:xlink="http://www.w3.org/1999/xlink">
<g id="graph0" class="graph" transform="scale(1 1) rotate(0) translate(4 576.2)">
<title>oneDegreeRelationshipsDiagram</title>
<polygon fill="#ffffff" stroke="transparent" points="-4,4 -4,-576.2 333,-576.2 333,4 -4,4"/>
<text text-anchor="middle" x="72.4936" y="-7.3" font-family="Helvetica,sans-Serif" font-size="11.00" fill="#000000">Generated by SchemaSpy</text>
<!-- warehouse_challanitems -->
<g id="node1" class="node">
<title>warehouse_challanitems</title>
<g id="a_node1"><a xlink:href="../../tables/warehouse_challanitems.html" xlink:title="warehouse_challanitems" target="_top">
<polygon fill="#ffffff" stroke="transparent" points="8,-38.2 8,-568.2 321,-568.2 321,-38.2 8,-38.2"/>
<polygon fill="#f5f5f5" stroke="transparent" points="10.5,-543.2 10.5,-566.2 319.5,-566.2 319.5,-543.2 10.5,-543.2"/>
<polygon fill="none" stroke="#000000" points="10.5,-543.2 10.5,-566.2 319.5,-566.2 319.5,-543.2 10.5,-543.2"/>
<text text-anchor="start" x="15.5" y="-551.8" font-family="Helvetica,sans-Serif" font-weight="bold" font-size="11.00" fill="#000000">warehouse_challanitems</text>
<text text-anchor="start" x="284.5437" y="-551.3" font-family="Helvetica,sans-Serif" font-size="11.00" fill="#000000">[table]</text>
<polygon fill="none" stroke="#000000" points="10.5,-521.2 10.5,-543.2 208.5,-543.2 208.5,-521.2 10.5,-521.2"/>
<image xlink:href="../../images/primaryKeys.png" width="11px" height="12px" preserveAspectRatio="xMinYMin meet" x="15.5" y="-538.2"/>
<text text-anchor="start" x="30.5" y="-528.3" font-family="Helvetica,sans-Serif" font-size="11.00" fill="#000000">ID</text>
<polygon fill="none" stroke="#000000" points="208.5,-521.2 208.5,-543.2 319.5,-543.2 319.5,-521.2 208.5,-521.2"/>
<text text-anchor="start" x="211.5" y="-528.9" font-family="Helvetica,sans-Serif" font-size="11.00" fill="#000000">int[10]</text>
<polygon fill="none" stroke="#000000" points="10.5,-499.2 10.5,-521.2 208.5,-521.2 208.5,-499.2 10.5,-499.2"/>
<text text-anchor="start" x="30.5" y="-506.3" font-family="Helvetica,sans-Serif" font-size="11.00" fill="#000000">Active</text>
<polygon fill="none" stroke="#000000" points="208.5,-499.2 208.5,-521.2 319.5,-521.2 319.5,-499.2 208.5,-499.2"/>
<text text-anchor="start" x="211.5" y="-506.9" font-family="Helvetica,sans-Serif" font-size="11.00" fill="#000000">bit[1]</text>
<polygon fill="none" stroke="#000000" points="10.5,-477.2 10.5,-499.2 208.5,-499.2 208.5,-477.2 10.5,-477.2"/>
<text text-anchor="start" x="30.5" y="-484.3" font-family="Helvetica,sans-Serif" font-size="11.00" fill="#000000">User</text>
<polygon fill="none" stroke="#000000" points="208.5,-477.2 208.5,-499.2 319.5,-499.2 319.5,-477.2 208.5,-477.2"/>
<text text-anchor="start" x="211.1115" y="-484.9" font-family="Helvetica,sans-Serif" font-size="11.00" fill="#000000">longtext[2147483647]</text>
<polygon fill="none" stroke="#000000" points="10.5,-455.2 10.5,-477.2 208.5,-477.2 208.5,-455.2 10.5,-455.2"/>
<text text-anchor="start" x="30.5" y="-462.3" font-family="Helvetica,sans-Serif" font-size="11.00" fill="#000000">CD</text>
<polygon fill="none" stroke="#000000" points="208.5,-455.2 208.5,-477.2 319.5,-477.2 319.5,-455.2 208.5,-455.2"/>
<text text-anchor="start" x="211.5" y="-462.9" font-family="Helvetica,sans-Serif" font-size="11.00" fill="#000000">datetime[26]</text>
<polygon fill="none" stroke="#000000" points="10.5,-433.2 10.5,-455.2 208.5,-455.2 208.5,-433.2 10.5,-433.2"/>
<text text-anchor="start" x="30.5" y="-440.3" font-family="Helvetica,sans-Serif" font-size="11.00" fill="#000000">UD</text>
<polygon fill="none" stroke="#000000" points="208.5,-433.2 208.5,-455.2 319.5,-455.2 319.5,-433.2 208.5,-433.2"/>
<text text-anchor="start" x="211.5" y="-440.9" font-family="Helvetica,sans-Serif" font-size="11.00" fill="#000000">datetime[26]</text>
<polygon fill="none" stroke="#000000" points="10.5,-411.2 10.5,-433.2 208.5,-433.2 208.5,-411.2 10.5,-411.2"/>
<text text-anchor="start" x="30.5" y="-418.3" font-family="Helvetica,sans-Serif" font-size="11.00" fill="#000000">Remarks</text>
<polygon fill="none" stroke="#000000" points="208.5,-411.2 208.5,-433.2 319.5,-433.2 319.5,-411.2 208.5,-411.2"/>
<text text-anchor="start" x="211.1115" y="-418.9" font-family="Helvetica,sans-Serif" font-size="11.00" fill="#000000">longtext[2147483647]</text>
<polygon fill="none" stroke="#000000" points="10.5,-389.2 10.5,-411.2 208.5,-411.2 208.5,-389.2 10.5,-389.2"/>
<text text-anchor="start" x="30.5" y="-396.3" font-family="Helvetica,sans-Serif" font-size="11.00" fill="#000000">UserID</text>
<polygon fill="none" stroke="#000000" points="208.5,-389.2 208.5,-411.2 319.5,-411.2 319.5,-389.2 208.5,-389.2"/>
<text text-anchor="start" x="211.5" y="-396.9" font-family="Helvetica,sans-Serif" font-size="11.00" fill="#000000">int[10]</text>
<polygon fill="none" stroke="#000000" points="10.5,-367.2 10.5,-389.2 208.5,-389.2 208.5,-367.2 10.5,-367.2"/>
<text text-anchor="start" x="30.5" y="-374.3" font-family="Helvetica,sans-Serif" font-size="11.00" fill="#000000">Warehouse_ChallanFK</text>
<polygon fill="none" stroke="#000000" points="208.5,-367.2 208.5,-389.2 319.5,-389.2 319.5,-367.2 208.5,-367.2"/>
<text text-anchor="start" x="211.5" y="-374.9" font-family="Helvetica,sans-Serif" font-size="11.00" fill="#000000">int[10]</text>
<polygon fill="none" stroke="#000000" points="10.5,-345.2 10.5,-367.2 208.5,-367.2 208.5,-345.2 10.5,-345.2"/>
<text text-anchor="start" x="30.5" y="-352.3" font-family="Helvetica,sans-Serif" font-size="11.00" fill="#000000">Warehouse_RequisitionItemFK</text>
<polygon fill="none" stroke="#000000" points="208.5,-345.2 208.5,-367.2 319.5,-367.2 319.5,-345.2 208.5,-345.2"/>
<text text-anchor="start" x="211.5" y="-352.9" font-family="Helvetica,sans-Serif" font-size="11.00" fill="#000000">int[10]</text>
<polygon fill="none" stroke="#000000" points="10.5,-323.2 10.5,-345.2 208.5,-345.2 208.5,-323.2 10.5,-323.2"/>
<text text-anchor="start" x="30.5" y="-330.3" font-family="Helvetica,sans-Serif" font-size="11.00" fill="#000000">Common_UnitFK</text>
<polygon fill="none" stroke="#000000" points="208.5,-323.2 208.5,-345.2 319.5,-345.2 319.5,-323.2 208.5,-323.2"/>
<text text-anchor="start" x="211.5" y="-330.9" font-family="Helvetica,sans-Serif" font-size="11.00" fill="#000000">int[10]</text>
<polygon fill="none" stroke="#000000" points="10.5,-301.2 10.5,-323.2 208.5,-323.2 208.5,-301.2 10.5,-301.2"/>
<text text-anchor="start" x="30.5" y="-308.3" font-family="Helvetica,sans-Serif" font-size="11.00" fill="#000000">Order_ReceiveInStoreFK</text>
<polygon fill="none" stroke="#000000" points="208.5,-301.2 208.5,-323.2 319.5,-323.2 319.5,-301.2 208.5,-301.2"/>
<text text-anchor="start" x="211.5" y="-308.9" font-family="Helvetica,sans-Serif" font-size="11.00" fill="#000000">int[10]</text>
<polygon fill="none" stroke="#000000" points="10.5,-279.2 10.5,-301.2 208.5,-301.2 208.5,-279.2 10.5,-279.2"/>
<text text-anchor="start" x="30.5" y="-286.3" font-family="Helvetica,sans-Serif" font-size="11.00" fill="#000000">Common_ProductFK</text>
<polygon fill="none" stroke="#000000" points="208.5,-279.2 208.5,-301.2 319.5,-301.2 319.5,-279.2 208.5,-279.2"/>
<text text-anchor="start" x="211.5" y="-286.9" font-family="Helvetica,sans-Serif" font-size="11.00" fill="#000000">int[10]</text>
<polygon fill="none" stroke="#000000" points="10.5,-257.2 10.5,-279.2 208.5,-279.2 208.5,-257.2 10.5,-257.2"/>
<text text-anchor="start" x="30.5" y="-264.3" font-family="Helvetica,sans-Serif" font-size="11.00" fill="#000000">Quantity</text>
<polygon fill="none" stroke="#000000" points="208.5,-257.2 208.5,-279.2 319.5,-279.2 319.5,-257.2 208.5,-257.2"/>
<text text-anchor="start" x="211.5" y="-264.9" font-family="Helvetica,sans-Serif" font-size="11.00" fill="#000000">decimal[18,2]</text>
<polygon fill="none" stroke="#000000" points="10.5,-235.2 10.5,-257.2 208.5,-257.2 208.5,-235.2 10.5,-235.2"/>
<text text-anchor="start" x="30.5" y="-242.3" font-family="Helvetica,sans-Serif" font-size="11.00" fill="#000000">UnitPrice</text>
<polygon fill="none" stroke="#000000" points="208.5,-235.2 208.5,-257.2 319.5,-257.2 319.5,-235.2 208.5,-235.2"/>
<text text-anchor="start" x="211.5" y="-242.9" font-family="Helvetica,sans-Serif" font-size="11.00" fill="#000000">decimal[18,5]</text>
<polygon fill="none" stroke="#000000" points="10.5,-213.2 10.5,-235.2 208.5,-235.2 208.5,-213.2 10.5,-213.2"/>
<text text-anchor="start" x="30.5" y="-220.3" font-family="Helvetica,sans-Serif" font-size="11.00" fill="#000000">PcsQty</text>
<polygon fill="none" stroke="#000000" points="208.5,-213.2 208.5,-235.2 319.5,-235.2 319.5,-213.2 208.5,-213.2"/>
<text text-anchor="start" x="211.5" y="-220.9" font-family="Helvetica,sans-Serif" font-size="11.00" fill="#000000">decimal[18,2]</text>
<polygon fill="none" stroke="#000000" points="10.5,-191.2 10.5,-213.2 208.5,-213.2 208.5,-191.2 10.5,-191.2"/>
<text text-anchor="start" x="30.5" y="-198.3" font-family="Helvetica,sans-Serif" font-size="11.00" fill="#000000">IsTransferChallan</text>
<polygon fill="none" stroke="#000000" points="208.5,-191.2 208.5,-213.2 319.5,-213.2 319.5,-191.2 208.5,-191.2"/>
<text text-anchor="start" x="211.5" y="-198.9" font-family="Helvetica,sans-Serif" font-size="11.00" fill="#000000">bit[1]</text>
<polygon fill="none" stroke="#000000" points="10.5,-169.2 10.5,-191.2 208.5,-191.2 208.5,-169.2 10.5,-169.2"/>
<text text-anchor="start" x="30.5" y="-176.3" font-family="Helvetica,sans-Serif" font-size="11.00" fill="#000000">WarehouseChallanItemFK</text>
<polygon fill="none" stroke="#000000" points="208.5,-169.2 208.5,-191.2 319.5,-191.2 319.5,-169.2 208.5,-169.2"/>
<text text-anchor="start" x="211.5" y="-176.9" font-family="Helvetica,sans-Serif" font-size="11.00" fill="#000000">int[10]</text>
<polygon fill="none" stroke="#000000" points="10.5,-147.2 10.5,-169.2 208.5,-169.2 208.5,-147.2 10.5,-147.2"/>
<text text-anchor="start" x="30.5" y="-154.3" font-family="Helvetica,sans-Serif" font-size="11.00" fill="#000000">WarehouseFK</text>
<polygon fill="none" stroke="#000000" points="208.5,-147.2 208.5,-169.2 319.5,-169.2 319.5,-147.2 208.5,-147.2"/>
<text text-anchor="start" x="211.5" y="-154.9" font-family="Helvetica,sans-Serif" font-size="11.00" fill="#000000">int[10]</text>
<polygon fill="none" stroke="#000000" points="10.5,-125.2 10.5,-147.2 208.5,-147.2 208.5,-125.2 10.5,-125.2"/>
<text text-anchor="start" x="30.5" y="-132.3" font-family="Helvetica,sans-Serif" font-size="11.00" fill="#000000">TotalReturnQty</text>
<polygon fill="none" stroke="#000000" points="208.5,-125.2 208.5,-147.2 319.5,-147.2 319.5,-125.2 208.5,-125.2"/>
<text text-anchor="start" x="211.5" y="-132.9" font-family="Helvetica,sans-Serif" font-size="11.00" fill="#000000">decimal[18,2]</text>
<polygon fill="none" stroke="#000000" points="10.5,-103.2 10.5,-125.2 208.5,-125.2 208.5,-103.2 10.5,-103.2"/>
<text text-anchor="start" x="30.5" y="-110.3" font-family="Helvetica,sans-Serif" font-size="11.00" fill="#000000">TotalSaleQty</text>
<polygon fill="none" stroke="#000000" points="208.5,-103.2 208.5,-125.2 319.5,-125.2 319.5,-103.2 208.5,-103.2"/>
<text text-anchor="start" x="211.5" y="-110.9" font-family="Helvetica,sans-Serif" font-size="11.00" fill="#000000">decimal[18,2]</text>
<polygon fill="none" stroke="#000000" points="10.5,-81.2 10.5,-103.2 208.5,-103.2 208.5,-81.2 10.5,-81.2"/>
<text text-anchor="start" x="30.5" y="-88.3" font-family="Helvetica,sans-Serif" font-size="11.00" fill="#000000">TotalTransferQty</text>
<polygon fill="none" stroke="#000000" points="208.5,-81.2 208.5,-103.2 319.5,-103.2 319.5,-81.2 208.5,-81.2"/>
<text text-anchor="start" x="211.5" y="-88.9" font-family="Helvetica,sans-Serif" font-size="11.00" fill="#000000">decimal[18,2]</text>
<polygon fill="none" stroke="#000000" points="10.5,-59.2 10.5,-81.2 208.5,-81.2 208.5,-59.2 10.5,-59.2"/>
<text text-anchor="start" x="30.5" y="-66.3" font-family="Helvetica,sans-Serif" font-size="11.00" fill="#000000">ToCommon_ShopFK</text>
<polygon fill="none" stroke="#000000" points="208.5,-59.2 208.5,-81.2 319.5,-81.2 319.5,-59.2 208.5,-59.2"/>
<text text-anchor="start" x="211.5" y="-66.9" font-family="Helvetica,sans-Serif" font-size="11.00" fill="#000000">int[10]</text>
<polygon fill="#ffffff" stroke="transparent" points="10.5,-40.2 10.5,-59.2 97.5,-59.2 97.5,-40.2 10.5,-40.2"/>
<polygon fill="none" stroke="#000000" points="10.5,-40.2 10.5,-59.2 97.5,-59.2 97.5,-40.2 10.5,-40.2"/>
<text text-anchor="start" x="13.5" y="-46.3" font-family="Helvetica,sans-Serif" font-size="11.00" fill="#000000">&lt; 0</text>
<polygon fill="#ffffff" stroke="transparent" points="97.5,-40.2 97.5,-59.2 208.5,-59.2 208.5,-40.2 97.5,-40.2"/>
<polygon fill="none" stroke="#000000" points="97.5,-40.2 97.5,-59.2 208.5,-59.2 208.5,-40.2 97.5,-40.2"/>
<text text-anchor="start" x="166.9956" y="-46.3" font-family="Helvetica,sans-Serif" font-size="11.00" fill="#000000">15 rows</text>
<polygon fill="#ffffff" stroke="transparent" points="208.5,-40.2 208.5,-59.2 319.5,-59.2 319.5,-40.2 208.5,-40.2"/>
<polygon fill="none" stroke="#000000" points="208.5,-40.2 208.5,-59.2 319.5,-59.2 319.5,-40.2 208.5,-40.2"/>
<text text-anchor="start" x="300.9053" y="-46.3" font-family="Helvetica,sans-Serif" font-size="11.00" fill="#000000">0 &gt;</text>
<polygon fill="none" stroke="#000000" stroke-width="2" points="9,-39.2 9,-567.2 320,-567.2 320,-39.2 9,-39.2"/>
</a>
</g>
</g>
</g>
</svg>
