<?xml version="1.0" encoding="UTF-8" standalone="no"?>
<!DOCTYPE svg PUBLIC "-//W3C//DTD SVG 1.1//EN"
 "http://www.w3.org/Graphics/SVG/1.1/DTD/svg11.dtd">
<!-- Generated by graphviz version 2.40.1 (20161225.0304)
 -->
<!-- Title: oneDegreeRelationshipsDiagram Pages: 1 -->
<svg width="312pt" height="536pt"
 viewBox="0.00 0.00 312.00 536.20" xmlns="http://www.w3.org/2000/svg" xmlns:xlink="http://www.w3.org/1999/xlink">
<g id="graph0" class="graph" transform="scale(1 1) rotate(0) translate(4 532.2)">
<title>oneDegreeRelationshipsDiagram</title>
<polygon fill="#ffffff" stroke="transparent" points="-4,4 -4,-532.2 308,-532.2 308,4 -4,4"/>
<text text-anchor="middle" x="72.4936" y="-7.3" font-family="Helvetica,sans-Serif" font-size="11.00" fill="#000000">Generated by SchemaSpy</text>
<!-- warehouse_challans -->
<g id="node1" class="node">
<title>warehouse_challans</title>
<g id="a_node1"><a xlink:href="../../tables/warehouse_challans.html" xlink:title="warehouse_challans" target="_top">
<polygon fill="#ffffff" stroke="transparent" points="8,-38.2 8,-524.2 296,-524.2 296,-38.2 8,-38.2"/>
<polygon fill="#f5f5f5" stroke="transparent" points="10,-499.2 10,-522.2 294,-522.2 294,-499.2 10,-499.2"/>
<polygon fill="none" stroke="#000000" points="10,-499.2 10,-522.2 294,-522.2 294,-499.2 10,-499.2"/>
<text text-anchor="start" x="15" y="-507.8" font-family="Helvetica,sans-Serif" font-weight="bold" font-size="11.00" fill="#000000">warehouse_challans</text>
<text text-anchor="start" x="259.0437" y="-507.3" font-family="Helvetica,sans-Serif" font-size="11.00" fill="#000000">[table]</text>
<polygon fill="none" stroke="#000000" points="10,-477.2 10,-499.2 183,-499.2 183,-477.2 10,-477.2"/>
<image xlink:href="../../images/primaryKeys.png" width="11px" height="12px" preserveAspectRatio="xMinYMin meet" x="15" y="-494.2"/>
<text text-anchor="start" x="30" y="-484.3" font-family="Helvetica,sans-Serif" font-size="11.00" fill="#000000">ID</text>
<polygon fill="none" stroke="#000000" points="183,-477.2 183,-499.2 294,-499.2 294,-477.2 183,-477.2"/>
<text text-anchor="start" x="186" y="-484.9" font-family="Helvetica,sans-Serif" font-size="11.00" fill="#000000">int[10]</text>
<polygon fill="none" stroke="#000000" points="10,-455.2 10,-477.2 183,-477.2 183,-455.2 10,-455.2"/>
<text text-anchor="start" x="30" y="-462.3" font-family="Helvetica,sans-Serif" font-size="11.00" fill="#000000">Active</text>
<polygon fill="none" stroke="#000000" points="183,-455.2 183,-477.2 294,-477.2 294,-455.2 183,-455.2"/>
<text text-anchor="start" x="186" y="-462.9" font-family="Helvetica,sans-Serif" font-size="11.00" fill="#000000">bit[1]</text>
<polygon fill="none" stroke="#000000" points="10,-433.2 10,-455.2 183,-455.2 183,-433.2 10,-433.2"/>
<text text-anchor="start" x="30" y="-440.3" font-family="Helvetica,sans-Serif" font-size="11.00" fill="#000000">User</text>
<polygon fill="none" stroke="#000000" points="183,-433.2 183,-455.2 294,-455.2 294,-433.2 183,-433.2"/>
<text text-anchor="start" x="185.6115" y="-440.9" font-family="Helvetica,sans-Serif" font-size="11.00" fill="#000000">longtext[2147483647]</text>
<polygon fill="none" stroke="#000000" points="10,-411.2 10,-433.2 183,-433.2 183,-411.2 10,-411.2"/>
<text text-anchor="start" x="30" y="-418.3" font-family="Helvetica,sans-Serif" font-size="11.00" fill="#000000">CD</text>
<polygon fill="none" stroke="#000000" points="183,-411.2 183,-433.2 294,-433.2 294,-411.2 183,-411.2"/>
<text text-anchor="start" x="186" y="-418.9" font-family="Helvetica,sans-Serif" font-size="11.00" fill="#000000">datetime[26]</text>
<polygon fill="none" stroke="#000000" points="10,-389.2 10,-411.2 183,-411.2 183,-389.2 10,-389.2"/>
<text text-anchor="start" x="30" y="-396.3" font-family="Helvetica,sans-Serif" font-size="11.00" fill="#000000">UD</text>
<polygon fill="none" stroke="#000000" points="183,-389.2 183,-411.2 294,-411.2 294,-389.2 183,-389.2"/>
<text text-anchor="start" x="186" y="-396.9" font-family="Helvetica,sans-Serif" font-size="11.00" fill="#000000">datetime[26]</text>
<polygon fill="none" stroke="#000000" points="10,-367.2 10,-389.2 183,-389.2 183,-367.2 10,-367.2"/>
<text text-anchor="start" x="30" y="-374.3" font-family="Helvetica,sans-Serif" font-size="11.00" fill="#000000">Remarks</text>
<polygon fill="none" stroke="#000000" points="183,-367.2 183,-389.2 294,-389.2 294,-367.2 183,-367.2"/>
<text text-anchor="start" x="185.6115" y="-374.9" font-family="Helvetica,sans-Serif" font-size="11.00" fill="#000000">longtext[2147483647]</text>
<polygon fill="none" stroke="#000000" points="10,-345.2 10,-367.2 183,-367.2 183,-345.2 10,-345.2"/>
<text text-anchor="start" x="30" y="-352.3" font-family="Helvetica,sans-Serif" font-size="11.00" fill="#000000">UserID</text>
<polygon fill="none" stroke="#000000" points="183,-345.2 183,-367.2 294,-367.2 294,-345.2 183,-345.2"/>
<text text-anchor="start" x="186" y="-352.9" font-family="Helvetica,sans-Serif" font-size="11.00" fill="#000000">int[10]</text>
<polygon fill="none" stroke="#000000" points="10,-323.2 10,-345.2 183,-345.2 183,-323.2 10,-323.2"/>
<text text-anchor="start" x="30" y="-330.3" font-family="Helvetica,sans-Serif" font-size="11.00" fill="#000000">Warehouse_RequisitionFK</text>
<polygon fill="none" stroke="#000000" points="183,-323.2 183,-345.2 294,-345.2 294,-323.2 183,-323.2"/>
<text text-anchor="start" x="186" y="-330.9" font-family="Helvetica,sans-Serif" font-size="11.00" fill="#000000">int[10]</text>
<polygon fill="none" stroke="#000000" points="10,-301.2 10,-323.2 183,-323.2 183,-301.2 10,-301.2"/>
<text text-anchor="start" x="30" y="-308.3" font-family="Helvetica,sans-Serif" font-size="11.00" fill="#000000">ChallanDate</text>
<polygon fill="none" stroke="#000000" points="183,-301.2 183,-323.2 294,-323.2 294,-301.2 183,-301.2"/>
<text text-anchor="start" x="186" y="-308.9" font-family="Helvetica,sans-Serif" font-size="11.00" fill="#000000">datetime[26]</text>
<polygon fill="none" stroke="#000000" points="10,-279.2 10,-301.2 183,-301.2 183,-279.2 10,-279.2"/>
<text text-anchor="start" x="30" y="-286.3" font-family="Helvetica,sans-Serif" font-size="11.00" fill="#000000">Code</text>
<polygon fill="none" stroke="#000000" points="183,-279.2 183,-301.2 294,-301.2 294,-279.2 183,-279.2"/>
<text text-anchor="start" x="185.6115" y="-286.9" font-family="Helvetica,sans-Serif" font-size="11.00" fill="#000000">longtext[2147483647]</text>
<polygon fill="none" stroke="#000000" points="10,-257.2 10,-279.2 183,-279.2 183,-257.2 10,-257.2"/>
<text text-anchor="start" x="30" y="-264.3" font-family="Helvetica,sans-Serif" font-size="11.00" fill="#000000">StatusID</text>
<polygon fill="none" stroke="#000000" points="183,-257.2 183,-279.2 294,-279.2 294,-257.2 183,-257.2"/>
<text text-anchor="start" x="186" y="-264.9" font-family="Helvetica,sans-Serif" font-size="11.00" fill="#000000">int[10]</text>
<polygon fill="none" stroke="#000000" points="10,-235.2 10,-257.2 183,-257.2 183,-235.2 10,-235.2"/>
<text text-anchor="start" x="30" y="-242.3" font-family="Helvetica,sans-Serif" font-size="11.00" fill="#000000">Common_DealerFK</text>
<polygon fill="none" stroke="#000000" points="183,-235.2 183,-257.2 294,-257.2 294,-235.2 183,-235.2"/>
<text text-anchor="start" x="186" y="-242.9" font-family="Helvetica,sans-Serif" font-size="11.00" fill="#000000">int[10]</text>
<polygon fill="none" stroke="#000000" points="10,-213.2 10,-235.2 183,-235.2 183,-213.2 10,-213.2"/>
<text text-anchor="start" x="30" y="-220.3" font-family="Helvetica,sans-Serif" font-size="11.00" fill="#000000">TotalAmount</text>
<polygon fill="none" stroke="#000000" points="183,-213.2 183,-235.2 294,-235.2 294,-213.2 183,-213.2"/>
<text text-anchor="start" x="186" y="-220.9" font-family="Helvetica,sans-Serif" font-size="11.00" fill="#000000">decimal[18,5]</text>
<polygon fill="none" stroke="#000000" points="10,-191.2 10,-213.2 183,-213.2 183,-191.2 10,-191.2"/>
<text text-anchor="start" x="30" y="-198.3" font-family="Helvetica,sans-Serif" font-size="11.00" fill="#000000">TotalQty</text>
<polygon fill="none" stroke="#000000" points="183,-191.2 183,-213.2 294,-213.2 294,-191.2 183,-191.2"/>
<text text-anchor="start" x="186" y="-198.9" font-family="Helvetica,sans-Serif" font-size="11.00" fill="#000000">decimal[18,2]</text>
<polygon fill="none" stroke="#000000" points="10,-169.2 10,-191.2 183,-191.2 183,-169.2 10,-169.2"/>
<text text-anchor="start" x="30" y="-176.3" font-family="Helvetica,sans-Serif" font-size="11.00" fill="#000000">IsAccepted</text>
<polygon fill="none" stroke="#000000" points="183,-169.2 183,-191.2 294,-191.2 294,-169.2 183,-169.2"/>
<text text-anchor="start" x="186" y="-176.9" font-family="Helvetica,sans-Serif" font-size="11.00" fill="#000000">bit[1]</text>
<polygon fill="none" stroke="#000000" points="10,-147.2 10,-169.2 183,-169.2 183,-147.2 10,-147.2"/>
<text text-anchor="start" x="30" y="-154.3" font-family="Helvetica,sans-Serif" font-size="11.00" fill="#000000">WithRequisition</text>
<polygon fill="none" stroke="#000000" points="183,-147.2 183,-169.2 294,-169.2 294,-147.2 183,-147.2"/>
<text text-anchor="start" x="186" y="-154.9" font-family="Helvetica,sans-Serif" font-size="11.00" fill="#000000">bit[1]</text>
<polygon fill="none" stroke="#000000" points="10,-125.2 10,-147.2 183,-147.2 183,-125.2 10,-125.2"/>
<text text-anchor="start" x="30" y="-132.3" font-family="Helvetica,sans-Serif" font-size="11.00" fill="#000000">ToWarehouseFK</text>
<polygon fill="none" stroke="#000000" points="183,-125.2 183,-147.2 294,-147.2 294,-125.2 183,-125.2"/>
<text text-anchor="start" x="186" y="-132.9" font-family="Helvetica,sans-Serif" font-size="11.00" fill="#000000">int[10]</text>
<polygon fill="none" stroke="#000000" points="10,-103.2 10,-125.2 183,-125.2 183,-103.2 10,-103.2"/>
<text text-anchor="start" x="30" y="-110.3" font-family="Helvetica,sans-Serif" font-size="11.00" fill="#000000">WarehouseFK</text>
<polygon fill="none" stroke="#000000" points="183,-103.2 183,-125.2 294,-125.2 294,-103.2 183,-103.2"/>
<text text-anchor="start" x="186" y="-110.9" font-family="Helvetica,sans-Serif" font-size="11.00" fill="#000000">int[10]</text>
<polygon fill="none" stroke="#000000" points="10,-81.2 10,-103.2 183,-103.2 183,-81.2 10,-81.2"/>
<text text-anchor="start" x="30" y="-88.3" font-family="Helvetica,sans-Serif" font-size="11.00" fill="#000000">ToCommon_ShopFK</text>
<polygon fill="none" stroke="#000000" points="183,-81.2 183,-103.2 294,-103.2 294,-81.2 183,-81.2"/>
<text text-anchor="start" x="186" y="-88.9" font-family="Helvetica,sans-Serif" font-size="11.00" fill="#000000">int[10]</text>
<polygon fill="none" stroke="#000000" points="10,-59.2 10,-81.2 183,-81.2 183,-59.2 10,-59.2"/>
<text text-anchor="start" x="30" y="-66.3" font-family="Helvetica,sans-Serif" font-size="11.00" fill="#000000">TypeID</text>
<polygon fill="none" stroke="#000000" points="183,-59.2 183,-81.2 294,-81.2 294,-59.2 183,-59.2"/>
<text text-anchor="start" x="186" y="-66.9" font-family="Helvetica,sans-Serif" font-size="11.00" fill="#000000">int[10]</text>
<polygon fill="#ffffff" stroke="transparent" points="10,-40.2 10,-59.2 85,-59.2 85,-40.2 10,-40.2"/>
<polygon fill="none" stroke="#000000" points="10,-40.2 10,-59.2 85,-59.2 85,-40.2 10,-40.2"/>
<text text-anchor="start" x="13" y="-46.3" font-family="Helvetica,sans-Serif" font-size="11.00" fill="#000000">&lt; 0</text>
<polygon fill="#ffffff" stroke="transparent" points="85,-40.2 85,-59.2 183,-59.2 183,-40.2 85,-40.2"/>
<polygon fill="none" stroke="#000000" points="85,-40.2 85,-59.2 183,-59.2 183,-40.2 85,-40.2"/>
<text text-anchor="start" x="141.4956" y="-46.3" font-family="Helvetica,sans-Serif" font-size="11.00" fill="#000000">12 rows</text>
<polygon fill="#ffffff" stroke="transparent" points="183,-40.2 183,-59.2 294,-59.2 294,-40.2 183,-40.2"/>
<polygon fill="none" stroke="#000000" points="183,-40.2 183,-59.2 294,-59.2 294,-40.2 183,-40.2"/>
<text text-anchor="start" x="275.4053" y="-46.3" font-family="Helvetica,sans-Serif" font-size="11.00" fill="#000000">0 &gt;</text>
<polygon fill="none" stroke="#000000" stroke-width="2" points="9,-39.2 9,-523.2 295,-523.2 295,-39.2 9,-39.2"/>
</a>
</g>
</g>
</g>
</svg>
