<?xml version="1.0" encoding="UTF-8" standalone="no"?>
<!DOCTYPE svg PUBLIC "-//W3C//DTD SVG 1.1//EN"
 "http://www.w3.org/Graphics/SVG/1.1/DTD/svg11.dtd">
<!-- Generated by graphviz version 2.40.1 (20161225.0304)
 -->
<!-- Title: oneDegreeRelationshipsDiagram Pages: 1 -->
<svg width="348pt" height="294pt"
 viewBox="0.00 0.00 348.00 294.20" xmlns="http://www.w3.org/2000/svg" xmlns:xlink="http://www.w3.org/1999/xlink">
<g id="graph0" class="graph" transform="scale(1 1) rotate(0) translate(4 290.2)">
<title>oneDegreeRelationshipsDiagram</title>
<polygon fill="#ffffff" stroke="transparent" points="-4,4 -4,-290.2 344,-290.2 344,4 -4,4"/>
<text text-anchor="middle" x="72.4936" y="-7.3" font-family="Helvetica,sans-Serif" font-size="11.00" fill="#000000">Generated by SchemaSpy</text>
<!-- warehouse_challanitemserialnos -->
<g id="node1" class="node">
<title>warehouse_challanitemserialnos</title>
<g id="a_node1"><a xlink:href="../../tables/warehouse_challanitemserialnos.html" xlink:title="warehouse_challanitemserialnos" target="_top">
<polygon fill="#ffffff" stroke="transparent" points="8,-38.2 8,-282.2 332,-282.2 332,-38.2 8,-38.2"/>
<polygon fill="#f5f5f5" stroke="transparent" points="10,-257.2 10,-280.2 330,-280.2 330,-257.2 10,-257.2"/>
<polygon fill="none" stroke="#000000" points="10,-257.2 10,-280.2 330,-280.2 330,-257.2 10,-257.2"/>
<text text-anchor="start" x="15" y="-265.8" font-family="Helvetica,sans-Serif" font-weight="bold" font-size="11.00" fill="#000000">warehouse_challanitemserialnos</text>
<text text-anchor="start" x="295.0437" y="-265.3" font-family="Helvetica,sans-Serif" font-size="11.00" fill="#000000">[table]</text>
<polygon fill="none" stroke="#000000" points="10,-235.2 10,-257.2 219,-257.2 219,-235.2 10,-235.2"/>
<image xlink:href="../../images/primaryKeys.png" width="11px" height="12px" preserveAspectRatio="xMinYMin meet" x="15" y="-252.2"/>
<text text-anchor="start" x="30" y="-242.3" font-family="Helvetica,sans-Serif" font-size="11.00" fill="#000000">ID</text>
<polygon fill="none" stroke="#000000" points="219,-235.2 219,-257.2 330,-257.2 330,-235.2 219,-235.2"/>
<text text-anchor="start" x="222" y="-242.9" font-family="Helvetica,sans-Serif" font-size="11.00" fill="#000000">int[10]</text>
<polygon fill="none" stroke="#000000" points="10,-213.2 10,-235.2 219,-235.2 219,-213.2 10,-213.2"/>
<text text-anchor="start" x="30" y="-220.3" font-family="Helvetica,sans-Serif" font-size="11.00" fill="#000000">Active</text>
<polygon fill="none" stroke="#000000" points="219,-213.2 219,-235.2 330,-235.2 330,-213.2 219,-213.2"/>
<text text-anchor="start" x="222" y="-220.9" font-family="Helvetica,sans-Serif" font-size="11.00" fill="#000000">bit[1]</text>
<polygon fill="none" stroke="#000000" points="10,-191.2 10,-213.2 219,-213.2 219,-191.2 10,-191.2"/>
<text text-anchor="start" x="30" y="-198.3" font-family="Helvetica,sans-Serif" font-size="11.00" fill="#000000">User</text>
<polygon fill="none" stroke="#000000" points="219,-191.2 219,-213.2 330,-213.2 330,-191.2 219,-191.2"/>
<text text-anchor="start" x="221.6115" y="-198.9" font-family="Helvetica,sans-Serif" font-size="11.00" fill="#000000">longtext[2147483647]</text>
<polygon fill="none" stroke="#000000" points="10,-169.2 10,-191.2 219,-191.2 219,-169.2 10,-169.2"/>
<text text-anchor="start" x="30" y="-176.3" font-family="Helvetica,sans-Serif" font-size="11.00" fill="#000000">CD</text>
<polygon fill="none" stroke="#000000" points="219,-169.2 219,-191.2 330,-191.2 330,-169.2 219,-169.2"/>
<text text-anchor="start" x="222" y="-176.9" font-family="Helvetica,sans-Serif" font-size="11.00" fill="#000000">datetime[26]</text>
<polygon fill="none" stroke="#000000" points="10,-147.2 10,-169.2 219,-169.2 219,-147.2 10,-147.2"/>
<text text-anchor="start" x="30" y="-154.3" font-family="Helvetica,sans-Serif" font-size="11.00" fill="#000000">UD</text>
<polygon fill="none" stroke="#000000" points="219,-147.2 219,-169.2 330,-169.2 330,-147.2 219,-147.2"/>
<text text-anchor="start" x="222" y="-154.9" font-family="Helvetica,sans-Serif" font-size="11.00" fill="#000000">datetime[26]</text>
<polygon fill="none" stroke="#000000" points="10,-125.2 10,-147.2 219,-147.2 219,-125.2 10,-125.2"/>
<text text-anchor="start" x="30" y="-132.3" font-family="Helvetica,sans-Serif" font-size="11.00" fill="#000000">Remarks</text>
<polygon fill="none" stroke="#000000" points="219,-125.2 219,-147.2 330,-147.2 330,-125.2 219,-125.2"/>
<text text-anchor="start" x="221.6115" y="-132.9" font-family="Helvetica,sans-Serif" font-size="11.00" fill="#000000">longtext[2147483647]</text>
<polygon fill="none" stroke="#000000" points="10,-103.2 10,-125.2 219,-125.2 219,-103.2 10,-103.2"/>
<text text-anchor="start" x="30" y="-110.3" font-family="Helvetica,sans-Serif" font-size="11.00" fill="#000000">UserID</text>
<polygon fill="none" stroke="#000000" points="219,-103.2 219,-125.2 330,-125.2 330,-103.2 219,-103.2"/>
<text text-anchor="start" x="222" y="-110.9" font-family="Helvetica,sans-Serif" font-size="11.00" fill="#000000">int[10]</text>
<polygon fill="none" stroke="#000000" points="10,-81.2 10,-103.2 219,-103.2 219,-81.2 10,-81.2"/>
<text text-anchor="start" x="30" y="-88.3" font-family="Helvetica,sans-Serif" font-size="11.00" fill="#000000">Warehouse_ChallanItemFK</text>
<polygon fill="none" stroke="#000000" points="219,-81.2 219,-103.2 330,-103.2 330,-81.2 219,-81.2"/>
<text text-anchor="start" x="222" y="-88.9" font-family="Helvetica,sans-Serif" font-size="11.00" fill="#000000">int[10]</text>
<polygon fill="none" stroke="#000000" points="10,-59.2 10,-81.2 219,-81.2 219,-59.2 10,-59.2"/>
<text text-anchor="start" x="30" y="-66.3" font-family="Helvetica,sans-Serif" font-size="11.00" fill="#000000">Order_ItemSerialNoFK</text>
<polygon fill="none" stroke="#000000" points="219,-59.2 219,-81.2 330,-81.2 330,-59.2 219,-59.2"/>
<text text-anchor="start" x="222" y="-66.9" font-family="Helvetica,sans-Serif" font-size="11.00" fill="#000000">int[10]</text>
<polygon fill="#ffffff" stroke="transparent" points="10,-40.2 10,-59.2 103,-59.2 103,-40.2 10,-40.2"/>
<polygon fill="none" stroke="#000000" points="10,-40.2 10,-59.2 103,-59.2 103,-40.2 10,-40.2"/>
<text text-anchor="start" x="13" y="-46.3" font-family="Helvetica,sans-Serif" font-size="11.00" fill="#000000">&lt; 0</text>
<polygon fill="#ffffff" stroke="transparent" points="103,-40.2 103,-59.2 219,-59.2 219,-40.2 103,-40.2"/>
<polygon fill="none" stroke="#000000" points="103,-40.2 103,-59.2 219,-59.2 219,-40.2 103,-40.2"/>
<text text-anchor="start" x="177.4956" y="-46.3" font-family="Helvetica,sans-Serif" font-size="11.00" fill="#000000">10 rows</text>
<polygon fill="#ffffff" stroke="transparent" points="219,-40.2 219,-59.2 330,-59.2 330,-40.2 219,-40.2"/>
<polygon fill="none" stroke="#000000" points="219,-40.2 219,-59.2 330,-59.2 330,-40.2 219,-40.2"/>
<text text-anchor="start" x="311.4053" y="-46.3" font-family="Helvetica,sans-Serif" font-size="11.00" fill="#000000">0 &gt;</text>
<polygon fill="none" stroke="#000000" stroke-width="2" points="9,-39.2 9,-281.2 331,-281.2 331,-39.2 9,-39.2"/>
</a>
</g>
</g>
</g>
</svg>
