<?xml version="1.0" encoding="UTF-8" standalone="no"?>
<!DOCTYPE svg PUBLIC "-//W3C//DTD SVG 1.1//EN"
 "http://www.w3.org/Graphics/SVG/1.1/DTD/svg11.dtd">
<!-- Generated by graphviz version 2.40.1 (20161225.0304)
 -->
<!-- Title: oneDegreeRelationshipsDiagram Pages: 1 -->
<svg width="472pt" height="201pt"
 viewBox="0.00 0.00 472.00 200.70" xmlns="http://www.w3.org/2000/svg" xmlns:xlink="http://www.w3.org/1999/xlink">
<g id="graph0" class="graph" transform="scale(1 1) rotate(0) translate(4 196.7)">
<title>oneDegreeRelationshipsDiagram</title>
<polygon fill="#ffffff" stroke="transparent" points="-4,4 -4,-196.7 468,-196.7 468,4 -4,4"/>
<text text-anchor="middle" x="72.4936" y="-7.3" font-family="Helvetica,sans-Serif" font-size="11.00" fill="#000000">Generated by SchemaSpy</text>
<!-- zauth_userclaims -->
<g id="node1" class="node">
<title>zauth_userclaims</title>
<g id="a_node1"><a xlink:href="../../tables/zauth_userclaims.html" xlink:title="zauth_userclaims" target="_top">
<polygon fill="#ffffff" stroke="transparent" points="220,-54.7 220,-188.7 456,-188.7 456,-54.7 220,-54.7"/>
<polygon fill="#f5f5f5" stroke="transparent" points="222,-163.7 222,-186.7 454,-186.7 454,-163.7 222,-163.7"/>
<polygon fill="none" stroke="#000000" points="222,-163.7 222,-186.7 454,-186.7 454,-163.7 222,-163.7"/>
<text text-anchor="start" x="227" y="-172.3" font-family="Helvetica,sans-Serif" font-weight="bold" font-size="11.00" fill="#000000">zauth_userclaims</text>
<text text-anchor="start" x="419.0437" y="-171.8" font-family="Helvetica,sans-Serif" font-size="11.00" fill="#000000">[table]</text>
<polygon fill="none" stroke="#000000" points="222,-141.7 222,-163.7 343,-163.7 343,-141.7 222,-141.7"/>
<image xlink:href="../../images/primaryKeys.png" width="11px" height="12px" preserveAspectRatio="xMinYMin meet" x="227" y="-158.7"/>
<text text-anchor="start" x="242" y="-148.8" font-family="Helvetica,sans-Serif" font-size="11.00" fill="#000000">Id</text>
<polygon fill="none" stroke="#000000" points="343,-141.7 343,-163.7 454,-163.7 454,-141.7 343,-141.7"/>
<text text-anchor="start" x="346" y="-149.4" font-family="Helvetica,sans-Serif" font-size="11.00" fill="#000000">int[10]</text>
<polygon fill="#ffffff" stroke="transparent" points="222,-119.7 222,-141.7 343,-141.7 343,-119.7 222,-119.7"/>
<polygon fill="none" stroke="#000000" points="222,-119.7 222,-141.7 343,-141.7 343,-119.7 222,-119.7"/>
<image xlink:href="../../images/foreignKeys.png" width="11px" height="12px" preserveAspectRatio="xMinYMin meet" x="227" y="-136.7"/>
<text text-anchor="start" x="242" y="-126.8" font-family="Helvetica,sans-Serif" font-size="11.00" fill="#000000">UserId</text>
<polygon fill="none" stroke="#000000" points="343,-119.7 343,-141.7 454,-141.7 454,-119.7 343,-119.7"/>
<text text-anchor="start" x="346" y="-127.4" font-family="Helvetica,sans-Serif" font-size="11.00" fill="#000000">int[10]</text>
<polygon fill="none" stroke="#000000" points="222,-97.7 222,-119.7 343,-119.7 343,-97.7 222,-97.7"/>
<text text-anchor="start" x="242" y="-104.8" font-family="Helvetica,sans-Serif" font-size="11.00" fill="#000000">ClaimType</text>
<polygon fill="none" stroke="#000000" points="343,-97.7 343,-119.7 454,-119.7 454,-97.7 343,-97.7"/>
<text text-anchor="start" x="345.6115" y="-105.4" font-family="Helvetica,sans-Serif" font-size="11.00" fill="#000000">longtext[2147483647]</text>
<polygon fill="none" stroke="#000000" points="222,-75.7 222,-97.7 343,-97.7 343,-75.7 222,-75.7"/>
<text text-anchor="start" x="242" y="-82.8" font-family="Helvetica,sans-Serif" font-size="11.00" fill="#000000">ClaimValue</text>
<polygon fill="none" stroke="#000000" points="343,-75.7 343,-97.7 454,-97.7 454,-75.7 343,-75.7"/>
<text text-anchor="start" x="345.6115" y="-83.4" font-family="Helvetica,sans-Serif" font-size="11.00" fill="#000000">longtext[2147483647]</text>
<polygon fill="#ffffff" stroke="transparent" points="222,-56.7 222,-75.7 274,-75.7 274,-56.7 222,-56.7"/>
<polygon fill="none" stroke="#000000" points="222,-56.7 222,-75.7 274,-75.7 274,-56.7 222,-56.7"/>
<text text-anchor="start" x="225" y="-62.8" font-family="Helvetica,sans-Serif" font-size="11.00" fill="#000000">&lt; 1</text>
<polygon fill="#ffffff" stroke="transparent" points="274,-56.7 274,-75.7 343,-75.7 343,-56.7 274,-56.7"/>
<polygon fill="none" stroke="#000000" points="274,-56.7 274,-75.7 343,-75.7 343,-56.7 274,-56.7"/>
<text text-anchor="start" x="307.6105" y="-62.8" font-family="Helvetica,sans-Serif" font-size="11.00" fill="#000000">0 rows</text>
<polygon fill="#ffffff" stroke="transparent" points="343,-56.7 343,-75.7 454,-75.7 454,-56.7 343,-56.7"/>
<polygon fill="none" stroke="#000000" points="343,-56.7 343,-75.7 454,-75.7 454,-56.7 343,-56.7"/>
<text text-anchor="start" x="435.4053" y="-62.8" font-family="Helvetica,sans-Serif" font-size="11.00" fill="#000000">0 &gt;</text>
<polygon fill="none" stroke="#000000" stroke-width="2" points="221,-55.7 221,-187.7 455,-187.7 455,-55.7 221,-55.7"/>
</a>
</g>
</g>
<!-- zauth_users -->
<g id="node2" class="node">
<title>zauth_users</title>
<g id="a_node2"><a xlink:href="../../tables/zauth_users.html" xlink:title="zauth_users" target="_top">
<polygon fill="#ffffff" stroke="transparent" points="8,-38.2 8,-165.2 171,-165.2 171,-38.2 8,-38.2"/>
<polygon fill="#f5f5f5" stroke="transparent" points="8.5,-141.7 8.5,-164.7 171.5,-164.7 171.5,-141.7 8.5,-141.7"/>
<polygon fill="none" stroke="#000000" points="8.5,-141.7 8.5,-164.7 171.5,-164.7 171.5,-141.7 8.5,-141.7"/>
<text text-anchor="start" x="13.5" y="-150.3" font-family="Helvetica,sans-Serif" font-weight="bold" font-size="11.00" fill="#000000">zauth_users</text>
<text text-anchor="start" x="136.5437" y="-149.8" font-family="Helvetica,sans-Serif" font-size="11.00" fill="#000000">[table]</text>
<polygon fill="none" stroke="#000000" points="8.5,-119.7 8.5,-141.7 171.5,-141.7 171.5,-119.7 8.5,-119.7"/>
<image xlink:href="../../images/primaryKeys.png" width="11px" height="12px" preserveAspectRatio="xMinYMin meet" x="13.5" y="-136.7"/>
<text text-anchor="start" x="28.5" y="-126.8" font-family="Helvetica,sans-Serif" font-size="11.00" fill="#000000">Id</text>
<polygon fill="#ffffff" stroke="transparent" points="8.5,-97.7 8.5,-119.7 171.5,-119.7 171.5,-97.7 8.5,-97.7"/>
<polygon fill="none" stroke="#000000" points="8.5,-97.7 8.5,-119.7 171.5,-119.7 171.5,-97.7 8.5,-97.7"/>
<text text-anchor="start" x="28.5" y="-104.8" font-family="Helvetica,sans-Serif" font-size="11.00" fill="#000000">NormalizedUserName</text>
<polygon fill="#ffffff" stroke="transparent" points="8.5,-75.7 8.5,-97.7 171.5,-97.7 171.5,-75.7 8.5,-75.7"/>
<polygon fill="none" stroke="#000000" points="8.5,-75.7 8.5,-97.7 171.5,-97.7 171.5,-75.7 8.5,-75.7"/>
<text text-anchor="start" x="28.5" y="-82.8" font-family="Helvetica,sans-Serif" font-size="11.00" fill="#000000">NormalizedEmail</text>
<polygon fill="none" stroke="#000000" points="8.5,-56.7 8.5,-75.7 171.5,-75.7 171.5,-56.7 8.5,-56.7"/>
<text text-anchor="start" x="11.5" y="-62.8" font-family="Helvetica,sans-Serif" font-size="11.00" fill="#000000">...</text>
<polygon fill="#ffffff" stroke="transparent" points="8.5,-37.7 8.5,-56.7 63.5,-56.7 63.5,-37.7 8.5,-37.7"/>
<polygon fill="none" stroke="#000000" points="8.5,-37.7 8.5,-56.7 63.5,-56.7 63.5,-37.7 8.5,-37.7"/>
<text text-anchor="start" x="11.5" y="-43.8" font-family="Helvetica,sans-Serif" font-size="11.00" fill="#000000"> &#160;</text>
<polygon fill="#ffffff" stroke="transparent" points="63.5,-37.7 63.5,-56.7 128.5,-56.7 128.5,-37.7 63.5,-37.7"/>
<polygon fill="none" stroke="#000000" points="63.5,-37.7 63.5,-56.7 128.5,-56.7 128.5,-37.7 63.5,-37.7"/>
<text text-anchor="start" x="86.9956" y="-43.8" font-family="Helvetica,sans-Serif" font-size="11.00" fill="#000000">98 rows</text>
<polygon fill="#ffffff" stroke="transparent" points="128.5,-37.7 128.5,-56.7 171.5,-56.7 171.5,-37.7 128.5,-37.7"/>
<polygon fill="none" stroke="#000000" points="128.5,-37.7 128.5,-56.7 171.5,-56.7 171.5,-37.7 128.5,-37.7"/>
<text text-anchor="start" x="152.9053" y="-43.8" font-family="Helvetica,sans-Serif" font-size="11.00" fill="#000000">4 &gt;</text>
</a>
</g>
</g>
<!-- zauth_userclaims&#45;&gt;zauth_users -->
<g id="edge1" class="edge">
<title>zauth_userclaims:w&#45;&gt;zauth_users:e</title>
<path fill="none" stroke="#000000" d="M207.4203,-130.7C195.5435,-130.7 188.158,-130.7 171.5,-130.7"/>
<polygon fill="#000000" stroke="#000000" points="214,-130.7001 222,-134.3 218,-130.7 222,-130.7 222,-130.7 222,-130.7 218,-130.7 222,-127.1 214,-130.7001 214,-130.7001"/>
<ellipse fill="none" stroke="#000000" cx="210.8" cy="-130.7001" rx="3.2" ry="3.2"/>
</g>
</g>
</svg>
