<?xml version="1.0" encoding="UTF-8" standalone="no"?>
<!DOCTYPE svg PUBLIC "-//W3C//DTD SVG 1.1//EN"
 "http://www.w3.org/Graphics/SVG/1.1/DTD/svg11.dtd">
<!-- Generated by graphviz version 2.40.1 (20161225.0304)
 -->
<!-- Title: oneDegreeRelationshipsDiagram Pages: 1 -->
<svg width="474pt" height="184pt"
 viewBox="0.00 0.00 474.00 184.20" xmlns="http://www.w3.org/2000/svg" xmlns:xlink="http://www.w3.org/1999/xlink">
<g id="graph0" class="graph" transform="scale(1 1) rotate(0) translate(4 180.2)">
<title>oneDegreeRelationshipsDiagram</title>
<polygon fill="#ffffff" stroke="transparent" points="-4,4 -4,-180.2 470,-180.2 470,4 -4,4"/>
<text text-anchor="middle" x="72.4936" y="-7.3" font-family="Helvetica,sans-Serif" font-size="11.00" fill="#000000">Generated by SchemaSpy</text>
<!-- zauth_usertokens -->
<g id="node1" class="node">
<title>zauth_usertokens</title>
<g id="a_node1"><a xlink:href="../../tables/zauth_usertokens.html" xlink:title="zauth_usertokens" target="_top">
<polygon fill="#ffffff" stroke="transparent" points="220,-38.2 220,-172.2 458,-172.2 458,-38.2 220,-38.2"/>
<polygon fill="#f5f5f5" stroke="transparent" points="222,-147.2 222,-170.2 456,-170.2 456,-147.2 222,-147.2"/>
<polygon fill="none" stroke="#000000" points="222,-147.2 222,-170.2 456,-170.2 456,-147.2 222,-147.2"/>
<text text-anchor="start" x="227" y="-155.8" font-family="Helvetica,sans-Serif" font-weight="bold" font-size="11.00" fill="#000000">zauth_usertokens</text>
<text text-anchor="start" x="421.0437" y="-155.3" font-family="Helvetica,sans-Serif" font-size="11.00" fill="#000000">[table]</text>
<polygon fill="none" stroke="#000000" points="222,-125.2 222,-147.2 345,-147.2 345,-125.2 222,-125.2"/>
<image xlink:href="../../images/primaryKeys.png" width="11px" height="12px" preserveAspectRatio="xMinYMin meet" x="227" y="-142.2"/>
<text text-anchor="start" x="242" y="-132.3" font-family="Helvetica,sans-Serif" font-size="11.00" fill="#000000">UserId</text>
<polygon fill="none" stroke="#000000" points="345,-125.2 345,-147.2 456,-147.2 456,-125.2 345,-125.2"/>
<text text-anchor="start" x="348" y="-132.9" font-family="Helvetica,sans-Serif" font-size="11.00" fill="#000000">int[10]</text>
<polygon fill="none" stroke="#000000" points="222,-103.2 222,-125.2 345,-125.2 345,-103.2 222,-103.2"/>
<image xlink:href="../../images/primaryKeys.png" width="11px" height="12px" preserveAspectRatio="xMinYMin meet" x="227" y="-120.2"/>
<text text-anchor="start" x="242" y="-110.3" font-family="Helvetica,sans-Serif" font-size="11.00" fill="#000000">LoginProvider</text>
<polygon fill="none" stroke="#000000" points="345,-103.2 345,-125.2 456,-125.2 456,-103.2 345,-103.2"/>
<text text-anchor="start" x="348" y="-110.9" font-family="Helvetica,sans-Serif" font-size="11.00" fill="#000000">varchar[128]</text>
<polygon fill="none" stroke="#000000" points="222,-81.2 222,-103.2 345,-103.2 345,-81.2 222,-81.2"/>
<image xlink:href="../../images/primaryKeys.png" width="11px" height="12px" preserveAspectRatio="xMinYMin meet" x="227" y="-98.2"/>
<text text-anchor="start" x="242" y="-88.3" font-family="Helvetica,sans-Serif" font-size="11.00" fill="#000000">Name</text>
<polygon fill="none" stroke="#000000" points="345,-81.2 345,-103.2 456,-103.2 456,-81.2 345,-81.2"/>
<text text-anchor="start" x="348" y="-88.9" font-family="Helvetica,sans-Serif" font-size="11.00" fill="#000000">varchar[128]</text>
<polygon fill="none" stroke="#000000" points="222,-59.2 222,-81.2 345,-81.2 345,-59.2 222,-59.2"/>
<text text-anchor="start" x="242" y="-66.3" font-family="Helvetica,sans-Serif" font-size="11.00" fill="#000000">Value</text>
<polygon fill="none" stroke="#000000" points="345,-59.2 345,-81.2 456,-81.2 456,-59.2 345,-59.2"/>
<text text-anchor="start" x="347.6115" y="-66.9" font-family="Helvetica,sans-Serif" font-size="11.00" fill="#000000">longtext[2147483647]</text>
<polygon fill="#ffffff" stroke="transparent" points="222,-40.2 222,-59.2 275,-59.2 275,-40.2 222,-40.2"/>
<polygon fill="none" stroke="#000000" points="222,-40.2 222,-59.2 275,-59.2 275,-40.2 222,-40.2"/>
<text text-anchor="start" x="225" y="-46.3" font-family="Helvetica,sans-Serif" font-size="11.00" fill="#000000">&lt; 1</text>
<polygon fill="#ffffff" stroke="transparent" points="275,-40.2 275,-59.2 345,-59.2 345,-40.2 275,-40.2"/>
<polygon fill="none" stroke="#000000" points="275,-40.2 275,-59.2 345,-59.2 345,-40.2 275,-40.2"/>
<text text-anchor="start" x="309.6105" y="-46.3" font-family="Helvetica,sans-Serif" font-size="11.00" fill="#000000">0 rows</text>
<polygon fill="#ffffff" stroke="transparent" points="345,-40.2 345,-59.2 456,-59.2 456,-40.2 345,-40.2"/>
<polygon fill="none" stroke="#000000" points="345,-40.2 345,-59.2 456,-59.2 456,-40.2 345,-40.2"/>
<text text-anchor="start" x="437.4053" y="-46.3" font-family="Helvetica,sans-Serif" font-size="11.00" fill="#000000">0 &gt;</text>
<polygon fill="none" stroke="#000000" stroke-width="2" points="221,-39.2 221,-171.2 457,-171.2 457,-39.2 221,-39.2"/>
</a>
</g>
</g>
<!-- zauth_users -->
<g id="node2" class="node">
<title>zauth_users</title>
<g id="a_node2"><a xlink:href="../../tables/zauth_users.html" xlink:title="zauth_users" target="_top">
<polygon fill="#ffffff" stroke="transparent" points="8,-43.7 8,-170.7 171,-170.7 171,-43.7 8,-43.7"/>
<polygon fill="#f5f5f5" stroke="transparent" points="8.5,-147.2 8.5,-170.2 171.5,-170.2 171.5,-147.2 8.5,-147.2"/>
<polygon fill="none" stroke="#000000" points="8.5,-147.2 8.5,-170.2 171.5,-170.2 171.5,-147.2 8.5,-147.2"/>
<text text-anchor="start" x="13.5" y="-155.8" font-family="Helvetica,sans-Serif" font-weight="bold" font-size="11.00" fill="#000000">zauth_users</text>
<text text-anchor="start" x="136.5437" y="-155.3" font-family="Helvetica,sans-Serif" font-size="11.00" fill="#000000">[table]</text>
<polygon fill="none" stroke="#000000" points="8.5,-125.2 8.5,-147.2 171.5,-147.2 171.5,-125.2 8.5,-125.2"/>
<image xlink:href="../../images/primaryKeys.png" width="11px" height="12px" preserveAspectRatio="xMinYMin meet" x="13.5" y="-142.2"/>
<text text-anchor="start" x="28.5" y="-132.3" font-family="Helvetica,sans-Serif" font-size="11.00" fill="#000000">Id</text>
<polygon fill="#ffffff" stroke="transparent" points="8.5,-103.2 8.5,-125.2 171.5,-125.2 171.5,-103.2 8.5,-103.2"/>
<polygon fill="none" stroke="#000000" points="8.5,-103.2 8.5,-125.2 171.5,-125.2 171.5,-103.2 8.5,-103.2"/>
<text text-anchor="start" x="28.5" y="-110.3" font-family="Helvetica,sans-Serif" font-size="11.00" fill="#000000">NormalizedUserName</text>
<polygon fill="#ffffff" stroke="transparent" points="8.5,-81.2 8.5,-103.2 171.5,-103.2 171.5,-81.2 8.5,-81.2"/>
<polygon fill="none" stroke="#000000" points="8.5,-81.2 8.5,-103.2 171.5,-103.2 171.5,-81.2 8.5,-81.2"/>
<text text-anchor="start" x="28.5" y="-88.3" font-family="Helvetica,sans-Serif" font-size="11.00" fill="#000000">NormalizedEmail</text>
<polygon fill="none" stroke="#000000" points="8.5,-62.2 8.5,-81.2 171.5,-81.2 171.5,-62.2 8.5,-62.2"/>
<text text-anchor="start" x="11.5" y="-68.3" font-family="Helvetica,sans-Serif" font-size="11.00" fill="#000000">...</text>
<polygon fill="#ffffff" stroke="transparent" points="8.5,-43.2 8.5,-62.2 63.5,-62.2 63.5,-43.2 8.5,-43.2"/>
<polygon fill="none" stroke="#000000" points="8.5,-43.2 8.5,-62.2 63.5,-62.2 63.5,-43.2 8.5,-43.2"/>
<text text-anchor="start" x="11.5" y="-49.3" font-family="Helvetica,sans-Serif" font-size="11.00" fill="#000000"> &#160;</text>
<polygon fill="#ffffff" stroke="transparent" points="63.5,-43.2 63.5,-62.2 128.5,-62.2 128.5,-43.2 63.5,-43.2"/>
<polygon fill="none" stroke="#000000" points="63.5,-43.2 63.5,-62.2 128.5,-62.2 128.5,-43.2 63.5,-43.2"/>
<text text-anchor="start" x="86.9956" y="-49.3" font-family="Helvetica,sans-Serif" font-size="11.00" fill="#000000">98 rows</text>
<polygon fill="#ffffff" stroke="transparent" points="128.5,-43.2 128.5,-62.2 171.5,-62.2 171.5,-43.2 128.5,-43.2"/>
<polygon fill="none" stroke="#000000" points="128.5,-43.2 128.5,-62.2 171.5,-62.2 171.5,-43.2 128.5,-43.2"/>
<text text-anchor="start" x="152.9053" y="-49.3" font-family="Helvetica,sans-Serif" font-size="11.00" fill="#000000">4 &gt;</text>
</a>
</g>
</g>
<!-- zauth_usertokens&#45;&gt;zauth_users -->
<g id="edge1" class="edge">
<title>zauth_usertokens:w&#45;&gt;zauth_users:e</title>
<path fill="none" stroke="#000000" d="M207.4203,-136.2C195.5435,-136.2 188.158,-136.2 171.5,-136.2"/>
<polygon fill="#000000" stroke="#000000" points="214,-136.2001 222,-139.8 218,-136.2 222,-136.2 222,-136.2 222,-136.2 218,-136.2 222,-132.6 214,-136.2001 214,-136.2001"/>
<ellipse fill="none" stroke="#000000" cx="210.8" cy="-136.2001" rx="3.2" ry="3.2"/>
</g>
</g>
</svg>
