<?xml version="1.0" encoding="UTF-8" standalone="no"?>
<!DOCTYPE svg PUBLIC "-//W3C//DTD SVG 1.1//EN"
 "http://www.w3.org/Graphics/SVG/1.1/DTD/svg11.dtd">
<!-- Generated by graphviz version 2.40.1 (20161225.0304)
 -->
<!-- Title: twoDegreesRelationshipsDiagram Pages: 1 -->
<svg width="437pt" height="267pt"
 viewBox="0.00 0.00 437.00 266.70" xmlns="http://www.w3.org/2000/svg" xmlns:xlink="http://www.w3.org/1999/xlink">
<g id="graph0" class="graph" transform="scale(1 1) rotate(0) translate(4 262.7)">
<title>twoDegreesRelationshipsDiagram</title>
<polygon fill="#ffffff" stroke="transparent" points="-4,4 -4,-262.7 433,-262.7 433,4 -4,4"/>
<text text-anchor="middle" x="72.4936" y="-7.3" font-family="Helvetica,sans-Serif" font-size="11.00" fill="#000000">Generated by SchemaSpy</text>
<!-- zauth_roleclaims -->
<g id="node1" class="node">
<title>zauth_roleclaims</title>
<g id="a_node1"><a xlink:href="../../tables/zauth_roleclaims.html" xlink:title="zauth_roleclaims" target="_top">
<polygon fill="#ffffff" stroke="transparent" points="188,-120.7 188,-254.7 421,-254.7 421,-120.7 188,-120.7"/>
<polygon fill="#f5f5f5" stroke="transparent" points="190.5,-229.7 190.5,-252.7 419.5,-252.7 419.5,-229.7 190.5,-229.7"/>
<polygon fill="none" stroke="#000000" points="190.5,-229.7 190.5,-252.7 419.5,-252.7 419.5,-229.7 190.5,-229.7"/>
<text text-anchor="start" x="195.5" y="-238.3" font-family="Helvetica,sans-Serif" font-weight="bold" font-size="11.00" fill="#000000">zauth_roleclaims</text>
<text text-anchor="start" x="384.5437" y="-237.8" font-family="Helvetica,sans-Serif" font-size="11.00" fill="#000000">[table]</text>
<polygon fill="none" stroke="#000000" points="190.5,-207.7 190.5,-229.7 308.5,-229.7 308.5,-207.7 190.5,-207.7"/>
<image xlink:href="../../images/primaryKeys.png" width="11px" height="12px" preserveAspectRatio="xMinYMin meet" x="195.5" y="-224.7"/>
<text text-anchor="start" x="210.5" y="-214.8" font-family="Helvetica,sans-Serif" font-size="11.00" fill="#000000">Id</text>
<polygon fill="none" stroke="#000000" points="308.5,-207.7 308.5,-229.7 419.5,-229.7 419.5,-207.7 308.5,-207.7"/>
<text text-anchor="start" x="311.5" y="-215.4" font-family="Helvetica,sans-Serif" font-size="11.00" fill="#000000">int[10]</text>
<polygon fill="#ffffff" stroke="transparent" points="190.5,-185.7 190.5,-207.7 308.5,-207.7 308.5,-185.7 190.5,-185.7"/>
<polygon fill="none" stroke="#000000" points="190.5,-185.7 190.5,-207.7 308.5,-207.7 308.5,-185.7 190.5,-185.7"/>
<image xlink:href="../../images/foreignKeys.png" width="11px" height="12px" preserveAspectRatio="xMinYMin meet" x="195.5" y="-202.7"/>
<text text-anchor="start" x="210.5" y="-192.8" font-family="Helvetica,sans-Serif" font-size="11.00" fill="#000000">RoleId</text>
<polygon fill="none" stroke="#000000" points="308.5,-185.7 308.5,-207.7 419.5,-207.7 419.5,-185.7 308.5,-185.7"/>
<text text-anchor="start" x="311.5" y="-193.4" font-family="Helvetica,sans-Serif" font-size="11.00" fill="#000000">int[10]</text>
<polygon fill="none" stroke="#000000" points="190.5,-163.7 190.5,-185.7 308.5,-185.7 308.5,-163.7 190.5,-163.7"/>
<text text-anchor="start" x="210.5" y="-170.8" font-family="Helvetica,sans-Serif" font-size="11.00" fill="#000000">ClaimType</text>
<polygon fill="none" stroke="#000000" points="308.5,-163.7 308.5,-185.7 419.5,-185.7 419.5,-163.7 308.5,-163.7"/>
<text text-anchor="start" x="311.1115" y="-171.4" font-family="Helvetica,sans-Serif" font-size="11.00" fill="#000000">longtext[2147483647]</text>
<polygon fill="none" stroke="#000000" points="190.5,-141.7 190.5,-163.7 308.5,-163.7 308.5,-141.7 190.5,-141.7"/>
<text text-anchor="start" x="210.5" y="-148.8" font-family="Helvetica,sans-Serif" font-size="11.00" fill="#000000">ClaimValue</text>
<polygon fill="none" stroke="#000000" points="308.5,-141.7 308.5,-163.7 419.5,-163.7 419.5,-141.7 308.5,-141.7"/>
<text text-anchor="start" x="311.1115" y="-149.4" font-family="Helvetica,sans-Serif" font-size="11.00" fill="#000000">longtext[2147483647]</text>
<polygon fill="#ffffff" stroke="transparent" points="190.5,-122.7 190.5,-141.7 240.5,-141.7 240.5,-122.7 190.5,-122.7"/>
<polygon fill="none" stroke="#000000" points="190.5,-122.7 190.5,-141.7 240.5,-141.7 240.5,-122.7 190.5,-122.7"/>
<text text-anchor="start" x="193.5" y="-128.8" font-family="Helvetica,sans-Serif" font-size="11.00" fill="#000000">&lt; 1</text>
<polygon fill="#ffffff" stroke="transparent" points="240.5,-122.7 240.5,-141.7 308.5,-141.7 308.5,-122.7 240.5,-122.7"/>
<polygon fill="none" stroke="#000000" points="240.5,-122.7 240.5,-141.7 308.5,-141.7 308.5,-122.7 240.5,-122.7"/>
<text text-anchor="start" x="273.1105" y="-128.8" font-family="Helvetica,sans-Serif" font-size="11.00" fill="#000000">0 rows</text>
<polygon fill="#ffffff" stroke="transparent" points="308.5,-122.7 308.5,-141.7 419.5,-141.7 419.5,-122.7 308.5,-122.7"/>
<polygon fill="none" stroke="#000000" points="308.5,-122.7 308.5,-141.7 419.5,-141.7 419.5,-122.7 308.5,-122.7"/>
<text text-anchor="start" x="400.9053" y="-128.8" font-family="Helvetica,sans-Serif" font-size="11.00" fill="#000000">0 &gt;</text>
<polygon fill="none" stroke="#000000" stroke-width="2" points="189,-121.7 189,-253.7 420,-253.7 420,-121.7 189,-121.7"/>
</a>
</g>
</g>
<!-- zauth_roles -->
<g id="node2" class="node">
<title>zauth_roles</title>
<g id="a_node2"><a xlink:href="../../tables/zauth_roles.html" xlink:title="zauth_roles" target="_top">
<polygon fill="#ffffff" stroke="transparent" points="8,-60.2 8,-165.2 139,-165.2 139,-60.2 8,-60.2"/>
<polygon fill="#f5f5f5" stroke="transparent" points="8.5,-141.7 8.5,-164.7 139.5,-164.7 139.5,-141.7 8.5,-141.7"/>
<polygon fill="none" stroke="#000000" points="8.5,-141.7 8.5,-164.7 139.5,-164.7 139.5,-141.7 8.5,-141.7"/>
<text text-anchor="start" x="13.5" y="-150.3" font-family="Helvetica,sans-Serif" font-weight="bold" font-size="11.00" fill="#000000">zauth_roles</text>
<text text-anchor="start" x="104.5437" y="-149.8" font-family="Helvetica,sans-Serif" font-size="11.00" fill="#000000">[table]</text>
<polygon fill="none" stroke="#000000" points="8.5,-119.7 8.5,-141.7 139.5,-141.7 139.5,-119.7 8.5,-119.7"/>
<image xlink:href="../../images/primaryKeys.png" width="11px" height="12px" preserveAspectRatio="xMinYMin meet" x="13.5" y="-136.7"/>
<text text-anchor="start" x="28.5" y="-126.8" font-family="Helvetica,sans-Serif" font-size="11.00" fill="#000000">Id</text>
<polygon fill="#ffffff" stroke="transparent" points="8.5,-97.7 8.5,-119.7 139.5,-119.7 139.5,-97.7 8.5,-97.7"/>
<polygon fill="none" stroke="#000000" points="8.5,-97.7 8.5,-119.7 139.5,-119.7 139.5,-97.7 8.5,-97.7"/>
<text text-anchor="start" x="28.5" y="-104.8" font-family="Helvetica,sans-Serif" font-size="11.00" fill="#000000">NormalizedName</text>
<polygon fill="none" stroke="#000000" points="8.5,-78.7 8.5,-97.7 139.5,-97.7 139.5,-78.7 8.5,-78.7"/>
<text text-anchor="start" x="11.5" y="-84.8" font-family="Helvetica,sans-Serif" font-size="11.00" fill="#000000">...</text>
<polygon fill="#ffffff" stroke="transparent" points="8.5,-59.7 8.5,-78.7 47.5,-78.7 47.5,-59.7 8.5,-59.7"/>
<polygon fill="none" stroke="#000000" points="8.5,-59.7 8.5,-78.7 47.5,-78.7 47.5,-59.7 8.5,-59.7"/>
<text text-anchor="start" x="11.5" y="-65.8" font-family="Helvetica,sans-Serif" font-size="11.00" fill="#000000"> &#160;</text>
<polygon fill="#ffffff" stroke="transparent" points="47.5,-59.7 47.5,-78.7 104.5,-78.7 104.5,-59.7 47.5,-59.7"/>
<polygon fill="none" stroke="#000000" points="47.5,-59.7 47.5,-78.7 104.5,-78.7 104.5,-59.7 47.5,-59.7"/>
<text text-anchor="start" x="62.9956" y="-65.8" font-family="Helvetica,sans-Serif" font-size="11.00" fill="#000000">56 rows</text>
<polygon fill="#ffffff" stroke="transparent" points="104.5,-59.7 104.5,-78.7 139.5,-78.7 139.5,-59.7 104.5,-59.7"/>
<polygon fill="none" stroke="#000000" points="104.5,-59.7 104.5,-78.7 139.5,-78.7 139.5,-59.7 104.5,-59.7"/>
<text text-anchor="start" x="120.9053" y="-65.8" font-family="Helvetica,sans-Serif" font-size="11.00" fill="#000000">2 &gt;</text>
</a>
</g>
</g>
<!-- zauth_roleclaims&#45;&gt;zauth_roles -->
<g id="edge1" class="edge">
<title>zauth_roleclaims:w&#45;&gt;zauth_roles:e</title>
<path fill="none" stroke="#000000" d="M176.5846,-191.9534C159.402,-176.8202 170.4886,-130.7 139.5,-130.7"/>
<polygon fill="#000000" stroke="#000000" points="182.9284,-194.1173 189.3378,-200.1072 186.7142,-195.4086 190.5,-196.7 190.5,-196.7 190.5,-196.7 186.7142,-195.4086 191.6622,-193.2928 182.9284,-194.1173 182.9284,-194.1173"/>
<ellipse fill="none" stroke="#000000" cx="179.8997" cy="-193.0842" rx="3.2" ry="3.2"/>
</g>
<!-- zauth_userroles -->
<g id="node3" class="node">
<title>zauth_userroles</title>
<g id="a_node3"><a xlink:href="../../tables/zauth_userroles.html" xlink:title="zauth_userroles" target="_top">
<polygon fill="#ffffff" stroke="transparent" points="239,-38.2 239,-99.2 370,-99.2 370,-38.2 239,-38.2"/>
<polygon fill="#f5f5f5" stroke="transparent" points="239.5,-75.7 239.5,-98.7 370.5,-98.7 370.5,-75.7 239.5,-75.7"/>
<polygon fill="none" stroke="#000000" points="239.5,-75.7 239.5,-98.7 370.5,-98.7 370.5,-75.7 239.5,-75.7"/>
<text text-anchor="start" x="244.5" y="-84.3" font-family="Helvetica,sans-Serif" font-weight="bold" font-size="11.00" fill="#000000">zauth_userroles</text>
<text text-anchor="start" x="336.0219" y="-83.8" font-family="Helvetica,sans-Serif" font-size="11.00" fill="#000000">[table]</text>
<polygon fill="none" stroke="#000000" points="239.5,-56.7 239.5,-75.7 370.5,-75.7 370.5,-56.7 239.5,-56.7"/>
<text text-anchor="start" x="242.5" y="-62.8" font-family="Helvetica,sans-Serif" font-size="11.00" fill="#000000">...</text>
<polygon fill="#ffffff" stroke="transparent" points="239.5,-37.7 239.5,-56.7 284.5,-56.7 284.5,-37.7 239.5,-37.7"/>
<polygon fill="none" stroke="#000000" points="239.5,-37.7 239.5,-56.7 284.5,-56.7 284.5,-37.7 239.5,-37.7"/>
<text text-anchor="start" x="242.5" y="-43.8" font-family="Helvetica,sans-Serif" font-size="11.00" fill="#000000">&lt; 2</text>
<polygon fill="#ffffff" stroke="transparent" points="284.5,-37.7 284.5,-56.7 346.5,-56.7 346.5,-37.7 284.5,-37.7"/>
<polygon fill="none" stroke="#000000" points="284.5,-37.7 284.5,-56.7 346.5,-56.7 346.5,-37.7 284.5,-37.7"/>
<text text-anchor="start" x="298.8807" y="-43.8" font-family="Helvetica,sans-Serif" font-size="11.00" fill="#000000">131 rows</text>
<polygon fill="#ffffff" stroke="transparent" points="346.5,-37.7 346.5,-56.7 370.5,-56.7 370.5,-37.7 346.5,-37.7"/>
<polygon fill="none" stroke="#000000" points="346.5,-37.7 346.5,-56.7 370.5,-56.7 370.5,-37.7 346.5,-37.7"/>
<text text-anchor="start" x="361.3862" y="-43.8" font-family="Helvetica,sans-Serif" font-size="11.00" fill="#000000"> &#160;</text>
</a>
</g>
</g>
<!-- zauth_userroles&#45;&gt;zauth_roles -->
<g id="edge2" class="edge">
<title>zauth_userroles:w&#45;&gt;zauth_roles:e</title>
<path fill="none" stroke="#000000" d="M225.0519,-67.5752C187.105,-78.2327 187.1246,-130.7 139.5,-130.7"/>
<polygon fill="#000000" stroke="#000000" points="231.5665,-66.7297 239.9634,-69.2701 235.5333,-66.2149 239.5,-65.7 239.5,-65.7 239.5,-65.7 235.5333,-66.2149 239.0366,-62.1299 231.5665,-66.7297 231.5665,-66.7297"/>
<ellipse fill="none" stroke="#000000" cx="228.3932" cy="-67.1416" rx="3.2" ry="3.2"/>
</g>
</g>
</svg>
