<?xml version="1.0" encoding="UTF-8" standalone="no"?>
<!DOCTYPE svg PUBLIC "-//W3C//DTD SVG 1.1//EN"
 "http://www.w3.org/Graphics/SVG/1.1/DTD/svg11.dtd">
<!-- Generated by graphviz version 2.40.1 (20161225.0304)
 -->
<!-- Title: oneDegreeRelationshipsDiagram Pages: 1 -->
<svg width="437pt" height="184pt"
 viewBox="0.00 0.00 437.00 184.20" xmlns="http://www.w3.org/2000/svg" xmlns:xlink="http://www.w3.org/1999/xlink">
<g id="graph0" class="graph" transform="scale(1 1) rotate(0) translate(4 180.2)">
<title>oneDegreeRelationshipsDiagram</title>
<polygon fill="#ffffff" stroke="transparent" points="-4,4 -4,-180.2 433,-180.2 433,4 -4,4"/>
<text text-anchor="middle" x="72.4936" y="-7.3" font-family="Helvetica,sans-Serif" font-size="11.00" fill="#000000">Generated by SchemaSpy</text>
<!-- zauth_roleclaims -->
<g id="node1" class="node">
<title>zauth_roleclaims</title>
<g id="a_node1"><a xlink:href="../../tables/zauth_roleclaims.html" xlink:title="zauth_roleclaims" target="_top">
<polygon fill="#ffffff" stroke="transparent" points="188,-38.2 188,-172.2 421,-172.2 421,-38.2 188,-38.2"/>
<polygon fill="#f5f5f5" stroke="transparent" points="190.5,-147.2 190.5,-170.2 419.5,-170.2 419.5,-147.2 190.5,-147.2"/>
<polygon fill="none" stroke="#000000" points="190.5,-147.2 190.5,-170.2 419.5,-170.2 419.5,-147.2 190.5,-147.2"/>
<text text-anchor="start" x="195.5" y="-155.8" font-family="Helvetica,sans-Serif" font-weight="bold" font-size="11.00" fill="#000000">zauth_roleclaims</text>
<text text-anchor="start" x="384.5437" y="-155.3" font-family="Helvetica,sans-Serif" font-size="11.00" fill="#000000">[table]</text>
<polygon fill="none" stroke="#000000" points="190.5,-125.2 190.5,-147.2 308.5,-147.2 308.5,-125.2 190.5,-125.2"/>
<image xlink:href="../../images/primaryKeys.png" width="11px" height="12px" preserveAspectRatio="xMinYMin meet" x="195.5" y="-142.2"/>
<text text-anchor="start" x="210.5" y="-132.3" font-family="Helvetica,sans-Serif" font-size="11.00" fill="#000000">Id</text>
<polygon fill="none" stroke="#000000" points="308.5,-125.2 308.5,-147.2 419.5,-147.2 419.5,-125.2 308.5,-125.2"/>
<text text-anchor="start" x="311.5" y="-132.9" font-family="Helvetica,sans-Serif" font-size="11.00" fill="#000000">int[10]</text>
<polygon fill="#ffffff" stroke="transparent" points="190.5,-103.2 190.5,-125.2 308.5,-125.2 308.5,-103.2 190.5,-103.2"/>
<polygon fill="none" stroke="#000000" points="190.5,-103.2 190.5,-125.2 308.5,-125.2 308.5,-103.2 190.5,-103.2"/>
<image xlink:href="../../images/foreignKeys.png" width="11px" height="12px" preserveAspectRatio="xMinYMin meet" x="195.5" y="-120.2"/>
<text text-anchor="start" x="210.5" y="-110.3" font-family="Helvetica,sans-Serif" font-size="11.00" fill="#000000">RoleId</text>
<polygon fill="none" stroke="#000000" points="308.5,-103.2 308.5,-125.2 419.5,-125.2 419.5,-103.2 308.5,-103.2"/>
<text text-anchor="start" x="311.5" y="-110.9" font-family="Helvetica,sans-Serif" font-size="11.00" fill="#000000">int[10]</text>
<polygon fill="none" stroke="#000000" points="190.5,-81.2 190.5,-103.2 308.5,-103.2 308.5,-81.2 190.5,-81.2"/>
<text text-anchor="start" x="210.5" y="-88.3" font-family="Helvetica,sans-Serif" font-size="11.00" fill="#000000">ClaimType</text>
<polygon fill="none" stroke="#000000" points="308.5,-81.2 308.5,-103.2 419.5,-103.2 419.5,-81.2 308.5,-81.2"/>
<text text-anchor="start" x="311.1115" y="-88.9" font-family="Helvetica,sans-Serif" font-size="11.00" fill="#000000">longtext[2147483647]</text>
<polygon fill="none" stroke="#000000" points="190.5,-59.2 190.5,-81.2 308.5,-81.2 308.5,-59.2 190.5,-59.2"/>
<text text-anchor="start" x="210.5" y="-66.3" font-family="Helvetica,sans-Serif" font-size="11.00" fill="#000000">ClaimValue</text>
<polygon fill="none" stroke="#000000" points="308.5,-59.2 308.5,-81.2 419.5,-81.2 419.5,-59.2 308.5,-59.2"/>
<text text-anchor="start" x="311.1115" y="-66.9" font-family="Helvetica,sans-Serif" font-size="11.00" fill="#000000">longtext[2147483647]</text>
<polygon fill="#ffffff" stroke="transparent" points="190.5,-40.2 190.5,-59.2 240.5,-59.2 240.5,-40.2 190.5,-40.2"/>
<polygon fill="none" stroke="#000000" points="190.5,-40.2 190.5,-59.2 240.5,-59.2 240.5,-40.2 190.5,-40.2"/>
<text text-anchor="start" x="193.5" y="-46.3" font-family="Helvetica,sans-Serif" font-size="11.00" fill="#000000">&lt; 1</text>
<polygon fill="#ffffff" stroke="transparent" points="240.5,-40.2 240.5,-59.2 308.5,-59.2 308.5,-40.2 240.5,-40.2"/>
<polygon fill="none" stroke="#000000" points="240.5,-40.2 240.5,-59.2 308.5,-59.2 308.5,-40.2 240.5,-40.2"/>
<text text-anchor="start" x="273.1105" y="-46.3" font-family="Helvetica,sans-Serif" font-size="11.00" fill="#000000">0 rows</text>
<polygon fill="#ffffff" stroke="transparent" points="308.5,-40.2 308.5,-59.2 419.5,-59.2 419.5,-40.2 308.5,-40.2"/>
<polygon fill="none" stroke="#000000" points="308.5,-40.2 308.5,-59.2 419.5,-59.2 419.5,-40.2 308.5,-40.2"/>
<text text-anchor="start" x="400.9053" y="-46.3" font-family="Helvetica,sans-Serif" font-size="11.00" fill="#000000">0 &gt;</text>
<polygon fill="none" stroke="#000000" stroke-width="2" points="189,-39.2 189,-171.2 420,-171.2 420,-39.2 189,-39.2"/>
</a>
</g>
</g>
<!-- zauth_roles -->
<g id="node2" class="node">
<title>zauth_roles</title>
<g id="a_node2"><a xlink:href="../../tables/zauth_roles.html" xlink:title="zauth_roles" target="_top">
<polygon fill="#ffffff" stroke="transparent" points="8,-43.7 8,-148.7 139,-148.7 139,-43.7 8,-43.7"/>
<polygon fill="#f5f5f5" stroke="transparent" points="8.5,-125.2 8.5,-148.2 139.5,-148.2 139.5,-125.2 8.5,-125.2"/>
<polygon fill="none" stroke="#000000" points="8.5,-125.2 8.5,-148.2 139.5,-148.2 139.5,-125.2 8.5,-125.2"/>
<text text-anchor="start" x="13.5" y="-133.8" font-family="Helvetica,sans-Serif" font-weight="bold" font-size="11.00" fill="#000000">zauth_roles</text>
<text text-anchor="start" x="104.5437" y="-133.3" font-family="Helvetica,sans-Serif" font-size="11.00" fill="#000000">[table]</text>
<polygon fill="none" stroke="#000000" points="8.5,-103.2 8.5,-125.2 139.5,-125.2 139.5,-103.2 8.5,-103.2"/>
<image xlink:href="../../images/primaryKeys.png" width="11px" height="12px" preserveAspectRatio="xMinYMin meet" x="13.5" y="-120.2"/>
<text text-anchor="start" x="28.5" y="-110.3" font-family="Helvetica,sans-Serif" font-size="11.00" fill="#000000">Id</text>
<polygon fill="#ffffff" stroke="transparent" points="8.5,-81.2 8.5,-103.2 139.5,-103.2 139.5,-81.2 8.5,-81.2"/>
<polygon fill="none" stroke="#000000" points="8.5,-81.2 8.5,-103.2 139.5,-103.2 139.5,-81.2 8.5,-81.2"/>
<text text-anchor="start" x="28.5" y="-88.3" font-family="Helvetica,sans-Serif" font-size="11.00" fill="#000000">NormalizedName</text>
<polygon fill="none" stroke="#000000" points="8.5,-62.2 8.5,-81.2 139.5,-81.2 139.5,-62.2 8.5,-62.2"/>
<text text-anchor="start" x="11.5" y="-68.3" font-family="Helvetica,sans-Serif" font-size="11.00" fill="#000000">...</text>
<polygon fill="#ffffff" stroke="transparent" points="8.5,-43.2 8.5,-62.2 47.5,-62.2 47.5,-43.2 8.5,-43.2"/>
<polygon fill="none" stroke="#000000" points="8.5,-43.2 8.5,-62.2 47.5,-62.2 47.5,-43.2 8.5,-43.2"/>
<text text-anchor="start" x="11.5" y="-49.3" font-family="Helvetica,sans-Serif" font-size="11.00" fill="#000000"> &#160;</text>
<polygon fill="#ffffff" stroke="transparent" points="47.5,-43.2 47.5,-62.2 104.5,-62.2 104.5,-43.2 47.5,-43.2"/>
<polygon fill="none" stroke="#000000" points="47.5,-43.2 47.5,-62.2 104.5,-62.2 104.5,-43.2 47.5,-43.2"/>
<text text-anchor="start" x="62.9956" y="-49.3" font-family="Helvetica,sans-Serif" font-size="11.00" fill="#000000">56 rows</text>
<polygon fill="#ffffff" stroke="transparent" points="104.5,-43.2 104.5,-62.2 139.5,-62.2 139.5,-43.2 104.5,-43.2"/>
<polygon fill="none" stroke="#000000" points="104.5,-43.2 104.5,-62.2 139.5,-62.2 139.5,-43.2 104.5,-43.2"/>
<text text-anchor="start" x="120.9053" y="-49.3" font-family="Helvetica,sans-Serif" font-size="11.00" fill="#000000">2 &gt;</text>
</a>
</g>
</g>
<!-- zauth_roleclaims&#45;&gt;zauth_roles -->
<g id="edge1" class="edge">
<title>zauth_roleclaims:w&#45;&gt;zauth_roles:e</title>
<path fill="none" stroke="#000000" d="M175.776,-114.2C163.7815,-114.2 156.3229,-114.2 139.5,-114.2"/>
<polygon fill="#000000" stroke="#000000" points="182.5,-114.2001 190.5,-117.8 186.5,-114.2 190.5,-114.2 190.5,-114.2 190.5,-114.2 186.5,-114.2 190.5,-110.6 182.5,-114.2001 182.5,-114.2001"/>
<ellipse fill="none" stroke="#000000" cx="179.3" cy="-114.2001" rx="3.2" ry="3.2"/>
</g>
</g>
</svg>
