<?xml version="1.0" encoding="UTF-8" standalone="no"?>
<!DOCTYPE svg PUBLIC "-//W3C//DTD SVG 1.1//EN"
 "http://www.w3.org/Graphics/SVG/1.1/DTD/svg11.dtd">
<!-- Generated by graphviz version 2.40.1 (20161225.0304)
 -->
<!-- Title: oneDegreeRelationshipsDiagram Pages: 1 -->
<svg width="499pt" height="955pt"
 viewBox="0.00 0.00 499.00 954.70" xmlns="http://www.w3.org/2000/svg" xmlns:xlink="http://www.w3.org/1999/xlink">
<g id="graph0" class="graph" transform="scale(1 1) rotate(0) translate(4 950.7)">
<title>oneDegreeRelationshipsDiagram</title>
<polygon fill="#ffffff" stroke="transparent" points="-4,4 -4,-950.7 495,-950.7 495,4 -4,4"/>
<text text-anchor="middle" x="72.4936" y="-7.3" font-family="Helvetica,sans-Serif" font-size="11.00" fill="#000000">Generated by SchemaSpy</text>
<!-- zauth_userclaims -->
<g id="node1" class="node">
<title>zauth_userclaims</title>
<g id="a_node1"><a xlink:href="../../tables/zauth_userclaims.html" xlink:title="zauth_userclaims" target="_top">
<polygon fill="#ffffff" stroke="transparent" points="341,-837.7 341,-942.7 480,-942.7 480,-837.7 341,-837.7"/>
<polygon fill="#f5f5f5" stroke="transparent" points="341.5,-919.2 341.5,-942.2 480.5,-942.2 480.5,-919.2 341.5,-919.2"/>
<polygon fill="none" stroke="#000000" points="341.5,-919.2 341.5,-942.2 480.5,-942.2 480.5,-919.2 341.5,-919.2"/>
<text text-anchor="start" x="346.5" y="-927.8" font-family="Helvetica,sans-Serif" font-weight="bold" font-size="11.00" fill="#000000">zauth_userclaims</text>
<text text-anchor="start" x="446.0219" y="-927.3" font-family="Helvetica,sans-Serif" font-size="11.00" fill="#000000">[table]</text>
<polygon fill="none" stroke="#000000" points="341.5,-897.2 341.5,-919.2 480.5,-919.2 480.5,-897.2 341.5,-897.2"/>
<image xlink:href="../../images/primaryKeys.png" width="11px" height="12px" preserveAspectRatio="xMinYMin meet" x="346.5" y="-914.2"/>
<text text-anchor="start" x="370.5" y="-904.3" font-family="Helvetica,sans-Serif" font-size="11.00" fill="#000000">Id</text>
<polygon fill="#ffffff" stroke="transparent" points="341.5,-875.2 341.5,-897.2 480.5,-897.2 480.5,-875.2 341.5,-875.2"/>
<polygon fill="none" stroke="#000000" points="341.5,-875.2 341.5,-897.2 480.5,-897.2 480.5,-875.2 341.5,-875.2"/>
<image xlink:href="../../images/foreignKeys.png" width="11px" height="12px" preserveAspectRatio="xMinYMin meet" x="346.5" y="-892.2"/>
<text text-anchor="start" x="370.5" y="-882.3" font-family="Helvetica,sans-Serif" font-size="11.00" fill="#000000">UserId</text>
<polygon fill="none" stroke="#000000" points="341.5,-856.2 341.5,-875.2 480.5,-875.2 480.5,-856.2 341.5,-856.2"/>
<text text-anchor="start" x="344.5" y="-862.3" font-family="Helvetica,sans-Serif" font-size="11.00" fill="#000000">...</text>
<polygon fill="#ffffff" stroke="transparent" points="341.5,-837.2 341.5,-856.2 396.5,-856.2 396.5,-837.2 341.5,-837.2"/>
<polygon fill="none" stroke="#000000" points="341.5,-837.2 341.5,-856.2 396.5,-856.2 396.5,-837.2 341.5,-837.2"/>
<text text-anchor="start" x="344.5" y="-843.3" font-family="Helvetica,sans-Serif" font-size="11.00" fill="#000000">&lt; 1</text>
<polygon fill="#ffffff" stroke="transparent" points="396.5,-837.2 396.5,-856.2 451.5,-856.2 451.5,-837.2 396.5,-837.2"/>
<polygon fill="none" stroke="#000000" points="396.5,-837.2 396.5,-856.2 451.5,-856.2 451.5,-837.2 396.5,-837.2"/>
<text text-anchor="start" x="416.1105" y="-843.3" font-family="Helvetica,sans-Serif" font-size="11.00" fill="#000000">0 rows</text>
<polygon fill="#ffffff" stroke="transparent" points="451.5,-837.2 451.5,-856.2 480.5,-856.2 480.5,-837.2 451.5,-837.2"/>
<polygon fill="none" stroke="#000000" points="451.5,-837.2 451.5,-856.2 480.5,-856.2 480.5,-837.2 451.5,-837.2"/>
<text text-anchor="start" x="471.3862" y="-843.3" font-family="Helvetica,sans-Serif" font-size="11.00" fill="#000000"> &#160;</text>
</a>
</g>
</g>
<!-- zauth_users -->
<g id="node2" class="node">
<title>zauth_users</title>
<g id="a_node2"><a xlink:href="../../tables/zauth_users.html" xlink:title="zauth_users" target="_top">
<polygon fill="#ffffff" stroke="transparent" points="8,-38.2 8,-722.2 289,-722.2 289,-38.2 8,-38.2"/>
<polygon fill="#f5f5f5" stroke="transparent" points="10.5,-697.2 10.5,-720.2 287.5,-720.2 287.5,-697.2 10.5,-697.2"/>
<polygon fill="none" stroke="#000000" points="10.5,-697.2 10.5,-720.2 287.5,-720.2 287.5,-697.2 10.5,-697.2"/>
<text text-anchor="start" x="15.5" y="-705.8" font-family="Helvetica,sans-Serif" font-weight="bold" font-size="11.00" fill="#000000">zauth_users</text>
<text text-anchor="start" x="252.5437" y="-705.3" font-family="Helvetica,sans-Serif" font-size="11.00" fill="#000000">[table]</text>
<polygon fill="none" stroke="#000000" points="10.5,-675.2 10.5,-697.2 173.5,-697.2 173.5,-675.2 10.5,-675.2"/>
<image xlink:href="../../images/primaryKeys.png" width="11px" height="12px" preserveAspectRatio="xMinYMin meet" x="15.5" y="-692.2"/>
<text text-anchor="start" x="30.5" y="-682.3" font-family="Helvetica,sans-Serif" font-size="11.00" fill="#000000">Id</text>
<polygon fill="none" stroke="#000000" points="173.5,-675.2 173.5,-697.2 287.5,-697.2 287.5,-675.2 173.5,-675.2"/>
<text text-anchor="start" x="176.5" y="-682.9" font-family="Helvetica,sans-Serif" font-size="11.00" fill="#000000">int[10]</text>
<polygon fill="none" stroke="#000000" points="10.5,-653.2 10.5,-675.2 173.5,-675.2 173.5,-653.2 10.5,-653.2"/>
<text text-anchor="start" x="30.5" y="-660.3" font-family="Helvetica,sans-Serif" font-size="11.00" fill="#000000">UserName</text>
<polygon fill="none" stroke="#000000" points="173.5,-653.2 173.5,-675.2 287.5,-675.2 287.5,-653.2 173.5,-653.2"/>
<text text-anchor="start" x="176.5" y="-660.9" font-family="Helvetica,sans-Serif" font-size="11.00" fill="#000000">varchar[128]</text>
<polygon fill="#ffffff" stroke="transparent" points="10.5,-631.2 10.5,-653.2 173.5,-653.2 173.5,-631.2 10.5,-631.2"/>
<polygon fill="none" stroke="#000000" points="10.5,-631.2 10.5,-653.2 173.5,-653.2 173.5,-631.2 10.5,-631.2"/>
<text text-anchor="start" x="30.5" y="-638.3" font-family="Helvetica,sans-Serif" font-size="11.00" fill="#000000">NormalizedUserName</text>
<polygon fill="none" stroke="#000000" points="173.5,-631.2 173.5,-653.2 287.5,-653.2 287.5,-631.2 173.5,-631.2"/>
<text text-anchor="start" x="176.5" y="-638.9" font-family="Helvetica,sans-Serif" font-size="11.00" fill="#000000">varchar[128]</text>
<polygon fill="none" stroke="#000000" points="10.5,-609.2 10.5,-631.2 173.5,-631.2 173.5,-609.2 10.5,-609.2"/>
<text text-anchor="start" x="30.5" y="-616.3" font-family="Helvetica,sans-Serif" font-size="11.00" fill="#000000">Email</text>
<polygon fill="none" stroke="#000000" points="173.5,-609.2 173.5,-631.2 287.5,-631.2 287.5,-609.2 173.5,-609.2"/>
<text text-anchor="start" x="176.5" y="-616.9" font-family="Helvetica,sans-Serif" font-size="11.00" fill="#000000">varchar[256]</text>
<polygon fill="#ffffff" stroke="transparent" points="10.5,-587.2 10.5,-609.2 173.5,-609.2 173.5,-587.2 10.5,-587.2"/>
<polygon fill="none" stroke="#000000" points="10.5,-587.2 10.5,-609.2 173.5,-609.2 173.5,-587.2 10.5,-587.2"/>
<text text-anchor="start" x="30.5" y="-594.3" font-family="Helvetica,sans-Serif" font-size="11.00" fill="#000000">NormalizedEmail</text>
<polygon fill="none" stroke="#000000" points="173.5,-587.2 173.5,-609.2 287.5,-609.2 287.5,-587.2 173.5,-587.2"/>
<text text-anchor="start" x="176.5" y="-594.9" font-family="Helvetica,sans-Serif" font-size="11.00" fill="#000000">varchar[256]</text>
<polygon fill="none" stroke="#000000" points="10.5,-565.2 10.5,-587.2 173.5,-587.2 173.5,-565.2 10.5,-565.2"/>
<text text-anchor="start" x="30.5" y="-572.3" font-family="Helvetica,sans-Serif" font-size="11.00" fill="#000000">EmailConfirmed</text>
<polygon fill="none" stroke="#000000" points="173.5,-565.2 173.5,-587.2 287.5,-587.2 287.5,-565.2 173.5,-565.2"/>
<text text-anchor="start" x="176.5" y="-572.9" font-family="Helvetica,sans-Serif" font-size="11.00" fill="#000000">bit[1]</text>
<polygon fill="none" stroke="#000000" points="10.5,-543.2 10.5,-565.2 173.5,-565.2 173.5,-543.2 10.5,-543.2"/>
<text text-anchor="start" x="30.5" y="-550.3" font-family="Helvetica,sans-Serif" font-size="11.00" fill="#000000">PasswordHash</text>
<polygon fill="none" stroke="#000000" points="173.5,-543.2 173.5,-565.2 287.5,-565.2 287.5,-543.2 173.5,-543.2"/>
<text text-anchor="start" x="176.5" y="-550.9" font-family="Helvetica,sans-Serif" font-size="11.00" fill="#000000">longtext[2147483647]</text>
<polygon fill="none" stroke="#000000" points="10.5,-521.2 10.5,-543.2 173.5,-543.2 173.5,-521.2 10.5,-521.2"/>
<text text-anchor="start" x="30.5" y="-528.3" font-family="Helvetica,sans-Serif" font-size="11.00" fill="#000000">SecurityStamp</text>
<polygon fill="none" stroke="#000000" points="173.5,-521.2 173.5,-543.2 287.5,-543.2 287.5,-521.2 173.5,-521.2"/>
<text text-anchor="start" x="176.5" y="-528.9" font-family="Helvetica,sans-Serif" font-size="11.00" fill="#000000">longtext[2147483647]</text>
<polygon fill="none" stroke="#000000" points="10.5,-499.2 10.5,-521.2 173.5,-521.2 173.5,-499.2 10.5,-499.2"/>
<text text-anchor="start" x="30.5" y="-506.3" font-family="Helvetica,sans-Serif" font-size="11.00" fill="#000000">ConcurrencyStamp</text>
<polygon fill="none" stroke="#000000" points="173.5,-499.2 173.5,-521.2 287.5,-521.2 287.5,-499.2 173.5,-499.2"/>
<text text-anchor="start" x="176.5" y="-506.9" font-family="Helvetica,sans-Serif" font-size="11.00" fill="#000000">longtext[2147483647]</text>
<polygon fill="none" stroke="#000000" points="10.5,-477.2 10.5,-499.2 173.5,-499.2 173.5,-477.2 10.5,-477.2"/>
<text text-anchor="start" x="30.5" y="-484.3" font-family="Helvetica,sans-Serif" font-size="11.00" fill="#000000">PhoneNumber</text>
<polygon fill="none" stroke="#000000" points="173.5,-477.2 173.5,-499.2 287.5,-499.2 287.5,-477.2 173.5,-477.2"/>
<text text-anchor="start" x="176.5" y="-484.9" font-family="Helvetica,sans-Serif" font-size="11.00" fill="#000000">longtext[2147483647]</text>
<polygon fill="none" stroke="#000000" points="10.5,-455.2 10.5,-477.2 173.5,-477.2 173.5,-455.2 10.5,-455.2"/>
<text text-anchor="start" x="30.5" y="-462.3" font-family="Helvetica,sans-Serif" font-size="11.00" fill="#000000">PhoneNumberConfirmed</text>
<polygon fill="none" stroke="#000000" points="173.5,-455.2 173.5,-477.2 287.5,-477.2 287.5,-455.2 173.5,-455.2"/>
<text text-anchor="start" x="176.5" y="-462.9" font-family="Helvetica,sans-Serif" font-size="11.00" fill="#000000">bit[1]</text>
<polygon fill="none" stroke="#000000" points="10.5,-433.2 10.5,-455.2 173.5,-455.2 173.5,-433.2 10.5,-433.2"/>
<text text-anchor="start" x="30.5" y="-440.3" font-family="Helvetica,sans-Serif" font-size="11.00" fill="#000000">TwoFactorEnabled</text>
<polygon fill="none" stroke="#000000" points="173.5,-433.2 173.5,-455.2 287.5,-455.2 287.5,-433.2 173.5,-433.2"/>
<text text-anchor="start" x="176.5" y="-440.9" font-family="Helvetica,sans-Serif" font-size="11.00" fill="#000000">bit[1]</text>
<polygon fill="none" stroke="#000000" points="10.5,-411.2 10.5,-433.2 173.5,-433.2 173.5,-411.2 10.5,-411.2"/>
<text text-anchor="start" x="30.5" y="-418.3" font-family="Helvetica,sans-Serif" font-size="11.00" fill="#000000">LockoutEnd</text>
<polygon fill="none" stroke="#000000" points="173.5,-411.2 173.5,-433.2 287.5,-433.2 287.5,-411.2 173.5,-411.2"/>
<text text-anchor="start" x="176.5" y="-418.9" font-family="Helvetica,sans-Serif" font-size="11.00" fill="#000000">datetime[26]</text>
<polygon fill="none" stroke="#000000" points="10.5,-389.2 10.5,-411.2 173.5,-411.2 173.5,-389.2 10.5,-389.2"/>
<text text-anchor="start" x="30.5" y="-396.3" font-family="Helvetica,sans-Serif" font-size="11.00" fill="#000000">LockoutEnabled</text>
<polygon fill="none" stroke="#000000" points="173.5,-389.2 173.5,-411.2 287.5,-411.2 287.5,-389.2 173.5,-389.2"/>
<text text-anchor="start" x="176.5" y="-396.9" font-family="Helvetica,sans-Serif" font-size="11.00" fill="#000000">bit[1]</text>
<polygon fill="none" stroke="#000000" points="10.5,-367.2 10.5,-389.2 173.5,-389.2 173.5,-367.2 10.5,-367.2"/>
<text text-anchor="start" x="30.5" y="-374.3" font-family="Helvetica,sans-Serif" font-size="11.00" fill="#000000">AccessFailedCount</text>
<polygon fill="none" stroke="#000000" points="173.5,-367.2 173.5,-389.2 287.5,-389.2 287.5,-367.2 173.5,-367.2"/>
<text text-anchor="start" x="176.5" y="-374.9" font-family="Helvetica,sans-Serif" font-size="11.00" fill="#000000">int[10]</text>
<polygon fill="none" stroke="#000000" points="10.5,-345.2 10.5,-367.2 173.5,-367.2 173.5,-345.2 10.5,-345.2"/>
<text text-anchor="start" x="30.5" y="-352.3" font-family="Helvetica,sans-Serif" font-size="11.00" fill="#000000">MasterReferenceFK</text>
<polygon fill="none" stroke="#000000" points="173.5,-345.2 173.5,-367.2 287.5,-367.2 287.5,-345.2 173.5,-345.2"/>
<text text-anchor="start" x="176.5" y="-352.9" font-family="Helvetica,sans-Serif" font-size="11.00" fill="#000000">int[10]</text>
<polygon fill="none" stroke="#000000" points="10.5,-323.2 10.5,-345.2 173.5,-345.2 173.5,-323.2 10.5,-323.2"/>
<text text-anchor="start" x="30.5" y="-330.3" font-family="Helvetica,sans-Serif" font-size="11.00" fill="#000000">UserDealerFK</text>
<polygon fill="none" stroke="#000000" points="173.5,-323.2 173.5,-345.2 287.5,-345.2 287.5,-323.2 173.5,-323.2"/>
<text text-anchor="start" x="176.5" y="-330.9" font-family="Helvetica,sans-Serif" font-size="11.00" fill="#000000">int[10]</text>
<polygon fill="none" stroke="#000000" points="10.5,-301.2 10.5,-323.2 173.5,-323.2 173.5,-301.2 10.5,-301.2"/>
<text text-anchor="start" x="30.5" y="-308.3" font-family="Helvetica,sans-Serif" font-size="11.00" fill="#000000">UserTypeFK</text>
<polygon fill="none" stroke="#000000" points="173.5,-301.2 173.5,-323.2 287.5,-323.2 287.5,-301.2 173.5,-301.2"/>
<text text-anchor="start" x="176.5" y="-308.9" font-family="Helvetica,sans-Serif" font-size="11.00" fill="#000000">int[10]</text>
<polygon fill="none" stroke="#000000" points="10.5,-279.2 10.5,-301.2 173.5,-301.2 173.5,-279.2 10.5,-279.2"/>
<text text-anchor="start" x="30.5" y="-286.3" font-family="Helvetica,sans-Serif" font-size="11.00" fill="#000000">UserLayerID</text>
<polygon fill="none" stroke="#000000" points="173.5,-279.2 173.5,-301.2 287.5,-301.2 287.5,-279.2 173.5,-279.2"/>
<text text-anchor="start" x="176.5" y="-286.9" font-family="Helvetica,sans-Serif" font-size="11.00" fill="#000000">int[10]</text>
<polygon fill="none" stroke="#000000" points="10.5,-257.2 10.5,-279.2 173.5,-279.2 173.5,-257.2 10.5,-257.2"/>
<text text-anchor="start" x="30.5" y="-264.3" font-family="Helvetica,sans-Serif" font-size="11.00" fill="#000000">EmployeeFK</text>
<polygon fill="none" stroke="#000000" points="173.5,-257.2 173.5,-279.2 287.5,-279.2 287.5,-257.2 173.5,-257.2"/>
<text text-anchor="start" x="176.5" y="-264.9" font-family="Helvetica,sans-Serif" font-size="11.00" fill="#000000">int[10]</text>
<polygon fill="none" stroke="#000000" points="10.5,-235.2 10.5,-257.2 173.5,-257.2 173.5,-235.2 10.5,-235.2"/>
<text text-anchor="start" x="30.5" y="-242.3" font-family="Helvetica,sans-Serif" font-size="11.00" fill="#000000">UserPackageFK</text>
<polygon fill="none" stroke="#000000" points="173.5,-235.2 173.5,-257.2 287.5,-257.2 287.5,-235.2 173.5,-235.2"/>
<text text-anchor="start" x="176.5" y="-242.9" font-family="Helvetica,sans-Serif" font-size="11.00" fill="#000000">int[10]</text>
<polygon fill="none" stroke="#000000" points="10.5,-213.2 10.5,-235.2 173.5,-235.2 173.5,-213.2 10.5,-213.2"/>
<text text-anchor="start" x="30.5" y="-220.3" font-family="Helvetica,sans-Serif" font-size="11.00" fill="#000000">UserVentureFK</text>
<polygon fill="none" stroke="#000000" points="173.5,-213.2 173.5,-235.2 287.5,-235.2 287.5,-213.2 173.5,-213.2"/>
<text text-anchor="start" x="176.5" y="-220.9" font-family="Helvetica,sans-Serif" font-size="11.00" fill="#000000">int[10]</text>
<polygon fill="none" stroke="#000000" points="10.5,-191.2 10.5,-213.2 173.5,-213.2 173.5,-191.2 10.5,-191.2"/>
<text text-anchor="start" x="30.5" y="-198.3" font-family="Helvetica,sans-Serif" font-size="11.00" fill="#000000">AuthorizedID</text>
<polygon fill="none" stroke="#000000" points="173.5,-191.2 173.5,-213.2 287.5,-213.2 287.5,-191.2 173.5,-191.2"/>
<text text-anchor="start" x="176.5" y="-198.9" font-family="Helvetica,sans-Serif" font-size="11.00" fill="#000000">int[10]</text>
<polygon fill="none" stroke="#000000" points="10.5,-169.2 10.5,-191.2 173.5,-191.2 173.5,-169.2 10.5,-169.2"/>
<text text-anchor="start" x="30.5" y="-176.3" font-family="Helvetica,sans-Serif" font-size="11.00" fill="#000000">DisplayName</text>
<polygon fill="none" stroke="#000000" points="173.5,-169.2 173.5,-191.2 287.5,-191.2 287.5,-169.2 173.5,-169.2"/>
<text text-anchor="start" x="176.5" y="-176.9" font-family="Helvetica,sans-Serif" font-size="11.00" fill="#000000">longtext[2147483647]</text>
<polygon fill="none" stroke="#000000" points="10.5,-147.2 10.5,-169.2 173.5,-169.2 173.5,-147.2 10.5,-147.2"/>
<text text-anchor="start" x="30.5" y="-154.3" font-family="Helvetica,sans-Serif" font-size="11.00" fill="#000000">Locked</text>
<polygon fill="none" stroke="#000000" points="173.5,-147.2 173.5,-169.2 287.5,-169.2 287.5,-147.2 173.5,-147.2"/>
<text text-anchor="start" x="176.5" y="-154.9" font-family="Helvetica,sans-Serif" font-size="11.00" fill="#000000">bit[1]</text>
<polygon fill="none" stroke="#000000" points="10.5,-125.2 10.5,-147.2 173.5,-147.2 173.5,-125.2 10.5,-125.2"/>
<text text-anchor="start" x="30.5" y="-132.3" font-family="Helvetica,sans-Serif" font-size="11.00" fill="#000000">Photo</text>
<polygon fill="none" stroke="#000000" points="173.5,-125.2 173.5,-147.2 287.5,-147.2 287.5,-125.2 173.5,-125.2"/>
<text text-anchor="start" x="176.083" y="-132.9" font-family="Helvetica,sans-Serif" font-size="11.00" fill="#000000">longblob[2147483647]</text>
<polygon fill="none" stroke="#000000" points="10.5,-103.2 10.5,-125.2 173.5,-125.2 173.5,-103.2 10.5,-103.2"/>
<text text-anchor="start" x="30.5" y="-110.3" font-family="Helvetica,sans-Serif" font-size="11.00" fill="#000000">IsShop</text>
<polygon fill="none" stroke="#000000" points="173.5,-103.2 173.5,-125.2 287.5,-125.2 287.5,-103.2 173.5,-103.2"/>
<text text-anchor="start" x="176.5" y="-110.9" font-family="Helvetica,sans-Serif" font-size="11.00" fill="#000000">bit[1]</text>
<polygon fill="none" stroke="#000000" points="10.5,-81.2 10.5,-103.2 173.5,-103.2 173.5,-81.2 10.5,-81.2"/>
<text text-anchor="start" x="30.5" y="-88.3" font-family="Helvetica,sans-Serif" font-size="11.00" fill="#000000">RefreshTokenExpires</text>
<polygon fill="none" stroke="#000000" points="173.5,-81.2 173.5,-103.2 287.5,-103.2 287.5,-81.2 173.5,-81.2"/>
<text text-anchor="start" x="176.5" y="-88.9" font-family="Helvetica,sans-Serif" font-size="11.00" fill="#000000">datetime[26]</text>
<polygon fill="none" stroke="#000000" points="10.5,-59.2 10.5,-81.2 173.5,-81.2 173.5,-59.2 10.5,-59.2"/>
<text text-anchor="start" x="30.5" y="-66.3" font-family="Helvetica,sans-Serif" font-size="11.00" fill="#000000">RefreshToten</text>
<polygon fill="none" stroke="#000000" points="173.5,-59.2 173.5,-81.2 287.5,-81.2 287.5,-59.2 173.5,-59.2"/>
<text text-anchor="start" x="176.5" y="-66.9" font-family="Helvetica,sans-Serif" font-size="11.00" fill="#000000">longtext[2147483647]</text>
<polygon fill="#ffffff" stroke="transparent" points="10.5,-40.2 10.5,-59.2 80.5,-59.2 80.5,-40.2 10.5,-40.2"/>
<polygon fill="none" stroke="#000000" points="10.5,-40.2 10.5,-59.2 80.5,-59.2 80.5,-40.2 10.5,-40.2"/>
<text text-anchor="start" x="13.5" y="-46.3" font-family="Helvetica,sans-Serif" font-size="11.00" fill="#000000">&lt; 0</text>
<polygon fill="#ffffff" stroke="transparent" points="80.5,-40.2 80.5,-59.2 173.5,-59.2 173.5,-40.2 80.5,-40.2"/>
<polygon fill="none" stroke="#000000" points="80.5,-40.2 80.5,-59.2 173.5,-59.2 173.5,-40.2 80.5,-40.2"/>
<text text-anchor="start" x="131.9956" y="-46.3" font-family="Helvetica,sans-Serif" font-size="11.00" fill="#000000">98 rows</text>
<polygon fill="#ffffff" stroke="transparent" points="173.5,-40.2 173.5,-59.2 287.5,-59.2 287.5,-40.2 173.5,-40.2"/>
<polygon fill="none" stroke="#000000" points="173.5,-40.2 173.5,-59.2 287.5,-59.2 287.5,-40.2 173.5,-40.2"/>
<text text-anchor="start" x="268.9053" y="-46.3" font-family="Helvetica,sans-Serif" font-size="11.00" fill="#000000">4 &gt;</text>
<polygon fill="none" stroke="#000000" stroke-width="2" points="9,-39.2 9,-721.2 288,-721.2 288,-39.2 9,-39.2"/>
</a>
</g>
</g>
<!-- zauth_userclaims&#45;&gt;zauth_users -->
<g id="edge1" class="edge">
<title>zauth_userclaims:w&#45;&gt;zauth_users:e</title>
<path fill="none" stroke="#000000" d="M327.1212,-884.0892C264.3731,-862.7144 373.9972,-686.2 287.5,-686.2"/>
<polygon fill="#000000" stroke="#000000" points="333.5848,-885.038 340.9771,-889.7618 337.5424,-885.619 341.5,-886.2 341.5,-886.2 341.5,-886.2 337.5424,-885.619 342.0229,-882.6382 333.5848,-885.038 333.5848,-885.038"/>
<ellipse fill="none" stroke="#000000" cx="330.4188" cy="-884.5732" rx="3.2" ry="3.2"/>
</g>
<!-- zauth_userlogins -->
<g id="node3" class="node">
<title>zauth_userlogins</title>
<g id="a_node3"><a xlink:href="../../tables/zauth_userlogins.html" xlink:title="zauth_userlogins" target="_top">
<polygon fill="#ffffff" stroke="transparent" points="338,-689.7 338,-816.7 483,-816.7 483,-689.7 338,-689.7"/>
<polygon fill="#f5f5f5" stroke="transparent" points="338.5,-793.2 338.5,-816.2 483.5,-816.2 483.5,-793.2 338.5,-793.2"/>
<polygon fill="none" stroke="#000000" points="338.5,-793.2 338.5,-816.2 483.5,-816.2 483.5,-793.2 338.5,-793.2"/>
<text text-anchor="start" x="343.5" y="-801.8" font-family="Helvetica,sans-Serif" font-weight="bold" font-size="11.00" fill="#000000">zauth_userlogins</text>
<text text-anchor="start" x="448.5437" y="-801.3" font-family="Helvetica,sans-Serif" font-size="11.00" fill="#000000">[table]</text>
<polygon fill="none" stroke="#000000" points="338.5,-771.2 338.5,-793.2 483.5,-793.2 483.5,-771.2 338.5,-771.2"/>
<image xlink:href="../../images/primaryKeys.png" width="11px" height="12px" preserveAspectRatio="xMinYMin meet" x="343.5" y="-788.2"/>
<text text-anchor="start" x="358.5" y="-778.3" font-family="Helvetica,sans-Serif" font-size="11.00" fill="#000000">LoginProvider</text>
<polygon fill="none" stroke="#000000" points="338.5,-749.2 338.5,-771.2 483.5,-771.2 483.5,-749.2 338.5,-749.2"/>
<image xlink:href="../../images/primaryKeys.png" width="11px" height="12px" preserveAspectRatio="xMinYMin meet" x="343.5" y="-766.2"/>
<text text-anchor="start" x="358.5" y="-756.3" font-family="Helvetica,sans-Serif" font-size="11.00" fill="#000000">ProviderKey</text>
<polygon fill="#ffffff" stroke="transparent" points="338.5,-727.2 338.5,-749.2 483.5,-749.2 483.5,-727.2 338.5,-727.2"/>
<polygon fill="none" stroke="#000000" points="338.5,-727.2 338.5,-749.2 483.5,-749.2 483.5,-727.2 338.5,-727.2"/>
<image xlink:href="../../images/foreignKeys.png" width="11px" height="12px" preserveAspectRatio="xMinYMin meet" x="343.5" y="-744.2"/>
<text text-anchor="start" x="358.5" y="-734.3" font-family="Helvetica,sans-Serif" font-size="11.00" fill="#000000">UserId</text>
<polygon fill="none" stroke="#000000" points="338.5,-708.2 338.5,-727.2 483.5,-727.2 483.5,-708.2 338.5,-708.2"/>
<text text-anchor="start" x="341.5" y="-714.3" font-family="Helvetica,sans-Serif" font-size="11.00" fill="#000000">...</text>
<polygon fill="#ffffff" stroke="transparent" points="338.5,-689.2 338.5,-708.2 396.5,-708.2 396.5,-689.2 338.5,-689.2"/>
<polygon fill="none" stroke="#000000" points="338.5,-689.2 338.5,-708.2 396.5,-708.2 396.5,-689.2 338.5,-689.2"/>
<text text-anchor="start" x="341.5" y="-695.3" font-family="Helvetica,sans-Serif" font-size="11.00" fill="#000000">&lt; 1</text>
<polygon fill="#ffffff" stroke="transparent" points="396.5,-689.2 396.5,-708.2 452.5,-708.2 452.5,-689.2 396.5,-689.2"/>
<polygon fill="none" stroke="#000000" points="396.5,-689.2 396.5,-708.2 452.5,-708.2 452.5,-689.2 396.5,-689.2"/>
<text text-anchor="start" x="417.1105" y="-695.3" font-family="Helvetica,sans-Serif" font-size="11.00" fill="#000000">0 rows</text>
<polygon fill="#ffffff" stroke="transparent" points="452.5,-689.2 452.5,-708.2 483.5,-708.2 483.5,-689.2 452.5,-689.2"/>
<polygon fill="none" stroke="#000000" points="452.5,-689.2 452.5,-708.2 483.5,-708.2 483.5,-689.2 452.5,-689.2"/>
<text text-anchor="start" x="474.3862" y="-695.3" font-family="Helvetica,sans-Serif" font-size="11.00" fill="#000000"> &#160;</text>
</a>
</g>
</g>
<!-- zauth_userlogins&#45;&gt;zauth_users -->
<g id="edge2" class="edge">
<title>zauth_userlogins:w&#45;&gt;zauth_users:e</title>
<path fill="none" stroke="#000000" d="M324.5468,-733.4012C309.661,-720.5281 313.8017,-686.2 287.5,-686.2"/>
<polygon fill="#000000" stroke="#000000" points="330.9349,-735.5982 337.3292,-741.6043 334.7175,-736.8991 338.5,-738.2 338.5,-738.2 338.5,-738.2 334.7175,-736.8991 339.6708,-734.7957 330.9349,-735.5982 330.9349,-735.5982"/>
<ellipse fill="none" stroke="#000000" cx="327.9089" cy="-734.5574" rx="3.2" ry="3.2"/>
</g>
<!-- zauth_userroles -->
<g id="node4" class="node">
<title>zauth_userroles</title>
<g id="a_node4"><a xlink:href="../../tables/zauth_userroles.html" xlink:title="zauth_userroles" target="_top">
<polygon fill="#ffffff" stroke="transparent" points="345,-582.2 345,-668.2 476,-668.2 476,-582.2 345,-582.2"/>
<polygon fill="#f5f5f5" stroke="transparent" points="345.5,-645.2 345.5,-668.2 476.5,-668.2 476.5,-645.2 345.5,-645.2"/>
<polygon fill="none" stroke="#000000" points="345.5,-645.2 345.5,-668.2 476.5,-668.2 476.5,-645.2 345.5,-645.2"/>
<text text-anchor="start" x="350.5" y="-653.8" font-family="Helvetica,sans-Serif" font-weight="bold" font-size="11.00" fill="#000000">zauth_userroles</text>
<text text-anchor="start" x="442.0219" y="-653.3" font-family="Helvetica,sans-Serif" font-size="11.00" fill="#000000">[table]</text>
<polygon fill="none" stroke="#000000" points="345.5,-623.2 345.5,-645.2 476.5,-645.2 476.5,-623.2 345.5,-623.2"/>
<image xlink:href="../../images/primaryKeys.png" width="11px" height="12px" preserveAspectRatio="xMinYMin meet" x="350.5" y="-640.2"/>
<text text-anchor="start" x="374.5" y="-630.3" font-family="Helvetica,sans-Serif" font-size="11.00" fill="#000000">UserId</text>
<polygon fill="none" stroke="#000000" points="345.5,-601.2 345.5,-623.2 476.5,-623.2 476.5,-601.2 345.5,-601.2"/>
<image xlink:href="../../images/primaryKeys.png" width="11px" height="12px" preserveAspectRatio="xMinYMin meet" x="350.5" y="-618.2"/>
<text text-anchor="start" x="374.5" y="-608.3" font-family="Helvetica,sans-Serif" font-size="11.00" fill="#000000">RoleId</text>
<polygon fill="#ffffff" stroke="transparent" points="345.5,-582.2 345.5,-601.2 390.5,-601.2 390.5,-582.2 345.5,-582.2"/>
<polygon fill="none" stroke="#000000" points="345.5,-582.2 345.5,-601.2 390.5,-601.2 390.5,-582.2 345.5,-582.2"/>
<text text-anchor="start" x="348.5" y="-588.3" font-family="Helvetica,sans-Serif" font-size="11.00" fill="#000000">&lt; 2</text>
<polygon fill="#ffffff" stroke="transparent" points="390.5,-582.2 390.5,-601.2 452.5,-601.2 452.5,-582.2 390.5,-582.2"/>
<polygon fill="none" stroke="#000000" points="390.5,-582.2 390.5,-601.2 452.5,-601.2 452.5,-582.2 390.5,-582.2"/>
<text text-anchor="start" x="404.8807" y="-588.3" font-family="Helvetica,sans-Serif" font-size="11.00" fill="#000000">131 rows</text>
<polygon fill="#ffffff" stroke="transparent" points="452.5,-582.2 452.5,-601.2 476.5,-601.2 476.5,-582.2 452.5,-582.2"/>
<polygon fill="none" stroke="#000000" points="452.5,-582.2 452.5,-601.2 476.5,-601.2 476.5,-582.2 452.5,-582.2"/>
<text text-anchor="start" x="467.3862" y="-588.3" font-family="Helvetica,sans-Serif" font-size="11.00" fill="#000000"> &#160;</text>
</a>
</g>
</g>
<!-- zauth_userroles&#45;&gt;zauth_users -->
<g id="edge3" class="edge">
<title>zauth_userroles:w&#45;&gt;zauth_users:e</title>
<path fill="none" stroke="#000000" d="M331.5014,-638.1085C313.3616,-650.2016 316.3058,-686.2 287.5,-686.2"/>
<polygon fill="#000000" stroke="#000000" points="337.7947,-636.3514 346.4681,-637.6674 341.6473,-635.2757 345.5,-634.2 345.5,-634.2 345.5,-634.2 341.6473,-635.2757 344.5319,-630.7326 337.7947,-636.3514 337.7947,-636.3514"/>
<ellipse fill="none" stroke="#000000" cx="334.7126" cy="-637.2119" rx="3.2" ry="3.2"/>
</g>
<!-- zauth_usertokens -->
<g id="node5" class="node">
<title>zauth_usertokens</title>
<g id="a_node5"><a xlink:href="../../tables/zauth_usertokens.html" xlink:title="zauth_usertokens" target="_top">
<polygon fill="#ffffff" stroke="transparent" points="340,-433.7 340,-560.7 481,-560.7 481,-433.7 340,-433.7"/>
<polygon fill="#f5f5f5" stroke="transparent" points="340.5,-537.2 340.5,-560.2 481.5,-560.2 481.5,-537.2 340.5,-537.2"/>
<polygon fill="none" stroke="#000000" points="340.5,-537.2 340.5,-560.2 481.5,-560.2 481.5,-537.2 340.5,-537.2"/>
<text text-anchor="start" x="345.5" y="-545.8" font-family="Helvetica,sans-Serif" font-weight="bold" font-size="11.00" fill="#000000">zauth_usertokens</text>
<text text-anchor="start" x="447.0219" y="-545.3" font-family="Helvetica,sans-Serif" font-size="11.00" fill="#000000">[table]</text>
<polygon fill="none" stroke="#000000" points="340.5,-515.2 340.5,-537.2 481.5,-537.2 481.5,-515.2 340.5,-515.2"/>
<image xlink:href="../../images/primaryKeys.png" width="11px" height="12px" preserveAspectRatio="xMinYMin meet" x="345.5" y="-532.2"/>
<text text-anchor="start" x="369.5" y="-522.3" font-family="Helvetica,sans-Serif" font-size="11.00" fill="#000000">UserId</text>
<polygon fill="none" stroke="#000000" points="340.5,-493.2 340.5,-515.2 481.5,-515.2 481.5,-493.2 340.5,-493.2"/>
<image xlink:href="../../images/primaryKeys.png" width="11px" height="12px" preserveAspectRatio="xMinYMin meet" x="345.5" y="-510.2"/>
<text text-anchor="start" x="369.5" y="-500.3" font-family="Helvetica,sans-Serif" font-size="11.00" fill="#000000">LoginProvider</text>
<polygon fill="none" stroke="#000000" points="340.5,-471.2 340.5,-493.2 481.5,-493.2 481.5,-471.2 340.5,-471.2"/>
<image xlink:href="../../images/primaryKeys.png" width="11px" height="12px" preserveAspectRatio="xMinYMin meet" x="345.5" y="-488.2"/>
<text text-anchor="start" x="369.5" y="-478.3" font-family="Helvetica,sans-Serif" font-size="11.00" fill="#000000">Name</text>
<polygon fill="none" stroke="#000000" points="340.5,-452.2 340.5,-471.2 481.5,-471.2 481.5,-452.2 340.5,-452.2"/>
<text text-anchor="start" x="343.5" y="-458.3" font-family="Helvetica,sans-Serif" font-size="11.00" fill="#000000">...</text>
<polygon fill="#ffffff" stroke="transparent" points="340.5,-433.2 340.5,-452.2 396.5,-452.2 396.5,-433.2 340.5,-433.2"/>
<polygon fill="none" stroke="#000000" points="340.5,-433.2 340.5,-452.2 396.5,-452.2 396.5,-433.2 340.5,-433.2"/>
<text text-anchor="start" x="343.5" y="-439.3" font-family="Helvetica,sans-Serif" font-size="11.00" fill="#000000">&lt; 1</text>
<polygon fill="#ffffff" stroke="transparent" points="396.5,-433.2 396.5,-452.2 451.5,-452.2 451.5,-433.2 396.5,-433.2"/>
<polygon fill="none" stroke="#000000" points="396.5,-433.2 396.5,-452.2 451.5,-452.2 451.5,-433.2 396.5,-433.2"/>
<text text-anchor="start" x="416.1105" y="-439.3" font-family="Helvetica,sans-Serif" font-size="11.00" fill="#000000">0 rows</text>
<polygon fill="#ffffff" stroke="transparent" points="451.5,-433.2 451.5,-452.2 481.5,-452.2 481.5,-433.2 451.5,-433.2"/>
<polygon fill="none" stroke="#000000" points="451.5,-433.2 451.5,-452.2 481.5,-452.2 481.5,-433.2 451.5,-433.2"/>
<text text-anchor="start" x="472.3862" y="-439.3" font-family="Helvetica,sans-Serif" font-size="11.00" fill="#000000"> &#160;</text>
</a>
</g>
</g>
<!-- zauth_usertokens&#45;&gt;zauth_users -->
<g id="edge4" class="edge">
<title>zauth_usertokens:w&#45;&gt;zauth_users:e</title>
<path fill="none" stroke="#000000" d="M326.2191,-528.8436C279.3428,-549.6467 356.7049,-686.2 287.5,-686.2"/>
<polygon fill="#000000" stroke="#000000" points="332.6336,-527.6562 341.1553,-529.7399 336.5668,-526.9281 340.5,-526.2 340.5,-526.2 340.5,-526.2 336.5668,-526.9281 339.8447,-522.6601 332.6336,-527.6562 332.6336,-527.6562"/>
<ellipse fill="none" stroke="#000000" cx="329.4871" cy="-528.2387" rx="3.2" ry="3.2"/>
</g>
</g>
</svg>
