<?xml version="1.0" encoding="UTF-8" standalone="no"?>
<!DOCTYPE svg PUBLIC "-//W3C//DTD SVG 1.1//EN"
 "http://www.w3.org/Graphics/SVG/1.1/DTD/svg11.dtd">
<!-- Generated by graphviz version 2.40.1 (20161225.0304)
 -->
<!-- Title: twoDegreesRelationshipsDiagram Pages: 1 -->
<svg width="496pt" height="431pt"
 viewBox="0.00 0.00 496.00 431.20" xmlns="http://www.w3.org/2000/svg" xmlns:xlink="http://www.w3.org/1999/xlink">
<g id="graph0" class="graph" transform="scale(1 1) rotate(0) translate(4 427.2)">
<title>twoDegreesRelationshipsDiagram</title>
<polygon fill="#ffffff" stroke="transparent" points="-4,4 -4,-427.2 492,-427.2 492,4 -4,4"/>
<text text-anchor="middle" x="72.4936" y="-7.3" font-family="Helvetica,sans-Serif" font-size="11.00" fill="#000000">Generated by SchemaSpy</text>
<!-- zauth_userclaims -->
<g id="node1" class="node">
<title>zauth_userclaims</title>
<g id="a_node1"><a xlink:href="../../tables/zauth_userclaims.html" xlink:title="zauth_userclaims" target="_top">
<polygon fill="#ffffff" stroke="transparent" points="280.5,-358.2 280.5,-419.2 419.5,-419.2 419.5,-358.2 280.5,-358.2"/>
<polygon fill="#f5f5f5" stroke="transparent" points="281,-395.7 281,-418.7 420,-418.7 420,-395.7 281,-395.7"/>
<polygon fill="none" stroke="#000000" points="281,-395.7 281,-418.7 420,-418.7 420,-395.7 281,-395.7"/>
<text text-anchor="start" x="286" y="-404.3" font-family="Helvetica,sans-Serif" font-weight="bold" font-size="11.00" fill="#000000">zauth_userclaims</text>
<text text-anchor="start" x="385.5219" y="-403.8" font-family="Helvetica,sans-Serif" font-size="11.00" fill="#000000">[table]</text>
<polygon fill="none" stroke="#000000" points="281,-376.7 281,-395.7 420,-395.7 420,-376.7 281,-376.7"/>
<text text-anchor="start" x="284" y="-382.8" font-family="Helvetica,sans-Serif" font-size="11.00" fill="#000000">...</text>
<polygon fill="#ffffff" stroke="transparent" points="281,-357.7 281,-376.7 336,-376.7 336,-357.7 281,-357.7"/>
<polygon fill="none" stroke="#000000" points="281,-357.7 281,-376.7 336,-376.7 336,-357.7 281,-357.7"/>
<text text-anchor="start" x="284" y="-363.8" font-family="Helvetica,sans-Serif" font-size="11.00" fill="#000000">&lt; 1</text>
<polygon fill="#ffffff" stroke="transparent" points="336,-357.7 336,-376.7 391,-376.7 391,-357.7 336,-357.7"/>
<polygon fill="none" stroke="#000000" points="336,-357.7 336,-376.7 391,-376.7 391,-357.7 336,-357.7"/>
<text text-anchor="start" x="355.6105" y="-363.8" font-family="Helvetica,sans-Serif" font-size="11.00" fill="#000000">0 rows</text>
<polygon fill="#ffffff" stroke="transparent" points="391,-357.7 391,-376.7 420,-376.7 420,-357.7 391,-357.7"/>
<polygon fill="none" stroke="#000000" points="391,-357.7 391,-376.7 420,-376.7 420,-357.7 391,-357.7"/>
<text text-anchor="start" x="410.8862" y="-363.8" font-family="Helvetica,sans-Serif" font-size="11.00" fill="#000000"> &#160;</text>
</a>
</g>
</g>
<!-- zauth_users -->
<g id="node2" class="node">
<title>zauth_users</title>
<g id="a_node2"><a xlink:href="../../tables/zauth_users.html" xlink:title="zauth_users" target="_top">
<polygon fill="#ffffff" stroke="transparent" points="8,-98.2 8,-225.2 171,-225.2 171,-98.2 8,-98.2"/>
<polygon fill="#f5f5f5" stroke="transparent" points="8.5,-201.7 8.5,-224.7 171.5,-224.7 171.5,-201.7 8.5,-201.7"/>
<polygon fill="none" stroke="#000000" points="8.5,-201.7 8.5,-224.7 171.5,-224.7 171.5,-201.7 8.5,-201.7"/>
<text text-anchor="start" x="13.5" y="-210.3" font-family="Helvetica,sans-Serif" font-weight="bold" font-size="11.00" fill="#000000">zauth_users</text>
<text text-anchor="start" x="136.5437" y="-209.8" font-family="Helvetica,sans-Serif" font-size="11.00" fill="#000000">[table]</text>
<polygon fill="none" stroke="#000000" points="8.5,-179.7 8.5,-201.7 171.5,-201.7 171.5,-179.7 8.5,-179.7"/>
<image xlink:href="../../images/primaryKeys.png" width="11px" height="12px" preserveAspectRatio="xMinYMin meet" x="13.5" y="-196.7"/>
<text text-anchor="start" x="28.5" y="-186.8" font-family="Helvetica,sans-Serif" font-size="11.00" fill="#000000">Id</text>
<polygon fill="#ffffff" stroke="transparent" points="8.5,-157.7 8.5,-179.7 171.5,-179.7 171.5,-157.7 8.5,-157.7"/>
<polygon fill="none" stroke="#000000" points="8.5,-157.7 8.5,-179.7 171.5,-179.7 171.5,-157.7 8.5,-157.7"/>
<text text-anchor="start" x="28.5" y="-164.8" font-family="Helvetica,sans-Serif" font-size="11.00" fill="#000000">NormalizedUserName</text>
<polygon fill="#ffffff" stroke="transparent" points="8.5,-135.7 8.5,-157.7 171.5,-157.7 171.5,-135.7 8.5,-135.7"/>
<polygon fill="none" stroke="#000000" points="8.5,-135.7 8.5,-157.7 171.5,-157.7 171.5,-135.7 8.5,-135.7"/>
<text text-anchor="start" x="28.5" y="-142.8" font-family="Helvetica,sans-Serif" font-size="11.00" fill="#000000">NormalizedEmail</text>
<polygon fill="none" stroke="#000000" points="8.5,-116.7 8.5,-135.7 171.5,-135.7 171.5,-116.7 8.5,-116.7"/>
<text text-anchor="start" x="11.5" y="-122.8" font-family="Helvetica,sans-Serif" font-size="11.00" fill="#000000">...</text>
<polygon fill="#ffffff" stroke="transparent" points="8.5,-97.7 8.5,-116.7 63.5,-116.7 63.5,-97.7 8.5,-97.7"/>
<polygon fill="none" stroke="#000000" points="8.5,-97.7 8.5,-116.7 63.5,-116.7 63.5,-97.7 8.5,-97.7"/>
<text text-anchor="start" x="11.5" y="-103.8" font-family="Helvetica,sans-Serif" font-size="11.00" fill="#000000"> &#160;</text>
<polygon fill="#ffffff" stroke="transparent" points="63.5,-97.7 63.5,-116.7 128.5,-116.7 128.5,-97.7 63.5,-97.7"/>
<polygon fill="none" stroke="#000000" points="63.5,-97.7 63.5,-116.7 128.5,-116.7 128.5,-97.7 63.5,-97.7"/>
<text text-anchor="start" x="86.9956" y="-103.8" font-family="Helvetica,sans-Serif" font-size="11.00" fill="#000000">98 rows</text>
<polygon fill="#ffffff" stroke="transparent" points="128.5,-97.7 128.5,-116.7 171.5,-116.7 171.5,-97.7 128.5,-97.7"/>
<polygon fill="none" stroke="#000000" points="128.5,-97.7 128.5,-116.7 171.5,-116.7 171.5,-97.7 128.5,-97.7"/>
<text text-anchor="start" x="152.9053" y="-103.8" font-family="Helvetica,sans-Serif" font-size="11.00" fill="#000000">4 &gt;</text>
</a>
</g>
</g>
<!-- zauth_userclaims&#45;&gt;zauth_users -->
<g id="edge1" class="edge">
<title>zauth_userclaims:w&#45;&gt;zauth_users:e</title>
<path fill="none" stroke="#000000" d="M266.4537,-384.9553C241.966,-382.1473 230.1933,-371.1453 212,-347.7 167.8217,-290.7683 243.562,-190.7 171.5,-190.7"/>
<polygon fill="#000000" stroke="#000000" points="273.0105,-385.2909 280.8159,-389.2953 277.0052,-385.4955 281,-385.7 281,-385.7 281,-385.7 277.0052,-385.4955 281.1841,-382.1047 273.0105,-385.2909 273.0105,-385.2909"/>
<ellipse fill="none" stroke="#000000" cx="269.8146" cy="-385.1273" rx="3.2" ry="3.2"/>
</g>
<!-- zauth_userlogins -->
<g id="node3" class="node">
<title>zauth_userlogins</title>
<g id="a_node3"><a xlink:href="../../tables/zauth_userlogins.html" xlink:title="zauth_userlogins" target="_top">
<polygon fill="#ffffff" stroke="transparent" points="220,-202.7 220,-336.7 480,-336.7 480,-202.7 220,-202.7"/>
<polygon fill="#f5f5f5" stroke="transparent" points="222,-311.7 222,-334.7 478,-334.7 478,-311.7 222,-311.7"/>
<polygon fill="none" stroke="#000000" points="222,-311.7 222,-334.7 478,-334.7 478,-311.7 222,-311.7"/>
<text text-anchor="start" x="227" y="-320.3" font-family="Helvetica,sans-Serif" font-weight="bold" font-size="11.00" fill="#000000">zauth_userlogins</text>
<text text-anchor="start" x="443.0437" y="-319.8" font-family="Helvetica,sans-Serif" font-size="11.00" fill="#000000">[table]</text>
<polygon fill="none" stroke="#000000" points="222,-289.7 222,-311.7 367,-311.7 367,-289.7 222,-289.7"/>
<image xlink:href="../../images/primaryKeys.png" width="11px" height="12px" preserveAspectRatio="xMinYMin meet" x="227" y="-306.7"/>
<text text-anchor="start" x="242" y="-296.8" font-family="Helvetica,sans-Serif" font-size="11.00" fill="#000000">LoginProvider</text>
<polygon fill="none" stroke="#000000" points="367,-289.7 367,-311.7 478,-311.7 478,-289.7 367,-289.7"/>
<text text-anchor="start" x="370" y="-297.4" font-family="Helvetica,sans-Serif" font-size="11.00" fill="#000000">varchar[128]</text>
<polygon fill="none" stroke="#000000" points="222,-267.7 222,-289.7 367,-289.7 367,-267.7 222,-267.7"/>
<image xlink:href="../../images/primaryKeys.png" width="11px" height="12px" preserveAspectRatio="xMinYMin meet" x="227" y="-284.7"/>
<text text-anchor="start" x="242" y="-274.8" font-family="Helvetica,sans-Serif" font-size="11.00" fill="#000000">ProviderKey</text>
<polygon fill="none" stroke="#000000" points="367,-267.7 367,-289.7 478,-289.7 478,-267.7 367,-267.7"/>
<text text-anchor="start" x="370" y="-275.4" font-family="Helvetica,sans-Serif" font-size="11.00" fill="#000000">varchar[128]</text>
<polygon fill="none" stroke="#000000" points="222,-245.7 222,-267.7 367,-267.7 367,-245.7 222,-245.7"/>
<text text-anchor="start" x="242" y="-252.8" font-family="Helvetica,sans-Serif" font-size="11.00" fill="#000000">ProviderDisplayName</text>
<polygon fill="none" stroke="#000000" points="367,-245.7 367,-267.7 478,-267.7 478,-245.7 367,-245.7"/>
<text text-anchor="start" x="369.6115" y="-253.4" font-family="Helvetica,sans-Serif" font-size="11.00" fill="#000000">longtext[2147483647]</text>
<polygon fill="#ffffff" stroke="transparent" points="222,-223.7 222,-245.7 367,-245.7 367,-223.7 222,-223.7"/>
<polygon fill="none" stroke="#000000" points="222,-223.7 222,-245.7 367,-245.7 367,-223.7 222,-223.7"/>
<image xlink:href="../../images/foreignKeys.png" width="11px" height="12px" preserveAspectRatio="xMinYMin meet" x="227" y="-240.7"/>
<text text-anchor="start" x="242" y="-230.8" font-family="Helvetica,sans-Serif" font-size="11.00" fill="#000000">UserId</text>
<polygon fill="none" stroke="#000000" points="367,-223.7 367,-245.7 478,-245.7 478,-223.7 367,-223.7"/>
<text text-anchor="start" x="370" y="-231.4" font-family="Helvetica,sans-Serif" font-size="11.00" fill="#000000">int[10]</text>
<polygon fill="#ffffff" stroke="transparent" points="222,-204.7 222,-223.7 286,-223.7 286,-204.7 222,-204.7"/>
<polygon fill="none" stroke="#000000" points="222,-204.7 222,-223.7 286,-223.7 286,-204.7 222,-204.7"/>
<text text-anchor="start" x="225" y="-210.8" font-family="Helvetica,sans-Serif" font-size="11.00" fill="#000000">&lt; 1</text>
<polygon fill="#ffffff" stroke="transparent" points="286,-204.7 286,-223.7 367,-223.7 367,-204.7 286,-204.7"/>
<polygon fill="none" stroke="#000000" points="286,-204.7 286,-223.7 367,-223.7 367,-204.7 286,-204.7"/>
<text text-anchor="start" x="331.6105" y="-210.8" font-family="Helvetica,sans-Serif" font-size="11.00" fill="#000000">0 rows</text>
<polygon fill="#ffffff" stroke="transparent" points="367,-204.7 367,-223.7 478,-223.7 478,-204.7 367,-204.7"/>
<polygon fill="none" stroke="#000000" points="367,-204.7 367,-223.7 478,-223.7 478,-204.7 367,-204.7"/>
<text text-anchor="start" x="459.4053" y="-210.8" font-family="Helvetica,sans-Serif" font-size="11.00" fill="#000000">0 &gt;</text>
<polygon fill="none" stroke="#000000" stroke-width="2" points="221,-203.7 221,-335.7 479,-335.7 479,-203.7 221,-203.7"/>
</a>
</g>
</g>
<!-- zauth_userlogins&#45;&gt;zauth_users -->
<g id="edge2" class="edge">
<title>zauth_userlogins:w&#45;&gt;zauth_users:e</title>
<path fill="none" stroke="#000000" d="M208.0126,-229.9912C194.3016,-218.6404 195.2219,-190.7 171.5,-190.7"/>
<polygon fill="#000000" stroke="#000000" points="214.4181,-232.1476 220.8514,-238.1119 218.209,-233.4238 222,-234.7 222,-234.7 222,-234.7 218.209,-233.4238 223.1486,-231.2881 214.4181,-232.1476 214.4181,-232.1476"/>
<ellipse fill="none" stroke="#000000" cx="211.3853" cy="-231.1266" rx="3.2" ry="3.2"/>
</g>
<!-- zauth_userroles -->
<g id="node4" class="node">
<title>zauth_userroles</title>
<g id="a_node4"><a xlink:href="../../tables/zauth_userroles.html" xlink:title="zauth_userroles" target="_top">
<polygon fill="#ffffff" stroke="transparent" points="284.5,-120.2 284.5,-181.2 415.5,-181.2 415.5,-120.2 284.5,-120.2"/>
<polygon fill="#f5f5f5" stroke="transparent" points="285,-157.7 285,-180.7 416,-180.7 416,-157.7 285,-157.7"/>
<polygon fill="none" stroke="#000000" points="285,-157.7 285,-180.7 416,-180.7 416,-157.7 285,-157.7"/>
<text text-anchor="start" x="290" y="-166.3" font-family="Helvetica,sans-Serif" font-weight="bold" font-size="11.00" fill="#000000">zauth_userroles</text>
<text text-anchor="start" x="381.5219" y="-165.8" font-family="Helvetica,sans-Serif" font-size="11.00" fill="#000000">[table]</text>
<polygon fill="none" stroke="#000000" points="285,-138.7 285,-157.7 416,-157.7 416,-138.7 285,-138.7"/>
<text text-anchor="start" x="288" y="-144.8" font-family="Helvetica,sans-Serif" font-size="11.00" fill="#000000">...</text>
<polygon fill="#ffffff" stroke="transparent" points="285,-119.7 285,-138.7 330,-138.7 330,-119.7 285,-119.7"/>
<polygon fill="none" stroke="#000000" points="285,-119.7 285,-138.7 330,-138.7 330,-119.7 285,-119.7"/>
<text text-anchor="start" x="288" y="-125.8" font-family="Helvetica,sans-Serif" font-size="11.00" fill="#000000">&lt; 2</text>
<polygon fill="#ffffff" stroke="transparent" points="330,-119.7 330,-138.7 392,-138.7 392,-119.7 330,-119.7"/>
<polygon fill="none" stroke="#000000" points="330,-119.7 330,-138.7 392,-138.7 392,-119.7 330,-119.7"/>
<text text-anchor="start" x="344.3807" y="-125.8" font-family="Helvetica,sans-Serif" font-size="11.00" fill="#000000">131 rows</text>
<polygon fill="#ffffff" stroke="transparent" points="392,-119.7 392,-138.7 416,-138.7 416,-119.7 392,-119.7"/>
<polygon fill="none" stroke="#000000" points="392,-119.7 392,-138.7 416,-138.7 416,-119.7 392,-119.7"/>
<text text-anchor="start" x="406.8862" y="-125.8" font-family="Helvetica,sans-Serif" font-size="11.00" fill="#000000"> &#160;</text>
</a>
</g>
</g>
<!-- zauth_userroles&#45;&gt;zauth_users -->
<g id="edge3" class="edge">
<title>zauth_userroles:w&#45;&gt;zauth_users:e</title>
<path fill="none" stroke="#000000" d="M270.489,-148.8501C229.4994,-155.6884 220.1754,-190.7 171.5,-190.7"/>
<polygon fill="#000000" stroke="#000000" points="277.025,-148.3322 285.2845,-151.2887 281.0125,-148.0161 285,-147.7 285,-147.7 285,-147.7 281.0125,-148.0161 284.7155,-144.1113 277.025,-148.3322 277.025,-148.3322"/>
<ellipse fill="none" stroke="#000000" cx="273.835" cy="-148.585" rx="3.2" ry="3.2"/>
</g>
<!-- zauth_usertokens -->
<g id="node5" class="node">
<title>zauth_usertokens</title>
<g id="a_node5"><a xlink:href="../../tables/zauth_usertokens.html" xlink:title="zauth_usertokens" target="_top">
<polygon fill="#ffffff" stroke="transparent" points="279.5,-38.2 279.5,-99.2 420.5,-99.2 420.5,-38.2 279.5,-38.2"/>
<polygon fill="#f5f5f5" stroke="transparent" points="280,-75.7 280,-98.7 421,-98.7 421,-75.7 280,-75.7"/>
<polygon fill="none" stroke="#000000" points="280,-75.7 280,-98.7 421,-98.7 421,-75.7 280,-75.7"/>
<text text-anchor="start" x="285" y="-84.3" font-family="Helvetica,sans-Serif" font-weight="bold" font-size="11.00" fill="#000000">zauth_usertokens</text>
<text text-anchor="start" x="386.5219" y="-83.8" font-family="Helvetica,sans-Serif" font-size="11.00" fill="#000000">[table]</text>
<polygon fill="none" stroke="#000000" points="280,-56.7 280,-75.7 421,-75.7 421,-56.7 280,-56.7"/>
<text text-anchor="start" x="283" y="-62.8" font-family="Helvetica,sans-Serif" font-size="11.00" fill="#000000">...</text>
<polygon fill="#ffffff" stroke="transparent" points="280,-37.7 280,-56.7 336,-56.7 336,-37.7 280,-37.7"/>
<polygon fill="none" stroke="#000000" points="280,-37.7 280,-56.7 336,-56.7 336,-37.7 280,-37.7"/>
<text text-anchor="start" x="283" y="-43.8" font-family="Helvetica,sans-Serif" font-size="11.00" fill="#000000">&lt; 1</text>
<polygon fill="#ffffff" stroke="transparent" points="336,-37.7 336,-56.7 391,-56.7 391,-37.7 336,-37.7"/>
<polygon fill="none" stroke="#000000" points="336,-37.7 336,-56.7 391,-56.7 391,-37.7 336,-37.7"/>
<text text-anchor="start" x="355.6105" y="-43.8" font-family="Helvetica,sans-Serif" font-size="11.00" fill="#000000">0 rows</text>
<polygon fill="#ffffff" stroke="transparent" points="391,-37.7 391,-56.7 421,-56.7 421,-37.7 391,-37.7"/>
<polygon fill="none" stroke="#000000" points="391,-37.7 391,-56.7 421,-56.7 421,-37.7 391,-37.7"/>
<text text-anchor="start" x="411.8862" y="-43.8" font-family="Helvetica,sans-Serif" font-size="11.00" fill="#000000"> &#160;</text>
</a>
</g>
</g>
<!-- zauth_usertokens&#45;&gt;zauth_users -->
<g id="edge4" class="edge">
<title>zauth_usertokens:w&#45;&gt;zauth_users:e</title>
<path fill="none" stroke="#000000" d="M265.3422,-66.8694C241.195,-71.1576 232.35,-86.9637 212,-109.7 185.1569,-139.6908 211.7492,-190.7 171.5,-190.7"/>
<polygon fill="#000000" stroke="#000000" points="272.0253,-66.3362 280.2863,-69.2886 276.0127,-66.0181 280,-65.7 280,-65.7 280,-65.7 276.0127,-66.0181 279.7137,-62.1114 272.0253,-66.3362 272.0253,-66.3362"/>
<ellipse fill="none" stroke="#000000" cx="268.8355" cy="-66.5907" rx="3.2" ry="3.2"/>
</g>
</g>
</svg>
