<?xml version="1.0" encoding="UTF-8" standalone="no"?>
<!DOCTYPE svg PUBLIC "-//W3C//DTD SVG 1.1//EN"
 "http://www.w3.org/Graphics/SVG/1.1/DTD/svg11.dtd">
<!-- Generated by graphviz version 2.40.1 (20161225.0304)
 -->
<!-- Title: oneDegreeRelationshipsDiagram Pages: 1 -->
<svg width="299pt" height="272pt"
 viewBox="0.00 0.00 299.00 272.20" xmlns="http://www.w3.org/2000/svg" xmlns:xlink="http://www.w3.org/1999/xlink">
<g id="graph0" class="graph" transform="scale(1 1) rotate(0) translate(4 268.2)">
<title>oneDegreeRelationshipsDiagram</title>
<polygon fill="#ffffff" stroke="transparent" points="-4,4 -4,-268.2 295,-268.2 295,4 -4,4"/>
<text text-anchor="middle" x="72.4936" y="-7.3" font-family="Helvetica,sans-Serif" font-size="11.00" fill="#000000">Generated by SchemaSpy</text>
<!-- zauth_userlog -->
<g id="node1" class="node">
<title>zauth_userlog</title>
<g id="a_node1"><a xlink:href="../../tables/zauth_userlog.html" xlink:title="zauth_userlog" target="_top">
<polygon fill="#ffffff" stroke="transparent" points="8,-38.2 8,-260.2 283,-260.2 283,-38.2 8,-38.2"/>
<polygon fill="#f5f5f5" stroke="transparent" points="10.5,-235.2 10.5,-258.2 281.5,-258.2 281.5,-235.2 10.5,-235.2"/>
<polygon fill="none" stroke="#000000" points="10.5,-235.2 10.5,-258.2 281.5,-258.2 281.5,-235.2 10.5,-235.2"/>
<text text-anchor="start" x="15.5" y="-243.8" font-family="Helvetica,sans-Serif" font-weight="bold" font-size="11.00" fill="#000000">zauth_userlog</text>
<text text-anchor="start" x="246.5437" y="-243.3" font-family="Helvetica,sans-Serif" font-size="11.00" fill="#000000">[table]</text>
<polygon fill="none" stroke="#000000" points="10.5,-213.2 10.5,-235.2 170.5,-235.2 170.5,-213.2 10.5,-213.2"/>
<image xlink:href="../../images/primaryKeys.png" width="11px" height="12px" preserveAspectRatio="xMinYMin meet" x="15.5" y="-230.2"/>
<text text-anchor="start" x="30.5" y="-220.3" font-family="Helvetica,sans-Serif" font-size="11.00" fill="#000000">ID</text>
<polygon fill="none" stroke="#000000" points="170.5,-213.2 170.5,-235.2 281.5,-235.2 281.5,-213.2 170.5,-213.2"/>
<text text-anchor="start" x="173.5" y="-220.9" font-family="Helvetica,sans-Serif" font-size="11.00" fill="#000000">varchar[50]</text>
<polygon fill="none" stroke="#000000" points="10.5,-191.2 10.5,-213.2 170.5,-213.2 170.5,-191.2 10.5,-191.2"/>
<text text-anchor="start" x="30.5" y="-198.3" font-family="Helvetica,sans-Serif" font-size="11.00" fill="#000000">ZAuth_UserFK</text>
<polygon fill="none" stroke="#000000" points="170.5,-191.2 170.5,-213.2 281.5,-213.2 281.5,-191.2 170.5,-191.2"/>
<text text-anchor="start" x="173.5" y="-198.9" font-family="Helvetica,sans-Serif" font-size="11.00" fill="#000000">int[10]</text>
<polygon fill="none" stroke="#000000" points="10.5,-169.2 10.5,-191.2 170.5,-191.2 170.5,-169.2 10.5,-169.2"/>
<text text-anchor="start" x="30.5" y="-176.3" font-family="Helvetica,sans-Serif" font-size="11.00" fill="#000000">CompanyFK</text>
<polygon fill="none" stroke="#000000" points="170.5,-169.2 170.5,-191.2 281.5,-191.2 281.5,-169.2 170.5,-169.2"/>
<text text-anchor="start" x="173.5" y="-176.9" font-family="Helvetica,sans-Serif" font-size="11.00" fill="#000000">int[10]</text>
<polygon fill="none" stroke="#000000" points="10.5,-147.2 10.5,-169.2 170.5,-169.2 170.5,-147.2 10.5,-147.2"/>
<text text-anchor="start" x="30.5" y="-154.3" font-family="Helvetica,sans-Serif" font-size="11.00" fill="#000000">ZAuth_RoleMenuLinkFK</text>
<polygon fill="none" stroke="#000000" points="170.5,-147.2 170.5,-169.2 281.5,-169.2 281.5,-147.2 170.5,-147.2"/>
<text text-anchor="start" x="173.5" y="-154.9" font-family="Helvetica,sans-Serif" font-size="11.00" fill="#000000">int[10]</text>
<polygon fill="none" stroke="#000000" points="10.5,-125.2 10.5,-147.2 170.5,-147.2 170.5,-125.2 10.5,-125.2"/>
<text text-anchor="start" x="30.5" y="-132.3" font-family="Helvetica,sans-Serif" font-size="11.00" fill="#000000">ZAuth_MenuLinkFK</text>
<polygon fill="none" stroke="#000000" points="170.5,-125.2 170.5,-147.2 281.5,-147.2 281.5,-125.2 170.5,-125.2"/>
<text text-anchor="start" x="173.5" y="-132.9" font-family="Helvetica,sans-Serif" font-size="11.00" fill="#000000">int[10]</text>
<polygon fill="none" stroke="#000000" points="10.5,-103.2 10.5,-125.2 170.5,-125.2 170.5,-103.2 10.5,-103.2"/>
<text text-anchor="start" x="30.5" y="-110.3" font-family="Helvetica,sans-Serif" font-size="11.00" fill="#000000">LinkName</text>
<polygon fill="none" stroke="#000000" points="170.5,-103.2 170.5,-125.2 281.5,-125.2 281.5,-103.2 170.5,-103.2"/>
<text text-anchor="start" x="173.1115" y="-110.9" font-family="Helvetica,sans-Serif" font-size="11.00" fill="#000000">longtext[2147483647]</text>
<polygon fill="none" stroke="#000000" points="10.5,-81.2 10.5,-103.2 170.5,-103.2 170.5,-81.2 10.5,-81.2"/>
<text text-anchor="start" x="30.5" y="-88.3" font-family="Helvetica,sans-Serif" font-size="11.00" fill="#000000">Link</text>
<polygon fill="none" stroke="#000000" points="170.5,-81.2 170.5,-103.2 281.5,-103.2 281.5,-81.2 170.5,-81.2"/>
<text text-anchor="start" x="173.1115" y="-88.9" font-family="Helvetica,sans-Serif" font-size="11.00" fill="#000000">longtext[2147483647]</text>
<polygon fill="none" stroke="#000000" points="10.5,-59.2 10.5,-81.2 170.5,-81.2 170.5,-59.2 10.5,-59.2"/>
<text text-anchor="start" x="30.5" y="-66.3" font-family="Helvetica,sans-Serif" font-size="11.00" fill="#000000">IsTimeOut</text>
<polygon fill="none" stroke="#000000" points="170.5,-59.2 170.5,-81.2 281.5,-81.2 281.5,-59.2 170.5,-59.2"/>
<text text-anchor="start" x="173.5" y="-66.9" font-family="Helvetica,sans-Serif" font-size="11.00" fill="#000000">bit[1]</text>
<polygon fill="#ffffff" stroke="transparent" points="10.5,-40.2 10.5,-59.2 81.5,-59.2 81.5,-40.2 10.5,-40.2"/>
<polygon fill="none" stroke="#000000" points="10.5,-40.2 10.5,-59.2 81.5,-59.2 81.5,-40.2 10.5,-40.2"/>
<text text-anchor="start" x="13.5" y="-46.3" font-family="Helvetica,sans-Serif" font-size="11.00" fill="#000000">&lt; 0</text>
<polygon fill="#ffffff" stroke="transparent" points="81.5,-40.2 81.5,-59.2 170.5,-59.2 170.5,-40.2 81.5,-40.2"/>
<polygon fill="none" stroke="#000000" points="81.5,-40.2 81.5,-59.2 170.5,-59.2 170.5,-40.2 81.5,-40.2"/>
<text text-anchor="start" x="135.1105" y="-46.3" font-family="Helvetica,sans-Serif" font-size="11.00" fill="#000000">0 rows</text>
<polygon fill="#ffffff" stroke="transparent" points="170.5,-40.2 170.5,-59.2 281.5,-59.2 281.5,-40.2 170.5,-40.2"/>
<polygon fill="none" stroke="#000000" points="170.5,-40.2 170.5,-59.2 281.5,-59.2 281.5,-40.2 170.5,-40.2"/>
<text text-anchor="start" x="262.9053" y="-46.3" font-family="Helvetica,sans-Serif" font-size="11.00" fill="#000000">0 &gt;</text>
<polygon fill="none" stroke="#000000" stroke-width="2" points="9,-39.2 9,-259.2 282,-259.2 282,-39.2 9,-39.2"/>
</a>
</g>
</g>
</g>
</svg>
