<?xml version="1.0" encoding="UTF-8" standalone="no"?>
<!DOCTYPE svg PUBLIC "-//W3C//DTD SVG 1.1//EN"
 "http://www.w3.org/Graphics/SVG/1.1/DTD/svg11.dtd">
<!-- Generated by graphviz version 2.40.1 (20161225.0304)
 -->
<!-- Title: twoDegreesRelationshipsDiagram Pages: 1 -->
<svg width="455pt" height="289pt"
 viewBox="0.00 0.00 455.00 289.20" xmlns="http://www.w3.org/2000/svg" xmlns:xlink="http://www.w3.org/1999/xlink">
<g id="graph0" class="graph" transform="scale(1 1) rotate(0) translate(4 285.2)">
<title>twoDegreesRelationshipsDiagram</title>
<polygon fill="#ffffff" stroke="transparent" points="-4,4 -4,-285.2 451,-285.2 451,4 -4,4"/>
<text text-anchor="middle" x="72.4936" y="-7.3" font-family="Helvetica,sans-Serif" font-size="11.00" fill="#000000">Generated by SchemaSpy</text>
<!-- zauth_roleclaims -->
<g id="node1" class="node">
<title>zauth_roleclaims</title>
<g id="a_node1"><a xlink:href="../../tables/zauth_roleclaims.html" xlink:title="zauth_roleclaims" target="_top">
<polygon fill="#ffffff" stroke="transparent" points="303,-64.7 303,-169.7 439,-169.7 439,-64.7 303,-64.7"/>
<polygon fill="#f5f5f5" stroke="transparent" points="303,-146.2 303,-169.2 439,-169.2 439,-146.2 303,-146.2"/>
<polygon fill="none" stroke="#000000" points="303,-146.2 303,-169.2 439,-169.2 439,-146.2 303,-146.2"/>
<text text-anchor="start" x="308" y="-154.8" font-family="Helvetica,sans-Serif" font-weight="bold" font-size="11.00" fill="#000000">zauth_roleclaims</text>
<text text-anchor="start" x="404.5219" y="-154.3" font-family="Helvetica,sans-Serif" font-size="11.00" fill="#000000">[table]</text>
<polygon fill="none" stroke="#000000" points="303,-124.2 303,-146.2 439,-146.2 439,-124.2 303,-124.2"/>
<image xlink:href="../../images/primaryKeys.png" width="11px" height="12px" preserveAspectRatio="xMinYMin meet" x="308" y="-141.2"/>
<text text-anchor="start" x="332" y="-131.3" font-family="Helvetica,sans-Serif" font-size="11.00" fill="#000000">Id</text>
<polygon fill="#ffffff" stroke="transparent" points="303,-102.2 303,-124.2 439,-124.2 439,-102.2 303,-102.2"/>
<polygon fill="none" stroke="#000000" points="303,-102.2 303,-124.2 439,-124.2 439,-102.2 303,-102.2"/>
<image xlink:href="../../images/foreignKeys.png" width="11px" height="12px" preserveAspectRatio="xMinYMin meet" x="308" y="-119.2"/>
<text text-anchor="start" x="332" y="-109.3" font-family="Helvetica,sans-Serif" font-size="11.00" fill="#000000">RoleId</text>
<polygon fill="none" stroke="#000000" points="303,-83.2 303,-102.2 439,-102.2 439,-83.2 303,-83.2"/>
<text text-anchor="start" x="306" y="-89.3" font-family="Helvetica,sans-Serif" font-size="11.00" fill="#000000">...</text>
<polygon fill="#ffffff" stroke="transparent" points="303,-64.2 303,-83.2 356,-83.2 356,-64.2 303,-64.2"/>
<polygon fill="none" stroke="#000000" points="303,-64.2 303,-83.2 356,-83.2 356,-64.2 303,-64.2"/>
<text text-anchor="start" x="306" y="-70.3" font-family="Helvetica,sans-Serif" font-size="11.00" fill="#000000">&lt; 1</text>
<polygon fill="#ffffff" stroke="transparent" points="356,-64.2 356,-83.2 410,-83.2 410,-64.2 356,-64.2"/>
<polygon fill="none" stroke="#000000" points="356,-64.2 356,-83.2 410,-83.2 410,-64.2 356,-64.2"/>
<text text-anchor="start" x="374.6105" y="-70.3" font-family="Helvetica,sans-Serif" font-size="11.00" fill="#000000">0 rows</text>
<polygon fill="#ffffff" stroke="transparent" points="410,-64.2 410,-83.2 439,-83.2 439,-64.2 410,-64.2"/>
<polygon fill="none" stroke="#000000" points="410,-64.2 410,-83.2 439,-83.2 439,-64.2 410,-64.2"/>
<text text-anchor="start" x="429.8862" y="-70.3" font-family="Helvetica,sans-Serif" font-size="11.00" fill="#000000"> &#160;</text>
</a>
</g>
</g>
<!-- zauth_roles -->
<g id="node2" class="node">
<title>zauth_roles</title>
<g id="a_node2"><a xlink:href="../../tables/zauth_roles.html" xlink:title="zauth_roles" target="_top">
<polygon fill="#ffffff" stroke="transparent" points="8,-38.2 8,-172.2 254,-172.2 254,-38.2 8,-38.2"/>
<polygon fill="#f5f5f5" stroke="transparent" points="10,-147.2 10,-170.2 252,-170.2 252,-147.2 10,-147.2"/>
<polygon fill="none" stroke="#000000" points="10,-147.2 10,-170.2 252,-170.2 252,-147.2 10,-147.2"/>
<text text-anchor="start" x="15" y="-155.8" font-family="Helvetica,sans-Serif" font-weight="bold" font-size="11.00" fill="#000000">zauth_roles</text>
<text text-anchor="start" x="217.0437" y="-155.3" font-family="Helvetica,sans-Serif" font-size="11.00" fill="#000000">[table]</text>
<polygon fill="none" stroke="#000000" points="10,-125.2 10,-147.2 141,-147.2 141,-125.2 10,-125.2"/>
<image xlink:href="../../images/primaryKeys.png" width="11px" height="12px" preserveAspectRatio="xMinYMin meet" x="15" y="-142.2"/>
<text text-anchor="start" x="30" y="-132.3" font-family="Helvetica,sans-Serif" font-size="11.00" fill="#000000">Id</text>
<polygon fill="none" stroke="#000000" points="141,-125.2 141,-147.2 252,-147.2 252,-125.2 141,-125.2"/>
<text text-anchor="start" x="144" y="-132.9" font-family="Helvetica,sans-Serif" font-size="11.00" fill="#000000">int[10]</text>
<polygon fill="none" stroke="#000000" points="10,-103.2 10,-125.2 141,-125.2 141,-103.2 10,-103.2"/>
<text text-anchor="start" x="30" y="-110.3" font-family="Helvetica,sans-Serif" font-size="11.00" fill="#000000">Name</text>
<polygon fill="none" stroke="#000000" points="141,-103.2 141,-125.2 252,-125.2 252,-103.2 141,-103.2"/>
<text text-anchor="start" x="144" y="-110.9" font-family="Helvetica,sans-Serif" font-size="11.00" fill="#000000">varchar[128]</text>
<polygon fill="#ffffff" stroke="transparent" points="10,-81.2 10,-103.2 141,-103.2 141,-81.2 10,-81.2"/>
<polygon fill="none" stroke="#000000" points="10,-81.2 10,-103.2 141,-103.2 141,-81.2 10,-81.2"/>
<text text-anchor="start" x="30" y="-88.3" font-family="Helvetica,sans-Serif" font-size="11.00" fill="#000000">NormalizedName</text>
<polygon fill="none" stroke="#000000" points="141,-81.2 141,-103.2 252,-103.2 252,-81.2 141,-81.2"/>
<text text-anchor="start" x="144" y="-88.9" font-family="Helvetica,sans-Serif" font-size="11.00" fill="#000000">varchar[128]</text>
<polygon fill="none" stroke="#000000" points="10,-59.2 10,-81.2 141,-81.2 141,-59.2 10,-59.2"/>
<text text-anchor="start" x="30" y="-66.3" font-family="Helvetica,sans-Serif" font-size="11.00" fill="#000000">ConcurrencyStamp</text>
<polygon fill="none" stroke="#000000" points="141,-59.2 141,-81.2 252,-81.2 252,-59.2 141,-59.2"/>
<text text-anchor="start" x="143.6115" y="-66.9" font-family="Helvetica,sans-Serif" font-size="11.00" fill="#000000">longtext[2147483647]</text>
<polygon fill="#ffffff" stroke="transparent" points="10,-40.2 10,-59.2 64,-59.2 64,-40.2 10,-40.2"/>
<polygon fill="none" stroke="#000000" points="10,-40.2 10,-59.2 64,-59.2 64,-40.2 10,-40.2"/>
<text text-anchor="start" x="13" y="-46.3" font-family="Helvetica,sans-Serif" font-size="11.00" fill="#000000">&lt; 0</text>
<polygon fill="#ffffff" stroke="transparent" points="64,-40.2 64,-59.2 141,-59.2 141,-40.2 64,-40.2"/>
<polygon fill="none" stroke="#000000" points="64,-40.2 64,-59.2 141,-59.2 141,-40.2 64,-40.2"/>
<text text-anchor="start" x="99.4956" y="-46.3" font-family="Helvetica,sans-Serif" font-size="11.00" fill="#000000">56 rows</text>
<polygon fill="#ffffff" stroke="transparent" points="141,-40.2 141,-59.2 252,-59.2 252,-40.2 141,-40.2"/>
<polygon fill="none" stroke="#000000" points="141,-40.2 141,-59.2 252,-59.2 252,-40.2 141,-40.2"/>
<text text-anchor="start" x="233.4053" y="-46.3" font-family="Helvetica,sans-Serif" font-size="11.00" fill="#000000">2 &gt;</text>
<polygon fill="none" stroke="#000000" stroke-width="2" points="9,-39.2 9,-171.2 253,-171.2 253,-39.2 9,-39.2"/>
</a>
</g>
</g>
<!-- zauth_roleclaims&#45;&gt;zauth_roles -->
<g id="edge1" class="edge">
<title>zauth_roleclaims:w&#45;&gt;zauth_roles:e</title>
<path fill="none" stroke="#000000" d="M288.7976,-116.3981C276.2436,-122.7178 271.0373,-136.2 252,-136.2"/>
<polygon fill="#000000" stroke="#000000" points="295.1954,-114.9574 303.7909,-116.7121 299.0977,-114.0787 303,-113.2 303,-113.2 303,-113.2 299.0977,-114.0787 302.2091,-109.6879 295.1954,-114.9574 295.1954,-114.9574"/>
<ellipse fill="none" stroke="#000000" cx="292.0736" cy="-115.6604" rx="3.2" ry="3.2"/>
</g>
<!-- zauth_userroles -->
<g id="node3" class="node">
<title>zauth_userroles</title>
<g id="a_node3"><a xlink:href="../../tables/zauth_userroles.html" xlink:title="zauth_userroles" target="_top">
<polygon fill="#ffffff" stroke="transparent" points="305.5,-191.2 305.5,-277.2 436.5,-277.2 436.5,-191.2 305.5,-191.2"/>
<polygon fill="#f5f5f5" stroke="transparent" points="306,-254.2 306,-277.2 437,-277.2 437,-254.2 306,-254.2"/>
<polygon fill="none" stroke="#000000" points="306,-254.2 306,-277.2 437,-277.2 437,-254.2 306,-254.2"/>
<text text-anchor="start" x="311" y="-262.8" font-family="Helvetica,sans-Serif" font-weight="bold" font-size="11.00" fill="#000000">zauth_userroles</text>
<text text-anchor="start" x="402.5219" y="-262.3" font-family="Helvetica,sans-Serif" font-size="11.00" fill="#000000">[table]</text>
<polygon fill="none" stroke="#000000" points="306,-232.2 306,-254.2 437,-254.2 437,-232.2 306,-232.2"/>
<image xlink:href="../../images/primaryKeys.png" width="11px" height="12px" preserveAspectRatio="xMinYMin meet" x="311" y="-249.2"/>
<text text-anchor="start" x="335" y="-239.3" font-family="Helvetica,sans-Serif" font-size="11.00" fill="#000000">UserId</text>
<polygon fill="none" stroke="#000000" points="306,-210.2 306,-232.2 437,-232.2 437,-210.2 306,-210.2"/>
<image xlink:href="../../images/primaryKeys.png" width="11px" height="12px" preserveAspectRatio="xMinYMin meet" x="311" y="-227.2"/>
<text text-anchor="start" x="335" y="-217.3" font-family="Helvetica,sans-Serif" font-size="11.00" fill="#000000">RoleId</text>
<polygon fill="#ffffff" stroke="transparent" points="306,-191.2 306,-210.2 351,-210.2 351,-191.2 306,-191.2"/>
<polygon fill="none" stroke="#000000" points="306,-191.2 306,-210.2 351,-210.2 351,-191.2 306,-191.2"/>
<text text-anchor="start" x="309" y="-197.3" font-family="Helvetica,sans-Serif" font-size="11.00" fill="#000000">&lt; 2</text>
<polygon fill="#ffffff" stroke="transparent" points="351,-191.2 351,-210.2 413,-210.2 413,-191.2 351,-191.2"/>
<polygon fill="none" stroke="#000000" points="351,-191.2 351,-210.2 413,-210.2 413,-191.2 351,-191.2"/>
<text text-anchor="start" x="365.3807" y="-197.3" font-family="Helvetica,sans-Serif" font-size="11.00" fill="#000000">131 rows</text>
<polygon fill="#ffffff" stroke="transparent" points="413,-191.2 413,-210.2 437,-210.2 437,-191.2 413,-191.2"/>
<polygon fill="none" stroke="#000000" points="413,-191.2 413,-210.2 437,-210.2 437,-191.2 413,-191.2"/>
<text text-anchor="start" x="427.8862" y="-197.3" font-family="Helvetica,sans-Serif" font-size="11.00" fill="#000000"> &#160;</text>
</a>
</g>
</g>
<!-- zauth_userroles&#45;&gt;zauth_roles -->
<g id="edge2" class="edge">
<title>zauth_userroles:w&#45;&gt;zauth_roles:e</title>
<path fill="none" stroke="#000000" d="M292.0389,-217.1003C269.2607,-200.1212 290.8124,-136.2 252,-136.2"/>
<polygon fill="#000000" stroke="#000000" points="298.3241,-218.9459 304.9857,-224.6542 302.1621,-220.073 306,-221.2 306,-221.2 306,-221.2 302.1621,-220.073 307.0143,-217.7458 298.3241,-218.9459 298.3241,-218.9459"/>
<ellipse fill="none" stroke="#000000" cx="295.2538" cy="-218.0443" rx="3.2" ry="3.2"/>
</g>
<!-- zauth_users -->
<g id="node4" class="node">
<title>zauth_users</title>
<g id="a_node4"><a xlink:href="../../tables/zauth_users.html" xlink:title="zauth_users" target="_top">
<polygon fill="#ffffff" stroke="transparent" points="76.5,-215.7 76.5,-276.7 185.5,-276.7 185.5,-215.7 76.5,-215.7"/>
<polygon fill="#f5f5f5" stroke="transparent" points="77,-253.2 77,-276.2 186,-276.2 186,-253.2 77,-253.2"/>
<polygon fill="none" stroke="#000000" points="77,-253.2 77,-276.2 186,-276.2 186,-253.2 77,-253.2"/>
<text text-anchor="start" x="82" y="-261.8" font-family="Helvetica,sans-Serif" font-weight="bold" font-size="11.00" fill="#000000">zauth_users</text>
<text text-anchor="start" x="151.5219" y="-261.3" font-family="Helvetica,sans-Serif" font-size="11.00" fill="#000000">[table]</text>
<polygon fill="none" stroke="#000000" points="77,-234.2 77,-253.2 186,-253.2 186,-234.2 77,-234.2"/>
<text text-anchor="start" x="80" y="-240.3" font-family="Helvetica,sans-Serif" font-size="11.00" fill="#000000">...</text>
<polygon fill="#ffffff" stroke="transparent" points="77,-215.2 77,-234.2 105,-234.2 105,-215.2 77,-215.2"/>
<polygon fill="none" stroke="#000000" points="77,-215.2 77,-234.2 105,-234.2 105,-215.2 77,-215.2"/>
<text text-anchor="start" x="80" y="-221.3" font-family="Helvetica,sans-Serif" font-size="11.00" fill="#000000"> &#160;</text>
<polygon fill="#ffffff" stroke="transparent" points="105,-215.2 105,-234.2 157,-234.2 157,-215.2 105,-215.2"/>
<polygon fill="none" stroke="#000000" points="105,-215.2 105,-234.2 157,-234.2 157,-215.2 105,-215.2"/>
<text text-anchor="start" x="115.4956" y="-221.3" font-family="Helvetica,sans-Serif" font-size="11.00" fill="#000000">98 rows</text>
<polygon fill="#ffffff" stroke="transparent" points="157,-215.2 157,-234.2 186,-234.2 186,-215.2 157,-215.2"/>
<polygon fill="none" stroke="#000000" points="157,-215.2 157,-234.2 186,-234.2 186,-215.2 157,-215.2"/>
<text text-anchor="start" x="167.4053" y="-221.3" font-family="Helvetica,sans-Serif" font-size="11.00" fill="#000000">4 &gt;</text>
</a>
</g>
</g>
<!-- zauth_userroles&#45;&gt;zauth_users -->
<g id="edge3" class="edge">
<title>zauth_userroles:w&#45;&gt;zauth_users:e</title>
<path fill="none" stroke="#000000" d="M291.4449,-243.2C249.681,-243.2 234.125,-243.2 186,-243.2"/>
<polygon fill="#000000" stroke="#000000" points="298,-243.2001 306,-246.8 302,-243.2 306,-243.2 306,-243.2 306,-243.2 302,-243.2 306,-239.6 298,-243.2001 298,-243.2001"/>
<ellipse fill="none" stroke="#000000" cx="294.8" cy="-243.2001" rx="3.2" ry="3.2"/>
</g>
</g>
</svg>
