<?xml version="1.0" encoding="UTF-8" standalone="no"?>
<!DOCTYPE svg PUBLIC "-//W3C//DTD SVG 1.1//EN"
 "http://www.w3.org/Graphics/SVG/1.1/DTD/svg11.dtd">
<!-- Generated by graphviz version 2.40.1 (20161225.0304)
 -->
<!-- Title: twoDegreesRelationshipsDiagram Pages: 1 -->
<svg width="499pt" height="985pt"
 viewBox="0.00 0.00 499.00 985.20" xmlns="http://www.w3.org/2000/svg" xmlns:xlink="http://www.w3.org/1999/xlink">
<g id="graph0" class="graph" transform="scale(1 1) rotate(0) translate(4 981.2)">
<title>twoDegreesRelationshipsDiagram</title>
<polygon fill="#ffffff" stroke="transparent" points="-4,4 -4,-981.2 495,-981.2 495,4 -4,4"/>
<text text-anchor="middle" x="72.4936" y="-7.3" font-family="Helvetica,sans-Serif" font-size="11.00" fill="#000000">Generated by SchemaSpy</text>
<!-- zauth_userclaims -->
<g id="node1" class="node">
<title>zauth_userclaims</title>
<g id="a_node1"><a xlink:href="../../tables/zauth_userclaims.html" xlink:title="zauth_userclaims" target="_top">
<polygon fill="#ffffff" stroke="transparent" points="341,-868.2 341,-973.2 480,-973.2 480,-868.2 341,-868.2"/>
<polygon fill="#f5f5f5" stroke="transparent" points="341.5,-949.7 341.5,-972.7 480.5,-972.7 480.5,-949.7 341.5,-949.7"/>
<polygon fill="none" stroke="#000000" points="341.5,-949.7 341.5,-972.7 480.5,-972.7 480.5,-949.7 341.5,-949.7"/>
<text text-anchor="start" x="346.5" y="-958.3" font-family="Helvetica,sans-Serif" font-weight="bold" font-size="11.00" fill="#000000">zauth_userclaims</text>
<text text-anchor="start" x="446.0219" y="-957.8" font-family="Helvetica,sans-Serif" font-size="11.00" fill="#000000">[table]</text>
<polygon fill="none" stroke="#000000" points="341.5,-927.7 341.5,-949.7 480.5,-949.7 480.5,-927.7 341.5,-927.7"/>
<image xlink:href="../../images/primaryKeys.png" width="11px" height="12px" preserveAspectRatio="xMinYMin meet" x="346.5" y="-944.7"/>
<text text-anchor="start" x="370.5" y="-934.8" font-family="Helvetica,sans-Serif" font-size="11.00" fill="#000000">Id</text>
<polygon fill="#ffffff" stroke="transparent" points="341.5,-905.7 341.5,-927.7 480.5,-927.7 480.5,-905.7 341.5,-905.7"/>
<polygon fill="none" stroke="#000000" points="341.5,-905.7 341.5,-927.7 480.5,-927.7 480.5,-905.7 341.5,-905.7"/>
<image xlink:href="../../images/foreignKeys.png" width="11px" height="12px" preserveAspectRatio="xMinYMin meet" x="346.5" y="-922.7"/>
<text text-anchor="start" x="370.5" y="-912.8" font-family="Helvetica,sans-Serif" font-size="11.00" fill="#000000">UserId</text>
<polygon fill="none" stroke="#000000" points="341.5,-886.7 341.5,-905.7 480.5,-905.7 480.5,-886.7 341.5,-886.7"/>
<text text-anchor="start" x="344.5" y="-892.8" font-family="Helvetica,sans-Serif" font-size="11.00" fill="#000000">...</text>
<polygon fill="#ffffff" stroke="transparent" points="341.5,-867.7 341.5,-886.7 396.5,-886.7 396.5,-867.7 341.5,-867.7"/>
<polygon fill="none" stroke="#000000" points="341.5,-867.7 341.5,-886.7 396.5,-886.7 396.5,-867.7 341.5,-867.7"/>
<text text-anchor="start" x="344.5" y="-873.8" font-family="Helvetica,sans-Serif" font-size="11.00" fill="#000000">&lt; 1</text>
<polygon fill="#ffffff" stroke="transparent" points="396.5,-867.7 396.5,-886.7 451.5,-886.7 451.5,-867.7 396.5,-867.7"/>
<polygon fill="none" stroke="#000000" points="396.5,-867.7 396.5,-886.7 451.5,-886.7 451.5,-867.7 396.5,-867.7"/>
<text text-anchor="start" x="416.1105" y="-873.8" font-family="Helvetica,sans-Serif" font-size="11.00" fill="#000000">0 rows</text>
<polygon fill="#ffffff" stroke="transparent" points="451.5,-867.7 451.5,-886.7 480.5,-886.7 480.5,-867.7 451.5,-867.7"/>
<polygon fill="none" stroke="#000000" points="451.5,-867.7 451.5,-886.7 480.5,-886.7 480.5,-867.7 451.5,-867.7"/>
<text text-anchor="start" x="471.3862" y="-873.8" font-family="Helvetica,sans-Serif" font-size="11.00" fill="#000000"> &#160;</text>
</a>
</g>
</g>
<!-- zauth_users -->
<g id="node2" class="node">
<title>zauth_users</title>
<g id="a_node2"><a xlink:href="../../tables/zauth_users.html" xlink:title="zauth_users" target="_top">
<polygon fill="#ffffff" stroke="transparent" points="8,-120.7 8,-804.7 289,-804.7 289,-120.7 8,-120.7"/>
<polygon fill="#f5f5f5" stroke="transparent" points="10.5,-779.7 10.5,-802.7 287.5,-802.7 287.5,-779.7 10.5,-779.7"/>
<polygon fill="none" stroke="#000000" points="10.5,-779.7 10.5,-802.7 287.5,-802.7 287.5,-779.7 10.5,-779.7"/>
<text text-anchor="start" x="15.5" y="-788.3" font-family="Helvetica,sans-Serif" font-weight="bold" font-size="11.00" fill="#000000">zauth_users</text>
<text text-anchor="start" x="252.5437" y="-787.8" font-family="Helvetica,sans-Serif" font-size="11.00" fill="#000000">[table]</text>
<polygon fill="none" stroke="#000000" points="10.5,-757.7 10.5,-779.7 173.5,-779.7 173.5,-757.7 10.5,-757.7"/>
<image xlink:href="../../images/primaryKeys.png" width="11px" height="12px" preserveAspectRatio="xMinYMin meet" x="15.5" y="-774.7"/>
<text text-anchor="start" x="30.5" y="-764.8" font-family="Helvetica,sans-Serif" font-size="11.00" fill="#000000">Id</text>
<polygon fill="none" stroke="#000000" points="173.5,-757.7 173.5,-779.7 287.5,-779.7 287.5,-757.7 173.5,-757.7"/>
<text text-anchor="start" x="176.5" y="-765.4" font-family="Helvetica,sans-Serif" font-size="11.00" fill="#000000">int[10]</text>
<polygon fill="none" stroke="#000000" points="10.5,-735.7 10.5,-757.7 173.5,-757.7 173.5,-735.7 10.5,-735.7"/>
<text text-anchor="start" x="30.5" y="-742.8" font-family="Helvetica,sans-Serif" font-size="11.00" fill="#000000">UserName</text>
<polygon fill="none" stroke="#000000" points="173.5,-735.7 173.5,-757.7 287.5,-757.7 287.5,-735.7 173.5,-735.7"/>
<text text-anchor="start" x="176.5" y="-743.4" font-family="Helvetica,sans-Serif" font-size="11.00" fill="#000000">varchar[128]</text>
<polygon fill="#ffffff" stroke="transparent" points="10.5,-713.7 10.5,-735.7 173.5,-735.7 173.5,-713.7 10.5,-713.7"/>
<polygon fill="none" stroke="#000000" points="10.5,-713.7 10.5,-735.7 173.5,-735.7 173.5,-713.7 10.5,-713.7"/>
<text text-anchor="start" x="30.5" y="-720.8" font-family="Helvetica,sans-Serif" font-size="11.00" fill="#000000">NormalizedUserName</text>
<polygon fill="none" stroke="#000000" points="173.5,-713.7 173.5,-735.7 287.5,-735.7 287.5,-713.7 173.5,-713.7"/>
<text text-anchor="start" x="176.5" y="-721.4" font-family="Helvetica,sans-Serif" font-size="11.00" fill="#000000">varchar[128]</text>
<polygon fill="none" stroke="#000000" points="10.5,-691.7 10.5,-713.7 173.5,-713.7 173.5,-691.7 10.5,-691.7"/>
<text text-anchor="start" x="30.5" y="-698.8" font-family="Helvetica,sans-Serif" font-size="11.00" fill="#000000">Email</text>
<polygon fill="none" stroke="#000000" points="173.5,-691.7 173.5,-713.7 287.5,-713.7 287.5,-691.7 173.5,-691.7"/>
<text text-anchor="start" x="176.5" y="-699.4" font-family="Helvetica,sans-Serif" font-size="11.00" fill="#000000">varchar[256]</text>
<polygon fill="#ffffff" stroke="transparent" points="10.5,-669.7 10.5,-691.7 173.5,-691.7 173.5,-669.7 10.5,-669.7"/>
<polygon fill="none" stroke="#000000" points="10.5,-669.7 10.5,-691.7 173.5,-691.7 173.5,-669.7 10.5,-669.7"/>
<text text-anchor="start" x="30.5" y="-676.8" font-family="Helvetica,sans-Serif" font-size="11.00" fill="#000000">NormalizedEmail</text>
<polygon fill="none" stroke="#000000" points="173.5,-669.7 173.5,-691.7 287.5,-691.7 287.5,-669.7 173.5,-669.7"/>
<text text-anchor="start" x="176.5" y="-677.4" font-family="Helvetica,sans-Serif" font-size="11.00" fill="#000000">varchar[256]</text>
<polygon fill="none" stroke="#000000" points="10.5,-647.7 10.5,-669.7 173.5,-669.7 173.5,-647.7 10.5,-647.7"/>
<text text-anchor="start" x="30.5" y="-654.8" font-family="Helvetica,sans-Serif" font-size="11.00" fill="#000000">EmailConfirmed</text>
<polygon fill="none" stroke="#000000" points="173.5,-647.7 173.5,-669.7 287.5,-669.7 287.5,-647.7 173.5,-647.7"/>
<text text-anchor="start" x="176.5" y="-655.4" font-family="Helvetica,sans-Serif" font-size="11.00" fill="#000000">bit[1]</text>
<polygon fill="none" stroke="#000000" points="10.5,-625.7 10.5,-647.7 173.5,-647.7 173.5,-625.7 10.5,-625.7"/>
<text text-anchor="start" x="30.5" y="-632.8" font-family="Helvetica,sans-Serif" font-size="11.00" fill="#000000">PasswordHash</text>
<polygon fill="none" stroke="#000000" points="173.5,-625.7 173.5,-647.7 287.5,-647.7 287.5,-625.7 173.5,-625.7"/>
<text text-anchor="start" x="176.5" y="-633.4" font-family="Helvetica,sans-Serif" font-size="11.00" fill="#000000">longtext[2147483647]</text>
<polygon fill="none" stroke="#000000" points="10.5,-603.7 10.5,-625.7 173.5,-625.7 173.5,-603.7 10.5,-603.7"/>
<text text-anchor="start" x="30.5" y="-610.8" font-family="Helvetica,sans-Serif" font-size="11.00" fill="#000000">SecurityStamp</text>
<polygon fill="none" stroke="#000000" points="173.5,-603.7 173.5,-625.7 287.5,-625.7 287.5,-603.7 173.5,-603.7"/>
<text text-anchor="start" x="176.5" y="-611.4" font-family="Helvetica,sans-Serif" font-size="11.00" fill="#000000">longtext[2147483647]</text>
<polygon fill="none" stroke="#000000" points="10.5,-581.7 10.5,-603.7 173.5,-603.7 173.5,-581.7 10.5,-581.7"/>
<text text-anchor="start" x="30.5" y="-588.8" font-family="Helvetica,sans-Serif" font-size="11.00" fill="#000000">ConcurrencyStamp</text>
<polygon fill="none" stroke="#000000" points="173.5,-581.7 173.5,-603.7 287.5,-603.7 287.5,-581.7 173.5,-581.7"/>
<text text-anchor="start" x="176.5" y="-589.4" font-family="Helvetica,sans-Serif" font-size="11.00" fill="#000000">longtext[2147483647]</text>
<polygon fill="none" stroke="#000000" points="10.5,-559.7 10.5,-581.7 173.5,-581.7 173.5,-559.7 10.5,-559.7"/>
<text text-anchor="start" x="30.5" y="-566.8" font-family="Helvetica,sans-Serif" font-size="11.00" fill="#000000">PhoneNumber</text>
<polygon fill="none" stroke="#000000" points="173.5,-559.7 173.5,-581.7 287.5,-581.7 287.5,-559.7 173.5,-559.7"/>
<text text-anchor="start" x="176.5" y="-567.4" font-family="Helvetica,sans-Serif" font-size="11.00" fill="#000000">longtext[2147483647]</text>
<polygon fill="none" stroke="#000000" points="10.5,-537.7 10.5,-559.7 173.5,-559.7 173.5,-537.7 10.5,-537.7"/>
<text text-anchor="start" x="30.5" y="-544.8" font-family="Helvetica,sans-Serif" font-size="11.00" fill="#000000">PhoneNumberConfirmed</text>
<polygon fill="none" stroke="#000000" points="173.5,-537.7 173.5,-559.7 287.5,-559.7 287.5,-537.7 173.5,-537.7"/>
<text text-anchor="start" x="176.5" y="-545.4" font-family="Helvetica,sans-Serif" font-size="11.00" fill="#000000">bit[1]</text>
<polygon fill="none" stroke="#000000" points="10.5,-515.7 10.5,-537.7 173.5,-537.7 173.5,-515.7 10.5,-515.7"/>
<text text-anchor="start" x="30.5" y="-522.8" font-family="Helvetica,sans-Serif" font-size="11.00" fill="#000000">TwoFactorEnabled</text>
<polygon fill="none" stroke="#000000" points="173.5,-515.7 173.5,-537.7 287.5,-537.7 287.5,-515.7 173.5,-515.7"/>
<text text-anchor="start" x="176.5" y="-523.4" font-family="Helvetica,sans-Serif" font-size="11.00" fill="#000000">bit[1]</text>
<polygon fill="none" stroke="#000000" points="10.5,-493.7 10.5,-515.7 173.5,-515.7 173.5,-493.7 10.5,-493.7"/>
<text text-anchor="start" x="30.5" y="-500.8" font-family="Helvetica,sans-Serif" font-size="11.00" fill="#000000">LockoutEnd</text>
<polygon fill="none" stroke="#000000" points="173.5,-493.7 173.5,-515.7 287.5,-515.7 287.5,-493.7 173.5,-493.7"/>
<text text-anchor="start" x="176.5" y="-501.4" font-family="Helvetica,sans-Serif" font-size="11.00" fill="#000000">datetime[26]</text>
<polygon fill="none" stroke="#000000" points="10.5,-471.7 10.5,-493.7 173.5,-493.7 173.5,-471.7 10.5,-471.7"/>
<text text-anchor="start" x="30.5" y="-478.8" font-family="Helvetica,sans-Serif" font-size="11.00" fill="#000000">LockoutEnabled</text>
<polygon fill="none" stroke="#000000" points="173.5,-471.7 173.5,-493.7 287.5,-493.7 287.5,-471.7 173.5,-471.7"/>
<text text-anchor="start" x="176.5" y="-479.4" font-family="Helvetica,sans-Serif" font-size="11.00" fill="#000000">bit[1]</text>
<polygon fill="none" stroke="#000000" points="10.5,-449.7 10.5,-471.7 173.5,-471.7 173.5,-449.7 10.5,-449.7"/>
<text text-anchor="start" x="30.5" y="-456.8" font-family="Helvetica,sans-Serif" font-size="11.00" fill="#000000">AccessFailedCount</text>
<polygon fill="none" stroke="#000000" points="173.5,-449.7 173.5,-471.7 287.5,-471.7 287.5,-449.7 173.5,-449.7"/>
<text text-anchor="start" x="176.5" y="-457.4" font-family="Helvetica,sans-Serif" font-size="11.00" fill="#000000">int[10]</text>
<polygon fill="none" stroke="#000000" points="10.5,-427.7 10.5,-449.7 173.5,-449.7 173.5,-427.7 10.5,-427.7"/>
<text text-anchor="start" x="30.5" y="-434.8" font-family="Helvetica,sans-Serif" font-size="11.00" fill="#000000">MasterReferenceFK</text>
<polygon fill="none" stroke="#000000" points="173.5,-427.7 173.5,-449.7 287.5,-449.7 287.5,-427.7 173.5,-427.7"/>
<text text-anchor="start" x="176.5" y="-435.4" font-family="Helvetica,sans-Serif" font-size="11.00" fill="#000000">int[10]</text>
<polygon fill="none" stroke="#000000" points="10.5,-405.7 10.5,-427.7 173.5,-427.7 173.5,-405.7 10.5,-405.7"/>
<text text-anchor="start" x="30.5" y="-412.8" font-family="Helvetica,sans-Serif" font-size="11.00" fill="#000000">UserDealerFK</text>
<polygon fill="none" stroke="#000000" points="173.5,-405.7 173.5,-427.7 287.5,-427.7 287.5,-405.7 173.5,-405.7"/>
<text text-anchor="start" x="176.5" y="-413.4" font-family="Helvetica,sans-Serif" font-size="11.00" fill="#000000">int[10]</text>
<polygon fill="none" stroke="#000000" points="10.5,-383.7 10.5,-405.7 173.5,-405.7 173.5,-383.7 10.5,-383.7"/>
<text text-anchor="start" x="30.5" y="-390.8" font-family="Helvetica,sans-Serif" font-size="11.00" fill="#000000">UserTypeFK</text>
<polygon fill="none" stroke="#000000" points="173.5,-383.7 173.5,-405.7 287.5,-405.7 287.5,-383.7 173.5,-383.7"/>
<text text-anchor="start" x="176.5" y="-391.4" font-family="Helvetica,sans-Serif" font-size="11.00" fill="#000000">int[10]</text>
<polygon fill="none" stroke="#000000" points="10.5,-361.7 10.5,-383.7 173.5,-383.7 173.5,-361.7 10.5,-361.7"/>
<text text-anchor="start" x="30.5" y="-368.8" font-family="Helvetica,sans-Serif" font-size="11.00" fill="#000000">UserLayerID</text>
<polygon fill="none" stroke="#000000" points="173.5,-361.7 173.5,-383.7 287.5,-383.7 287.5,-361.7 173.5,-361.7"/>
<text text-anchor="start" x="176.5" y="-369.4" font-family="Helvetica,sans-Serif" font-size="11.00" fill="#000000">int[10]</text>
<polygon fill="none" stroke="#000000" points="10.5,-339.7 10.5,-361.7 173.5,-361.7 173.5,-339.7 10.5,-339.7"/>
<text text-anchor="start" x="30.5" y="-346.8" font-family="Helvetica,sans-Serif" font-size="11.00" fill="#000000">EmployeeFK</text>
<polygon fill="none" stroke="#000000" points="173.5,-339.7 173.5,-361.7 287.5,-361.7 287.5,-339.7 173.5,-339.7"/>
<text text-anchor="start" x="176.5" y="-347.4" font-family="Helvetica,sans-Serif" font-size="11.00" fill="#000000">int[10]</text>
<polygon fill="none" stroke="#000000" points="10.5,-317.7 10.5,-339.7 173.5,-339.7 173.5,-317.7 10.5,-317.7"/>
<text text-anchor="start" x="30.5" y="-324.8" font-family="Helvetica,sans-Serif" font-size="11.00" fill="#000000">UserPackageFK</text>
<polygon fill="none" stroke="#000000" points="173.5,-317.7 173.5,-339.7 287.5,-339.7 287.5,-317.7 173.5,-317.7"/>
<text text-anchor="start" x="176.5" y="-325.4" font-family="Helvetica,sans-Serif" font-size="11.00" fill="#000000">int[10]</text>
<polygon fill="none" stroke="#000000" points="10.5,-295.7 10.5,-317.7 173.5,-317.7 173.5,-295.7 10.5,-295.7"/>
<text text-anchor="start" x="30.5" y="-302.8" font-family="Helvetica,sans-Serif" font-size="11.00" fill="#000000">UserVentureFK</text>
<polygon fill="none" stroke="#000000" points="173.5,-295.7 173.5,-317.7 287.5,-317.7 287.5,-295.7 173.5,-295.7"/>
<text text-anchor="start" x="176.5" y="-303.4" font-family="Helvetica,sans-Serif" font-size="11.00" fill="#000000">int[10]</text>
<polygon fill="none" stroke="#000000" points="10.5,-273.7 10.5,-295.7 173.5,-295.7 173.5,-273.7 10.5,-273.7"/>
<text text-anchor="start" x="30.5" y="-280.8" font-family="Helvetica,sans-Serif" font-size="11.00" fill="#000000">AuthorizedID</text>
<polygon fill="none" stroke="#000000" points="173.5,-273.7 173.5,-295.7 287.5,-295.7 287.5,-273.7 173.5,-273.7"/>
<text text-anchor="start" x="176.5" y="-281.4" font-family="Helvetica,sans-Serif" font-size="11.00" fill="#000000">int[10]</text>
<polygon fill="none" stroke="#000000" points="10.5,-251.7 10.5,-273.7 173.5,-273.7 173.5,-251.7 10.5,-251.7"/>
<text text-anchor="start" x="30.5" y="-258.8" font-family="Helvetica,sans-Serif" font-size="11.00" fill="#000000">DisplayName</text>
<polygon fill="none" stroke="#000000" points="173.5,-251.7 173.5,-273.7 287.5,-273.7 287.5,-251.7 173.5,-251.7"/>
<text text-anchor="start" x="176.5" y="-259.4" font-family="Helvetica,sans-Serif" font-size="11.00" fill="#000000">longtext[2147483647]</text>
<polygon fill="none" stroke="#000000" points="10.5,-229.7 10.5,-251.7 173.5,-251.7 173.5,-229.7 10.5,-229.7"/>
<text text-anchor="start" x="30.5" y="-236.8" font-family="Helvetica,sans-Serif" font-size="11.00" fill="#000000">Locked</text>
<polygon fill="none" stroke="#000000" points="173.5,-229.7 173.5,-251.7 287.5,-251.7 287.5,-229.7 173.5,-229.7"/>
<text text-anchor="start" x="176.5" y="-237.4" font-family="Helvetica,sans-Serif" font-size="11.00" fill="#000000">bit[1]</text>
<polygon fill="none" stroke="#000000" points="10.5,-207.7 10.5,-229.7 173.5,-229.7 173.5,-207.7 10.5,-207.7"/>
<text text-anchor="start" x="30.5" y="-214.8" font-family="Helvetica,sans-Serif" font-size="11.00" fill="#000000">Photo</text>
<polygon fill="none" stroke="#000000" points="173.5,-207.7 173.5,-229.7 287.5,-229.7 287.5,-207.7 173.5,-207.7"/>
<text text-anchor="start" x="176.083" y="-215.4" font-family="Helvetica,sans-Serif" font-size="11.00" fill="#000000">longblob[2147483647]</text>
<polygon fill="none" stroke="#000000" points="10.5,-185.7 10.5,-207.7 173.5,-207.7 173.5,-185.7 10.5,-185.7"/>
<text text-anchor="start" x="30.5" y="-192.8" font-family="Helvetica,sans-Serif" font-size="11.00" fill="#000000">IsShop</text>
<polygon fill="none" stroke="#000000" points="173.5,-185.7 173.5,-207.7 287.5,-207.7 287.5,-185.7 173.5,-185.7"/>
<text text-anchor="start" x="176.5" y="-193.4" font-family="Helvetica,sans-Serif" font-size="11.00" fill="#000000">bit[1]</text>
<polygon fill="none" stroke="#000000" points="10.5,-163.7 10.5,-185.7 173.5,-185.7 173.5,-163.7 10.5,-163.7"/>
<text text-anchor="start" x="30.5" y="-170.8" font-family="Helvetica,sans-Serif" font-size="11.00" fill="#000000">RefreshTokenExpires</text>
<polygon fill="none" stroke="#000000" points="173.5,-163.7 173.5,-185.7 287.5,-185.7 287.5,-163.7 173.5,-163.7"/>
<text text-anchor="start" x="176.5" y="-171.4" font-family="Helvetica,sans-Serif" font-size="11.00" fill="#000000">datetime[26]</text>
<polygon fill="none" stroke="#000000" points="10.5,-141.7 10.5,-163.7 173.5,-163.7 173.5,-141.7 10.5,-141.7"/>
<text text-anchor="start" x="30.5" y="-148.8" font-family="Helvetica,sans-Serif" font-size="11.00" fill="#000000">RefreshToten</text>
<polygon fill="none" stroke="#000000" points="173.5,-141.7 173.5,-163.7 287.5,-163.7 287.5,-141.7 173.5,-141.7"/>
<text text-anchor="start" x="176.5" y="-149.4" font-family="Helvetica,sans-Serif" font-size="11.00" fill="#000000">longtext[2147483647]</text>
<polygon fill="#ffffff" stroke="transparent" points="10.5,-122.7 10.5,-141.7 80.5,-141.7 80.5,-122.7 10.5,-122.7"/>
<polygon fill="none" stroke="#000000" points="10.5,-122.7 10.5,-141.7 80.5,-141.7 80.5,-122.7 10.5,-122.7"/>
<text text-anchor="start" x="13.5" y="-128.8" font-family="Helvetica,sans-Serif" font-size="11.00" fill="#000000">&lt; 0</text>
<polygon fill="#ffffff" stroke="transparent" points="80.5,-122.7 80.5,-141.7 173.5,-141.7 173.5,-122.7 80.5,-122.7"/>
<polygon fill="none" stroke="#000000" points="80.5,-122.7 80.5,-141.7 173.5,-141.7 173.5,-122.7 80.5,-122.7"/>
<text text-anchor="start" x="131.9956" y="-128.8" font-family="Helvetica,sans-Serif" font-size="11.00" fill="#000000">98 rows</text>
<polygon fill="#ffffff" stroke="transparent" points="173.5,-122.7 173.5,-141.7 287.5,-141.7 287.5,-122.7 173.5,-122.7"/>
<polygon fill="none" stroke="#000000" points="173.5,-122.7 173.5,-141.7 287.5,-141.7 287.5,-122.7 173.5,-122.7"/>
<text text-anchor="start" x="268.9053" y="-128.8" font-family="Helvetica,sans-Serif" font-size="11.00" fill="#000000">4 &gt;</text>
<polygon fill="none" stroke="#000000" stroke-width="2" points="9,-121.7 9,-803.7 288,-803.7 288,-121.7 9,-121.7"/>
</a>
</g>
</g>
<!-- zauth_userclaims&#45;&gt;zauth_users -->
<g id="edge1" class="edge">
<title>zauth_userclaims:w&#45;&gt;zauth_users:e</title>
<path fill="none" stroke="#000000" d="M327.2468,-913.8757C284.5462,-893.4147 351.7756,-768.7 287.5,-768.7"/>
<polygon fill="#000000" stroke="#000000" points="333.6526,-915.145 340.8002,-920.2313 337.5763,-915.9225 341.5,-916.7 341.5,-916.7 341.5,-916.7 337.5763,-915.9225 342.1998,-913.1687 333.6526,-915.145 333.6526,-915.145"/>
<ellipse fill="none" stroke="#000000" cx="330.5136" cy="-914.5229" rx="3.2" ry="3.2"/>
</g>
<!-- zauth_userlogins -->
<g id="node3" class="node">
<title>zauth_userlogins</title>
<g id="a_node3"><a xlink:href="../../tables/zauth_userlogins.html" xlink:title="zauth_userlogins" target="_top">
<polygon fill="#ffffff" stroke="transparent" points="338,-720.2 338,-847.2 483,-847.2 483,-720.2 338,-720.2"/>
<polygon fill="#f5f5f5" stroke="transparent" points="338.5,-823.7 338.5,-846.7 483.5,-846.7 483.5,-823.7 338.5,-823.7"/>
<polygon fill="none" stroke="#000000" points="338.5,-823.7 338.5,-846.7 483.5,-846.7 483.5,-823.7 338.5,-823.7"/>
<text text-anchor="start" x="343.5" y="-832.3" font-family="Helvetica,sans-Serif" font-weight="bold" font-size="11.00" fill="#000000">zauth_userlogins</text>
<text text-anchor="start" x="448.5437" y="-831.8" font-family="Helvetica,sans-Serif" font-size="11.00" fill="#000000">[table]</text>
<polygon fill="none" stroke="#000000" points="338.5,-801.7 338.5,-823.7 483.5,-823.7 483.5,-801.7 338.5,-801.7"/>
<image xlink:href="../../images/primaryKeys.png" width="11px" height="12px" preserveAspectRatio="xMinYMin meet" x="343.5" y="-818.7"/>
<text text-anchor="start" x="358.5" y="-808.8" font-family="Helvetica,sans-Serif" font-size="11.00" fill="#000000">LoginProvider</text>
<polygon fill="none" stroke="#000000" points="338.5,-779.7 338.5,-801.7 483.5,-801.7 483.5,-779.7 338.5,-779.7"/>
<image xlink:href="../../images/primaryKeys.png" width="11px" height="12px" preserveAspectRatio="xMinYMin meet" x="343.5" y="-796.7"/>
<text text-anchor="start" x="358.5" y="-786.8" font-family="Helvetica,sans-Serif" font-size="11.00" fill="#000000">ProviderKey</text>
<polygon fill="#ffffff" stroke="transparent" points="338.5,-757.7 338.5,-779.7 483.5,-779.7 483.5,-757.7 338.5,-757.7"/>
<polygon fill="none" stroke="#000000" points="338.5,-757.7 338.5,-779.7 483.5,-779.7 483.5,-757.7 338.5,-757.7"/>
<image xlink:href="../../images/foreignKeys.png" width="11px" height="12px" preserveAspectRatio="xMinYMin meet" x="343.5" y="-774.7"/>
<text text-anchor="start" x="358.5" y="-764.8" font-family="Helvetica,sans-Serif" font-size="11.00" fill="#000000">UserId</text>
<polygon fill="none" stroke="#000000" points="338.5,-738.7 338.5,-757.7 483.5,-757.7 483.5,-738.7 338.5,-738.7"/>
<text text-anchor="start" x="341.5" y="-744.8" font-family="Helvetica,sans-Serif" font-size="11.00" fill="#000000">...</text>
<polygon fill="#ffffff" stroke="transparent" points="338.5,-719.7 338.5,-738.7 396.5,-738.7 396.5,-719.7 338.5,-719.7"/>
<polygon fill="none" stroke="#000000" points="338.5,-719.7 338.5,-738.7 396.5,-738.7 396.5,-719.7 338.5,-719.7"/>
<text text-anchor="start" x="341.5" y="-725.8" font-family="Helvetica,sans-Serif" font-size="11.00" fill="#000000">&lt; 1</text>
<polygon fill="#ffffff" stroke="transparent" points="396.5,-719.7 396.5,-738.7 452.5,-738.7 452.5,-719.7 396.5,-719.7"/>
<polygon fill="none" stroke="#000000" points="396.5,-719.7 396.5,-738.7 452.5,-738.7 452.5,-719.7 396.5,-719.7"/>
<text text-anchor="start" x="417.1105" y="-725.8" font-family="Helvetica,sans-Serif" font-size="11.00" fill="#000000">0 rows</text>
<polygon fill="#ffffff" stroke="transparent" points="452.5,-719.7 452.5,-738.7 483.5,-738.7 483.5,-719.7 452.5,-719.7"/>
<polygon fill="none" stroke="#000000" points="452.5,-719.7 452.5,-738.7 483.5,-738.7 483.5,-719.7 452.5,-719.7"/>
<text text-anchor="start" x="474.3862" y="-725.8" font-family="Helvetica,sans-Serif" font-size="11.00" fill="#000000"> &#160;</text>
</a>
</g>
</g>
<!-- zauth_userlogins&#45;&gt;zauth_users -->
<g id="edge2" class="edge">
<title>zauth_userlogins:w&#45;&gt;zauth_users:e</title>
<path fill="none" stroke="#000000" d="M323.776,-768.7C311.7815,-768.7 304.3229,-768.7 287.5,-768.7"/>
<polygon fill="#000000" stroke="#000000" points="330.5,-768.7001 338.5,-772.3 334.5,-768.7 338.5,-768.7 338.5,-768.7 338.5,-768.7 334.5,-768.7 338.5,-765.1 330.5,-768.7001 330.5,-768.7001"/>
<ellipse fill="none" stroke="#000000" cx="327.3" cy="-768.7001" rx="3.2" ry="3.2"/>
</g>
<!-- zauth_userroles -->
<g id="node4" class="node">
<title>zauth_userroles</title>
<g id="a_node4"><a xlink:href="../../tables/zauth_userroles.html" xlink:title="zauth_userroles" target="_top">
<polygon fill="#ffffff" stroke="transparent" points="345,-250.7 345,-336.7 476,-336.7 476,-250.7 345,-250.7"/>
<polygon fill="#f5f5f5" stroke="transparent" points="345.5,-313.7 345.5,-336.7 476.5,-336.7 476.5,-313.7 345.5,-313.7"/>
<polygon fill="none" stroke="#000000" points="345.5,-313.7 345.5,-336.7 476.5,-336.7 476.5,-313.7 345.5,-313.7"/>
<text text-anchor="start" x="350.5" y="-322.3" font-family="Helvetica,sans-Serif" font-weight="bold" font-size="11.00" fill="#000000">zauth_userroles</text>
<text text-anchor="start" x="442.0219" y="-321.8" font-family="Helvetica,sans-Serif" font-size="11.00" fill="#000000">[table]</text>
<polygon fill="none" stroke="#000000" points="345.5,-291.7 345.5,-313.7 476.5,-313.7 476.5,-291.7 345.5,-291.7"/>
<image xlink:href="../../images/primaryKeys.png" width="11px" height="12px" preserveAspectRatio="xMinYMin meet" x="350.5" y="-308.7"/>
<text text-anchor="start" x="374.5" y="-298.8" font-family="Helvetica,sans-Serif" font-size="11.00" fill="#000000">UserId</text>
<polygon fill="none" stroke="#000000" points="345.5,-269.7 345.5,-291.7 476.5,-291.7 476.5,-269.7 345.5,-269.7"/>
<image xlink:href="../../images/primaryKeys.png" width="11px" height="12px" preserveAspectRatio="xMinYMin meet" x="350.5" y="-286.7"/>
<text text-anchor="start" x="374.5" y="-276.8" font-family="Helvetica,sans-Serif" font-size="11.00" fill="#000000">RoleId</text>
<polygon fill="#ffffff" stroke="transparent" points="345.5,-250.7 345.5,-269.7 390.5,-269.7 390.5,-250.7 345.5,-250.7"/>
<polygon fill="none" stroke="#000000" points="345.5,-250.7 345.5,-269.7 390.5,-269.7 390.5,-250.7 345.5,-250.7"/>
<text text-anchor="start" x="348.5" y="-256.8" font-family="Helvetica,sans-Serif" font-size="11.00" fill="#000000">&lt; 2</text>
<polygon fill="#ffffff" stroke="transparent" points="390.5,-250.7 390.5,-269.7 452.5,-269.7 452.5,-250.7 390.5,-250.7"/>
<polygon fill="none" stroke="#000000" points="390.5,-250.7 390.5,-269.7 452.5,-269.7 452.5,-250.7 390.5,-250.7"/>
<text text-anchor="start" x="404.8807" y="-256.8" font-family="Helvetica,sans-Serif" font-size="11.00" fill="#000000">131 rows</text>
<polygon fill="#ffffff" stroke="transparent" points="452.5,-250.7 452.5,-269.7 476.5,-269.7 476.5,-250.7 452.5,-250.7"/>
<polygon fill="none" stroke="#000000" points="452.5,-250.7 452.5,-269.7 476.5,-269.7 476.5,-250.7 452.5,-250.7"/>
<text text-anchor="start" x="467.3862" y="-256.8" font-family="Helvetica,sans-Serif" font-size="11.00" fill="#000000"> &#160;</text>
</a>
</g>
</g>
<!-- zauth_userroles&#45;&gt;zauth_users -->
<g id="edge4" class="edge">
<title>zauth_userroles:w&#45;&gt;zauth_users:e</title>
<path fill="none" stroke="#000000" d="M331.5087,-306.183C255.7941,-348.8264 386.5553,-768.7 287.5,-768.7"/>
<polygon fill="#000000" stroke="#000000" points="337.7369,-304.6326 346.3697,-306.1934 341.6185,-303.6663 345.5,-302.7 345.5,-302.7 345.5,-302.7 341.6185,-303.6663 344.6303,-299.2066 337.7369,-304.6326 337.7369,-304.6326"/>
<ellipse fill="none" stroke="#000000" cx="334.6317" cy="-305.4056" rx="3.2" ry="3.2"/>
</g>
<!-- zauth_roles -->
<g id="node5" class="node">
<title>zauth_roles</title>
<g id="a_node5"><a xlink:href="../../tables/zauth_roles.html" xlink:title="zauth_roles" target="_top">
<polygon fill="#ffffff" stroke="transparent" points="96,-38.2 96,-99.2 201,-99.2 201,-38.2 96,-38.2"/>
<polygon fill="#f5f5f5" stroke="transparent" points="96.5,-75.7 96.5,-98.7 201.5,-98.7 201.5,-75.7 96.5,-75.7"/>
<polygon fill="none" stroke="#000000" points="96.5,-75.7 96.5,-98.7 201.5,-98.7 201.5,-75.7 96.5,-75.7"/>
<text text-anchor="start" x="101.5" y="-84.3" font-family="Helvetica,sans-Serif" font-weight="bold" font-size="11.00" fill="#000000">zauth_roles</text>
<text text-anchor="start" x="167.0219" y="-83.8" font-family="Helvetica,sans-Serif" font-size="11.00" fill="#000000">[table]</text>
<polygon fill="none" stroke="#000000" points="96.5,-56.7 96.5,-75.7 201.5,-75.7 201.5,-56.7 96.5,-56.7"/>
<text text-anchor="start" x="99.5" y="-62.8" font-family="Helvetica,sans-Serif" font-size="11.00" fill="#000000">...</text>
<polygon fill="#ffffff" stroke="transparent" points="96.5,-37.7 96.5,-56.7 122.5,-56.7 122.5,-37.7 96.5,-37.7"/>
<polygon fill="none" stroke="#000000" points="96.5,-37.7 96.5,-56.7 122.5,-56.7 122.5,-37.7 96.5,-37.7"/>
<text text-anchor="start" x="99.5" y="-43.8" font-family="Helvetica,sans-Serif" font-size="11.00" fill="#000000"> &#160;</text>
<polygon fill="#ffffff" stroke="transparent" points="122.5,-37.7 122.5,-56.7 173.5,-56.7 173.5,-37.7 122.5,-37.7"/>
<polygon fill="none" stroke="#000000" points="122.5,-37.7 122.5,-56.7 173.5,-56.7 173.5,-37.7 122.5,-37.7"/>
<text text-anchor="start" x="131.9956" y="-43.8" font-family="Helvetica,sans-Serif" font-size="11.00" fill="#000000">56 rows</text>
<polygon fill="#ffffff" stroke="transparent" points="173.5,-37.7 173.5,-56.7 201.5,-56.7 201.5,-37.7 173.5,-37.7"/>
<polygon fill="none" stroke="#000000" points="173.5,-37.7 173.5,-56.7 201.5,-56.7 201.5,-37.7 173.5,-37.7"/>
<text text-anchor="start" x="182.9053" y="-43.8" font-family="Helvetica,sans-Serif" font-size="11.00" fill="#000000">2 &gt;</text>
</a>
</g>
</g>
<!-- zauth_userroles&#45;&gt;zauth_roles -->
<g id="edge3" class="edge">
<title>zauth_userroles:w&#45;&gt;zauth_roles:e</title>
<path fill="none" stroke="#000000" d="M331.1199,-279.1104C277.3544,-265.3462 344.7451,-165.506 297,-109.7 266.6192,-74.19 248.2328,-65.7 201.5,-65.7"/>
<polygon fill="#000000" stroke="#000000" points="337.5484,-279.821 345.1044,-284.2782 341.5242,-280.2605 345.5,-280.7 345.5,-280.7 345.5,-280.7 341.5242,-280.2605 345.8956,-277.1218 337.5484,-279.821 337.5484,-279.821"/>
<ellipse fill="none" stroke="#000000" cx="334.3678" cy="-279.4693" rx="3.2" ry="3.2"/>
</g>
<!-- zauth_usertokens -->
<g id="node6" class="node">
<title>zauth_usertokens</title>
<g id="a_node6"><a xlink:href="../../tables/zauth_usertokens.html" xlink:title="zauth_usertokens" target="_top">
<polygon fill="#ffffff" stroke="transparent" points="340,-572.2 340,-699.2 481,-699.2 481,-572.2 340,-572.2"/>
<polygon fill="#f5f5f5" stroke="transparent" points="340.5,-675.7 340.5,-698.7 481.5,-698.7 481.5,-675.7 340.5,-675.7"/>
<polygon fill="none" stroke="#000000" points="340.5,-675.7 340.5,-698.7 481.5,-698.7 481.5,-675.7 340.5,-675.7"/>
<text text-anchor="start" x="345.5" y="-684.3" font-family="Helvetica,sans-Serif" font-weight="bold" font-size="11.00" fill="#000000">zauth_usertokens</text>
<text text-anchor="start" x="447.0219" y="-683.8" font-family="Helvetica,sans-Serif" font-size="11.00" fill="#000000">[table]</text>
<polygon fill="none" stroke="#000000" points="340.5,-653.7 340.5,-675.7 481.5,-675.7 481.5,-653.7 340.5,-653.7"/>
<image xlink:href="../../images/primaryKeys.png" width="11px" height="12px" preserveAspectRatio="xMinYMin meet" x="345.5" y="-670.7"/>
<text text-anchor="start" x="369.5" y="-660.8" font-family="Helvetica,sans-Serif" font-size="11.00" fill="#000000">UserId</text>
<polygon fill="none" stroke="#000000" points="340.5,-631.7 340.5,-653.7 481.5,-653.7 481.5,-631.7 340.5,-631.7"/>
<image xlink:href="../../images/primaryKeys.png" width="11px" height="12px" preserveAspectRatio="xMinYMin meet" x="345.5" y="-648.7"/>
<text text-anchor="start" x="369.5" y="-638.8" font-family="Helvetica,sans-Serif" font-size="11.00" fill="#000000">LoginProvider</text>
<polygon fill="none" stroke="#000000" points="340.5,-609.7 340.5,-631.7 481.5,-631.7 481.5,-609.7 340.5,-609.7"/>
<image xlink:href="../../images/primaryKeys.png" width="11px" height="12px" preserveAspectRatio="xMinYMin meet" x="345.5" y="-626.7"/>
<text text-anchor="start" x="369.5" y="-616.8" font-family="Helvetica,sans-Serif" font-size="11.00" fill="#000000">Name</text>
<polygon fill="none" stroke="#000000" points="340.5,-590.7 340.5,-609.7 481.5,-609.7 481.5,-590.7 340.5,-590.7"/>
<text text-anchor="start" x="343.5" y="-596.8" font-family="Helvetica,sans-Serif" font-size="11.00" fill="#000000">...</text>
<polygon fill="#ffffff" stroke="transparent" points="340.5,-571.7 340.5,-590.7 396.5,-590.7 396.5,-571.7 340.5,-571.7"/>
<polygon fill="none" stroke="#000000" points="340.5,-571.7 340.5,-590.7 396.5,-590.7 396.5,-571.7 340.5,-571.7"/>
<text text-anchor="start" x="343.5" y="-577.8" font-family="Helvetica,sans-Serif" font-size="11.00" fill="#000000">&lt; 1</text>
<polygon fill="#ffffff" stroke="transparent" points="396.5,-571.7 396.5,-590.7 451.5,-590.7 451.5,-571.7 396.5,-571.7"/>
<polygon fill="none" stroke="#000000" points="396.5,-571.7 396.5,-590.7 451.5,-590.7 451.5,-571.7 396.5,-571.7"/>
<text text-anchor="start" x="416.1105" y="-577.8" font-family="Helvetica,sans-Serif" font-size="11.00" fill="#000000">0 rows</text>
<polygon fill="#ffffff" stroke="transparent" points="451.5,-571.7 451.5,-590.7 481.5,-590.7 481.5,-571.7 451.5,-571.7"/>
<polygon fill="none" stroke="#000000" points="451.5,-571.7 451.5,-590.7 481.5,-590.7 481.5,-571.7 451.5,-571.7"/>
<text text-anchor="start" x="472.3862" y="-577.8" font-family="Helvetica,sans-Serif" font-size="11.00" fill="#000000"> &#160;</text>
</a>
</g>
</g>
<!-- zauth_usertokens&#45;&gt;zauth_users -->
<g id="edge5" class="edge">
<title>zauth_usertokens:w&#45;&gt;zauth_users:e</title>
<path fill="none" stroke="#000000" d="M326.5223,-668.4014C298.8042,-686.9279 333.5015,-768.7 287.5,-768.7"/>
<polygon fill="#000000" stroke="#000000" points="332.7666,-666.7479 341.4216,-668.1801 336.6333,-665.724 340.5,-664.7 340.5,-664.7 340.5,-664.7 336.6333,-665.724 339.5784,-661.2199 332.7666,-666.7479 332.7666,-666.7479"/>
<ellipse fill="none" stroke="#000000" cx="329.6732" cy="-667.5671" rx="3.2" ry="3.2"/>
</g>
</g>
</svg>
