<?xml version="1.0" encoding="UTF-8" standalone="no"?>
<!DOCTYPE svg PUBLIC "-//W3C//DTD SVG 1.1//EN"
 "http://www.w3.org/Graphics/SVG/1.1/DTD/svg11.dtd">
<!-- Generated by graphviz version 2.40.1 (20161225.0304)
 -->
<!-- Title: twoDegreesRelationshipsDiagram Pages: 1 -->
<svg width="388pt" height="469pt"
 viewBox="0.00 0.00 388.00 469.20" xmlns="http://www.w3.org/2000/svg" xmlns:xlink="http://www.w3.org/1999/xlink">
<g id="graph0" class="graph" transform="scale(1 1) rotate(0) translate(4 465.2)">
<title>twoDegreesRelationshipsDiagram</title>
<polygon fill="#ffffff" stroke="transparent" points="-4,4 -4,-465.2 384,-465.2 384,4 -4,4"/>
<text text-anchor="middle" x="72.4936" y="-7.3" font-family="Helvetica,sans-Serif" font-size="11.00" fill="#000000">Generated by SchemaSpy</text>
<!-- zauth_roleclaims -->
<g id="node1" class="node">
<title>zauth_roleclaims</title>
<g id="a_node1"><a xlink:href="../../tables/zauth_roleclaims.html" xlink:title="zauth_roleclaims" target="_top">
<polygon fill="#ffffff" stroke="transparent" points="228,-396.2 228,-457.2 364,-457.2 364,-396.2 228,-396.2"/>
<polygon fill="#f5f5f5" stroke="transparent" points="228,-433.7 228,-456.7 364,-456.7 364,-433.7 228,-433.7"/>
<polygon fill="none" stroke="#000000" points="228,-433.7 228,-456.7 364,-456.7 364,-433.7 228,-433.7"/>
<text text-anchor="start" x="233" y="-442.3" font-family="Helvetica,sans-Serif" font-weight="bold" font-size="11.00" fill="#000000">zauth_roleclaims</text>
<text text-anchor="start" x="329.5219" y="-441.8" font-family="Helvetica,sans-Serif" font-size="11.00" fill="#000000">[table]</text>
<polygon fill="none" stroke="#000000" points="228,-414.7 228,-433.7 364,-433.7 364,-414.7 228,-414.7"/>
<text text-anchor="start" x="231" y="-420.8" font-family="Helvetica,sans-Serif" font-size="11.00" fill="#000000">...</text>
<polygon fill="#ffffff" stroke="transparent" points="228,-395.7 228,-414.7 281,-414.7 281,-395.7 228,-395.7"/>
<polygon fill="none" stroke="#000000" points="228,-395.7 228,-414.7 281,-414.7 281,-395.7 228,-395.7"/>
<text text-anchor="start" x="231" y="-401.8" font-family="Helvetica,sans-Serif" font-size="11.00" fill="#000000">&lt; 1</text>
<polygon fill="#ffffff" stroke="transparent" points="281,-395.7 281,-414.7 335,-414.7 335,-395.7 281,-395.7"/>
<polygon fill="none" stroke="#000000" points="281,-395.7 281,-414.7 335,-414.7 335,-395.7 281,-395.7"/>
<text text-anchor="start" x="299.6105" y="-401.8" font-family="Helvetica,sans-Serif" font-size="11.00" fill="#000000">0 rows</text>
<polygon fill="#ffffff" stroke="transparent" points="335,-395.7 335,-414.7 364,-414.7 364,-395.7 335,-395.7"/>
<polygon fill="none" stroke="#000000" points="335,-395.7 335,-414.7 364,-414.7 364,-395.7 335,-395.7"/>
<text text-anchor="start" x="354.8862" y="-401.8" font-family="Helvetica,sans-Serif" font-size="11.00" fill="#000000"> &#160;</text>
</a>
</g>
</g>
<!-- zauth_roles -->
<g id="node2" class="node">
<title>zauth_roles</title>
<g id="a_node2"><a xlink:href="../../tables/zauth_roles.html" xlink:title="zauth_roles" target="_top">
<polygon fill="#ffffff" stroke="transparent" points="24,-276.2 24,-381.2 155,-381.2 155,-276.2 24,-276.2"/>
<polygon fill="#f5f5f5" stroke="transparent" points="24.5,-357.7 24.5,-380.7 155.5,-380.7 155.5,-357.7 24.5,-357.7"/>
<polygon fill="none" stroke="#000000" points="24.5,-357.7 24.5,-380.7 155.5,-380.7 155.5,-357.7 24.5,-357.7"/>
<text text-anchor="start" x="29.5" y="-366.3" font-family="Helvetica,sans-Serif" font-weight="bold" font-size="11.00" fill="#000000">zauth_roles</text>
<text text-anchor="start" x="120.5437" y="-365.8" font-family="Helvetica,sans-Serif" font-size="11.00" fill="#000000">[table]</text>
<polygon fill="none" stroke="#000000" points="24.5,-335.7 24.5,-357.7 155.5,-357.7 155.5,-335.7 24.5,-335.7"/>
<image xlink:href="../../images/primaryKeys.png" width="11px" height="12px" preserveAspectRatio="xMinYMin meet" x="29.5" y="-352.7"/>
<text text-anchor="start" x="44.5" y="-342.8" font-family="Helvetica,sans-Serif" font-size="11.00" fill="#000000">Id</text>
<polygon fill="#ffffff" stroke="transparent" points="24.5,-313.7 24.5,-335.7 155.5,-335.7 155.5,-313.7 24.5,-313.7"/>
<polygon fill="none" stroke="#000000" points="24.5,-313.7 24.5,-335.7 155.5,-335.7 155.5,-313.7 24.5,-313.7"/>
<text text-anchor="start" x="44.5" y="-320.8" font-family="Helvetica,sans-Serif" font-size="11.00" fill="#000000">NormalizedName</text>
<polygon fill="none" stroke="#000000" points="24.5,-294.7 24.5,-313.7 155.5,-313.7 155.5,-294.7 24.5,-294.7"/>
<text text-anchor="start" x="27.5" y="-300.8" font-family="Helvetica,sans-Serif" font-size="11.00" fill="#000000">...</text>
<polygon fill="#ffffff" stroke="transparent" points="24.5,-275.7 24.5,-294.7 63.5,-294.7 63.5,-275.7 24.5,-275.7"/>
<polygon fill="none" stroke="#000000" points="24.5,-275.7 24.5,-294.7 63.5,-294.7 63.5,-275.7 24.5,-275.7"/>
<text text-anchor="start" x="27.5" y="-281.8" font-family="Helvetica,sans-Serif" font-size="11.00" fill="#000000"> &#160;</text>
<polygon fill="#ffffff" stroke="transparent" points="63.5,-275.7 63.5,-294.7 120.5,-294.7 120.5,-275.7 63.5,-275.7"/>
<polygon fill="none" stroke="#000000" points="63.5,-275.7 63.5,-294.7 120.5,-294.7 120.5,-275.7 63.5,-275.7"/>
<text text-anchor="start" x="78.9956" y="-281.8" font-family="Helvetica,sans-Serif" font-size="11.00" fill="#000000">56 rows</text>
<polygon fill="#ffffff" stroke="transparent" points="120.5,-275.7 120.5,-294.7 155.5,-294.7 155.5,-275.7 120.5,-275.7"/>
<polygon fill="none" stroke="#000000" points="120.5,-275.7 120.5,-294.7 155.5,-294.7 155.5,-275.7 120.5,-275.7"/>
<text text-anchor="start" x="136.9053" y="-281.8" font-family="Helvetica,sans-Serif" font-size="11.00" fill="#000000">2 &gt;</text>
</a>
</g>
</g>
<!-- zauth_roleclaims&#45;&gt;zauth_roles -->
<g id="edge1" class="edge">
<title>zauth_roleclaims:w&#45;&gt;zauth_roles:e</title>
<path fill="none" stroke="#000000" d="M213.6948,-420.5861C185.2,-406.1807 196.8126,-346.7 155.5,-346.7"/>
<polygon fill="#000000" stroke="#000000" points="220.183,-421.9984 227.2343,-427.2176 224.0915,-422.8492 228,-423.7 228,-423.7 228,-423.7 224.0915,-422.8492 228.7657,-420.1824 220.183,-421.9984 220.183,-421.9984"/>
<ellipse fill="none" stroke="#000000" cx="217.0563" cy="-421.3178" rx="3.2" ry="3.2"/>
</g>
<!-- zauth_userclaims -->
<g id="node3" class="node">
<title>zauth_userclaims</title>
<g id="a_node3"><a xlink:href="../../tables/zauth_userclaims.html" xlink:title="zauth_userclaims" target="_top">
<polygon fill="#ffffff" stroke="transparent" points="226.5,-202.2 226.5,-263.2 365.5,-263.2 365.5,-202.2 226.5,-202.2"/>
<polygon fill="#f5f5f5" stroke="transparent" points="227,-239.7 227,-262.7 366,-262.7 366,-239.7 227,-239.7"/>
<polygon fill="none" stroke="#000000" points="227,-239.7 227,-262.7 366,-262.7 366,-239.7 227,-239.7"/>
<text text-anchor="start" x="232" y="-248.3" font-family="Helvetica,sans-Serif" font-weight="bold" font-size="11.00" fill="#000000">zauth_userclaims</text>
<text text-anchor="start" x="331.5219" y="-247.8" font-family="Helvetica,sans-Serif" font-size="11.00" fill="#000000">[table]</text>
<polygon fill="none" stroke="#000000" points="227,-220.7 227,-239.7 366,-239.7 366,-220.7 227,-220.7"/>
<text text-anchor="start" x="230" y="-226.8" font-family="Helvetica,sans-Serif" font-size="11.00" fill="#000000">...</text>
<polygon fill="#ffffff" stroke="transparent" points="227,-201.7 227,-220.7 282,-220.7 282,-201.7 227,-201.7"/>
<polygon fill="none" stroke="#000000" points="227,-201.7 227,-220.7 282,-220.7 282,-201.7 227,-201.7"/>
<text text-anchor="start" x="230" y="-207.8" font-family="Helvetica,sans-Serif" font-size="11.00" fill="#000000">&lt; 1</text>
<polygon fill="#ffffff" stroke="transparent" points="282,-201.7 282,-220.7 337,-220.7 337,-201.7 282,-201.7"/>
<polygon fill="none" stroke="#000000" points="282,-201.7 282,-220.7 337,-220.7 337,-201.7 282,-201.7"/>
<text text-anchor="start" x="301.6105" y="-207.8" font-family="Helvetica,sans-Serif" font-size="11.00" fill="#000000">0 rows</text>
<polygon fill="#ffffff" stroke="transparent" points="337,-201.7 337,-220.7 366,-220.7 366,-201.7 337,-201.7"/>
<polygon fill="none" stroke="#000000" points="337,-201.7 337,-220.7 366,-220.7 366,-201.7 337,-201.7"/>
<text text-anchor="start" x="356.8862" y="-207.8" font-family="Helvetica,sans-Serif" font-size="11.00" fill="#000000"> &#160;</text>
</a>
</g>
</g>
<!-- zauth_users -->
<g id="node4" class="node">
<title>zauth_users</title>
<g id="a_node4"><a xlink:href="../../tables/zauth_users.html" xlink:title="zauth_users" target="_top">
<polygon fill="#ffffff" stroke="transparent" points="8,-107.2 8,-234.2 171,-234.2 171,-107.2 8,-107.2"/>
<polygon fill="#f5f5f5" stroke="transparent" points="8.5,-210.7 8.5,-233.7 171.5,-233.7 171.5,-210.7 8.5,-210.7"/>
<polygon fill="none" stroke="#000000" points="8.5,-210.7 8.5,-233.7 171.5,-233.7 171.5,-210.7 8.5,-210.7"/>
<text text-anchor="start" x="13.5" y="-219.3" font-family="Helvetica,sans-Serif" font-weight="bold" font-size="11.00" fill="#000000">zauth_users</text>
<text text-anchor="start" x="136.5437" y="-218.8" font-family="Helvetica,sans-Serif" font-size="11.00" fill="#000000">[table]</text>
<polygon fill="none" stroke="#000000" points="8.5,-188.7 8.5,-210.7 171.5,-210.7 171.5,-188.7 8.5,-188.7"/>
<image xlink:href="../../images/primaryKeys.png" width="11px" height="12px" preserveAspectRatio="xMinYMin meet" x="13.5" y="-205.7"/>
<text text-anchor="start" x="28.5" y="-195.8" font-family="Helvetica,sans-Serif" font-size="11.00" fill="#000000">Id</text>
<polygon fill="#ffffff" stroke="transparent" points="8.5,-166.7 8.5,-188.7 171.5,-188.7 171.5,-166.7 8.5,-166.7"/>
<polygon fill="none" stroke="#000000" points="8.5,-166.7 8.5,-188.7 171.5,-188.7 171.5,-166.7 8.5,-166.7"/>
<text text-anchor="start" x="28.5" y="-173.8" font-family="Helvetica,sans-Serif" font-size="11.00" fill="#000000">NormalizedUserName</text>
<polygon fill="#ffffff" stroke="transparent" points="8.5,-144.7 8.5,-166.7 171.5,-166.7 171.5,-144.7 8.5,-144.7"/>
<polygon fill="none" stroke="#000000" points="8.5,-144.7 8.5,-166.7 171.5,-166.7 171.5,-144.7 8.5,-144.7"/>
<text text-anchor="start" x="28.5" y="-151.8" font-family="Helvetica,sans-Serif" font-size="11.00" fill="#000000">NormalizedEmail</text>
<polygon fill="none" stroke="#000000" points="8.5,-125.7 8.5,-144.7 171.5,-144.7 171.5,-125.7 8.5,-125.7"/>
<text text-anchor="start" x="11.5" y="-131.8" font-family="Helvetica,sans-Serif" font-size="11.00" fill="#000000">...</text>
<polygon fill="#ffffff" stroke="transparent" points="8.5,-106.7 8.5,-125.7 63.5,-125.7 63.5,-106.7 8.5,-106.7"/>
<polygon fill="none" stroke="#000000" points="8.5,-106.7 8.5,-125.7 63.5,-125.7 63.5,-106.7 8.5,-106.7"/>
<text text-anchor="start" x="11.5" y="-112.8" font-family="Helvetica,sans-Serif" font-size="11.00" fill="#000000"> &#160;</text>
<polygon fill="#ffffff" stroke="transparent" points="63.5,-106.7 63.5,-125.7 128.5,-125.7 128.5,-106.7 63.5,-106.7"/>
<polygon fill="none" stroke="#000000" points="63.5,-106.7 63.5,-125.7 128.5,-125.7 128.5,-106.7 63.5,-106.7"/>
<text text-anchor="start" x="86.9956" y="-112.8" font-family="Helvetica,sans-Serif" font-size="11.00" fill="#000000">98 rows</text>
<polygon fill="#ffffff" stroke="transparent" points="128.5,-106.7 128.5,-125.7 171.5,-125.7 171.5,-106.7 128.5,-106.7"/>
<polygon fill="none" stroke="#000000" points="128.5,-106.7 128.5,-125.7 171.5,-125.7 171.5,-106.7 128.5,-106.7"/>
<text text-anchor="start" x="152.9053" y="-112.8" font-family="Helvetica,sans-Serif" font-size="11.00" fill="#000000">4 &gt;</text>
</a>
</g>
</g>
<!-- zauth_userclaims&#45;&gt;zauth_users -->
<g id="edge2" class="edge">
<title>zauth_userclaims:w&#45;&gt;zauth_users:e</title>
<path fill="none" stroke="#000000" d="M212.5391,-226.2586C197.9314,-218.3786 193.625,-199.7 171.5,-199.7"/>
<polygon fill="#000000" stroke="#000000" points="219.2173,-227.8479 226.1665,-233.2022 223.1087,-228.7739 227,-229.7 227,-229.7 227,-229.7 223.1087,-228.7739 227.8335,-226.1978 219.2173,-227.8479 219.2173,-227.8479"/>
<ellipse fill="none" stroke="#000000" cx="216.1043" cy="-227.107" rx="3.2" ry="3.2"/>
</g>
<!-- zauth_userlogins -->
<g id="node5" class="node">
<title>zauth_userlogins</title>
<g id="a_node5"><a xlink:href="../../tables/zauth_userlogins.html" xlink:title="zauth_userlogins" target="_top">
<polygon fill="#ffffff" stroke="transparent" points="227.5,-120.2 227.5,-181.2 364.5,-181.2 364.5,-120.2 227.5,-120.2"/>
<polygon fill="#f5f5f5" stroke="transparent" points="228,-157.7 228,-180.7 365,-180.7 365,-157.7 228,-157.7"/>
<polygon fill="none" stroke="#000000" points="228,-157.7 228,-180.7 365,-180.7 365,-157.7 228,-157.7"/>
<text text-anchor="start" x="233" y="-166.3" font-family="Helvetica,sans-Serif" font-weight="bold" font-size="11.00" fill="#000000">zauth_userlogins</text>
<text text-anchor="start" x="330.5219" y="-165.8" font-family="Helvetica,sans-Serif" font-size="11.00" fill="#000000">[table]</text>
<polygon fill="none" stroke="#000000" points="228,-138.7 228,-157.7 365,-157.7 365,-138.7 228,-138.7"/>
<text text-anchor="start" x="231" y="-144.8" font-family="Helvetica,sans-Serif" font-size="11.00" fill="#000000">...</text>
<polygon fill="#ffffff" stroke="transparent" points="228,-119.7 228,-138.7 282,-138.7 282,-119.7 228,-119.7"/>
<polygon fill="none" stroke="#000000" points="228,-119.7 228,-138.7 282,-138.7 282,-119.7 228,-119.7"/>
<text text-anchor="start" x="231" y="-125.8" font-family="Helvetica,sans-Serif" font-size="11.00" fill="#000000">&lt; 1</text>
<polygon fill="#ffffff" stroke="transparent" points="282,-119.7 282,-138.7 336,-138.7 336,-119.7 282,-119.7"/>
<polygon fill="none" stroke="#000000" points="282,-119.7 282,-138.7 336,-138.7 336,-119.7 282,-119.7"/>
<text text-anchor="start" x="300.6105" y="-125.8" font-family="Helvetica,sans-Serif" font-size="11.00" fill="#000000">0 rows</text>
<polygon fill="#ffffff" stroke="transparent" points="336,-119.7 336,-138.7 365,-138.7 365,-119.7 336,-119.7"/>
<polygon fill="none" stroke="#000000" points="336,-119.7 336,-138.7 365,-138.7 365,-119.7 336,-119.7"/>
<text text-anchor="start" x="355.8862" y="-125.8" font-family="Helvetica,sans-Serif" font-size="11.00" fill="#000000"> &#160;</text>
</a>
</g>
</g>
<!-- zauth_userlogins&#45;&gt;zauth_users -->
<g id="edge3" class="edge">
<title>zauth_userlogins:w&#45;&gt;zauth_users:e</title>
<path fill="none" stroke="#000000" d="M214.0033,-151.7804C196.5578,-164.0389 199.7619,-199.7 171.5,-199.7"/>
<polygon fill="#000000" stroke="#000000" points="220.3197,-149.939 229.0076,-151.1561 224.1599,-148.8195 228,-147.7 228,-147.7 228,-147.7 224.1599,-148.8195 226.9924,-144.2439 220.3197,-149.939 220.3197,-149.939"/>
<ellipse fill="none" stroke="#000000" cx="217.2476" cy="-150.8346" rx="3.2" ry="3.2"/>
</g>
<!-- zauth_userroles -->
<g id="node6" class="node">
<title>zauth_userroles</title>
<g id="a_node6"><a xlink:href="../../tables/zauth_userroles.html" xlink:title="zauth_userroles" target="_top">
<polygon fill="#ffffff" stroke="transparent" points="220,-284.7 220,-374.7 372,-374.7 372,-284.7 220,-284.7"/>
<polygon fill="#f5f5f5" stroke="transparent" points="222,-349.7 222,-372.7 370,-372.7 370,-349.7 222,-349.7"/>
<polygon fill="none" stroke="#000000" points="222,-349.7 222,-372.7 370,-372.7 370,-349.7 222,-349.7"/>
<text text-anchor="start" x="227" y="-358.3" font-family="Helvetica,sans-Serif" font-weight="bold" font-size="11.00" fill="#000000">zauth_userroles</text>
<text text-anchor="start" x="335.0437" y="-357.8" font-family="Helvetica,sans-Serif" font-size="11.00" fill="#000000">[table]</text>
<polygon fill="none" stroke="#000000" points="222,-327.7 222,-349.7 335,-349.7 335,-327.7 222,-327.7"/>
<image xlink:href="../../images/primaryKeys.png" width="11px" height="12px" preserveAspectRatio="xMinYMin meet" x="227" y="-344.7"/>
<text text-anchor="start" x="242" y="-334.8" font-family="Helvetica,sans-Serif" font-size="11.00" fill="#000000">UserId</text>
<polygon fill="none" stroke="#000000" points="335,-327.7 335,-349.7 370,-349.7 370,-327.7 335,-327.7"/>
<text text-anchor="start" x="337.5219" y="-335.4" font-family="Helvetica,sans-Serif" font-size="11.00" fill="#000000">int[10]</text>
<polygon fill="none" stroke="#000000" points="222,-305.7 222,-327.7 335,-327.7 335,-305.7 222,-305.7"/>
<image xlink:href="../../images/primaryKeys.png" width="11px" height="12px" preserveAspectRatio="xMinYMin meet" x="227" y="-322.7"/>
<text text-anchor="start" x="242" y="-312.8" font-family="Helvetica,sans-Serif" font-size="11.00" fill="#000000">RoleId</text>
<polygon fill="none" stroke="#000000" points="335,-305.7 335,-327.7 370,-327.7 370,-305.7 335,-305.7"/>
<text text-anchor="start" x="337.5219" y="-313.4" font-family="Helvetica,sans-Serif" font-size="11.00" fill="#000000">int[10]</text>
<polygon fill="#ffffff" stroke="transparent" points="222,-286.7 222,-305.7 264,-305.7 264,-286.7 222,-286.7"/>
<polygon fill="none" stroke="#000000" points="222,-286.7 222,-305.7 264,-305.7 264,-286.7 222,-286.7"/>
<text text-anchor="start" x="225" y="-292.8" font-family="Helvetica,sans-Serif" font-size="11.00" fill="#000000">&lt; 2</text>
<polygon fill="#ffffff" stroke="transparent" points="264,-286.7 264,-305.7 335,-305.7 335,-286.7 264,-286.7"/>
<polygon fill="none" stroke="#000000" points="264,-286.7 264,-305.7 335,-305.7 335,-286.7 264,-286.7"/>
<text text-anchor="start" x="287.3807" y="-292.8" font-family="Helvetica,sans-Serif" font-size="11.00" fill="#000000">131 rows</text>
<polygon fill="#ffffff" stroke="transparent" points="335,-286.7 335,-305.7 370,-305.7 370,-286.7 335,-286.7"/>
<polygon fill="none" stroke="#000000" points="335,-286.7 335,-305.7 370,-305.7 370,-286.7 335,-286.7"/>
<text text-anchor="start" x="351.4053" y="-292.8" font-family="Helvetica,sans-Serif" font-size="11.00" fill="#000000">0 &gt;</text>
<polygon fill="none" stroke="#000000" stroke-width="2" points="221,-285.7 221,-373.7 371,-373.7 371,-285.7 221,-285.7"/>
</a>
</g>
</g>
<!-- zauth_userroles&#45;&gt;zauth_roles -->
<g id="edge4" class="edge">
<title>zauth_userroles:w&#45;&gt;zauth_roles:e</title>
<path fill="none" stroke="#000000" d="M207.696,-319.054C188.0991,-326.1263 182.351,-346.7 155.5,-346.7"/>
<polygon fill="#000000" stroke="#000000" points="214.1062,-317.9992 222.5846,-320.2522 218.0531,-317.3496 222,-316.7 222,-316.7 222,-316.7 218.0531,-317.3496 221.4154,-313.1478 214.1062,-317.9992 214.1062,-317.9992"/>
<ellipse fill="none" stroke="#000000" cx="210.9487" cy="-318.5188" rx="3.2" ry="3.2"/>
</g>
<!-- zauth_userroles&#45;&gt;zauth_users -->
<g id="edge5" class="edge">
<title>zauth_userroles:w&#45;&gt;zauth_users:e</title>
<path fill="none" stroke="#000000" d="M207.6234,-335.5356C169.6344,-314.8454 231.3233,-199.7 171.5,-199.7"/>
<polygon fill="#000000" stroke="#000000" points="214.187,-336.9803 221.2261,-342.2158 218.0935,-337.8401 222,-338.7 222,-338.7 222,-338.7 218.0935,-337.8401 222.7739,-335.1842 214.187,-336.9803 214.187,-336.9803"/>
<ellipse fill="none" stroke="#000000" cx="211.0618" cy="-336.2924" rx="3.2" ry="3.2"/>
</g>
<!-- zauth_usertokens -->
<g id="node7" class="node">
<title>zauth_usertokens</title>
<g id="a_node7"><a xlink:href="../../tables/zauth_usertokens.html" xlink:title="zauth_usertokens" target="_top">
<polygon fill="#ffffff" stroke="transparent" points="225.5,-38.2 225.5,-99.2 366.5,-99.2 366.5,-38.2 225.5,-38.2"/>
<polygon fill="#f5f5f5" stroke="transparent" points="226,-75.7 226,-98.7 367,-98.7 367,-75.7 226,-75.7"/>
<polygon fill="none" stroke="#000000" points="226,-75.7 226,-98.7 367,-98.7 367,-75.7 226,-75.7"/>
<text text-anchor="start" x="231" y="-84.3" font-family="Helvetica,sans-Serif" font-weight="bold" font-size="11.00" fill="#000000">zauth_usertokens</text>
<text text-anchor="start" x="332.5219" y="-83.8" font-family="Helvetica,sans-Serif" font-size="11.00" fill="#000000">[table]</text>
<polygon fill="none" stroke="#000000" points="226,-56.7 226,-75.7 367,-75.7 367,-56.7 226,-56.7"/>
<text text-anchor="start" x="229" y="-62.8" font-family="Helvetica,sans-Serif" font-size="11.00" fill="#000000">...</text>
<polygon fill="#ffffff" stroke="transparent" points="226,-37.7 226,-56.7 282,-56.7 282,-37.7 226,-37.7"/>
<polygon fill="none" stroke="#000000" points="226,-37.7 226,-56.7 282,-56.7 282,-37.7 226,-37.7"/>
<text text-anchor="start" x="229" y="-43.8" font-family="Helvetica,sans-Serif" font-size="11.00" fill="#000000">&lt; 1</text>
<polygon fill="#ffffff" stroke="transparent" points="282,-37.7 282,-56.7 337,-56.7 337,-37.7 282,-37.7"/>
<polygon fill="none" stroke="#000000" points="282,-37.7 282,-56.7 337,-56.7 337,-37.7 282,-37.7"/>
<text text-anchor="start" x="301.6105" y="-43.8" font-family="Helvetica,sans-Serif" font-size="11.00" fill="#000000">0 rows</text>
<polygon fill="#ffffff" stroke="transparent" points="337,-37.7 337,-56.7 367,-56.7 367,-37.7 337,-37.7"/>
<polygon fill="none" stroke="#000000" points="337,-37.7 337,-56.7 367,-56.7 367,-37.7 337,-37.7"/>
<text text-anchor="start" x="357.8862" y="-43.8" font-family="Helvetica,sans-Serif" font-size="11.00" fill="#000000"> &#160;</text>
</a>
</g>
</g>
<!-- zauth_usertokens&#45;&gt;zauth_users -->
<g id="edge6" class="edge">
<title>zauth_usertokens:w&#45;&gt;zauth_users:e</title>
<path fill="none" stroke="#000000" d="M211.8213,-68.7505C173.9024,-88.6965 230.0166,-199.7 171.5,-199.7"/>
<polygon fill="#000000" stroke="#000000" points="218.179,-67.3827 226.7572,-69.2195 222.0895,-66.5414 226,-65.7 226,-65.7 226,-65.7 222.0895,-66.5414 225.2428,-62.1805 218.179,-67.3827 218.179,-67.3827"/>
<ellipse fill="none" stroke="#000000" cx="215.0506" cy="-68.0558" rx="3.2" ry="3.2"/>
</g>
</g>
</svg>
