<?xml version="1.0" encoding="UTF-8" standalone="no"?>
<!DOCTYPE svg PUBLIC "-//W3C//DTD SVG 1.1//EN"
 "http://www.w3.org/Graphics/SVG/1.1/DTD/svg11.dtd">
<!-- Generated by graphviz version 2.40.1 (20161225.0304)
 -->
<!-- Title: oneDegreeRelationshipsDiagram Pages: 1 -->
<svg width="388pt" height="303pt"
 viewBox="0.00 0.00 388.00 303.20" xmlns="http://www.w3.org/2000/svg" xmlns:xlink="http://www.w3.org/1999/xlink">
<g id="graph0" class="graph" transform="scale(1 1) rotate(0) translate(4 299.2)">
<title>oneDegreeRelationshipsDiagram</title>
<polygon fill="#ffffff" stroke="transparent" points="-4,4 -4,-299.2 384,-299.2 384,4 -4,4"/>
<text text-anchor="middle" x="72.4936" y="-7.3" font-family="Helvetica,sans-Serif" font-size="11.00" fill="#000000">Generated by SchemaSpy</text>
<!-- zauth_userroles -->
<g id="node1" class="node">
<title>zauth_userroles</title>
<g id="a_node1"><a xlink:href="../../tables/zauth_userroles.html" xlink:title="zauth_userroles" target="_top">
<polygon fill="#ffffff" stroke="transparent" points="220,-139.7 220,-229.7 372,-229.7 372,-139.7 220,-139.7"/>
<polygon fill="#f5f5f5" stroke="transparent" points="222,-204.7 222,-227.7 370,-227.7 370,-204.7 222,-204.7"/>
<polygon fill="none" stroke="#000000" points="222,-204.7 222,-227.7 370,-227.7 370,-204.7 222,-204.7"/>
<text text-anchor="start" x="227" y="-213.3" font-family="Helvetica,sans-Serif" font-weight="bold" font-size="11.00" fill="#000000">zauth_userroles</text>
<text text-anchor="start" x="335.0437" y="-212.8" font-family="Helvetica,sans-Serif" font-size="11.00" fill="#000000">[table]</text>
<polygon fill="none" stroke="#000000" points="222,-182.7 222,-204.7 335,-204.7 335,-182.7 222,-182.7"/>
<image xlink:href="../../images/primaryKeys.png" width="11px" height="12px" preserveAspectRatio="xMinYMin meet" x="227" y="-199.7"/>
<text text-anchor="start" x="242" y="-189.8" font-family="Helvetica,sans-Serif" font-size="11.00" fill="#000000">UserId</text>
<polygon fill="none" stroke="#000000" points="335,-182.7 335,-204.7 370,-204.7 370,-182.7 335,-182.7"/>
<text text-anchor="start" x="337.5219" y="-190.4" font-family="Helvetica,sans-Serif" font-size="11.00" fill="#000000">int[10]</text>
<polygon fill="none" stroke="#000000" points="222,-160.7 222,-182.7 335,-182.7 335,-160.7 222,-160.7"/>
<image xlink:href="../../images/primaryKeys.png" width="11px" height="12px" preserveAspectRatio="xMinYMin meet" x="227" y="-177.7"/>
<text text-anchor="start" x="242" y="-167.8" font-family="Helvetica,sans-Serif" font-size="11.00" fill="#000000">RoleId</text>
<polygon fill="none" stroke="#000000" points="335,-160.7 335,-182.7 370,-182.7 370,-160.7 335,-160.7"/>
<text text-anchor="start" x="337.5219" y="-168.4" font-family="Helvetica,sans-Serif" font-size="11.00" fill="#000000">int[10]</text>
<polygon fill="#ffffff" stroke="transparent" points="222,-141.7 222,-160.7 264,-160.7 264,-141.7 222,-141.7"/>
<polygon fill="none" stroke="#000000" points="222,-141.7 222,-160.7 264,-160.7 264,-141.7 222,-141.7"/>
<text text-anchor="start" x="225" y="-147.8" font-family="Helvetica,sans-Serif" font-size="11.00" fill="#000000">&lt; 2</text>
<polygon fill="#ffffff" stroke="transparent" points="264,-141.7 264,-160.7 335,-160.7 335,-141.7 264,-141.7"/>
<polygon fill="none" stroke="#000000" points="264,-141.7 264,-160.7 335,-160.7 335,-141.7 264,-141.7"/>
<text text-anchor="start" x="287.3807" y="-147.8" font-family="Helvetica,sans-Serif" font-size="11.00" fill="#000000">131 rows</text>
<polygon fill="#ffffff" stroke="transparent" points="335,-141.7 335,-160.7 370,-160.7 370,-141.7 335,-141.7"/>
<polygon fill="none" stroke="#000000" points="335,-141.7 335,-160.7 370,-160.7 370,-141.7 335,-141.7"/>
<text text-anchor="start" x="351.4053" y="-147.8" font-family="Helvetica,sans-Serif" font-size="11.00" fill="#000000">0 &gt;</text>
<polygon fill="none" stroke="#000000" stroke-width="2" points="221,-140.7 221,-228.7 371,-228.7 371,-140.7 221,-140.7"/>
</a>
</g>
</g>
<!-- zauth_roles -->
<g id="node2" class="node">
<title>zauth_roles</title>
<g id="a_node2"><a xlink:href="../../tables/zauth_roles.html" xlink:title="zauth_roles" target="_top">
<polygon fill="#ffffff" stroke="transparent" points="24,-38.2 24,-143.2 155,-143.2 155,-38.2 24,-38.2"/>
<polygon fill="#f5f5f5" stroke="transparent" points="24.5,-119.7 24.5,-142.7 155.5,-142.7 155.5,-119.7 24.5,-119.7"/>
<polygon fill="none" stroke="#000000" points="24.5,-119.7 24.5,-142.7 155.5,-142.7 155.5,-119.7 24.5,-119.7"/>
<text text-anchor="start" x="29.5" y="-128.3" font-family="Helvetica,sans-Serif" font-weight="bold" font-size="11.00" fill="#000000">zauth_roles</text>
<text text-anchor="start" x="120.5437" y="-127.8" font-family="Helvetica,sans-Serif" font-size="11.00" fill="#000000">[table]</text>
<polygon fill="none" stroke="#000000" points="24.5,-97.7 24.5,-119.7 155.5,-119.7 155.5,-97.7 24.5,-97.7"/>
<image xlink:href="../../images/primaryKeys.png" width="11px" height="12px" preserveAspectRatio="xMinYMin meet" x="29.5" y="-114.7"/>
<text text-anchor="start" x="44.5" y="-104.8" font-family="Helvetica,sans-Serif" font-size="11.00" fill="#000000">Id</text>
<polygon fill="#ffffff" stroke="transparent" points="24.5,-75.7 24.5,-97.7 155.5,-97.7 155.5,-75.7 24.5,-75.7"/>
<polygon fill="none" stroke="#000000" points="24.5,-75.7 24.5,-97.7 155.5,-97.7 155.5,-75.7 24.5,-75.7"/>
<text text-anchor="start" x="44.5" y="-82.8" font-family="Helvetica,sans-Serif" font-size="11.00" fill="#000000">NormalizedName</text>
<polygon fill="none" stroke="#000000" points="24.5,-56.7 24.5,-75.7 155.5,-75.7 155.5,-56.7 24.5,-56.7"/>
<text text-anchor="start" x="27.5" y="-62.8" font-family="Helvetica,sans-Serif" font-size="11.00" fill="#000000">...</text>
<polygon fill="#ffffff" stroke="transparent" points="24.5,-37.7 24.5,-56.7 63.5,-56.7 63.5,-37.7 24.5,-37.7"/>
<polygon fill="none" stroke="#000000" points="24.5,-37.7 24.5,-56.7 63.5,-56.7 63.5,-37.7 24.5,-37.7"/>
<text text-anchor="start" x="27.5" y="-43.8" font-family="Helvetica,sans-Serif" font-size="11.00" fill="#000000"> &#160;</text>
<polygon fill="#ffffff" stroke="transparent" points="63.5,-37.7 63.5,-56.7 120.5,-56.7 120.5,-37.7 63.5,-37.7"/>
<polygon fill="none" stroke="#000000" points="63.5,-37.7 63.5,-56.7 120.5,-56.7 120.5,-37.7 63.5,-37.7"/>
<text text-anchor="start" x="78.9956" y="-43.8" font-family="Helvetica,sans-Serif" font-size="11.00" fill="#000000">56 rows</text>
<polygon fill="#ffffff" stroke="transparent" points="120.5,-37.7 120.5,-56.7 155.5,-56.7 155.5,-37.7 120.5,-37.7"/>
<polygon fill="none" stroke="#000000" points="120.5,-37.7 120.5,-56.7 155.5,-56.7 155.5,-37.7 120.5,-37.7"/>
<text text-anchor="start" x="136.9053" y="-43.8" font-family="Helvetica,sans-Serif" font-size="11.00" fill="#000000">2 &gt;</text>
</a>
</g>
</g>
<!-- zauth_userroles&#45;&gt;zauth_roles -->
<g id="edge1" class="edge">
<title>zauth_userroles:w&#45;&gt;zauth_roles:e</title>
<path fill="none" stroke="#000000" d="M207.8157,-168.3128C184.3848,-155.2271 190.4875,-108.7 155.5,-108.7"/>
<polygon fill="#000000" stroke="#000000" points="214.2188,-169.8418 221.1638,-175.2016 218.1094,-170.7709 222,-171.7 222,-171.7 222,-171.7 218.1094,-170.7709 222.8362,-168.1984 214.2188,-169.8418 214.2188,-169.8418"/>
<ellipse fill="none" stroke="#000000" cx="211.1063" cy="-169.0986" rx="3.2" ry="3.2"/>
</g>
<!-- zauth_users -->
<g id="node3" class="node">
<title>zauth_users</title>
<g id="a_node3"><a xlink:href="../../tables/zauth_users.html" xlink:title="zauth_users" target="_top">
<polygon fill="#ffffff" stroke="transparent" points="8,-164.2 8,-291.2 171,-291.2 171,-164.2 8,-164.2"/>
<polygon fill="#f5f5f5" stroke="transparent" points="8.5,-267.7 8.5,-290.7 171.5,-290.7 171.5,-267.7 8.5,-267.7"/>
<polygon fill="none" stroke="#000000" points="8.5,-267.7 8.5,-290.7 171.5,-290.7 171.5,-267.7 8.5,-267.7"/>
<text text-anchor="start" x="13.5" y="-276.3" font-family="Helvetica,sans-Serif" font-weight="bold" font-size="11.00" fill="#000000">zauth_users</text>
<text text-anchor="start" x="136.5437" y="-275.8" font-family="Helvetica,sans-Serif" font-size="11.00" fill="#000000">[table]</text>
<polygon fill="none" stroke="#000000" points="8.5,-245.7 8.5,-267.7 171.5,-267.7 171.5,-245.7 8.5,-245.7"/>
<image xlink:href="../../images/primaryKeys.png" width="11px" height="12px" preserveAspectRatio="xMinYMin meet" x="13.5" y="-262.7"/>
<text text-anchor="start" x="28.5" y="-252.8" font-family="Helvetica,sans-Serif" font-size="11.00" fill="#000000">Id</text>
<polygon fill="#ffffff" stroke="transparent" points="8.5,-223.7 8.5,-245.7 171.5,-245.7 171.5,-223.7 8.5,-223.7"/>
<polygon fill="none" stroke="#000000" points="8.5,-223.7 8.5,-245.7 171.5,-245.7 171.5,-223.7 8.5,-223.7"/>
<text text-anchor="start" x="28.5" y="-230.8" font-family="Helvetica,sans-Serif" font-size="11.00" fill="#000000">NormalizedUserName</text>
<polygon fill="#ffffff" stroke="transparent" points="8.5,-201.7 8.5,-223.7 171.5,-223.7 171.5,-201.7 8.5,-201.7"/>
<polygon fill="none" stroke="#000000" points="8.5,-201.7 8.5,-223.7 171.5,-223.7 171.5,-201.7 8.5,-201.7"/>
<text text-anchor="start" x="28.5" y="-208.8" font-family="Helvetica,sans-Serif" font-size="11.00" fill="#000000">NormalizedEmail</text>
<polygon fill="none" stroke="#000000" points="8.5,-182.7 8.5,-201.7 171.5,-201.7 171.5,-182.7 8.5,-182.7"/>
<text text-anchor="start" x="11.5" y="-188.8" font-family="Helvetica,sans-Serif" font-size="11.00" fill="#000000">...</text>
<polygon fill="#ffffff" stroke="transparent" points="8.5,-163.7 8.5,-182.7 63.5,-182.7 63.5,-163.7 8.5,-163.7"/>
<polygon fill="none" stroke="#000000" points="8.5,-163.7 8.5,-182.7 63.5,-182.7 63.5,-163.7 8.5,-163.7"/>
<text text-anchor="start" x="11.5" y="-169.8" font-family="Helvetica,sans-Serif" font-size="11.00" fill="#000000"> &#160;</text>
<polygon fill="#ffffff" stroke="transparent" points="63.5,-163.7 63.5,-182.7 128.5,-182.7 128.5,-163.7 63.5,-163.7"/>
<polygon fill="none" stroke="#000000" points="63.5,-163.7 63.5,-182.7 128.5,-182.7 128.5,-163.7 63.5,-163.7"/>
<text text-anchor="start" x="86.9956" y="-169.8" font-family="Helvetica,sans-Serif" font-size="11.00" fill="#000000">98 rows</text>
<polygon fill="#ffffff" stroke="transparent" points="128.5,-163.7 128.5,-182.7 171.5,-182.7 171.5,-163.7 128.5,-163.7"/>
<polygon fill="none" stroke="#000000" points="128.5,-163.7 128.5,-182.7 171.5,-182.7 171.5,-163.7 128.5,-163.7"/>
<text text-anchor="start" x="152.9053" y="-169.8" font-family="Helvetica,sans-Serif" font-size="11.00" fill="#000000">4 &gt;</text>
</a>
</g>
</g>
<!-- zauth_userroles&#45;&gt;zauth_users -->
<g id="edge2" class="edge">
<title>zauth_userroles:w&#45;&gt;zauth_users:e</title>
<path fill="none" stroke="#000000" d="M207.9816,-198.6435C191.738,-213.4952 201.2175,-256.7 171.5,-256.7"/>
<polygon fill="#000000" stroke="#000000" points="214.4554,-196.3606 223.1973,-197.0951 218.2277,-195.0303 222,-193.7 222,-193.7 222,-193.7 218.2277,-195.0303 220.8027,-190.3049 214.4554,-196.3606 214.4554,-196.3606"/>
<ellipse fill="none" stroke="#000000" cx="211.4375" cy="-197.4248" rx="3.2" ry="3.2"/>
</g>
</g>
</svg>
