<?xml version="1.0" encoding="UTF-8" standalone="no"?>
<!DOCTYPE svg PUBLIC "-//W3C//DTD SVG 1.1//EN"
 "http://www.w3.org/Graphics/SVG/1.1/DTD/svg11.dtd">
<!-- Generated by graphviz version 2.40.1 (20161225.0304)
 -->
<!-- Title: twoDegreesRelationshipsDiagram Pages: 1 -->
<svg width="474pt" height="431pt"
 viewBox="0.00 0.00 474.00 430.70" xmlns="http://www.w3.org/2000/svg" xmlns:xlink="http://www.w3.org/1999/xlink">
<g id="graph0" class="graph" transform="scale(1 1) rotate(0) translate(4 426.7)">
<title>twoDegreesRelationshipsDiagram</title>
<polygon fill="#ffffff" stroke="transparent" points="-4,4 -4,-426.7 470,-426.7 470,4 -4,4"/>
<text text-anchor="middle" x="72.4936" y="-7.3" font-family="Helvetica,sans-Serif" font-size="11.00" fill="#000000">Generated by SchemaSpy</text>
<!-- zauth_userclaims -->
<g id="node1" class="node">
<title>zauth_userclaims</title>
<g id="a_node1"><a xlink:href="../../tables/zauth_userclaims.html" xlink:title="zauth_userclaims" target="_top">
<polygon fill="#ffffff" stroke="transparent" points="269.5,-357.7 269.5,-418.7 408.5,-418.7 408.5,-357.7 269.5,-357.7"/>
<polygon fill="#f5f5f5" stroke="transparent" points="270,-395.2 270,-418.2 409,-418.2 409,-395.2 270,-395.2"/>
<polygon fill="none" stroke="#000000" points="270,-395.2 270,-418.2 409,-418.2 409,-395.2 270,-395.2"/>
<text text-anchor="start" x="275" y="-403.8" font-family="Helvetica,sans-Serif" font-weight="bold" font-size="11.00" fill="#000000">zauth_userclaims</text>
<text text-anchor="start" x="374.5219" y="-403.3" font-family="Helvetica,sans-Serif" font-size="11.00" fill="#000000">[table]</text>
<polygon fill="none" stroke="#000000" points="270,-376.2 270,-395.2 409,-395.2 409,-376.2 270,-376.2"/>
<text text-anchor="start" x="273" y="-382.3" font-family="Helvetica,sans-Serif" font-size="11.00" fill="#000000">...</text>
<polygon fill="#ffffff" stroke="transparent" points="270,-357.2 270,-376.2 325,-376.2 325,-357.2 270,-357.2"/>
<polygon fill="none" stroke="#000000" points="270,-357.2 270,-376.2 325,-376.2 325,-357.2 270,-357.2"/>
<text text-anchor="start" x="273" y="-363.3" font-family="Helvetica,sans-Serif" font-size="11.00" fill="#000000">&lt; 1</text>
<polygon fill="#ffffff" stroke="transparent" points="325,-357.2 325,-376.2 380,-376.2 380,-357.2 325,-357.2"/>
<polygon fill="none" stroke="#000000" points="325,-357.2 325,-376.2 380,-376.2 380,-357.2 325,-357.2"/>
<text text-anchor="start" x="344.6105" y="-363.3" font-family="Helvetica,sans-Serif" font-size="11.00" fill="#000000">0 rows</text>
<polygon fill="#ffffff" stroke="transparent" points="380,-357.2 380,-376.2 409,-376.2 409,-357.2 380,-357.2"/>
<polygon fill="none" stroke="#000000" points="380,-357.2 380,-376.2 409,-376.2 409,-357.2 380,-357.2"/>
<text text-anchor="start" x="399.8862" y="-363.3" font-family="Helvetica,sans-Serif" font-size="11.00" fill="#000000"> &#160;</text>
</a>
</g>
</g>
<!-- zauth_users -->
<g id="node2" class="node">
<title>zauth_users</title>
<g id="a_node2"><a xlink:href="../../tables/zauth_users.html" xlink:title="zauth_users" target="_top">
<polygon fill="#ffffff" stroke="transparent" points="8,-169.7 8,-296.7 171,-296.7 171,-169.7 8,-169.7"/>
<polygon fill="#f5f5f5" stroke="transparent" points="8.5,-273.2 8.5,-296.2 171.5,-296.2 171.5,-273.2 8.5,-273.2"/>
<polygon fill="none" stroke="#000000" points="8.5,-273.2 8.5,-296.2 171.5,-296.2 171.5,-273.2 8.5,-273.2"/>
<text text-anchor="start" x="13.5" y="-281.8" font-family="Helvetica,sans-Serif" font-weight="bold" font-size="11.00" fill="#000000">zauth_users</text>
<text text-anchor="start" x="136.5437" y="-281.3" font-family="Helvetica,sans-Serif" font-size="11.00" fill="#000000">[table]</text>
<polygon fill="none" stroke="#000000" points="8.5,-251.2 8.5,-273.2 171.5,-273.2 171.5,-251.2 8.5,-251.2"/>
<image xlink:href="../../images/primaryKeys.png" width="11px" height="12px" preserveAspectRatio="xMinYMin meet" x="13.5" y="-268.2"/>
<text text-anchor="start" x="28.5" y="-258.3" font-family="Helvetica,sans-Serif" font-size="11.00" fill="#000000">Id</text>
<polygon fill="#ffffff" stroke="transparent" points="8.5,-229.2 8.5,-251.2 171.5,-251.2 171.5,-229.2 8.5,-229.2"/>
<polygon fill="none" stroke="#000000" points="8.5,-229.2 8.5,-251.2 171.5,-251.2 171.5,-229.2 8.5,-229.2"/>
<text text-anchor="start" x="28.5" y="-236.3" font-family="Helvetica,sans-Serif" font-size="11.00" fill="#000000">NormalizedUserName</text>
<polygon fill="#ffffff" stroke="transparent" points="8.5,-207.2 8.5,-229.2 171.5,-229.2 171.5,-207.2 8.5,-207.2"/>
<polygon fill="none" stroke="#000000" points="8.5,-207.2 8.5,-229.2 171.5,-229.2 171.5,-207.2 8.5,-207.2"/>
<text text-anchor="start" x="28.5" y="-214.3" font-family="Helvetica,sans-Serif" font-size="11.00" fill="#000000">NormalizedEmail</text>
<polygon fill="none" stroke="#000000" points="8.5,-188.2 8.5,-207.2 171.5,-207.2 171.5,-188.2 8.5,-188.2"/>
<text text-anchor="start" x="11.5" y="-194.3" font-family="Helvetica,sans-Serif" font-size="11.00" fill="#000000">...</text>
<polygon fill="#ffffff" stroke="transparent" points="8.5,-169.2 8.5,-188.2 63.5,-188.2 63.5,-169.2 8.5,-169.2"/>
<polygon fill="none" stroke="#000000" points="8.5,-169.2 8.5,-188.2 63.5,-188.2 63.5,-169.2 8.5,-169.2"/>
<text text-anchor="start" x="11.5" y="-175.3" font-family="Helvetica,sans-Serif" font-size="11.00" fill="#000000"> &#160;</text>
<polygon fill="#ffffff" stroke="transparent" points="63.5,-169.2 63.5,-188.2 128.5,-188.2 128.5,-169.2 63.5,-169.2"/>
<polygon fill="none" stroke="#000000" points="63.5,-169.2 63.5,-188.2 128.5,-188.2 128.5,-169.2 63.5,-169.2"/>
<text text-anchor="start" x="86.9956" y="-175.3" font-family="Helvetica,sans-Serif" font-size="11.00" fill="#000000">98 rows</text>
<polygon fill="#ffffff" stroke="transparent" points="128.5,-169.2 128.5,-188.2 171.5,-188.2 171.5,-169.2 128.5,-169.2"/>
<polygon fill="none" stroke="#000000" points="128.5,-169.2 128.5,-188.2 171.5,-188.2 171.5,-169.2 128.5,-169.2"/>
<text text-anchor="start" x="152.9053" y="-175.3" font-family="Helvetica,sans-Serif" font-size="11.00" fill="#000000">4 &gt;</text>
</a>
</g>
</g>
<!-- zauth_userclaims&#45;&gt;zauth_users -->
<g id="edge1" class="edge">
<title>zauth_userclaims:w&#45;&gt;zauth_users:e</title>
<path fill="none" stroke="#000000" d="M255.4865,-383.8048C236.2663,-379.6145 228.626,-366.2437 212,-347.2 184.4786,-315.6765 213.3469,-262.2 171.5,-262.2"/>
<polygon fill="#000000" stroke="#000000" points="262.0367,-384.4344 269.6555,-388.7835 266.0184,-384.8172 270,-385.2 270,-385.2 270,-385.2 266.0184,-384.8172 270.3445,-381.6165 262.0367,-384.4344 262.0367,-384.4344"/>
<ellipse fill="none" stroke="#000000" cx="258.8514" cy="-384.1282" rx="3.2" ry="3.2"/>
</g>
<!-- zauth_userlogins -->
<g id="node3" class="node">
<title>zauth_userlogins</title>
<g id="a_node3"><a xlink:href="../../tables/zauth_userlogins.html" xlink:title="zauth_userlogins" target="_top">
<polygon fill="#ffffff" stroke="transparent" points="270.5,-275.7 270.5,-336.7 407.5,-336.7 407.5,-275.7 270.5,-275.7"/>
<polygon fill="#f5f5f5" stroke="transparent" points="271,-313.2 271,-336.2 408,-336.2 408,-313.2 271,-313.2"/>
<polygon fill="none" stroke="#000000" points="271,-313.2 271,-336.2 408,-336.2 408,-313.2 271,-313.2"/>
<text text-anchor="start" x="276" y="-321.8" font-family="Helvetica,sans-Serif" font-weight="bold" font-size="11.00" fill="#000000">zauth_userlogins</text>
<text text-anchor="start" x="373.5219" y="-321.3" font-family="Helvetica,sans-Serif" font-size="11.00" fill="#000000">[table]</text>
<polygon fill="none" stroke="#000000" points="271,-294.2 271,-313.2 408,-313.2 408,-294.2 271,-294.2"/>
<text text-anchor="start" x="274" y="-300.3" font-family="Helvetica,sans-Serif" font-size="11.00" fill="#000000">...</text>
<polygon fill="#ffffff" stroke="transparent" points="271,-275.2 271,-294.2 325,-294.2 325,-275.2 271,-275.2"/>
<polygon fill="none" stroke="#000000" points="271,-275.2 271,-294.2 325,-294.2 325,-275.2 271,-275.2"/>
<text text-anchor="start" x="274" y="-281.3" font-family="Helvetica,sans-Serif" font-size="11.00" fill="#000000">&lt; 1</text>
<polygon fill="#ffffff" stroke="transparent" points="325,-275.2 325,-294.2 379,-294.2 379,-275.2 325,-275.2"/>
<polygon fill="none" stroke="#000000" points="325,-275.2 325,-294.2 379,-294.2 379,-275.2 325,-275.2"/>
<text text-anchor="start" x="343.6105" y="-281.3" font-family="Helvetica,sans-Serif" font-size="11.00" fill="#000000">0 rows</text>
<polygon fill="#ffffff" stroke="transparent" points="379,-275.2 379,-294.2 408,-294.2 408,-275.2 379,-275.2"/>
<polygon fill="none" stroke="#000000" points="379,-275.2 379,-294.2 408,-294.2 408,-275.2 379,-275.2"/>
<text text-anchor="start" x="398.8862" y="-281.3" font-family="Helvetica,sans-Serif" font-size="11.00" fill="#000000"> &#160;</text>
</a>
</g>
</g>
<!-- zauth_userlogins&#45;&gt;zauth_users -->
<g id="edge2" class="edge">
<title>zauth_userlogins:w&#45;&gt;zauth_users:e</title>
<path fill="none" stroke="#000000" d="M256.311,-301.7408C221.7358,-294.4371 213.9113,-262.2 171.5,-262.2"/>
<polygon fill="#000000" stroke="#000000" points="263.0392,-302.4091 270.6441,-306.7824 267.0196,-302.8046 271,-303.2 271,-303.2 271,-303.2 267.0196,-302.8046 271.3559,-299.6176 263.0392,-302.4091 263.0392,-302.4091"/>
<ellipse fill="none" stroke="#000000" cx="259.8549" cy="-302.0928" rx="3.2" ry="3.2"/>
</g>
<!-- zauth_userroles -->
<g id="node4" class="node">
<title>zauth_userroles</title>
<g id="a_node4"><a xlink:href="../../tables/zauth_userroles.html" xlink:title="zauth_userroles" target="_top">
<polygon fill="#ffffff" stroke="transparent" points="273.5,-193.7 273.5,-254.7 404.5,-254.7 404.5,-193.7 273.5,-193.7"/>
<polygon fill="#f5f5f5" stroke="transparent" points="274,-231.2 274,-254.2 405,-254.2 405,-231.2 274,-231.2"/>
<polygon fill="none" stroke="#000000" points="274,-231.2 274,-254.2 405,-254.2 405,-231.2 274,-231.2"/>
<text text-anchor="start" x="279" y="-239.8" font-family="Helvetica,sans-Serif" font-weight="bold" font-size="11.00" fill="#000000">zauth_userroles</text>
<text text-anchor="start" x="370.5219" y="-239.3" font-family="Helvetica,sans-Serif" font-size="11.00" fill="#000000">[table]</text>
<polygon fill="none" stroke="#000000" points="274,-212.2 274,-231.2 405,-231.2 405,-212.2 274,-212.2"/>
<text text-anchor="start" x="277" y="-218.3" font-family="Helvetica,sans-Serif" font-size="11.00" fill="#000000">...</text>
<polygon fill="#ffffff" stroke="transparent" points="274,-193.2 274,-212.2 319,-212.2 319,-193.2 274,-193.2"/>
<polygon fill="none" stroke="#000000" points="274,-193.2 274,-212.2 319,-212.2 319,-193.2 274,-193.2"/>
<text text-anchor="start" x="277" y="-199.3" font-family="Helvetica,sans-Serif" font-size="11.00" fill="#000000">&lt; 2</text>
<polygon fill="#ffffff" stroke="transparent" points="319,-193.2 319,-212.2 381,-212.2 381,-193.2 319,-193.2"/>
<polygon fill="none" stroke="#000000" points="319,-193.2 319,-212.2 381,-212.2 381,-193.2 319,-193.2"/>
<text text-anchor="start" x="333.3807" y="-199.3" font-family="Helvetica,sans-Serif" font-size="11.00" fill="#000000">131 rows</text>
<polygon fill="#ffffff" stroke="transparent" points="381,-193.2 381,-212.2 405,-212.2 405,-193.2 381,-193.2"/>
<polygon fill="none" stroke="#000000" points="381,-193.2 381,-212.2 405,-212.2 405,-193.2 381,-193.2"/>
<text text-anchor="start" x="395.8862" y="-199.3" font-family="Helvetica,sans-Serif" font-size="11.00" fill="#000000"> &#160;</text>
</a>
</g>
</g>
<!-- zauth_userroles&#45;&gt;zauth_users -->
<g id="edge3" class="edge">
<title>zauth_userroles:w&#45;&gt;zauth_users:e</title>
<path fill="none" stroke="#000000" d="M259.3877,-222.5641C223.4445,-229.6783 215.1984,-262.2 171.5,-262.2"/>
<polygon fill="#000000" stroke="#000000" points="266.0346,-221.9437 274.3346,-224.7844 270.0173,-221.5718 274,-221.2 274,-221.2 274,-221.2 270.0173,-221.5718 273.6654,-217.6156 266.0346,-221.9437 266.0346,-221.9437"/>
<ellipse fill="none" stroke="#000000" cx="262.8485" cy="-222.2411" rx="3.2" ry="3.2"/>
</g>
<!-- zauth_usertokens -->
<g id="node5" class="node">
<title>zauth_usertokens</title>
<g id="a_node5"><a xlink:href="../../tables/zauth_usertokens.html" xlink:title="zauth_usertokens" target="_top">
<polygon fill="#ffffff" stroke="transparent" points="220,-38.2 220,-172.2 458,-172.2 458,-38.2 220,-38.2"/>
<polygon fill="#f5f5f5" stroke="transparent" points="222,-147.2 222,-170.2 456,-170.2 456,-147.2 222,-147.2"/>
<polygon fill="none" stroke="#000000" points="222,-147.2 222,-170.2 456,-170.2 456,-147.2 222,-147.2"/>
<text text-anchor="start" x="227" y="-155.8" font-family="Helvetica,sans-Serif" font-weight="bold" font-size="11.00" fill="#000000">zauth_usertokens</text>
<text text-anchor="start" x="421.0437" y="-155.3" font-family="Helvetica,sans-Serif" font-size="11.00" fill="#000000">[table]</text>
<polygon fill="none" stroke="#000000" points="222,-125.2 222,-147.2 345,-147.2 345,-125.2 222,-125.2"/>
<image xlink:href="../../images/primaryKeys.png" width="11px" height="12px" preserveAspectRatio="xMinYMin meet" x="227" y="-142.2"/>
<text text-anchor="start" x="242" y="-132.3" font-family="Helvetica,sans-Serif" font-size="11.00" fill="#000000">UserId</text>
<polygon fill="none" stroke="#000000" points="345,-125.2 345,-147.2 456,-147.2 456,-125.2 345,-125.2"/>
<text text-anchor="start" x="348" y="-132.9" font-family="Helvetica,sans-Serif" font-size="11.00" fill="#000000">int[10]</text>
<polygon fill="none" stroke="#000000" points="222,-103.2 222,-125.2 345,-125.2 345,-103.2 222,-103.2"/>
<image xlink:href="../../images/primaryKeys.png" width="11px" height="12px" preserveAspectRatio="xMinYMin meet" x="227" y="-120.2"/>
<text text-anchor="start" x="242" y="-110.3" font-family="Helvetica,sans-Serif" font-size="11.00" fill="#000000">LoginProvider</text>
<polygon fill="none" stroke="#000000" points="345,-103.2 345,-125.2 456,-125.2 456,-103.2 345,-103.2"/>
<text text-anchor="start" x="348" y="-110.9" font-family="Helvetica,sans-Serif" font-size="11.00" fill="#000000">varchar[128]</text>
<polygon fill="none" stroke="#000000" points="222,-81.2 222,-103.2 345,-103.2 345,-81.2 222,-81.2"/>
<image xlink:href="../../images/primaryKeys.png" width="11px" height="12px" preserveAspectRatio="xMinYMin meet" x="227" y="-98.2"/>
<text text-anchor="start" x="242" y="-88.3" font-family="Helvetica,sans-Serif" font-size="11.00" fill="#000000">Name</text>
<polygon fill="none" stroke="#000000" points="345,-81.2 345,-103.2 456,-103.2 456,-81.2 345,-81.2"/>
<text text-anchor="start" x="348" y="-88.9" font-family="Helvetica,sans-Serif" font-size="11.00" fill="#000000">varchar[128]</text>
<polygon fill="none" stroke="#000000" points="222,-59.2 222,-81.2 345,-81.2 345,-59.2 222,-59.2"/>
<text text-anchor="start" x="242" y="-66.3" font-family="Helvetica,sans-Serif" font-size="11.00" fill="#000000">Value</text>
<polygon fill="none" stroke="#000000" points="345,-59.2 345,-81.2 456,-81.2 456,-59.2 345,-59.2"/>
<text text-anchor="start" x="347.6115" y="-66.9" font-family="Helvetica,sans-Serif" font-size="11.00" fill="#000000">longtext[2147483647]</text>
<polygon fill="#ffffff" stroke="transparent" points="222,-40.2 222,-59.2 275,-59.2 275,-40.2 222,-40.2"/>
<polygon fill="none" stroke="#000000" points="222,-40.2 222,-59.2 275,-59.2 275,-40.2 222,-40.2"/>
<text text-anchor="start" x="225" y="-46.3" font-family="Helvetica,sans-Serif" font-size="11.00" fill="#000000">&lt; 1</text>
<polygon fill="#ffffff" stroke="transparent" points="275,-40.2 275,-59.2 345,-59.2 345,-40.2 275,-40.2"/>
<polygon fill="none" stroke="#000000" points="275,-40.2 275,-59.2 345,-59.2 345,-40.2 275,-40.2"/>
<text text-anchor="start" x="309.6105" y="-46.3" font-family="Helvetica,sans-Serif" font-size="11.00" fill="#000000">0 rows</text>
<polygon fill="#ffffff" stroke="transparent" points="345,-40.2 345,-59.2 456,-59.2 456,-40.2 345,-40.2"/>
<polygon fill="none" stroke="#000000" points="345,-40.2 345,-59.2 456,-59.2 456,-40.2 345,-40.2"/>
<text text-anchor="start" x="437.4053" y="-46.3" font-family="Helvetica,sans-Serif" font-size="11.00" fill="#000000">0 &gt;</text>
<polygon fill="none" stroke="#000000" stroke-width="2" points="221,-39.2 221,-171.2 457,-171.2 457,-39.2 221,-39.2"/>
</a>
</g>
</g>
<!-- zauth_usertokens&#45;&gt;zauth_users -->
<g id="edge4" class="edge">
<title>zauth_usertokens:w&#45;&gt;zauth_users:e</title>
<path fill="none" stroke="#000000" d="M207.8154,-139.5702C174.1284,-159.6077 225.9387,-262.2 171.5,-262.2"/>
<polygon fill="#000000" stroke="#000000" points="214.2167,-138.0493 222.8322,-139.7025 218.1083,-137.1247 222,-136.2 222,-136.2 222,-136.2 218.1083,-137.1247 221.1678,-132.6975 214.2167,-138.0493 214.2167,-138.0493"/>
<ellipse fill="none" stroke="#000000" cx="211.1033" cy="-138.7891" rx="3.2" ry="3.2"/>
</g>
</g>
</svg>
