<?xml version="1.0" encoding="UTF-8" standalone="no"?>
<!DOCTYPE svg PUBLIC "-//W3C//DTD SVG 1.1//EN"
 "http://www.w3.org/Graphics/SVG/1.1/DTD/svg11.dtd">
<!-- Generated by graphviz version 2.40.1 (20161225.0304)
 -->
<!-- Title: oneDegreeRelationshipsDiagram Pages: 1 -->
<svg width="496pt" height="245pt"
 viewBox="0.00 0.00 496.00 244.70" xmlns="http://www.w3.org/2000/svg" xmlns:xlink="http://www.w3.org/1999/xlink">
<g id="graph0" class="graph" transform="scale(1 1) rotate(0) translate(4 240.7)">
<title>oneDegreeRelationshipsDiagram</title>
<polygon fill="#ffffff" stroke="transparent" points="-4,4 -4,-240.7 492,-240.7 492,4 -4,4"/>
<text text-anchor="middle" x="72.4936" y="-7.3" font-family="Helvetica,sans-Serif" font-size="11.00" fill="#000000">Generated by SchemaSpy</text>
<!-- zauth_userlogins -->
<g id="node1" class="node">
<title>zauth_userlogins</title>
<g id="a_node1"><a xlink:href="../../tables/zauth_userlogins.html" xlink:title="zauth_userlogins" target="_top">
<polygon fill="#ffffff" stroke="transparent" points="220,-98.7 220,-232.7 480,-232.7 480,-98.7 220,-98.7"/>
<polygon fill="#f5f5f5" stroke="transparent" points="222,-207.7 222,-230.7 478,-230.7 478,-207.7 222,-207.7"/>
<polygon fill="none" stroke="#000000" points="222,-207.7 222,-230.7 478,-230.7 478,-207.7 222,-207.7"/>
<text text-anchor="start" x="227" y="-216.3" font-family="Helvetica,sans-Serif" font-weight="bold" font-size="11.00" fill="#000000">zauth_userlogins</text>
<text text-anchor="start" x="443.0437" y="-215.8" font-family="Helvetica,sans-Serif" font-size="11.00" fill="#000000">[table]</text>
<polygon fill="none" stroke="#000000" points="222,-185.7 222,-207.7 367,-207.7 367,-185.7 222,-185.7"/>
<image xlink:href="../../images/primaryKeys.png" width="11px" height="12px" preserveAspectRatio="xMinYMin meet" x="227" y="-202.7"/>
<text text-anchor="start" x="242" y="-192.8" font-family="Helvetica,sans-Serif" font-size="11.00" fill="#000000">LoginProvider</text>
<polygon fill="none" stroke="#000000" points="367,-185.7 367,-207.7 478,-207.7 478,-185.7 367,-185.7"/>
<text text-anchor="start" x="370" y="-193.4" font-family="Helvetica,sans-Serif" font-size="11.00" fill="#000000">varchar[128]</text>
<polygon fill="none" stroke="#000000" points="222,-163.7 222,-185.7 367,-185.7 367,-163.7 222,-163.7"/>
<image xlink:href="../../images/primaryKeys.png" width="11px" height="12px" preserveAspectRatio="xMinYMin meet" x="227" y="-180.7"/>
<text text-anchor="start" x="242" y="-170.8" font-family="Helvetica,sans-Serif" font-size="11.00" fill="#000000">ProviderKey</text>
<polygon fill="none" stroke="#000000" points="367,-163.7 367,-185.7 478,-185.7 478,-163.7 367,-163.7"/>
<text text-anchor="start" x="370" y="-171.4" font-family="Helvetica,sans-Serif" font-size="11.00" fill="#000000">varchar[128]</text>
<polygon fill="none" stroke="#000000" points="222,-141.7 222,-163.7 367,-163.7 367,-141.7 222,-141.7"/>
<text text-anchor="start" x="242" y="-148.8" font-family="Helvetica,sans-Serif" font-size="11.00" fill="#000000">ProviderDisplayName</text>
<polygon fill="none" stroke="#000000" points="367,-141.7 367,-163.7 478,-163.7 478,-141.7 367,-141.7"/>
<text text-anchor="start" x="369.6115" y="-149.4" font-family="Helvetica,sans-Serif" font-size="11.00" fill="#000000">longtext[2147483647]</text>
<polygon fill="#ffffff" stroke="transparent" points="222,-119.7 222,-141.7 367,-141.7 367,-119.7 222,-119.7"/>
<polygon fill="none" stroke="#000000" points="222,-119.7 222,-141.7 367,-141.7 367,-119.7 222,-119.7"/>
<image xlink:href="../../images/foreignKeys.png" width="11px" height="12px" preserveAspectRatio="xMinYMin meet" x="227" y="-136.7"/>
<text text-anchor="start" x="242" y="-126.8" font-family="Helvetica,sans-Serif" font-size="11.00" fill="#000000">UserId</text>
<polygon fill="none" stroke="#000000" points="367,-119.7 367,-141.7 478,-141.7 478,-119.7 367,-119.7"/>
<text text-anchor="start" x="370" y="-127.4" font-family="Helvetica,sans-Serif" font-size="11.00" fill="#000000">int[10]</text>
<polygon fill="#ffffff" stroke="transparent" points="222,-100.7 222,-119.7 286,-119.7 286,-100.7 222,-100.7"/>
<polygon fill="none" stroke="#000000" points="222,-100.7 222,-119.7 286,-119.7 286,-100.7 222,-100.7"/>
<text text-anchor="start" x="225" y="-106.8" font-family="Helvetica,sans-Serif" font-size="11.00" fill="#000000">&lt; 1</text>
<polygon fill="#ffffff" stroke="transparent" points="286,-100.7 286,-119.7 367,-119.7 367,-100.7 286,-100.7"/>
<polygon fill="none" stroke="#000000" points="286,-100.7 286,-119.7 367,-119.7 367,-100.7 286,-100.7"/>
<text text-anchor="start" x="331.6105" y="-106.8" font-family="Helvetica,sans-Serif" font-size="11.00" fill="#000000">0 rows</text>
<polygon fill="#ffffff" stroke="transparent" points="367,-100.7 367,-119.7 478,-119.7 478,-100.7 367,-100.7"/>
<polygon fill="none" stroke="#000000" points="367,-100.7 367,-119.7 478,-119.7 478,-100.7 367,-100.7"/>
<text text-anchor="start" x="459.4053" y="-106.8" font-family="Helvetica,sans-Serif" font-size="11.00" fill="#000000">0 &gt;</text>
<polygon fill="none" stroke="#000000" stroke-width="2" points="221,-99.7 221,-231.7 479,-231.7 479,-99.7 221,-99.7"/>
</a>
</g>
</g>
<!-- zauth_users -->
<g id="node2" class="node">
<title>zauth_users</title>
<g id="a_node2"><a xlink:href="../../tables/zauth_users.html" xlink:title="zauth_users" target="_top">
<polygon fill="#ffffff" stroke="transparent" points="8,-38.2 8,-165.2 171,-165.2 171,-38.2 8,-38.2"/>
<polygon fill="#f5f5f5" stroke="transparent" points="8.5,-141.7 8.5,-164.7 171.5,-164.7 171.5,-141.7 8.5,-141.7"/>
<polygon fill="none" stroke="#000000" points="8.5,-141.7 8.5,-164.7 171.5,-164.7 171.5,-141.7 8.5,-141.7"/>
<text text-anchor="start" x="13.5" y="-150.3" font-family="Helvetica,sans-Serif" font-weight="bold" font-size="11.00" fill="#000000">zauth_users</text>
<text text-anchor="start" x="136.5437" y="-149.8" font-family="Helvetica,sans-Serif" font-size="11.00" fill="#000000">[table]</text>
<polygon fill="none" stroke="#000000" points="8.5,-119.7 8.5,-141.7 171.5,-141.7 171.5,-119.7 8.5,-119.7"/>
<image xlink:href="../../images/primaryKeys.png" width="11px" height="12px" preserveAspectRatio="xMinYMin meet" x="13.5" y="-136.7"/>
<text text-anchor="start" x="28.5" y="-126.8" font-family="Helvetica,sans-Serif" font-size="11.00" fill="#000000">Id</text>
<polygon fill="#ffffff" stroke="transparent" points="8.5,-97.7 8.5,-119.7 171.5,-119.7 171.5,-97.7 8.5,-97.7"/>
<polygon fill="none" stroke="#000000" points="8.5,-97.7 8.5,-119.7 171.5,-119.7 171.5,-97.7 8.5,-97.7"/>
<text text-anchor="start" x="28.5" y="-104.8" font-family="Helvetica,sans-Serif" font-size="11.00" fill="#000000">NormalizedUserName</text>
<polygon fill="#ffffff" stroke="transparent" points="8.5,-75.7 8.5,-97.7 171.5,-97.7 171.5,-75.7 8.5,-75.7"/>
<polygon fill="none" stroke="#000000" points="8.5,-75.7 8.5,-97.7 171.5,-97.7 171.5,-75.7 8.5,-75.7"/>
<text text-anchor="start" x="28.5" y="-82.8" font-family="Helvetica,sans-Serif" font-size="11.00" fill="#000000">NormalizedEmail</text>
<polygon fill="none" stroke="#000000" points="8.5,-56.7 8.5,-75.7 171.5,-75.7 171.5,-56.7 8.5,-56.7"/>
<text text-anchor="start" x="11.5" y="-62.8" font-family="Helvetica,sans-Serif" font-size="11.00" fill="#000000">...</text>
<polygon fill="#ffffff" stroke="transparent" points="8.5,-37.7 8.5,-56.7 63.5,-56.7 63.5,-37.7 8.5,-37.7"/>
<polygon fill="none" stroke="#000000" points="8.5,-37.7 8.5,-56.7 63.5,-56.7 63.5,-37.7 8.5,-37.7"/>
<text text-anchor="start" x="11.5" y="-43.8" font-family="Helvetica,sans-Serif" font-size="11.00" fill="#000000"> &#160;</text>
<polygon fill="#ffffff" stroke="transparent" points="63.5,-37.7 63.5,-56.7 128.5,-56.7 128.5,-37.7 63.5,-37.7"/>
<polygon fill="none" stroke="#000000" points="63.5,-37.7 63.5,-56.7 128.5,-56.7 128.5,-37.7 63.5,-37.7"/>
<text text-anchor="start" x="86.9956" y="-43.8" font-family="Helvetica,sans-Serif" font-size="11.00" fill="#000000">98 rows</text>
<polygon fill="#ffffff" stroke="transparent" points="128.5,-37.7 128.5,-56.7 171.5,-56.7 171.5,-37.7 128.5,-37.7"/>
<polygon fill="none" stroke="#000000" points="128.5,-37.7 128.5,-56.7 171.5,-56.7 171.5,-37.7 128.5,-37.7"/>
<text text-anchor="start" x="152.9053" y="-43.8" font-family="Helvetica,sans-Serif" font-size="11.00" fill="#000000">4 &gt;</text>
</a>
</g>
</g>
<!-- zauth_userlogins&#45;&gt;zauth_users -->
<g id="edge1" class="edge">
<title>zauth_userlogins:w&#45;&gt;zauth_users:e</title>
<path fill="none" stroke="#000000" d="M207.4203,-130.7C195.5435,-130.7 188.158,-130.7 171.5,-130.7"/>
<polygon fill="#000000" stroke="#000000" points="214,-130.7001 222,-134.3 218,-130.7 222,-130.7 222,-130.7 222,-130.7 218,-130.7 222,-127.1 214,-130.7001 214,-130.7001"/>
<ellipse fill="none" stroke="#000000" cx="210.8" cy="-130.7001" rx="3.2" ry="3.2"/>
</g>
</g>
</svg>
