<?xml version="1.0" encoding="UTF-8" standalone="no"?>
<!DOCTYPE svg PUBLIC "-//W3C//DTD SVG 1.1//EN"
 "http://www.w3.org/Graphics/SVG/1.1/DTD/svg11.dtd">
<!-- Generated by graphviz version 2.40.1 (20161225.0304)
 -->
<!-- Title: oneDegreeRelationshipsDiagram Pages: 1 -->
<svg width="455pt" height="268pt"
 viewBox="0.00 0.00 455.00 267.70" xmlns="http://www.w3.org/2000/svg" xmlns:xlink="http://www.w3.org/1999/xlink">
<g id="graph0" class="graph" transform="scale(1 1) rotate(0) translate(4 263.7)">
<title>oneDegreeRelationshipsDiagram</title>
<polygon fill="#ffffff" stroke="transparent" points="-4,4 -4,-263.7 451,-263.7 451,4 -4,4"/>
<text text-anchor="middle" x="72.4936" y="-7.3" font-family="Helvetica,sans-Serif" font-size="11.00" fill="#000000">Generated by SchemaSpy</text>
<!-- zauth_roleclaims -->
<g id="node1" class="node">
<title>zauth_roleclaims</title>
<g id="a_node1"><a xlink:href="../../tables/zauth_roleclaims.html" xlink:title="zauth_roleclaims" target="_top">
<polygon fill="#ffffff" stroke="transparent" points="303,-150.7 303,-255.7 439,-255.7 439,-150.7 303,-150.7"/>
<polygon fill="#f5f5f5" stroke="transparent" points="303,-232.2 303,-255.2 439,-255.2 439,-232.2 303,-232.2"/>
<polygon fill="none" stroke="#000000" points="303,-232.2 303,-255.2 439,-255.2 439,-232.2 303,-232.2"/>
<text text-anchor="start" x="308" y="-240.8" font-family="Helvetica,sans-Serif" font-weight="bold" font-size="11.00" fill="#000000">zauth_roleclaims</text>
<text text-anchor="start" x="404.5219" y="-240.3" font-family="Helvetica,sans-Serif" font-size="11.00" fill="#000000">[table]</text>
<polygon fill="none" stroke="#000000" points="303,-210.2 303,-232.2 439,-232.2 439,-210.2 303,-210.2"/>
<image xlink:href="../../images/primaryKeys.png" width="11px" height="12px" preserveAspectRatio="xMinYMin meet" x="308" y="-227.2"/>
<text text-anchor="start" x="332" y="-217.3" font-family="Helvetica,sans-Serif" font-size="11.00" fill="#000000">Id</text>
<polygon fill="#ffffff" stroke="transparent" points="303,-188.2 303,-210.2 439,-210.2 439,-188.2 303,-188.2"/>
<polygon fill="none" stroke="#000000" points="303,-188.2 303,-210.2 439,-210.2 439,-188.2 303,-188.2"/>
<image xlink:href="../../images/foreignKeys.png" width="11px" height="12px" preserveAspectRatio="xMinYMin meet" x="308" y="-205.2"/>
<text text-anchor="start" x="332" y="-195.3" font-family="Helvetica,sans-Serif" font-size="11.00" fill="#000000">RoleId</text>
<polygon fill="none" stroke="#000000" points="303,-169.2 303,-188.2 439,-188.2 439,-169.2 303,-169.2"/>
<text text-anchor="start" x="306" y="-175.3" font-family="Helvetica,sans-Serif" font-size="11.00" fill="#000000">...</text>
<polygon fill="#ffffff" stroke="transparent" points="303,-150.2 303,-169.2 356,-169.2 356,-150.2 303,-150.2"/>
<polygon fill="none" stroke="#000000" points="303,-150.2 303,-169.2 356,-169.2 356,-150.2 303,-150.2"/>
<text text-anchor="start" x="306" y="-156.3" font-family="Helvetica,sans-Serif" font-size="11.00" fill="#000000">&lt; 1</text>
<polygon fill="#ffffff" stroke="transparent" points="356,-150.2 356,-169.2 410,-169.2 410,-150.2 356,-150.2"/>
<polygon fill="none" stroke="#000000" points="356,-150.2 356,-169.2 410,-169.2 410,-150.2 356,-150.2"/>
<text text-anchor="start" x="374.6105" y="-156.3" font-family="Helvetica,sans-Serif" font-size="11.00" fill="#000000">0 rows</text>
<polygon fill="#ffffff" stroke="transparent" points="410,-150.2 410,-169.2 439,-169.2 439,-150.2 410,-150.2"/>
<polygon fill="none" stroke="#000000" points="410,-150.2 410,-169.2 439,-169.2 439,-150.2 410,-150.2"/>
<text text-anchor="start" x="429.8862" y="-156.3" font-family="Helvetica,sans-Serif" font-size="11.00" fill="#000000"> &#160;</text>
</a>
</g>
</g>
<!-- zauth_roles -->
<g id="node2" class="node">
<title>zauth_roles</title>
<g id="a_node2"><a xlink:href="../../tables/zauth_roles.html" xlink:title="zauth_roles" target="_top">
<polygon fill="#ffffff" stroke="transparent" points="8,-38.2 8,-172.2 254,-172.2 254,-38.2 8,-38.2"/>
<polygon fill="#f5f5f5" stroke="transparent" points="10,-147.2 10,-170.2 252,-170.2 252,-147.2 10,-147.2"/>
<polygon fill="none" stroke="#000000" points="10,-147.2 10,-170.2 252,-170.2 252,-147.2 10,-147.2"/>
<text text-anchor="start" x="15" y="-155.8" font-family="Helvetica,sans-Serif" font-weight="bold" font-size="11.00" fill="#000000">zauth_roles</text>
<text text-anchor="start" x="217.0437" y="-155.3" font-family="Helvetica,sans-Serif" font-size="11.00" fill="#000000">[table]</text>
<polygon fill="none" stroke="#000000" points="10,-125.2 10,-147.2 141,-147.2 141,-125.2 10,-125.2"/>
<image xlink:href="../../images/primaryKeys.png" width="11px" height="12px" preserveAspectRatio="xMinYMin meet" x="15" y="-142.2"/>
<text text-anchor="start" x="30" y="-132.3" font-family="Helvetica,sans-Serif" font-size="11.00" fill="#000000">Id</text>
<polygon fill="none" stroke="#000000" points="141,-125.2 141,-147.2 252,-147.2 252,-125.2 141,-125.2"/>
<text text-anchor="start" x="144" y="-132.9" font-family="Helvetica,sans-Serif" font-size="11.00" fill="#000000">int[10]</text>
<polygon fill="none" stroke="#000000" points="10,-103.2 10,-125.2 141,-125.2 141,-103.2 10,-103.2"/>
<text text-anchor="start" x="30" y="-110.3" font-family="Helvetica,sans-Serif" font-size="11.00" fill="#000000">Name</text>
<polygon fill="none" stroke="#000000" points="141,-103.2 141,-125.2 252,-125.2 252,-103.2 141,-103.2"/>
<text text-anchor="start" x="144" y="-110.9" font-family="Helvetica,sans-Serif" font-size="11.00" fill="#000000">varchar[128]</text>
<polygon fill="#ffffff" stroke="transparent" points="10,-81.2 10,-103.2 141,-103.2 141,-81.2 10,-81.2"/>
<polygon fill="none" stroke="#000000" points="10,-81.2 10,-103.2 141,-103.2 141,-81.2 10,-81.2"/>
<text text-anchor="start" x="30" y="-88.3" font-family="Helvetica,sans-Serif" font-size="11.00" fill="#000000">NormalizedName</text>
<polygon fill="none" stroke="#000000" points="141,-81.2 141,-103.2 252,-103.2 252,-81.2 141,-81.2"/>
<text text-anchor="start" x="144" y="-88.9" font-family="Helvetica,sans-Serif" font-size="11.00" fill="#000000">varchar[128]</text>
<polygon fill="none" stroke="#000000" points="10,-59.2 10,-81.2 141,-81.2 141,-59.2 10,-59.2"/>
<text text-anchor="start" x="30" y="-66.3" font-family="Helvetica,sans-Serif" font-size="11.00" fill="#000000">ConcurrencyStamp</text>
<polygon fill="none" stroke="#000000" points="141,-59.2 141,-81.2 252,-81.2 252,-59.2 141,-59.2"/>
<text text-anchor="start" x="143.6115" y="-66.9" font-family="Helvetica,sans-Serif" font-size="11.00" fill="#000000">longtext[2147483647]</text>
<polygon fill="#ffffff" stroke="transparent" points="10,-40.2 10,-59.2 64,-59.2 64,-40.2 10,-40.2"/>
<polygon fill="none" stroke="#000000" points="10,-40.2 10,-59.2 64,-59.2 64,-40.2 10,-40.2"/>
<text text-anchor="start" x="13" y="-46.3" font-family="Helvetica,sans-Serif" font-size="11.00" fill="#000000">&lt; 0</text>
<polygon fill="#ffffff" stroke="transparent" points="64,-40.2 64,-59.2 141,-59.2 141,-40.2 64,-40.2"/>
<polygon fill="none" stroke="#000000" points="64,-40.2 64,-59.2 141,-59.2 141,-40.2 64,-40.2"/>
<text text-anchor="start" x="99.4956" y="-46.3" font-family="Helvetica,sans-Serif" font-size="11.00" fill="#000000">56 rows</text>
<polygon fill="#ffffff" stroke="transparent" points="141,-40.2 141,-59.2 252,-59.2 252,-40.2 141,-40.2"/>
<polygon fill="none" stroke="#000000" points="141,-40.2 141,-59.2 252,-59.2 252,-40.2 141,-40.2"/>
<text text-anchor="start" x="233.4053" y="-46.3" font-family="Helvetica,sans-Serif" font-size="11.00" fill="#000000">2 &gt;</text>
<polygon fill="none" stroke="#000000" stroke-width="2" points="9,-39.2 9,-171.2 253,-171.2 253,-39.2 9,-39.2"/>
</a>
</g>
</g>
<!-- zauth_roleclaims&#45;&gt;zauth_roles -->
<g id="edge1" class="edge">
<title>zauth_roleclaims:w&#45;&gt;zauth_roles:e</title>
<path fill="none" stroke="#000000" d="M288.9033,-194.2565C272.525,-179.4048 281.8329,-136.2 252,-136.2"/>
<polygon fill="#000000" stroke="#000000" points="295.4507,-196.5526 301.8087,-202.5972 299.2254,-197.8763 303,-199.2 303,-199.2 303,-199.2 299.2254,-197.8763 304.1913,-195.8028 295.4507,-196.5526 295.4507,-196.5526"/>
<ellipse fill="none" stroke="#000000" cx="292.431" cy="-195.4936" rx="3.2" ry="3.2"/>
</g>
<!-- zauth_userroles -->
<g id="node3" class="node">
<title>zauth_userroles</title>
<g id="a_node3"><a xlink:href="../../tables/zauth_userroles.html" xlink:title="zauth_userroles" target="_top">
<polygon fill="#ffffff" stroke="transparent" points="305.5,-43.2 305.5,-129.2 436.5,-129.2 436.5,-43.2 305.5,-43.2"/>
<polygon fill="#f5f5f5" stroke="transparent" points="306,-106.2 306,-129.2 437,-129.2 437,-106.2 306,-106.2"/>
<polygon fill="none" stroke="#000000" points="306,-106.2 306,-129.2 437,-129.2 437,-106.2 306,-106.2"/>
<text text-anchor="start" x="311" y="-114.8" font-family="Helvetica,sans-Serif" font-weight="bold" font-size="11.00" fill="#000000">zauth_userroles</text>
<text text-anchor="start" x="402.5219" y="-114.3" font-family="Helvetica,sans-Serif" font-size="11.00" fill="#000000">[table]</text>
<polygon fill="none" stroke="#000000" points="306,-84.2 306,-106.2 437,-106.2 437,-84.2 306,-84.2"/>
<image xlink:href="../../images/primaryKeys.png" width="11px" height="12px" preserveAspectRatio="xMinYMin meet" x="311" y="-101.2"/>
<text text-anchor="start" x="335" y="-91.3" font-family="Helvetica,sans-Serif" font-size="11.00" fill="#000000">UserId</text>
<polygon fill="none" stroke="#000000" points="306,-62.2 306,-84.2 437,-84.2 437,-62.2 306,-62.2"/>
<image xlink:href="../../images/primaryKeys.png" width="11px" height="12px" preserveAspectRatio="xMinYMin meet" x="311" y="-79.2"/>
<text text-anchor="start" x="335" y="-69.3" font-family="Helvetica,sans-Serif" font-size="11.00" fill="#000000">RoleId</text>
<polygon fill="#ffffff" stroke="transparent" points="306,-43.2 306,-62.2 351,-62.2 351,-43.2 306,-43.2"/>
<polygon fill="none" stroke="#000000" points="306,-43.2 306,-62.2 351,-62.2 351,-43.2 306,-43.2"/>
<text text-anchor="start" x="309" y="-49.3" font-family="Helvetica,sans-Serif" font-size="11.00" fill="#000000">&lt; 2</text>
<polygon fill="#ffffff" stroke="transparent" points="351,-43.2 351,-62.2 413,-62.2 413,-43.2 351,-43.2"/>
<polygon fill="none" stroke="#000000" points="351,-43.2 351,-62.2 413,-62.2 413,-43.2 351,-43.2"/>
<text text-anchor="start" x="365.3807" y="-49.3" font-family="Helvetica,sans-Serif" font-size="11.00" fill="#000000">131 rows</text>
<polygon fill="#ffffff" stroke="transparent" points="413,-43.2 413,-62.2 437,-62.2 437,-43.2 413,-43.2"/>
<polygon fill="none" stroke="#000000" points="413,-43.2 413,-62.2 437,-62.2 437,-43.2 413,-43.2"/>
<text text-anchor="start" x="427.8862" y="-49.3" font-family="Helvetica,sans-Serif" font-size="11.00" fill="#000000"> &#160;</text>
</a>
</g>
</g>
<!-- zauth_userroles&#45;&gt;zauth_roles -->
<g id="edge2" class="edge">
<title>zauth_userroles:w&#45;&gt;zauth_roles:e</title>
<path fill="none" stroke="#000000" d="M291.922,-77.7308C274.08,-92.1761 282.8279,-136.2 252,-136.2"/>
<polygon fill="#000000" stroke="#000000" points="298.3847,-75.6509 307.1029,-76.6269 302.1923,-74.4255 306,-73.2 306,-73.2 306,-73.2 302.1923,-74.4255 304.8971,-69.7731 298.3847,-75.6509 298.3847,-75.6509"/>
<ellipse fill="none" stroke="#000000" cx="295.3385" cy="-76.6313" rx="3.2" ry="3.2"/>
</g>
</g>
</svg>
