<?xml version="1.0" encoding="UTF-8" standalone="no"?>
<!DOCTYPE svg PUBLIC "-//W3C//DTD SVG 1.1//EN"
 "http://www.w3.org/Graphics/SVG/1.1/DTD/svg11.dtd">
<!-- Generated by graphviz version 2.40.1 (20161225.0304)
 -->
<!-- Title: twoDegreesRelationshipsDiagram Pages: 1 -->
<svg width="472pt" height="431pt"
 viewBox="0.00 0.00 472.00 430.70" xmlns="http://www.w3.org/2000/svg" xmlns:xlink="http://www.w3.org/1999/xlink">
<g id="graph0" class="graph" transform="scale(1 1) rotate(0) translate(4 426.7)">
<title>twoDegreesRelationshipsDiagram</title>
<polygon fill="#ffffff" stroke="transparent" points="-4,4 -4,-426.7 468,-426.7 468,4 -4,4"/>
<text text-anchor="middle" x="72.4936" y="-7.3" font-family="Helvetica,sans-Serif" font-size="11.00" fill="#000000">Generated by SchemaSpy</text>
<!-- zauth_userclaims -->
<g id="node1" class="node">
<title>zauth_userclaims</title>
<g id="a_node1"><a xlink:href="../../tables/zauth_userclaims.html" xlink:title="zauth_userclaims" target="_top">
<polygon fill="#ffffff" stroke="transparent" points="220,-284.7 220,-418.7 456,-418.7 456,-284.7 220,-284.7"/>
<polygon fill="#f5f5f5" stroke="transparent" points="222,-393.7 222,-416.7 454,-416.7 454,-393.7 222,-393.7"/>
<polygon fill="none" stroke="#000000" points="222,-393.7 222,-416.7 454,-416.7 454,-393.7 222,-393.7"/>
<text text-anchor="start" x="227" y="-402.3" font-family="Helvetica,sans-Serif" font-weight="bold" font-size="11.00" fill="#000000">zauth_userclaims</text>
<text text-anchor="start" x="419.0437" y="-401.8" font-family="Helvetica,sans-Serif" font-size="11.00" fill="#000000">[table]</text>
<polygon fill="none" stroke="#000000" points="222,-371.7 222,-393.7 343,-393.7 343,-371.7 222,-371.7"/>
<image xlink:href="../../images/primaryKeys.png" width="11px" height="12px" preserveAspectRatio="xMinYMin meet" x="227" y="-388.7"/>
<text text-anchor="start" x="242" y="-378.8" font-family="Helvetica,sans-Serif" font-size="11.00" fill="#000000">Id</text>
<polygon fill="none" stroke="#000000" points="343,-371.7 343,-393.7 454,-393.7 454,-371.7 343,-371.7"/>
<text text-anchor="start" x="346" y="-379.4" font-family="Helvetica,sans-Serif" font-size="11.00" fill="#000000">int[10]</text>
<polygon fill="#ffffff" stroke="transparent" points="222,-349.7 222,-371.7 343,-371.7 343,-349.7 222,-349.7"/>
<polygon fill="none" stroke="#000000" points="222,-349.7 222,-371.7 343,-371.7 343,-349.7 222,-349.7"/>
<image xlink:href="../../images/foreignKeys.png" width="11px" height="12px" preserveAspectRatio="xMinYMin meet" x="227" y="-366.7"/>
<text text-anchor="start" x="242" y="-356.8" font-family="Helvetica,sans-Serif" font-size="11.00" fill="#000000">UserId</text>
<polygon fill="none" stroke="#000000" points="343,-349.7 343,-371.7 454,-371.7 454,-349.7 343,-349.7"/>
<text text-anchor="start" x="346" y="-357.4" font-family="Helvetica,sans-Serif" font-size="11.00" fill="#000000">int[10]</text>
<polygon fill="none" stroke="#000000" points="222,-327.7 222,-349.7 343,-349.7 343,-327.7 222,-327.7"/>
<text text-anchor="start" x="242" y="-334.8" font-family="Helvetica,sans-Serif" font-size="11.00" fill="#000000">ClaimType</text>
<polygon fill="none" stroke="#000000" points="343,-327.7 343,-349.7 454,-349.7 454,-327.7 343,-327.7"/>
<text text-anchor="start" x="345.6115" y="-335.4" font-family="Helvetica,sans-Serif" font-size="11.00" fill="#000000">longtext[2147483647]</text>
<polygon fill="none" stroke="#000000" points="222,-305.7 222,-327.7 343,-327.7 343,-305.7 222,-305.7"/>
<text text-anchor="start" x="242" y="-312.8" font-family="Helvetica,sans-Serif" font-size="11.00" fill="#000000">ClaimValue</text>
<polygon fill="none" stroke="#000000" points="343,-305.7 343,-327.7 454,-327.7 454,-305.7 343,-305.7"/>
<text text-anchor="start" x="345.6115" y="-313.4" font-family="Helvetica,sans-Serif" font-size="11.00" fill="#000000">longtext[2147483647]</text>
<polygon fill="#ffffff" stroke="transparent" points="222,-286.7 222,-305.7 274,-305.7 274,-286.7 222,-286.7"/>
<polygon fill="none" stroke="#000000" points="222,-286.7 222,-305.7 274,-305.7 274,-286.7 222,-286.7"/>
<text text-anchor="start" x="225" y="-292.8" font-family="Helvetica,sans-Serif" font-size="11.00" fill="#000000">&lt; 1</text>
<polygon fill="#ffffff" stroke="transparent" points="274,-286.7 274,-305.7 343,-305.7 343,-286.7 274,-286.7"/>
<polygon fill="none" stroke="#000000" points="274,-286.7 274,-305.7 343,-305.7 343,-286.7 274,-286.7"/>
<text text-anchor="start" x="307.6105" y="-292.8" font-family="Helvetica,sans-Serif" font-size="11.00" fill="#000000">0 rows</text>
<polygon fill="#ffffff" stroke="transparent" points="343,-286.7 343,-305.7 454,-305.7 454,-286.7 343,-286.7"/>
<polygon fill="none" stroke="#000000" points="343,-286.7 343,-305.7 454,-305.7 454,-286.7 343,-286.7"/>
<text text-anchor="start" x="435.4053" y="-292.8" font-family="Helvetica,sans-Serif" font-size="11.00" fill="#000000">0 &gt;</text>
<polygon fill="none" stroke="#000000" stroke-width="2" points="221,-285.7 221,-417.7 455,-417.7 455,-285.7 221,-285.7"/>
</a>
</g>
</g>
<!-- zauth_users -->
<g id="node2" class="node">
<title>zauth_users</title>
<g id="a_node2"><a xlink:href="../../tables/zauth_users.html" xlink:title="zauth_users" target="_top">
<polygon fill="#ffffff" stroke="transparent" points="8,-96.2 8,-223.2 171,-223.2 171,-96.2 8,-96.2"/>
<polygon fill="#f5f5f5" stroke="transparent" points="8.5,-199.7 8.5,-222.7 171.5,-222.7 171.5,-199.7 8.5,-199.7"/>
<polygon fill="none" stroke="#000000" points="8.5,-199.7 8.5,-222.7 171.5,-222.7 171.5,-199.7 8.5,-199.7"/>
<text text-anchor="start" x="13.5" y="-208.3" font-family="Helvetica,sans-Serif" font-weight="bold" font-size="11.00" fill="#000000">zauth_users</text>
<text text-anchor="start" x="136.5437" y="-207.8" font-family="Helvetica,sans-Serif" font-size="11.00" fill="#000000">[table]</text>
<polygon fill="none" stroke="#000000" points="8.5,-177.7 8.5,-199.7 171.5,-199.7 171.5,-177.7 8.5,-177.7"/>
<image xlink:href="../../images/primaryKeys.png" width="11px" height="12px" preserveAspectRatio="xMinYMin meet" x="13.5" y="-194.7"/>
<text text-anchor="start" x="28.5" y="-184.8" font-family="Helvetica,sans-Serif" font-size="11.00" fill="#000000">Id</text>
<polygon fill="#ffffff" stroke="transparent" points="8.5,-155.7 8.5,-177.7 171.5,-177.7 171.5,-155.7 8.5,-155.7"/>
<polygon fill="none" stroke="#000000" points="8.5,-155.7 8.5,-177.7 171.5,-177.7 171.5,-155.7 8.5,-155.7"/>
<text text-anchor="start" x="28.5" y="-162.8" font-family="Helvetica,sans-Serif" font-size="11.00" fill="#000000">NormalizedUserName</text>
<polygon fill="#ffffff" stroke="transparent" points="8.5,-133.7 8.5,-155.7 171.5,-155.7 171.5,-133.7 8.5,-133.7"/>
<polygon fill="none" stroke="#000000" points="8.5,-133.7 8.5,-155.7 171.5,-155.7 171.5,-133.7 8.5,-133.7"/>
<text text-anchor="start" x="28.5" y="-140.8" font-family="Helvetica,sans-Serif" font-size="11.00" fill="#000000">NormalizedEmail</text>
<polygon fill="none" stroke="#000000" points="8.5,-114.7 8.5,-133.7 171.5,-133.7 171.5,-114.7 8.5,-114.7"/>
<text text-anchor="start" x="11.5" y="-120.8" font-family="Helvetica,sans-Serif" font-size="11.00" fill="#000000">...</text>
<polygon fill="#ffffff" stroke="transparent" points="8.5,-95.7 8.5,-114.7 63.5,-114.7 63.5,-95.7 8.5,-95.7"/>
<polygon fill="none" stroke="#000000" points="8.5,-95.7 8.5,-114.7 63.5,-114.7 63.5,-95.7 8.5,-95.7"/>
<text text-anchor="start" x="11.5" y="-101.8" font-family="Helvetica,sans-Serif" font-size="11.00" fill="#000000"> &#160;</text>
<polygon fill="#ffffff" stroke="transparent" points="63.5,-95.7 63.5,-114.7 128.5,-114.7 128.5,-95.7 63.5,-95.7"/>
<polygon fill="none" stroke="#000000" points="63.5,-95.7 63.5,-114.7 128.5,-114.7 128.5,-95.7 63.5,-95.7"/>
<text text-anchor="start" x="86.9956" y="-101.8" font-family="Helvetica,sans-Serif" font-size="11.00" fill="#000000">98 rows</text>
<polygon fill="#ffffff" stroke="transparent" points="128.5,-95.7 128.5,-114.7 171.5,-114.7 171.5,-95.7 128.5,-95.7"/>
<polygon fill="none" stroke="#000000" points="128.5,-95.7 128.5,-114.7 171.5,-114.7 171.5,-95.7 128.5,-95.7"/>
<text text-anchor="start" x="152.9053" y="-101.8" font-family="Helvetica,sans-Serif" font-size="11.00" fill="#000000">4 &gt;</text>
</a>
</g>
</g>
<!-- zauth_userclaims&#45;&gt;zauth_users -->
<g id="edge1" class="edge">
<title>zauth_userclaims:w&#45;&gt;zauth_users:e</title>
<path fill="none" stroke="#000000" d="M207.5387,-358.1351C157.0754,-336.7389 245.4137,-188.7 171.5,-188.7"/>
<polygon fill="#000000" stroke="#000000" points="214.1229,-359.3029 221.3713,-364.2447 218.0615,-360.0014 222,-360.7 222,-360.7 222,-360.7 218.0615,-360.0014 222.6287,-357.1553 214.1229,-359.3029 214.1229,-359.3029"/>
<ellipse fill="none" stroke="#000000" cx="210.9721" cy="-358.744" rx="3.2" ry="3.2"/>
</g>
<!-- zauth_userlogins -->
<g id="node3" class="node">
<title>zauth_userlogins</title>
<g id="a_node3"><a xlink:href="../../tables/zauth_userlogins.html" xlink:title="zauth_userlogins" target="_top">
<polygon fill="#ffffff" stroke="transparent" points="269.5,-202.2 269.5,-263.2 406.5,-263.2 406.5,-202.2 269.5,-202.2"/>
<polygon fill="#f5f5f5" stroke="transparent" points="270,-239.7 270,-262.7 407,-262.7 407,-239.7 270,-239.7"/>
<polygon fill="none" stroke="#000000" points="270,-239.7 270,-262.7 407,-262.7 407,-239.7 270,-239.7"/>
<text text-anchor="start" x="275" y="-248.3" font-family="Helvetica,sans-Serif" font-weight="bold" font-size="11.00" fill="#000000">zauth_userlogins</text>
<text text-anchor="start" x="372.5219" y="-247.8" font-family="Helvetica,sans-Serif" font-size="11.00" fill="#000000">[table]</text>
<polygon fill="none" stroke="#000000" points="270,-220.7 270,-239.7 407,-239.7 407,-220.7 270,-220.7"/>
<text text-anchor="start" x="273" y="-226.8" font-family="Helvetica,sans-Serif" font-size="11.00" fill="#000000">...</text>
<polygon fill="#ffffff" stroke="transparent" points="270,-201.7 270,-220.7 324,-220.7 324,-201.7 270,-201.7"/>
<polygon fill="none" stroke="#000000" points="270,-201.7 270,-220.7 324,-220.7 324,-201.7 270,-201.7"/>
<text text-anchor="start" x="273" y="-207.8" font-family="Helvetica,sans-Serif" font-size="11.00" fill="#000000">&lt; 1</text>
<polygon fill="#ffffff" stroke="transparent" points="324,-201.7 324,-220.7 378,-220.7 378,-201.7 324,-201.7"/>
<polygon fill="none" stroke="#000000" points="324,-201.7 324,-220.7 378,-220.7 378,-201.7 324,-201.7"/>
<text text-anchor="start" x="342.6105" y="-207.8" font-family="Helvetica,sans-Serif" font-size="11.00" fill="#000000">0 rows</text>
<polygon fill="#ffffff" stroke="transparent" points="378,-201.7 378,-220.7 407,-220.7 407,-201.7 378,-201.7"/>
<polygon fill="none" stroke="#000000" points="378,-201.7 378,-220.7 407,-220.7 407,-201.7 378,-201.7"/>
<text text-anchor="start" x="397.8862" y="-207.8" font-family="Helvetica,sans-Serif" font-size="11.00" fill="#000000"> &#160;</text>
</a>
</g>
</g>
<!-- zauth_userlogins&#45;&gt;zauth_users -->
<g id="edge2" class="edge">
<title>zauth_userlogins:w&#45;&gt;zauth_users:e</title>
<path fill="none" stroke="#000000" d="M255.4423,-228.2408C221.1899,-220.9371 213.5471,-188.7 171.5,-188.7"/>
<polygon fill="#000000" stroke="#000000" points="262.0399,-228.9021 269.6409,-233.282 266.0199,-229.301 270,-229.7 270,-229.7 270,-229.7 266.0199,-229.301 270.3591,-226.118 262.0399,-228.9021 262.0399,-228.9021"/>
<ellipse fill="none" stroke="#000000" cx="258.8558" cy="-228.5829" rx="3.2" ry="3.2"/>
</g>
<!-- zauth_userroles -->
<g id="node4" class="node">
<title>zauth_userroles</title>
<g id="a_node4"><a xlink:href="../../tables/zauth_userroles.html" xlink:title="zauth_userroles" target="_top">
<polygon fill="#ffffff" stroke="transparent" points="272.5,-120.2 272.5,-181.2 403.5,-181.2 403.5,-120.2 272.5,-120.2"/>
<polygon fill="#f5f5f5" stroke="transparent" points="273,-157.7 273,-180.7 404,-180.7 404,-157.7 273,-157.7"/>
<polygon fill="none" stroke="#000000" points="273,-157.7 273,-180.7 404,-180.7 404,-157.7 273,-157.7"/>
<text text-anchor="start" x="278" y="-166.3" font-family="Helvetica,sans-Serif" font-weight="bold" font-size="11.00" fill="#000000">zauth_userroles</text>
<text text-anchor="start" x="369.5219" y="-165.8" font-family="Helvetica,sans-Serif" font-size="11.00" fill="#000000">[table]</text>
<polygon fill="none" stroke="#000000" points="273,-138.7 273,-157.7 404,-157.7 404,-138.7 273,-138.7"/>
<text text-anchor="start" x="276" y="-144.8" font-family="Helvetica,sans-Serif" font-size="11.00" fill="#000000">...</text>
<polygon fill="#ffffff" stroke="transparent" points="273,-119.7 273,-138.7 318,-138.7 318,-119.7 273,-119.7"/>
<polygon fill="none" stroke="#000000" points="273,-119.7 273,-138.7 318,-138.7 318,-119.7 273,-119.7"/>
<text text-anchor="start" x="276" y="-125.8" font-family="Helvetica,sans-Serif" font-size="11.00" fill="#000000">&lt; 2</text>
<polygon fill="#ffffff" stroke="transparent" points="318,-119.7 318,-138.7 380,-138.7 380,-119.7 318,-119.7"/>
<polygon fill="none" stroke="#000000" points="318,-119.7 318,-138.7 380,-138.7 380,-119.7 318,-119.7"/>
<text text-anchor="start" x="332.3807" y="-125.8" font-family="Helvetica,sans-Serif" font-size="11.00" fill="#000000">131 rows</text>
<polygon fill="#ffffff" stroke="transparent" points="380,-119.7 380,-138.7 404,-138.7 404,-119.7 380,-119.7"/>
<polygon fill="none" stroke="#000000" points="380,-119.7 380,-138.7 404,-138.7 404,-119.7 380,-119.7"/>
<text text-anchor="start" x="394.8862" y="-125.8" font-family="Helvetica,sans-Serif" font-size="11.00" fill="#000000"> &#160;</text>
</a>
</g>
</g>
<!-- zauth_userroles&#45;&gt;zauth_users -->
<g id="edge3" class="edge">
<title>zauth_userroles:w&#45;&gt;zauth_users:e</title>
<path fill="none" stroke="#000000" d="M258.5151,-149.0641C222.898,-156.1783 214.8311,-188.7 171.5,-188.7"/>
<polygon fill="#000000" stroke="#000000" points="265.0352,-148.4501 273.3376,-151.2841 269.0176,-148.0751 273,-147.7 273,-147.7 273,-147.7 269.0176,-148.0751 272.6624,-144.1159 265.0352,-148.4501 265.0352,-148.4501"/>
<ellipse fill="none" stroke="#000000" cx="261.8493" cy="-148.7502" rx="3.2" ry="3.2"/>
</g>
<!-- zauth_usertokens -->
<g id="node5" class="node">
<title>zauth_usertokens</title>
<g id="a_node5"><a xlink:href="../../tables/zauth_usertokens.html" xlink:title="zauth_usertokens" target="_top">
<polygon fill="#ffffff" stroke="transparent" points="267.5,-38.2 267.5,-99.2 408.5,-99.2 408.5,-38.2 267.5,-38.2"/>
<polygon fill="#f5f5f5" stroke="transparent" points="268,-75.7 268,-98.7 409,-98.7 409,-75.7 268,-75.7"/>
<polygon fill="none" stroke="#000000" points="268,-75.7 268,-98.7 409,-98.7 409,-75.7 268,-75.7"/>
<text text-anchor="start" x="273" y="-84.3" font-family="Helvetica,sans-Serif" font-weight="bold" font-size="11.00" fill="#000000">zauth_usertokens</text>
<text text-anchor="start" x="374.5219" y="-83.8" font-family="Helvetica,sans-Serif" font-size="11.00" fill="#000000">[table]</text>
<polygon fill="none" stroke="#000000" points="268,-56.7 268,-75.7 409,-75.7 409,-56.7 268,-56.7"/>
<text text-anchor="start" x="271" y="-62.8" font-family="Helvetica,sans-Serif" font-size="11.00" fill="#000000">...</text>
<polygon fill="#ffffff" stroke="transparent" points="268,-37.7 268,-56.7 324,-56.7 324,-37.7 268,-37.7"/>
<polygon fill="none" stroke="#000000" points="268,-37.7 268,-56.7 324,-56.7 324,-37.7 268,-37.7"/>
<text text-anchor="start" x="271" y="-43.8" font-family="Helvetica,sans-Serif" font-size="11.00" fill="#000000">&lt; 1</text>
<polygon fill="#ffffff" stroke="transparent" points="324,-37.7 324,-56.7 379,-56.7 379,-37.7 324,-37.7"/>
<polygon fill="none" stroke="#000000" points="324,-37.7 324,-56.7 379,-56.7 379,-37.7 324,-37.7"/>
<text text-anchor="start" x="343.6105" y="-43.8" font-family="Helvetica,sans-Serif" font-size="11.00" fill="#000000">0 rows</text>
<polygon fill="#ffffff" stroke="transparent" points="379,-37.7 379,-56.7 409,-56.7 409,-37.7 379,-37.7"/>
<polygon fill="none" stroke="#000000" points="379,-37.7 379,-56.7 409,-56.7 409,-37.7 379,-37.7"/>
<text text-anchor="start" x="399.8862" y="-43.8" font-family="Helvetica,sans-Serif" font-size="11.00" fill="#000000"> &#160;</text>
</a>
</g>
</g>
<!-- zauth_usertokens&#45;&gt;zauth_users -->
<g id="edge4" class="edge">
<title>zauth_usertokens:w&#45;&gt;zauth_users:e</title>
<path fill="none" stroke="#000000" d="M253.616,-67.4345C234.3732,-72.7313 228.5917,-89.5673 212,-109.7 186.9067,-140.1486 210.9562,-188.7 171.5,-188.7"/>
<polygon fill="#000000" stroke="#000000" points="260.0575,-66.6578 268.431,-69.2741 264.0288,-66.1789 268,-65.7 268,-65.7 268,-65.7 264.0288,-66.1789 267.569,-62.1259 260.0575,-66.6578 260.0575,-66.6578"/>
<ellipse fill="none" stroke="#000000" cx="256.8805" cy="-67.0409" rx="3.2" ry="3.2"/>
</g>
</g>
</svg>
