<?xml version="1.0" encoding="UTF-8" standalone="no"?>
<!DOCTYPE svg PUBLIC "-//W3C//DTD SVG 1.1//EN"
 "http://www.w3.org/Graphics/SVG/1.1/DTD/svg11.dtd">
<!-- Generated by graphviz version 2.40.1 (20161225.0304)
 -->
<!-- Title: oneDegreeRelationshipsDiagram Pages: 1 -->
<svg width="210pt" height="272pt"
 viewBox="0.00 0.00 210.00 272.20" xmlns="http://www.w3.org/2000/svg" xmlns:xlink="http://www.w3.org/1999/xlink">
<g id="graph0" class="graph" transform="scale(1 1) rotate(0) translate(4 268.2)">
<title>oneDegreeRelationshipsDiagram</title>
<polygon fill="#ffffff" stroke="transparent" points="-4,4 -4,-268.2 206,-268.2 206,4 -4,4"/>
<text text-anchor="middle" x="72.4936" y="-7.3" font-family="Helvetica,sans-Serif" font-size="11.00" fill="#000000">Generated by SchemaSpy</text>
<!-- zlog -->
<g id="node1" class="node">
<title>zlog</title>
<g id="a_node1"><a xlink:href="../../tables/zlog.html" xlink:title="zlog" target="_top">
<polygon fill="#ffffff" stroke="transparent" points="8,-38.2 8,-260.2 194,-260.2 194,-38.2 8,-38.2"/>
<polygon fill="#f5f5f5" stroke="transparent" points="10,-235.2 10,-258.2 192,-258.2 192,-235.2 10,-235.2"/>
<polygon fill="none" stroke="#000000" points="10,-235.2 10,-258.2 192,-258.2 192,-235.2 10,-235.2"/>
<text text-anchor="start" x="14.4147" y="-243.8" font-family="Helvetica,sans-Serif" font-weight="bold" font-size="11.00" fill="#000000">zlog</text>
<text text-anchor="start" x="157.0437" y="-243.3" font-family="Helvetica,sans-Serif" font-size="11.00" fill="#000000">[table]</text>
<polygon fill="none" stroke="#000000" points="10,-213.2 10,-235.2 81,-235.2 81,-213.2 10,-213.2"/>
<image xlink:href="../../images/primaryKeys.png" width="11px" height="12px" preserveAspectRatio="xMinYMin meet" x="15" y="-230.2"/>
<text text-anchor="start" x="30" y="-220.3" font-family="Helvetica,sans-Serif" font-size="11.00" fill="#000000">ID</text>
<polygon fill="none" stroke="#000000" points="81,-213.2 81,-235.2 192,-235.2 192,-213.2 81,-213.2"/>
<text text-anchor="start" x="84" y="-220.9" font-family="Helvetica,sans-Serif" font-size="11.00" fill="#000000">int[10]</text>
<polygon fill="none" stroke="#000000" points="10,-191.2 10,-213.2 81,-213.2 81,-191.2 10,-191.2"/>
<text text-anchor="start" x="30" y="-198.3" font-family="Helvetica,sans-Serif" font-size="11.00" fill="#000000">Active</text>
<polygon fill="none" stroke="#000000" points="81,-191.2 81,-213.2 192,-213.2 192,-191.2 81,-191.2"/>
<text text-anchor="start" x="84" y="-198.9" font-family="Helvetica,sans-Serif" font-size="11.00" fill="#000000">bit[1]</text>
<polygon fill="none" stroke="#000000" points="10,-169.2 10,-191.2 81,-191.2 81,-169.2 10,-169.2"/>
<text text-anchor="start" x="30" y="-176.3" font-family="Helvetica,sans-Serif" font-size="11.00" fill="#000000">User</text>
<polygon fill="none" stroke="#000000" points="81,-169.2 81,-191.2 192,-191.2 192,-169.2 81,-169.2"/>
<text text-anchor="start" x="83.6115" y="-176.9" font-family="Helvetica,sans-Serif" font-size="11.00" fill="#000000">longtext[2147483647]</text>
<polygon fill="none" stroke="#000000" points="10,-147.2 10,-169.2 81,-169.2 81,-147.2 10,-147.2"/>
<text text-anchor="start" x="30" y="-154.3" font-family="Helvetica,sans-Serif" font-size="11.00" fill="#000000">CD</text>
<polygon fill="none" stroke="#000000" points="81,-147.2 81,-169.2 192,-169.2 192,-147.2 81,-147.2"/>
<text text-anchor="start" x="84" y="-154.9" font-family="Helvetica,sans-Serif" font-size="11.00" fill="#000000">datetime[26]</text>
<polygon fill="none" stroke="#000000" points="10,-125.2 10,-147.2 81,-147.2 81,-125.2 10,-125.2"/>
<text text-anchor="start" x="30" y="-132.3" font-family="Helvetica,sans-Serif" font-size="11.00" fill="#000000">UD</text>
<polygon fill="none" stroke="#000000" points="81,-125.2 81,-147.2 192,-147.2 192,-125.2 81,-125.2"/>
<text text-anchor="start" x="84" y="-132.9" font-family="Helvetica,sans-Serif" font-size="11.00" fill="#000000">datetime[26]</text>
<polygon fill="none" stroke="#000000" points="10,-103.2 10,-125.2 81,-125.2 81,-103.2 10,-103.2"/>
<text text-anchor="start" x="30" y="-110.3" font-family="Helvetica,sans-Serif" font-size="11.00" fill="#000000">Remarks</text>
<polygon fill="none" stroke="#000000" points="81,-103.2 81,-125.2 192,-125.2 192,-103.2 81,-103.2"/>
<text text-anchor="start" x="83.6115" y="-110.9" font-family="Helvetica,sans-Serif" font-size="11.00" fill="#000000">longtext[2147483647]</text>
<polygon fill="none" stroke="#000000" points="10,-81.2 10,-103.2 81,-103.2 81,-81.2 10,-81.2"/>
<text text-anchor="start" x="30" y="-88.3" font-family="Helvetica,sans-Serif" font-size="11.00" fill="#000000">UserID</text>
<polygon fill="none" stroke="#000000" points="81,-81.2 81,-103.2 192,-103.2 192,-81.2 81,-81.2"/>
<text text-anchor="start" x="84" y="-88.9" font-family="Helvetica,sans-Serif" font-size="11.00" fill="#000000">int[10]</text>
<polygon fill="none" stroke="#000000" points="10,-59.2 10,-81.2 81,-81.2 81,-59.2 10,-59.2"/>
<text text-anchor="start" x="30" y="-66.3" font-family="Helvetica,sans-Serif" font-size="11.00" fill="#000000">Name</text>
<polygon fill="none" stroke="#000000" points="81,-59.2 81,-81.2 192,-81.2 192,-59.2 81,-59.2"/>
<text text-anchor="start" x="83.6115" y="-66.9" font-family="Helvetica,sans-Serif" font-size="11.00" fill="#000000">longtext[2147483647]</text>
<polygon fill="#ffffff" stroke="transparent" points="10,-40.2 10,-59.2 34,-59.2 34,-40.2 10,-40.2"/>
<polygon fill="none" stroke="#000000" points="10,-40.2 10,-59.2 34,-59.2 34,-40.2 10,-40.2"/>
<text text-anchor="start" x="13" y="-46.3" font-family="Helvetica,sans-Serif" font-size="11.00" fill="#000000">&lt; 0</text>
<polygon fill="#ffffff" stroke="transparent" points="34,-40.2 34,-59.2 81,-59.2 81,-40.2 34,-40.2"/>
<polygon fill="none" stroke="#000000" points="34,-40.2 34,-59.2 81,-59.2 81,-40.2 34,-40.2"/>
<text text-anchor="start" x="39.4956" y="-46.3" font-family="Helvetica,sans-Serif" font-size="11.00" fill="#000000">41 rows</text>
<polygon fill="#ffffff" stroke="transparent" points="81,-40.2 81,-59.2 192,-59.2 192,-40.2 81,-40.2"/>
<polygon fill="none" stroke="#000000" points="81,-40.2 81,-59.2 192,-59.2 192,-40.2 81,-40.2"/>
<text text-anchor="start" x="173.4053" y="-46.3" font-family="Helvetica,sans-Serif" font-size="11.00" fill="#000000">0 &gt;</text>
<polygon fill="none" stroke="#000000" stroke-width="2" points="9,-39.2 9,-259.2 193,-259.2 193,-39.2 9,-39.2"/>
</a>
</g>
</g>
</g>
</svg>
